<svg width="39" height="39" viewBox="0 0 39 39" fill="none" xmlns="http://www.w3.org/2000/svg">
<rect opacity="0.25" x="0.75" y="0.75" width="37.5" height="36.9748" rx="18.4874" stroke="white" stroke-width="1.5"/>
<path d="M23.9018 20.4632C23.887 20.5499 23.8742 20.6242 23.8614 20.6983C23.7674 21.2431 23.6162 21.7715 23.3621 22.2696C22.998 22.9834 22.4743 23.5561 21.7362 23.937C21.2894 24.1677 20.8098 24.3017 20.3082 24.365C19.8625 24.4213 19.4159 24.4272 18.9697 24.3673C18.2337 24.2684 17.5578 24.0276 16.9778 23.5744C16.3265 23.0654 15.9496 22.4096 15.8583 21.6085C15.7987 21.0859 15.8624 20.5784 16.0801 20.0929C16.3238 19.5496 16.7153 19.1234 17.2235 18.7923C17.7413 18.4551 18.3166 18.2534 18.9279 18.1378C19.5305 18.0239 20.1404 18.0133 20.7516 18.0226C21.2029 18.0294 21.6514 18.0664 22.0972 18.1341C22.1254 18.1384 22.1541 18.1399 22.1893 18.1434C22.1907 18.1247 22.1957 18.1072 22.1927 18.0911C22.1219 17.7062 22.0017 17.3383 21.7828 17.0043C21.5084 16.5856 21.1144 16.3168 20.6217 16.187C19.9787 16.0175 19.3327 16.0145 18.6937 16.2113C18.2099 16.3604 17.8206 16.6369 17.5253 17.0329C17.5123 17.0502 17.4988 17.0673 17.4854 17.0842C17.4836 17.0866 17.4804 17.088 17.4661 17.0982C17.0007 16.7967 16.5346 16.4882 16.0576 16.1762C16.0794 16.1437 16.0981 16.1133 16.1192 16.0845C16.6398 15.3759 17.3306 14.8859 18.1918 14.6166C18.7764 14.4338 19.3774 14.3768 19.9894 14.4087C20.4288 14.4316 20.8593 14.5002 21.2768 14.6359C22.2313 14.9464 22.9332 15.5355 23.394 16.3894C23.68 16.9193 23.8387 17.4861 23.9188 18.0745C23.9414 18.2409 23.9547 18.4085 23.9723 18.5755C23.9745 18.5965 23.9776 18.6175 23.9799 18.635C24.1585 18.7199 24.335 18.7987 24.5064 18.8864C25.1918 19.2372 25.7823 19.6964 26.251 20.2929C26.679 20.8376 26.9454 21.4497 27.0828 22.1154C27.1712 22.5431 27.2019 22.9751 27.1728 23.4097C27.1044 24.4342 26.7504 25.3622 26.0963 26.1753C25.1809 27.3133 24.0001 28.094 22.5594 28.5108C21.945 28.6886 21.3163 28.7918 20.6773 28.8411C20.2662 28.8728 19.8547 28.8978 19.4419 28.8859C18.5408 28.8598 17.6519 28.7556 16.7842 28.5125C15.2026 28.0694 13.9012 27.2369 12.9128 25.97C12.3968 25.3086 12.0104 24.5816 11.7204 23.8064C11.4496 23.0824 11.2712 22.3372 11.1581 21.5768C11.0639 20.9442 11.0154 20.3085 11.0026 19.6698C10.9903 19.0583 11.0222 18.4487 11.0883 17.8411C11.1867 16.9369 11.3694 16.0492 11.68 15.1879C12.0119 14.268 12.4751 13.4162 13.1212 12.6598C14.0056 11.6242 15.1187 10.9057 16.4399 10.4765C17.127 10.2532 17.8339 10.12 18.5554 10.053C19.1324 9.99937 19.7098 9.98434 20.2888 10.0176C21.3783 10.0802 22.4373 10.2739 23.447 10.6804C24.813 11.2304 25.9062 12.0989 26.74 13.2674C27.3237 14.0855 27.725 14.9825 27.9992 15.934C28.0009 15.9395 27.9994 15.9458 27.9994 15.9655C27.454 16.1068 26.9041 16.2465 26.3475 16.3865C26.316 16.2872 26.2883 16.197 26.2589 16.1073C26.0483 15.4633 25.7682 14.8498 25.3797 14.284C24.7217 13.3258 23.8346 12.6338 22.7258 12.1996C22.1158 11.9608 21.4804 11.8165 20.8273 11.7383C20.2227 11.666 19.6166 11.6467 19.009 11.6881C18.1328 11.7478 17.2815 11.9112 16.4735 12.2523C15.4662 12.6776 14.6642 13.3328 14.0625 14.2128C13.6122 14.8712 13.31 15.5909 13.1001 16.348C12.9641 16.8385 12.8717 17.3369 12.8093 17.8407C12.7244 18.5273 12.6918 19.2162 12.7185 19.9069C12.7555 20.8647 12.8781 21.811 13.1573 22.7346C13.3624 23.4128 13.6465 24.0575 14.0489 24.6523C14.7479 25.6851 15.7117 26.3949 16.9223 26.8031C17.6728 27.0561 18.4497 27.1738 19.2427 27.2089C19.7228 27.2301 20.2016 27.2145 20.6793 27.1694C21.523 27.0896 22.3362 26.9037 23.086 26.5108C23.7101 26.1838 24.2494 25.758 24.6904 25.2233C25.1093 24.7154 25.3665 24.1391 25.4465 23.4963C25.5261 22.857 25.4351 22.2407 25.1261 21.6627C24.8848 21.2116 24.5225 20.8631 24.0886 20.579C24.031 20.5413 23.9716 20.5064 23.9016 20.4632H23.9018ZM22.2499 19.8662C22.218 19.8568 22.1946 19.8477 22.1703 19.843C21.8632 19.7825 21.5532 19.7409 21.2409 19.7158C20.8039 19.6806 20.3661 19.6781 19.9282 19.6982C19.6405 19.7114 19.3549 19.7428 19.0743 19.8071C18.7295 19.8862 18.4023 20.0052 18.1192 20.2153C17.7846 20.4635 17.5778 20.7833 17.5513 21.1929C17.5222 21.643 17.7017 22.0092 18.0687 22.2906C18.3388 22.4978 18.6529 22.6139 18.9884 22.6817C19.4004 22.765 19.8142 22.7594 20.2274 22.693C20.6023 22.6329 20.9469 22.5034 21.2433 22.2697C21.5232 22.0493 21.7201 21.7708 21.8677 21.4577C22.037 21.0984 22.1314 20.7192 22.1907 20.3312C22.2141 20.1779 22.2299 20.0234 22.2497 19.8662H22.2499Z" fill="#FBFBFB"/>
</svg>
