<svg width="39" height="39" viewBox="0 0 39 39" fill="none" xmlns="http://www.w3.org/2000/svg">
<rect opacity="0.25" x="0.75" y="0.75" width="37.5" height="36.9748" rx="18.4874" stroke="white" stroke-width="1.5"/>
<path d="M20 10C15.0298 10 11 14.0298 11 19C11 20.6884 11.4743 22.2626 12.2832 23.6128L11.0806 28L15.5615 26.8237C16.872 27.5688 18.3849 28 20 28C24.9702 28 29 23.9702 29 19C29 14.0298 24.9702 10 20 10ZM16.9194 14.8018C17.0657 14.8018 17.216 14.8009 17.3457 14.8076C17.5062 14.8114 17.6809 14.8231 17.8481 15.1929C18.0469 15.6324 18.4797 16.7349 18.5352 16.8467C18.5907 16.9584 18.63 17.0901 18.5527 17.2363C18.4792 17.3863 18.441 17.4771 18.333 17.6099C18.2213 17.7389 18.0988 17.8991 17.9976 17.9966C17.8858 18.1083 17.7704 18.2309 17.8994 18.4536C18.0284 18.6764 18.4764 19.4066 19.1387 19.9961C19.9899 20.7566 20.7081 20.9903 20.9316 21.1021C21.1551 21.2138 21.2846 21.1964 21.4136 21.0464C21.5463 20.9001 21.9711 20.3983 22.1211 20.1748C22.2673 19.9513 22.4166 19.99 22.6191 20.0635C22.8246 20.137 23.9205 20.6768 24.144 20.7886C24.3675 20.9003 24.5141 20.9556 24.5703 21.0464C24.6281 21.1401 24.6281 21.5864 24.4429 22.1069C24.2576 22.6267 23.3479 23.1293 22.9399 23.1646C22.5282 23.2028 22.1439 23.3496 20.2637 22.6094C17.9957 21.7161 16.5654 19.3932 16.4536 19.2432C16.3419 19.0969 15.5454 18.0354 15.5454 16.9404C15.5454 15.8417 16.1215 15.3036 16.3232 15.0801C16.5287 14.8566 16.7694 14.8018 16.9194 14.8018Z" fill="white"/>
</svg>
