<svg width="1440" height="2175" viewBox="0 0 1440 2175" fill="none" xmlns="http://www.w3.org/2000/svg">
<path d="M1750.16 -1084.46C1746.06 -739.168 1727.95 -418.401 1675.61 -170.578C1658.64 -90.2261 1637.9 -17.2688 1604.13 23.0393C1535.25 105.235 1416.98 47.5713 1324.4 63.8511C1206.81 84.51 1131.26 229.6 1105.49 475.88C1086.11 661.203 1082.39 922.371 1017.81 1007.84C959.147 1085.48 776.243 820.232 668.986 727.975C559.133 633.495 472.455 633.18 419.209 716.145C391.317 759.615 372.453 825.961 364.251 913.893C356.413 997.994 374.65 1144.23 298.302 1048.71C273.066 1017.14 245.218 965.029 218.629 923.626C126.231 779.76 54.1745 788.813 60.8063 943.472M1748.62 -1073.19C1748.47 -724.52 1732.58 -401.143 1680.66 -154.302C1663.41 -71.9919 1641.17 -0.580882 1607.71 43.0776C1567.23 95.467 1509.33 98.8747 1449.32 96.7207C1408.36 95.2597 1366.42 91.1916 1328.35 98.2983C1253.17 112.362 1193.38 172.085 1151.04 271.701C1126.29 329.955 1107.52 401.882 1095.21 486.679C1086.48 545.99 1079.48 613.723 1071.24 680.118C1059.58 773.264 1045.43 863.689 1021.03 926.398C1012.3 948.979 1002.25 967.989 990.497 982.09C941.851 1040.22 819.881 896.721 719.4 794.52C692.411 766.968 666.967 742.382 644.877 725.443C553.806 655.011 480.252 653.211 429.878 712.077C421.201 722.202 413.208 734.13 405.924 747.828C379.941 796.653 362.752 867.77 355.164 958.473C350.676 1012.2 355.615 1088.54 342.109 1117.38C333.795 1135.14 318.462 1134.62 289.817 1100.3C264.788 1070.31 237.172 1020.51 210.694 980.77C118.71 842.605 45.7319 850.731 50.5314 1003.95M1747.07 -1061.95C1750.88 -709.875 1737.2 -383.91 1685.69 -138.049C1668.16 -53.7565 1644.43 16.1065 1611.27 63.0715C1571.25 118.985 1513.83 126.371 1453.89 127.113C1412.96 127.634 1370.84 125.053 1332.29 132.703C1256.11 147.759 1194.01 204.636 1148.11 297.592C1121.27 351.931 1100.02 418.707 1084.91 497.434C1074.1 552.39 1064.91 615.22 1054.5 676.59C1039.7 762.603 1022.4 845.658 995.692 904.037C986.168 925.093 975.45 942.951 963.151 956.324C912.105 1011.39 791.578 876.21 693.362 784.063C666.995 759.134 642.259 737.435 620.758 722.935C532.534 663.442 462.073 671.145 414.933 739.152C406.812 750.828 399.383 764.329 392.627 779.513C368.549 833.693 353.034 909.581 346.074 1003.08C341.957 1058.49 346.69 1135.28 333.165 1165.34C324.829 1183.86 309.515 1184.13 281.327 1151.9C256.496 1123.5 229.129 1076.03 202.754 1037.94C111.19 905.47 37.28 912.673 40.2503 1064.42M1745.53 -1050.7C1753.28 -695.249 1741.82 -366.651 1690.73 -121.796C1672.92 -35.5437 1647.69 32.7714 1614.85 83.0867C1575.3 142.547 1518.36 153.888 1458.47 157.527C1417.58 160.053 1375.3 158.956 1336.23 167.107C1259.07 183.175 1194.64 237.185 1145.18 323.458C1116.26 373.907 1092.72 435.935 1074.61 508.167C1061.86 559.044 1050.34 616.674 1037.76 673.037C1019.82 751.92 999.38 827.602 970.358 881.629C960.048 901.157 948.652 917.867 935.826 930.531C882.374 982.538 763.457 856.351 667.33 773.558C641.624 751.41 617.532 732.327 596.64 720.357C511.162 671.374 443.887 689.01 400 766.177C392.438 779.428 385.558 794.457 379.343 811.149C357.175 870.682 343.334 951.342 337.002 1047.63C333.255 1104.72 337.788 1181.96 324.24 1213.24C315.888 1232.55 300.601 1233.64 272.844 1203.44C248.217 1176.65 221.084 1131.46 194.812 1095.01C103.662 968.244 28.8235 974.499 29.9691 1124.83M1743.98 -1039.43C1755.69 -680.601 1746.45 -349.393 1695.79 -105.497C1677.7 -17.2638 1651.11 49.8472 1618.43 103.125C1579.52 166.541 1522.89 181.427 1463.07 187.985C1422.21 192.492 1379.77 192.904 1340.2 201.576C1262.05 218.658 1195.3 269.822 1142.28 349.413C1111.27 395.947 1085.3 452.956 1064.33 518.988C1049.54 565.595 1035.81 618.214 1021.06 669.594C999.983 741.345 976.388 809.658 945.049 859.333C933.95 877.335 921.881 892.895 908.519 904.828C852.667 953.772 735.251 836.104 641.318 763.142C616.244 743.663 592.828 727.308 572.545 717.868C489.824 679.391 425.732 706.962 385.079 793.272C378.068 808.074 371.744 824.654 366.07 842.852C345.812 907.739 333.641 993.173 327.928 1092.23C324.552 1151.01 328.878 1228.67 315.313 1261.2C306.946 1281.28 291.68 1283.2 264.371 1255.04C239.944 1229.87 213.058 1186.98 186.89 1152.17C96.154 1031.11 20.3882 1036.44 19.7047 1185.3M1742.44 -1028.19C1758.11 -665.957 1751.08 -332.14 1700.82 -89.2455C1682.45 0.947796 1654.4 66.5972 1622 123.117C1583.58 190.144 1527.4 208.921 1467.64 218.376C1426.82 224.887 1384.22 226.783 1344.13 235.957C1264.99 254.051 1195.93 302.346 1139.34 375.279C1106.26 417.922 1077.84 469.865 1054.03 529.718C1037.2 572.034 1021.37 619.964 1004.32 666.04C980.275 731.067 953.197 791.166 919.709 836.923C907.76 853.248 895.082 867.808 881.174 879.013C822.916 924.897 707.004 815.722 615.275 752.638C590.839 735.825 568.089 722.201 548.415 715.291C468.433 687.252 407.54 724.827 370.13 820.3C363.682 836.675 357.907 854.783 352.764 874.492C334.423 944.754 323.921 1034.96 318.829 1136.79C315.823 1197.24 319.943 1275.37 306.36 1309.11C297.978 1329.98 282.733 1332.71 255.873 1306.6C231.645 1283.04 205.006 1242.46 178.941 1209.3C88.6246 1093.93 11.932 1098.33 9.41622 1245.75M1740.9 -1016.92C1760.52 -651.31 1755.71 -314.882 1705.87 -72.9696C1687.23 19.2038 1657.7 83.349 1625.58 143.155C1587.65 213.793 1531.92 236.44 1472.22 248.813C1431.44 257.306 1388.67 260.711 1348.09 270.404C1267.96 289.512 1196.59 334.961 1136.43 401.19C1101.26 439.919 1070.39 486.822 1043.74 540.494C1024.86 578.52 1006.83 621.503 987.598 662.53C960.437 720.493 930.166 773.089 894.383 814.56C881.643 829.335 868.301 842.791 853.851 853.243C793.192 896.064 678.784 795.382 589.245 742.155C565.447 728.009 543.367 717.091 524.306 712.759C447.069 695.156 389.37 742.735 355.194 847.35C349.297 865.278 344.078 884.937 339.469 906.13C323.038 981.746 314.21 1076.72 309.74 1181.34C307.105 1243.48 311.026 1322.06 297.419 1357.02C289.026 1378.67 273.794 1382.25 247.38 1358.16C223.354 1336.24 196.952 1297.91 170.996 1266.39C81.0936 1156.73 3.4668 1160.19 -0.863022 1306.18M1739.35 -1005.67C1762.92 -636.685 1760.33 -297.648 1710.9 -56.7158C1691.97 37.4173 1660.97 100.057 1629.14 163.149C1591.7 237.375 1536.43 263.936 1476.79 279.205C1436.04 289.703 1393.11 294.593 1352.01 304.787C1270.91 324.907 1197.2 367.489 1133.49 427.057C1096.24 461.893 1062.92 503.735 1033.43 551.228C1012.5 584.965 992.262 623.002 970.853 659.001C940.566 709.878 907.116 754.991 869.039 792.176C855.506 805.401 841.494 817.732 826.503 827.453C763.439 867.214 650.537 775 563.197 731.652C540.029 720.151 518.62 711.962 500.17 710.183C425.668 702.972 371.167 760.603 340.239 874.379C334.893 893.86 330.238 915.091 326.162 937.769C311.642 1018.74 304.483 1118.49 300.633 1225.88C298.368 1289.7 302.084 1368.73 288.458 1404.91C280.043 1427.32 264.844 1431.79 238.866 1409.68C215.036 1389.4 188.885 1353.35 163.031 1323.47C73.5415 1219.48 -5.00457 1222.04 -11.1742 1366.57M1737.81 -994.428C1765.33 -622.041 1764.96 -280.394 1715.95 -40.4436C1696.75 55.6712 1664.26 116.783 1632.73 183.183C1595.77 260.976 1540.96 291.472 1481.39 309.66C1440.67 322.139 1397.58 328.536 1355.98 339.253C1273.88 360.388 1197.86 400.101 1130.58 453.01C1091.25 483.933 1055.47 520.691 1023.16 562.046C1000.16 591.472 977.74 624.583 954.147 655.533C920.741 699.345 884.112 736.975 843.728 769.854C829.397 781.531 814.725 792.732 799.193 801.724C733.729 838.422 622.326 754.655 537.181 721.211C514.644 712.355 493.912 706.894 476.073 707.669C404.291 710.804 353.009 778.529 325.328 901.468C320.546 922.52 316.439 945.281 312.894 969.469C300.283 1055.79 294.793 1160.32 291.571 1270.5C289.677 1336 293.185 1415.46 279.543 1452.89C271.113 1476.08 255.942 1481.43 230.406 1461.3C206.78 1442.68 180.863 1408.86 155.121 1380.65C66.045 1282.36 -13.4277 1284 -21.4189 1427.08M1736.26 -983.159C1767.74 -607.393 1769.58 -263.136 1721 -24.1657C1701.5 73.9088 1667.54 133.515 1636.29 203.203C1599.81 284.562 1545.46 318.995 1485.96 340.078C1445.28 354.562 1402.01 362.424 1359.91 373.66C1276.83 395.807 1198.49 432.676 1127.64 478.88C1086.23 505.91 1047.99 537.584 1012.86 572.803C987.804 597.918 963.186 626.104 937.409 652.004C900.877 688.73 861.076 718.9 818.384 747.472C803.261 757.6 787.918 767.675 771.847 775.937C703.976 809.575 594.065 734.231 511.136 710.734C489.234 704.521 469.161 701.769 451.94 705.119C382.881 718.577 334.815 796.422 310.369 928.502C306.138 951.107 302.587 975.418 299.583 1001.11C288.882 1092.79 285.074 1202.11 282.467 1315.06C280.949 1382.24 284.246 1462.15 270.586 1500.8C262.14 1524.78 246.997 1531.02 221.897 1512.86C198.47 1495.91 172.801 1464.34 147.154 1437.76C58.4981 1345.17 -21.9143 1345.86 -31.7324 1487.49M1734.72 -971.912C1770.15 -592.769 1774.22 -245.88 1726.04 -7.91268C1706.27 92.1436 1670.82 150.222 1639.87 223.219C1603.87 308.146 1549.99 346.511 1490.54 370.494C1449.89 386.96 1406.46 396.328 1363.86 408.087C1279.79 431.248 1199.12 465.249 1124.72 504.793C1081.22 527.911 1040.51 554.479 1002.56 583.581C975.444 604.364 948.639 627.647 920.686 648.52C881.015 678.139 838.055 700.869 793.069 725.155C777.153 733.733 761.14 742.682 744.533 750.213C674.262 780.788 565.84 713.845 485.116 700.297C463.845 696.729 444.441 696.683 427.833 702.611C361.483 726.347 316.647 814.355 295.443 955.598C291.77 979.777 288.769 1005.62 286.306 1032.82C277.515 1129.85 275.376 1243.94 273.394 1359.66C272.246 1428.52 275.344 1508.89 261.659 1548.76C253.198 1573.51 238.09 1580.67 213.425 1564.47C190.204 1549.19 164.797 1519.98 139.232 1494.92C51.0949 1408.51 -30.3439 1407.79 -41.9943 1547.99M1733.17 -960.667C1772.56 -578.121 1778.83 -228.644 1731.08 8.33928C1711.02 110.355 1674.09 166.908 1643.44 243.211C1607.91 331.683 1554.51 374.005 1495.11 400.884C1454.5 419.355 1410.91 430.208 1367.79 442.468C1282.74 466.642 1199.74 497.775 1121.79 530.659C1076.21 549.883 1033.01 571.327 992.262 594.312C963.074 610.762 934.074 629.121 903.95 644.965C861.146 667.475 815.029 682.788 767.728 702.746C751.022 709.798 734.341 717.596 717.188 724.399C644.511 751.913 537.572 693.348 459.066 689.771C438.423 688.824 419.682 691.485 403.703 700.034C340.045 734.004 298.45 832.221 280.486 982.604C277.369 1008.33 274.932 1035.75 272.997 1064.43C266.116 1166.82 265.646 1285.68 264.292 1404.19C263.515 1474.74 266.399 1555.53 252.704 1596.65C244.233 1622.18 229.158 1630.28 204.917 1615.98C181.903 1602.42 156.735 1575.41 131.266 1551.98C43.5481 1471.26 -38.8226 1469.62 -52.2947 1608.37M1731.63 -949.398C1774.97 -563.474 1783.46 -211.365 1736.13 24.6388C1715.8 128.635 1677.37 183.639 1647.02 263.272C1611.96 355.289 1559.03 401.547 1499.7 431.345C1459.13 451.796 1415.37 464.157 1371.75 476.939C1285.71 502.126 1200.4 530.414 1118.88 556.616C1071.21 571.927 1025.54 588.265 981.979 605.135C950.723 617.253 919.529 630.687 887.229 641.503C841.285 656.907 792.017 664.801 742.407 680.429C724.908 685.932 707.556 692.603 689.876 698.697C614.799 723.149 509.334 672.941 433.061 679.378C413.046 681.052 394.969 686.42 379.616 697.567C318.644 741.75 280.302 850.195 265.58 1009.74C263.022 1037.05 261.133 1065.99 259.734 1096.18C254.77 1203.94 255.968 1327.56 255.235 1448.86C254.829 1521.09 257.514 1602.33 243.795 1644.67C235.301 1670.97 220.265 1680.02 196.456 1667.65C173.664 1655.82 148.721 1631 123.355 1609.21C36.0644 1534.22 -47.2483 1531.61 -62.5526 1668.92M1730.09 -938.154C1777.38 -548.852 1787.67 -195.046 1741.17 40.8894C1720.37 146.442 1680.63 200.301 1650.59 283.263C1615.99 378.804 1563.54 429.04 1504.28 461.756C1463.75 484.211 1419.82 498.059 1375.69 511.34C1288.67 537.54 1201.04 562.959 1115.95 582.479C1066.21 593.898 1018.04 605.067 971.682 615.864C938.35 623.627 904.962 632.136 870.506 637.968C821.423 646.265 769.009 646.738 717.079 658.04C698.795 662.015 680.765 667.539 662.544 672.903C585.061 694.294 481.068 652.419 407.023 668.871C387.637 673.167 370.223 681.242 355.491 694.988C297.197 749.361 262.115 868.058 250.633 1036.74C248.627 1065.6 247.294 1096.09 246.436 1127.8C243.382 1240.91 246.249 1369.3 246.136 1493.37C246.101 1567.28 248.58 1648.98 234.843 1692.53C226.334 1719.61 211.343 1729.63 187.958 1719.17C165.382 1709.06 140.669 1686.43 115.412 1666.28C28.5487 1597.01 -55.7037 1593.46 -72.8296 1729.32M1728.54 -926.906C1779.79 -534.204 1792.29 -177.809 1746.2 57.1457C1725.12 164.658 1683.89 216.968 1654.16 303.26C1620.02 402.325 1568.05 456.539 1508.85 492.151C1468.34 516.589 1424.26 531.944 1379.63 545.748C1291.61 572.939 1201.67 595.534 1113.02 608.373C1061.18 615.879 1010.53 621.9 961.376 626.623C925.957 630.011 890.395 633.638 853.762 634.442C801.533 635.61 745.983 628.709 691.73 635.661C672.656 638.11 653.966 642.504 635.198 647.116C555.314 665.445 452.788 631.904 380.97 658.372C362.207 665.291 345.462 676.072 331.351 692.417C275.715 756.939 243.914 885.928 235.674 1063.78C234.224 1094.19 233.447 1126.23 233.125 1159.44C231.981 1277.91 236.524 1411.09 237.032 1537.93C237.359 1613.5 239.639 1695.65 225.885 1740.45C217.361 1768.31 202.417 1779.31 179.455 1770.73C157.097 1762.38 132.61 1741.89 107.451 1723.38C21.0074 1659.81 -64.1716 1655.33 -83.1373 1789.73M1727 -915.641C1782.2 -519.559 1796.92 -160.534 1751.25 73.4173C1729.88 182.889 1687.16 233.651 1657.74 323.294C1624.06 425.883 1572.58 484.075 1513.44 522.583C1472.97 549.026 1428.73 565.865 1383.59 580.168C1294.58 608.372 1202.32 628.1 1110.1 634.28C1056.19 637.893 1003.04 638.744 951.094 637.395C913.599 636.428 875.842 635.131 837.041 630.929C781.664 624.945 722.979 610.693 666.409 613.293C646.551 614.215 627.182 617.46 607.879 621.342C525.589 636.61 424.52 611.358 354.945 647.885C336.803 657.403 320.722 670.892 307.246 689.88C254.265 764.526 225.743 903.834 220.75 1090.85C219.858 1122.83 219.638 1156.42 219.85 1191.12C220.616 1314.94 226.833 1452.89 227.963 1582.53C228.661 1659.78 230.741 1742.38 216.963 1788.4C208.424 1817.05 193.534 1829.04 170.982 1822.33C148.847 1815.73 124.584 1797.4 99.5276 1780.54C13.5035 1722.67 -72.6151 1717.25 -93.3949 1850.22M1725.45 -904.393C1784.6 -504.933 1801.96 -142.385 1756.29 89.6737C1734.83 201.553 1690.41 250.319 1661.31 343.29C1628.08 449.404 1577.09 511.572 1518.01 552.978C1477.58 581.401 1433.16 599.727 1387.52 614.576C1297.53 643.793 1202.94 660.653 1107.16 660.15C1051.17 659.85 995.521 655.529 940.781 648.131C901.196 642.766 861.26 636.588 820.303 627.401C761.779 614.289 699.958 592.662 641.066 590.912C620.422 590.306 600.376 592.403 580.532 595.555C495.842 607.76 396.225 590.799 328.9 637.408C311.386 649.548 295.956 665.723 283.119 687.33C232.781 772.08 207.554 921.725 205.796 1117.88C205.46 1151.41 205.791 1186.56 206.539 1222.76C209.215 1351.94 217.101 1494.66 218.851 1627.07C219.92 1706 221.794 1789.05 208.003 1836.3C199.447 1865.7 184.614 1878.72 162.469 1873.85C140.565 1869.02 116.475 1852.68 91.5642 1837.62C5.81853 1784.93 -81.0856 1779.1 -103.705 1910.61M1723.9 -893.145C1787.01 -490.284 1806.59 -125.126 1761.33 105.951C1739.6 219.788 1693.68 267.007 1664.89 363.33C1632.12 472.946 1581.61 539.092 1522.6 583.438C1482.21 613.866 1437.62 633.678 1391.47 649.025C1300.5 679.255 1203.59 693.27 1104.25 686.086C1046.17 681.894 988.024 672.381 930.496 658.932C888.828 649.191 846.704 638.086 803.58 623.918C741.907 603.653 676.952 574.675 615.743 568.573C594.314 566.439 573.595 567.387 553.211 569.809C466.115 578.954 367.934 570.24 302.878 626.949C285.979 641.689 271.211 660.548 259.01 684.798C211.301 779.632 189.384 939.634 190.868 1144.95C191.091 1180.06 191.975 1216.73 193.252 1254.42C197.837 1388.95 207.398 1536.45 209.771 1671.65C211.21 1752.26 212.877 1835.74 199.07 1884.23C190.498 1914.41 175.727 1928.46 153.99 1925.43C132.323 1922.4 108.434 1908.16 83.6269 1894.74C-1.69921 1847.75 -89.5356 1841 -113.982 1971.06M1722.37 -881.877C1789.43 -475.638 1811.22 -107.87 1766.39 122.225C1744.37 238.044 1696.95 283.671 1668.47 383.344C1636.15 496.463 1586.14 566.608 1527.19 613.851C1486.82 646.261 1442.08 667.58 1395.43 683.449C1303.47 714.693 1204.24 725.839 1101.34 711.994C1041.18 703.889 980.533 689.181 920.22 669.705C876.461 655.565 832.158 639.58 786.87 620.404C722.036 592.967 653.967 556.68 590.436 546.228C568.217 542.568 546.825 542.367 525.9 544.059C436.398 550.143 339.655 549.676 276.861 616.487C260.576 633.804 246.466 655.372 234.906 682.264C189.812 787.138 171.218 957.541 175.943 1172C176.716 1208.66 178.157 1246.88 179.975 1286.08C186.47 1425.96 197.708 1578.26 200.698 1716.2C202.508 1798.5 203.97 1882.43 190.144 1932.14C181.557 1963.1 166.862 1978.2 145.513 1976.99C124.093 1975.77 100.404 1963.63 75.6998 1951.86C-9.21961 1910.55 -97.9774 1902.87 -124.243 2031.51M1720.82 -870.632C1791.83 -461.015 1815.84 -90.6363 1771.42 138.479C1749.12 256.257 1700.19 300.316 1672.03 403.361C1640.16 519.982 1590.64 594.128 1531.75 644.267C1491.43 678.682 1446.52 701.485 1399.36 717.855C1306.41 750.111 1204.86 758.413 1098.39 737.864C1036.15 725.866 972.995 705.945 909.901 680.441C864.058 661.901 817.562 641.014 770.121 616.877C702.138 582.287 630.942 538.671 565.087 523.845C542.082 518.658 520.012 517.308 498.552 518.269C406.65 521.291 311.338 529.072 250.815 606.007C235.145 625.925 221.696 650.177 210.772 679.712C168.288 794.628 153.018 975.433 160.99 1199.05C162.328 1237.28 164.319 1277.06 166.671 1317.74C175.083 1463 187.982 1620.05 191.6 1760.78C193.781 1844.76 195.043 1929.14 181.201 1980.1C172.598 2011.84 157.973 2027.98 137.024 2028.59C115.844 2029.2 92.3538 2019.13 67.7604 2009.03C-16.7394 1973.41 -106.429 1964.81 -134.53 2091.99M1719.27 -859.389C1794.24 -446.369 1820.47 -73.3805 1776.46 154.729C1753.89 274.489 1703.44 316.956 1675.6 423.352C1644.18 543.477 1595.16 621.621 1536.33 674.656C1496.04 711.053 1450.97 735.363 1403.31 752.254C1309.37 785.524 1205.5 790.958 1095.48 763.748C1031.15 747.837 965.496 722.721 899.616 691.19C851.682 668.251 803.005 642.46 753.398 613.341C682.259 571.578 607.943 520.654 539.758 501.456C515.971 494.765 493.226 492.242 471.22 492.475C376.912 492.436 283.024 508.444 224.777 595.5C209.72 617.996 196.93 644.957 186.66 677.153C146.779 802.113 134.845 993.315 146.051 1226.08C147.94 1265.86 150.493 1307.18 153.375 1349.38C163.692 1499.99 178.271 1661.81 182.511 1805.34C185.067 1890.99 186.111 1975.81 172.258 2028.01C163.64 2060.53 149.093 2077.75 128.528 2080.13C107.602 2082.57 84.3045 2074.59 59.8068 2066.1C-24.2787 2036.19 -114.89 2026.66 -144.817 2152.39M1717.73 -848.119C1796.65 -431.722 1825.09 -56.1227 1781.51 171.029C1758.65 292.749 1706.69 333.623 1679.19 443.413C1648.21 567.019 1599.69 649.185 1540.93 705.138C1500.68 743.538 1455.44 769.336 1407.26 786.727C1312.35 821.009 1206.15 823.576 1092.56 789.706C1026.16 769.903 957.992 739.549 889.329 702.015C839.309 674.676 788.445 643.983 736.677 609.88C662.387 560.941 584.942 502.713 514.432 479.142C489.86 470.923 466.436 467.252 443.895 466.754C347.187 463.652 254.71 487.867 198.747 585.067C184.305 610.164 172.166 639.811 162.542 674.648C125.251 809.607 116.666 1011.25 131.114 1253.18C133.561 1294.53 136.664 1337.39 140.086 1381.09C152.314 1537.05 168.561 1703.64 173.422 1849.94C176.348 1937.28 177.193 2022.55 163.316 2075.97C154.68 2109.25 140.217 2127.56 120.035 2131.74C99.3668 2136.02 76.2498 2130.09 51.8683 2123.27C-31.803 2099.06 -123.341 2088.6 -155.103 2212.87M1716.18 -836.874C1799.05 -417.098 1829.72 -38.8671 1786.55 187.281C1763.42 310.981 1709.94 350.266 1682.75 463.406C1652.22 590.494 1604.2 676.678 1545.5 735.529C1505.28 775.911 1459.88 803.194 1411.2 821.129C1315.3 856.426 1206.79 856.144 1089.63 815.572C1021.14 791.856 950.467 756.285 879.026 712.745C826.914 680.985 773.865 645.412 719.943 606.348C642.497 550.234 561.94 484.721 489.099 456.754C463.744 447.031 439.647 442.211 416.566 440.983C317.452 434.82 226.383 467.218 172.716 574.582C158.883 602.258 147.4 634.591 138.425 672.091C103.716 817.052 98.4871 1029.14 116.183 1280.22C119.186 1323.13 122.839 1367.54 126.803 1412.74C140.94 1574.06 158.857 1745.43 164.345 1894.52C167.643 1983.54 168.281 2069.26 154.386 2123.9C145.735 2157.97 131.363 2177.36 111.559 2183.31C91.1527 2189.46 68.221 2185.59 43.9352 2180.39C-39.3165 2161.87 -131.794 2150.47 -165.37 2273.32M1714.64 -825.628C1801.47 -402.452 1834.34 -21.6324 1791.59 203.535C1768.17 329.195 1712.97 366.42 1686.32 483.401C1655.99 613.459 1608.71 704.153 1550.07 765.922C1509.89 808.309 1464.32 837.077 1415.14 855.511C1318.25 891.82 1207.41 888.672 1086.7 841.44C1016.13 813.831 942.949 773.021 868.724 723.478C814.519 687.296 759.291 646.843 703.208 602.795C622.61 539.505 539.069 467.177 463.758 434.348C437.661 423.254 412.849 417.126 389.227 415.169C287.713 405.944 198.05 446.55 146.679 564.078C133.454 594.333 122.634 629.374 114.3 669.515C82.1758 824.477 80.2964 1047 101.232 1307.23C104.786 1351.69 109.009 1397.67 113.496 1444.36C129.543 1611.04 149.141 1787.19 155.244 1939.05C158.912 2029.75 159.343 2115.91 145.432 2171.79C136.766 2206.64 122.483 2227.12 103.059 2234.85C82.9134 2242.86 60.1673 2241.04 35.9848 2237.49C-46.8527 2224.67 -140.252 2212.35 -175.66 2333.75M1713.1 -814.358C1803.88 -387.802 1838.97 -4.37447 1796.63 219.812C1772.94 347.453 1716.25 383.13 1689.9 503.439C1660.04 637.022 1613.24 731.694 1554.66 796.359C1514.5 840.728 1468.78 871.003 1419.09 889.961C1321.21 927.283 1208.06 921.288 1083.79 867.374C1011.13 835.852 935.453 789.823 858.444 734.277C802.147 693.673 744.669 648.045 686.49 599.309C602.643 528.437 516.055 449.168 438.441 412.006C411.558 399.385 386.068 392.11 361.906 389.423C257.986 377.137 169.726 425.927 120.652 553.62C108.034 586.454 97.8657 624.181 90.1987 667.004C60.6448 831.948 62.1334 1064.93 86.3116 1334.32C90.4239 1380.36 95.1949 1427.86 100.223 1476.06C118.18 1648.09 139.448 1829.02 146.171 1983.65C150.209 2076.04 150.441 2162.64 136.505 2219.74C127.824 2255.38 113.632 2276.95 94.5743 2286.44C74.7022 2296.32 52.121 2296.52 28.0493 2294.63C-54.3686 2287.52 -148.707 2274.25 -185.942 2394.2M1711.55 -803.115C1806.28 -373.181 1843.6 12.8793 1801.69 236.084C1777.71 365.685 1719.52 399.814 1693.48 523.451C1664.08 660.581 1617.76 759.208 1559.25 826.792C1519.14 873.164 1473.24 904.926 1423.04 924.383C1324.18 962.72 1208.7 953.857 1080.87 893.282C1006.13 857.868 927.941 806.579 848.151 745.053C789.766 700.024 730.111 649.54 669.766 595.822C582.771 517.798 493.048 431.177 413.111 389.666C385.438 375.519 359.276 367.093 334.578 363.675C228.258 348.327 141.384 405.283 94.6187 543.16C82.6085 578.573 73.0909 618.988 66.0779 664.473C39.0893 839.399 43.9515 1082.84 71.3642 1361.38C76.0329 1408.96 81.3548 1458.02 86.9241 1507.73C106.791 1685.11 129.728 1870.81 137.084 2028.23C141.493 2122.3 141.519 2209.35 127.565 2267.68C118.869 2304.09 104.774 2326.77 86.0883 2338.02C66.4975 2349.81 44.0817 2352.02 20.1057 2351.75C-61.898 2350.34 -157.158 2336.14 -196.22 2454.65M1710 -791.87C1808.69 -358.535 1848.22 30.1132 1806.72 252.337C1782.46 383.921 1722.77 416.48 1697.05 543.467C1668.11 684.121 1622.27 786.726 1563.82 857.206C1523.75 905.583 1477.69 938.83 1426.99 958.808C1327.14 998.157 1209.34 986.427 1077.94 919.17C1001.12 879.843 920.43 823.335 837.856 755.805C777.379 706.355 715.559 651.034 653.037 592.288C562.906 507.132 470.031 413.142 387.79 367.299C359.333 351.624 332.492 342.051 307.254 337.903C198.527 319.494 113.051 384.636 68.5937 532.674C57.186 570.668 48.3247 613.768 41.9658 661.914C17.5349 846.801 25.778 1100.73 56.4329 1388.42C61.66 1437.58 67.536 1488.16 73.6412 1539.38C95.4255 1722.14 120.029 1912.59 128.007 2072.81C132.787 2168.55 132.606 2256.04 118.635 2315.61C109.922 2352.78 95.9398 2376.62 77.6132 2389.59C58.2962 2403.27 36.0452 2407.49 12.1801 2408.89C-69.4093 2413.17 -165.596 2398.05 -206.493 2515.1M1708.46 -780.6C1811.11 -343.888 1852.85 47.3927 1811.76 268.613C1787.22 402.156 1726.03 433.168 1700.63 563.484C1672.14 707.662 1626.79 814.245 1568.39 887.622C1528.35 937.981 1482.14 972.735 1430.93 993.237C1330.08 1033.58 1209.98 1019.02 1075.01 945.085C996.111 901.865 912.824 839.733 827.565 766.607C764.937 712.462 701.005 652.554 636.309 588.805C543.037 496.518 447.012 395.134 362.457 344.962C333.209 327.761 305.7 317.037 279.922 312.159C168.795 290.688 84.4269 363.378 42.5631 522.24C31.687 562.643 23.5528 608.6 17.8479 659.409C-4.02295 854.28 7.59344 1118.66 41.4937 1415.5C47.2717 1466.21 53.7116 1518.36 60.3451 1571.07C84.0392 1759.18 110.312 1954.41 118.91 2117.39C124.053 2214.8 123.674 2302.76 109.685 2363.54C100.956 2401.5 87.0774 2426.45 69.1118 2441.18C50.089 2456.78 27.9905 2462.99 4.22859 2466.04C-76.9412 2476.02 -174.063 2459.96 -216.778 2575.58M1706.92 -769.354C1813.51 -329.261 1857.47 64.6294 1816.8 284.868C1791.99 420.391 1729.3 449.856 1704.2 583.501C1676.18 731.203 1631.3 841.742 1572.97 918.038C1532.97 970.402 1486.59 1006.64 1434.87 1027.64C1333.04 1069 1210.61 1051.58 1072.08 970.977C991.097 923.842 905.331 856.559 817.266 777.364C752.56 718.84 686.441 654.031 619.583 585.298C523.176 485.879 423.999 377.125 337.127 322.602C307.086 303.851 278.907 292 252.593 286.391C139.061 261.86 56.1337 342.844 16.5287 511.76C6.27547 554.786 -1.29686 603.24 -6.26832 656.855C-25.9036 861.06 -10.584 1136.55 26.5584 1442.55C32.9002 1494.83 39.8834 1548.52 47.0506 1602.71C72.6546 1796.17 100.61 1996.19 109.822 2161.95C115.336 2261.04 114.757 2349.45 100.744 2411.46C91.9997 2450.2 78.2317 2476.27 60.6175 2492.72C41.8814 2510.22 19.9348 2518.43 -3.71842 2523.11C-84.474 2538.8 -182.522 2521.81 -227.065 2635.98M1705.37 -758.106C1815.92 -314.613 1862.09 81.866 1821.84 301.123C1796.74 438.606 1732.56 466.523 1707.76 603.498C1680.21 754.746 1635.81 869.24 1577.54 948.434C1537.57 1002.78 1491.02 1040.5 1438.81 1062.05C1335.99 1104.42 1211.23 1084.13 1069.15 996.845C986.083 945.82 897.83 873.363 806.964 788.097C740.188 725.217 671.877 655.507 602.843 581.746C503.294 475.197 400.975 359.07 311.786 300.195C280.955 279.919 252.103 266.918 225.249 260.58C109.316 232.985 27.8328 322.288 -9.52108 501.236C-19.1589 546.863 -26.0731 598.026 -30.3981 654.281C-47.3842 868.661 -28.7824 1154.4 11.6021 1469.56C18.4948 1523.39 26.0397 1578.63 33.7428 1634.33C61.2567 1833.15 90.8808 2037.94 100.721 2206.48C106.605 2307.25 105.813 2396.1 91.7896 2459.35C83.03 2498.87 69.3779 2526.08 52.1174 2544.26C33.6755 2563.68 11.8812 2573.88 -11.6687 2580.21C-92.0123 2601.58 -190.98 2583.68 -237.357 2696.39M1703.83 -746.841C1818.33 -299.97 1866.73 99.1413 1826.89 317.419C1801.52 456.883 1735.83 483.23 1711.34 623.533C1684.25 778.306 1640.34 896.777 1582.13 978.889C1542.2 1035.24 1495.48 1074.45 1442.76 1096.49C1338.96 1139.87 1211.89 1116.74 1066.23 1022.78C981.082 967.837 890.345 890.231 796.672 798.896C727.819 731.638 657.321 657.025 586.113 578.26C483.429 464.58 377.95 341.06 286.452 277.856C254.836 256.052 225.318 241.923 197.916 234.833C79.5773 204.178 -0.457417 301.797 -35.5526 490.8C-44.5675 539.049 -50.8178 592.919 -54.5167 651.772C-68.859 876.329 -46.9624 1172.33 -3.33582 1496.65C4.10784 1552.04 12.209 1608.83 20.4532 1666.03C49.877 1870.21 81.1702 2079.77 91.6303 2251.09C97.8849 2353.54 96.8935 2442.83 82.846 2507.31C74.0711 2547.61 60.6004 2576.12 43.6226 2595.86C25.5405 2617.39 3.82538 2629.39 -19.6138 2637.38C-99.5431 2664.44 -199.437 2645.63 -247.642 2756.89M1702.29 -735.593C1820.74 -285.343 1871.35 116.378 1831.93 333.673C1806.27 475.097 1739.09 499.895 1714.92 643.55C1688.28 801.847 1644.86 924.297 1586.71 1009.3C1468.28 1182.47 1288.33 1200.43 1063.31 1048.67C911.948 946.582 742.594 772.466 569.386 574.729C463.56 453.918 354.94 323.026 261.124 255.469C88.6547 131.278 -21.1352 235.224 -61.5841 480.294C-102.033 725.365 -77.4166 1102.87 -18.2682 1523.68C35.3982 1905.54 118.075 2348.9 73.9153 2555.21C23.4081 2791.17 -179.562 2645.28 -257.917 2817.29M2409.69 2123.46C2219.98 1566.91 1981.15 1025.96 1747.62 623.888C1681.18 509.5 1612.79 403.084 1558.15 360.892C1400.27 239.008 1404.56 612.159 1382.43 831.719C1355.72 1096.66 1334.03 1372.34 1290.52 1602.49C1266.09 1731.69 1225.12 1847.69 1121.27 1739.11C1016.1 1629.15 889.758 1335.99 774.742 1082.26C640.722 786.602 499.49 505.588 364.832 304.625C230.175 103.662 102.468 -9.83692 35.4118 50.7288C-17.0962 98.1648 -29.2358 245.34 -31.3768 405.783C-36.992 827.365 19.9927 1365.32 134.353 1970.33M2404.83 2098.35C2237.16 1606.47 2029.83 1138.6 1813.47 749.387C1793.38 713.238 1773.3 677.79 1753.27 643.469C1687.44 530.736 1619.8 425.712 1565.52 382.943C1408.5 259.067 1408.43 614.005 1384.06 826.639C1362.45 1015.16 1344.55 1212.68 1318.25 1394.63C1309.2 1457.97 1299.22 1519.37 1287.86 1577.9C1263.21 1704.85 1222.67 1819.33 1121.31 1716.55C1018.67 1612.48 895.57 1331.18 783.378 1087.91C652.647 804.46 514.868 534.998 383.23 342.467C337.399 275.435 292.355 218.602 250.285 175.488C171.546 94.7571 103.188 61.9854 59.5953 100.266C7.23241 146.247 -6.29654 288.051 -10.3665 441.81C-18.6745 752.903 8.19783 1127.41 69.2474 1549.41C87.4593 1675.32 108.71 1805.44 133.005 1939.38M2399.97 2073.27C2237.89 1597.79 2037.47 1157.26 1818.49 767.25C1798.62 731.859 1778.75 696.88 1758.93 663.099C1693.71 552.045 1626.82 448.39 1572.9 405.024C1416.72 279.135 1412.31 615.876 1385.69 821.608C1362.32 1002.33 1343.52 1195.05 1316.12 1373.67C1306.83 1435.66 1296.68 1495.88 1285.21 1553.37C1260.34 1678.08 1220.23 1791.01 1121.36 1694.04C1021.25 1595.83 901.385 1326.4 792.03 1093.61C664.594 822.365 530.256 564.458 401.652 380.378C356.875 316.296 312.825 261.994 271.629 220.889C194.526 143.873 127.277 112.795 83.8084 149.87C31.5982 194.42 16.6777 330.829 10.6658 477.884C-1.63338 775.359 19.3178 1130.69 73.8576 1534.43C90.1295 1654.91 109.381 1779.65 131.679 1908.48M2395.11 2048.17C2238.62 1589.08 2045.14 1175.9 1823.51 785.092C1803.84 750.413 1784.19 715.924 1764.59 682.705C1699.98 573.306 1633.84 471.068 1580.3 427.101C1424.97 299.22 1416.22 617.761 1387.34 816.554C1362.21 989.489 1342.14 1176.65 1314.01 1352.71C1304.37 1413.11 1294.15 1472.38 1282.58 1528.84C1257.48 1651.28 1217.8 1762.7 1121.43 1671.53C1023.84 1579.18 907.225 1321.63 800.694 1099.3C676.546 840.27 545.662 593.913 420.083 418.263C376.355 357.132 333.304 305.36 292.974 266.243C217.503 192.943 151.372 163.556 108.025 199.451C55.9674 242.568 39.6552 373.583 31.7014 513.934C15.4132 797.814 30.4416 1133.93 78.4792 1519.46C92.8111 1634.49 110.068 1753.85 130.376 1877.61M2390.25 2023.09C2239.35 1580.4 2052.82 1194.51 1828.52 802.954C1809.07 769.009 1789.62 734.991 1770.24 702.334C1706.25 594.614 1640.86 493.745 1587.67 449.178C1433.2 319.306 1420.15 619.687 1388.97 811.522C1362.11 976.713 1340.99 1158.79 1311.88 1331.76C1301.96 1390.74 1291.6 1448.88 1279.92 1504.3C1254.61 1624.51 1215.36 1734.41 1121.47 1649.02C1026.41 1562.56 913.041 1316.87 809.335 1105C688.475 858.177 561.036 623.35 438.486 456.153C395.804 397.949 353.76 348.728 314.291 311.601C240.464 242.038 175.446 214.342 132.206 249.014C80.2879 290.678 62.5917 416.321 52.7013 549.965C32.422 820.229 41.5294 1137.16 83.052 1504.44C95.4385 1614.03 110.701 1728.02 129.012 1846.67M2385.39 1997.99C2240.08 1571.7 2060.51 1213.07 1833.53 820.799C1814.3 787.564 1795.06 754.063 1775.9 721.944C1712.52 615.88 1647.87 516.405 1595.06 471.261C1441.43 339.396 1424.11 621.635 1390.61 806.495C1362.06 964.005 1339.87 1140.95 1309.76 1310.83C1299.57 1368.39 1289.07 1425.41 1277.29 1479.8C1251.75 1597.74 1212.93 1706.12 1121.54 1626.53C1029 1545.94 918.884 1312.13 817.996 1110.72C700.423 876.086 576.44 652.833 456.917 494.089C415.29 438.835 374.239 392.146 335.636 357.007C263.446 291.158 199.536 265.156 156.427 298.645C104.662 338.876 85.5823 459.146 73.75 586.087C49.4869 842.755 52.6659 1140.49 87.6863 1489.54C98.1328 1593.69 111.396 1702.3 127.71 1815.84M2380.53 1972.89C2240.81 1562.99 2068.21 1231.55 1838.54 838.614C1819.52 806.088 1800.49 773.081 1781.55 741.526C1718.79 637.139 1654.88 539.034 1602.43 493.292C1449.65 359.437 1428.08 623.547 1392.23 801.394C1362.02 951.262 1338.72 1123.04 1307.62 1289.81C1297.15 1345.94 1286.51 1401.84 1274.62 1455.17C1248.85 1570.88 1210.47 1677.71 1121.57 1603.93C1031.55 1529.2 924.681 1307.27 826.617 1116.33C712.333 893.902 591.803 682.2 475.3 531.888C434.728 479.583 394.676 435.423 356.941 402.296C286.382 340.163 223.592 315.851 180.596 348.139C128.984 386.938 108.507 501.815 94.7381 622.049C66.4838 865.1 63.742 1143.65 92.2525 1474.45C100.754 1573.16 112.022 1676.4 126.345 1784.83M2375.67 1947.81C2241.53 1554.31 2075.93 1250.03 1843.55 856.48C1824.75 824.641 1805.92 792.152 1787.21 761.157C1725.05 658.427 1661.9 561.715 1609.81 515.395C1457.88 379.526 1432.09 625.595 1393.87 796.386C1362.03 938.652 1337.62 1105.24 1305.5 1268.9C1294.77 1323.64 1283.97 1378.37 1271.99 1430.68C1245.99 1544.13 1208.04 1649.44 1121.63 1581.46C1034.15 1512.63 930.511 1302.53 835.285 1122.07C724.295 911.852 607.212 711.703 493.742 569.842C454.217 520.465 415.167 478.858 378.298 447.718C309.376 389.3 247.706 366.702 204.824 397.788C153.357 435.133 131.496 544.637 115.78 658.17C83.5422 887.624 74.8721 1146.97 96.8751 1459.55C103.436 1552.82 112.705 1650.68 125.031 1754M2370.81 1922.7C2242.26 1545.6 2083.65 1268.4 1848.56 874.318C1829.98 843.163 1811.37 811.214 1792.87 780.761C1731.33 679.708 1668.92 584.389 1617.2 537.47C1466.13 399.609 1436.14 627.63 1395.51 791.329C1362.07 926.054 1336.5 1087.39 1303.38 1247.92C1292.37 1301.23 1281.43 1354.85 1269.33 1406.13C1243.13 1517.33 1205.6 1621.1 1121.69 1558.94C1036.73 1495.98 936.339 1297.77 843.936 1127.76C736.236 929.756 622.6 741.16 512.156 607.729C473.685 561.301 435.634 522.224 399.626 493.074C332.348 438.392 271.784 417.464 229.024 447.37C177.709 483.282 154.457 587.392 136.806 694.242C100.577 910.079 85.9858 1150.24 101.479 1444.57C106.095 1532.4 113.362 1624.87 123.706 1723.13M2365.94 1897.6C2242.99 1536.9 2091.37 1286.7 1853.57 892.159C1835.21 861.689 1816.8 830.26 1798.53 800.367C1737.59 700.971 1675.94 607.045 1624.58 559.524C1474.35 419.673 1440.21 629.708 1397.14 786.274C1362.14 913.521 1335.4 1069.59 1301.25 1226.96C1289.99 1278.9 1278.89 1331.35 1266.69 1381.59C1240.26 1490.54 1203.16 1592.79 1121.75 1536.43C1039.31 1479.33 942.167 1293 852.588 1133.46C748.177 947.662 637.994 770.617 530.578 645.639C493.161 602.161 456.103 565.615 420.961 538.453C355.315 487.487 295.872 468.274 253.229 496.953C202.06 531.41 177.418 630.149 157.83 730.293C117.618 932.535 97.0982 1153.49 106.089 1429.6C108.765 1511.99 114.032 1599.08 122.385 1692.23M2361.09 1872.52C2243.72 1528.21 2099.12 1304.98 1858.59 910.003C1840.43 880.195 1822.24 849.307 1804.18 819.956C1743.85 722.237 1682.94 629.681 1631.95 581.586C1482.58 439.742 1444.3 631.831 1398.76 781.204C1362.23 901.035 1334.29 1051.77 1299.11 1205.97C1287.58 1256.51 1276.32 1307.82 1264.03 1357.02C1237.37 1463.73 1200.7 1564.43 1121.78 1513.88C1041.87 1462.65 947.971 1288.2 861.216 1139.12C760.098 965.529 653.364 800.037 548.967 683.491C512.598 642.94 476.533 608.925 442.265 583.773C378.255 536.522 319.926 519 277.404 546.499C226.382 579.526 200.354 672.869 178.825 766.309C134.621 954.933 108.173 1156.68 110.657 1414.57C111.392 1491.52 114.66 1573.23 121.015 1661.27M2356.22 1847.42C2244.45 1519.51 2106.84 1323.13 1863.6 927.842C1845.66 898.695 1827.67 868.373 1809.83 839.56C1750.11 743.498 1689.95 652.335 1639.33 603.638C1490.81 459.803 1448.45 634.029 1400.39 776.147C1362.37 888.622 1333.19 1033.97 1296.99 1185.01C1285.21 1234.17 1273.78 1284.32 1261.39 1332.48C1234.51 1436.93 1198.27 1536.14 1121.85 1491.36C1044.47 1446.01 953.807 1283.41 869.886 1144.83C772.049 983.43 668.775 829.511 567.404 721.394C532.089 683.792 497.024 652.307 463.624 629.167C401.251 585.63 344.035 569.8 301.627 596.098C250.758 627.692 223.333 715.642 199.874 802.399C151.687 977.427 119.31 1159.97 115.284 1399.61C114.075 1471.12 115.348 1547.46 119.711 1630.39M2351.36 1822.34C2245.18 1510.83 2114.58 1341.22 1868.61 945.708C1850.9 917.22 1833.1 887.372 1815.49 859.192C1756.37 764.595 1696.98 675.037 1646.72 625.741C1499.05 479.892 1452.63 636.318 1402.04 771.139C1362.57 876.345 1332.13 1016.25 1294.87 1164.08C1282.84 1211.86 1271.25 1260.82 1258.74 1307.95C1231.64 1410.16 1195.84 1507.82 1121.9 1468.85C1047.04 1429.37 959.63 1278.65 878.539 1150.53C783.991 1001.34 684.17 858.971 585.827 759.308C551.567 724.655 517.495 695.701 484.961 674.549C424.227 634.75 368.125 620.612 325.841 645.705C275.116 675.845 246.307 758.422 220.907 838.475C168.728 999.886 130.431 1163.24 119.903 1384.66C116.753 1450.73 116.027 1521.69 118.401 1599.54M2346.5 1797.24C2245.91 1502.12 2122.3 1359.18 1873.62 963.548C1856.12 935.698 1838.55 906.437 1821.15 878.797C1762.64 785.855 1704 697.692 1654.1 647.797C1507.27 499.957 1456.85 638.664 1403.67 766.063C1362.77 864.06 1331.04 998.469 1292.74 1143.1C1280.46 1189.5 1268.7 1237.3 1256.09 1283.39C1228.76 1383.34 1193.39 1479.49 1121.95 1446.32C1049.62 1412.7 965.45 1273.86 887.183 1156.21C795.93 1019.22 699.556 888.405 604.233 797.173C571.014 765.45 537.954 739.045 506.276 719.884C447.179 683.801 392.19 671.355 350.02 695.246C299.448 723.953 269.247 801.136 241.906 874.484C185.743 1022.3 141.517 1166.45 124.474 1369.62C119.379 1430.25 116.658 1495.84 117.035 1568.58M2341.64 1772.14C2246.63 1493.41 2130.02 1377.05 1878.63 981.387C1861.34 954.175 1843.98 925.481 1826.8 898.403C1768.9 807.116 1711.01 720.346 1661.48 669.874C1515.51 520.042 1461.1 641.094 1405.3 761.03C1363.02 851.905 1329.98 980.749 1290.61 1122.14C1278.07 1167.17 1266.16 1213.8 1253.44 1258.86C1225.9 1356.56 1190.95 1451.17 1122 1423.81C1052.2 1396.08 971.273 1269.1 895.829 1161.9C807.865 1037.13 714.939 917.864 622.649 835.084C590.484 806.31 558.418 782.436 527.607 765.264C470.146 732.894 416.271 722.14 374.221 744.852C323.802 772.127 292.205 843.917 262.929 910.583C202.775 1044.78 152.628 1169.75 129.083 1354.7C122.048 1409.88 117.327 1470.1 115.713 1537.73M2336.78 1747.05C2247.37 1484.73 2137.73 1394.82 1883.65 999.227C1866.58 972.651 1849.42 944.524 1832.47 918.007C1775.17 828.376 1718.03 742.999 1668.86 691.928C1523.74 540.104 1465.42 643.606 1406.93 755.953C1363.3 839.768 1328.91 963.009 1288.48 1101.16C1275.7 1144.84 1263.61 1190.28 1250.79 1234.3C1223.02 1329.75 1188.5 1422.83 1122.05 1401.27C1054.77 1379.41 977.086 1264.29 904.474 1167.58C819.804 1055.01 730.325 947.299 641.061 872.949C609.951 847.124 578.884 825.78 548.94 810.619C493.111 781.966 440.357 772.926 398.432 794.432C348.158 820.253 315.176 886.67 283.958 946.632C219.82 1067.23 163.746 1173 133.69 1339.7C124.703 1389.42 117.987 1444.26 114.384 1506.8M2331.92 1721.95C2248.09 1476.03 2145.43 1412.45 1888.65 1017.07C1871.79 991.109 1854.84 963.572 1838.11 937.618C1781.43 849.665 1725.08 765.909 1676.23 714.009C1532.11 560.902 1469.77 646.253 1408.56 750.924C1363.63 827.787 1327.87 945.338 1286.36 1080.21C1273.33 1122.52 1261.06 1166.79 1248.14 1209.77C1220.15 1302.98 1186.07 1394.52 1122.1 1378.76C1057.34 1362.77 982.908 1259.53 913.126 1173.27C831.745 1072.92 745.719 976.757 659.483 910.86C629.42 887.963 599.354 869.172 570.277 855.999C516.091 831.083 464.443 823.712 422.632 844.017C372.505 868.407 338.132 929.429 304.977 982.686C236.849 1089.67 174.853 1176.25 138.29 1324.73C127.362 1369.01 118.647 1418.48 113.054 1475.93M2327.07 1696.88C2248.82 1467.34 2153.12 1429.99 1893.68 1034.93C1877.03 1009.59 1860.29 982.662 1843.78 957.246C1787.72 870.949 1732.12 788.585 1683.64 736.108C1540.36 580.987 1474.18 649.004 1410.22 745.912C1364.03 815.908 1326.85 927.704 1284.26 1059.3C1271 1100.28 1258.55 1143.33 1245.52 1185.28C1217.31 1276.23 1183.65 1366.25 1122.19 1356.31C1059.96 1346.21 988.771 1254.83 921.807 1179.04C843.714 1090.89 761.142 1006.28 677.926 948.815C648.917 928.867 619.845 912.607 591.634 901.422C539.085 880.22 488.558 874.564 446.86 893.667C396.879 916.603 361.129 972.275 326.033 1018.83C253.92 1112.22 185.991 1179.59 142.924 1309.82C130.05 1348.66 119.346 1392.75 111.756 1445.1M2322.2 1671.77C2249.54 1458.62 2160.79 1447.39 1898.68 1052.78C1882.25 1028.04 1865.72 1001.71 1849.43 976.857C1793.97 892.238 1739.12 811.245 1691 758.169C1548.57 601.057 1478.62 651.867 1411.84 740.842C1364.41 804.056 1325.8 910.034 1282.11 1038.3C1268.61 1077.94 1255.97 1119.77 1242.86 1160.71C1214.42 1249.41 1181.2 1337.91 1122.22 1333.76C1062.51 1329.52 994.574 1250.03 930.434 1184.69C855.628 1108.73 776.503 1035.68 696.315 986.665C668.361 969.666 640.287 955.936 612.937 946.741C562.02 929.255 512.606 925.291 471.027 943.19C421.199 964.693 384.058 1014.97 347.019 1054.82C270.915 1134.59 197.058 1182.76 147.496 1294.79C132.682 1328.19 119.979 1366.9 110.392 1414.14M2317.34 1646.67C2250.27 1449.91 2168.44 1464.62 1903.69 1070.59C1887.47 1046.45 1871.16 1020.75 1855.09 996.437C1800.24 913.474 1746.13 833.875 1698.39 780.221C1556.8 621.095 1483.12 654.829 1413.48 735.784C1364.85 792.304 1324.8 892.419 1279.99 1017.34C1266.26 1055.65 1253.44 1096.27 1240.21 1136.15C1211.55 1222.59 1178.76 1309.57 1122.27 1311.22C1065.09 1312.85 1000.39 1245.21 939.083 1190.36C867.566 1126.61 791.894 1065.11 714.739 1024.55C687.832 1010.48 660.759 999.3 634.283 992.115C585.002 978.343 536.702 976.071 495.25 992.79C445.574 1012.86 407.036 1057.74 368.061 1090.89C287.974 1157.06 208.188 1186.03 152.111 1279.81C135.357 1307.77 120.654 1341.11 109.07 1383.24M2312.48 1621.59C2251 1441.23 2176.08 1481.74 1908.71 1088.46C1892.69 1064.9 1876.59 1039.82 1860.75 1016.07C1806.51 934.783 1753.15 856.554 1705.77 802.299C1565.03 641.161 1487.67 657.969 1415.11 730.73C1365.32 780.643 1323.78 874.809 1277.86 996.365C1263.89 1033.34 1250.89 1072.75 1237.56 1111.59C1208.67 1195.8 1176.3 1281.24 1122.32 1288.69C1067.67 1296.2 1006.21 1240.43 947.728 1196.04C879.5 1144.5 807.276 1094.55 733.146 1062.42C707.293 1051.29 681.219 1042.65 655.604 1037.45C607.967 1027.42 560.781 1026.83 519.435 1042.33C469.904 1060.95 429.982 1100.46 389.073 1126.92C304.994 1179.48 219.287 1189.25 156.7 1264.79C138.002 1287.31 121.304 1315.28 107.728 1352.3M2307.62 1596.49C2251.72 1432.52 2183.68 1498.69 1913.71 1106.3C1897.9 1083.31 1882.02 1058.86 1866.4 1035.67C1812.78 956.068 1760.13 879 1713.14 824.378C1573.13 660.583 1492.28 661.263 1416.74 725.7C1365.82 769.114 1322.78 857.241 1275.74 975.431C1261.54 1011.09 1248.35 1049.28 1234.92 1087.08C1205.81 1169.02 1173.87 1252.94 1122.38 1266.2C1070.25 1279.58 1012.04 1235.69 956.387 1201.76C891.453 1162.42 822.677 1124.02 751.575 1100.35C726.777 1092.17 701.696 1086.06 676.947 1082.85C630.942 1076.53 584.874 1077.64 543.65 1091.96C494.266 1109.14 452.952 1143.26 410.101 1163.01C322.039 1201.98 230.404 1192.55 161.315 1249.87C140.676 1266.94 121.971 1289.51 106.413 1321.47M2302.76 1571.41C2252.46 1423.84 2191.27 1515.51 1918.74 1124.16C1903.13 1101.76 1887.47 1077.95 1872.06 1055.3C1819.05 977.377 1767.15 901.68 1720.53 846.456C1581.36 680.648 1496.95 664.711 1418.39 720.667C1366.38 757.693 1321.81 839.715 1273.62 954.475C1259.2 988.82 1245.82 1025.78 1232.27 1062.55C1202.94 1142.25 1171.43 1224.63 1122.44 1243.69C1072.84 1262.93 1017.87 1230.92 965.04 1207.45C903.395 1180.33 838.071 1153.48 769.989 1138.24C746.233 1132.99 722.157 1129.4 698.276 1128.21C653.908 1125.6 608.948 1128.41 567.855 1141.54C518.625 1157.29 475.919 1186.02 431.126 1199.07C339.072 1224.41 241.516 1195.8 165.912 1234.87C143.328 1246.51 122.629 1263.7 105.08 1290.55M2297.9 1546.31C2253.18 1415.13 2198.81 1532.12 1923.74 1141.98C1908.34 1120.15 1892.9 1096.98 1877.71 1074.89C1825.32 998.64 1774.16 924.312 1727.91 868.513C1589.59 700.713 1501.66 668.314 1420.01 715.592C1366.94 746.319 1320.82 822.148 1271.48 933.5C1256.84 966.531 1243.26 1002.24 1229.62 1037.99C1200.06 1115.44 1168.99 1196.29 1122.48 1221.15C1075.41 1246.29 1023.68 1226.12 973.679 1213.13C915.323 1198.22 853.452 1182.92 788.404 1176.13C765.701 1173.83 742.619 1172.77 719.612 1173.59C676.875 1174.7 633.042 1179.22 592.055 1191.12C542.97 1205.42 498.88 1228.77 452.145 1235.12C356.108 1246.87 252.624 1199.05 170.517 1219.9C145.993 1226.1 123.294 1237.92 103.748 1259.66M2293.04 1521.2C2253.91 1406.43 2206.34 1548.57 1928.75 1159.82C1913.55 1138.54 1898.34 1116.09 1883.37 1094.5C1831.6 1020.11 1781.17 946.97 1735.29 890.593C1597.82 720.802 1506.43 672.115 1421.65 710.562C1367.55 735.078 1319.86 804.69 1269.36 912.545C1254.5 944.282 1240.72 978.745 1226.98 1013.46C1197.2 1088.66 1166.55 1167.98 1122.54 1198.64C1077.99 1229.64 1029.51 1221.35 982.332 1218.83C927.262 1216.1 868.847 1212.38 806.818 1214.02C785.17 1214.67 763.082 1216.14 740.941 1218.95C699.848 1223.79 657.121 1229.98 616.255 1240.71C567.323 1253.58 521.836 1271.53 473.172 1271.2C373.144 1269.33 263.738 1202.33 175.122 1204.93C148.653 1205.68 123.96 1212.13 102.417 1228.76M2288.18 1496.12C2254.64 1397.74 2213.82 1564.85 1933.77 1177.68C1918.78 1156.97 1903.79 1135.18 1889.02 1114.1C1837.88 1041.4 1788.19 969.644 1742.67 912.645C1606.06 740.862 1511.26 676.092 1423.27 705.483C1368.17 723.901 1318.89 787.185 1267.23 891.565C1252.15 922.011 1238.17 955.224 1224.32 988.881C1194.32 1061.82 1164.11 1139.64 1122.58 1176.08C1080.56 1212.95 1035.32 1216.54 990.968 1224.48C939.187 1233.96 884.225 1241.79 825.217 1251.86C804.616 1255.44 783.534 1259.47 762.254 1264.26C722.798 1272.82 681.186 1280.72 640.432 1290.23C591.652 1301.66 544.774 1314.22 494.168 1307.18C390.156 1291.72 274.822 1205.51 179.699 1189.89C151.289 1185.2 124.596 1186.27 101.069 1197.82M2283.32 1471.02C2255.37 1389.04 2221.27 1580.93 1938.78 1195.52C1923.99 1175.35 1909.22 1154.22 1894.68 1133.71C1844.14 1062.66 1795.2 992.299 1750.05 934.723C1614.29 760.948 1516.14 680.272 1424.91 700.451C1368.82 712.862 1317.95 769.769 1265.11 870.608C1249.82 899.784 1235.63 931.726 1221.67 964.347C1191.45 1035.05 1161.67 1111.33 1122.64 1153.59C1083.14 1196.32 1041.15 1211.8 999.627 1230.19C951.141 1251.89 899.626 1271.27 843.646 1289.79C824.099 1296.32 804.011 1302.88 783.597 1309.66C745.772 1321.94 705.279 1331.53 664.652 1339.85C616.017 1349.83 567.75 1357.02 515.207 1343.28C407.204 1314.19 285.942 1208.78 184.316 1174.94C153.966 1164.81 125.274 1160.5 99.7495 1166.94M2278.46 1445.94C2256.1 1380.35 2228.68 1596.84 1943.79 1213.39C1929.21 1193.76 1914.66 1173.29 1900.34 1153.34C1850.42 1083.97 1802.22 1014.98 1757.43 956.803C1622.52 781.014 1521.07 684.658 1426.55 695.42C1369.5 701.915 1317.03 752.375 1262.99 849.676C1247.5 877.581 1233.09 908.253 1219.04 939.837C1188.59 1008.28 1159.24 1083.03 1122.71 1131.1C1085.74 1179.72 1046.98 1207.04 1008.29 1235.92C963.09 1269.82 915.023 1300.75 862.068 1327.7C843.576 1337.18 824.487 1346.27 804.929 1355.04C768.74 1371.03 729.361 1382.32 688.847 1389.44C640.36 1397.99 590.706 1399.78 536.229 1379.35C424.242 1336.68 297.052 1212.06 188.916 1159.97C156.621 1144.4 125.934 1134.72 98.4131 1136.05M2273.6 1420.84C2256.83 1371.65 2236.04 1612.51 1948.8 1231.21C1934.41 1212.1 1920.1 1192.34 1905.99 1172.92C1856.67 1105.21 1809.23 1037.61 1764.82 978.858C1630.75 801.079 1526.04 689.222 1428.18 690.344C1370.18 691.013 1316.1 734.979 1260.85 828.677C1245.15 855.311 1230.54 884.688 1216.38 915.259C1185.71 981.461 1156.79 1054.67 1122.75 1108.54C1088.31 1163.03 1052.8 1202.23 1016.93 1241.57C975.022 1287.68 930.408 1330.16 880.486 1365.57C863.041 1377.98 844.952 1389.61 826.268 1400.39C791.723 1420.12 753.452 1433.1 713.058 1439.02C664.715 1446.11 613.678 1442.54 557.253 1415.41C441.283 1359.13 308.164 1215.31 193.521 1144.99C159.286 1123.99 126.592 1108.91 97.0866 1105.15M2268.73 1395.74C2257.55 1362.94 2243.35 1627.98 1953.81 1249.05C1939.62 1230.46 1925.53 1211.38 1911.65 1192.53C1862.95 1126.49 1816.25 1060.29 1772.19 1000.91C1638.98 821.143 1531.06 693.991 1429.81 685.289C1370.87 680.227 1315.19 717.652 1258.73 807.72C1242.83 833.105 1228 861.189 1213.74 890.724C1182.84 954.665 1154.35 1026.36 1122.81 1086.03C1090.89 1146.38 1058.63 1197.46 1025.58 1247.26C986.968 1305.58 945.801 1359.62 898.9 1403.45C882.509 1418.81 865.42 1432.98 847.596 1445.75C814.683 1469.2 777.531 1483.87 737.263 1488.6C689.073 1494.26 636.639 1485.29 578.278 1451.46C458.316 1381.57 319.276 1218.56 198.123 1130C161.943 1103.55 127.254 1083.1 95.7598 1074.25M2263.87 1370.66C2258.28 1354.26 2250.62 1643.24 1958.82 1266.91C1944.82 1248.85 1930.97 1230.47 1917.3 1212.16C1869.21 1147.78 1823.26 1082.97 1779.57 1023.02C1647.22 841.252 1536.12 699.013 1431.44 680.259C1371.57 669.537 1314.44 700.758 1256.6 786.767C1240.53 811.011 1225.44 837.695 1211.08 866.192C1179.97 927.894 1151.9 998.044 1122.86 1063.52C1093.46 1129.76 1064.45 1192.7 1034.22 1252.96C998.898 1323.49 961.184 1389.08 917.311 1441.37C901.974 1459.68 885.879 1476.37 868.921 1491.13C837.645 1518.29 801.606 1534.65 761.452 1538.19C713.415 1542.42 659.596 1528.07 599.293 1487.53C475.348 1404.05 330.38 1221.84 202.725 1115.05C164.605 1083.16 127.916 1057.33 94.4298 1043.38M2259.01 1345.55C2259.01 1345.55 2257.85 1658.27 1963.84 1284.75C1669.83 911.228 1462.54 473.803 1254.48 765.81C1110.7 967.606 1048.46 1371.64 890.261 1536.49C825.17 1604.31 734.601 1610.31 620.323 1523.58C492.386 1426.48 341.498 1225.09 207.328 1100.05C167.262 1062.72 128.584 1031.52 93.0961 1012.46" stroke="#E5ACB8" stroke-width="0.5" stroke-miterlimit="10"/>
</svg>
