<svg width="1440" height="3300" viewBox="0 0 1440 3300" fill="none" xmlns="http://www.w3.org/2000/svg">
<path d="M-912.24 2707.33C-895.8 2491.09 -802.92 2362.19 -713.28 2337.04C-623.64 2311.6 -532.32 2361.06 -441.72 2361.06C-198.96 2360.78 29.8799 1967.31 109.32 1413.58C134.76 1236.07 145.92 1046.96 170.76 868.886C195.6 690.808 237.72 517.536 306.12 432.737C404.52 310.909 527.76 404.753 627 540.997C726.24 677.24 819.24 857.579 929.28 920.048C1073.88 1002.02 1224 860.971 1334.64 633.428C1445.16 405.884 1523.28 100.043 1599.6 -200.711" stroke="#F4B1C0" stroke-opacity="0.15" stroke-miterlimit="10"/>
<path d="M-917.641 2686.41C-899.641 2471.3 -807.001 2342.69 -717.241 2316.69C-678.481 2305.38 -639.241 2308.21 -600.001 2315.84C-548.521 2325.73 -496.921 2343.26 -445.681 2345.8C-341.161 2351.17 -239.281 2288.14 -149.761 2165.75C-80.6406 2071.34 -19.0806 1946.68 29.9994 1797.15C65.1594 1690.87 93.1194 1571.02 112.679 1441C121.439 1382.77 128.639 1323.13 135.239 1262.92C148.679 1140.53 159.719 1016.15 177.119 897.719C196.919 763.454 226.799 633.429 271.199 544.955C284.999 517.254 299.999 493.51 316.439 474.855C385.439 396.84 465.239 423.693 541.559 490.119C574.559 518.95 606.96 554.848 637.08 593.573C670.8 636.821 703.8 683.46 736.68 727.838C801.24 815.464 864.959 896.023 933.959 925.42C978.839 944.358 1023.12 939.553 1066.92 916.374C1155.96 869.452 1243.44 744.233 1316.4 584.528C1336.44 540.715 1355.52 494.641 1374 446.588C1456.08 233.178 1524.72 -13.587 1592.4 -246.219" stroke="#F4B1C0" stroke-opacity="0.15" stroke-miterlimit="10"/>
<path d="M-923.039 2665.21C-903.359 2451.23 -811.079 2322.62 -721.199 2295.77C-682.319 2284.18 -643.079 2287.01 -603.719 2294.92C-552.239 2305.38 -500.639 2324.6 -449.519 2329.97C-345.239 2340.99 -243.479 2288.14 -153.119 2170.83C-83.279 2080.38 -20.759 1961.66 30.241 1817.79C66.721 1714.9 95.7611 1597.03 116.161 1467.85C125.281 1410.19 132.721 1350.54 139.681 1290.34C153.721 1168.23 165.361 1043.57 183.481 926.266C204.121 792.849 235.081 665.933 280.921 581.7C295.081 555.695 310.201 533.365 326.761 516.405C396.121 445.456 474.841 478.811 551.041 545.519C584.161 574.351 616.801 609.118 647.281 645.299C681.361 685.72 714.721 728.119 747.481 767.127C811.801 844.577 873.841 912.698 938.881 929.658C981.001 940.682 1021.2 927.962 1061.64 898.565C1143.6 838.358 1226.76 701.832 1298.52 534.778C1318.2 488.986 1337.28 440.934 1355.88 391.75C1438.8 171.839 1512.6 -72.6649 1585.44 -292.859" stroke="#F4B1C0" stroke-opacity="0.15" stroke-miterlimit="10"/>
<path d="M-928.441 2644.01C-907.081 2431.17 -815.161 2302.56 -725.161 2275.14C-686.281 2263.27 -646.801 2265.81 -607.441 2274.29C-555.841 2285.6 -504.481 2306.51 -453.361 2314.43C-349.201 2331.11 -247.801 2288.42 -156.481 2176.21C-85.9213 2089.71 -22.3213 1976.93 30.4787 1838.71C68.3987 1739.21 98.3987 1623.32 119.639 1494.71C129.119 1437.32 136.919 1378.25 144.239 1317.76C158.879 1195.93 171.119 1070.99 189.959 954.536C211.439 821.967 243.359 698.161 290.759 618.167C305.279 593.858 320.519 572.941 337.079 557.96C406.679 494.078 484.439 534.217 560.519 600.925C593.759 630.039 626.519 663.394 657.359 697.03C691.799 734.625 725.399 772.784 758.159 806.704C822.239 873.412 882.719 929.662 943.679 934.185C983.159 937.011 1019.28 916.942 1056.12 881.044C1131 808.117 1209.84 659.436 1280.28 485.316C1299.6 437.263 1318.56 387.797 1337.28 337.2C1420.92 110.787 1499.88 -131.455 1578.12 -338.93" stroke="#F4B1C0" stroke-opacity="0.15" stroke-miterlimit="10"/>
<path d="M-933.84 2622.81C-910.8 2411.38 -819.24 2282.48 -729 2254.5C-690 2242.34 -650.52 2244.61 -611.04 2253.93C-559.44 2265.81 -508.08 2288.42 -457.08 2299.16C-353.16 2321.21 -251.88 2288.98 -159.84 2182.14C-88.4398 2099.6 -23.7598 1993.04 30.6002 1860.18C70.0802 1764.08 100.92 1650.17 122.88 1522.4C132.72 1465.59 140.88 1406.51 148.44 1346.02C163.68 1224.19 176.52 1099.54 196.2 983.646C218.52 852.208 251.4 730.945 300.36 655.757C315.24 632.861 330.6 613.923 347.28 600.355C417.24 543.54 493.8 590.462 570 657.17C603.24 686.567 636.36 718.508 667.44 749.884C702.24 784.934 736.2 818.571 768.72 847.403C832.56 903.935 891.48 947.465 948.24 939.833C985.08 934.745 1017.12 906.762 1050.48 864.362C1118.4 778.433 1192.68 618.163 1262.04 436.976C1281.12 386.945 1299.96 335.5 1318.8 283.49C1403.16 50.8582 1487.28 -189.688 1570.8 -384.16" stroke="#F4B1C0" stroke-opacity="0.15" stroke-miterlimit="10"/>
<path d="M-939.24 2601.61C-914.52 2391.31 -823.32 2262.41 -732.96 2233.87C-693.96 2221.43 -654.36 2223.69 -614.76 2233.3C-563.16 2245.74 -511.8 2270.05 -460.92 2283.61C-357.24 2311.32 -256.2 2288.99 -163.2 2187.51C-91.0801 2108.93 -25.3202 2008.58 30.8399 1881.39C71.7599 1788.67 103.56 1676.45 126.36 1549.54C136.56 1493.01 145.08 1434.21 152.88 1374C168.72 1252.46 182.16 1127.52 202.56 1012.76C225.72 882.171 259.56 764.018 310.08 693.07C325.2 671.87 340.8 654.345 357.48 642.473C427.68 593.007 503.28 646.148 579.36 713.421C612.72 742.818 646.08 773.629 677.52 802.46C712.68 834.684 746.88 864.081 779.4 887.542C843 933.616 900.6 964.991 953.04 944.922C987.36 931.92 1015.08 896.022 1045.08 847.404C1106.04 748.189 1175.88 576.612 1244.04 388.076C1262.76 336.066 1281.6 282.926 1300.56 229.502C1385.64 -9.63066 1475.04 -247.916 1563.84 -429.668" stroke="#F4B1C0" stroke-opacity="0.15" stroke-miterlimit="10"/>
<path d="M-944.76 2580.69C-918.36 2371.52 -827.52 2242.91 -737.04 2213.52C-697.92 2200.8 -658.2 2202.77 -618.6 2212.95C-566.88 2226.23 -515.76 2252.24 -464.88 2268.35C-361.32 2301.42 -260.52 2289.55 -166.68 2193.16C-93.8397 2118.82 -26.8797 2024.41 30.9603 1902.59C73.4403 1813.26 106.08 1703.03 129.72 1576.96C140.16 1520.71 149.04 1462.2 157.32 1401.99C173.76 1280.73 187.92 1155.51 208.92 1041.59C232.92 912.135 267.72 796.525 319.8 730.1C335.28 710.313 351 694.484 367.8 684.308C438.24 641.909 512.76 701.834 588.84 769.107C622.32 798.787 655.92 828.184 687.6 854.471C723.12 883.868 757.56 909.026 790.08 927.399C853.44 963.297 909.84 981.67 957.84 949.729C989.76 928.529 1013.16 884.999 1039.56 829.88C1093.44 717.663 1158.96 534.214 1225.92 338.611C1244.28 284.34 1263.12 229.504 1282.2 174.95C1368.12 -70.6846 1462.56 -306.708 1556.64 -476.023" stroke="#F4B1C0" stroke-opacity="0.15" stroke-miterlimit="10"/>
<path d="M-950.16 2559.49C-922.08 2351.73 -831.6 2222.84 -741 2192.59C-701.88 2179.59 -662.04 2181.57 -622.32 2192.31C-570.6 2206.16 -519.48 2233.86 -468.72 2252.8C-365.4 2291.53 -264.72 2289.83 -170.04 2198.53C-96.48 2128.15 -28.32 2039.96 31.2 1923.5C75.12 1837.57 108.72 1729.31 133.2 1604.09C144 1548.41 153.24 1489.89 161.76 1429.69C178.8 1308.42 193.56 1183.2 215.28 1070.14C240.12 941.528 275.88 828.745 329.52 767.125C345.24 749.034 361.2 734.618 378 726.138C448.8 690.806 522.24 757.514 598.2 824.788C631.68 854.467 665.64 882.734 697.56 906.477C733.32 933.048 768.24 953.965 800.64 966.967C863.76 992.407 918.96 997.778 962.4 954.248C992.04 924.568 1010.88 873.689 1033.92 812.351C1080.84 686.848 1141.92 492.093 1207.68 289.141C1225.8 232.891 1244.4 176.359 1263.72 120.391C1350.36 -131.744 1450.08 -365.789 1549.44 -522.102" stroke="#F4B1C0" stroke-opacity="0.15" stroke-miterlimit="10"/>
<path d="M-955.559 2538.29C-925.799 2331.67 -835.679 2202.77 -744.839 2171.96C-705.599 2158.68 -665.639 2160.37 -625.919 2171.68C-574.199 2186.38 -523.079 2215.77 -472.559 2237.26C-369.479 2281.63 -269.039 2290.11 -173.399 2204.18C-99.1185 2137.76 -29.8786 2055.79 31.4414 1944.7C76.9214 1862.16 111.361 1755.88 136.681 1631.23C147.841 1575.82 157.441 1517.6 166.321 1457.39C183.961 1336.41 199.321 1210.91 221.761 1098.69C247.441 970.925 284.041 860.969 339.361 803.871C355.441 787.194 371.521 774.474 388.441 767.973C459.481 739.707 531.842 812.917 607.802 880.473C641.402 910.435 675.602 937.288 707.882 958.771C744.002 982.797 779.161 999.191 811.561 1007.11C874.441 1022.37 928.681 1014.17 967.441 959.336C994.801 920.894 1009.2 862.948 1028.64 795.392C1068.48 656.604 1125.24 450.543 1189.68 240.241C1207.44 182.013 1226.04 123.502 1245.48 66.4037C1332.84 -192.233 1437.72 -424.017 1542.36 -567.609" stroke="#F4B1C0" stroke-opacity="0.15" stroke-miterlimit="10"/>
<path d="M-960.961 2517.1C-929.521 2311.6 -839.761 2182.71 -748.801 2151.33C-709.561 2137.76 -669.481 2139.18 -629.641 2151.05C-577.921 2166.31 -526.921 2197.4 -476.401 2222C-373.441 2271.74 -273.241 2290.68 -176.761 2209.84C-101.761 2147.37 -31.3208 2071.62 31.6792 1966.19C78.7192 1887.32 113.999 1782.74 140.159 1658.93C151.679 1604.09 161.519 1545.87 170.759 1485.66C189.119 1364.96 204.959 1239.18 228.119 1128.09C254.639 1001.46 292.199 894.045 349.079 841.752C365.399 826.771 381.719 815.747 398.639 810.659C469.919 789.46 541.319 869.453 617.159 937.01C650.879 966.972 685.199 992.694 717.839 1011.63C754.319 1032.83 789.719 1044.99 821.999 1047.53C884.639 1052.34 937.679 1030.01 971.999 964.711C996.959 917.223 1006.92 852.494 1023 778.436C1055.88 626.363 1108.08 408.713 1171.44 191.345C1188.96 131.137 1207.44 70.9303 1227 12.1364C1315.08 -253.002 1425.24 -482.524 1535.16 -613.68" stroke="#F4B1C0" stroke-opacity="0.15" stroke-miterlimit="10"/>
<path d="M-966.359 2495.89C-933.359 2291.53 -843.839 2162.92 -752.759 2130.69C-713.399 2116.84 -673.319 2118.25 -633.479 2130.41C-581.639 2146.52 -530.759 2179.03 -480.359 2206.45C-377.639 2261.85 -277.679 2290.68 -180.239 2215.21C-104.399 2156.7 -32.7592 2087.44 31.8008 1987.1C80.4008 1911.63 116.521 1809.02 143.521 1685.78C155.401 1631.23 165.601 1573.28 175.081 1513.07C194.041 1392.38 210.481 1266.59 234.361 1156.35C261.721 1030.57 300.121 925.699 358.681 878.212C375.361 864.644 391.801 855.316 408.841 851.924C480.481 838.074 550.681 924.286 626.521 992.408C660.241 1022.65 694.921 1046.96 727.801 1063.36C764.641 1081.73 800.281 1089.93 832.561 1087.1C894.841 1081.73 946.801 1044.42 976.561 969.229C999.241 912.131 1004.76 841.183 1017.24 760.907C1043.04 595.549 1090.92 366.592 1153.08 141.875C1170.24 79.406 1188.6 17.7855 1208.4 -42.4218C1297.32 -314.061 1412.52 -541.322 1527.84 -659.758" stroke="#F4B1C0" stroke-opacity="0.15" stroke-miterlimit="10"/>
<path d="M-971.76 2474.98C-937.08 2272.03 -847.92 2143.13 -756.72 2110.34C-717.36 2096.21 -677.04 2097.34 -637.2 2110.34C-585.36 2127.02 -534.48 2161.5 -484.2 2191.47C-381.6 2252.52 -281.88 2291.53 -183.6 2221.15C-107.04 2166.87 -34.1996 2103.56 32.0404 2008.58C82.0804 1936.79 119.16 1835.88 147 1713.48C159.24 1659.49 169.8 1601.55 179.64 1541.34C199.2 1420.93 216.24 1295.14 240.96 1185.47C269.16 1060.81 308.4 958.49 368.76 915.525C385.68 903.371 402.36 895.739 419.52 894.043C491.4 887.259 560.64 980.255 636.36 1048.38C670.2 1078.9 705.12 1101.8 738.36 1115.93C775.56 1131.48 811.561 1135.44 843.721 1127.52C905.761 1111.98 956.281 1059.68 981.841 974.885C1001.88 908.176 1003.2 831.009 1012.32 744.231C1031.04 565.588 1074.6 325.325 1135.56 93.5412C1152.36 29.094 1170.72 -34.5052 1190.52 -95.8431C1280.16 -373.701 1400.52 -599.266 1521.12 -704.699" stroke="#F4B1C0" stroke-opacity="0.15" stroke-miterlimit="10"/>
<path d="M-977.16 2453.78C-940.8 2251.95 -852 2123.06 -760.56 2089.42C-721.08 2075.01 -680.76 2075.86 -640.8 2089.42C-588.96 2106.67 -538.2 2142.85 -487.92 2175.64C-385.56 2242.06 -285.96 2291.53 -186.96 2226.51C-109.68 2176.2 -35.64 2119.39 32.16 2029.5C83.76 1961.09 121.68 1862.16 150.36 1740.62C162.96 1686.91 173.88 1629.25 183.96 1569.04C204.12 1448.91 221.76 1322.84 247.2 1214.3C276.12 1090.49 316.32 990.712 378.36 952.835C395.64 942.377 412.44 936.158 429.6 936.158C501.72 936.441 569.88 1036.22 645.6 1104.34C679.56 1134.87 714.72 1156.64 748.2 1168.22C785.76 1181.23 822 1180.66 854.16 1167.38C915.96 1141.65 964.92 1074.1 986.4 979.688C1003.8 903.087 1000.92 819.984 1006.56 726.987C1018.2 535.059 1057.44 283.206 1117.2 44.3562C1133.76 -22.0696 1152 -87.3647 1171.92 -150.116C1262.28 -434.475 1387.92 -657.779 1513.8 -750.492" stroke="#F4B1C0" stroke-opacity="0.15" stroke-miterlimit="10"/>
<path d="M-982.68 2432.58C-944.64 2231.89 -856.32 2103 -764.64 2068.79C-725.16 2054.1 -684.6 2054.94 -644.64 2068.79C-592.68 2086.88 -542.04 2124.48 -491.88 2160.09C-389.76 2232.17 -290.4 2291.82 -190.44 2231.89C-112.44 2185.53 -37.1997 2134.94 32.2803 2050.7C85.4403 1985.97 124.2 1888.74 153.72 1767.76C166.68 1714.33 177.84 1656.95 188.4 1596.75C209.16 1476.62 227.4 1350.55 253.56 1242.85C283.32 1120.18 324.36 1022.66 388.08 989.587C405.6 980.541 422.64 976.302 439.92 977.998C512.4 985.347 579.48 1091.63 655.2 1160.03C689.16 1190.84 724.68 1211.19 758.4 1220.24C796.32 1230.42 832.8 1225.89 864.96 1207.24C926.4 1171.34 973.68 1088.8 991.32 984.499C1005.84 898.286 999 808.965 1001.28 709.468C1005.84 504.254 1040.64 241.095 1099.2 -5.10457C1115.4 -73.7917 1133.64 -140.783 1153.68 -204.665C1244.88 -495.525 1375.56 -716.567 1506.72 -796.844" stroke="#F4B1C0" stroke-opacity="0.15" stroke-miterlimit="10"/>
<path d="M-988.08 2411.38C-948.36 2212.1 -860.4 2082.92 -768.6 2048.16C-729 2033.17 -688.44 2033.74 -648.36 2048.44C-596.4 2067.09 -545.88 2106.67 -495.84 2144.83C-393.84 2222.56 -294.72 2292.38 -193.92 2237.54C-115.2 2195.14 -38.6399 2151.05 32.4001 2071.9C87.1201 2010.84 126.72 1915.3 157.08 1795.17C170.4 1742.31 181.92 1684.93 192.72 1625.01C214.08 1505.16 232.92 1378.81 259.8 1271.96C290.4 1150.14 332.28 1055.16 397.68 1026.89C415.56 1019.26 432.72 1016.72 450 1020.11C522.72 1034.53 588.72 1147.59 664.44 1216C698.52 1246.81 734.16 1266.03 768.36 1272.53C806.52 1279.88 843.36 1271.12 875.4 1247.09C936.6 1201.3 981.96 1103.5 995.76 989.3C1007.4 893.477 996.72 797.937 995.4 692.221C992.88 474.005 1023.36 199.257 1080.72 -54.2919C1096.68 -124.958 1114.68 -193.645 1134.96 -259.223C1226.88 -556.584 1362.84 -775.648 1499.28 -842.922" stroke="#F4B1C0" stroke-opacity="0.15" stroke-miterlimit="10"/>
<path d="M-993.48 2390.18C-952.08 2192.03 -864.48 2063.14 -772.56 2027.52C-732.96 2012.26 -692.16 2012.83 -652.08 2027.81C-600.12 2047.31 -549.6 2088.3 -499.68 2129.28C-397.92 2212.39 -299.04 2292.38 -197.28 2243.2C-117.84 2205.04 -40.0805 2167.16 32.6395 2093.1C89.0395 2035.72 129.48 1941.88 160.56 1822.31C174.24 1769.73 186.12 1712.92 197.16 1652.71C219.12 1533.15 238.68 1406.51 266.16 1300.8C297.6 1179.82 340.44 1087.1 407.4 1064.21C425.52 1057.99 443.04 1057.14 460.32 1062.23C533.4 1083.71 598.32 1203.56 673.92 1272.25C708.12 1303.34 744 1321.15 778.44 1325.39C816.96 1329.91 854.16 1317.19 886.08 1287.79C947.04 1231.83 990.36 1119.33 1000.56 994.955C1009.2 889.522 994.68 787.763 990 675.829C980.28 444.328 1006.56 157.99 1062.72 -102.625C1078.32 -175.27 1096.32 -245.935 1116.72 -312.644C1209.36 -616.507 1350.48 -833.309 1492.2 -887.863" stroke="#F4B1C0" stroke-opacity="0.15" stroke-miterlimit="10"/>
<path d="M-998.881 2369.26C-955.801 2172.25 -868.561 2043.35 -776.401 2007.17C-736.681 1991.62 -695.881 1991.91 -655.681 2007.45C-603.601 2027.52 -553.201 2070.49 -503.401 2114.02C-401.881 2202.77 -303.121 2292.94 -200.521 2248.85C-120.241 2214.65 -41.4007 2183.27 32.9993 2114.3C90.9593 2060.59 132.239 1968.16 164.159 1849.73C178.199 1797.72 190.439 1740.9 201.839 1680.69C224.399 1561.13 244.559 1434.5 272.759 1329.63C305.039 1209.78 348.719 1119.04 417.359 1101.24C435.719 1096.43 453.479 1097.28 470.759 1104.06C544.079 1132.89 607.919 1258.96 683.519 1327.93C717.839 1359.02 753.959 1375.7 788.639 1377.4C827.519 1379.38 864.959 1362.13 896.879 1327.37C957.599 1261.22 998.879 1134.31 1005.48 999.477C1011 884.998 992.639 776.455 984.599 658.02C967.559 413.233 989.759 115.589 1044.72 -152.375C1059.96 -226.998 1077.96 -299.36 1098.48 -367.482C1191.72 -677.846 1338 -892.67 1485.12 -934.504" stroke="#F4B1C0" stroke-opacity="0.15" stroke-miterlimit="10"/>
<path d="M-1004.28 2348.06C-959.519 2152.18 -872.639 2023.28 -780.359 1986.25C-740.639 1970.42 -699.719 1970.42 -659.399 1986.53C-607.319 2007.45 -557.039 2051.83 -507.239 2098.19C-405.839 2192.6 -307.439 2292.94 -203.879 2253.93C-122.879 2223.69 -42.7192 2199.1 33.2408 2134.93C92.7608 2084.9 134.881 1994.17 167.641 1876.58C181.921 1824.85 194.521 1768.32 206.281 1708.11C229.561 1588.83 250.201 1462.19 279.121 1357.89C312.241 1238.89 356.761 1150.7 427.081 1137.7C445.801 1134.31 463.681 1137.13 481.081 1145.33C554.641 1181.23 617.521 1314.08 693.001 1383.05C727.321 1414.42 763.801 1429.69 798.721 1428.84C837.961 1427.99 875.641 1406.79 907.561 1366.65C968.041 1290.34 1007.28 1149 1010.16 1003.72C1012.56 879.909 990.481 764.865 979.081 640.21C955.081 382.422 972.721 73.1883 1026.6 -202.126C1041.6 -279.01 1059.36 -353.068 1080.12 -422.32C1174.08 -738.62 1325.52 -951.183 1477.92 -980.297" stroke="#F4B1C0" stroke-opacity="0.15" stroke-miterlimit="10"/>
<path d="M-1009.68 2326.86C-963.24 2132.39 -876.72 2003.21 -784.32 1965.62C-744.48 1949.51 -703.44 1949.51 -663.12 1966.18C-611.04 1987.67 -560.76 2033.74 -511.08 2082.92C-409.92 2182.7 -311.64 2293.51 -207.24 2259.59C-125.52 2233.3 -44.1597 2215.21 33.4803 2156.42C94.5603 2110.06 137.52 2021.02 171.12 1904C185.76 1852.84 198.72 1796.3 210.84 1736.1C234.72 1617.1 255.96 1490.18 285.72 1387.01C319.68 1269.14 365.04 1182.64 437.04 1175.29C456 1173.31 474.12 1177.84 491.52 1188.01C565.44 1230.98 627.12 1370.61 702.6 1439.58C737.04 1471.24 773.76 1485.09 809.04 1481.7C848.64 1478.03 886.68 1452.87 918.48 1407.36C978.72 1321.15 1015.92 1165.4 1015.2 1009.37C1014.6 876.519 988.8 754.691 973.8 623.536C942.72 352.462 956.04 31.6391 1008.6 -250.459C1023.24 -329.322 1041 -405.075 1061.88 -476.024C1156.8 -799.108 1313.4 -1009.69 1471.08 -1026.09" stroke="#F4B1C0" stroke-opacity="0.15" stroke-miterlimit="10"/>
<path d="M-1015.08 2305.66C-967.08 2112.32 -880.8 1983.43 -788.28 1944.98C-748.44 1928.59 -707.28 1928.31 -666.84 1945.55C-614.76 1967.6 -564.48 2015.65 -514.92 2067.38C-414 2172.81 -315.84 2293.79 -210.72 2265.24C-128.28 2242.91 -45.7199 2231.32 33.6001 2177.62C96.2401 2134.93 140.04 2047.59 174.36 1931.42C189.36 1880.54 202.68 1824.29 215.04 1764.08C239.52 1645.08 261.36 1518.16 291.84 1415.84C326.64 1298.82 372.96 1214.58 446.52 1212.32C465.84 1211.76 484.08 1217.98 501.6 1229.85C575.76 1279.88 636.48 1426.02 711.84 1495.27C746.4 1526.93 783.36 1539.65 818.88 1533.99C858.84 1527.49 897.24 1498.38 928.8 1447.22C988.92 1351.11 1023.96 1181.23 1019.64 1014.18C1015.92 872.561 986.4 743.667 968.04 606.293C929.88 321.934 938.88 -10.1953 990.24 -299.642C1004.52 -380.484 1022.28 -457.933 1043.16 -530.295C1138.8 -859.88 1300.68 -1068.2 1463.64 -1072.16" stroke="#F4B1C0" stroke-opacity="0.15" stroke-miterlimit="10"/>
<path d="M-1020.6 2284.75C-970.92 2092.54 -885 1963.64 -792.24 1924.63C-752.28 1907.96 -711 1907.39 -670.56 1925.2C-618.36 1948.1 -568.32 1997.56 -518.88 2052.12C-418.08 2163.2 -320.28 2294.08 -214.199 2270.9C-131.039 2252.81 -47.1595 2248 33.6005 2198.82C97.8005 2160.38 142.441 2074.16 177.601 1958.55C192.961 1907.96 206.521 1851.99 219.241 1791.78C244.321 1673.06 266.76 1545.87 297.96 1444.39C333.6 1328.22 380.761 1246.24 456.001 1249.07C475.561 1249.92 494.041 1257.83 511.561 1271.4C585.961 1328.5 645.601 1481.42 720.961 1550.95C755.521 1582.9 792.721 1594.2 828.601 1586C868.921 1576.96 907.561 1543.32 939.121 1487.07C999.001 1380.79 1032 1197.06 1023.96 1018.98C1017.12 868.323 983.881 732.928 962.041 589.052C916.801 291.691 921.481 -52.0276 971.641 -348.824C985.681 -431.644 1003.2 -511.072 1024.32 -584.565C1120.68 -920.651 1287.72 -1126.71 1455.96 -1117.95" stroke="#F4B1C0" stroke-opacity="0.15" stroke-miterlimit="10"/>
<path d="M-1026 2263.55C-952.44 1990.21 -809.04 1843.79 -674.28 1904.56C-515.64 1976.08 -376.92 2303.12 -217.56 2276.27C-133.68 2262.13 -48.5999 2263.83 33.8401 2219.73C128.28 2169.42 180.96 2017.35 223.8 1819.48C278.88 1565.37 321.84 1270.83 465.84 1286.1C570 1297.12 637.56 1520.71 730.56 1606.64C804.24 1674.76 890.4 1643.38 950.04 1526.93C1009.68 1410.47 1040.76 1212.89 1029 1023.79C1019.16 864.363 982.2 721.901 956.88 571.525C889.92 174.1 909.12 -296.534 1006.32 -639.121C1103.52 -981.709 1275.6 -1185.79 1449.24 -1164.03" stroke="#F4B1C0" stroke-opacity="0.15" stroke-miterlimit="10"/>
<path d="M-1017.48 2302.55C-942.84 2050.7 -800.28 1914.46 -666.48 1970.14C-599.52 1997.84 -536.04 2068.22 -473.4 2136.35C-409.2 2206.45 -345.96 2274.57 -279.96 2294.36C-258.72 2300.86 -237.12 2302.27 -215.28 2296.9C-133.08 2276.83 -50.1603 2272.02 31.9197 2226.52C124.92 2175.07 178.68 2029.22 222.96 1842.38C233.16 1799.41 243 1755.6 253.08 1712.35C282.6 1585.15 314.04 1464.74 363.84 1397.75C391.68 1360.44 425.16 1339.24 466.8 1342.63C569.64 1350.83 636.84 1555.19 726.96 1628.68C738.96 1638.29 751.2 1645.36 763.56 1649.88C825.12 1671.93 890.28 1630.1 937.8 1531.73C994.92 1413.58 1024.44 1217.97 1013.76 1030.85C1004.76 872.278 970.08 728.968 946.8 578.591C906.6 319.106 902.04 29.942 930.96 -232.935C946.56 -373.418 971.64 -505.987 1005.96 -623.01C1068.48 -836.703 1160.52 -994.711 1263.84 -1078.1C1323.24 -1126.15 1386.36 -1148.76 1449.6 -1142.26" stroke="#F4B1C0" stroke-opacity="0.15" stroke-miterlimit="10"/>
<path d="M-1008.96 2341.85C-933.241 2111.19 -791.521 1985.41 -658.681 2036.29C-591.961 2061.73 -528.721 2125.61 -466.681 2186.1C-403.081 2248.28 -341.161 2307.36 -276.241 2320.93C-255.361 2325.45 -234.241 2324.89 -212.881 2318.1C-132.481 2292.38 -51.4809 2281.07 30.1191 2233.59C121.799 2181.01 176.399 2040.81 222.239 1865.28C232.799 1824.86 243.119 1783.87 253.439 1743.45C283.919 1624.73 315.719 1513.36 365.519 1451.74C393.479 1417.26 426.719 1397.19 467.639 1399.45C569.159 1404.82 636.119 1590.25 723.359 1651.3C734.999 1659.22 746.759 1664.87 758.759 1667.98C818.039 1682.96 880.319 1636.88 925.679 1537.39C980.159 1417.54 1008.36 1223.91 998.519 1038.49C990.239 880.761 958.079 736.886 936.839 586.226C900.119 326.742 898.079 38.7081 928.559 -221.059C945.119 -360.412 971.039 -491.285 1005.84 -606.329C1069.32 -816.348 1161.48 -970.964 1264.92 -1054.07C1324.2 -1101.84 1387.08 -1125.02 1450.2 -1119.93" stroke="#F4B1C0" stroke-opacity="0.15" stroke-miterlimit="10"/>
<path d="M-1000.56 2381.13C-923.759 2171.96 -782.879 2056.07 -650.879 2102.15C-584.519 2125.04 -521.519 2182.71 -460.079 2235.85C-397.079 2290.12 -336.359 2340.43 -272.758 2347.5C-252.238 2349.76 -231.718 2347.5 -210.718 2339.3C-131.998 2307.64 -53.1584 2289.55 27.9616 2240.65C118.202 2186.38 173.882 2052.68 221.042 1888.17C231.962 1850.29 242.642 1812.13 253.322 1774.54C284.762 1664.58 317.042 1561.98 366.722 1505.73C394.802 1473.79 427.922 1455.13 468.122 1456.26C568.322 1458.52 634.922 1625.58 719.282 1673.63C730.442 1680.13 741.962 1683.8 753.362 1685.5C810.362 1693.7 869.642 1643.38 912.842 1542.19C964.802 1420.65 991.562 1229 982.682 1045.27C975.242 888.108 945.362 743.95 926.162 593.008C892.922 333.241 893.042 46.9032 925.322 -209.755C942.722 -348.26 969.602 -477.154 1004.88 -590.219C1069.32 -796.846 1161.6 -947.788 1265.28 -1030.89C1324.44 -1078.38 1387.2 -1101.84 1450.08 -1098.16" stroke="#F4B1C0" stroke-opacity="0.15" stroke-miterlimit="10"/>
<path d="M-992.039 2420.42C-914.159 2232.74 -774.119 2127.02 -643.079 2168.01C-576.959 2188.36 -514.319 2240.08 -453.479 2285.31C-391.199 2331.95 -331.559 2372.94 -269.159 2373.5C-249.119 2373.78 -228.959 2369.83 -208.439 2359.93C-131.519 2322.9 -54.599 2297.75 26.041 2247.43C114.841 2192.03 171.601 2064.27 220.201 1910.78C231.481 1875.45 242.521 1840.12 253.561 1805.63C285.961 1704.16 318.721 1610.59 368.281 1559.43C396.481 1530.32 429.481 1513.36 468.961 1512.79C567.841 1511.66 634.201 1660.06 715.561 1695.68C726.361 1700.48 737.401 1702.74 748.441 1703.02C803.161 1704.16 859.561 1649.6 900.601 1547.28C949.921 1424.04 975.121 1234.37 967.321 1052.62C960.601 896.305 933.241 751.298 916.081 600.074C886.321 340.306 888.841 55.0994 922.681 -198.167C941.041 -335.824 968.641 -462.739 1004.52 -574.109C1069.92 -777.061 1162.44 -924.611 1266.12 -1007.43C1325.16 -1054.64 1387.68 -1078.66 1450.44 -1076.4" stroke="#F4B1C0" stroke-opacity="0.15" stroke-miterlimit="10"/>
<path d="M-983.52 2459.71C-904.44 2293.23 -765.479 2197.97 -635.279 2233.87C-569.519 2251.67 -506.999 2297.18 -446.759 2334.78C-385.079 2373.5 -326.759 2405.73 -265.439 2399.79C-245.759 2398.09 -226.079 2392.16 -206.159 2380.85C-130.919 2338.17 -56.1594 2306.23 24.0007 2254.22C111.361 2197.4 169.201 2075.58 219.241 1933.4C230.881 1900.32 242.401 1868.1 253.681 1836.44C286.921 1743.45 320.161 1659.21 369.841 1613.14C398.161 1586.85 430.921 1570.46 469.801 1569.33C567.361 1566.5 633.361 1694.83 711.841 1718.01C722.281 1721.12 732.841 1721.68 743.401 1720.55C795.841 1714.61 849.361 1656.1 888.241 1552.37C935.041 1427.15 958.801 1239.74 951.961 1059.68C946.081 904.22 921.001 758.648 906.001 607.141C879.841 347.374 884.641 63.5799 920.041 -186.86C939.361 -323.668 967.801 -448.605 1004.16 -557.996C1070.4 -757.274 1163.16 -901.149 1267.08 -983.969C1326.12 -1030.89 1388.28 -1055.48 1450.8 -1054.64" stroke="#F4B1C0" stroke-opacity="0.15" stroke-miterlimit="10"/>
<path d="M-975.121 2498.72C-894.961 2353.71 -756.841 2268.35 -627.481 2299.73C-561.961 2314.99 -499.801 2354.28 -440.161 2384.52C-379.081 2415.62 -321.961 2438.51 -261.961 2426.36C-242.641 2422.4 -223.441 2415.05 -204.001 2402.05C-130.561 2353.43 -57.721 2314.99 21.959 2261.28C107.879 2203.34 166.799 2087.45 218.279 1956.29C230.279 1925.76 242.159 1896.37 253.799 1867.53C287.999 1783.3 321.719 1707.83 371.279 1667.13C399.839 1643.66 432.359 1628.4 470.519 1626.14C566.759 1620.49 632.519 1729.88 707.999 1740.34C718.079 1741.75 728.159 1740.9 738.239 1738.36C788.399 1725.35 839.039 1662.89 875.759 1557.74C919.919 1430.82 942.239 1245.68 936.359 1067.03C931.199 912.416 908.519 765.996 895.559 614.489C872.879 354.721 880.079 72.341 917.039 -174.989C937.319 -310.667 966.599 -433.908 1003.56 -541.32C1070.76 -737.206 1163.64 -877.407 1267.68 -959.944C1326.6 -1006.87 1388.64 -1031.74 1450.92 -1032.02" stroke="#F4B1C0" stroke-opacity="0.15" stroke-miterlimit="10"/>
<path d="M-966.6 2538.01C-885.36 2414.2 -748.08 2339.3 -619.68 2365.58C-554.52 2378.3 -492.48 2411.38 -433.56 2433.99C-373.08 2457.17 -317.28 2471.02 -258.36 2452.65C-239.52 2446.71 -220.68 2437.38 -201.72 2423.25C-129.96 2368.98 -59.2796 2323.75 19.9204 2268.35C104.52 2209.27 164.4 2099.32 217.32 1979.47C229.68 1951.48 241.92 1924.63 253.92 1898.91C288.96 1823.15 323.28 1757.01 372.72 1721.4C401.4 1700.76 433.8 1686.63 471.12 1683.24C566.04 1674.76 631.56 1765.21 704.04 1762.95C713.76 1762.66 723.48 1760.12 733.08 1756.16C780.84 1736.09 828.72 1669.39 863.28 1563.1C904.92 1434.49 925.8 1251.33 920.88 1074.66C916.56 920.894 896.4 773.91 885.36 622.12C866.4 362.07 875.88 81.1027 914.28 -162.835C935.52 -297.666 965.52 -418.928 1003.08 -524.644C1071.24 -716.855 1164.36 -853.664 1268.52 -936.202C1327.32 -982.841 1389.12 -1008 1451.28 -1009.98" stroke="#F4B1C0" stroke-opacity="0.15" stroke-miterlimit="10"/>
<path d="M-958.08 2577.3C-875.76 2474.98 -739.32 2410.81 -611.88 2431.45C-546.96 2441.91 -485.28 2468.76 -426.84 2483.46C-367.08 2498.72 -312.36 2503.53 -254.64 2478.93C-236.16 2471.02 -217.8 2460 -199.32 2444.17C-129.24 2384.24 -60.6 2332.51 18.1201 2275.42C101.28 2215.21 162.36 2111.19 216.48 2002.36C229.2 1976.92 241.8 1952.9 254.16 1930C290.04 1863.01 324.96 1805.63 374.28 1775.1C403.08 1757.3 435.24 1744.01 471.96 1739.77C565.56 1728.46 630.84 1799.98 700.32 1785.28C709.56 1783.3 718.92 1779.34 728.04 1773.97C773.52 1746.84 818.4 1676.17 850.92 1568.19C889.92 1437.89 909.48 1256.7 905.4 1081.73C901.8 928.527 884.04 781.26 875.04 629.187C859.56 369.137 871.44 89.5832 911.52 -151.528C933.72 -285.511 964.56 -404.794 1002.6 -508.532C1071.72 -697.351 1164.96 -830.485 1269.24 -912.74C1327.92 -959.097 1389.48 -984.819 1451.52 -988.211" stroke="#F4B1C0" stroke-opacity="0.15" stroke-miterlimit="10"/>
<path d="M-949.68 2616.59C-866.28 2535.47 -730.8 2481.76 -604.08 2497.31C-539.52 2505.22 -477.96 2525.86 -420.24 2532.92C-361.08 2540.55 -307.68 2536.31 -251.16 2505.22C-233.04 2495.33 -215.16 2482.33 -197.16 2465.08C-128.88 2399.22 -62.2797 2340.99 16.0803 2282.2C97.8003 2220.86 159.96 2122.49 215.52 2024.98C228.6 2002.08 241.68 1980.88 254.28 1960.81C291 1902.3 326.52 1854.25 375.84 1828.81C404.76 1813.83 436.8 1801.67 472.8 1796.3C565.08 1782.17 630.12 1834.46 696.72 1807.33C705.6 1803.65 714.48 1798 723.24 1791.21C766.44 1757.01 808.44 1682.11 838.8 1573C875.28 1440.99 893.28 1261.79 890.28 1088.8C887.52 936.441 872.16 788.325 865.2 635.97C853.2 375.92 867.6 97.7796 909.12 -140.223C932.28 -273.074 963.96 -390.662 1002.48 -492.421C1072.44 -677.565 1165.92 -807.307 1270.44 -889.28C1329 -935.354 1390.44 -961.641 1452.24 -966.164" stroke="#F4B1C0" stroke-opacity="0.15" stroke-miterlimit="10"/>
<path d="M-941.16 2655.88C-856.68 2596.24 -722.04 2552.43 -596.28 2563.17C-531.96 2568.54 -470.76 2582.95 -413.64 2582.67C-355.08 2582.39 -302.88 2569.39 -247.56 2531.51C-229.92 2519.36 -212.4 2504.66 -194.88 2486C-128.28 2414.49 -63.72 2349.76 14.04 2288.99C94.44 2226.52 157.68 2134.09 214.56 2047.59C228 2027.24 241.44 2008.87 254.4 1991.62C291.96 1941.59 328.08 1902.87 377.28 1882.52C406.44 1870.36 438.12 1859.34 473.52 1852.84C564.48 1835.88 629.28 1869.23 692.88 1829.38C701.4 1824 709.8 1816.94 718.08 1808.74C759 1767.47 798.12 1688.61 826.32 1578.09C860.16 1444.39 876.84 1267.16 874.68 1095.86C872.76 944.357 859.68 795.677 854.76 643.038C846.36 382.989 863.04 105.979 906.12 -128.632C930.36 -260.635 962.64 -376.244 1001.76 -476.307C1072.68 -657.777 1166.28 -784.127 1270.92 -866.099C1329.36 -911.891 1390.56 -938.461 1452.12 -944.68" stroke="#F4B1C0" stroke-opacity="0.15" stroke-miterlimit="10"/>
<path d="M-932.641 2694.89C-847.081 2656.73 -713.281 2623.09 -588.481 2629.03C-524.521 2632.14 -463.561 2640.05 -406.921 2632.14C-349.081 2624.22 -298.081 2601.89 -243.841 2557.8C-226.561 2543.67 -209.521 2527.27 -192.601 2506.92C-127.8 2429.47 -65.1605 2358.24 12.1195 2296.05C91.0795 2232.45 155.52 2145.96 213.72 2070.49C227.52 2052.68 241.319 2037.13 254.639 2022.72C293.04 1981.45 329.76 1951.77 378.84 1936.22C408.12 1926.89 439.68 1917 474.24 1909.37C563.88 1889.3 628.44 1903.72 689.04 1851.71C697.2 1844.64 705.24 1835.88 712.92 1826.27C751.56 1777.93 787.8 1695.11 813.72 1583.18C845.04 1447.78 860.28 1272.53 859.08 1102.93C858 952.273 847.32 803.026 844.44 650.106C839.52 390.056 858.72 114.459 903.24 -117.324C928.44 -248.197 961.56 -362.111 1001.16 -460.195C1073.04 -638.272 1166.88 -760.948 1271.64 -842.638C1329.96 -888.147 1391.04 -915.282 1452.36 -922.914" stroke="#F4B1C0" stroke-opacity="0.15" stroke-miterlimit="10"/>
<path d="M-924.24 2734.18C-837.48 2717.22 -704.64 2694.04 -580.68 2694.89C-516.96 2695.45 -456.24 2697.43 -400.32 2681.6C-343.08 2665.77 -293.28 2634.68 -240.36 2584.09C-223.44 2567.97 -206.88 2549.6 -190.44 2527.84C-127.32 2444.73 -66.8401 2367 9.9599 2302.84C87.5999 2238.11 153.12 2157.83 212.64 2093.1C226.8 2077.84 240.96 2065.12 254.64 2053.53C293.88 2020.74 331.2 2000.39 380.16 1989.93C409.56 1983.71 441 1974.38 474.84 1965.62C563.16 1942.72 627.48 1937.92 685.08 1873.47C692.88 1864.71 700.44 1854.53 707.76 1843.51C744.12 1788.11 777.36 1701.05 801.24 1587.7C829.92 1450.61 843.84 1277.33 843.48 1109.71C843.24 959.621 834.84 809.809 834 656.889C832.56 396.839 854.28 122.656 900.24 -106.019C926.4 -236.044 960.36 -347.978 1000.56 -444.084C1073.4 -618.487 1167.36 -737.488 1272.24 -819.178C1330.44 -864.686 1391.28 -892.105 1452.48 -900.867" stroke="#F4B1C0" stroke-opacity="0.15" stroke-miterlimit="10"/>
<path d="M-915.721 2773.47C-827.881 2777.99 -695.881 2764.71 -572.881 2760.75C-509.521 2758.77 -449.041 2754.53 -393.721 2731.35C-337.081 2707.61 -288.481 2667.47 -236.761 2610.66C-220.321 2592.57 -204.121 2572.21 -188.161 2549.04C-126.841 2460 -68.2807 2376.05 8.03932 2309.9C84.2393 2244.04 151.079 2169.7 211.679 2116.28C226.319 2103.56 240.719 2093.67 254.759 2085.19C294.839 2060.88 332.879 2050.14 381.719 2044.48C411.359 2041.09 442.439 2032.89 475.679 2023C562.799 1997.28 626.759 1973.25 681.359 1896.37C688.799 1885.91 695.879 1874.04 702.719 1861.6C736.799 1799.13 767.159 1708.11 788.879 1593.35C815.039 1454.56 827.519 1283.27 828.119 1117.35C828.599 968.101 822.719 817.724 823.919 664.521C825.959 404.188 850.079 131.701 897.599 -93.864C924.719 -223.041 959.399 -332.997 1000.2 -427.124C1073.88 -597.852 1168.08 -713.461 1273.2 -794.868C1331.4 -840.094 1391.88 -868.078 1452.96 -878.254" stroke="#F4B1C0" stroke-opacity="0.15" stroke-miterlimit="10"/>
<path d="M-907.199 2812.76C-818.279 2838.48 -687.119 2835.66 -565.079 2826.61C-501.959 2822.09 -441.719 2811.63 -386.999 2780.82C-330.959 2749.44 -283.679 2700.26 -233.039 2636.94C-216.959 2616.87 -201.239 2594.54 -185.759 2569.95C-126.119 2474.98 -69.7191 2384.53 6.12088 2316.97C81.0009 2249.98 148.921 2181.86 210.841 2139.17C225.841 2129 240.601 2121.93 255.001 2116.28C295.921 2100.17 334.561 2095.93 383.281 2098.19C413.041 2099.6 444.001 2090.56 476.521 2079.53C562.321 2050.7 626.041 2007.74 677.641 1918.41C684.721 1906.26 691.321 1892.97 697.801 1879.12C729.601 1809.59 757.081 1714.33 776.641 1598.44C800.161 1457.96 811.321 1288.64 812.761 1124.41C814.081 976.015 810.481 825.073 813.721 671.304C819.241 410.972 845.881 139.898 894.961 -82.8407C923.161 -210.887 958.561 -319.147 999.841 -411.578C1074.48 -578.914 1168.92 -690.849 1274.04 -772.256C1332.12 -817.199 1392.48 -845.466 1453.32 -857.055" stroke="#F4B1C0" stroke-opacity="0.15" stroke-miterlimit="10"/>
<path d="M-898.801 2851.77C-808.801 2898.97 -678.601 2905.47 -557.281 2892.19C-494.521 2884.84 -434.521 2868.73 -380.401 2830C-325.081 2790.71 -278.881 2732.77 -229.561 2662.67C-213.841 2640.34 -198.601 2616.59 -183.601 2590.3C-125.761 2489.68 -71.2808 2392.72 4.07921 2323.19C77.5192 2255.35 146.639 2192.88 209.879 2161.22C225.239 2153.59 240.359 2149.07 255.119 2146.52C296.759 2138.89 336.119 2147.37 384.719 2151.33C414.719 2153.87 445.319 2147.65 477.119 2135.5C561.599 2103.84 625.079 2041.65 673.799 1940.18C680.399 1926.33 686.759 1911.35 692.639 1896.08C722.159 1819.48 746.759 1720.27 764.159 1602.96C785.159 1460.78 794.759 1293.45 797.159 1131.2C799.319 983.647 797.879 831.857 803.399 678.089C812.159 417.756 841.559 148.096 892.079 -71.5336C921.239 -198.732 957.479 -305.013 999.239 -395.465C1074.84 -559.127 1169.4 -667.67 1274.76 -748.794C1332.72 -793.455 1392.84 -822.287 1453.44 -835.289" stroke="#F4B1C0" stroke-opacity="0.15" stroke-miterlimit="10"/>
<path d="M-890.279 2891.06C-799.199 2959.75 -669.839 2976.42 -549.479 2958.33C-486.959 2948.44 -427.319 2926.11 -373.799 2880.04C-319.079 2833.11 -274.199 2765.84 -225.959 2689.52C-210.719 2665.21 -195.959 2639.49 -181.319 2611.79C-125.159 2505.22 -72.7192 2402.05 2.16084 2330.54C74.2809 2261.57 144.481 2205.6 209.041 2184.4C224.761 2179.31 240.241 2178.18 255.361 2177.9C297.841 2176.77 337.801 2196.56 386.281 2205.6C416.401 2210.97 446.881 2205.6 477.961 2192.6C561.121 2157.83 624.241 2076.42 670.081 1962.79C676.321 1947.25 682.201 1930.85 687.601 1914.18C714.841 1830.51 736.561 1727.05 751.801 1608.62C770.161 1464.74 778.441 1299.38 781.801 1138.83C784.801 991.847 785.761 839.774 793.201 685.723C805.561 425.39 837.361 157.143 889.321 -59.66C919.561 -185.728 956.401 -290.313 998.761 -378.787C1075.2 -538.774 1170 -643.925 1275.48 -724.766C1333.32 -769.144 1393.2 -798.541 1453.68 -812.957" stroke="#F4B1C0" stroke-opacity="0.15" stroke-miterlimit="10"/>
<path d="M-881.76 2930.35C-789.6 3020.24 -661.08 3047.37 -541.68 3024.19C-479.52 3011.76 -420 2983.21 -367.08 2929.5C-312.96 2874.66 -269.16 2798.91 -222.24 2715.81C-207.36 2689.52 -193.08 2661.82 -179.04 2632.7C-124.68 2520.2 -74.1596 2410.81 0.120386 2337.32C70.8004 2267.5 142.2 2217.47 208.08 2207.01C224.16 2204.47 240 2205.6 255.48 2208.71C298.8 2217.76 339.36 2245.46 387.72 2259.02C417.96 2267.5 448.321 2262.98 478.681 2248.85C560.521 2210.97 623.28 2110.63 666.24 1984.56C672.12 1967.32 677.52 1949.23 682.56 1931.14C707.4 1840.4 726.24 1732.99 739.44 1612.86C755.28 1467 762.12 1303.91 766.32 1145.05C770.16 998.913 773.401 846.274 783.001 691.94C798.841 431.608 833.16 164.774 886.56 -48.9194C917.76 -173.856 955.441 -277.028 998.281 -363.523C1075.68 -520.119 1170.6 -621.595 1276.32 -702.154C1334.04 -746.249 1393.8 -775.929 1454.04 -791.758" stroke="#F4B1C0" stroke-opacity="0.15" stroke-miterlimit="10"/>
<path d="M-873.359 2969.64C-780.119 3081.01 -652.439 3118.04 -533.879 3090.05C-471.959 3075.07 -412.799 3040.3 -360.479 2978.97C-307.079 2916.5 -264.479 2831.42 -218.639 2742.09C-204.119 2713.83 -190.319 2684.15 -176.759 2653.62C-124.319 2534.9 -75.5993 2419.86 -1.79928 2344.39C67.5607 2273.44 140.041 2227.65 207.121 2230.19C223.681 2230.76 239.881 2233.87 255.721 2240.08C299.881 2257.33 341.041 2294.92 389.401 2313.29C419.761 2324.88 449.881 2320.93 479.641 2305.94C560.161 2265.24 622.681 2145.68 662.641 2007.45C668.161 1988.51 673.081 1969.01 677.641 1949.51C700.201 1851.71 716.161 1740.34 727.201 1618.79C740.401 1471.24 746.041 1310.12 751.081 1153.25C755.761 1007.96 761.401 854.47 773.041 700.136C792.361 439.521 829.321 174.383 884.041 -36.2007C916.321 -160.29 954.721 -261.483 998.041 -345.999C1076.4 -498.92 1171.56 -597.004 1277.28 -677.563C1334.88 -721.376 1394.4 -751.621 1454.52 -768.863" stroke="#F4B1C0" stroke-opacity="0.15" stroke-miterlimit="10"/>
<path d="M-864.84 3008.93C-770.4 3141.5 -643.68 3188.98 -526.08 3155.91C-464.52 3138.39 -405.48 3097.68 -353.76 3028.71C-300.96 2958.33 -259.56 2864.49 -215.04 2768.66C-200.88 2738.42 -187.56 2707.04 -174.48 2674.82C-123.72 2550.45 -77.0397 2428.9 -3.83972 2351.45C64.2003 2279.66 137.76 2242.06 206.16 2253.09C223.08 2255.91 239.64 2262.13 255.84 2271.18C300.96 2296.62 342.48 2344.1 390.84 2367.28C421.32 2381.98 451.32 2378.87 480.24 2362.76C559.44 2318.95 621.6 2180.44 658.68 2029.78C663.84 2009.15 668.4 1987.95 672.48 1967.03C692.76 1862.16 705.84 1746.55 714.6 1623.88C725.28 1474.63 729.48 1315.49 735.36 1160.31C741 1015.87 748.8 861.818 762.48 706.919C785.281 446.303 824.88 182.861 880.92 -25.1788C914.28 -148.137 953.28 -247.635 997.32 -330.172C1076.64 -479.701 1171.92 -573.828 1277.88 -654.387C1335.36 -698.199 1394.76 -728.727 1454.52 -747.383" stroke="#F4B1C0" stroke-opacity="0.15" stroke-miterlimit="10"/>
<path d="M-856.32 3047.94C-760.8 3201.99 -635.04 3259.65 -518.28 3221.77C-456.96 3201.71 -398.28 3154.78 -347.16 3078.18C-294.96 2999.88 -254.76 2897.28 -211.44 2794.67C-197.76 2762.45 -184.8 2729.09 -172.2 2695.74C-123.24 2565.43 -78.4802 2437.95 -5.76021 2358.24C60.9598 2285.59 135.48 2254.22 205.32 2275.7C222.6 2281.07 239.52 2289.83 256.08 2301.99C302.04 2335.63 344.16 2393.01 392.4 2420.99C423.12 2438.8 452.76 2436.25 481.08 2419.29C558.84 2372.09 620.64 2214.65 654.96 2051.83C659.64 2029.5 663.84 2006.89 667.44 1984.56C685.44 1872.62 695.64 1753.06 702.24 1628.97C710.28 1478.03 713.16 1320.87 720 1167.38C726.48 1023.79 736.68 869.17 752.4 713.988C778.68 453.373 820.8 191.344 878.4 -13.5866C912.84 -135.414 952.56 -233.216 997.08 -314.057C1077.24 -459.911 1172.76 -550.646 1278.84 -630.923C1336.32 -674.453 1395.36 -705.546 1455 -725.332" stroke="#F4B1C0" stroke-opacity="0.15" stroke-miterlimit="10"/>
<path d="M-847.801 3087.22C-700.321 3354.91 -486.841 3371.87 -340.441 3127.64C-288.961 3041.71 -249.961 2929.78 -207.721 2820.95C-142.561 2652.77 -98.4008 2467.34 -7.68078 2365.02C73.7992 2273.15 171.359 2256.48 256.199 2333.08C302.999 2375.2 345.719 2442.19 393.839 2474.69C521.759 2560.9 628.199 2260.72 662.399 2002.08C697.199 1738.64 690.479 1450.89 704.639 1174.44C724.199 791.434 781.319 319.952 875.639 -2.00068C974.759 -340.631 1114.56 -482.811 1279.56 -607.465C1336.92 -650.712 1395.72 -682.088 1455.24 -703.57" stroke="#F4B1C0" stroke-opacity="0.15" stroke-miterlimit="10"/>
</svg>
