<svg width="2670" height="3903" viewBox="0 0 2670 3903" fill="none" xmlns="http://www.w3.org/2000/svg">
<path d="M2009.16 1.00116C2005.06 346.293 1986.95 667.06 1934.61 914.883C1917.64 995.235 1896.9 1068.19 1863.13 1108.5C1794.25 1190.7 1675.98 1133.03 1583.4 1149.31C1465.81 1169.97 1390.26 1315.06 1364.49 1561.34C1345.11 1746.66 1341.39 2007.83 1276.81 2093.3C1218.15 2170.94 1035.24 1905.69 927.986 1813.44C818.133 1718.96 731.455 1718.64 678.209 1801.61C650.317 1845.08 631.453 1911.42 623.251 1999.35C615.413 2083.45 633.65 2229.7 557.302 2134.18C532.066 2102.6 504.218 2050.49 477.629 2009.09C385.231 1865.22 313.175 1874.27 319.806 2028.93M2007.62 12.2706C2007.47 360.941 1991.58 684.318 1939.66 931.159C1922.41 1013.47 1900.17 1084.88 1866.71 1128.54C1826.23 1180.93 1768.33 1184.34 1708.32 1182.18C1667.36 1180.72 1625.42 1176.65 1587.35 1183.76C1512.17 1197.82 1452.38 1257.55 1410.04 1357.16C1385.29 1415.42 1366.52 1487.34 1354.21 1572.14C1345.48 1631.45 1338.48 1699.18 1330.24 1765.58C1318.58 1858.72 1304.43 1949.15 1280.03 2011.86C1271.3 2034.44 1261.25 2053.45 1249.5 2067.55C1200.85 2125.68 1078.88 1982.18 978.4 1879.98C951.411 1852.43 925.967 1827.84 903.877 1810.9C812.806 1740.47 739.252 1738.67 688.878 1797.54C680.201 1807.66 672.208 1819.59 664.924 1833.29C638.941 1882.11 621.752 1953.23 614.165 2043.93C609.676 2097.67 614.615 2174 601.109 2202.84C592.795 2220.6 577.462 2220.08 548.817 2185.76C523.788 2155.77 496.172 2105.97 469.694 2066.23C377.71 1928.07 304.732 1936.19 309.531 2089.41M2006.07 23.5157C2009.88 375.586 1996.2 701.551 1944.69 947.412C1927.16 1031.7 1903.43 1101.57 1870.27 1148.53C1830.25 1204.45 1772.83 1211.83 1712.89 1212.57C1671.96 1213.1 1629.84 1210.51 1591.29 1218.16C1515.11 1233.22 1453.01 1290.1 1407.11 1383.05C1380.27 1437.39 1359.02 1504.17 1343.91 1582.9C1333.1 1637.85 1323.91 1700.68 1313.5 1762.05C1298.7 1848.06 1281.4 1931.12 1254.69 1989.5C1245.17 2010.55 1234.45 2028.41 1222.15 2041.78C1171.1 2096.85 1050.58 1961.67 952.362 1869.52C925.995 1844.59 901.259 1822.9 879.758 1808.4C791.534 1748.9 721.072 1756.61 673.933 1824.61C665.812 1836.29 658.383 1849.79 651.627 1864.97C627.549 1919.15 612.034 1995.04 605.074 2088.54C600.957 2143.95 605.69 2220.74 592.165 2250.8C583.829 2269.32 568.515 2269.59 540.327 2237.36C515.497 2208.97 488.129 2161.49 461.754 2123.4C370.19 1990.93 296.28 1998.13 299.25 2149.88M2004.53 34.7622C2012.28 390.212 2000.82 718.81 1949.73 963.665C1931.92 1049.92 1906.69 1118.23 1873.85 1168.55C1834.3 1228.01 1777.36 1239.35 1717.47 1242.99C1676.58 1245.51 1634.3 1244.42 1595.23 1252.57C1518.07 1268.64 1453.64 1322.65 1404.18 1408.92C1375.26 1459.37 1351.72 1521.4 1333.61 1593.63C1320.86 1644.5 1309.34 1702.14 1296.76 1758.5C1278.82 1837.38 1258.38 1913.06 1229.36 1967.09C1219.05 1986.62 1207.65 2003.33 1194.83 2015.99C1141.37 2068 1022.46 1941.81 926.33 1859.02C900.624 1836.87 876.532 1817.79 855.64 1805.82C770.162 1756.83 702.887 1774.47 659 1851.64C651.438 1864.89 644.558 1879.92 638.343 1896.61C616.175 1956.14 602.334 2036.8 596.002 2133.09C592.255 2190.18 596.788 2267.42 583.24 2298.7C574.888 2318.01 559.601 2319.1 531.844 2288.9C507.217 2262.11 480.084 2216.92 453.812 2180.47C362.662 2053.71 287.823 2059.96 288.969 2210.29M2002.99 46.0315C2014.69 404.86 2005.45 736.068 1954.79 979.964C1936.7 1068.2 1910.11 1135.31 1877.43 1188.59C1838.52 1252 1781.89 1266.89 1722.07 1273.45C1681.21 1277.95 1638.77 1278.36 1599.2 1287.04C1521.05 1304.12 1454.3 1355.28 1401.28 1434.87C1370.27 1481.41 1344.3 1538.42 1323.33 1604.45C1308.54 1651.06 1294.81 1703.67 1280.06 1755.06C1258.98 1826.81 1235.39 1895.12 1204.05 1944.79C1192.95 1962.8 1180.88 1978.36 1167.52 1990.29C1111.67 2039.23 994.251 1921.56 900.318 1848.6C875.244 1829.12 851.828 1812.77 831.545 1803.33C748.824 1764.85 684.732 1792.42 644.079 1878.73C637.068 1893.54 630.744 1910.12 625.07 1928.31C604.812 1993.2 592.641 2078.63 586.929 2177.69C583.552 2236.47 587.878 2314.14 574.313 2346.66C565.946 2366.74 550.68 2368.66 523.371 2340.5C498.944 2315.33 472.058 2272.44 445.89 2237.64C355.154 2116.57 279.388 2121.9 278.705 2270.76M2001.44 57.2751C2017.11 419.504 2010.08 753.321 1959.82 996.215C1941.45 1086.41 1913.4 1152.06 1881 1208.58C1842.58 1275.6 1786.4 1294.38 1726.64 1303.84C1685.82 1310.35 1643.22 1312.24 1603.13 1321.42C1523.99 1339.51 1454.93 1387.81 1398.34 1460.74C1365.26 1503.38 1336.84 1555.33 1313.03 1615.18C1296.2 1657.49 1280.37 1705.42 1263.32 1751.5C1239.28 1816.53 1212.2 1876.63 1178.71 1922.38C1166.76 1938.71 1154.08 1953.27 1140.17 1964.47C1081.92 2010.36 966.004 1901.18 874.275 1838.1C849.839 1821.29 827.089 1807.66 807.415 1800.75C727.433 1772.71 666.54 1810.29 629.13 1905.76C622.682 1922.14 616.907 1940.24 611.764 1959.95C593.423 2030.22 582.921 2120.42 577.829 2222.25C574.823 2282.71 578.943 2360.83 565.36 2394.57C556.978 2415.44 541.733 2418.17 514.872 2392.06C490.645 2368.5 464.006 2327.92 437.941 2294.76C347.625 2179.39 270.932 2183.8 268.416 2331.21M1999.9 68.5444C2019.52 434.151 2014.71 770.579 1964.87 1012.49C1946.23 1104.66 1916.7 1168.81 1884.58 1228.62C1846.65 1299.25 1790.92 1321.9 1731.22 1334.27C1690.44 1342.77 1647.67 1346.17 1607.09 1355.86C1526.96 1374.97 1455.59 1420.42 1395.43 1486.65C1360.26 1525.38 1329.39 1572.28 1302.74 1625.96C1283.86 1663.98 1265.83 1706.96 1246.6 1747.99C1219.44 1805.95 1189.17 1858.55 1153.38 1900.02C1140.64 1914.8 1127.3 1928.25 1112.85 1938.7C1052.19 1981.52 937.784 1880.84 848.245 1827.62C824.447 1813.47 802.367 1802.55 783.306 1798.22C706.069 1780.62 648.37 1828.2 614.194 1932.81C608.297 1950.74 603.078 1970.4 598.469 1991.59C582.038 2067.21 573.21 2162.19 568.74 2266.8C566.105 2328.94 570.026 2407.52 556.419 2442.48C548.026 2464.13 532.794 2467.71 506.38 2443.62C482.354 2421.7 455.952 2383.37 429.996 2351.85C340.094 2242.19 262.467 2245.65 258.137 2391.64M1998.35 79.7896C2021.92 448.776 2019.33 787.813 1969.9 1028.75C1950.97 1122.88 1919.97 1185.52 1888.14 1248.61C1850.7 1322.84 1795.43 1349.4 1735.79 1364.67C1695.04 1375.16 1652.11 1380.05 1611.01 1390.25C1529.91 1410.37 1456.2 1452.95 1392.49 1512.52C1355.24 1547.35 1321.92 1589.2 1292.43 1636.69C1271.5 1670.43 1251.26 1708.46 1229.85 1744.46C1199.57 1795.34 1166.12 1840.45 1128.04 1877.64C1114.51 1890.86 1100.49 1903.19 1085.5 1912.91C1022.44 1952.67 909.537 1860.46 822.197 1817.11C799.029 1805.61 777.62 1797.42 759.17 1795.64C684.668 1788.43 630.167 1846.06 599.239 1959.84C593.893 1979.32 589.238 2000.55 585.162 2023.23C570.642 2104.2 563.483 2203.95 559.633 2311.34C557.368 2375.16 561.084 2454.19 547.458 2490.37C539.043 2512.78 523.844 2517.25 497.866 2495.14C474.036 2474.86 447.885 2438.81 422.031 2408.93C332.542 2304.94 253.995 2307.5 247.826 2452.03M1996.81 91.033C2024.33 463.42 2023.96 805.067 1974.95 1045.02C1955.75 1141.13 1923.26 1202.24 1891.73 1268.64C1854.77 1346.44 1799.96 1376.93 1740.39 1395.12C1699.67 1407.6 1656.58 1414 1614.98 1424.71C1532.88 1445.85 1456.86 1485.56 1389.58 1538.47C1350.25 1569.39 1314.47 1606.15 1282.16 1647.51C1259.16 1676.93 1236.74 1710.04 1213.15 1740.99C1179.74 1784.81 1143.11 1822.44 1102.73 1855.32C1088.4 1866.99 1073.72 1878.19 1058.19 1887.19C992.729 1923.88 881.326 1840.12 796.181 1806.67C773.644 1797.82 752.912 1792.35 735.073 1793.13C663.291 1796.27 612.009 1863.99 584.328 1986.93C579.546 2007.98 575.439 2030.74 571.894 2054.93C559.283 2141.25 553.793 2245.78 550.571 2355.96C548.677 2421.46 552.185 2500.92 538.543 2538.35C530.113 2561.54 514.942 2566.89 489.406 2546.76C465.78 2528.14 439.863 2494.32 414.121 2466.11C325.045 2367.82 245.572 2369.46 237.581 2512.54M1995.26 102.302C2026.74 478.068 2028.58 822.325 1980 1061.3C1960.5 1159.37 1926.54 1218.98 1895.29 1288.66C1858.81 1370.02 1804.46 1404.46 1744.96 1425.54C1704.28 1440.02 1661.01 1447.88 1618.91 1459.12C1535.83 1481.27 1457.49 1518.14 1386.64 1564.34C1345.23 1591.37 1306.99 1623.04 1271.86 1658.26C1246.8 1683.38 1222.19 1711.56 1196.41 1737.47C1159.88 1774.19 1120.08 1804.36 1077.38 1832.93C1062.26 1843.06 1046.92 1853.14 1030.85 1861.4C962.976 1895.04 853.065 1819.69 770.136 1796.19C748.234 1789.98 728.161 1787.23 710.94 1790.58C641.881 1804.04 593.815 1881.88 569.369 2013.96C565.138 2036.57 561.587 2060.88 558.583 2086.57C547.882 2178.25 544.074 2287.57 541.467 2400.52C539.949 2467.7 543.246 2547.61 529.586 2586.26C521.14 2610.24 505.997 2616.48 480.897 2598.32C457.47 2581.37 431.801 2549.81 406.154 2523.22C317.498 2430.63 237.086 2431.32 227.268 2572.95M1993.72 113.549C2029.15 492.692 2033.22 839.581 1985.04 1077.55C1965.27 1177.6 1929.82 1235.68 1898.87 1308.68C1862.87 1393.61 1808.99 1431.97 1749.54 1455.95C1708.89 1472.42 1665.46 1481.79 1622.86 1493.55C1538.79 1516.71 1458.12 1550.71 1383.72 1590.25C1340.22 1613.37 1299.51 1639.94 1261.56 1669.04C1234.44 1689.82 1207.64 1713.11 1179.69 1733.98C1140.02 1763.6 1097.06 1786.33 1052.07 1810.62C1036.15 1819.19 1020.14 1828.14 1003.53 1835.67C933.262 1866.25 824.84 1799.31 744.116 1785.76C722.845 1782.19 703.441 1782.14 686.833 1788.07C620.483 1811.81 575.647 1899.82 554.443 2041.06C550.77 2065.24 547.769 2091.08 545.306 2118.28C536.515 2215.31 534.376 2329.4 532.394 2445.12C531.246 2513.99 534.344 2594.35 520.659 2634.22C512.198 2658.97 497.09 2666.13 472.425 2649.93C449.204 2634.65 423.797 2605.44 398.232 2580.38C310.095 2493.97 228.656 2493.25 217.006 2633.45M1992.17 124.794C2031.56 507.34 2037.83 856.817 1990.08 1093.8C1970.02 1195.82 1933.09 1252.37 1902.44 1328.67C1866.91 1417.14 1813.51 1459.47 1754.11 1486.35C1713.5 1504.82 1669.91 1515.67 1626.79 1527.93C1541.74 1552.1 1458.74 1583.24 1380.79 1616.12C1335.21 1635.34 1292.01 1656.79 1251.26 1679.77C1222.07 1696.22 1193.07 1714.58 1162.95 1730.43C1120.15 1752.94 1074.03 1768.25 1026.73 1788.21C1010.02 1795.26 993.341 1803.06 976.188 1809.86C903.511 1837.37 796.572 1778.81 718.066 1775.23C697.423 1774.28 678.682 1776.95 662.703 1785.49C599.045 1819.47 557.45 1917.68 539.486 2068.07C536.369 2093.79 533.932 2121.21 531.997 2149.9C525.116 2252.28 524.646 2371.15 523.291 2489.66C522.515 2560.2 525.399 2640.99 511.704 2682.11C503.233 2707.64 488.158 2715.74 463.917 2701.44C440.903 2687.88 415.735 2660.87 390.266 2637.44C302.548 2556.72 220.177 2555.08 206.705 2693.83M1990.63 136.063C2033.97 521.987 2042.46 874.096 1995.13 1110.1C1974.8 1214.1 1936.37 1269.1 1906.02 1348.73C1870.96 1440.75 1818.03 1487.01 1758.7 1516.81C1718.12 1537.26 1674.37 1549.62 1630.75 1562.4C1544.71 1587.59 1459.4 1615.87 1377.88 1642.08C1330.21 1657.39 1284.54 1673.73 1240.98 1690.6C1209.72 1702.71 1178.53 1716.15 1146.23 1726.96C1100.29 1742.37 1051.02 1750.26 1001.41 1765.89C983.908 1771.39 966.557 1778.06 948.876 1784.16C873.799 1808.61 768.334 1758.4 692.061 1764.84C672.047 1766.51 653.969 1771.88 638.616 1783.03C577.644 1827.21 539.302 1935.66 524.58 2095.2C522.022 2122.51 520.133 2151.45 518.734 2181.64C513.77 2289.41 514.968 2413.02 514.235 2534.32C513.829 2606.55 516.514 2687.79 502.795 2730.13C494.301 2756.43 479.265 2765.48 455.456 2753.11C432.664 2741.28 407.721 2716.46 382.355 2694.67C295.064 2619.68 211.752 2617.07 196.447 2754.38M1989.09 147.307C2036.38 536.609 2046.67 890.415 2000.17 1126.35C1979.37 1231.9 1939.63 1285.76 1909.59 1368.72C1874.99 1464.26 1822.54 1514.5 1763.28 1547.22C1722.75 1569.67 1678.82 1583.52 1634.69 1596.8C1547.67 1623 1460.04 1648.42 1374.95 1667.94C1325.21 1679.36 1277.04 1690.53 1230.68 1701.33C1197.35 1709.09 1163.96 1717.6 1129.51 1723.43C1080.42 1731.73 1028.01 1732.2 976.079 1743.5C957.795 1747.48 939.765 1753 921.544 1758.36C844.061 1779.75 740.068 1737.88 666.023 1754.33C646.637 1758.63 629.223 1766.7 614.491 1780.45C556.197 1834.82 521.115 1953.52 509.633 2122.21C507.627 2151.06 506.294 2181.55 505.436 2213.26C502.382 2326.37 505.248 2454.76 505.136 2578.83C505.101 2652.74 507.58 2734.44 493.843 2778C485.334 2805.07 470.343 2815.09 446.958 2804.63C424.382 2794.52 399.669 2771.89 374.412 2751.74C287.549 2682.47 203.296 2678.92 186.17 2814.78M1987.54 158.555C2038.79 551.257 2051.29 907.652 2005.2 1142.61C1984.12 1250.12 1942.89 1302.43 1913.16 1388.72C1879.02 1487.79 1827.05 1542 1767.85 1577.61C1727.34 1602.05 1683.26 1617.4 1638.63 1631.21C1550.61 1658.4 1460.67 1680.99 1372.02 1693.83C1320.18 1701.34 1269.53 1707.36 1220.38 1712.08C1184.96 1715.47 1149.39 1719.1 1112.76 1719.9C1060.53 1721.07 1004.98 1714.17 950.73 1721.12C931.656 1723.57 912.966 1727.96 894.198 1732.58C814.314 1750.91 711.788 1717.37 639.97 1743.83C621.207 1750.75 604.462 1761.53 590.351 1777.88C534.715 1842.4 502.914 1971.39 494.674 2149.24C493.224 2179.65 492.447 2211.69 492.126 2244.9C490.981 2363.37 495.524 2496.55 496.032 2623.39C496.359 2698.96 498.639 2781.11 484.885 2825.91C476.361 2853.77 461.417 2864.77 438.455 2856.19C416.097 2847.84 391.61 2827.35 366.451 2808.84C280.007 2745.27 194.828 2740.79 175.863 2875.19M1986 169.82C2041.2 565.902 2055.92 924.927 2010.25 1158.88C1988.88 1268.35 1946.16 1319.11 1916.74 1408.75C1883.06 1511.34 1831.58 1569.54 1772.44 1608.04C1731.97 1634.49 1687.73 1651.33 1642.59 1665.63C1553.58 1693.83 1461.32 1713.56 1369.1 1719.74C1315.19 1723.35 1262.04 1724.21 1210.09 1722.86C1172.6 1721.89 1134.84 1720.59 1096.04 1716.39C1040.66 1710.41 981.979 1696.15 925.409 1698.75C905.55 1699.68 886.182 1702.92 866.879 1706.8C784.589 1722.07 683.52 1696.82 613.945 1733.35C595.803 1742.86 579.722 1756.35 566.246 1775.34C513.266 1849.99 484.743 1989.3 479.75 2176.31C478.858 2208.29 478.638 2241.88 478.85 2276.58C479.616 2400.4 485.833 2538.35 486.963 2667.99C487.661 2745.24 489.741 2827.84 475.963 2873.86C467.424 2902.51 452.534 2914.5 429.982 2907.79C407.847 2901.19 383.584 2882.87 358.528 2866C272.504 2808.13 186.385 2802.71 165.605 2935.68M1984.45 181.068C2043.6 580.528 2060.96 943.076 2015.29 1175.13C1993.83 1287.01 1949.41 1335.78 1920.31 1428.75C1887.08 1534.86 1836.09 1597.03 1777.01 1638.44C1736.58 1666.86 1692.16 1685.19 1646.52 1700.04C1556.53 1729.25 1461.94 1746.11 1366.16 1745.61C1310.17 1745.31 1254.52 1740.99 1199.78 1733.59C1160.2 1728.23 1120.26 1722.05 1079.3 1712.86C1020.78 1699.75 958.958 1678.12 900.066 1676.37C879.422 1675.77 859.376 1677.86 839.532 1681.02C754.842 1693.22 655.225 1676.26 587.9 1722.87C570.386 1735.01 554.956 1751.18 542.119 1772.79C491.781 1857.54 466.554 2007.19 464.796 2203.34C464.461 2236.87 464.791 2272.02 465.539 2308.22C468.215 2437.4 476.101 2580.13 477.851 2712.53C478.92 2791.46 480.794 2874.51 467.003 2921.76C458.447 2951.16 443.614 2964.18 421.469 2959.31C399.565 2954.48 375.475 2938.14 350.564 2923.08C264.819 2870.39 177.914 2864.56 155.295 2996.07M1982.9 192.316C2046.01 595.177 2065.59 960.335 2020.33 1191.41C1998.6 1305.25 1952.68 1352.47 1923.89 1448.79C1891.12 1558.41 1840.61 1624.55 1781.6 1668.9C1741.21 1699.33 1696.62 1719.14 1650.47 1734.49C1559.5 1764.72 1462.59 1778.73 1363.25 1771.55C1305.17 1767.35 1247.02 1757.84 1189.5 1744.39C1147.83 1734.65 1105.7 1723.55 1062.58 1709.38C1000.91 1689.11 935.952 1660.14 874.743 1654.03C853.314 1651.9 832.595 1652.85 812.211 1655.27C725.115 1664.41 626.934 1655.7 561.878 1712.41C544.979 1727.15 530.211 1746.01 518.01 1770.26C470.301 1865.09 448.384 2025.1 449.868 2230.41C450.091 2265.52 450.975 2302.19 452.252 2339.88C456.837 2474.41 466.398 2621.91 468.771 2757.11C470.21 2837.72 471.877 2921.21 458.07 2969.69C449.498 2999.88 434.727 3013.92 412.99 3010.89C391.323 3007.86 367.434 2993.62 342.627 2980.21C257.301 2933.21 169.464 2926.46 145.018 3056.52M1981.37 203.584C2048.43 609.823 2070.22 977.591 2025.39 1207.69C2003.38 1323.5 1955.95 1369.13 1927.47 1468.8C1895.15 1581.92 1845.14 1652.07 1786.18 1699.31C1745.82 1731.72 1701.08 1753.04 1654.43 1768.91C1562.47 1800.15 1463.24 1811.3 1360.34 1797.45C1300.18 1789.35 1239.53 1774.64 1179.22 1755.17C1135.46 1741.03 1091.16 1725.04 1045.87 1705.87C981.036 1678.43 912.967 1642.14 849.436 1631.69C827.217 1628.03 805.824 1627.83 784.899 1629.52C695.398 1635.6 598.655 1635.14 535.861 1701.95C519.576 1719.27 505.466 1740.83 493.906 1767.72C448.812 1872.6 430.219 2043 434.943 2257.46C435.716 2294.12 437.157 2332.34 438.975 2371.54C445.47 2511.42 456.708 2663.72 459.698 2801.66C461.508 2883.96 462.97 2967.89 449.144 3017.6C440.557 3048.56 425.862 3063.66 404.513 3062.45C383.093 3061.23 359.404 3049.09 334.7 3037.32C249.78 2996.01 161.023 2988.33 134.757 3116.97M1979.82 214.829C2050.83 624.446 2074.84 994.825 2030.42 1223.94C2008.12 1341.72 1959.19 1385.78 1931.03 1488.82C1899.16 1605.44 1849.64 1679.59 1790.75 1729.73C1750.43 1764.14 1705.52 1786.95 1658.36 1803.32C1565.41 1835.57 1463.86 1843.87 1357.39 1823.32C1295.15 1811.33 1232 1791.41 1168.9 1765.9C1123.06 1747.36 1076.56 1726.48 1029.12 1702.34C961.138 1667.75 889.942 1624.13 824.086 1609.31C801.082 1604.12 779.012 1602.77 757.552 1603.73C665.65 1606.75 570.338 1614.53 509.815 1691.47C494.145 1711.39 480.696 1735.64 469.772 1765.17C427.288 1880.09 412.018 2060.89 419.99 2284.51C421.328 2322.74 423.32 2362.52 425.671 2403.2C434.083 2548.46 446.982 2705.51 450.6 2846.24C452.781 2930.22 454.043 3014.61 440.201 3065.56C431.598 3097.3 416.973 3113.45 396.024 3114.05C374.844 3114.66 351.354 3104.6 326.76 3094.49C242.261 3058.87 152.571 3050.27 124.47 3177.45M1978.27 226.072C2053.24 639.091 2079.47 1012.08 2035.46 1240.19C2012.89 1359.95 1962.44 1402.42 1934.6 1508.81C1903.18 1628.94 1854.16 1707.08 1795.33 1760.12C1755.04 1796.51 1709.97 1820.82 1662.31 1837.72C1568.37 1870.99 1464.5 1876.42 1354.48 1849.21C1290.15 1833.3 1224.5 1808.18 1158.62 1776.65C1110.68 1753.71 1062.01 1727.92 1012.4 1698.8C941.259 1657.04 866.943 1606.11 798.758 1586.92C774.971 1580.23 752.226 1577.7 730.22 1577.94C635.912 1577.9 542.024 1593.91 483.777 1680.96C468.72 1703.46 455.93 1730.42 445.66 1762.61C405.78 1887.57 393.845 2078.78 405.051 2311.54C406.94 2351.32 409.493 2392.64 412.375 2434.84C422.692 2585.45 437.271 2747.27 441.511 2890.8C444.067 2976.45 445.111 3061.27 431.258 3113.47C422.64 3146 408.093 3163.21 387.528 3165.59C366.602 3168.03 343.305 3160.05 318.807 3151.56C234.721 3121.65 144.11 3112.12 114.183 3237.85M1976.73 237.342C2055.65 653.739 2084.09 1029.34 2040.51 1256.49C2017.65 1378.21 1965.69 1419.08 1938.19 1528.87C1907.21 1652.48 1858.69 1734.65 1799.93 1790.6C1759.68 1829 1714.44 1854.8 1666.26 1872.19C1571.35 1906.47 1465.15 1909.04 1351.56 1875.17C1285.16 1855.36 1216.99 1825.01 1148.33 1787.48C1098.31 1760.14 1047.45 1729.44 995.677 1695.34C921.387 1646.4 843.942 1588.17 773.432 1564.6C748.86 1556.38 725.436 1552.71 702.895 1552.21C606.187 1549.11 513.71 1573.33 457.747 1670.53C443.305 1695.62 431.166 1725.27 421.542 1760.11C384.251 1895.07 375.666 2096.71 390.115 2338.64C392.561 2379.99 395.664 2422.85 399.086 2466.55C411.314 2622.51 427.561 2789.1 432.422 2935.4C435.348 3022.74 436.193 3108.01 422.316 3161.43C413.68 3194.71 399.217 3213.02 379.035 3217.2C358.367 3221.48 335.25 3215.55 310.868 3208.73C227.197 3184.52 135.659 3174.07 103.897 3298.33M1975.18 248.587C2058.05 668.362 2088.72 1046.59 2045.55 1272.74C2022.42 1396.44 1968.94 1435.73 1941.75 1548.87C1911.22 1675.95 1863.2 1762.14 1804.5 1820.99C1764.28 1861.37 1718.88 1888.65 1670.2 1906.59C1574.3 1941.89 1465.79 1941.61 1348.63 1901.03C1280.14 1877.32 1209.47 1841.75 1138.03 1798.21C1085.91 1766.45 1032.87 1730.87 978.943 1691.81C901.497 1635.7 820.94 1570.18 748.099 1542.22C722.744 1532.49 698.647 1527.67 675.566 1526.44C576.452 1520.28 485.383 1552.68 431.716 1660.04C417.882 1687.72 406.4 1720.05 397.425 1757.55C362.716 1902.51 357.487 2114.6 375.183 2365.68C378.186 2408.59 381.839 2453 385.803 2498.2C399.94 2659.52 417.857 2830.89 423.345 2979.98C426.643 3069 427.281 3154.72 413.386 3209.36C404.735 3243.43 390.363 3262.82 370.559 3268.77C350.153 3274.92 327.221 3271.05 302.935 3265.85C219.683 3247.33 127.206 3235.94 93.6299 3358.78M1973.64 259.833C2060.47 683.009 2093.34 1063.83 2050.59 1289C2027.17 1414.66 1971.97 1451.88 1945.32 1568.86C1914.99 1698.92 1867.71 1789.61 1809.07 1851.38C1768.89 1893.77 1723.32 1922.54 1674.14 1940.97C1577.25 1977.28 1466.41 1974.13 1345.7 1926.9C1275.13 1899.29 1201.95 1858.48 1127.72 1808.94C1073.52 1772.76 1018.29 1732.3 962.208 1688.26C881.61 1624.97 798.069 1552.64 722.759 1519.81C696.661 1508.71 671.849 1502.59 648.227 1500.63C546.713 1491.41 457.05 1532.01 405.679 1649.54C392.454 1679.79 381.634 1714.83 373.3 1754.98C341.176 1909.94 339.296 2132.46 360.232 2392.69C363.786 2437.15 368.009 2483.13 372.496 2529.82C388.543 2696.5 408.141 2872.65 414.244 3024.51C417.912 3115.22 418.343 3201.37 404.432 3257.25C395.766 3292.1 381.483 3312.58 362.059 3320.31C341.913 3328.32 319.167 3326.5 294.985 3322.95C212.147 3310.13 118.748 3297.81 83.34 3419.21M1972.1 271.103C2062.88 697.659 2097.97 1081.09 2055.63 1305.27C2031.94 1432.91 1975.25 1468.59 1948.9 1588.9C1919.04 1722.48 1872.24 1817.15 1813.66 1881.82C1773.5 1926.19 1727.78 1956.46 1678.09 1975.42C1580.21 2012.74 1467.06 2006.75 1342.79 1952.83C1270.13 1921.31 1194.45 1875.28 1117.44 1819.74C1061.15 1779.13 1003.67 1733.51 945.49 1684.77C861.644 1613.9 775.055 1534.63 697.441 1497.47C670.558 1484.85 645.068 1477.57 620.906 1474.88C516.986 1462.6 428.726 1511.39 379.652 1639.08C367.034 1671.91 356.866 1709.64 349.199 1752.47C319.645 1917.41 321.133 2150.39 345.312 2419.78C349.424 2465.82 354.195 2513.32 359.223 2561.52C377.18 2733.55 398.448 2914.48 405.171 3069.11C409.209 3161.5 409.441 3248.1 395.505 3305.2C386.824 3340.84 372.632 3362.41 353.574 3371.9C333.702 3381.79 311.121 3381.98 287.049 3380.09C204.631 3372.98 110.293 3359.71 73.0577 3479.66M1970.55 282.346C2065.28 712.28 2102.6 1098.34 2060.69 1321.54C2036.71 1451.15 1978.52 1485.28 1952.48 1608.91C1923.08 1746.04 1876.76 1844.67 1818.25 1912.25C1778.14 1958.63 1732.24 1990.39 1682.04 2009.84C1583.18 2048.18 1467.7 2039.32 1339.87 1978.74C1265.13 1943.33 1186.94 1892.04 1107.15 1830.51C1048.77 1785.49 989.111 1735 928.766 1681.28C841.771 1603.26 752.048 1516.64 672.111 1475.13C644.438 1460.98 618.276 1452.55 593.578 1449.14C487.258 1433.79 400.384 1490.74 353.619 1628.62C341.609 1664.03 332.091 1704.45 325.078 1749.93C298.089 1924.86 302.951 2168.3 330.364 2446.84C335.033 2494.42 340.355 2543.48 345.924 2593.19C365.791 2770.57 388.728 2956.27 396.084 3113.69C400.493 3207.76 400.519 3294.81 386.565 3353.14C377.869 3389.55 363.774 3412.23 345.088 3423.48C325.497 3435.27 303.082 3437.48 279.106 3437.21C197.102 3435.8 101.842 3421.6 62.7798 3540.11M1969 293.591C2067.69 726.926 2107.22 1115.57 2065.72 1337.8C2041.46 1469.38 1981.77 1501.94 1956.05 1628.93C1927.11 1769.58 1881.27 1872.19 1822.82 1942.67C1782.75 1991.04 1736.69 2024.29 1685.99 2044.27C1586.14 2083.62 1468.34 2071.89 1336.94 2004.63C1260.12 1965.3 1179.43 1908.8 1096.86 1841.27C1036.38 1791.82 974.559 1736.49 912.037 1677.75C821.906 1592.59 729.031 1498.6 646.79 1452.76C618.333 1437.08 591.492 1427.51 566.254 1423.36C457.527 1404.95 372.052 1470.1 327.594 1618.13C316.186 1656.13 307.325 1699.23 300.966 1747.38C276.535 1932.26 284.778 2186.19 315.433 2473.88C320.66 2523.04 326.536 2573.63 332.641 2624.84C354.425 2807.6 379.029 2998.05 387.007 3158.27C391.787 3254.01 391.606 3341.5 377.635 3401.07C368.922 3438.24 354.94 3462.08 336.613 3475.05C317.296 3488.73 295.045 3492.95 271.18 3494.35C189.591 3498.64 93.4036 3483.52 52.5071 3600.56M1967.46 304.861C2070.11 741.573 2111.85 1132.85 2070.76 1354.07C2046.22 1487.62 1985.03 1518.63 1959.63 1648.94C1931.14 1793.12 1885.79 1899.71 1827.39 1973.08C1787.35 2023.44 1741.14 2058.2 1689.93 2078.7C1589.08 2119.04 1468.98 2104.48 1334.01 2030.55C1255.11 1987.33 1171.82 1925.19 1086.57 1852.07C1023.94 1797.92 960.005 1738.01 895.308 1674.27C802.037 1581.98 706.012 1480.59 621.457 1430.42C592.209 1413.22 564.7 1402.5 538.922 1397.62C427.795 1376.15 343.427 1448.84 301.563 1607.7C290.687 1648.1 282.553 1694.06 276.848 1744.87C254.977 1939.74 266.593 2204.12 300.494 2500.96C306.272 2551.67 312.712 2603.83 319.345 2656.53C343.039 2844.64 369.312 3039.87 377.91 3202.85C383.053 3300.26 382.674 3388.22 368.685 3449C359.956 3486.96 346.077 3511.91 328.112 3526.64C309.089 3542.24 286.991 3548.46 263.229 3551.5C182.059 3561.48 84.9373 3545.42 42.2215 3661.04M1965.92 316.107C2072.51 756.2 2116.47 1150.09 2075.8 1370.33C2050.99 1505.85 1988.3 1535.32 1963.2 1668.96C1935.18 1816.66 1890.3 1927.2 1831.97 2003.5C1791.97 2055.86 1745.59 2092.1 1693.87 2113.1C1592.04 2154.46 1469.61 2137.04 1331.08 2056.44C1250.1 2009.3 1164.33 1942.02 1076.27 1862.82C1011.56 1804.3 945.441 1739.49 878.583 1670.76C782.176 1571.34 682.999 1462.59 596.127 1408.06C566.086 1389.31 537.907 1377.46 511.593 1371.85C398.061 1347.32 315.134 1428.31 275.529 1597.22C265.275 1640.25 257.703 1688.7 252.732 1742.32C233.096 1946.52 248.416 2222.01 285.558 2528.01C291.9 2580.29 298.883 2633.98 306.051 2688.17C331.655 2881.63 359.61 3081.65 368.822 3247.41C374.336 3346.5 373.757 3434.91 359.744 3496.92C351 3535.66 337.232 3561.73 319.618 3578.18C300.881 3595.68 278.935 3603.89 255.282 3608.57C174.526 3624.26 76.4779 3607.27 31.9351 3721.44M1964.37 327.355C2074.92 770.848 2121.09 1167.33 2080.84 1386.58C2055.74 1524.07 1991.56 1551.98 1966.76 1688.96C1939.21 1840.21 1894.81 1954.7 1836.54 2033.89C1796.57 2088.24 1750.02 2125.97 1697.81 2147.51C1594.99 2189.88 1470.23 2169.59 1328.15 2082.31C1245.08 2031.28 1156.83 1958.82 1065.96 1873.56C999.188 1810.68 930.877 1740.97 861.843 1667.21C762.294 1560.66 659.975 1444.53 570.786 1385.66C539.955 1365.38 511.103 1352.38 484.249 1346.04C368.316 1318.45 286.833 1407.75 249.479 1586.7C239.841 1632.32 232.927 1683.49 228.602 1739.74C211.616 1954.12 230.218 2239.86 270.602 2555.02C277.495 2608.85 285.04 2664.09 292.743 2719.79C320.257 2918.61 349.881 3123.4 359.721 3291.95C365.605 3392.72 364.813 3481.56 350.79 3544.81C342.03 3584.33 328.378 3611.54 311.117 3629.72C292.676 3649.14 270.881 3659.34 247.331 3665.67C166.988 3687.04 68.0204 3669.14 21.6431 3781.85M1962.83 338.62C2077.33 785.491 2125.73 1184.6 2085.89 1402.88C2060.52 1542.34 1994.83 1568.69 1970.34 1708.99C1943.25 1863.77 1899.34 1982.24 1841.13 2064.35C1801.2 2120.7 1754.48 2159.91 1701.76 2181.95C1597.96 2225.33 1470.89 2202.2 1325.23 2108.24C1240.08 2053.3 1149.35 1975.69 1055.67 1884.36C986.819 1817.1 916.321 1742.49 845.113 1663.72C742.429 1550.04 636.95 1426.52 545.451 1363.32C513.836 1341.51 484.318 1327.38 456.916 1320.29C338.577 1289.64 258.543 1387.26 223.447 1576.26C214.433 1624.51 208.182 1678.38 204.483 1737.23C190.141 1961.79 212.038 2257.79 255.664 2582.11C263.108 2637.5 271.209 2694.29 279.453 2751.49C308.877 2955.67 340.17 3165.23 350.63 3336.55C356.885 3439 355.894 3528.29 341.846 3592.77C333.071 3633.07 319.6 3661.58 302.623 3681.32C284.54 3702.85 262.825 3714.85 239.386 3722.84C159.457 3749.9 59.5626 3731.09 11.3585 3842.35M1961.29 349.868C2079.74 800.118 2130.35 1201.84 2090.93 1419.13C2065.27 1560.56 1998.09 1585.36 1973.92 1729.01C1947.28 1887.31 1903.86 2009.76 1845.71 2094.77C1727.28 2267.93 1547.33 2285.89 1322.31 2134.13C1170.95 2032.04 1001.59 1857.93 828.386 1660.19C722.56 1539.38 613.94 1408.49 520.124 1340.93C347.655 1216.74 237.865 1320.68 197.416 1565.76C156.967 1810.83 181.583 2188.33 240.732 2609.14C294.398 2991 377.075 3434.36 332.915 3640.68C282.408 3876.63 79.4376 3730.74 1.0827 3902.76M2668.69 3208.92C2478.98 2652.37 2240.15 2111.43 2006.62 1709.35C1940.18 1594.96 1871.79 1488.54 1817.15 1446.35C1659.27 1324.47 1663.56 1697.62 1641.43 1917.18C1614.72 2182.12 1593.03 2457.8 1549.52 2687.95C1525.09 2817.15 1484.12 2933.15 1380.27 2824.57C1275.1 2714.61 1148.76 2421.45 1033.74 2167.72C899.722 1872.06 758.49 1591.05 623.832 1390.09C489.175 1189.12 361.468 1075.62 294.412 1136.19C241.904 1183.63 229.764 1330.8 227.623 1491.24C222.008 1912.83 278.993 2450.78 393.353 3055.79M2663.83 3183.81C2496.16 2691.93 2288.83 2224.06 2072.47 1834.85C2052.38 1798.7 2032.3 1763.25 2012.27 1728.93C1946.44 1616.2 1878.8 1511.17 1824.52 1468.4C1667.5 1344.53 1667.43 1699.47 1643.06 1912.1C1621.45 2100.62 1603.55 2298.14 1577.25 2480.09C1568.2 2543.43 1558.22 2604.83 1546.86 2663.37C1522.21 2790.31 1481.67 2904.79 1380.31 2802.01C1277.67 2697.94 1154.57 2416.64 1042.38 2173.37C911.647 1889.92 773.868 1620.46 642.23 1427.93C596.399 1360.9 551.355 1304.06 509.285 1260.95C430.546 1180.22 362.188 1147.45 318.595 1185.73C266.232 1231.71 252.703 1373.51 248.633 1527.27C240.326 1838.36 267.198 2212.87 328.247 2634.87C346.459 2760.78 367.71 2890.9 392.005 3024.84M2658.97 3158.73C2496.89 2683.25 2296.47 2242.73 2077.49 1852.71C2057.62 1817.32 2037.75 1782.34 2017.93 1748.56C1952.71 1637.51 1885.82 1533.85 1831.9 1490.48C1675.72 1364.6 1671.31 1701.34 1644.69 1907.07C1621.32 2087.79 1602.52 2280.51 1575.12 2459.13C1565.83 2521.12 1555.68 2581.34 1544.21 2638.83C1519.34 2763.54 1479.23 2876.48 1380.36 2779.5C1280.25 2681.29 1160.39 2411.86 1051.03 2179.07C923.594 1907.83 789.256 1649.92 660.652 1465.84C615.875 1401.76 571.825 1347.45 530.629 1306.35C453.526 1229.33 386.277 1198.26 342.808 1235.33C290.598 1279.88 275.678 1416.29 269.666 1563.34C257.367 1860.82 278.318 2216.15 332.858 2619.89C349.13 2740.37 368.381 2865.11 390.679 2993.95M2654.11 3133.63C2497.62 2674.55 2304.14 2261.36 2082.51 1870.55C2062.84 1835.87 2043.19 1801.39 2023.59 1768.17C1958.98 1658.77 1892.84 1556.53 1839.3 1512.56C1683.97 1384.68 1675.22 1703.22 1646.34 1902.01C1621.21 2074.95 1601.14 2262.11 1573.01 2438.18C1563.37 2498.57 1553.15 2557.84 1541.58 2614.3C1516.48 2736.75 1476.8 2848.16 1380.43 2756.99C1282.84 2664.65 1166.22 2407.09 1059.69 2184.76C935.546 1925.73 804.662 1679.37 679.083 1503.72C635.355 1442.59 592.304 1390.82 551.974 1351.7C476.503 1278.4 410.372 1249.02 367.025 1284.91C314.967 1328.03 298.655 1459.04 290.701 1599.39C274.413 1883.28 289.442 2219.4 337.479 2604.92C351.811 2719.95 369.068 2839.31 389.376 2963.07M2649.25 3108.55C2498.35 2665.86 2311.82 2279.97 2087.52 1888.41C2068.07 1854.47 2048.62 1820.45 2029.24 1787.79C1965.25 1680.07 1899.86 1579.21 1846.67 1534.64C1692.2 1404.77 1679.15 1705.15 1647.97 1896.98C1621.11 2062.17 1599.99 2244.25 1570.88 2417.22C1560.96 2476.2 1550.6 2534.34 1538.92 2589.77C1513.61 2709.97 1474.36 2819.87 1380.47 2734.48C1285.41 2648.02 1172.04 2402.33 1068.33 2190.46C947.475 1943.64 820.036 1708.81 697.486 1541.61C654.804 1483.41 612.76 1434.19 573.291 1397.06C499.464 1327.5 434.446 1299.8 391.206 1334.48C339.288 1376.14 321.592 1501.78 311.701 1635.43C291.422 1905.69 300.529 2222.63 342.052 2589.9C354.438 2699.5 369.701 2813.48 388.012 2932.13M2644.39 3083.45C2499.08 2657.16 2319.51 2298.53 2092.53 1906.26C2073.3 1873.03 2054.06 1839.52 2034.9 1807.41C1971.52 1701.34 1906.87 1601.87 1854.06 1556.72C1700.43 1424.86 1683.11 1707.1 1649.61 1891.96C1621.06 2049.47 1598.87 2226.41 1568.76 2396.29C1558.57 2453.85 1548.07 2510.87 1536.29 2565.26C1510.75 2683.2 1471.93 2791.58 1380.54 2711.99C1288 2631.4 1177.88 2397.59 1077 2196.18C959.423 1961.55 835.44 1738.29 715.917 1579.55C674.29 1524.3 633.239 1477.61 594.636 1442.47C522.446 1376.62 458.536 1350.62 415.427 1384.11C363.662 1424.34 344.582 1544.61 332.75 1671.55C308.487 1928.22 311.666 2225.95 346.686 2575C357.133 2679.15 370.396 2787.76 386.71 2901.3M2639.53 3058.35C2499.81 2648.45 2327.21 2317.01 2097.54 1924.08C2078.52 1891.55 2059.49 1858.54 2040.55 1826.99C1977.79 1722.6 1913.88 1624.5 1861.43 1578.75C1708.65 1444.9 1687.08 1709.01 1651.23 1886.85C1621.02 2036.72 1597.72 2208.5 1566.62 2375.27C1556.15 2431.4 1545.51 2487.3 1533.62 2540.63C1507.85 2656.34 1469.47 2763.17 1380.57 2689.39C1290.55 2614.66 1183.68 2392.73 1085.62 2201.79C971.333 1979.36 850.803 1767.66 734.3 1617.35C693.728 1565.04 653.676 1520.88 615.941 1487.76C545.382 1425.62 482.592 1401.31 439.596 1433.6C387.984 1472.4 367.507 1587.28 353.738 1707.51C325.484 1950.56 322.742 2229.11 351.253 2559.91C359.754 2658.62 371.022 2761.86 385.345 2870.29M2634.67 3033.27C2500.53 2639.77 2334.93 2335.49 2102.55 1941.94C2083.75 1910.1 2064.92 1877.61 2046.21 1846.62C1984.05 1743.89 1920.9 1647.18 1868.81 1600.86C1716.88 1464.99 1691.09 1711.06 1652.87 1881.85C1621.03 2024.11 1596.62 2190.7 1564.5 2354.36C1553.77 2409.1 1542.97 2463.83 1530.99 2516.15C1504.99 2629.59 1467.04 2734.9 1380.63 2666.92C1293.15 2598.09 1189.51 2388 1094.28 2207.53C983.295 1997.31 866.212 1797.16 752.742 1655.3C713.217 1605.93 674.167 1564.32 637.298 1533.18C568.376 1474.76 506.706 1452.16 463.825 1483.25C412.357 1520.59 390.496 1630.1 374.78 1743.63C342.542 1973.09 333.872 2232.43 355.875 2545.01C362.436 2638.28 371.705 2736.14 384.031 2839.46M2629.81 3008.16C2501.26 2631.06 2342.65 2353.86 2107.56 1959.78C2088.98 1928.62 2070.37 1896.68 2051.87 1866.22C1990.33 1765.17 1927.92 1669.85 1876.2 1622.93C1725.13 1485.07 1695.14 1713.09 1654.51 1876.79C1621.07 2011.52 1595.5 2172.85 1562.38 2333.38C1551.37 2386.69 1540.43 2440.31 1528.33 2491.59C1502.13 2602.79 1464.6 2706.56 1380.69 2644.41C1295.73 2581.44 1195.34 2383.23 1102.94 2213.23C995.236 2015.22 881.6 1826.62 771.156 1693.19C732.685 1646.76 694.634 1607.68 658.626 1578.53C591.348 1523.85 530.784 1502.93 488.024 1532.83C436.709 1568.74 413.457 1672.85 395.806 1779.7C359.577 1995.54 344.986 2235.7 360.479 2530.03C365.095 2617.86 372.362 2710.33 382.706 2808.59M2624.94 2983.06C2501.99 2622.36 2350.37 2372.16 2112.57 1977.62C2094.21 1947.15 2075.8 1915.72 2057.53 1885.83C1996.59 1786.43 1934.94 1692.51 1883.58 1644.99C1733.35 1505.13 1699.21 1715.17 1656.14 1871.74C1621.14 1998.98 1594.4 2155.05 1560.25 2312.42C1548.99 2364.36 1537.89 2416.81 1525.69 2467.05C1499.26 2576 1462.16 2678.25 1380.75 2621.89C1298.31 2564.79 1201.17 2378.47 1111.59 2218.92C1007.18 2033.12 896.994 1856.08 789.578 1731.1C752.161 1687.62 715.103 1651.08 679.961 1623.91C614.315 1572.95 554.872 1553.73 512.229 1582.41C461.06 1616.87 436.417 1715.61 416.83 1815.75C376.617 2018 356.098 2238.95 365.089 2515.06C367.765 2597.45 373.032 2684.54 381.385 2777.69M2620.09 2957.99C2502.72 2613.67 2358.12 2390.44 2117.59 1995.46C2099.43 1965.66 2081.24 1934.77 2063.18 1905.42C2002.85 1807.7 1941.94 1715.14 1890.95 1667.05C1741.58 1525.2 1703.3 1717.29 1657.76 1866.67C1621.23 1986.5 1593.29 2137.23 1558.11 2291.43C1546.58 2341.97 1535.32 2393.28 1523.03 2442.48C1496.37 2549.19 1459.7 2649.89 1380.78 2599.34C1300.87 2548.11 1206.97 2373.66 1120.22 2224.58C1019.1 2050.99 912.364 1885.5 807.967 1768.95C771.598 1728.4 735.533 1694.39 701.265 1669.23C637.255 1621.98 578.926 1604.46 536.404 1631.96C485.382 1664.99 459.354 1758.33 437.825 1851.77C393.621 2040.39 367.173 2242.14 369.657 2500.03C370.392 2576.98 373.66 2658.69 380.015 2746.73M2615.22 2932.88C2503.45 2604.97 2365.84 2408.6 2122.6 2013.3C2104.66 1984.16 2086.67 1953.83 2068.83 1925.02C2009.11 1828.96 1948.95 1737.8 1898.33 1689.1C1749.81 1545.26 1707.45 1719.49 1659.39 1861.61C1621.37 1974.08 1592.19 2119.43 1555.99 2270.47C1544.21 2319.63 1532.78 2369.78 1520.39 2417.94C1493.51 2522.39 1457.27 2621.6 1380.85 2576.82C1303.47 2531.48 1212.81 2368.87 1128.89 2230.29C1031.05 2068.89 927.775 1914.97 826.404 1806.86C791.089 1769.25 756.024 1737.77 722.624 1714.63C660.251 1671.09 603.035 1655.26 560.627 1681.56C509.758 1713.15 482.333 1801.1 458.874 1887.86C410.687 2062.89 378.31 2245.43 374.284 2485.07C373.075 2556.58 374.348 2632.92 378.711 2715.85M2610.36 2907.8C2504.18 2596.29 2373.57 2426.68 2127.61 2031.17C2109.9 2002.68 2092.1 1972.83 2074.49 1944.65C2015.37 1850.06 1955.98 1760.5 1905.72 1711.2C1758.05 1565.35 1711.63 1721.78 1661.04 1856.6C1621.57 1961.81 1591.13 2101.71 1553.87 2249.54C1541.84 2297.32 1530.25 2346.28 1517.74 2393.41C1490.64 2495.62 1454.84 2593.28 1380.9 2554.32C1306.04 2514.83 1218.63 2364.11 1137.54 2235.99C1042.99 2086.8 943.17 1944.43 844.827 1844.77C810.566 1810.12 776.495 1781.16 743.961 1760.01C683.227 1720.21 627.125 1706.07 584.841 1731.17C534.116 1761.31 505.307 1843.88 479.907 1923.94C427.728 2085.35 389.431 2248.7 378.903 2470.12C375.753 2536.19 375.027 2607.16 377.401 2685M2605.5 2882.7C2504.91 2587.58 2381.3 2444.64 2132.62 2049.01C2115.12 2021.16 2097.55 1991.9 2080.15 1964.26C2021.64 1871.32 1963 1783.15 1913.1 1733.26C1766.27 1585.42 1715.85 1724.12 1662.67 1851.52C1621.77 1949.52 1590.04 2083.93 1551.74 2228.56C1539.46 2274.96 1527.7 2322.76 1515.09 2368.86C1487.76 2468.8 1452.39 2564.95 1380.95 2531.78C1308.62 2498.16 1224.45 2359.32 1146.18 2241.67C1054.93 2104.68 958.556 1973.87 863.233 1882.63C830.014 1850.91 796.954 1824.51 765.276 1805.35C706.179 1769.26 651.19 1756.82 609.019 1780.71C558.448 1809.41 528.247 1886.6 500.905 1959.94C444.743 2107.76 400.518 2251.91 383.474 2455.09C378.379 2515.71 375.658 2581.3 376.035 2654.04M2600.64 2857.6C2505.63 2578.87 2389.02 2462.51 2137.63 2066.85C2120.34 2039.64 2102.98 2010.94 2085.8 1983.86C2027.9 1892.58 1970.01 1805.81 1920.48 1755.33C1774.51 1605.5 1720.1 1726.55 1664.3 1846.49C1622.02 1937.37 1588.98 2066.21 1549.61 2207.6C1537.07 2252.63 1525.16 2299.26 1512.44 2344.32C1484.9 2442.03 1449.95 2536.63 1381 2509.27C1311.2 2481.54 1230.27 2354.56 1154.83 2247.36C1066.86 2122.59 973.939 2003.32 881.649 1920.54C849.484 1891.77 817.418 1867.9 786.607 1850.72C729.146 1818.36 675.271 1807.6 633.221 1830.31C582.802 1857.59 551.205 1929.38 521.928 1996.04C461.775 2130.24 411.628 2255.21 388.083 2440.16C381.048 2495.34 376.327 2555.56 374.713 2623.19M2595.78 2832.52C2506.37 2570.19 2396.73 2480.28 2142.65 2084.69C2125.58 2058.11 2108.42 2029.98 2091.47 2003.47C2034.17 1913.84 1977.03 1828.46 1927.86 1777.39C1782.74 1625.57 1724.42 1729.07 1665.93 1841.41C1622.3 1925.23 1587.91 2048.47 1547.48 2186.62C1534.7 2230.3 1522.61 2275.74 1509.79 2319.76C1482.02 2415.21 1447.5 2508.29 1381.05 2486.73C1313.77 2464.87 1236.09 2349.75 1163.47 2253.04C1078.8 2140.47 989.325 2032.76 900.061 1958.41C868.951 1932.59 837.884 1911.24 807.94 1896.08C752.111 1867.43 699.357 1858.39 657.432 1879.89C607.158 1905.71 574.176 1972.13 542.958 2032.09C478.82 2152.69 422.746 2258.46 392.69 2425.16C383.703 2474.88 376.987 2529.72 373.384 2592.26M2590.92 2807.42C2507.09 2561.49 2404.43 2497.91 2147.65 2102.53C2130.79 2076.57 2113.84 2049.03 2097.11 2023.08C2040.43 1935.13 1984.08 1851.37 1935.23 1799.47C1791.11 1646.36 1728.77 1731.71 1667.56 1836.39C1622.63 1913.25 1586.87 2030.8 1545.36 2165.67C1532.33 2207.99 1520.06 2252.25 1507.14 2295.23C1479.15 2388.44 1445.07 2479.98 1381.1 2464.22C1316.34 2448.23 1241.91 2344.99 1172.13 2258.73C1090.74 2158.38 1004.72 2062.22 918.483 1996.32C888.42 1973.42 858.354 1954.63 829.277 1941.46C775.091 1916.54 723.443 1909.17 681.632 1929.48C631.506 1953.87 597.132 2014.89 563.977 2068.15C495.849 2175.13 433.853 2261.71 397.29 2410.19C386.362 2454.47 377.647 2503.94 372.054 2561.39M2586.07 2782.34C2507.82 2552.8 2412.12 2515.45 2152.68 2120.39C2136.03 2095.05 2119.29 2068.12 2102.78 2042.71C2046.71 1956.41 1991.12 1874.05 1942.64 1821.57C1799.36 1666.45 1733.18 1734.46 1669.23 1831.37C1623.03 1901.37 1585.85 2013.16 1543.26 2144.76C1530 2185.74 1517.55 2228.79 1504.52 2270.74C1476.31 2361.69 1442.65 2451.71 1381.19 2441.77C1318.96 2431.67 1247.77 2340.29 1180.81 2264.5C1102.71 2176.35 1020.14 2091.74 936.926 2034.28C907.917 2014.33 878.845 1998.07 850.634 1986.88C798.085 1965.68 747.558 1960.03 705.86 1979.13C655.879 2002.06 620.129 2057.74 585.033 2104.29C512.92 2197.68 444.991 2265.05 401.924 2395.28C389.05 2434.13 378.346 2478.21 370.756 2530.56M2581.2 2757.24C2508.54 2544.08 2419.79 2532.85 2157.68 2138.24C2141.25 2113.5 2124.72 2087.17 2108.43 2062.32C2052.97 1977.7 1998.12 1896.71 1950 1843.63C1807.57 1686.52 1737.62 1737.33 1670.84 1826.3C1623.41 1889.52 1584.8 1995.5 1541.11 2123.76C1527.61 2163.41 1514.97 2205.23 1501.86 2246.17C1473.42 2334.87 1440.2 2423.37 1381.22 2419.22C1321.51 2414.98 1253.57 2335.49 1189.43 2270.15C1114.63 2194.19 1035.5 2121.14 955.315 2072.13C927.361 2055.13 899.287 2041.4 871.937 2032.2C821.02 2014.72 771.606 2010.75 730.027 2028.65C680.199 2050.15 643.058 2100.43 606.019 2140.28C529.915 2220.05 456.058 2268.22 406.496 2380.25C391.682 2413.65 378.979 2452.37 369.392 2499.6M2576.34 2732.13C2509.27 2535.37 2427.44 2550.08 2162.69 2156.05C2146.47 2131.91 2130.16 2106.21 2114.09 2081.9C2059.24 1998.94 2005.13 1919.34 1957.39 1865.68C1815.8 1706.56 1742.12 1740.29 1672.48 1821.24C1623.85 1877.76 1583.8 1977.88 1538.99 2102.8C1525.26 2141.11 1512.44 2181.73 1499.21 2221.61C1470.55 2308.05 1437.76 2395.03 1381.27 2396.68C1324.09 2398.31 1259.39 2330.67 1198.08 2275.82C1126.57 2212.07 1050.89 2150.57 973.739 2110.01C946.832 2095.94 919.759 2084.76 893.283 2077.58C844.002 2063.8 795.702 2061.53 754.25 2078.25C704.574 2098.32 666.036 2143.21 627.061 2176.35C546.974 2242.52 467.188 2271.49 411.111 2365.27C394.357 2393.23 379.654 2426.57 368.07 2468.7M2571.48 2707.05C2510 2526.69 2435.08 2567.2 2167.71 2173.92C2151.69 2150.36 2135.59 2125.28 2119.75 2101.53C2065.51 2020.24 2012.15 1942.01 1964.77 1887.76C1824.03 1726.62 1746.67 1743.43 1674.11 1816.19C1624.32 1866.1 1582.78 1960.27 1536.86 2081.83C1522.89 2118.8 1509.89 2158.21 1496.56 2197.05C1467.67 2281.26 1435.3 2366.7 1381.32 2374.15C1326.67 2381.66 1265.21 2325.89 1206.73 2281.5C1138.5 2229.96 1066.28 2180.01 992.146 2147.88C966.293 2136.75 940.219 2128.11 914.604 2122.91C866.967 2112.88 819.781 2112.3 778.435 2127.79C728.904 2146.41 688.982 2185.92 648.073 2212.38C563.994 2264.94 478.287 2274.72 415.7 2350.26C397.002 2372.77 380.304 2400.74 366.728 2437.76M2566.62 2681.95C2510.72 2517.98 2442.68 2584.15 2172.71 2191.76C2156.9 2168.77 2141.02 2144.32 2125.4 2121.13C2071.78 2041.53 2019.13 1964.46 1972.14 1909.84C1832.13 1746.04 1751.28 1746.72 1675.74 1811.16C1624.82 1854.58 1581.78 1942.7 1534.74 2060.89C1520.54 2096.55 1507.35 2134.74 1493.92 2172.54C1464.81 2254.49 1432.87 2338.4 1381.38 2351.66C1329.25 2365.04 1271.04 2321.15 1215.39 2287.22C1150.45 2247.88 1081.68 2209.48 1010.57 2185.81C985.776 2177.64 960.696 2171.52 935.947 2168.31C889.942 2161.99 843.874 2163.1 802.65 2177.42C753.266 2194.6 711.952 2228.72 669.101 2248.48C581.039 2287.44 489.404 2278.01 420.315 2335.33C399.676 2352.4 380.971 2374.97 365.413 2406.93M2561.76 2656.87C2511.46 2509.3 2450.27 2600.97 2177.74 2209.62C2162.14 2187.23 2146.47 2163.41 2131.06 2140.76C2078.05 2062.84 2026.15 1987.14 1979.53 1931.92C1840.36 1766.11 1755.95 1750.17 1677.39 1806.13C1625.38 1843.15 1580.81 1925.18 1532.62 2039.94C1518.2 2074.28 1504.82 2111.24 1491.27 2148.01C1461.94 2227.71 1430.43 2310.09 1381.44 2329.15C1331.84 2348.39 1276.87 2316.38 1224.04 2292.91C1162.39 2265.79 1097.07 2238.94 1028.99 2223.7C1005.23 2218.45 981.157 2214.87 957.276 2213.67C912.908 2211.07 867.948 2213.87 826.855 2227C777.625 2242.75 734.919 2271.48 690.126 2284.53C598.072 2309.87 500.516 2281.26 424.912 2320.33C402.328 2331.97 381.629 2349.16 364.08 2376.01M2556.9 2631.77C2512.18 2500.59 2457.81 2617.58 2182.74 2227.44C2167.34 2205.61 2151.9 2182.44 2136.71 2160.35C2084.32 2084.1 2033.16 2009.77 1986.91 1953.97C1848.59 1786.17 1760.66 1753.77 1679.01 1801.05C1625.94 1831.78 1579.82 1907.61 1530.48 2018.96C1515.84 2051.99 1502.26 2087.7 1488.62 2123.46C1459.06 2200.9 1427.99 2281.76 1381.48 2306.61C1334.41 2331.75 1282.68 2311.58 1232.68 2298.59C1174.32 2283.68 1112.45 2268.38 1047.4 2261.59C1024.7 2259.29 1001.62 2258.24 978.612 2259.05C935.875 2260.16 892.042 2264.68 851.055 2276.59C801.97 2290.88 757.88 2314.23 711.145 2320.58C615.108 2332.33 511.624 2284.52 429.517 2305.36C404.993 2311.56 382.294 2323.38 362.748 2345.12M2552.04 2606.67C2512.91 2491.89 2465.34 2634.03 2187.75 2245.28C2172.55 2224 2157.34 2201.55 2142.37 2179.96C2090.6 2105.58 2040.17 2032.43 1994.29 1976.05C1856.82 1806.26 1765.43 1757.58 1680.65 1796.02C1626.55 1820.54 1578.86 1890.15 1528.36 1998.01C1513.5 2029.74 1499.72 2064.21 1485.98 2098.92C1456.2 2174.13 1425.55 2253.44 1381.54 2284.1C1336.99 2315.1 1288.51 2306.81 1241.33 2304.29C1186.26 2301.56 1127.85 2297.84 1065.82 2299.48C1044.17 2300.13 1022.08 2301.61 999.941 2304.41C958.848 2309.26 916.121 2315.44 875.255 2326.17C826.323 2339.04 780.836 2356.99 732.172 2356.66C632.144 2354.79 522.738 2287.79 434.122 2290.39C407.653 2291.15 382.96 2297.59 361.417 2314.22M2547.18 2581.58C2513.64 2483.21 2472.82 2650.31 2192.77 2263.14C2177.78 2242.43 2162.79 2220.64 2148.02 2199.56C2096.88 2126.86 2047.19 2055.11 2001.67 1998.11C1865.06 1826.32 1770.26 1761.55 1682.27 1790.94C1627.17 1809.36 1577.89 1872.65 1526.23 1977.03C1511.15 2007.47 1497.17 2040.69 1483.32 2074.34C1453.32 2147.28 1423.11 2225.1 1381.58 2261.54C1339.56 2298.41 1294.32 2302 1249.97 2309.94C1198.19 2319.42 1143.23 2327.25 1084.22 2337.32C1063.62 2340.9 1042.53 2344.93 1021.25 2349.72C981.798 2358.28 940.186 2366.18 899.432 2375.69C850.652 2387.12 803.774 2399.68 753.168 2392.64C649.156 2377.18 533.822 2290.97 438.699 2275.35C410.289 2270.67 383.596 2271.73 360.069 2283.28M2542.32 2556.48C2514.37 2474.5 2480.27 2666.4 2197.78 2280.98C2182.99 2260.81 2168.22 2239.68 2153.68 2219.17C2103.14 2148.12 2054.2 2077.76 2009.05 2020.18C1873.29 1846.41 1775.14 1765.73 1683.91 1785.91C1627.82 1798.32 1576.95 1855.23 1524.11 1956.07C1508.82 1985.24 1494.63 2017.19 1480.67 2049.81C1450.45 2120.51 1420.67 2196.79 1381.64 2239.05C1342.14 2281.79 1300.15 2297.26 1258.63 2315.66C1210.14 2337.35 1158.63 2356.73 1102.65 2375.25C1083.1 2381.78 1063.01 2388.34 1042.6 2395.12C1004.77 2407.4 964.279 2416.99 923.652 2425.31C875.017 2435.29 826.75 2442.48 774.207 2428.74C666.204 2399.66 544.942 2294.24 443.316 2260.4C412.966 2250.27 384.274 2245.97 358.75 2252.4M2537.46 2531.4C2515.1 2465.82 2487.68 2682.3 2202.79 2298.85C2188.21 2279.22 2173.66 2258.76 2159.34 2238.8C2109.42 2169.43 2061.22 2100.44 2016.43 2042.26C1881.52 1866.48 1780.07 1770.12 1685.55 1780.88C1628.5 1787.38 1576.03 1837.84 1521.99 1935.14C1506.5 1963.04 1492.09 1993.71 1478.04 2025.3C1447.59 2093.74 1418.24 2168.49 1381.71 2216.56C1344.74 2265.18 1305.98 2292.5 1267.29 2321.38C1222.09 2355.28 1174.02 2386.21 1121.07 2413.16C1102.58 2422.65 1083.49 2431.73 1063.93 2440.5C1027.74 2456.5 988.361 2467.78 947.847 2474.9C899.36 2483.45 849.706 2485.24 795.229 2464.82C683.242 2422.14 556.052 2297.52 447.916 2245.43C415.621 2229.86 384.934 2220.18 357.413 2221.51M2532.6 2506.3C2515.83 2457.11 2495.04 2697.97 2207.8 2316.67C2193.41 2297.56 2179.1 2277.8 2164.99 2258.38C2115.67 2190.67 2068.23 2123.07 2023.81 2064.32C1889.75 1886.54 1785.04 1774.68 1687.18 1775.8C1629.18 1776.47 1575.1 1820.44 1519.85 1914.14C1504.15 1940.77 1489.54 1970.15 1475.38 2000.72C1444.71 2066.92 1415.79 2140.13 1381.75 2194.01C1347.31 2248.49 1311.8 2287.69 1275.93 2327.03C1234.02 2373.14 1189.41 2415.62 1139.49 2451.03C1122.04 2463.44 1103.95 2475.07 1085.27 2485.86C1050.72 2505.59 1012.45 2518.56 972.058 2524.48C923.715 2531.57 872.678 2528 816.253 2500.87C700.283 2444.59 567.164 2300.77 452.521 2230.46C418.286 2209.45 385.592 2194.37 356.087 2190.61M2527.73 2481.2C2516.55 2448.41 2502.35 2713.44 2212.81 2334.51C2198.62 2315.92 2184.53 2296.84 2170.65 2277.99C2121.95 2211.95 2075.25 2145.75 2031.19 2086.37C1897.98 1906.6 1790.06 1779.45 1688.81 1770.75C1629.87 1765.69 1574.19 1803.11 1517.73 1893.18C1501.83 1918.57 1487 1946.65 1472.74 1976.18C1441.84 2040.13 1413.35 2111.82 1381.81 2171.49C1349.89 2231.84 1317.63 2282.93 1284.58 2332.72C1245.97 2391.04 1204.8 2445.08 1157.9 2488.91C1141.51 2504.27 1124.42 2518.44 1106.6 2531.21C1073.68 2554.66 1036.53 2569.33 996.263 2574.06C948.073 2579.72 895.639 2570.75 837.278 2536.92C717.316 2467.03 578.276 2304.02 457.123 2215.46C420.943 2189.01 386.254 2168.56 354.76 2159.71M2522.87 2456.12C2517.28 2439.72 2509.62 2728.7 2217.82 2352.37C2203.82 2334.31 2189.97 2315.93 2176.3 2297.62C2128.21 2233.24 2082.26 2168.43 2038.57 2108.48C1906.22 1926.71 1795.12 1784.47 1690.44 1765.72C1630.57 1755 1573.44 1786.22 1515.6 1872.23C1499.53 1896.47 1484.44 1923.16 1470.08 1951.65C1438.97 2013.35 1410.9 2083.51 1381.86 2148.98C1352.46 2215.22 1323.45 2278.16 1293.22 2338.42C1257.9 2408.95 1220.18 2474.54 1176.31 2526.83C1160.97 2545.14 1144.88 2561.84 1127.92 2576.59C1096.64 2603.75 1060.61 2620.11 1020.45 2623.65C972.415 2627.88 918.596 2613.53 858.293 2572.99C734.348 2489.51 589.38 2307.3 461.725 2200.51C423.605 2168.62 386.916 2142.79 353.43 2128.84M2518.01 2431.02C2518.01 2431.02 2516.85 2743.73 2222.84 2370.21C1928.83 1996.69 1721.54 1559.26 1513.48 1851.27C1369.7 2053.07 1307.46 2457.1 1149.26 2621.95C1084.17 2689.77 993.601 2695.78 879.323 2609.04C751.386 2511.94 600.498 2310.55 466.328 2185.52C426.262 2148.19 387.584 2116.98 352.096 2097.92" stroke="#FFF0F3" stroke-miterlimit="10"/>
</svg>
