<svg width="1440" height="2458" viewBox="0 0 1440 2458" fill="none" xmlns="http://www.w3.org/2000/svg">
<path d="M1481.28 -427.654C1471.87 -175.16 1452 59.6357 1406.81 241.668C1392.16 300.689 1374.71 354.365 1347.71 384.388C1292.65 445.609 1201.68 405.398 1129.37 418.821C1037.52 435.857 976.135 543.168 951.649 723.635C933.228 859.435 925.625 1050.42 873.848 1113.97C826.812 1171.69 689.311 980.787 607.539 915.105C523.787 847.841 456.365 849.035 413.448 910.562C390.966 942.8 375.095 991.612 367.129 1056.03C359.514 1117.64 371.064 1224.25 313.394 1155.68C294.332 1133.01 273.609 1095.37 253.672 1065.54C184.389 961.885 128.172 969.687 130.542 1082.64M1479.88 -419.39C1473.48 -164.491 1455.29 72.176 1410.44 253.484C1395.54 313.94 1376.95 366.511 1350.13 398.978C1317.7 437.943 1272.6 441.386 1225.96 440.797C1194.12 440.403 1161.56 438.118 1131.83 443.939C1073.08 455.457 1025.5 500.1 990.766 573.62C970.459 616.614 954.561 669.505 943.458 731.698C935.594 775.202 928.926 824.833 921.322 873.507C910.569 941.793 897.932 1008.13 877.823 1054.38C870.622 1071.03 862.461 1085.09 853.063 1095.59C814.173 1138.89 721.879 1035.99 645.557 962.924C625.058 943.226 605.709 925.67 588.83 913.65C519.255 863.657 462.069 863.551 421.82 907.413C414.888 914.958 408.455 923.809 402.541 933.943C381.449 970.063 366.794 1022.34 359.256 1088.77C354.796 1128.12 357.261 1183.85 346.234 1205.15C339.446 1218.27 327.529 1218.14 305.863 1193.52C286.935 1172.01 266.349 1136.06 246.468 1107.44C177.405 1007.95 120.488 1015.09 121.458 1127.02M1478.47 -411.143C1475.09 -153.824 1458.57 84.6989 1414.06 265.283C1398.91 327.193 1379.18 378.657 1352.54 413.536C1320.41 455.07 1275.61 461.413 1228.96 462.941C1197.11 463.995 1164.4 462.8 1134.26 469.026C1074.73 481.285 1025.4 523.886 988.014 592.596C966.157 632.762 948.424 681.928 935.247 739.73C925.851 780.084 917.57 826.167 908.36 871.202C895.296 934.326 880.34 995.328 858.513 1038.45C850.724 1053.99 842.064 1067.23 832.255 1077.2C791.553 1118.3 700.231 1021.46 625.489 955.707C605.428 937.916 586.577 922.46 570.113 912.213C502.555 870.171 447.603 876.96 409.706 927.452C403.178 936.121 397.156 946.113 391.626 957.325C371.919 997.329 358.481 1053.06 351.38 1121.53C347.178 1162.1 349.475 1218.16 338.412 1240.36C331.593 1254.04 319.675 1254.49 298.329 1231.39C279.525 1211.04 259.092 1176.78 239.261 1149.37C170.421 1054.03 112.796 1060.51 112.37 1171.4M1477.07 -402.896C1476.69 -143.171 1461.85 97.2395 1417.69 277.082C1402.28 340.429 1381.42 390.786 1354.97 428.109C1323.13 472.228 1278.63 481.455 1231.98 485.099C1200.12 487.618 1167.25 487.511 1136.71 494.112C1076.4 507.128 1025.3 547.671 985.271 611.554C961.864 648.91 942.433 694.643 927.039 747.746C916.204 785.149 906.209 827.47 895.405 868.88C880.026 926.843 862.759 982.507 839.209 1022.48C830.837 1036.93 821.67 1049.33 811.464 1058.8C768.945 1097.7 678.714 1007.4 605.429 948.455C585.831 932.687 567.434 919.133 551.397 910.725C485.786 876.321 433.134 890.319 397.603 947.454C391.481 957.266 385.857 968.366 380.722 980.67C362.403 1024.56 350.182 1083.75 343.52 1154.25C339.575 1196.05 341.709 1252.44 330.605 1275.53C323.76 1289.78 311.848 1290.83 290.8 1269.2C272.126 1250.03 251.834 1217.44 232.054 1191.22C163.433 1100.05 105.102 1105.85 103.283 1215.73M1475.67 -394.633C1478.31 -132.502 1465.14 109.78 1421.33 288.914C1405.67 353.715 1383.78 403.213 1357.39 442.699C1325.98 489.7 1281.66 501.513 1235 507.291C1203.14 511.257 1170.12 512.255 1139.18 519.246C1078.07 533.019 1025.23 571.519 982.545 630.576C957.587 665.105 936.353 707.208 918.853 755.825C906.508 790.141 894.873 828.834 882.474 866.638C864.784 919.438 845.198 969.766 819.923 1006.6C810.964 1019.94 801.295 1031.51 790.685 1040.46C746.354 1077.16 657.137 993.063 585.381 941.269C566.227 927.441 548.307 915.869 532.699 909.302C469.043 882.532 418.687 903.742 385.507 967.507C379.785 978.444 374.567 990.668 369.825 1004.07C352.896 1051.83 341.887 1114.49 335.657 1187C331.97 1230.02 333.935 1286.73 322.796 1310.73C315.925 1325.55 304.015 1327.2 283.278 1307.07C264.731 1289.07 244.589 1258.16 224.86 1233.14C156.459 1146.13 97.4234 1151.27 94.2071 1260.11M1474.26 -386.387C1479.92 -121.837 1468.43 122.317 1424.96 300.712C1409.04 366.95 1386.04 415.404 1359.81 457.256C1328.71 506.888 1284.67 521.539 1238.01 529.433C1206.14 534.864 1172.96 536.95 1141.61 544.315C1079.73 558.844 1025.13 595.286 979.796 649.533C953.29 681.252 930.246 719.692 910.645 763.839C896.788 795.051 883.608 830.351 869.515 864.315C849.639 912.249 827.491 956.629 800.614 990.631C791.025 1002.76 780.9 1013.61 769.879 1022.03C723.732 1056.53 635.531 978.627 565.311 934.017C546.606 922.128 529.154 912.543 513.974 907.814C452.261 888.631 404.214 917.101 373.39 987.512C368.079 999.589 363.26 1012.92 358.903 1027.41C343.369 1079.08 333.572 1145.2 327.774 1219.72C324.346 1263.97 326.142 1321.02 314.967 1345.91C308.07 1361.3 296.162 1363.55 275.737 1344.9C257.315 1328.08 237.324 1298.85 217.646 1275.03C149.469 1192.18 89.729 1196.66 85.1134 1304.47M1472.86 -378.124C1481.53 -111.168 1471.72 134.857 1428.59 312.528C1412.42 380.218 1388.3 427.597 1362.23 471.846C1331.46 524.109 1287.69 541.582 1241.03 551.608C1209.15 558.488 1175.82 561.68 1144.07 569.433C1081.4 584.719 1025.05 619.118 977.059 668.524C949.002 697.415 924.146 732.211 902.448 771.886C887.076 799.995 872.272 831.715 856.571 862.024C834.397 904.844 809.901 943.792 781.317 974.698C771.139 985.709 760.518 995.765 749.089 1003.64C701.129 1035.95 613.945 964.222 545.252 926.782C526.994 916.832 510.015 909.213 495.265 906.359C435.499 894.76 389.756 930.492 361.283 1007.53C356.373 1020.74 351.958 1035.19 347.99 1050.76C333.845 1106.31 325.265 1175.89 319.901 1252.45C316.73 1297.92 318.363 1355.29 307.147 1381.08C300.228 1397.04 288.315 1399.91 268.201 1382.73C249.906 1367.1 230.059 1339.52 210.436 1316.9C142.478 1238.21 82.0284 1242.01 76.0272 1348.81M1471.45 -369.877C1483.13 -100.516 1475 147.38 1432.21 324.327C1415.79 393.455 1390.54 439.757 1364.64 486.404C1334.18 541.283 1290.7 561.609 1244.03 573.752C1212.14 582.096 1178.66 586.376 1146.51 594.504C1083.05 610.547 1024.94 642.888 974.307 687.483C944.704 713.562 918.03 744.698 894.232 779.903C877.34 804.91 860.913 833.05 843.609 859.719C819.131 897.411 792.296 930.941 762.005 958.751C751.239 968.642 740.116 977.886 728.279 985.24C678.504 1015.34 592.339 949.786 525.178 919.532C507.363 911.505 490.856 905.87 476.536 904.873C418.71 900.826 375.273 943.853 349.162 1027.54C344.652 1041.87 340.648 1057.47 337.068 1074.11C324.312 1133.54 316.944 1206.58 312.013 1285.15C309.1 1331.85 310.565 1389.56 299.313 1416.24C292.363 1432.76 280.459 1436.27 260.649 1420.54C242.477 1406.1 222.784 1380.18 203.211 1358.76C135.471 1284.21 74.3229 1287.37 66.917 1393.13M1470.05 -361.633C1484.75 -89.8503 1478.29 159.918 1435.85 336.14C1419.17 406.721 1392.8 451.931 1367.07 500.991C1336.92 558.469 1293.73 581.665 1247.06 595.94C1215.16 605.732 1181.53 611.117 1148.97 619.636C1084.73 636.436 1024.87 666.718 971.58 706.503C940.423 729.756 911.925 757.216 886.045 787.98C867.628 809.87 849.587 834.444 830.676 857.458C803.899 890.036 774.726 918.148 742.717 942.848C731.359 951.621 719.743 960.05 707.499 966.879C655.911 994.784 570.76 935.376 505.128 912.327C487.756 906.223 471.727 902.571 457.835 903.431C401.939 906.903 360.824 957.257 337.074 1047.59C332.975 1063.06 329.369 1079.76 326.175 1097.5C314.808 1160.82 308.653 1237.32 304.159 1317.92C301.504 1365.84 302.8 1423.87 291.513 1451.46C284.537 1468.55 272.638 1472.71 253.137 1458.41C235.094 1445.19 215.542 1420.89 196.026 1400.69C128.505 1330.3 66.6531 1332.8 57.8562 1437.54M1468.65 -353.369C1486.36 -79.1816 1481.58 172.458 1439.47 347.957C1422.54 419.975 1395.05 464.109 1369.48 515.568C1339.64 575.646 1296.74 601.711 1250.07 618.102C1218.16 629.359 1184.36 635.818 1151.41 644.724C1086.38 662.281 1024.77 690.522 968.828 725.464C936.125 745.905 905.804 769.689 877.839 796.013C857.897 814.786 838.238 835.796 817.719 855.154C788.638 882.603 757.132 905.313 723.406 926.903C711.459 934.555 699.342 942.173 686.69 948.477C633.286 974.183 549.144 920.91 485.056 905.095C468.131 900.914 452.565 899.231 439.108 901.964C385.144 912.937 346.348 970.636 324.95 1067.6C321.251 1084.19 318.05 1102.02 315.25 1120.85C305.272 1188.05 300.338 1268.03 296.273 1350.65C293.88 1399.79 295.004 1458.15 283.681 1486.63C276.678 1504.3 264.786 1509.11 245.588 1496.25C227.669 1484.24 208.27 1461.59 188.799 1442.57C121.502 1376.34 58.9357 1378.17 48.7436 1481.87M1467.24 -345.122C1487.97 -68.5298 1484.87 184.998 1443.11 359.756C1425.92 433.228 1397.3 476.268 1371.91 530.142C1342.37 592.82 1299.77 621.752 1253.08 640.262C1221.17 652.968 1187.21 660.531 1153.86 669.828C1088.04 688.141 1024.68 714.324 966.086 744.456C931.83 762.071 899.68 782.163 869.638 804.062C848.166 819.701 826.894 837.163 804.772 852.882C773.378 875.187 739.549 892.51 704.115 911.004C691.58 917.537 678.961 924.342 665.907 930.12C610.691 953.627 527.555 906.47 465.003 897.893C448.521 895.635 433.427 895.92 420.401 900.526C368.358 918.969 331.892 984.045 312.85 1087.65C309.557 1105.39 306.756 1124.33 304.349 1144.25C295.761 1215.33 292.039 1298.77 288.41 1383.4C286.276 1433.77 287.236 1492.46 275.872 1521.84C268.844 1540.07 256.962 1545.56 238.066 1534.11C220.278 1523.33 201.04 1502.39 181.605 1484.49C114.6 1422.77 51.2612 1423.58 39.6698 1526.27M1465.84 -336.875C1489.58 -57.8615 1488.15 197.522 1446.73 371.554C1429.29 446.463 1399.54 488.413 1374.32 544.699C1345.08 609.96 1302.78 641.778 1256.09 662.405C1224.17 676.575 1190.06 685.226 1156.3 694.898C1089.7 713.968 1024.57 738.092 963.338 763.413C927.536 778.216 893.543 794.603 861.43 812.076C838.427 824.582 815.537 838.48 791.818 850.558C758.113 867.718 721.963 879.67 684.807 895.038C671.683 900.468 658.566 906.443 645.1 911.698C588.068 933.007 505.934 891.951 444.928 890.626C428.887 890.273 414.26 892.527 401.676 899.039C351.543 924.92 317.414 997.405 300.727 1107.64C297.839 1126.5 295.449 1146.58 293.426 1167.58C286.227 1242.55 283.718 1329.45 280.527 1416.11C278.65 1467.7 279.437 1526.71 268.042 1556.99C260.992 1575.8 249.118 1581.97 230.519 1571.91C212.861 1562.37 193.769 1543.05 174.379 1526.33C107.598 1468.77 43.5503 1468.92 30.568 1570.58M1464.43 -328.611C1491.19 -47.193 1491.45 210.078 1450.36 383.387C1432.68 459.748 1401.79 500.591 1376.75 559.306C1347.81 627.151 1305.8 661.838 1259.11 684.597C1227.18 700.215 1192.92 709.971 1158.76 720.032C1091.37 739.86 1024.5 761.942 960.608 782.437C923.251 794.414 887.429 807.109 853.235 820.158C828.702 829.53 804.194 839.864 778.872 848.302C742.854 860.318 704.386 866.899 665.511 879.14C651.8 883.45 638.181 888.612 624.318 893.358C565.473 912.468 484.336 877.496 424.886 883.456C409.287 885.009 395.127 889.23 382.983 897.632C334.755 930.934 302.972 1010.84 288.643 1127.72C286.16 1147.73 284.169 1168.91 282.536 1191.01C276.731 1269.87 275.434 1360.22 272.676 1448.91C271.058 1501.72 271.681 1561.07 260.245 1592.25C253.164 1611.61 241.303 1618.48 223.005 1609.83C205.488 1601.55 186.532 1583.82 167.193 1568.3C100.641 1514.91 35.878 1514.38 21.4964 1615.01M1463.03 -320.366C1492.8 -36.5432 1494.42 221.939 1454 395.184C1435.91 472.691 1404.03 512.718 1379.16 573.861C1350.53 644.275 1308.82 681.863 1262.13 706.754C1230.19 723.836 1195.77 734.682 1161.2 745.117C1093.04 765.7 1024.41 785.724 957.863 801.393C918.962 810.558 881.291 819.515 845.031 828.17C818.963 834.393 792.836 841.163 765.927 845.992C727.595 852.865 686.813 854.072 646.212 863.188C631.917 866.395 617.792 870.729 603.521 874.95C542.86 891.862 462.718 862.958 404.82 876.203C389.662 879.662 375.97 885.852 364.262 896.143C317.934 936.851 288.503 1024.2 276.529 1147.71C274.447 1168.84 272.86 1191.15 271.621 1214.34C267.206 1297.08 267.12 1390.9 264.795 1481.6C263.435 1535.63 263.89 1595.32 252.418 1627.39C245.31 1647.32 233.468 1654.89 215.466 1647.62C198.086 1640.61 179.269 1624.47 159.985 1610.15C93.6621 1560.94 28.1851 1559.73 12.4125 1659.33M1461.62 -312.118C1494.41 -25.8741 1497.7 234.464 1457.62 406.986C1439.28 485.929 1406.26 524.849 1381.58 588.421C1353.23 661.404 1311.83 701.892 1265.13 728.899C1233.18 747.431 1198.61 759.38 1163.64 770.205C1094.68 791.531 1024.31 809.527 955.112 820.371C914.656 826.71 875.141 831.944 836.821 836.205C809.206 839.264 781.477 842.5 752.965 843.69C712.315 845.402 669.226 841.27 626.897 847.244C612.015 849.348 597.396 852.868 582.713 856.548C520.24 871.261 441.088 848.426 384.743 868.956C370.022 874.322 356.802 882.479 345.53 894.66C301.086 942.743 274.021 1037.56 264.404 1167.72C262.727 1189.97 261.545 1213.41 260.696 1237.69C257.67 1324.32 258.802 1421.61 256.909 1514.33C255.801 1569.57 256.093 1629.58 244.586 1662.56C237.452 1683.07 225.629 1691.35 207.921 1685.46C190.679 1679.72 172 1665.15 152.762 1652.03C86.6629 1606.98 20.4819 1605.1 3.30443 1703.67M1460.22 -303.858C1496.02 -15.2076 1501 247.017 1461.25 418.798C1442.66 499.179 1408.5 536.991 1384 603.008C1355.95 678.56 1314.85 721.948 1268.15 751.071C1236.2 771.068 1201.48 784.105 1166.1 795.304C1096.36 817.385 1024.22 833.324 952.379 839.358C910.378 842.885 869.013 844.381 828.628 844.249C799.477 844.158 770.13 843.83 740.021 841.397C697.05 837.933 651.656 828.478 607.603 831.309C592.138 832.309 577.012 835 561.926 838.155C497.637 850.669 419.469 833.87 364.687 861.717C350.402 868.974 337.649 879.099 326.824 893.202C284.263 948.643 259.563 1050.95 252.307 1187.75C251.036 1211.15 250.258 1235.71 249.798 1261.07C248.16 1351.58 250.509 1452.33 249.05 1547.08C248.2 1603.54 248.328 1663.89 236.78 1697.76C229.621 1718.84 217.822 1727.86 200.399 1723.32C183.299 1718.86 164.755 1705.86 145.567 1693.95C79.6919 1653.05 12.7969 1650.51 -5.766 1748.06M1458.82 -295.609C1497.62 -4.55457 1504.59 260.202 1464.88 430.6C1446.17 512.742 1410.73 549.123 1386.41 617.568C1358.66 695.689 1317.87 741.975 1271.16 773.217C1239.19 794.66 1204.31 808.788 1168.54 820.393C1098.01 843.232 1024.12 857.112 949.627 858.318C906.071 859.02 862.861 856.776 820.412 852.267C789.715 848.996 758.76 845.136 727.064 839.093C681.774 830.469 634.073 815.675 588.292 815.363C572.243 815.26 556.611 817.122 541.117 819.753C475.016 830.068 397.828 819.306 344.615 854.486C330.771 863.648 318.477 875.727 308.101 891.734C267.414 954.518 245.091 1064.33 240.186 1207.76C239.32 1232.28 238.944 1257.97 238.872 1284.42C238.624 1378.81 242.185 1483.02 241.159 1579.79C240.566 1637.48 240.527 1698.16 228.947 1732.92C221.76 1754.56 209.987 1764.32 192.848 1761.13C175.895 1757.96 157.45 1746.41 138.343 1735.81C72.5908 1698.7 5.09212 1695.87 -14.8756 1792.38M1457.41 -287.361C1499.24 6.11461 1507.88 272.743 1468.51 442.416C1449.55 525.995 1412.98 561.269 1388.84 632.159C1361.37 712.833 1320.89 762.019 1274.18 795.409C1242.21 818.317 1207.17 833.534 1170.99 845.512C1099.68 869.108 1024.04 880.946 946.891 877.327C901.79 875.217 856.725 869.218 812.216 860.332C779.978 853.896 747.409 846.47 714.118 836.821C666.507 823.02 616.5 802.903 568.995 799.449C552.364 798.241 536.229 799.275 520.328 801.38C452.41 809.497 376.192 804.741 324.561 847.268C311.149 858.321 299.321 872.351 289.392 890.279C250.569 960.392 230.633 1077.72 228.085 1227.8C227.625 1253.46 227.652 1280.25 227.965 1307.79C229.106 1406.06 233.883 1513.73 233.291 1612.53C232.956 1671.44 232.748 1732.44 221.133 1768.11C213.92 1790.32 202.176 1800.83 185.321 1798.97C168.521 1797.11 150.195 1787.1 131.138 1777.7C65.6097 1744.75 -2.59754 1741.25 -23.9604 1836.74M1456.01 -279.098C1500.85 16.782 1511.17 285.282 1472.14 454.231C1452.93 539.262 1415.22 573.397 1391.26 646.732C1364.08 729.959 1323.91 782.061 1277.2 817.567C1245.22 841.924 1210.03 858.245 1173.45 870.613C1101.35 894.965 1023.96 904.745 944.163 896.315C897.507 891.378 850.595 881.623 804.028 868.377C770.243 858.759 736.066 847.801 701.183 834.527C651.242 815.535 598.945 790.126 549.712 783.529C532.493 781.219 515.855 781.423 499.547 783.005C429.813 788.923 354.563 790.172 304.511 840.047C291.53 852.974 280.164 868.974 270.687 888.823C233.716 966.233 216.179 1091.11 215.987 1247.81C215.927 1274.6 216.359 1302.52 217.066 1331.15C219.596 1433.3 225.591 1544.45 225.43 1645.25C225.353 1705.38 224.977 1766.72 213.325 1803.28C206.087 1826.06 194.383 1837.34 177.797 1836.8C161.156 1836.27 142.947 1827.78 123.942 1819.58C58.627 1790.78 -10.2803 1786.62 -33.0328 1881.1M1454.6 -270.852C1502.46 27.4329 1514.45 297.805 1475.77 466.03C1456.3 552.499 1417.44 585.512 1393.67 661.307C1366.78 747.087 1326.92 802.106 1280.21 839.728C1248.22 865.55 1212.87 882.958 1175.89 895.701C1103 920.81 1023.85 928.548 941.402 915.276C893.201 907.528 844.429 894.003 795.807 876.395C760.479 863.595 724.686 849.09 688.216 832.224C635.955 808.054 581.358 777.339 530.395 767.583C512.594 764.169 495.449 763.545 478.738 764.601C407.192 768.32 332.907 775.575 284.438 832.813C271.889 847.633 260.99 865.583 251.959 887.354C216.837 972.062 201.698 1104.49 203.867 1267.84C204.218 1295.76 205.05 1324.81 206.145 1354.51C210.07 1460.57 217.272 1575.16 217.548 1677.99C217.73 1739.34 217.19 1801.01 205.503 1838.49C198.238 1861.84 186.57 1873.88 170.263 1874.67C153.776 1875.46 135.684 1868.49 116.735 1861.51C51.6435 1836.86 -17.9722 1832.04 -42.1254 1925.48M1453.2 -262.607C1504.07 38.0998 1517.74 310.343 1479.4 477.827C1459.68 565.749 1419.67 597.624 1396.09 675.862C1369.48 764.197 1329.94 822.13 1283.22 861.868C1251.22 889.139 1215.72 907.652 1178.34 920.784C1104.67 946.65 1023.76 952.33 938.667 934.246C888.911 923.672 838.293 906.39 787.613 884.422C750.738 868.441 713.336 850.386 675.271 829.914C620.684 800.552 563.792 764.546 511.096 751.632C492.713 747.131 475.064 745.661 457.941 746.193C384.579 747.714 311.253 760.961 264.372 825.561C252.254 842.254 241.818 862.174 233.248 885.88C199.971 977.888 187.238 1117.86 191.758 1287.84C192.51 1316.89 193.751 1347.06 195.232 1377.86C200.542 1487.8 208.964 1605.85 209.674 1710.71C210.118 1773.29 209.4 1835.28 197.683 1873.66C190.392 1897.58 178.765 1910.41 162.725 1912.48C146.402 1914.62 128.422 1909.16 109.518 1903.36C44.6465 1882.87 -25.6693 1877.4 -51.2176 1969.81M1451.8 -254.343C1505.68 48.7684 1521.03 322.884 1483.03 489.66C1463.05 579.02 1421.9 609.755 1398.52 690.47C1372.19 781.341 1332.96 842.206 1286.24 884.077C1254.24 912.811 1218.58 932.414 1180.79 945.92C1106.34 972.542 1023.68 976.164 935.932 953.271C884.632 939.885 832.151 918.816 779.414 892.505C740.997 873.341 701.983 851.739 662.326 827.659C605.418 793.103 546.222 751.808 491.797 735.735C472.83 730.13 454.675 727.832 437.149 727.838C361.975 727.16 289.599 746.383 244.311 818.361C232.624 836.946 222.646 858.819 214.532 884.445C183.088 983.72 172.773 1131.27 179.65 1307.9C180.808 1338.09 182.448 1369.37 184.323 1401.26C191.022 1515.08 200.657 1636.6 201.799 1743.47C202.501 1807.27 201.619 1869.59 189.861 1908.87C182.543 1933.35 170.962 1946.96 155.186 1950.35C139.031 1953.82 121.155 1949.87 102.312 1945.28C37.6595 1928.96 -33.3606 1922.82 -60.3095 2014.19M1450.39 -246.097C1507.28 59.4193 1524.32 335.423 1486.66 501.458C1466.43 592.27 1424.12 621.868 1400.93 705.027C1374.89 798.437 1335.98 862.231 1289.25 906.219C1257.24 936.402 1221.43 957.093 1183.24 971.005C1107.99 998.385 1023.59 999.963 933.184 972.228C880.328 956.016 825.996 931.174 771.206 900.519C731.24 878.157 690.615 853.023 649.372 825.351C590.138 785.602 528.654 739.033 472.494 719.785C452.945 713.094 434.287 709.966 416.354 709.448C339.363 706.572 267.935 731.753 224.251 811.124C212.99 831.584 203.474 855.41 195.816 882.972C166.202 989.517 158.309 1144.65 167.547 1327.91C169.109 1359.23 171.15 1391.63 173.419 1424.62C181.507 1542.32 192.354 1667.3 193.934 1776.2C194.894 1841.23 193.845 1903.89 182.05 1944.06C174.706 1969.1 163.176 1983.52 147.663 1988.2C131.678 1993.03 113.909 1990.57 95.1104 1987.17C30.6817 1975 -41.0523 1968.19 -69.3868 2058.55M1448.98 -237.85C1508.9 70.0872 1527.6 347.946 1490.28 513.258C1469.8 605.507 1426.19 633.628 1403.35 719.585C1377.41 815.164 1338.99 882.243 1292.26 928.363C1260.24 960.011 1224.27 981.79 1185.68 996.076C1109.65 1024.21 1023.49 1023.73 930.436 991.187C876.035 972.164 819.846 943.533 762.998 908.534C721.485 882.974 679.252 854.308 636.418 823.029C574.862 778.086 511.178 726.584 453.185 703.821C433.084 696.14 413.893 692.068 395.552 691.026C316.749 685.951 246.267 717.109 204.186 803.873C193.352 826.209 184.303 852.003 177.096 881.485C149.311 995.299 143.836 1158.01 155.43 1347.9C157.392 1380.35 159.848 1413.89 162.496 1447.95C171.973 1569.54 184.043 1697.99 186.051 1808.91C187.269 1875.16 186.051 1938.13 174.221 1979.21C166.851 2004.84 155.371 2020.04 140.122 2026.01C124.305 2032.2 106.644 2031.24 87.896 2029.04C23.6867 2021.04 -48.7475 2013.56 -78.4812 2102.89M1447.58 -229.586C1510.51 80.7571 1530.89 360.486 1493.91 525.074C1473.18 618.777 1428.43 645.79 1405.77 734.175C1380.13 832.323 1342.02 902.302 1295.28 950.539C1263.24 983.635 1227.13 1006.52 1188.13 1021.19C1111.32 1050.09 1023.41 1047.57 927.704 1010.19C871.749 988.345 813.711 955.939 754.807 916.598C711.745 887.839 667.855 855.428 623.476 820.755C559.529 770.322 493.6 713.796 433.893 687.905C413.208 679.12 393.511 674.22 374.763 672.653C294.144 665.38 224.606 702.499 184.127 796.655C173.72 820.866 165.129 848.614 158.393 880.046C132.427 1001.11 129.384 1171.41 143.334 1367.96C145.703 1401.54 148.557 1436.19 151.6 1471.35C162.466 1596.81 175.748 1728.73 178.189 1841.67C179.664 1909.14 178.283 1972.45 166.412 2014.42C159.016 2040.61 147.587 2056.61 132.591 2063.86C116.954 2071.42 99.3839 2071.93 80.6923 2070.95C16.7067 2067.1 -56.4413 2058.95 -87.5702 2147.26M1446.18 -221.341C1512.12 91.4067 1534.18 373.024 1497.55 536.887C1476.56 632.027 1430.68 657.933 1408.2 748.747C1382.85 849.479 1345.04 922.342 1298.3 972.711C1266.26 1007.27 1229.99 1031.25 1190.59 1046.29C1112.99 1075.95 1023.32 1071.36 924.967 1029.18C867.466 1004.52 807.566 968.312 746.605 924.644C702 892.686 656.504 856.76 610.529 818.481C544.261 762.871 476.027 701.022 414.592 671.989C393.32 662.101 373.12 656.372 353.969 654.279C271.537 644.807 202.93 687.873 164.064 789.437C154.083 815.523 145.95 845.225 139.674 878.592C115.525 1006.92 114.917 1184.81 131.218 1387.98C133.992 1422.69 137.247 1458.46 140.683 1494.71C152.939 1624.06 167.433 1759.44 170.316 1874.41C172.049 1943.1 170.5 2006.74 158.593 2049.61C151.171 2076.37 139.798 2093.19 125.059 2101.71C109.606 2110.66 92.1291 2112.64 73.4827 2112.84C9.71653 2113.15 -64.1316 2104.34 -96.6557 2191.62M1444.77 -213.095C1513.73 102.074 1537.46 385.547 1501.17 548.687C1479.93 645.28 1432.91 670.063 1410.61 763.321C1385.56 866.622 1348.05 942.385 1301.31 994.87C1269.27 1030.9 1232.84 1055.96 1193.04 1071.4C1114.65 1101.8 1023.23 1095.17 922.223 1048.16C863.168 1020.67 801.42 980.685 738.403 932.674C692.249 897.518 645.156 858.091 597.579 816.173C529.001 755.4 458.447 688.215 395.298 656.054C373.443 645.062 352.736 638.505 333.178 635.887C248.93 624.217 181.262 673.244 144.008 782.199C134.449 810.162 126.778 841.816 120.963 877.118C98.6239 1012.68 100.457 1198.18 119.115 1408C122.295 1443.85 125.954 1480.73 129.779 1518.07C143.43 1651.32 159.135 1790.15 162.451 1907.14C164.443 1977.06 162.724 2041.02 150.782 2084.79C143.333 2112.11 132.027 2129.77 117.536 2139.56C102.262 2149.87 84.8771 2153.32 66.2868 2154.74C2.74009 2159.21 -71.8124 2149.74 -105.737 2235.98M1443.37 -204.831C1515.34 112.742 1540.76 398.103 1504.8 560.502C1483.31 658.533 1435.15 682.209 1413.03 777.895C1388.27 883.765 1351.07 962.428 1304.32 1017.03C1272.26 1054.5 1235.68 1080.67 1195.48 1096.5C1116.3 1127.65 1023.13 1118.98 919.478 1067.15C858.878 1036.85 795.208 992.798 730.203 940.74C682.46 902.186 633.807 859.442 584.629 813.901C513.735 747.968 440.865 675.429 375.993 640.141C353.551 628.047 332.345 620.659 312.38 617.517C226.32 603.647 159.378 658.174 123.947 774.999C114.758 804.714 107.601 838.445 102.247 875.683C81.7189 1018.5 85.9874 1211.59 107.006 1428.03C110.586 1465.01 114.655 1503.04 118.865 1541.46C133.904 1678.59 150.821 1820.87 154.57 1939.88C156.814 2011.01 154.933 2075.32 142.955 2119.99C135.48 2147.88 124.234 2166.34 109.992 2177.41C94.9129 2189.13 77.6101 2194.03 59.0706 2196.65C-4.25251 2205.28 -79.5148 2195.13 -114.829 2280.36M1441.96 -196.584C1516.94 123.395 1544.04 410.628 1508.43 572.303C1486.69 671.785 1437.39 694.356 1415.45 792.47C1390.99 900.909 1354.09 982.456 1307.34 1039.19C1275.27 1078.13 1238.54 1105.38 1197.92 1121.59C1117.97 1153.49 1023.04 1142.77 916.732 1086.13C854.581 1053 789.076 1005.22 721.997 948.773C672.717 907.053 622.451 860.761 571.681 811.612C498.477 740.517 423.288 662.642 356.692 624.21C333.661 610.997 311.954 602.796 291.586 599.128C203.709 583.06 137.739 643.628 103.883 767.765C95.1314 799.388 88.3669 834.935 83.5327 874.212C64.5754 1023.82 71.5243 1224.97 94.8993 1448.06C98.8898 1486.17 103.354 1525.31 107.952 1564.8C124.381 1705.82 142.52 1851.58 146.697 1972.61C149.199 2044.95 147.155 2109.6 135.136 2155.16C127.635 2183.62 116.454 2202.91 102.455 2215.23C87.5644 2228.33 70.3438 2234.69 51.8592 2238.5C-11.2445 2251.3 -87.2109 2240.49 -123.92 2324.69M1440.56 -188.335C1518.56 134.065 1547.32 423.153 1512.06 584.103C1490.05 685.023 1439.62 706.487 1417.86 807.03C1393.7 918.054 1357.1 1002.48 1310.34 1061.34C1278.27 1101.72 1241.37 1130.07 1200.37 1146.68C1119.62 1179.34 1022.94 1166.56 913.983 1105.09C850.284 1069.15 782.938 1017.63 713.789 956.789C662.978 911.919 611.095 862.079 558.722 809.291C483.204 733.035 405.703 649.821 337.383 608.246C313.765 593.93 291.555 584.9 270.78 580.708C181.091 562.441 116.094 629.065 83.8088 760.5C75.4885 794.014 69.1872 831.53 64.8082 872.727C47.7283 1029.73 57.0457 1238.31 82.7775 1468.05C87.1686 1507.29 92.0417 1547.55 97.0296 1588.14C114.847 1733.03 134.199 1882.26 138.814 2005.32C141.574 2078.89 139.356 2143.85 127.306 2190.32C119.779 2219.36 108.668 2239.47 94.9132 2253.04C80.2167 2267.55 63.0787 2275.36 44.6447 2280.38C-18.2408 2297.32 -94.906 2285.86 -133.016 2369.02M1439.16 -180.075C1520.17 144.73 1550.62 435.706 1515.69 595.933C1493.44 698.306 1441.86 718.647 1420.29 821.618C1396.42 935.211 1360.12 1022.54 1313.36 1083.53C1281.29 1125.38 1244.23 1154.81 1202.82 1171.79C1121.29 1205.21 1022.86 1190.39 911.247 1124.09C845.997 1085.33 776.811 1030.08 705.589 964.853C653.24 916.816 599.744 863.428 545.771 807.018C467.942 725.599 388.116 637.034 318.078 592.332C293.877 576.912 271.17 567.068 249.981 562.335C158.477 541.87 94.4564 614.55 63.7468 753.298C55.8638 788.719 50.0301 828.204 46.0913 871.289C30.8844 1035.69 42.5799 1251.72 70.6685 1488.1C75.4601 1528.47 80.738 1569.85 86.1197 1611.53C105.327 1760.31 125.891 1913 130.938 2038.07C133.956 2112.87 131.574 2178.16 119.484 2225.53C111.931 2255.13 100.938 2276.2 87.3743 2290.91C72.9198 2306.94 55.811 2316.07 37.4332 2322.3C-25.2329 2343.4 -102.603 2331.28 -142.108 2413.42M1437.75 -171.826C1521.78 155.383 1553.9 448.23 1519.32 607.733C1496.81 711.543 1444.1 730.776 1422.71 836.193C1399.13 952.354 1363.14 1042.59 1316.38 1105.69C1221.12 1234.23 1080.81 1250.31 908.505 1143.07C792.6 1070.92 663.997 946.42 532.823 804.711C452.678 718.132 370.542 624.228 298.78 576.382C166.853 488.427 79.5714 566.222 43.686 746.046C7.80057 925.871 20.1419 1201.44 58.565 1508.1C93.426 1786.39 149.745 2109.14 111.673 2260.7C68.127 2434.02 -87.1354 2330.71 -151.191 2457.75M1936.49 1906.66C1798.95 1502.92 1622.91 1111.38 1448.5 821.281C1398.88 738.75 1347.59 662.078 1305.85 632.132C1185.23 545.623 1181.84 818.346 1160.67 979.22C1135.11 1173.34 1113.27 1375.24 1075.27 1544.2C1053.93 1639.06 1019.97 1724.54 941.139 1646.87C861.31 1568.21 768.315 1355.97 683.419 1172.37C584.495 958.429 479.696 755.314 378.569 610.613C277.441 465.912 180.143 385.037 126.887 430.416C85.1852 465.958 73.0874 573.751 68.5284 691.078C56.5572 999.369 91.1847 1391.7 169.236 1832.12M1933.16 1888.39C1811.6 1531.55 1658.75 1192.92 1497.46 911.945C1482.48 885.849 1467.5 860.264 1452.54 835.503C1403.36 754.171 1352.64 678.505 1311.19 648.131C1191.27 560.152 1184.81 819.632 1162.02 975.479C1141.82 1113.65 1124.33 1258.34 1100.59 1391.79C1092.41 1438.25 1083.54 1483.3 1073.64 1526.28C1052.17 1619.49 1018.58 1703.84 941.578 1630.37C863.611 1555.98 772.923 1352.36 690.035 1176.36C593.449 971.288 491.128 776.562 392.198 637.975C357.754 589.725 323.739 548.917 291.79 518.09C231.994 460.366 179.408 437.531 144.807 466.233C103.244 500.709 90.1619 604.598 84.2228 717.07C72.1496 944.632 86.2997 1217.98 126.181 1525.47C138.077 1617.22 152.262 1712 168.745 1809.52M1929.83 1870.14C1812.33 1525.2 1664.36 1206.44 1501.05 924.922C1486.22 899.376 1471.4 874.13 1456.59 849.761C1407.86 769.646 1357.69 694.969 1316.53 664.152C1197.3 574.688 1187.8 820.936 1163.39 971.775C1141.94 1104.27 1123.84 1245.47 1099.31 1376.51C1090.97 1421.98 1081.98 1466.16 1072.03 1508.38C1050.43 1599.96 1017.19 1683.18 942.024 1613.92C865.915 1543.76 777.533 1348.76 696.663 1180.38C602.42 984.181 502.568 797.846 405.845 665.387C372.168 619.276 338.881 580.302 307.575 550.93C248.985 495.894 197.231 474.28 162.748 502.099C121.329 535.525 107.262 635.493 99.9335 743.096C85.001 960.769 94.8911 1220.19 130.037 1514.45C140.522 1602.26 153.249 1693.13 168.271 1786.95M1926.5 1851.86C1813.05 1518.82 1669.99 1219.94 1504.63 937.882C1489.95 912.853 1475.29 887.964 1460.64 864.001C1412.35 785.087 1362.75 711.432 1321.88 680.17C1203.36 589.236 1190.81 822.249 1164.75 968.053C1142.09 1094.89 1123.1 1232.05 1098.05 1361.22C1089.45 1405.53 1080.44 1449.03 1070.42 1490.49C1048.68 1580.42 1015.8 1662.52 942.484 1597.46C868.231 1531.55 782.161 1345.18 703.299 1184.4C611.395 997.074 514.021 819.126 419.5 692.781C386.586 648.809 354.029 611.669 323.361 583.735C265.974 531.39 215.059 510.993 180.692 537.947C139.418 570.323 124.366 666.37 115.647 769.105C97.8568 976.905 103.486 1222.38 133.902 1503.43C142.977 1587.29 154.248 1674.26 167.814 1764.4M1923.18 1833.61C1813.77 1512.46 1675.63 1233.42 1508.2 950.858C1493.68 926.362 1479.17 901.813 1464.68 878.257C1416.84 800.56 1367.79 727.895 1327.22 696.189C1209.4 603.784 1193.83 823.593 1166.11 964.347C1142.24 1085.55 1122.53 1219.01 1096.76 1345.94C1087.98 1389.22 1078.88 1431.89 1068.79 1472.6C1046.93 1560.89 1014.42 1641.88 942.925 1581C870.535 1519.36 786.772 1341.6 709.918 1188.42C620.352 1009.97 525.45 840.393 433.132 720.177C400.979 678.329 369.16 643.037 339.126 616.544C282.95 566.903 232.871 547.725 198.608 573.782C157.47 605.094 141.438 697.237 131.334 795.101C110.684 993.011 112.053 1224.56 137.73 1492.37C145.389 1572.29 155.207 1655.37 167.312 1741.81M1919.85 1815.34C1814.49 1506.09 1681.27 1246.86 1511.78 963.822C1497.41 939.841 1483.05 915.666 1468.73 892.501C1421.34 816.004 1372.84 744.345 1332.57 712.211C1215.44 618.336 1196.88 824.952 1167.48 960.645C1142.43 1076.26 1121.98 1205.99 1095.5 1330.67C1086.53 1372.92 1077.33 1414.77 1067.19 1454.73C1045.19 1541.37 1013.04 1621.24 943.382 1564.56C872.85 1507.16 791.402 1338.04 716.553 1192.46C629.323 1022.87 536.901 861.693 446.785 747.608C415.4 707.898 384.308 674.441 354.912 649.387C299.942 602.435 250.695 584.476 216.556 609.667C175.562 639.929 158.55 728.167 147.056 821.161C123.553 1009.2 120.656 1226.8 141.604 1481.4C147.852 1557.37 156.211 1636.56 166.854 1719.29M1916.52 1797.07C1815.22 1499.71 1686.93 1260.24 1515.35 976.763C1501.15 953.297 1486.94 929.48 1472.78 906.723C1425.83 831.442 1377.89 760.773 1337.91 728.195C1221.48 632.851 1199.93 826.285 1168.83 956.89C1142.63 1066.95 1121.41 1192.91 1094.21 1315.34C1085.05 1356.55 1075.76 1397.59 1065.55 1436.77C1043.42 1521.78 1011.63 1600.51 943.81 1548.03C875.135 1494.89 796 1334.4 723.158 1196.42C638.267 1035.69 548.323 882.91 460.404 774.939C429.786 737.368 399.426 705.743 370.669 682.145C316.901 637.883 268.493 621.142 234.465 645.452C193.615 674.665 175.614 758.983 162.735 847.107C136.372 1025.25 129.215 1228.93 145.428 1470.3C150.261 1542.32 157.165 1617.61 166.352 1696.64M1913.19 1778.81C1815.94 1493.35 1692.6 1273.62 1518.93 989.742C1504.88 966.774 1490.82 943.333 1476.82 920.981C1430.32 846.902 1382.94 777.239 1343.25 744.233C1227.52 647.402 1203.02 827.716 1170.2 953.201C1142.87 1057.73 1120.87 1179.92 1092.94 1300.08C1083.6 1340.28 1074.21 1380.47 1063.95 1418.91C1041.68 1502.27 1010.26 1579.89 944.267 1531.61C877.455 1482.72 800.621 1330.84 729.797 1200.48C647.248 1048.62 559.778 904.224 474.067 802.382C444.21 766.934 414.582 737.159 386.463 715.001C333.901 673.427 286.335 657.92 252.417 681.35C211.706 709.497 192.725 789.91 178.452 873.167C149.236 1041.44 137.814 1231.18 149.293 1459.33C152.715 1527.41 158.16 1598.8 165.885 1674.13M1909.86 1760.54C1816.66 1486.97 1698.28 1286.93 1522.51 1002.7C1508.61 980.229 1494.71 957.179 1480.87 935.22C1434.82 862.356 1387.99 793.699 1348.6 760.249C1233.57 661.948 1206.13 829.137 1171.56 949.478C1143.12 1048.52 1120.32 1166.89 1091.66 1284.78C1082.14 1323.94 1072.66 1363.32 1062.33 1401C1039.93 1482.73 1008.87 1559.21 944.717 1515.15C879.763 1470.51 805.24 1327.26 736.425 1204.5C656.214 1061.51 571.217 925.506 487.707 829.777C458.618 796.467 429.722 768.525 402.236 747.807C350.886 708.938 304.15 694.634 270.347 717.2C229.781 744.297 209.815 820.789 194.158 899.192C162.082 1057.58 146.4 1233.38 153.145 1448.31C155.151 1512.44 159.137 1579.92 165.411 1651.58M1906.53 1742.27C1817.38 1480.6 1703.95 1300.18 1526.08 1015.66C1512.35 993.687 1498.59 971.013 1484.92 949.46C1439.31 877.798 1393.04 810.146 1353.95 776.251C1239.6 676.481 1209.25 830.59 1172.93 945.756C1143.4 1039.36 1119.79 1153.89 1090.39 1269.5C1080.69 1307.65 1071.11 1346.18 1060.71 1383.11C1038.18 1463.19 1007.48 1538.55 945.168 1498.69C882.07 1458.3 809.86 1323.68 743.053 1208.52C665.18 1074.41 582.661 946.788 501.354 857.188C473.032 826.018 444.863 799.91 418.015 780.631C367.867 744.452 321.973 731.382 288.283 753.049C247.856 779.081 226.906 851.669 209.863 925.202C174.933 1073.71 154.986 1235.58 157.001 1437.28C157.597 1497.47 160.123 1561.05 164.941 1629.01M1903.21 1724.02C1818.12 1474.24 1709.65 1313.42 1529.66 1028.62C1516.08 1007.13 1502.48 984.848 1488.96 963.688C1443.79 893.241 1398.08 826.58 1359.28 792.257C1245.64 691.018 1212.4 832.074 1174.28 942.022C1143.7 1030.23 1119.25 1140.88 1089.1 1254.18C1079.22 1291.32 1069.53 1329.02 1059.08 1365.19C1036.42 1443.63 1006.08 1517.86 945.6 1482.2C884.359 1446.06 814.461 1320.08 749.662 1212.51C674.132 1087.27 594.086 968.043 514.977 884.558C487.416 855.51 459.974 831.236 433.77 813.412C384.829 779.921 339.77 768.071 306.195 788.873C265.909 813.856 243.978 882.523 225.545 951.186C187.756 1089.81 163.544 1237.73 160.825 1426.22C160.01 1482.46 161.078 1542.15 164.434 1606.4M1899.87 1705.74C1818.84 1467.86 1715.33 1326.56 1533.24 1041.58C1519.81 1020.57 1506.36 998.697 1493 977.926C1448.28 908.681 1403.13 843.025 1364.62 808.258C1251.68 705.548 1215.58 833.613 1175.64 938.299C1144.03 1021.15 1118.72 1127.88 1087.83 1238.9C1077.78 1275.03 1067.99 1311.88 1057.47 1347.29C1034.68 1424.09 1004.7 1497.21 946.058 1465.74C886.681 1433.86 819.087 1316.48 756.303 1216.55C683.106 1100.16 605.544 989.336 528.636 911.964C501.842 885.055 475.132 862.614 449.567 846.246C401.832 815.444 357.608 804.812 324.144 824.734C284.002 848.668 261.082 913.415 241.269 977.224C200.626 1105.97 172.148 1239.95 164.695 1415.21C162.464 1467.5 162.078 1523.29 163.977 1583.85M1896.55 1687.49C1819.56 1461.5 1721.02 1339.66 1536.82 1054.56C1523.55 1034.03 1510.25 1012.5 1497.05 992.185C1452.77 924.002 1408.19 859.506 1369.98 824.295C1257.73 720.099 1218.8 835.217 1177.02 934.61C1144.41 1012.17 1118.21 1114.95 1086.56 1223.63C1076.34 1258.76 1066.44 1294.74 1055.86 1329.4C1032.93 1404.57 1003.32 1476.56 946.505 1449.28C888.985 1421.65 823.704 1312.9 762.932 1220.57C692.073 1113.06 616.988 1010.62 542.283 939.378C516.257 914.608 490.274 894.001 465.347 879.072C418.819 850.976 375.431 841.563 342.085 860.602C302.083 883.469 278.183 944.311 256.98 1003.25C213.478 1122.11 180.741 1242.16 168.557 1404.2C164.916 1452.55 163.07 1504.45 163.514 1561.31M1893.22 1669.22C1820.28 1455.12 1726.71 1352.66 1540.39 1067.52C1527.28 1047.45 1514.14 1026.35 1501.1 1006.42C1457.26 939.441 1413.23 875.953 1375.31 840.297C1263.76 734.632 1222.04 836.863 1178.37 930.872C1144.79 1003.19 1117.68 1101.97 1085.28 1208.33C1074.89 1242.45 1064.88 1277.59 1054.24 1311.5C1031.18 1385.01 1001.93 1455.88 946.949 1432.81C891.287 1409.42 828.317 1309.3 769.554 1224.58C701.037 1125.93 628.426 1031.88 555.919 966.757C530.65 944.111 505.408 925.352 481.111 911.865C435.789 886.457 393.237 878.262 360.001 896.421C320.143 918.239 295.258 975.16 272.665 1029.23C226.31 1138.22 189.307 1244.32 172.384 1393.14C167.327 1437.54 164.028 1485.54 163.01 1538.7M1889.88 1650.95C1821 1448.75 1732.39 1365.6 1543.97 1080.48C1531.01 1060.87 1518.02 1040.18 1505.15 1020.66C1461.75 954.881 1418.28 892.399 1380.66 856.315C1269.81 749.18 1225.3 838.569 1179.73 927.166C1145.21 994.296 1117.18 1089.03 1084 1193.04C1073.44 1226.17 1063.32 1260.45 1052.62 1293.6C1029.43 1365.48 1000.54 1435.22 947.395 1416.35C893.595 1397.22 832.933 1305.73 776.177 1228.6C709.999 1138.83 639.861 1053.17 569.561 994.169C545.059 973.662 520.545 956.736 496.886 944.689C452.77 921.97 411.054 914.994 377.933 932.288C338.22 953.056 312.345 1006.06 288.368 1055.28C239.154 1154.37 197.891 1246.55 176.239 1382.15C169.771 1422.61 165.012 1466.71 162.537 1516.17M1886.56 1632.69C1821.73 1442.39 1738.07 1378.46 1547.55 1093.44C1534.75 1074.29 1521.9 1054.01 1509.2 1034.9C1466.25 970.32 1423.33 908.845 1386 872.317C1275.85 763.711 1228.61 840.335 1181.09 923.428C1145.64 985.418 1116.67 1076.08 1082.72 1177.74C1071.99 1209.88 1061.77 1243.3 1051 1275.69C1027.68 1345.93 999.147 1414.54 947.84 1399.87C895.898 1385 837.541 1302.12 782.8 1232.61C718.964 1151.7 651.3 1074.43 583.201 1021.55C559.466 1003.18 535.683 988.087 512.663 977.495C469.75 957.466 428.875 951.725 395.873 968.136C356.299 987.839 329.444 1036.94 304.077 1081.28C252.009 1170.5 206.48 1248.74 180.094 1371.11C172.205 1407.6 165.992 1447.81 162.061 1493.59M1883.23 1614.42C1822.45 1436.01 1743.74 1391.22 1551.12 1106.4C1538.47 1087.7 1525.78 1067.85 1513.24 1049.15C1470.73 985.781 1428.41 925.477 1391.34 888.338C1281.99 778.778 1231.95 842.199 1182.45 919.725C1146.11 976.655 1116.17 1063.18 1081.45 1162.46C1070.55 1193.61 1060.21 1226.17 1049.38 1257.8C1025.93 1326.4 997.761 1393.88 948.287 1383.42C898.197 1372.79 842.157 1298.54 789.428 1236.63C727.93 1164.6 662.744 1095.72 596.848 1048.96C573.875 1032.72 550.825 1019.47 528.443 1010.32C486.741 992.995 446.696 988.456 413.804 1003.99C374.37 1022.64 346.53 1067.82 319.778 1107.3C264.851 1186.63 215.062 1250.94 183.942 1360.09C174.642 1392.64 166.971 1428.95 161.584 1471.04M1879.91 1596.17C1823.18 1429.65 1749.41 1403.92 1554.71 1119.38C1542.21 1101.12 1529.68 1081.71 1517.29 1063.4C1475.23 1001.24 1433.47 941.939 1396.7 904.372C1288.04 793.325 1235.33 844.137 1183.83 916.033C1146.64 967.963 1115.7 1050.3 1080.19 1147.2C1069.14 1177.38 1058.68 1209.06 1047.79 1239.94C1024.2 1306.89 996.39 1373.26 948.758 1367C900.532 1360.64 846.802 1295.01 796.077 1240.7C736.917 1177.54 674.209 1117.05 610.511 1076.4C588.304 1062.3 565.981 1050.89 544.237 1043.18C503.742 1028.54 464.538 1025.24 431.756 1039.89C392.462 1057.47 363.647 1098.76 335.506 1133.37C277.724 1202.83 223.666 1253.2 187.815 1349.11C177.1 1377.72 167.978 1410.13 161.13 1448.52M1876.57 1577.9C1823.9 1423.26 1755.06 1416.51 1558.28 1132.34C1545.94 1114.53 1533.56 1095.55 1521.33 1077.65C1479.72 1016.7 1438.51 958.389 1402.03 920.379C1294.07 807.863 1238.73 846.158 1185.18 912.3C1147.15 959.293 1115.2 1037.4 1078.9 1131.89C1067.69 1161.09 1057.1 1191.88 1046.16 1222.02C1022.43 1287.34 994.994 1352.58 949.19 1350.52C902.82 1348.4 851.403 1291.4 802.686 1244.69C745.863 1190.39 685.629 1138.28 624.133 1103.77C602.694 1091.8 581.102 1082.23 559.992 1075.96C520.698 1064.01 482.33 1061.92 449.663 1075.69C410.513 1092.23 380.714 1129.6 351.182 1159.34C290.541 1218.91 232.218 1255.33 191.643 1338.05C179.517 1362.71 168.937 1391.22 160.627 1425.91M1873.25 1559.62C1824.62 1416.88 1760.7 1428.98 1561.85 1145.28C1549.67 1127.9 1537.44 1109.38 1525.38 1091.87C1484.21 1032.12 1443.56 974.817 1407.38 936.378C1300.11 822.376 1242.18 848.249 1186.55 908.576C1147.7 950.694 1114.74 1024.54 1077.63 1116.6C1066.26 1144.83 1055.55 1174.74 1044.54 1204.11C1020.68 1267.78 993.606 1331.9 949.638 1334.04C905.126 1336.17 856.015 1287.79 809.312 1248.7C754.828 1203.27 697.071 1159.55 637.782 1131.16C617.104 1121.32 596.246 1113.59 575.779 1108.78C537.692 1099.52 500.159 1098.65 467.612 1111.55C428.606 1127.04 397.818 1160.49 366.901 1185.36C303.406 1235.05 240.817 1257.54 195.503 1327.02C181.966 1347.74 169.927 1372.35 160.156 1403.34M1869.92 1541.37C1825.34 1410.53 1766.33 1441.37 1565.43 1158.26C1553.4 1141.3 1541.33 1123.23 1529.43 1106.13C1488.7 1047.59 1448.6 991.282 1412.72 952.398C1306.15 836.911 1245.67 850.469 1187.91 904.855C1148.27 942.162 1114.26 1011.68 1076.35 1101.3C1064.82 1128.56 1053.99 1157.59 1042.92 1186.2C1018.93 1248.24 992.21 1311.23 950.083 1317.56C907.434 1323.96 860.629 1284.19 815.934 1252.7C763.788 1216.14 708.505 1180.81 651.418 1158.54C631.507 1150.84 611.38 1144.94 591.548 1141.57C554.672 1135.01 517.975 1135.37 485.532 1147.37C446.666 1161.8 414.897 1191.34 382.596 1211.35C316.242 1251.16 249.394 1259.72 199.344 1315.97C184.392 1332.74 170.898 1353.46 159.67 1380.75M1866.59 1523.1C1826.06 1404.15 1771.94 1453.64 1569 1171.22C1557.12 1154.67 1545.21 1137.06 1533.47 1120.37C1493.19 1063.05 1453.63 1007.58 1418.06 968.417C1312.1 850.976 1249.19 852.802 1189.27 901.15C1148.88 933.725 1113.8 998.858 1075.07 1086.03C1063.39 1112.34 1052.44 1140.47 1041.31 1168.33C1017.18 1228.71 990.829 1290.59 950.535 1301.12C909.743 1311.76 865.25 1280.63 822.567 1256.74C772.764 1229.05 719.954 1202.11 665.07 1185.97C645.927 1180.4 626.527 1176.34 607.332 1174.41C571.658 1170.54 535.801 1172.11 503.474 1183.25C464.748 1196.63 431.994 1222.25 398.303 1237.4C329.096 1267.33 257.982 1261.94 203.203 1304.98C186.84 1317.8 171.882 1334.61 159.203 1358.23M1863.26 1504.84C1826.79 1397.79 1777.54 1465.81 1572.59 1184.19C1560.86 1168.08 1549.1 1150.93 1537.53 1134.62C1497.69 1078.53 1458.68 1024.04 1423.41 984.436C1318.14 865.509 1252.76 855.245 1190.64 897.444C1149.52 925.366 1113.36 986.062 1073.81 1070.75C1061.97 1096.09 1050.89 1123.34 1039.69 1150.44C1015.44 1209.19 989.443 1269.93 950.986 1284.66C912.051 1299.55 869.87 1277.05 829.196 1260.76C781.73 1241.95 731.399 1223.39 678.712 1213.37C660.326 1209.92 641.662 1207.7 623.106 1207.22C588.638 1206.04 553.613 1208.83 521.41 1219.11C482.829 1231.43 449.089 1253.13 414.009 1263.41C341.942 1283.45 266.568 1264.14 207.05 1293.94C189.272 1302.82 172.859 1315.73 158.723 1335.65M1859.93 1486.57C1827.51 1391.41 1783.11 1477.83 1576.16 1197.14C1564.58 1181.43 1552.98 1164.75 1541.57 1148.85C1502.18 1093.97 1463.72 1040.47 1428.75 1000.44C1324.18 880.042 1256.36 857.802 1191.99 893.707C1150.16 917.043 1112.91 973.235 1072.52 1055.45C1060.53 1079.84 1049.33 1106.17 1038.07 1132.53C1013.68 1189.63 988.052 1249.25 951.427 1268.19C914.355 1287.34 874.479 1273.44 835.814 1264.77C790.687 1254.83 742.833 1244.66 692.353 1240.76C674.734 1239.46 656.798 1239.07 638.885 1240.04C605.619 1241.56 571.44 1245.58 539.341 1254.96C500.899 1266.22 466.18 1284.01 429.709 1289.42C354.789 1299.59 275.15 1266.33 210.902 1282.92C191.713 1287.86 173.842 1296.87 158.245 1313.08M1856.6 1468.3C1828.24 1385.04 1788.66 1489.73 1579.74 1210.1C1568.3 1194.79 1556.87 1178.63 1545.61 1163.09C1506.69 1109.56 1468.77 1056.92 1434.1 1016.46C1330.22 894.593 1260.01 860.502 1193.36 890.003C1150.83 908.814 1112.48 960.489 1071.25 1040.17C1059.12 1063.61 1047.77 1089.03 1036.46 1114.64C1011.94 1170.11 986.665 1228.59 951.877 1251.73C916.663 1275.13 879.099 1269.86 842.442 1268.79C799.652 1267.7 754.277 1265.94 705.995 1268.16C689.143 1269 671.933 1270.44 654.659 1272.85C622.605 1277.07 589.255 1282.29 557.272 1290.81C518.975 1301.02 483.267 1314.89 445.416 1315.45C367.636 1315.73 283.737 1268.54 214.754 1271.9C194.15 1272.89 174.824 1278.01 157.766 1290.52M1853.28 1450.05C1828.96 1378.68 1794.19 1501.51 1583.32 1223.08C1572.03 1208.18 1560.76 1192.5 1549.66 1177.33C1511.18 1125.02 1473.82 1073.38 1439.44 1032.46C1336.27 909.123 1263.69 863.33 1194.72 886.263C1151.52 900.634 1112.04 947.707 1069.97 1024.86C1057.69 1047.37 1046.21 1071.88 1034.83 1096.71C1010.18 1150.53 985.277 1207.91 952.316 1235.24C918.959 1262.88 883.707 1266.25 849.059 1272.78C808.607 1280.57 765.71 1287.19 719.625 1295.52C703.534 1298.48 687.062 1301.77 670.421 1305.62C639.574 1312.53 607.061 1318.99 575.186 1326.61C537.034 1335.77 500.34 1345.72 461.1 1341.41C380.467 1331.81 292.302 1270.69 218.586 1260.83C196.57 1257.87 175.786 1259.09 157.276 1267.92M1849.95 1431.77C1829.68 1372.3 1799.7 1513.15 1586.9 1236.03C1575.76 1221.53 1564.65 1206.33 1553.71 1191.57C1515.67 1140.46 1478.87 1089.83 1444.79 1048.48C1342.31 923.671 1267.41 866.306 1196.08 882.557C1152.22 892.552 1111.62 934.991 1068.7 1009.58C1056.28 1031.16 1044.66 1054.74 1033.22 1078.82C1008.43 1131 983.887 1187.26 952.768 1218.8C921.268 1250.69 888.328 1262.69 855.692 1276.82C817.582 1293.47 777.159 1308.49 733.277 1322.95C717.954 1328.05 702.208 1333.17 686.206 1338.46C656.56 1348.06 624.887 1355.74 593.132 1362.49C555.119 1370.58 517.441 1376.64 476.816 1367.45C393.323 1347.97 300.893 1272.9 222.447 1249.82C199.021 1242.92 176.778 1240.24 156.806 1245.37M1846.62 1413.52C1830.41 1365.94 1805.18 1524.65 1590.47 1249.01C1579.48 1234.9 1568.53 1220.18 1557.76 1205.83C1520.17 1155.93 1483.92 1106.29 1450.13 1064.5C1348.35 938.205 1271.17 869.431 1197.45 878.853C1152.94 884.539 1111.22 922.29 1067.43 994.311C1054.87 1014.97 1043.12 1037.62 1031.61 1060.95C1006.69 1111.48 982.51 1166.61 953.224 1202.35C923.587 1238.51 892.948 1259.11 862.326 1280.86C826.555 1306.38 788.605 1329.79 746.924 1350.36C732.368 1357.6 717.354 1364.56 701.981 1371.29C673.542 1383.58 642.704 1392.47 611.06 1398.34C573.187 1405.39 534.528 1407.52 492.518 1393.48C406.172 1364.12 309.476 1275.11 226.296 1238.81C201.454 1227.96 177.756 1221.38 156.324 1222.81M1843.29 1395.25C1831.14 1359.56 1810.62 1535.99 1594.05 1261.96C1583.2 1248.23 1572.42 1234.01 1561.8 1220.05C1524.65 1171.36 1488.96 1122.72 1455.47 1080.5C1354.39 952.738 1274.95 872.686 1198.81 875.115C1153.67 876.558 1110.81 909.588 1066.14 978.994C1053.45 998.724 1041.55 1020.44 1029.98 1043.02C1004.94 1091.92 981.113 1145.92 953.668 1185.86C925.888 1226.26 897.561 1255.5 868.947 1284.85C835.514 1319.25 800.042 1351.04 760.569 1377.74C746.774 1387.1 732.493 1395.91 717.763 1404.09C690.535 1419.09 660.53 1429.2 629 1434.19C591.265 1440.17 551.627 1438.4 508.223 1419.49C419.023 1380.26 318.062 1277.3 230.148 1227.78C203.895 1212.99 178.734 1202.5 155.849 1200.24M1839.96 1376.98C1831.85 1353.19 1816.03 1547.17 1597.62 1274.92C1586.92 1261.56 1576.3 1247.85 1565.85 1234.29C1529.15 1186.81 1494.02 1139.18 1460.81 1096.5C1360.43 967.271 1278.77 876.09 1200.17 871.393C1154.41 868.661 1110.42 896.936 1064.87 963.708C1052.04 982.528 1040 1003.3 1028.37 1025.13C1003.19 1072.38 979.731 1125.26 954.118 1169.4C928.196 1214.05 902.181 1251.92 875.574 1288.87C844.484 1332.14 811.485 1372.32 774.21 1405.14C761.182 1416.63 747.633 1427.27 733.537 1436.9C707.511 1454.58 678.345 1465.92 646.935 1470.04C609.345 1474.97 568.718 1469.28 523.928 1445.5C431.869 1396.38 326.648 1279.5 233.999 1216.74C206.331 1198 179.714 1183.62 155.374 1177.67M1836.63 1358.72C1832.58 1346.83 1821.41 1558.21 1601.2 1287.89C1590.63 1274.92 1580.19 1261.71 1569.89 1248.55C1533.64 1202.27 1499.06 1155.65 1466.16 1112.54C1366.47 981.836 1282.62 879.678 1201.53 867.689C1155.14 860.834 1110.14 884.598 1063.59 948.426C1050.65 966.414 1038.44 986.169 1026.75 1007.24C1001.44 1052.86 978.336 1104.6 954.56 1152.95C930.5 1201.85 906.796 1248.34 882.194 1292.89C853.441 1345.03 822.921 1393.6 787.848 1432.55C775.588 1446.19 762.765 1458.66 749.308 1469.73C724.488 1490.1 696.158 1502.65 664.857 1505.89C627.412 1509.77 585.805 1500.17 539.626 1471.53C444.713 1412.53 335.226 1281.71 237.848 1205.74C208.769 1183.05 180.694 1164.78 154.896 1155.13M1833.3 1340.45C1833.3 1340.45 1826.76 1569.08 1604.78 1300.85C1382.81 1032.62 1229.44 716.247 1062.32 933.14C946.835 1083.03 891.129 1379.42 765.09 1502.53C713.232 1553.18 642.669 1559.06 555.335 1497.54C457.563 1428.65 343.816 1283.9 241.699 1194.7C211.204 1168.07 181.679 1145.9 154.416 1132.54" stroke="#FF0040" stroke-opacity="0.06" stroke-miterlimit="10"/>
</svg>
