<svg width="1440" height="21784" viewBox="0 0 1440 21784" fill="none" xmlns="http://www.w3.org/2000/svg">
<path d="M-9.58984 18892C0.440961 17837.2 57.1114 17208.4 111.805 17085.7C166.498 16961.6 222.217 17202.9 277.496 17202.9C425.615 17201.5 565.241 15282.2 613.711 12581.1C629.233 11715.2 636.043 10792.8 651.199 9924.15C666.355 9055.5 692.054 8210.29 733.788 7796.64C793.826 7202.37 869.021 7660.14 929.572 8324.73C990.123 8989.31 1046.87 9869 1114.01 10173.7C1202.23 10573.6 1293.83 9885.54 1361.34 8775.6C1428.77 7665.65 1476.43 6173.78 1523 4706.72" stroke="#FF0038" stroke-opacity="0.25" stroke-miterlimit="10"/>
<path d="M-12.8867 18789.9C-1.90409 17740.7 54.6199 17113.3 109.387 16986.5C133.036 16931.3 156.978 16945.1 180.92 16982.3C212.33 17030.6 243.814 17116.1 275.078 17128.5C338.85 17154.7 401.012 16847.2 455.632 16250.2C497.806 15789.6 535.366 15181.6 565.312 14452.2C586.765 13933.8 603.825 13349.1 615.759 12714.9C621.104 12430.8 625.497 12139.9 629.524 11846.2C637.724 11249.2 644.46 10642.5 655.077 10064.8C667.158 9409.87 685.389 8775.61 712.48 8344.04C720.9 8208.92 730.052 8093.1 740.083 8002.1C782.183 7621.54 830.872 7752.53 877.439 8076.55C897.573 8217.19 917.342 8392.3 935.72 8581.2C956.294 8792.16 976.429 9019.66 996.49 9236.14C1035.88 9663.57 1074.76 10056.5 1116.86 10199.9C1144.24 10292.3 1171.26 10268.9 1197.99 10155.8C1252.31 9926.92 1305.69 9316.11 1350.2 8537.08C1362.43 8323.36 1374.07 8098.61 1385.35 7864.22C1435.43 6823.21 1477.31 5619.51 1518.6 4484.74" stroke="#FF0038" stroke-opacity="0.25" stroke-miterlimit="10"/>
<path d="M-16.1797 18686.5C-4.17201 17642.8 52.1323 17015.4 106.972 16884.4C130.695 16827.9 154.637 16841.7 178.652 16880.3C210.063 16931.3 241.546 17025 272.737 17051.2C336.363 17105 398.451 16847.2 453.584 16275C496.197 15833.8 534.343 15254.7 565.461 14552.8C587.719 14050.9 605.437 13476 617.884 12845.9C623.449 12564.6 627.988 12273.7 632.235 11980C640.801 11384.3 647.904 10776.3 658.959 10204.1C671.553 9553.25 690.443 8934.17 718.412 8523.28C727.052 8396.43 736.277 8287.5 746.381 8204.77C788.701 7858.69 836.732 8021.39 883.225 8346.79C903.433 8487.43 923.348 8657.03 941.945 8833.51C962.739 9030.68 983.094 9237.51 1003.08 9427.78C1042.33 9805.58 1080.18 10137.9 1119.86 10220.6C1145.56 10274.4 1170.09 10212.3 1194.77 10068.9C1244.77 9775.24 1295.51 9109.28 1339.3 8294.4C1351.3 8071.03 1362.95 7836.63 1374.3 7596.72C1424.89 6524 1469.92 5331.33 1514.36 4257.23" stroke="#FF0038" stroke-opacity="0.25" stroke-miterlimit="10"/>
<path d="M-19.4766 18583.1C-6.44384 17544.9 49.6408 16917.5 104.554 16783.8C128.276 16725.8 152.365 16738.3 176.38 16779.6C207.864 16834.8 239.201 16936.8 270.392 16975.4C333.945 17056.8 395.813 16848.6 451.532 16301.2C494.584 15879.2 533.389 15329.1 565.605 14654.9C588.742 14169.5 607.046 13604.2 620.005 12976.8C625.79 12696.9 630.549 12408.8 635.015 12113.7C643.948 11519.4 651.416 10910 662.911 10341.9C676.017 9695.27 695.493 9091.35 724.414 8701.14C733.273 8582.57 742.572 8480.53 752.676 8407.46C795.142 8095.85 842.587 8291.64 889.007 8617.04C909.288 8759.06 929.276 8921.76 948.093 9085.83C969.107 9269.22 989.608 9455.36 1009.6 9620.81C1048.69 9946.21 1085.6 10220.6 1122.79 10242.7C1146.88 10256.4 1168.92 10158.6 1191.4 9983.44C1237.08 9627.71 1285.19 8902.45 1328.17 8053.1C1339.95 7818.7 1351.52 7577.41 1362.94 7330.6C1413.98 6226.17 1462.15 5044.53 1509.89 4032.48" stroke="#FF0038" stroke-opacity="0.25" stroke-miterlimit="10"/>
<path d="M-22.7695 18479.7C-8.71176 17448.3 47.1532 16819.6 102.213 16683.1C126.009 16623.8 150.097 16634.8 174.186 16680.3C205.669 16738.2 237.006 16848.6 268.124 16900.9C331.53 17008.5 393.326 16851.3 449.484 16330.1C493.048 15927.5 532.512 15407.7 565.68 14759.6C589.768 14290.9 608.585 13735.2 621.984 13112C627.988 12834.8 632.967 12546.7 637.579 12251.6C646.878 11657.3 654.712 11049.3 666.72 10483.9C680.339 9842.8 700.4 9251.29 730.273 8884.52C739.352 8772.84 748.724 8680.46 758.901 8614.28C801.587 8337.13 848.3 8566.02 894.793 8891.42C915.074 9034.81 935.282 9190.62 954.245 9343.67C975.478 9514.64 996.199 9678.72 1016.04 9819.36C1054.99 10095.1 1090.94 10307.5 1125.57 10270.2C1148.05 10245.4 1167.6 10108.9 1187.96 9902.09C1229.4 9482.93 1274.72 8701.14 1317.04 7817.32C1328.68 7573.27 1340.18 7322.33 1351.67 7068.63C1403.14 5933.86 1454.47 4760.49 1505.43 3811.87" stroke="#FF0038" stroke-opacity="0.25" stroke-miterlimit="10"/>
<path d="M-26.0625 18376.3C-10.9797 17350.4 44.6657 16721.7 99.7985 16582.4C123.594 16521.8 147.756 16532.8 171.918 16579.7C203.401 16640.4 234.738 16758.9 265.783 16825.1C329.043 16960.2 390.692 16851.3 447.435 16356.3C491.439 15973 531.562 15483.5 565.828 14863.1C590.795 14410.8 610.198 13863.4 624.109 13244.3C630.333 12968.6 635.531 12681.8 640.29 12388.1C649.955 11795.2 658.156 11185.8 670.603 10626C684.734 9988.96 705.381 9412.61 736.206 9066.53C745.431 8963.12 754.949 8877.63 765.127 8819.72C807.959 8578.43 854.086 8837.65 900.506 9165.81C920.86 9309.2 941.215 9459.49 960.398 9600.13C981.85 9757.32 1002.72 9900.71 1022.56 10015.2C1061.36 10239.9 1096.51 10393 1128.51 10295.1C1149.45 10231.6 1166.36 10056.5 1184.66 9819.36C1221.86 9335.4 1264.47 8498.46 1306.06 7578.79C1317.48 7325.09 1328.97 7065.87 1340.54 6805.28C1392.45 5638.8 1447 4476.46 1501.18 3589.88" stroke="#FF0038" stroke-opacity="0.25" stroke-miterlimit="10"/>
<path d="M-29.4297 18274.3C-13.3218 17253.9 42.1039 16626.6 97.3099 16483.2C121.179 16421.1 145.414 16430.8 169.576 16480.4C201.132 16545.2 232.323 16672.1 263.367 16750.7C326.554 16912 388.057 16854.1 445.313 16383.9C489.756 16021.3 530.611 15560.7 565.902 14966.5C591.821 14530.8 611.736 13993 626.16 13378.1C632.53 13103.7 637.948 12818.3 643 12524.6C653.031 11933.1 661.671 11322.3 674.484 10766.6C689.127 10135.1 710.361 9571.18 742.137 9247.16C751.582 9150.64 761.173 9073.43 771.424 9023.79C814.403 8816.97 859.871 9109.28 906.291 9437.43C926.718 9582.21 947.219 9725.61 966.549 9853.84C988.221 9997.23 1009.23 10119.9 1029.08 10209.6C1067.74 10384.7 1102.15 10474.3 1131.43 10318.5C1150.91 10215.1 1165.19 10002.7 1181.3 9733.88C1214.17 9186.49 1254.15 8291.64 1295 7337.5C1306.2 7072.77 1317.7 6805.28 1329.34 6539.17C1381.77 5340.98 1439.39 4189.67 1496.79 3363.76" stroke="#FF0038" stroke-opacity="0.25" stroke-miterlimit="10"/>
<path d="M-32.7266 18170.8C-15.5937 17157.4 39.6124 16528.7 94.8916 16381.1C118.761 16317.7 143.069 16327.4 167.304 16379.8C198.861 16447.3 230.051 16582.4 261.022 16674.8C324.063 16863.7 385.492 16855.4 443.261 16410.1C488.143 16066.8 529.731 15636.6 566.047 15068.5C592.844 14649.3 613.345 14121.3 628.282 13510.4C634.871 13238.8 640.509 12953.4 645.707 12659.7C656.104 12068.2 665.11 11457.4 678.362 10905.9C693.518 10278.5 715.337 9728.36 748.065 9427.78C757.657 9339.53 767.395 9269.21 777.645 9227.85C820.844 9055.5 865.653 9380.9 912 9709.06C932.427 9853.83 953.148 9991.71 972.624 10107.5C994.442 10237.1 1015.75 10339.2 1035.52 10402.6C1074.03 10526.7 1107.71 10552.9 1134.21 10340.6C1152.3 10195.8 1163.79 9947.59 1177.85 9648.39C1206.48 9036.2 1243.75 8086.19 1283.87 7096.2C1294.93 6821.82 1306.28 6546.06 1318.06 6273.05C1370.93 5043.15 1431.77 3901.49 1492.4 3139.01" stroke="#FF0038" stroke-opacity="0.25" stroke-miterlimit="10"/>
<path d="M-36.0234 18067.4C-17.8655 17059.5 37.1209 16430.8 92.5466 16280.5C116.489 16215.7 140.87 16223.9 165.105 16279.1C196.662 16350.8 227.853 16494.2 258.677 16599C321.571 16815.5 382.854 16856.8 441.209 16437.7C486.53 16113.6 528.777 15713.8 566.191 15171.9C593.94 14769.3 614.954 14250.9 630.403 13642.8C637.212 13372.6 643.069 13088.5 648.487 12794.8C659.25 12204.7 668.622 11592.5 682.314 11045.1C697.982 10421.9 720.314 9885.54 754.067 9607.02C763.878 9525.67 773.689 9463.62 784.013 9431.91C827.358 9294.03 871.508 9651.14 917.855 9980.68C938.356 10126.8 959.223 10257.8 978.918 10362.6C1000.96 10479.8 1022.41 10559.8 1042.18 10598.4C1080.54 10672.8 1113.64 10632.9 1137.29 10365.4C1153.98 10177.8 1162.77 9895.19 1174.63 9565.66C1198.94 8888.66 1233.57 7883.5 1272.89 6857.67C1283.72 6573.63 1295.07 6288.22 1306.93 6009.69C1360.24 4748.08 1424.23 3617.45 1488.07 2917.02" stroke="#FF0038" stroke-opacity="0.25" stroke-miterlimit="10"/>
<path d="M-39.3164 17964C-20.1334 16961.6 34.6333 16332.9 90.1322 16179.8C114.074 16113.7 138.529 16120.6 162.837 16178.5C194.394 16252.9 225.511 16404.6 256.336 16524.5C319.157 16767.2 380.293 16859.6 439.16 16465.3C484.921 16160.5 527.9 15791 566.339 15276.7C595.04 14892 616.566 14381.9 632.528 13777.9C639.557 13510.5 645.561 13226.4 651.198 12932.7C662.401 12344 672.065 11730.4 686.196 11188.5C702.377 10570.8 725.295 10046.9 760 9791.79C769.957 9718.72 779.915 9664.94 790.238 9640.13C833.73 9536.71 877.294 9926.92 923.568 10256.5C944.142 10402.6 965.082 10528.1 984.997 10620.5C1007.26 10723.9 1028.85 10783.2 1048.55 10795.6C1086.77 10819 1119.13 10710.1 1140.07 10391.6C1155.3 10159.9 1161.38 9844.19 1171.19 9482.94C1191.25 8741.14 1223.1 7679.45 1261.76 6619.14C1272.45 6325.46 1283.72 6031.77 1295.66 5744.98C1349.4 4451.65 1416.61 3332.05 1483.68 2692.28" stroke="#FF0038" stroke-opacity="0.25" stroke-miterlimit="10"/>
<path d="M-42.6094 17860.6C-22.4745 16863.7 32.1458 16236.4 87.7179 16079.2C111.733 16011.6 136.188 16018.5 160.496 16077.8C192.126 16156.4 223.17 16315 253.922 16448.7C316.596 16718.9 377.586 16859.6 437.039 16491.4C483.312 16206 527.023 15868.2 566.414 15378.7C596.067 15010.6 618.106 14510.1 634.58 13908.9C641.828 13642.8 648.052 13360.2 653.836 13066.5C665.404 12477.7 675.435 11864.1 690.006 11326.4C706.699 10712.8 730.129 10201.3 765.859 9969.65C776.036 9903.47 786.067 9857.97 796.464 9841.42C840.175 9773.86 883.007 10194.4 929.281 10526.7C949.855 10674.2 971.015 10792.8 991.076 10872.8C1013.55 10962.4 1035.3 11002.4 1055 10988.6C1093 10962.4 1124.7 10780.4 1142.86 10413.6C1156.69 10135.1 1160.06 9789.03 1167.68 9397.44C1183.42 8590.84 1212.63 7474 1250.56 6377.84C1261.03 6073.12 1272.23 5772.54 1284.31 5478.85C1338.57 4153.81 1408.86 3045.25 1479.22 2467.52" stroke="#FF0038" stroke-opacity="0.25" stroke-miterlimit="10"/>
<path d="M-45.9062 17758.6C-24.7464 16768.6 29.6543 16139.8 85.2996 15979.9C109.315 15911 133.916 15916.5 158.224 15979.9C189.854 16061.3 220.898 16229.5 251.577 16375.6C314.178 16673.4 375.021 16863.7 434.987 16520.4C481.699 16255.7 526.142 15946.8 566.559 15483.5C597.09 15133.3 619.715 14641.1 636.701 14044C644.169 13780.7 650.612 13498 656.616 13204.3C668.551 12617 678.947 12003.4 694.03 11468.4C711.236 10860.4 735.179 10361.2 772.007 10151.7C782.331 10092.4 792.508 10055.1 802.978 10046.9C846.835 10013.8 889.082 10467.4 935.282 10799.7C955.929 10948.6 977.236 11060.3 997.517 11129.2C1020.21 11205.1 1042.18 11224.4 1061.8 11185.8C1099.66 11109.9 1130.48 10854.8 1146.08 10441.2C1158.3 10115.8 1159.11 9739.39 1164.67 9316.09C1176.09 8444.68 1202.67 7272.69 1239.87 6142.06C1250.12 5827.69 1261.32 5517.46 1273.4 5218.26C1328.09 3862.88 1401.53 2762.59 1475.11 2248.29" stroke="#FF0038" stroke-opacity="0.25" stroke-miterlimit="10"/>
<path d="M-49.1992 17655.2C-27.0143 16670.7 27.1667 16041.9 82.9585 15877.9C107.047 15807.5 131.648 15811.7 156.03 15877.9C187.66 15962 218.631 16138.5 249.309 16298.4C311.763 16622.4 372.534 16863.7 432.938 16546.6C480.09 16301.2 525.266 16024 566.634 15585.6C598.117 15251.9 621.254 14769.3 638.753 14176.4C646.441 13914.4 653.104 13633.2 659.254 13339.5C671.554 12753.5 682.317 12138.5 697.84 11609.1C715.485 11005.1 740.013 10518.4 777.866 10333.7C788.41 10282.6 798.66 10252.3 809.13 10252.3C853.134 10253.7 894.722 10740.4 940.922 11072.7C961.642 11221.6 983.095 11327.8 1003.52 11384.3C1026.44 11447.7 1048.55 11445 1068.17 11380.2C1105.88 11254.7 1135.75 10925.2 1148.86 10464.6C1159.48 10091 1157.72 9685.61 1161.16 9231.98C1168.26 8295.77 1192.2 7067.24 1228.67 5902.15C1238.77 5578.13 1249.9 5259.62 1262.05 4953.52C1317.19 3566.44 1393.85 2477.17 1470.65 2024.92" stroke="#FF0038" stroke-opacity="0.25" stroke-miterlimit="10"/>
<path d="M-52.5703 17551.8C-29.3604 16572.8 24.5278 15944.1 80.466 15777.2C104.555 15705.5 129.302 15709.7 153.684 15777.2C185.387 15865.5 216.284 16048.8 246.889 16222.6C309.198 16574.2 369.822 16865.1 430.812 16572.8C478.403 16346.7 524.311 16099.9 566.704 15689C599.139 15373.2 622.788 14898.9 640.8 14308.8C648.707 14048.2 655.517 13768.3 661.96 13474.6C674.626 12888.6 685.755 12273.7 701.717 11748.3C719.875 11149.9 744.915 10674.2 783.794 10512.9C794.483 10468.8 804.88 10448.1 815.424 10456.4C859.647 10492.2 900.576 11010.7 946.776 11344.3C967.496 11494.6 989.169 11593.9 1009.74 11638C1032.88 11687.7 1055.14 11665.6 1074.76 11574.6C1112.25 11399.5 1141.1 10996.9 1151.86 10488.1C1160.72 10067.6 1156.54 9631.85 1157.94 9146.5C1160.72 8145.49 1181.95 6861.81 1217.68 5660.86C1227.57 5325.81 1238.69 4999.03 1250.92 4687.42C1306.57 3268.62 1386.3 2190.39 1466.33 1798.8" stroke="#FF0038" stroke-opacity="0.25" stroke-miterlimit="10"/>
<path d="M-55.8633 17448.3C-31.6283 16476.3 22.0402 15846.2 78.0516 15676.6C102.213 15603.5 126.961 15606.3 151.416 15677.9C183.119 15769 213.943 15962 244.475 16148.1C306.71 16527.3 367.188 16867.9 428.69 16600.4C476.721 16393.6 523.434 16178.5 566.779 15792.4C600.166 15494.6 624.328 15028.5 642.852 14442.5C650.979 14184.7 658.008 13904.8 664.597 13612.5C677.63 13027.9 689.125 12411.5 705.526 11890.3C724.197 11296.1 749.749 10832.8 789.653 10694.9C800.562 10657.7 811.033 10645.3 821.576 10661.8C865.946 10732.1 906.215 11283.7 952.416 11617.3C973.209 11767.6 994.955 11861.4 1015.82 11893.1C1039.11 11929 1061.58 11886.2 1081.13 11769C1118.47 11545.6 1146.15 11068.6 1154.57 10511.5C1161.67 10044.1 1155.16 9578.08 1154.35 9062.4C1152.81 7997.95 1171.41 6657.75 1206.41 5420.95C1216.15 5076.25 1227.13 4741.19 1239.5 4421.31C1295.59 2970.8 1378.54 1902.22 1461.79 1574.06" stroke="#FF0038" stroke-opacity="0.25" stroke-miterlimit="10"/>
<path d="M-59.1562 17344.9C-33.8962 16378.4 19.5526 15749.6 75.6373 15575.9C99.799 15501.5 124.693 15504.2 149.148 15577.3C180.851 15672.4 211.675 15872.4 242.134 16072.3C304.222 16477.7 364.554 16867.9 426.642 16628C475.112 16441.8 522.557 16257.1 566.927 15895.8C601.339 15615.9 626.014 15158.1 644.977 14574.9C653.324 14318.4 660.572 14041.3 667.308 13747.6C680.707 13164.4 692.641 12546.7 709.408 12031C728.591 11440.9 754.73 10988.6 795.585 10876.9C806.641 10846.6 817.331 10842.4 827.874 10867.3C872.464 10972.1 912.075 11556.7 958.202 11891.7C979.069 12043.4 1000.96 12130.3 1021.97 12150.9C1045.48 12173 1068.17 12111 1087.65 11967.6C1124.84 11694.6 1151.28 11145.8 1157.5 10539.1C1162.77 10024.8 1153.91 9528.44 1151.06 8982.43C1145.13 7853.18 1161.16 6456.44 1195.43 5185.17C1204.94 4830.82 1215.93 4486.12 1228.37 4160.71C1284.9 2678.49 1371 1620.94 1457.47 1354.83" stroke="#FF0038" stroke-opacity="0.25" stroke-miterlimit="10"/>
<path d="M-62.4531 17242.9C-36.168 16281.9 17.0611 15653.1 73.2922 15476.6C97.5272 15400.8 122.421 15402.2 146.949 15478C178.725 15575.9 209.477 15785.5 239.862 15997.8C301.804 16430.8 362.062 16870.6 424.663 16655.5C473.646 16488.7 521.75 16335.6 567.145 15999.2C602.509 15737.2 627.695 15286.4 647.171 14708.6C655.738 14454.9 663.206 14177.8 670.162 13884.1C683.927 13300.9 696.227 12683.2 713.433 12171.6C733.129 11587 759.78 11144.4 801.66 11057.5C812.863 11034.1 823.699 11038.2 834.242 11071.3C878.978 11212 917.93 11826.9 964.057 12163.3C984.997 12315 1007.04 12396.4 1028.2 12404.6C1051.92 12414.3 1074.76 12330.2 1094.24 12160.6C1131.29 11837.9 1156.47 11218.9 1160.5 10561.2C1163.87 10002.7 1152.67 9473.28 1147.76 8895.56C1137.36 7701.5 1150.91 6249.61 1184.44 4942.5C1193.74 4578.49 1204.72 4225.52 1217.24 3893.22C1274.13 2379.28 1363.39 1331.38 1453.15 1127.32" stroke="#FF0038" stroke-opacity="0.25" stroke-miterlimit="10"/>
<path d="M-65.7461 17139.5C-38.4359 16184 14.5736 15555.2 70.8779 15374.6C95.1129 15297.4 120.08 15297.4 144.681 15376C176.458 15478 207.136 15694.5 237.521 15920.6C299.39 16381.1 359.428 16870.6 422.615 16680.3C472.037 16532.8 520.946 16412.9 567.293 16099.9C603.609 15855.8 629.308 15413.2 649.297 14839.6C658.009 14587.3 665.697 14311.5 672.873 14017.9C687.077 13436 699.67 12818.3 717.316 12309.5C737.524 11729 764.687 11298.8 807.593 11235.4C819.015 11218.9 829.924 11232.6 840.541 11272.6C885.423 11447.7 923.789 12095.8 969.843 12432.2C990.783 12585.3 1013.04 12659.7 1034.35 12655.6C1058.29 12651.4 1081.28 12548 1100.76 12352.2C1137.66 11980 1161.6 11290.6 1163.36 10581.8C1164.82 9977.93 1151.35 9416.75 1144.39 8808.69C1129.75 7551.22 1140.51 6042.79 1173.39 4699.83C1182.54 4324.79 1193.38 3963.54 1206.04 3625.73C1263.37 2082.84 1355.77 1045.97 1448.76 903.953" stroke="#FF0038" stroke-opacity="0.25" stroke-miterlimit="10"/>
<path d="M-69.043 17036.1C-40.7078 16087.4 12.0821 15457.3 68.4596 15273.9C92.7678 15195.4 117.808 15195.4 142.409 15276.7C174.186 15381.5 204.864 15606.2 235.176 15846.2C296.898 16332.9 356.864 16873.4 420.563 16707.9C470.424 16579.7 520.065 16491.4 567.437 16204.6C604.705 15978.5 630.917 15544.2 651.418 14973.4C660.35 14723.8 668.258 14448 675.653 14154.4C690.223 13573.9 703.183 12954.8 721.341 12451.5C742.061 11876.5 769.737 11454.6 813.668 11418.8C825.236 11409.1 836.292 11431.2 846.909 11480.8C892.011 11690.4 929.644 12371.5 975.698 12708C996.712 12862.4 1019.12 12930 1040.64 12913.4C1064.8 12895.5 1088.01 12772.8 1107.42 12550.8C1144.17 12130.3 1166.87 11370.5 1166.43 10609.4C1166.06 9961.38 1150.32 9367.11 1141.17 8727.34C1122.21 7405.06 1130.33 5840.1 1162.4 4464.05C1171.34 4079.36 1182.17 3709.84 1194.91 3363.75C1252.83 1787.77 1348.38 760.553 1444.58 680.582" stroke="#FF0038" stroke-opacity="0.25" stroke-miterlimit="10"/>
<path d="M-72.3359 16932.7C-43.0489 15989.6 9.59451 15360.8 66.0452 15173.3C90.3535 15093.3 115.467 15092 140.141 15176.1C171.918 15283.6 202.596 15518 232.835 15770.3C294.411 16284.6 354.303 16874.8 418.441 16735.5C468.742 16626.6 519.115 16570 567.512 16308.1C605.732 16099.9 632.456 15673.8 653.396 15107.1C662.549 14858.9 670.676 14584.6 678.217 14290.9C693.154 13710.4 706.479 13091.3 725.076 12592.2C746.31 12021.3 774.571 11610.4 819.454 11599.4C831.242 11596.7 842.371 11627 853.061 11684.9C898.309 11929 935.357 12641.8 981.338 12979.6C1002.42 13134 1024.98 13196.1 1046.65 13168.5C1071.03 13136.8 1094.46 12994.8 1113.72 12745.2C1150.4 12276.4 1171.78 11447.7 1169.14 10632.9C1166.87 9942.08 1148.86 9313.34 1137.66 8643.24C1114.37 7256.15 1119.87 5636.05 1151.2 4224.14C1159.92 3829.8 1170.75 3452.01 1183.49 3099.03C1241.85 1491.33 1340.62 475.147 1440.05 455.844" stroke="#FF0038" stroke-opacity="0.25" stroke-miterlimit="10"/>
<path d="M-75.7031 16830.6C-45.3911 15893 7.03271 15264.3 63.6299 15074C88.0113 14992.7 113.198 14989.9 137.872 15076.8C169.722 15188.5 200.254 15429.8 230.419 15695.9C291.922 16237.7 351.595 16876.1 416.319 16763.1C467.059 16674.8 518.238 16651.4 567.513 16411.5C606.684 16224 633.921 15803.4 655.374 15239.5C664.746 14992.7 673.02 14719.7 680.781 14426C696.083 13846.9 709.775 13226.4 728.811 12731.4C750.557 12164.7 779.331 11764.9 825.239 11778.7C837.173 11782.8 848.449 11821.4 859.139 11887.6C904.533 12166.1 940.923 12912 986.903 13251.2C1007.99 13407 1030.69 13462.2 1052.58 13422.2C1077.18 13378.1 1100.76 13214 1120.01 12939.6C1156.55 12421.2 1176.68 11525 1171.78 10656.3C1167.6 9921.4 1147.32 9260.95 1134 8559.13C1106.39 7108.62 1109.25 5431.98 1139.85 3984.22C1148.42 3580.23 1159.11 3192.79 1172 2834.29C1230.79 1194.88 1332.71 189.728 1435.36 232.471" stroke="#FF0038" stroke-opacity="0.25" stroke-miterlimit="10"/>
<path d="M-79 16727.2C-34.1176 15393.9 53.3773 14679.7 135.601 14976.1C232.394 15325 317.034 16920.3 414.267 16789.3C465.446 16720.3 517.357 16728.6 567.657 16513.5C625.28 16268.1 657.422 15526.3 683.561 14561.1C717.168 13321.5 743.379 11884.8 831.241 11959.3C894.793 12013.1 936.015 13103.7 992.758 13522.9C1037.71 13855.1 1090.28 13702.1 1126.67 13134C1163.06 12566 1182.03 11602.2 1174.85 10679.7C1168.85 9902.09 1146.3 9207.17 1130.85 8473.64C1089.99 6535.03 1101.71 4239.3 1161.01 2568.18C1220.32 897.057 1325.31 -98.4467 1431.26 7.72199" stroke="#FF0038" stroke-opacity="0.25" stroke-miterlimit="10"/>
<path d="M-73.8008 16917.5C-28.2595 15689 58.723 15024.4 140.361 15296C181.216 15431.1 219.948 15774.5 258.168 16106.8C297.339 16448.7 335.925 16781 376.194 16877.5C389.154 16909.2 402.333 16916.1 415.659 16889.9C465.813 16792 516.406 16768.6 566.487 16546.6C623.23 16295.6 656.032 15584.2 683.049 14672.8C689.273 14463.2 695.276 14249.5 701.427 14038.5C719.438 13418.1 738.621 12830.7 769.007 12503.9C785.993 12321.9 806.421 12218.5 831.827 12235C894.575 12275 935.576 13271.9 990.563 13630.4C997.885 13677.3 1005.35 13711.8 1012.89 13733.8C1050.45 13841.4 1090.21 13637.3 1119.21 13157.5C1154.06 12581.1 1172.07 11627 1165.55 10714.2C1160.06 9940.69 1138.9 9241.64 1124.7 8508.11C1100.17 7242.36 1097.39 5831.83 1115.03 4549.53C1124.55 3864.26 1139.85 3217.6 1160.79 2646.77C1198.94 1604.39 1255.1 833.628 1318.14 426.878C1354.38 192.48 1392.89 82.1744 1431.48 113.887" stroke="#FF0038" stroke-opacity="0.25" stroke-miterlimit="10"/>
<path d="M-68.6016 17109.2C-22.4013 15984 64.0686 15370.5 145.12 15618.7C185.829 15742.8 224.415 16054.4 262.269 16349.4C301.074 16652.8 338.854 16940.9 378.465 17007.1C391.205 17029.2 404.091 17026.4 417.124 16993.3C466.179 16867.9 515.601 16812.7 565.389 16581.1C621.327 16324.6 654.641 15640.7 682.611 14784.5C689.054 14587.3 695.35 14387.4 701.647 14190.2C720.244 13611.1 739.647 13067.9 770.032 12767.3C787.092 12599.1 807.373 12501.2 832.34 12512.2C894.282 12538.4 935.138 13442.9 988.367 13740.7C995.469 13779.3 1002.64 13806.9 1009.97 13822.1C1046.14 13895.1 1084.14 13670.4 1111.81 13185.1C1145.05 12600.4 1162.26 11655.9 1156.25 10751.4C1151.2 9982.07 1131.58 9280.25 1118.62 8545.34C1096.22 7279.59 1094.97 5874.58 1113.57 4607.45C1123.67 3927.69 1139.49 3289.3 1160.72 2728.13C1199.45 1703.67 1255.68 949.456 1318.8 544.084C1354.97 311.065 1393.33 198.002 1431.85 222.821" stroke="#FF0038" stroke-opacity="0.25" stroke-miterlimit="10"/>
<path d="M-63.4766 17300.8C-16.6173 16280.5 69.3401 15715.2 149.879 15939.9C190.369 16051.6 228.808 16332.9 266.295 16592.1C304.735 16856.8 341.783 17102.3 380.588 17136.7C393.108 17147.8 405.628 17136.7 418.441 17096.7C466.472 16942.3 514.576 16854.1 564.071 16615.5C619.131 16350.8 653.104 15698.6 681.878 14896.2C688.541 14711.4 695.057 14525.3 701.574 14341.9C720.757 13805.5 740.452 13305 770.764 13030.6C787.897 12874.8 808.105 12783.8 832.633 12789.3C893.77 12800.4 934.406 13615.2 985.877 13849.6C992.687 13881.4 999.716 13899.3 1006.67 13907.5C1041.45 13947.5 1077.62 13702.1 1103.98 13208.5C1135.68 12615.6 1152.01 11680.8 1146.59 10784.5C1142.05 10017.9 1123.82 9314.72 1112.1 8578.43C1091.82 7311.3 1091.9 5914.56 1111.59 4662.6C1122.21 3986.98 1138.61 3358.24 1160.14 2806.72C1199.45 1798.81 1255.76 1062.52 1319.02 657.147C1355.11 425.506 1393.41 311.065 1431.77 328.989" stroke="#FF0038" stroke-opacity="0.25" stroke-miterlimit="10"/>
<path d="M-58.2773 17492.5C-10.7592 16576.9 74.6857 16061.3 154.639 16261.2C194.982 16360.5 233.202 16612.8 270.323 16833.4C308.323 17060.9 344.712 17260.8 382.785 17263.6C395.013 17265 407.313 17245.7 419.833 17197.4C466.766 17016.8 513.698 16894.1 562.9 16648.6C617.081 16378.4 651.713 15755.2 681.366 15006.5C688.249 14834.1 694.985 14661.8 701.721 14493.5C721.49 13998.6 741.478 13542.2 771.717 13292.6C788.923 13150.6 809.058 13067.9 833.146 13065.1C893.478 13059.6 933.967 13783.5 983.608 13957.2C990.198 13980.6 996.934 13991.7 1003.67 13993C1037.06 13998.6 1071.47 13732.4 1096.51 13233.3C1126.6 12632.1 1141.98 11707 1137.22 10820.4C1133.12 10057.9 1116.43 9350.57 1105.96 8612.9C1087.8 7345.77 1089.33 5954.55 1109.98 4719.13C1121.18 4047.65 1138.02 3428.56 1159.92 2885.31C1199.82 1895.32 1256.27 1175.58 1319.53 771.589C1355.55 541.327 1393.7 424.128 1431.99 435.158" stroke="#FF0038" stroke-opacity="0.25" stroke-miterlimit="10"/>
<path d="M-53.082 17684.1C-4.83166 16872 79.9543 16407.3 159.395 16582.4C199.519 16669.3 237.665 16891.3 274.42 17074.7C312.054 17263.6 347.638 17420.8 385.052 17391.8C397.06 17383.5 409.067 17354.6 421.221 17299.4C467.129 17091.2 512.743 16935.4 561.653 16681.7C614.955 16404.6 650.246 15810.3 680.777 15116.8C687.88 14955.4 694.908 14798.3 701.791 14643.8C722.072 14190.2 742.353 13779.3 772.665 13554.6C789.945 13426.3 809.933 13346.4 833.656 13340.9C893.182 13327.1 933.451 13953 981.336 14066.1C987.705 14081.3 994.149 14084 1000.59 14078.5C1032.59 14049.6 1065.24 13764.2 1088.97 13258.1C1117.52 12647.3 1132.02 11733.2 1127.84 10854.9C1124.26 10096.5 1108.95 9386.42 1099.8 8647.37C1083.84 7380.24 1086.77 5995.91 1108.37 4774.29C1120.16 4106.94 1137.51 3497.5 1159.69 2963.9C1200.11 1991.84 1256.71 1290.02 1320.11 886.03C1356.14 657.146 1394.06 537.19 1432.21 541.326" stroke="#FF0038" stroke-opacity="0.25" stroke-miterlimit="10"/>
<path d="M-47.957 17874.4C0.952292 17167.1 85.2257 16750.7 164.154 16903.7C204.131 16978.2 242.058 17169.8 278.447 17317.4C315.715 17469 350.566 17580.7 387.175 17521.4C398.963 17502.1 410.678 17466.3 422.539 17402.8C467.348 17165.7 511.791 16978.2 560.408 16716.2C612.831 16433.5 648.781 15868.2 680.192 15228.5C687.513 15079.5 694.762 14936.1 701.864 14795.5C722.731 14384.6 743.305 14016.5 773.544 13817.9C790.97 13703.5 810.812 13629 834.095 13618C892.815 13590.4 932.938 14124 978.992 14175C985.143 14181.9 991.293 14177.8 997.443 14165.4C1028.05 14102 1058.95 13797.2 1081.35 13284.3C1108.29 12665.2 1121.91 11762.1 1118.33 10890.7C1115.18 10136.5 1101.34 9422.27 1093.43 8683.22C1079.59 7416.09 1083.99 6038.66 1106.54 4832.2C1118.91 4170.37 1136.78 3569.2 1159.33 3045.25C1200.33 2089.74 1257 1405.84 1320.48 1003.23C1356.43 774.347 1394.28 653.012 1432.28 651.633" stroke="#FF0038" stroke-opacity="0.25" stroke-miterlimit="10"/>
<path d="M-42.7578 18066.1C6.81046 17462.1 90.5713 17096.7 168.914 17225C208.671 17287 246.525 17448.3 282.475 17558.7C319.376 17671.7 353.422 17739.3 389.372 17649.7C400.867 17620.7 412.362 17575.2 423.931 17506.3C467.715 17241.5 510.84 17020.9 559.164 16750.7C610.782 16462.5 647.318 15926.1 679.606 15341.5C687.148 15205 694.616 15074 701.938 14948.6C723.317 14579 744.258 14256.4 774.423 14082.7C791.922 13982 811.691 13913.1 834.462 13896.5C892.377 13855.2 932.353 14296.4 976.577 14285.3C982.507 14284 988.438 14271.6 994.296 14252.3C1023.44 14154.4 1052.65 13829 1073.74 13310.5C1099.14 12683.2 1111.88 11789.7 1108.88 10927.9C1106.25 10177.9 1093.94 9460.88 1087.21 8720.45C1075.64 7451.94 1081.42 6081.4 1104.85 4891.49C1117.81 4233.79 1136.12 3642.28 1159.04 3126.6C1200.62 2189.01 1257.44 1521.66 1320.99 1119.05C1356.87 891.546 1394.58 768.831 1432.5 759.18" stroke="#FF0038" stroke-opacity="0.25" stroke-miterlimit="10"/>
<path d="M-37.5586 18257.7C12.6686 17758.6 95.917 17445.6 173.674 17546.2C213.285 17597.3 250.919 17728.2 286.576 17799.9C323.038 17874.4 356.425 17897.8 391.643 17777.9C402.918 17739.3 414.12 17685.5 425.396 17608.3C468.155 17316 510.035 17063.7 558.066 16785.1C608.806 16491.4 646.074 15984 679.095 15453.2C686.856 15329.1 694.544 15211.9 702.085 15100.2C723.977 14773.4 745.284 14493.5 775.376 14344.6C792.948 14257.8 812.57 14193 834.975 14172.3C892.085 14117.1 931.915 14466 974.308 14394.3C979.946 14384.6 985.657 14365.3 991.221 14339.1C1018.97 14206.8 1046.35 13862 1066.2 13335.3C1089.99 12699.7 1101.93 11815.9 1099.44 10962.4C1097.24 10215.1 1086.4 9496.73 1080.91 8754.92C1071.47 7486.42 1078.72 6122.77 1103.17 4946.64C1116.72 4293.08 1135.53 3711.22 1158.74 3205.2C1200.92 2284.15 1257.81 1634.73 1321.43 1233.49C1357.24 1007.37 1394.8 881.897 1432.65 865.352" stroke="#FF0038" stroke-opacity="0.25" stroke-miterlimit="10"/>
<path d="M-32.4336 18449.4C18.4526 18053.6 101.115 17791.7 178.433 17867.5C217.824 17906.1 255.385 18006.8 290.602 18041.2C326.698 18078.5 359.28 18057.8 393.766 17906.1C404.822 17857.8 415.731 17794.4 426.714 17710.3C468.374 17389.1 509.01 17105 556.821 16818.2C606.682 16519 644.609 16039.2 678.509 15563.5C686.489 15451.8 694.47 15348.4 702.158 15250.5C724.563 14965.1 746.235 14730.7 776.327 14606.6C793.973 14533.5 813.522 14474.2 835.487 14448C891.792 14379.1 931.475 14634.2 972.111 14501.8C977.529 14483.9 982.947 14456.3 988.292 14423.2C1014.65 14256.4 1040.28 13891 1058.8 13358.8C1081.06 12714.9 1092.04 11840.7 1090.21 10996.9C1088.53 10253.7 1079.16 9531.19 1074.91 8788.01C1067.59 7519.5 1076.37 6162.75 1101.71 5001.79C1115.84 4353.75 1135.17 3780.16 1158.67 3283.79C1201.36 2380.66 1258.39 1747.79 1322.16 1347.93C1357.89 1123.19 1395.38 994.956 1433.09 972.895" stroke="#FF0038" stroke-opacity="0.25" stroke-miterlimit="10"/>
<path d="M-27.2344 18641C24.3108 18350.1 106.461 18136.4 183.193 18188.8C222.437 18215 259.778 18285.3 294.63 18283.9C330.36 18282.5 362.21 18219.1 395.963 18034.3C406.726 17975 417.416 17903.3 428.106 17812.3C468.741 17463.5 508.132 17147.8 555.577 16851.3C604.633 16546.6 643.219 16095.7 677.924 15673.8C686.124 15574.5 694.325 15484.9 702.232 15400.8C725.149 15156.8 747.188 14967.9 777.207 14868.6C794.999 14809.3 814.328 14755.5 835.927 14723.8C891.426 14641.1 930.964 14803.8 969.769 14609.4C974.968 14583.2 980.093 14548.7 985.145 14508.7C1010.11 14307.4 1033.98 13922.7 1051.19 13383.6C1071.83 12731.4 1082.01 11866.9 1080.69 11031.3C1079.52 10292.3 1071.54 9567.04 1068.54 8822.48C1063.41 7553.97 1073.59 6202.73 1099.88 5058.32C1114.67 4414.41 1134.36 3850.48 1158.23 3362.38C1201.5 2477.18 1258.61 1860.85 1322.46 1460.99C1358.11 1237.63 1395.46 1108.02 1433.02 1077.68" stroke="#FF0038" stroke-opacity="0.25" stroke-miterlimit="10"/>
<path d="M-22.0352 18831.3C30.169 18645.2 111.807 18481.1 187.953 18510C226.978 18525.2 264.172 18563.8 298.731 18525.2C334.022 18486.6 365.139 18377.7 398.234 18162.6C408.777 18093.6 419.174 18013.7 429.498 17914.4C469.035 17536.6 507.255 17189.1 554.407 16885.8C602.584 16575.6 641.902 16153.6 677.412 15785.5C685.832 15698.6 694.252 15622.8 702.379 15552.5C725.809 15351.2 748.214 15206.4 778.159 15130.6C796.025 15085.1 815.281 15036.8 836.367 14999.6C891.061 14901.7 930.452 14972 967.427 14718.3C972.406 14683.8 977.311 14641.1 981.997 14594.2C1005.57 14358.4 1027.68 13954.4 1043.5 13408.4C1062.61 12748 1071.91 11893.1 1071.18 11065.8C1070.52 10330.9 1064 9602.89 1062.24 8856.95C1059.24 7588.45 1070.96 6244.1 1098.12 5113.47C1113.5 4475.08 1133.7 3919.42 1157.87 3440.97C1201.72 2572.32 1258.98 1973.92 1322.9 1575.44C1358.48 1353.45 1395.75 1221.08 1433.16 1183.86" stroke="#FF0038" stroke-opacity="0.25" stroke-miterlimit="10"/>
<path d="M-16.9141 19022.9C36.0222 18940.2 117.074 18827.2 192.708 18831.3C231.586 18834 268.634 18843.7 302.754 18766.5C337.679 18689.3 368.064 18537.6 400.353 18290.8C410.676 18212.2 420.78 18122.6 430.811 18016.4C469.324 17611 506.225 17231.9 553.085 16918.9C600.456 16603.1 640.433 16211.5 676.749 15895.8C685.389 15821.3 694.028 15759.3 702.375 15702.8C726.317 15542.8 749.088 15443.5 778.961 15392.5C796.899 15362.2 816.082 15316.7 836.729 15274C890.618 15162.3 929.862 15138.8 965.007 14824.5C969.766 14781.7 974.378 14732.1 978.845 14678.3C1001.03 14408.1 1021.31 13983.4 1035.88 13430.5C1053.38 12761.8 1061.87 11916.5 1061.65 11098.9C1061.51 10366.8 1056.38 9635.98 1055.87 8890.04C1054.99 7621.53 1068.24 6284.08 1096.29 5168.62C1112.25 4534.37 1132.97 3988.36 1157.5 3519.56C1201.94 2668.83 1259.27 2088.35 1323.26 1689.88C1358.77 1467.89 1395.89 1334.14 1433.23 1291.4" stroke="#FF0038" stroke-opacity="0.25" stroke-miterlimit="10"/>
<path d="M-11.7109 19214.6C41.8843 19236.7 122.424 19171.9 197.472 19152.6C236.13 19142.9 273.032 19122.2 306.785 19009.2C341.344 18893.3 370.997 18697.5 402.554 18420.4C412.585 18332.2 422.469 18232.9 432.207 18119.8C469.621 17685.5 505.351 17276 551.918 16953.3C598.411 16632.1 639.193 16269.5 676.168 16008.9C685.101 15946.8 693.887 15898.6 702.453 15857.2C726.908 15738.6 750.118 15686.2 779.917 15658.6C798.002 15642.1 816.965 15602.1 837.247 15553.8C890.402 15428.4 929.427 15311.2 962.741 14936.1C967.281 14885.1 971.601 14827.2 975.774 14766.5C996.568 14461.8 1015.09 14017.9 1028.34 13458.1C1044.31 12781.1 1051.92 11945.5 1052.29 11136.1C1052.58 10408.1 1048.99 9674.59 1049.72 8927.27C1050.97 7657.38 1065.69 6328.21 1094.68 5227.91C1111.23 4597.79 1132.39 4061.44 1157.28 3602.29C1202.24 2769.49 1259.71 2205.55 1323.85 1808.45C1359.36 1587.84 1396.26 1451.34 1433.53 1401.7" stroke="#FF0038" stroke-opacity="0.25" stroke-miterlimit="10"/>
<path d="M-6.51562 19406.3C47.7386 19531.7 127.765 19517.9 202.228 19473.8C240.74 19451.8 277.495 19400.7 310.882 19250.5C345.075 19097.4 373.923 18857.5 404.821 18548.6C414.632 18450.7 424.223 18341.8 433.668 18221.9C470.057 17758.6 504.47 17317.4 550.743 16987.8C596.431 16661 637.872 16328.7 675.652 16120.5C684.804 16070.9 693.81 16036.4 702.596 16008.9C727.564 15930.3 751.14 15909.6 780.866 15920.6C799.024 15927.5 817.914 15883.4 837.756 15829.6C890.107 15689 928.985 15479.4 960.469 15043.7C964.788 14984.4 968.815 14919.6 972.769 14852C992.172 14512.8 1008.94 14048.2 1020.87 13482.9C1035.22 12797.6 1042.03 11971.7 1042.91 11170.6C1043.72 10446.7 1041.52 9710.44 1043.5 8960.36C1046.87 7690.48 1063.12 6368.19 1093.07 5281.69C1110.27 4657.09 1131.87 4129 1157.06 3678.13C1202.6 2861.87 1260.22 2315.86 1324.36 1918.76C1359.8 1699.53 1396.63 1561.65 1433.75 1505.12" stroke="#FF0038" stroke-opacity="0.25" stroke-miterlimit="10"/>
<path d="M-1.39062 19596.5C53.5225 19826.8 132.964 19858.5 206.987 19793.7C245.279 19757.8 281.888 19679.3 314.909 19490.4C348.662 19298.7 376.851 19016 406.944 18674.1C416.535 18565.2 425.834 18449.4 434.986 18321.1C470.277 17830.3 503.518 17357.3 549.498 17018.1C594.307 16687.2 636.481 16382.5 675.066 16228.1C684.438 16190.9 693.663 16168.8 702.669 16156.4C728.076 16119.2 752.091 16160.5 781.744 16179.8C800.049 16192.2 818.719 16161.9 838.122 16102.6C889.667 15948.2 928.399 15644.8 958.125 15149.9C962.152 15082.3 966.033 15009.2 969.62 14934.8C987.632 14561.1 1002.64 14077.1 1013.26 13504.9C1026.07 12811.4 1031.93 11995.1 1033.39 11203.7C1034.71 10483.9 1033.83 9743.52 1037.2 8993.45C1042.55 7723.56 1060.48 6408.17 1091.31 5336.83C1109.1 4716.37 1131.21 4197.93 1156.69 3756.71C1202.82 2958.38 1260.51 2428.91 1324.8 2033.19C1360.16 1815.34 1396.84 1674.7 1433.82 1611.28" stroke="#FF0038" stroke-opacity="0.25" stroke-miterlimit="10"/>
<path d="M3.80859 19788.2C59.3807 20123.2 138.309 20204.6 211.746 20116.4C249.893 20068.1 286.282 19959.2 318.937 19734.4C352.324 19505.5 379.707 19177.4 409.141 18805.1C418.44 18686.5 427.445 18561.1 436.378 18425.9C470.644 17906.1 502.64 17402.8 548.328 17054C592.331 16717.6 635.164 16444.6 674.555 16341.2C684.146 16316.3 693.591 16310.8 702.817 16309.5C728.736 16303.9 753.117 16400.5 782.697 16444.6C801.075 16470.8 819.672 16444.6 838.635 16381.1C889.375 16211.6 927.887 15814.5 955.856 15260.2C959.664 15184.3 963.251 15104.4 966.546 15023C983.167 14614.9 996.419 14110.2 1005.72 13532.5C1016.92 12830.7 1021.97 12024.1 1024.02 11240.9C1025.85 10523.9 1026.44 9782.14 1030.98 9030.69C1038.52 7760.8 1057.92 6452.31 1089.62 5394.76C1108.08 4779.81 1130.55 4269.65 1156.4 3838.08C1203.04 3057.67 1260.88 2544.75 1325.24 2150.41C1360.53 1933.93 1397.07 1790.54 1433.97 1720.22" stroke="#FF0038" stroke-opacity="0.25" stroke-miterlimit="10"/>
<path d="M9.00781 19979.8C65.2389 20418.3 143.655 20550.7 216.506 20437.6C254.433 20376.9 290.749 20237.7 323.038 19975.7C356.059 19708.2 382.783 19338.7 411.412 18933.3C420.49 18805.1 429.203 18670 437.77 18528C470.937 17979.2 501.762 17445.6 547.084 17087.1C590.209 16746.5 633.773 16502.5 673.97 16451.5C683.781 16439.1 693.446 16444.6 702.891 16459.7C729.322 16503.9 754.07 16639 783.576 16705.2C802.027 16746.5 820.551 16724.5 839.075 16655.5C889.01 16470.8 927.302 15981.3 953.514 15366.3C957.102 15282.2 960.397 15194 963.472 15105.7C978.628 14663.1 990.123 14139.2 998.177 13553.2C1007.84 12841.7 1012.02 12046.1 1014.58 11271.3C1016.92 10558.4 1018.9 9813.85 1024.75 9061.02C1034.42 7791.13 1055.36 6489.53 1087.94 5447.14C1106.98 4837.71 1129.97 4334.44 1156.11 3912.52C1203.33 3148.66 1261.25 2653.67 1325.75 2260.71C1360.97 2045.61 1397.43 1900.83 1434.19 1823.62" stroke="#FF0038" stroke-opacity="0.25" stroke-miterlimit="10"/>
<path d="M14.1328 20171.5C71.0228 20714.7 148.926 20895.4 221.265 20758.9C259.046 20685.8 295.142 20516.2 327.065 20217C359.646 19912.3 385.639 19497.3 413.608 19061.6C422.467 18923.7 430.887 18778.9 439.161 18630C471.157 18050.9 500.883 17489.7 545.912 17121.6C588.232 16775.5 632.455 16552.1 673.384 16564.5C683.488 16567.3 693.372 16582.4 703.037 16612.8C729.981 16696.9 755.094 16880.3 784.601 16969.9C803.125 17026.4 821.503 17007.1 839.661 16934C888.79 16735.5 926.936 16152.3 951.317 15478C954.685 15385.6 957.687 15290.5 960.47 15195.4C974.235 14718.3 983.972 14175 990.708 13582.1C998.762 12862.4 1002.2 12076.5 1005.28 11311.2C1008.13 10602.5 1011.58 9853.83 1018.68 9101C1030.47 7829.73 1053.02 6536.4 1086.4 5509.19C1106.1 4903.89 1129.53 4410.27 1155.96 3998.01C1203.77 3252.07 1261.83 2773.62 1326.34 2380.66C1361.48 2166.94 1397.8 2019.41 1434.48 1935.3" stroke="#FF0038" stroke-opacity="0.25" stroke-miterlimit="10"/>
<path d="M19.332 20363.1C76.9542 21009.8 154.272 21241.4 226.025 21080.1C263.586 20994.6 299.609 20796.1 331.166 20459.7C363.381 20116.3 388.641 19658.6 415.805 19191.2C424.445 19043.6 432.572 18890.6 440.553 18733.4C471.524 18126.7 500.005 17533.8 544.668 17156C586.182 16805.8 631.065 16622.4 672.799 16676.2C683.122 16690 693.226 16720.3 703.111 16764.4C730.641 16888.5 755.974 17120.2 785.481 17233.2C804.078 17304.9 822.382 17289.8 840.028 17211.2C888.351 16997.5 926.278 16321.8 948.902 15586.9C952.051 15486.3 954.833 15382.9 957.322 15280.8C969.696 14769.3 977.677 14205.4 983.022 13607C989.538 12878.9 992.1 12102.7 995.688 11345.7C999.129 10641.1 1003.89 9889.67 1012.24 9134.08C1026.15 7862.82 1050.31 6577.76 1084.5 5562.96C1104.86 4963.17 1128.65 4477.83 1155.52 4075.22C1203.92 3345.82 1262.05 2886.68 1326.7 2493.72C1361.78 2280 1398.02 2131.09 1434.48 2040.09" stroke="#FF0038" stroke-opacity="0.25" stroke-miterlimit="10"/>
<path d="M24.5312 20553.4C82.8124 21304.9 159.544 21586.2 230.785 21401.4C268.199 21303.5 304.003 21074.6 335.193 20701C367.043 20319 391.571 19818.5 418.002 19318C426.349 19160.8 434.257 18998.1 441.945 18835.4C471.817 18199.8 499.127 17578 543.497 17189.1C584.206 16834.8 629.674 16681.7 672.287 16786.5C682.83 16812.7 693.154 16855.5 703.258 16914.7C731.3 17078.8 757 17358.7 786.433 17495.2C805.177 17582.1 823.261 17569.7 840.541 17486.9C887.986 17256.7 925.693 16488.7 946.633 15694.5C949.488 15585.6 952.051 15475.3 954.248 15366.3C965.23 14820.3 971.454 14237.1 975.481 13631.8C980.386 12895.5 982.144 12128.9 986.317 11380.2C990.271 10679.7 996.494 9925.53 1006.09 9168.56C1022.12 7897.3 1047.82 6619.14 1082.96 5619.5C1103.98 5025.23 1128.21 4548.16 1155.38 4153.82C1204.29 3442.35 1262.57 2999.75 1327.29 2608.17C1362.36 2395.83 1398.39 2244.16 1434.77 2147.64" stroke="#FF0038" stroke-opacity="0.25" stroke-miterlimit="10"/>
<path d="M29.7266 20745.1C119.711 22050.8 249.965 22133.6 339.29 20942.3C370.701 20523.1 394.496 19977.1 420.269 19446.2C460.026 18625.8 486.97 17721.3 542.323 17222.2C592.037 16774.1 651.563 16692.8 703.328 17066.4C731.883 17271.9 757.948 17598.6 787.309 17757.2C865.358 18177.7 930.302 16713.4 951.169 15451.8C972.403 14166.8 968.302 12763.1 976.942 11414.7C988.876 9546.36 1023.73 7246.5 1081.28 5676.03C1141.75 4024.21 1227.05 3330.67 1327.73 2722.61C1362.73 2511.65 1398.6 2358.6 1434.92 2253.81" stroke="#FF0038" stroke-opacity="0.25" stroke-miterlimit="10"/>
</svg>
