<svg width="2033" height="4818" viewBox="0 0 2033 4818" fill="none" xmlns="http://www.w3.org/2000/svg">
<path d="M320.748 4817C342.449 4407.46 373.291 4025.66 425.784 3726.99C442.802 3630.15 462.238 3541.71 489.654 3490.7C545.559 3386.7 630.837 3443.66 700.904 3415.49C789.895 3379.71 854.184 3200.54 886.732 2906.25C911.22 2684.8 928.095 2374.99 980.967 2267.51C1029 2169.89 1151.37 2466.62 1226.55 2565.63C1303.54 2667.03 1368.3 2659.09 1412.57 2555.68C1435.77 2501.48 1453.44 2421.06 1464.32 2316.08C1474.71 2215.68 1468.98 2044.15 1520.87 2150C1538.04 2184.99 1556.04 2244.06 1573.67 2290.57C1634.95 2452.16 1689.29 2434.52 1692.68 2251.9M322.508 4803.49C341.438 4390.34 370.765 4005.65 422.891 3708.17C440.223 3608.99 460.698 3522.25 488.059 3467.3C521.133 3401.34 564.592 3391.74 609.319 3388.54C639.85 3386.33 670.976 3387.13 699.805 3375.05C756.751 3351.16 804.654 3274.66 841.672 3152.56C863.315 3081.16 881.223 2994.12 894.997 2892.47C904.726 2821.36 913.614 2740.43 923.352 2660.96C937.095 2549.47 952.548 2440.97 974.164 2364.32C981.91 2336.73 990.447 2313.24 999.992 2295.4C1039.48 2221.85 1122.89 2380.17 1192.46 2491.63C1211.15 2521.68 1228.83 2548.37 1244.43 2566.31C1308.69 2641.03 1363.56 2636.1 1404.38 2561.51C1411.41 2548.69 1418.03 2533.77 1424.21 2516.85C1446.27 2456.51 1462.95 2370.59 1473.51 2262.39C1479.77 2198.29 1480.2 2108.31 1491.84 2072.85C1499.02 2051 1510.44 2050.15 1530 2088.06C1547.09 2121.19 1565.04 2177.55 1582.68 2222.09C1643.96 2376.98 1698.94 2360.34 1703.63 2179.26M324.273 4790.02C340.427 4373.22 368.244 3985.68 420.007 3689.41C437.654 3587.85 459.163 3502.78 486.477 3443.95C519.398 3373.86 562.709 3359.59 607.548 3352.95C638.163 3348.4 669.496 3347.43 698.723 3334.66C756.467 3309.5 805.946 3236.15 845.263 3121.61C868.254 3054.63 887.736 2973.47 903.28 2878.74C914.32 2812.57 924.578 2737.25 935.675 2663.54C951.377 2560.2 968.789 2460.12 991.896 2388.39C1000.15 2362.52 1009.12 2340.33 1019.04 2323.31C1060.16 2253.16 1142.93 2401.76 1211.36 2501.52C1229.72 2528.52 1247.03 2551.85 1262.32 2566.98C1325.04 2628.99 1378.11 2613.1 1417.01 2528C1423.71 2513.38 1429.99 2496.67 1435.86 2478.03C1456.78 2411.52 1472.47 2320.11 1482.71 2208.66C1488.78 2142.61 1489.39 2052.08 1501.12 2015.16C1508.35 1992.42 1519.8 1990.62 1539.14 2026.1C1556.16 2057.37 1574.05 2110.99 1591.7 2153.59C1652.98 2301.76 1708.6 2286.13 1714.57 2106.61M326.033 4776.56C339.42 4356.12 365.717 3965.67 417.115 3670.63C435.08 3566.71 457.624 3483.34 484.881 3420.59C517.645 3346.34 560.813 3327.42 605.763 3317.37C636.458 3310.44 667.993 3307.69 697.632 3294.28C756.165 3267.83 807.228 3197.64 848.847 3090.67C873.182 3028.11 894.123 2952.35 911.557 2865.02C923.832 2803.52 935.546 2734.12 947.989 2666.14C965.654 2570.94 985.015 2479.31 1009.62 2412.5C1018.38 2388.38 1027.8 2367.48 1038.07 2351.24C1080.82 2284.49 1162.88 2422.59 1230.25 2511.47C1248.26 2535.24 1265.24 2555.54 1280.2 2567.72C1341.44 2617.55 1392.67 2590.19 1429.63 2494.54C1436 2478.12 1441.95 2459.65 1447.5 2439.27C1467.27 2366.6 1481.97 2269.7 1491.9 2155C1497.78 2086.99 1498.56 1995.9 1510.37 1957.54C1517.65 1933.86 1529.14 1931.1 1548.26 1964.22C1565.21 1993.6 1583.05 2044.54 1600.72 2085.21C1662 2226.66 1718.26 2212.06 1725.51 2034.05M327.793 4763.05C338.409 4339 363.191 3945.67 414.217 3651.8C432.498 3545.51 455.988 3463.45 483.286 3397.18C515.791 3318.31 558.912 3295.23 603.973 3281.71C634.748 3272.45 666.486 3267.89 696.528 3253.81C755.855 3226.08 808.494 3159.03 852.417 3059.63C878.098 3001.52 900.587 2931.49 919.818 2851.22C933.386 2794.58 946.492 2730.9 960.286 2668.62C979.91 2581.58 1001.23 2498.36 1027.33 2436.49C1036.6 2414.1 1046.46 2394.5 1057.08 2379.08C1101.47 2315.72 1182.86 2443.87 1249.12 2521.31C1266.81 2541.97 1283.43 2559.11 1298.07 2568.34C1357.82 2606 1407.2 2567.17 1442.24 2461.01C1448.28 2442.79 1453.9 2422.54 1459.12 2400.43C1477.76 2321.6 1491.47 2219.2 1501.08 2101.28C1506.78 2031.31 1507.74 1939.7 1519.63 1899.86C1526.97 1875.26 1538.49 1871.53 1557.37 1902.26C1574.27 1929.75 1592.04 1977.98 1609.72 2016.71C1671 2151.45 1727.9 2137.86 1736.45 1961.41M329.554 4749.58C337.395 4321.89 360.662 3925.66 411.329 3633.04C429.928 3524.39 454.431 3443.91 481.699 3373.84C514.029 3290.72 557.024 3263.08 602.197 3246.14C633.052 3234.51 664.993 3228.16 695.446 3213.45C755.562 3184.42 809.782 3120.55 856.005 3028.71C883.033 2974.99 907.074 2910.72 928.097 2837.52C942.959 2785.77 957.378 2727.45 972.605 2671.21C994.082 2591.86 1017.56 2518.05 1045.06 2460.61C1054.87 2440.12 1065.13 2421.65 1076.13 2407.04C1122.14 2347.08 1202.87 2465.31 1268.02 2531.26C1285.37 2548.82 1301.64 2562.78 1315.97 2569.08C1374.23 2594.64 1421.76 2544.26 1454.87 2427.54C1460.58 2407.52 1465.87 2385.51 1470.78 2361.67C1488.27 2276.65 1500.99 2168.76 1510.29 2047.61C1515.8 1975.69 1516.93 1883.52 1528.9 1842.23C1536.3 1816.7 1547.84 1812 1566.51 1840.36C1583.34 1865.94 1601.06 1911.48 1618.74 1948.27C1680.02 2076.29 1737.56 2063.71 1747.4 1888.79M331.314 4736.07C336.383 4304.75 358.135 3905.65 408.436 3614.22C427.346 3503.21 452.874 3424.37 480.104 3350.43C512.259 3263.08 555.132 3230.92 600.412 3210.52C631.351 3196.54 663.495 3188.4 694.346 3173.02C755.256 3142.69 811.051 3081.98 859.585 2997.72C887.957 2948.45 913.556 2889.91 936.367 2823.76C952.527 2776.89 968.324 2724.23 984.911 2673.77C1008.34 2602.48 1033.8 2537.25 1062.78 2484.68C1073.1 2465.95 1083.79 2448.73 1095.16 2434.95C1142.8 2378.39 1222.86 2486.7 1286.91 2541.17C1303.93 2555.66 1319.84 2566.47 1333.85 2569.77C1390.62 2583.22 1436.31 2521.3 1467.49 2394.06C1472.87 2372.25 1477.83 2348.45 1482.42 2322.9C1498.78 2231.72 1510.5 2118.34 1519.48 1993.94C1524.81 1920.06 1526.12 1827.34 1538.18 1784.6C1545.62 1758.14 1557.2 1752.44 1575.64 1778.45C1592.41 1802.11 1610.07 1844.99 1627.76 1879.85C1689.03 2001.16 1747.23 1989.61 1758.35 1816.2M333.079 4722.6C335.381 4287.65 355.615 3885.68 405.553 3595.44C424.781 3482.09 451.33 3404.89 478.521 3327.09C510.506 3235.54 553.25 3198.77 598.64 3174.93C629.66 3158.6 662.006 3148.68 693.269 3132.65C754.967 3101.01 812.347 3043.49 863.177 2966.8C892.892 2921.94 920.05 2869.16 944.653 2810.05C962.117 2768.07 979.292 2721.06 997.234 2676.35C1022.61 2613.16 1050.05 2556.49 1080.51 2508.77C1091.34 2491.8 1102.47 2475.84 1114.2 2462.88C1163.48 2409.72 1242.87 2508.14 1305.81 2551.13C1322.5 2562.53 1338.06 2570.18 1351.75 2570.51C1407.03 2571.9 1450.88 2498.38 1480.13 2360.6C1485.17 2337 1489.8 2311.4 1494.07 2284.13C1509.29 2186.8 1520.02 2067.91 1528.69 1940.3C1533.83 1864.46 1535.32 1771.18 1547.46 1726.99C1554.96 1699.63 1566.56 1692.88 1584.78 1716.59C1601.49 1738.33 1619.09 1778.54 1636.79 1811.45C1698.06 1926.08 1756.9 1915.51 1769.31 1743.66M334.84 4709.13C334.366 4270.53 353.085 3865.67 402.657 3576.67C422.199 3460.93 449.774 3385.39 476.923 3303.69C508.741 3207.96 551.35 3166.56 596.847 3139.29C627.947 3120.61 660.496 3108.88 692.165 3092.19C754.657 3059.26 813.618 3004.92 866.747 2935.76C897.812 2895.34 926.537 2848.35 952.914 2796.25C971.685 2759.17 990.231 2717.79 1009.53 2678.84C1036.86 2623.72 1066.27 2575.62 1098.22 2532.8C1109.56 2517.58 1121.13 2502.9 1133.22 2490.75C1184.13 2440.98 1262.86 2529.54 1324.68 2561C1341.05 2569.32 1356.25 2573.81 1369.62 2571.17C1423.43 2560.57 1465.41 2475.39 1492.73 2327.07C1497.44 2301.66 1501.74 2274.3 1505.69 2245.3C1519.78 2141.8 1529.52 2017.42 1537.88 1886.56C1542.83 1808.77 1544.5 1714.95 1556.71 1669.29C1564.26 1641 1575.89 1633.2 1593.88 1654.61C1610.53 1674.4 1628.08 1711.98 1645.79 1742.94C1707.06 1850.85 1766.54 1841.28 1780.23 1670.98M336.6 4695.63C333.355 4253.41 350.559 3845.69 399.768 3557.85C419.629 3439.78 448.225 3365.89 475.339 3280.32C506.992 3180.4 549.466 3134.39 595.074 3103.69C626.254 3082.63 659.015 3069.16 691.083 3051.8C754.364 3017.59 814.905 2966.37 870.34 2904.82C902.746 2868.83 933.035 2827.62 961.192 2782.51C981.27 2750.34 1001.19 2714.58 1021.85 2681.42C1051.13 2634.4 1082.51 2594.83 1115.95 2556.89C1127.8 2543.42 1139.81 2530.01 1152.27 2518.68C1204.8 2472.31 1282.88 2551.03 1343.58 2570.9C1359.61 2576.17 1374.47 2577.5 1387.52 2571.88C1439.86 2549.29 1479.97 2452.45 1505.37 2293.6C1509.75 2266.41 1513.72 2237.26 1517.35 2206.53C1530.29 2096.87 1539.05 1966.97 1547.09 1832.89C1551.85 1753.13 1553.7 1658.77 1565.99 1611.66C1573.6 1582.44 1585.25 1573.58 1603.03 1592.69C1619.62 1610.54 1637.09 1645.47 1654.83 1674.51C1716.09 1775.71 1776.22 1767.17 1791.2 1598.4M338.36 4682.16C332.344 4236.31 348.029 3825.68 396.875 3539.07C417.051 3418.62 446.673 3346.41 473.744 3256.94C505.235 3152.86 547.566 3102.22 593.294 3068.1C624.557 3044.68 657.516 3029.42 689.991 3011.38C754.066 2975.87 816.187 2927.84 873.922 2873.84C907.679 2842.26 939.539 2806.87 969.465 2768.75C990.855 2741.52 1012.14 2711.36 1034.16 2683.94C1065.4 2645.04 1098.74 2613.98 1133.67 2580.89C1146.02 2569.2 1158.47 2557.06 1171.29 2546.54C1225.46 2503.56 1302.87 2572.48 1362.46 2580.78C1378.17 2582.96 1392.67 2581.15 1405.4 2572.54C1456.27 2538.05 1494.52 2429.45 1517.99 2260.06C1522.03 2231.06 1525.67 2200.15 1528.98 2167.68C1540.8 2051.86 1548.55 1916.47 1556.28 1779.17C1560.85 1697.46 1562.87 1602.54 1575.25 1553.98C1582.91 1523.83 1594.58 1513.9 1612.14 1530.73C1628.67 1546.6 1646.09 1578.78 1663.84 1606.01C1725.04 1699.94 1785.86 1692.97 1802.13 1525.73M340.125 4668.69C331.338 4219.19 345.512 3805.69 393.987 3520.31C414.481 3397.5 445.133 3326.95 472.157 3233.59C503.486 3125.35 545.678 3070.07 591.517 3032.52C622.861 3006.73 656.023 2989.69 688.909 2971.03C753.773 2934.22 817.479 2889.36 877.51 2842.91C912.61 2815.75 946.051 2786.2 977.744 2755.05C1000.44 2732.76 1023.11 2708.22 1046.47 2686.55C1079.68 2655.77 1114.97 2633.21 1151.39 2605C1164.26 2595.05 1177.15 2584.21 1190.33 2574.49C1246.13 2534.93 1322.89 2594.05 1381.36 2590.75C1396.74 2589.89 1410.89 2584.93 1423.29 2573.26C1472.7 2526.9 1509.08 2406.54 1530.62 2226.62C1534.34 2195.84 1537.65 2163.12 1540.64 2128.94C1551.31 2006.97 1558.07 1866.08 1565.48 1725.52C1569.87 1641.86 1572.07 1546.4 1584.53 1496.37C1592.23 1465.3 1603.94 1454.26 1621.28 1468.87C1637.74 1482.74 1655.1 1512.32 1672.87 1537.65C1734.06 1624.86 1795.54 1618.89 1813.09 1453.19M341.885 4655.18C330.326 4202.06 342.981 3785.66 391.094 3501.48C411.899 3376.3 443.585 3307.43 470.562 3210.17C501.729 3097.77 543.786 3037.87 589.732 2996.88C621.156 2968.75 654.52 2949.89 687.809 2930.57C753.467 2892.47 818.749 2850.75 881.085 2811.87C917.534 2789.15 952.545 2765.41 986.012 2741.25C1010.02 2723.88 1034.06 2704.96 1058.78 2689.05C1093.95 2666.39 1131.19 2652.3 1169.11 2629.03C1182.49 2620.81 1195.81 2611.25 1209.36 2602.33C1266.78 2566.16 1342.89 2615.52 1400.24 2600.57C1415.28 2596.67 1429.09 2588.57 1441.16 2573.89C1489.11 2515.68 1523.61 2383.5 1543.23 2193.04C1546.62 2160.44 1549.59 2125.96 1552.27 2090.05C1561.79 1961.89 1567.57 1815.53 1574.66 1671.73C1578.86 1586.11 1581.24 1490.1 1593.78 1438.62C1601.54 1406.64 1613.27 1394.47 1630.39 1406.84C1646.79 1418.67 1664.09 1445.68 1681.87 1469.07C1743.05 1549.55 1805.18 1544.64 1824.02 1380.47M343.646 4641.71C329.316 4184.97 340.721 3766.73 388.202 3482.7C409.443 3355.65 442.046 3288.01 468.972 3186.82C499.986 3070.29 541.895 3005.74 587.948 2961.27C619.452 2930.78 653.023 2910.15 686.719 2890.18C753.166 2850.77 820.028 2812.24 884.669 2780.95C922.459 2762.64 959.058 2744.78 994.287 2727.55C1019.62 2715.13 1045.03 2701.86 1071.09 2691.63C1108.22 2677.09 1147.41 2671.5 1186.83 2653.12C1200.71 2646.66 1214.48 2638.38 1228.39 2630.28C1287.45 2597.49 1362.9 2637.11 1419.13 2610.51C1433.85 2603.56 1447.3 2592.33 1459.05 2574.63C1505.54 2504.6 1538.18 2360.58 1555.86 2159.6C1558.92 2125.22 1561.56 2088.96 1563.91 2051.32C1572.29 1916.99 1577.08 1765.14 1583.86 1618.12C1587.88 1530.54 1590.43 1433.97 1603.05 1381.04C1610.87 1348.14 1622.61 1334.84 1639.52 1344.99C1655.85 1354.79 1673.1 1379.24 1690.89 1400.69C1752.06 1474.43 1814.83 1470.55 1834.96 1307.92M345.41 4628.25C328.305 4167.84 338.199 3746.76 385.318 3463.92C406.877 3334.51 440.511 3268.57 467.389 3163.48C498.25 3042.81 540.011 2973.59 586.175 2925.71C617.764 2892.86 651.534 2870.43 685.636 2849.78C752.881 2809.12 821.315 2773.71 888.26 2749.99C927.401 2736.11 965.583 2724.11 1002.57 2713.8C1029.22 2706.39 1055.99 2698.68 1083.41 2694.21C1122.51 2687.8 1163.65 2690.65 1204.57 2677.2C1218.96 2672.46 1233.16 2665.47 1247.43 2658.19C1308.12 2628.81 1382.93 2658.72 1438.04 2620.46C1452.43 2610.45 1465.52 2596.08 1476.95 2575.35C1522.01 2493.56 1552.74 2337.66 1568.5 2126.14C1571.22 2089.97 1573.53 2051.93 1575.56 2012.54C1582.81 1872.06 1586.6 1714.69 1593.07 1564.44C1596.9 1474.93 1599.63 1377.81 1612.33 1323.4C1620.2 1289.57 1631.96 1275.11 1648.67 1283.07C1664.92 1290.82 1682.11 1312.75 1699.92 1332.26C1761.09 1399.29 1824.5 1396.41 1845.92 1235.34M347.167 4614.74C327.294 4150.72 335.665 3726.73 382.421 3445.12C404.299 3313.37 438.967 3249.11 465.789 3140.07C496.497 3015.28 538.111 2941.38 584.387 2890.08C616.055 2854.87 650.028 2830.67 684.537 2809.39C752.572 2767.42 822.589 2735.18 891.836 2719.01C932.318 2709.55 972.087 2703.44 1010.83 2700.04C1038.8 2697.6 1066.95 2695.51 1095.72 2696.76C1136.78 2698.54 1179.87 2709.78 1222.28 2701.27C1237.17 2698.27 1251.82 2692.57 1266.46 2686.12C1328.78 2660.12 1402.95 2680.35 1456.92 2630.38C1470.99 2617.36 1483.73 2599.83 1494.83 2576.03C1538.45 2482.51 1567.29 2314.7 1581.11 2092.63C1583.5 2054.65 1585.48 2014.82 1587.19 1973.73C1593.3 1827.09 1596.1 1664.22 1602.25 1510.73C1605.9 1419.26 1608.8 1321.59 1621.58 1265.73C1629.51 1230.97 1641.28 1215.33 1657.78 1221.12C1673.97 1226.81 1691.11 1246.2 1708.92 1263.77C1770.09 1324.08 1834.15 1322.24 1856.85 1162.68M348.931 4601.27C326.287 4133.62 332.879 3705.71 379.537 3426.35C401.608 3291.72 437.436 3229.69 464.207 3116.73C494.762 2987.8 536.223 2909.23 582.615 2854.5C614.363 2816.94 648.543 2790.96 683.455 2768.99C752.282 2725.73 823.881 2696.66 895.428 2688.08C937.26 2683.04 978.613 2682.83 1019.12 2686.34C1048.41 2688.9 1077.93 2692.37 1108.04 2699.34C1151.07 2709.26 1196.1 2728.95 1240.02 2725.36C1255.41 2724.09 1270.5 2719.68 1285.51 2714.04C1349.45 2691.45 1422.98 2701.99 1475.81 2640.29C1489.56 2624.23 1501.96 2603.58 1512.72 2576.76C1554.92 2471.49 1581.84 2291.76 1593.74 2059.17C1595.8 2019.4 1597.45 1977.79 1598.85 1934.96C1603.82 1782.16 1605.63 1613.8 1611.46 1457.08C1614.93 1363.65 1618.01 1265.42 1630.86 1208.12C1638.84 1172.46 1650.64 1155.61 1666.92 1159.25C1683.03 1162.87 1700.15 1179.92 1717.95 1195.37C1779.19 1249.57 1843.82 1248.13 1867.83 1090.14M350.695 4587.78C325.276 4116.5 330.353 3685.7 376.644 3407.55C399.03 3270.58 435.892 3210.23 462.611 3093.32C493.017 2960.3 534.331 2877.06 580.824 2818.86C612.653 2778.92 647.04 2751.16 682.359 2728.54C751.976 2684 825.155 2658.07 899.006 2657.06C942.18 2656.45 985.124 2662.13 1027.39 2672.56C1058 2680.09 1088.88 2689.21 1120.35 2701.86C1165.34 2719.95 1212.32 2748.04 1257.73 2749.41C1273.63 2749.88 1289.17 2746.75 1304.53 2741.93C1370.12 2722.72 1443.02 2723.62 1494.69 2650.19C1508.12 2631.1 1520.17 2607.34 1530.6 2577.44C1571.37 2460.48 1596.39 2268.79 1606.36 2025.65C1608.09 1984.08 1609.4 1940.71 1610.48 1896.17C1614.32 1737.21 1615.13 1563.35 1620.66 1403.38C1623.93 1308 1627.19 1209.24 1640.12 1150.47C1648.17 1113.88 1659.96 1095.81 1676.04 1097.32C1692.07 1098.83 1709.15 1113.41 1726.97 1126.93C1788.2 1174.41 1853.47 1173.98 1878.77 1017.52M352.452 4574.29C324.261 4099.38 327.822 3665.7 373.747 3388.75C396.447 3249.4 434.353 3190.78 461.016 3069.96C491.274 2932.81 532.435 2844.9 579.039 2783.25C610.952 2740.97 645.538 2711.42 681.26 2688.13C751.67 2642.28 826.43 2619.56 902.577 2626.08C947.101 2629.91 991.629 2641.52 1035.65 2658.8C1067.59 2671.35 1099.84 2686.05 1132.64 2704.41C1179.62 2730.71 1228.53 2767.17 1275.44 2773.44C1291.85 2775.64 1307.82 2773.83 1323.55 2769.82C1390.77 2754.01 1463.04 2745.29 1513.57 2660.09C1526.67 2638.01 1538.39 2611.09 1548.48 2578.12C1587.84 2449.53 1610.93 2245.83 1618.97 1992.17C1620.37 1948.81 1621.36 1903.66 1622.11 1857.39C1624.81 1692.26 1624.63 1512.89 1629.84 1349.72C1632.93 1252.38 1636.37 1153.07 1649.39 1092.84C1657.48 1055.33 1669.27 1036.03 1685.16 1035.42C1701.1 1034.8 1718.15 1046.91 1735.97 1058.49C1797.21 1099.28 1863.12 1099.86 1889.7 944.913M354.216 4560.82C323.254 4082.28 325.301 3645.73 370.863 3369.97C393.882 3228.28 432.831 3171.38 459.433 3046.57C489.542 2905.33 530.552 2812.73 577.267 2747.65C609.26 2703.01 644.048 2671.68 680.181 2647.75C751.381 2600.61 827.721 2581.01 906.178 2595.14C952.043 2603.38 998.167 2620.93 1043.94 2645.09C1077.2 2662.66 1110.82 2682.94 1144.97 2706.99C1193.91 2741.44 1244.76 2786.28 1293.18 2797.52C1310.09 2801.47 1326.51 2800.96 1342.6 2797.76C1411.44 2785.34 1483.09 2766.97 1532.47 2670C1545.26 2644.9 1556.62 2614.88 1566.38 2578.83C1604.33 2438.58 1625.49 2222.88 1631.6 1958.68C1632.67 1913.51 1633.33 1866.57 1633.76 1818.59C1635.32 1647.28 1634.15 1462.44 1639.04 1296.02C1641.95 1196.73 1645.57 1096.86 1658.66 1035.16C1666.8 996.716 1678.6 976.185 1694.29 973.454C1710.15 970.704 1727.16 980.372 1744.99 989.987C1806.22 1024.07 1872.79 1025.65 1900.65 872.267M355.977 4547.34C322.244 4065.16 322.776 3625.72 367.971 3351.22C391.304 3207.14 431.296 3151.98 457.843 3023.23C487.807 2877.88 528.66 2780.58 575.487 2712.09C607.564 2665.08 642.551 2631.96 679.086 2607.36C751.08 2558.93 829 2542.52 909.753 2564.19C956.97 2576.87 1004.68 2600.34 1052.21 2631.37C1086.79 2653.94 1121.78 2679.82 1157.28 2709.57C1208.19 2752.22 1260.98 2805.43 1310.9 2821.63C1328.31 2827.27 1345.17 2828.07 1361.63 2825.69C1432.11 2816.69 1503.13 2788.7 1551.37 2679.96C1563.83 2651.85 1574.85 2618.68 1584.26 2579.55C1620.8 2427.65 1640.04 2199.95 1644.23 1925.22C1644.96 1878.27 1645.29 1829.55 1645.42 1779.83C1645.83 1602.36 1643.66 1412.02 1648.25 1242.36C1650.96 1141.11 1654.76 1040.71 1667.93 977.532C1676.12 938.161 1687.92 916.371 1703.42 911.575C1719.19 906.668 1736.17 913.894 1754.01 921.597C1815.24 948.967 1882.45 951.557 1911.6 799.705M357.737 4533.85C321.233 4048.03 320.25 3605.71 365.078 3332.38C388.73 3185.96 429.765 3132.54 456.247 2999.8C486.067 2850.36 526.764 2748.35 573.698 2676.4C605.851 2627.04 641.048 2592.14 677.99 2566.9C750.774 2517.17 830.278 2503.93 913.332 2533.15C961.889 2550.25 1011.19 2579.66 1060.48 2617.55C1096.39 2645.13 1132.74 2676.62 1169.59 2712.07C1222.46 2762.91 1277.2 2824.48 1328.62 2845.64C1346.54 2853.02 1363.85 2855.13 1380.66 2853.54C1452.77 2847.94 1523.18 2810.37 1570.26 2689.81C1582.4 2658.7 1593.07 2622.39 1602.14 2580.19C1637.29 2416.7 1654.6 2176.95 1656.86 1891.68C1657.26 1842.91 1657.26 1792.43 1657.06 1740.98C1656.34 1557.35 1653.19 1361.52 1657.45 1188.63C1659.98 1085.43 1663.95 984.469 1677.2 919.846C1685.45 879.573 1697.24 856.499 1712.55 849.608C1728.23 842.548 1745.18 847.354 1763.04 853.095C1824.26 873.75 1892.11 877.348 1922.55 727.056M359.502 4520.38C320.226 4030.93 317.724 3585.7 362.19 3313.6C386.152 3164.8 428.235 3113.13 454.66 2976.46C484.341 2822.94 524.872 2716.2 571.922 2640.84C604.159 2589.13 639.56 2552.43 676.904 2526.51C750.481 2475.49 831.557 2465.4 916.92 2502.23C966.828 2523.76 1017.72 2559.11 1068.76 2603.85C1105.99 2636.47 1143.71 2673.53 1181.9 2714.64C1236.75 2773.69 1293.42 2843.59 1346.34 2869.73C1364.77 2878.82 1382.51 2882.22 1399.7 2881.46C1473.44 2879.25 1543.24 2832.11 1589.14 2699.75C1600.97 2665.63 1611.3 2626.2 1620.03 2580.91C1653.8 2405.81 1669.15 2154.01 1669.48 1858.2C1669.55 1807.65 1669.21 1755.38 1668.69 1702.2C1666.83 1512.4 1662.69 1311.07 1666.64 1134.94C1668.98 1029.78 1673.13 928.268 1686.46 862.196C1694.76 820.996 1706.55 796.64 1721.67 787.68C1737.25 778.438 1754.17 780.827 1772.05 784.655C1833.26 798.6 1901.76 803.226 1933.48 654.448M361.262 4506.89C319.211 4013.81 315.198 3565.74 359.302 3294.82C383.583 3143.68 426.843 3094.28 453.074 2953.11C482.757 2796.1 522.989 2684.09 570.146 2605.27C602.462 2551.19 638.067 2512.72 675.818 2486.16C750.184 2433.83 832.844 2426.92 920.507 2471.3C971.757 2497.23 1024.24 2538.56 1077.04 2590.15C1115.59 2627.8 1154.68 2670.43 1194.22 2717.24C1251.03 2784.5 1309.56 2862.17 1364.07 2893.85C1382.98 2904.49 1401.19 2909.37 1418.74 2909.41C1494.1 2910.6 1563.3 2853.88 1608.03 2709.68C1619.55 2672.58 1629.52 2630.01 1637.92 2581.66C1670.29 2394.95 1683.71 2131.1 1682.11 1824.76C1681.85 1772.42 1681.18 1718.35 1680.34 1663.45C1677.35 1467.5 1672.21 1260.65 1675.84 1081.3C1678 974.178 1682.32 872.138 1695.73 804.59C1704.09 762.461 1715.87 736.823 1730.8 725.795C1746.29 714.373 1763.19 714.344 1781.07 716.234C1842.28 723.463 1911.42 729.098 1944.43 581.854M363.023 4493.4C318.204 3996.69 312.672 3545.73 356.409 3276.03C381.004 3122.5 425.299 3074.8 451.478 2929.71C481.008 2768.56 521.093 2651.89 568.36 2569.63C600.761 2513.21 636.564 2472.95 674.722 2445.72C749.882 2392.09 834.119 2388.33 924.082 2440.29C976.681 2470.66 1030.75 2517.93 1085.3 2576.37C1125.18 2619.06 1165.67 2667.6 1206.52 2719.78C1265.36 2795.71 1325.79 2881.3 1381.79 2917.9C1401.19 2930.26 1419.85 2936.44 1437.77 2937.3C1514.76 2941.89 1583.35 2875.6 1626.92 2719.58C1638.12 2679.47 1647.76 2633.79 1655.8 2582.3C1686.79 2384.03 1698.25 2108.11 1694.72 1791.23C1694.13 1737.07 1693.13 1681.24 1691.97 1624.61C1687.84 1422.5 1681.71 1210.16 1685.03 1027.58C1687 918.503 1691.5 815.908 1704.99 746.91C1713.4 703.853 1725.17 676.933 1739.92 663.86C1755.32 650.234 1772.2 647.835 1790.09 647.763C1851.29 648.279 1921.08 654.943 1955.38 509.235M364.783 4479.94C317.194 3979.59 310.142 3525.74 353.512 3257.23C378.426 3101.36 423.755 3055.34 449.883 2906.34C479.256 2741.03 519.197 2619.72 566.571 2534.03C599.048 2475.23 635.062 2433.18 673.628 2405.31C749.58 2350.39 835.398 2349.81 927.662 2409.31C981.603 2444.09 1037.27 2497.36 1093.58 2562.6C1134.78 2610.35 1176.63 2664.44 1218.83 2722.29C1279.63 2806.4 1342.01 2900.41 1399.51 2941.93C1419.43 2956.04 1438.53 2963.52 1456.8 2965.2C1535.43 2973.16 1603.42 2897.35 1645.81 2729.48C1656.7 2686.36 1665.99 2637.56 1673.69 2582.98C1703.3 2373.13 1712.8 2085.14 1707.35 1757.74C1706.43 1701.8 1705.1 1644.19 1703.62 1585.82C1698.34 1377.55 1691.23 1159.71 1694.22 973.888C1696.01 862.852 1700.68 759.701 1714.26 689.255C1722.72 645.27 1734.48 617.043 1749.05 601.928C1764.33 586.072 1781.2 581.304 1799.11 579.319C1860.31 573.12 1930.73 580.794 1966.32 436.622M366.548 4466.45C316.183 3962.47 307.622 3505.75 350.629 3238.45C375.857 3080.21 422.225 3035.9 448.297 2882.96C477.517 2713.53 517.31 2587.55 564.795 2498.42C597.352 2437.25 633.568 2393.44 672.537 2364.9C749.279 2308.69 836.681 2311.27 931.245 2378.35C986.537 2417.57 1043.79 2476.78 1101.85 2548.86C1144.38 2601.66 1187.59 2661.28 1231.14 2724.87C1293.9 2817.12 1358.24 2919.58 1417.23 2966C1437.65 2981.85 1457.19 2990.61 1475.83 2993.11C1556.09 3004.47 1623.48 2919.07 1664.7 2739.39C1675.27 2693.29 1684.22 2641.37 1691.57 2583.71C1719.8 2362.29 1727.34 2062.2 1719.96 1724.26C1718.71 1666.51 1717.05 1607.14 1715.25 1547.04C1708.84 1332.58 1700.73 1109.27 1703.41 920.199C1705.01 807.208 1709.86 703.528 1723.52 631.606C1732.04 586.721 1743.77 557.135 1758.18 540C1773.35 521.941 1790.2 514.803 1808.11 510.855C1869.32 497.941 1940.38 506.622 1977.26 364.012M368.308 4452.96C315.171 3945.35 305.091 3485.72 347.736 3219.65C373.283 3059.07 420.685 3016.43 446.705 2859.59C475.772 2686.03 515.417 2555.38 563.019 2462.82C595.66 2399.31 632.075 2353.69 671.45 2324.48C748.99 2267 837.963 2272.71 934.833 2347.36C991.466 2391 1050.35 2456.62 1110.12 2535.08C1154 2593.23 1198.55 2658.07 1243.46 2727.41C1308.18 2827.8 1374.47 2938.71 1434.96 2990.04C1455.88 3007.61 1475.86 3017.68 1494.86 3020.98C1576.75 3035.76 1643.72 2941.52 1683.58 2749.27C1693.89 2700.35 1702.45 2645.11 1709.45 2584.37C1736.31 2351.36 1741.9 2039.2 1732.59 1690.74C1731.01 1631.21 1729.01 1570.03 1726.9 1508.21C1719.34 1287.59 1710.25 1058.79 1712.62 866.499C1714.03 751.575 1719.06 647.314 1732.79 573.944C1741.36 528.131 1753.08 497.241 1767.31 478.057C1782.37 457.747 1799.22 448.262 1817.14 442.376C1878.34 422.75 1950.05 432.462 1988.22 291.362M370.068 4439.47C314.164 3928.25 302.569 3465.74 344.847 3200.88C370.705 3037.91 419.145 2996.97 445.114 2836.21C474.028 2658.5 513.53 2523.23 561.238 2427.22C593.959 2361.33 630.577 2313.94 670.363 2284.09C748.692 2225.32 839.25 2234.2 938.42 2316.4C996.399 2364.48 1056.86 2435.97 1118.4 2521.35C1163.6 2584.49 1209.51 2654.93 1255.77 2729.95C1322.45 2838.49 1390.7 2957.84 1452.68 3014.09C1474.11 3033.44 1494.53 3044.78 1513.89 3048.9C1597.41 3067.05 1663.76 2963.13 1702.47 2759.19C1712.46 2707.23 1720.73 2649.08 1727.34 2585.07C1753.03 2341.22 1756.45 2016.26 1745.21 1657.25C1743.29 1595.91 1740.97 1532.97 1738.54 1469.45C1729.85 1242.67 1719.75 1008.35 1721.81 812.83C1723.04 695.949 1728.24 591.134 1742.06 516.314C1750.69 469.572 1762.39 437.352 1776.44 416.174C1791.39 393.637 1808.23 381.806 1826.16 373.984C1887.36 347.645 1959.71 358.363 1999.16 218.798M371.833 4426C313.153 3911.12 300.048 3445.77 341.959 3182.1C368.135 3016.79 417.61 2977.55 443.531 2812.87C472.288 2631 511.642 2491.08 559.466 2391.64C592.267 2323.41 629.096 2274.24 669.276 2243.7C748.399 2183.63 840.537 2195.69 942.008 2285.47C1001.33 2337.96 1063.38 2415.33 1126.68 2507.64C1173.19 2575.74 1220.48 2651.79 1268.09 2732.54C1336.73 2849.25 1406.93 2977.02 1470.4 3038.22C1492.35 3059.28 1513.21 3071.91 1532.93 3076.85C1618.08 3098.42 1683.8 2984.77 1721.37 2769.16C1731.03 2714.15 1738.96 2652.88 1745.23 2585.81C1769.5 2330.16 1771.02 1993.37 1757.85 1623.81C1755.6 1560.69 1752.94 1495.96 1750.19 1430.7C1740.36 1197.76 1729.27 957.95 1731.02 759.184C1732.06 640.346 1737.44 535 1751.34 458.707C1760.02 411.037 1771.69 377.49 1785.57 354.289C1800.4 329.501 1817.24 315.322 1835.18 305.562C1896.38 272.535 1969.37 284.235 2010.11 146.232M373.589 4412.51C312.139 3894 297.514 3425.74 339.062 3163.28C365.553 2995.59 416.066 2958.07 441.936 2789.46C470.539 2603.48 509.746 2458.88 557.676 2356C590.557 2285.4 627.59 2234.45 668.18 2203.27C748.093 2141.9 841.807 2157.11 945.587 2254.46C1006.26 2311.39 1069.88 2394.63 1134.95 2493.86C1182.78 2566.94 1231.44 2648.59 1280.4 2735.08C1351 2859.91 1423.16 2996.15 1488.13 3062.25C1510.58 3085.05 1531.87 3098.96 1551.98 3104.72C1638.75 3129.69 1703.83 3006.34 1740.26 2779.02C1749.6 2720.99 1757.19 2656.55 1763.13 2586.46C1785.96 2319.01 1785.57 1970.38 1770.48 1590.27C1767.9 1525.36 1764.91 1458.85 1761.84 1391.86C1750.86 1152.76 1738.79 907.451 1740.22 705.462C1741.07 584.667 1746.63 478.767 1760.62 401.024C1769.35 352.425 1780.95 317.352 1794.71 292.326C1809.38 265.084 1826.25 248.784 1844.2 237.062C1905.4 197.32 1979.04 210.026 2021.06 73.5582M375.354 4399.03C311.132 3876.9 294.992 3405.75 336.174 3144.5C362.983 2974.47 414.527 2938.63 440.345 2766.1C468.795 2575.98 507.854 2426.71 555.895 2320.4C653.749 2103.84 789.201 2065.29 949.17 2223.5C1056.78 2329.93 1173.94 2519.98 1292.71 2737.66C1365.28 2870.64 1439.39 3015.3 1505.85 3086.35C1628.03 3216.94 1715.69 3083.23 1759.15 2788.97C1802.61 2494.7 1804.58 2049.76 1783.09 1556.82C1763.6 1109.5 1725.73 592.106 1769.88 343.399C1820.35 58.9693 1964.16 212.339 2032 1M1 1079.25C112.739 1720.49 262.027 2338.53 414.847 2792.53C458.325 2921.69 503.692 3041.22 542.25 3085.96C653.657 3215.22 670.591 2773.49 698.976 2511.21C733.235 2194.71 764.322 1865.97 809.261 1589.1C834.489 1433.66 871.368 1292.28 943.12 1410.96C1015.78 1531.16 1094.38 1866.39 1166.64 2155.99C1250.83 2493.45 1341.21 2812.87 1431 3038.06C1520.78 3263.26 1610.1 3385.47 1663.48 3307.28C1705.28 3246.02 1722.29 3070.47 1732.55 2880.15C1759.51 2380.08 1745.95 1748.14 1693.14 1042.24M3.27822 1108.53C102.032 1675.27 231.725 2209.75 372.406 2650.15C385.472 2691.04 398.563 2731.12 411.683 2769.86C454.794 2897.13 499.675 3015.07 537.926 3060.55C648.588 3192.25 667.798 2771.68 697.486 2517.38C723.805 2291.93 747.847 2056.17 777.318 1838.05C787.498 1762.13 798.27 1688.42 809.921 1617.97C835.197 1465.18 871.668 1325.65 941.872 1437.69C1012.96 1551.16 1089.77 1872.65 1160.49 2150.13C1242.89 2473.44 1331.31 2779.49 1419.29 2994.98C1449.93 3070.02 1480.52 3133.03 1509.63 3180.09C1564.12 3268.18 1613.43 3300.45 1648.08 3250.9C1689.69 3191.39 1707.46 3022.06 1718.8 2839.49C1741.79 2470.07 1741.92 2028.89 1719.08 1534.74C1712.26 1387.29 1703.4 1235.16 1692.48 1078.77M5.55541 1137.78C101.016 1685.62 227.02 2188.36 369.62 2629.46C382.563 2669.49 395.524 2709.02 408.512 2747.16C451.256 2872.48 495.652 2988.87 533.604 3035.1C643.529 3169.25 665.001 2769.82 695.991 2523.51C723.215 2307.12 747.667 2076.96 777.778 1862.68C788.065 1788.34 798.905 1716.01 810.575 1646.78C835.894 1496.63 871.966 1358.96 940.618 1464.37C1010.14 1571.13 1085.17 1878.88 1154.33 2144.21C1234.92 2453.37 1321.4 2746.07 1407.57 2951.84C1437.58 3023.46 1467.57 3083.58 1496.13 3128.32C1549.6 3212.18 1598.18 3242.55 1632.66 3194.45C1674.09 3136.66 1692.6 2973.59 1705.03 2798.75C1730.27 2445.1 1733.79 2026.09 1714.82 1552.92C1709.16 1411.73 1701.51 1265.78 1691.8 1115.26M7.83262 1167.06C100.005 1696.01 222.296 2167.01 366.834 2608.81C379.66 2648 392.486 2686.98 405.338 2724.46C447.715 2847.88 491.625 2962.68 529.27 3009.64C638.45 3146.26 662.175 2767.97 694.492 2529.66C722.604 2322.32 747.701 2098.63 778.225 1887.31C788.692 1814.82 799.526 1743.61 811.221 1675.6C836.587 1528.11 872.256 1392.28 939.352 1491.06C1007.3 1591.1 1080.55 1885.08 1148.16 2138.29C1226.96 2433.3 1311.47 2712.65 1395.84 2908.71C1425.23 2976.95 1454.6 3034.16 1482.63 3076.63C1535.08 3156.25 1582.91 3184.71 1617.24 3138.02C1658.47 3081.94 1677.73 2925.12 1691.25 2758.07C1718.74 2420.13 1725.65 2023.3 1710.56 1571.11C1706.06 1436.18 1699.61 1296.41 1691.11 1151.72M10.1098 1196.31C98.9899 1706.37 217.561 2145.7 364.054 2588.12C376.756 2626.47 389.456 2664.91 402.172 2701.76C444.183 2823.25 487.607 2936.48 524.949 2984.19C633.383 3123.25 659.345 2766.06 693.002 2535.76C721.985 2337.45 747.596 2119.68 778.689 1911.93C789.285 1841.1 800.161 1771.21 811.88 1704.42C837.29 1559.55 872.55 1425.57 938.103 1517.73C1004.48 1611.05 1075.94 1891.29 1142.01 2132.37C1219.01 2413.23 1301.57 2679.23 1384.14 2865.59C1412.89 2930.45 1441.66 2984.74 1469.15 3024.95C1520.56 3100.27 1567.66 3126.86 1601.84 3081.61C1642.89 3027.27 1662.9 2876.69 1677.5 2717.39C1707.24 2395.2 1717.54 2020.54 1706.33 1589.34C1702.99 1460.67 1697.74 1327.07 1690.46 1188.25M12.391 1225.58C97.9778 1716.75 212.816 2124.45 361.271 2567.46C373.852 2604.98 386.421 2642.83 399.001 2679.06C440.645 2798.65 483.588 2910.31 520.623 2958.74C628.312 3100.23 656.491 2764.14 691.506 2541.87C721.339 2352.51 747.472 2140.71 779.139 1936.53C789.864 1867.35 800.786 1798.78 812.526 1733.2C837.982 1591 872.839 1458.86 936.84 1544.39C1001.65 1630.99 1071.32 1897.46 1135.85 2126.42C1211.05 2393.15 1291.65 2645.78 1372.41 2822.41C1400.53 2883.88 1428.7 2935.25 1455.65 2973.2C1506.04 3044.29 1552.4 3068.96 1586.42 3025.14C1627.27 2972.5 1648.03 2828.15 1663.73 2676.6C1695.71 2370.15 1709.4 2017.68 1702.07 1607.44C1699.88 1485.04 1695.83 1357.62 1689.77 1224.65M14.6692 1254.86C96.9627 1727.14 208.059 2103.29 358.491 2546.83C370.946 2583.55 383.388 2620.83 395.836 2656.4C437.109 2774.06 479.571 2884.17 516.303 2933.34C623.25 3077.28 653.629 2762.25 690.019 2548.08C720.682 2367.6 747.364 2161.82 779.608 1961.24C790.462 1893.71 801.431 1826.45 813.195 1762.12C838.694 1622.55 873.147 1492.28 935.601 1571.17C998.836 1651.07 1066.73 1903.77 1129.71 2120.61C1203.11 2373.19 1281.76 2612.46 1360.71 2779.39C1388.21 2837.46 1415.76 2885.95 1442.17 2921.57C1491.54 2988.42 1537.16 3011.2 1571.03 2968.81C1611.69 2917.88 1633.19 2779.8 1649.98 2636.02C1684.21 2345.31 1701.29 2014.99 1697.84 1625.76C1696.81 1509.61 1693.97 1388.36 1689.11 1261.26M16.9454 1284.11C95.9506 1737.49 203.287 2082.14 355.709 2526.14C368.042 2562.06 380.357 2598.75 392.665 2633.68C433.576 2749.45 475.552 2857.98 511.977 2907.85C618.183 3054.26 650.738 2760.22 688.519 2554.17C719.994 2382.54 747.228 2182.81 780.06 1985.81C791.038 1919.92 802.061 1854.02 813.841 1790.89C839.386 1653.97 873.437 1525.54 934.338 1597.8C996 1670.96 1062.11 1909.95 1123.54 2114.64C1195.14 2353.07 1271.83 2578.98 1348.98 2736.17C1375.85 2790.89 1402.79 2836.44 1428.66 2869.8C1477.01 2932.4 1521.88 2953.25 1555.61 2912.32C1596.08 2863.11 1618.33 2731.27 1636.2 2595.24C1672.68 2320.26 1693.15 2012.13 1693.58 1643.86C1693.71 1533.97 1692.07 1418.9 1688.43 1297.66M19.2237 1313.39C94.9355 1747.88 198.506 2061.11 352.924 2505.49C365.132 2540.63 377.315 2576.68 389.496 2610.99C430.036 2724.83 471.526 2831.78 507.648 2882.41C613.108 3031.25 647.824 2758.19 687.025 2560.32C719.286 2397.47 747.102 2203.85 780.516 2010.47C791.619 1946.23 802.692 1881.65 814.496 1819.73C840.084 1685.45 873.732 1558.89 933.08 1624.48C993.174 1690.94 1057.5 1916.15 1117.38 2108.72C1187.18 2333 1261.92 2545.56 1337.26 2693.05C1363.5 2744.37 1389.83 2787.02 1415.17 2818.12C1462.5 2876.44 1506.62 2895.41 1540.2 2855.89C1580.48 2808.4 1603.48 2682.81 1622.43 2554.5C1661.16 2295.28 1685.03 2009.32 1689.33 1662.05C1690.62 1558.42 1690.18 1449.55 1687.76 1334.12M21.5059 1342.67C93.9244 1758.26 193.725 2040.16 350.143 2484.83C362.225 2519.17 374.285 2554.64 386.325 2588.31C426.503 2700.24 467.508 2805.6 503.323 2856.98C608.042 3008.28 644.896 2756.12 685.53 2566.47C718.556 2412.33 746.963 2224.84 780.972 2035.09C792.194 1972.46 803.323 1909.25 815.147 1848.55C840.782 1716.92 874.026 1592.2 931.823 1651.16C990.347 1710.91 1052.89 1922.36 1111.22 2102.8C1179.22 2312.93 1252.01 2512.13 1325.54 2649.9C1351.16 2697.84 1376.88 2737.58 1401.67 2766.39C1447.98 2820.48 1491.37 2837.54 1524.78 2799.46C1564.88 2753.72 1588.63 2634.36 1608.67 2513.81C1649.64 2270.31 1676.9 2006.54 1685.08 1680.23C1687.53 1582.87 1688.29 1480.18 1687.08 1370.61M23.7781 1371.92C92.9043 1768.62 188.925 2019.25 347.361 2464.17C359.318 2497.74 371.25 2532.6 383.163 2565.63C422.97 2675.64 463.494 2779.45 499.005 2831.55C602.979 2985.28 641.951 2753.99 684.048 2572.64C717.816 2427.13 746.831 2245.84 781.444 2059.76C792.786 1998.77 803.97 1936.89 815.813 1877.41C841.492 1748.41 874.332 1625.56 930.582 1677.88C987.536 1730.92 1048.29 1928.6 1105.08 2096.92C1171.28 2292.9 1242.11 2478.75 1313.84 2606.82C1338.83 2651.38 1363.95 2688.21 1388.2 2714.74C1433.49 2764.57 1476.13 2779.74 1509.39 2743.06C1549.31 2699.03 1573.79 2585.93 1594.92 2473.15C1638.13 2245.41 1668.79 2003.82 1680.86 1698.48C1684.46 1607.38 1686.43 1510.86 1686.43 1407.16M26.0603 1401.19C91.8933 1779.01 184.131 1998.48 344.58 2443.51C356.411 2476.32 368.216 2510.52 379.994 2542.95C419.438 2651.05 459.476 2753.29 494.68 2806.13C597.909 2962.31 638.973 2751.79 682.553 2578.79C717.039 2441.86 746.688 2266.84 781.896 2084.39C793.354 2025.01 804.596 1964.49 816.46 1906.23C842.186 1779.89 874.618 1658.86 929.316 1704.57C984.696 1750.88 1043.67 1934.84 1098.91 2090.99C1163.31 2272.84 1232.19 2445.3 1302.11 2563.68C1326.47 2604.84 1350.97 2638.79 1374.69 2662.99C1418.95 2708.59 1460.85 2721.86 1493.96 2686.63C1533.68 2644.31 1558.93 2537.46 1581.14 2432.41C1626.6 2220.39 1660.65 2000.99 1676.59 1716.65C1681.35 1631.8 1684.52 1541.47 1685.74 1443.62M28.3365 1430.44C90.8812 1789.36 179.328 1977.79 341.794 2422.82C353.496 2454.87 365.182 2488.53 376.823 2520.23C415.899 2626.65 455.448 2727.06 490.35 2780.64C592.838 2939.29 635.971 2749.48 681.049 2584.88C716.23 2456.42 746.526 2287.73 782.346 2108.99C793.92 2051.21 805.222 1992.09 817.114 1935.04C842.883 1811.34 874.912 1692.17 928.062 1731.25C981.873 1770.85 1039.06 1941.04 1092.75 2085.07C1155.36 2252.77 1222.27 2411.87 1290.39 2520.52C1314.12 2558.29 1338.02 2589.33 1361.19 2611.27C1404.43 2652.59 1445.6 2663.97 1478.55 2630.16C1518.08 2589.58 1544.07 2488.97 1567.37 2391.68C1615.07 2195.42 1652.52 1998.18 1672.33 1734.81C1678.25 1656.22 1682.62 1572.06 1685.05 1480.05M30.6147 1459.72C89.866 1799.75 174.525 1957.25 339.013 2402.16C350.59 2433.48 362.145 2466.47 373.653 2497.55C412.363 2602.05 451.431 2700.88 486.029 2755.22C587.775 2916.3 632.945 2747.1 679.562 2591.04C715.414 2471 746.382 2308.69 782.806 2133.64C794.492 2077.48 805.857 2019.72 817.769 1963.89C843.585 1842.84 875.211 1725.52 926.809 1757.96C979.051 1790.84 1034.46 1947.27 1086.6 2079.17C1147.4 2232.73 1212.36 2378.48 1278.67 2477.42C1301.79 2511.82 1325.07 2539.94 1347.71 2559.6C1389.92 2596.69 1430.35 2606.15 1463.15 2573.79C1502.49 2534.93 1529.22 2440.57 1553.62 2351.03C1603.57 2170.49 1644.4 1995.44 1668.11 1753.06C1675.18 1680.74 1680.76 1602.76 1684.4 1516.61M32.8969 1489C88.855 1810.14 169.722 1936.82 336.232 2381.51C347.684 2412.09 359.115 2444.42 370.488 2474.86C408.831 2577.46 447.413 2674.72 481.704 2729.77C582.705 2893.29 629.893 2744.62 678.068 2597.15C714.568 2485.43 746.217 2329.59 783.266 2158.27C795.068 2103.71 806.492 2047.31 818.424 1992.7C844.283 1874.29 875.505 1758.83 925.556 1784.64C976.223 1810.79 1029.85 1953.48 1080.44 2073.25C1139.45 2212.65 1202.45 2345.05 1266.96 2434.27C1289.44 2465.28 1312.12 2490.49 1334.22 2507.88C1375.41 2540.72 1415.09 2548.28 1447.75 2517.34C1486.89 2480.18 1514.38 2392.08 1539.86 2310.27C1592.05 2145.49 1636.27 1992.6 1663.86 1771.19C1672.09 1705.13 1678.87 1633.32 1683.72 1553.04M35.1701 1518.25C87.8359 1820.5 164.914 1916.51 333.446 2360.85C344.77 2390.7 356.077 2422.38 367.313 2452.17C405.291 2552.88 443.391 2648.55 477.379 2704.36C577.634 2870.31 626.807 2742.07 676.577 2603.34C713.704 2499.83 746.057 2350.5 783.726 2182.92C795.639 2129.95 807.126 2074.94 819.079 2021.54C844.985 1905.79 875.804 1792.18 924.303 1811.34C973.401 1830.79 1025.24 1959.73 1074.29 2067.36C1131.49 2192.61 1192.54 2311.65 1255.24 2391.17C1277.1 2418.79 1299.16 2441.09 1320.72 2456.18C1360.9 2484.77 1399.83 2490.42 1432.33 2460.91C1471.29 2425.49 1499.52 2343.63 1526.08 2269.58C1580.53 2120.52 1628.14 1989.82 1659.6 1789.4C1669 1729.63 1676.98 1664 1683.05 1589.55M37.4513 1547.53C86.8278 1830.88 160.114 1896.35 330.669 2340.19C341.868 2369.33 353.051 2400.33 364.152 2429.48C401.762 2528.25 439.353 2622.08 473.058 2678.88C572.5 2846.48 623.697 2739.35 675.086 2609.45C712.814 2514.06 745.885 2371.34 784.186 2207.55C796.206 2156.16 807.761 2102.53 819.734 2050.36C845.684 1937.23 876.098 1825.49 923.048 1838.02C970.582 1850.75 1020.64 1965.94 1068.13 2061.44C1123.53 2172.54 1182.63 2278.22 1243.52 2348.02C1264.75 2372.27 1286.21 2391.64 1307.23 2404.46C1346.37 2428.78 1384.57 2432.56 1416.92 2404.48C1455.69 2370.77 1484.67 2295.16 1512.32 2228.88C1569.02 2095.57 1620.01 1987.03 1655.36 1807.58C1665.91 1754.07 1675.1 1694.62 1682.38 1626M39.7245 1576.78C85.8077 1841.24 155.313 1876.31 327.879 2319.5C338.953 2347.94 350.008 2378.23 360.973 2406.77C398.216 2503.64 435.321 2595.89 468.719 2653.41C567.419 2823.46 620.55 2736.52 673.574 2615.54C711.875 2528.17 745.689 2392.14 784.624 2232.13C796.747 2182.29 808.374 2130.08 820.371 2079.13C846.368 1968.66 876.379 1858.76 921.773 1864.63C967.733 1870.63 1016 1972.07 1061.95 2055.44C1115.56 2152.39 1172.7 2244.72 1231.79 2304.82C1252.39 2325.67 1273.24 2342.14 1293.72 2352.69C1331.84 2372.77 1369.3 2374.62 1401.49 2347.98C1440.08 2316 1469.8 2246.61 1498.54 2188.08C1557.48 2070.49 1611.87 1984.14 1651.09 1825.69C1662.81 1778.43 1673.19 1725.16 1681.68 1662.41M42.0057 1606.05C84.8006 1851.65 150.518 1856.43 325.101 2298.84C336.047 2326.57 346.977 2356.19 357.81 2384.07C394.687 2479.01 431.311 2569.71 464.406 2627.98C562.365 2800.47 617.388 2733.56 672.096 2621.71C710.949 2542.25 745.523 2412.97 785.096 2256.8C797.322 2208.53 809.025 2157.75 821.038 2107.99C847.078 2000.15 876.681 1892.09 920.532 1891.35C964.922 1890.64 1011.41 1978.31 1055.81 2049.57C1107.62 2132.39 1162.81 2211.36 1220.09 2261.74C1240.06 2279.19 1260.3 2292.77 1280.24 2301.04C1317.35 2316.87 1354.06 2316.82 1386.1 2291.62C1424.5 2261.35 1454.97 2198.22 1484.8 2147.44C1545.98 2045.61 1603.77 1981.45 1646.86 1843.95C1659.74 1802.95 1671.32 1755.85 1681.03 1698.96M44.2839 1635.33C83.7865 1862.03 145.733 1836.75 322.321 2278.21C333.143 2305.26 343.944 2334.15 354.641 2361.41C391.152 2454.45 427.29 2543.57 460.078 2602.56C557.295 2777.52 614.185 2730.47 670.597 2627.86C709.985 2556.22 745.323 2433.75 785.548 2281.43C797.876 2234.72 809.652 2185.35 821.689 2136.83C847.777 2031.65 876.976 1925.44 919.275 1918.06C962.096 1910.65 1006.8 1984.57 1049.65 2043.68C1099.66 2112.35 1152.89 2177.96 1208.36 2218.62C1227.71 2232.71 1247.34 2243.35 1266.74 2249.32C1302.82 2260.91 1338.8 2258.96 1370.68 2235.17C1408.88 2206.62 1440.11 2149.74 1471.02 2106.73C1534.44 2020.63 1595.63 1978.65 1642.6 1862.14C1656.63 1827.4 1669.42 1786.48 1680.35 1735.45M46.5611 1664.58C82.7744 1872.39 140.951 1817.2 319.535 2257.53C330.233 2283.9 340.909 2312.07 351.471 2338.7C387.614 2429.8 423.271 2517.37 455.752 2577.11C552.233 2754.54 610.948 2727.19 669.107 2634.01C709.007 2570.08 745.132 2454.52 786.012 2306.08C798.443 2260.93 810.287 2212.98 822.348 2165.67C848.479 2063.13 877.279 1958.78 918.022 1944.77C959.27 1930.62 1002.19 1990.81 1043.5 2037.79C1091.71 2092.31 1142.99 2144.56 1196.65 2175.52C1215.37 2186.21 1234.39 2193.95 1253.25 2197.65C1288.31 2204.97 1323.54 2201.13 1355.28 2178.79C1393.3 2151.98 1425.27 2101.33 1457.27 2066.05C1522.93 1995.7 1587.51 1975.89 1638.36 1880.37C1653.55 1851.89 1667.54 1817.15 1679.68 1771.98M48.8423 1693.86C81.7633 1882.78 136.183 1797.84 316.758 2236.87C327.332 2262.59 337.879 2290.03 348.305 2316.01C384.082 2405.18 419.269 2491.45 451.431 2551.65C547.226 2732.29 607.686 2723.72 667.615 2640.12C708.007 2583.8 744.931 2475.24 786.467 2330.68C798.997 2287.06 810.917 2240.55 823 2194.46C849.176 2094.58 877.568 1992.07 916.764 1971.42C956.443 1950.57 997.577 1996.98 1037.34 2031.85C1083.74 2072.22 1133.07 2111.11 1184.92 2132.34C1203.02 2139.64 1221.43 2144.48 1239.75 2145.91C1273.79 2148.98 1308.28 2143.24 1339.86 2122.32C1377.69 2097.21 1410.41 2052.82 1443.5 2025.3C1511.41 1970.68 1579.38 1973.05 1634.1 1898.5C1650.46 1876.28 1665.65 1847.75 1679 1808.39M51.1155 1723.11C80.7432 1893.14 131.417 1778.64 313.968 2216.18C324.418 2241.22 334.836 2267.93 345.13 2293.29C380.54 2380.54 415.246 2465.25 447.101 2526.2C542.155 2709.31 604.384 2720.09 666.111 2646.25C706.972 2597.39 744.709 2495.91 786.918 2355.31C799.546 2313.23 811.543 2268.15 823.65 2223.28C849.869 2126.02 877.862 2025.39 915.506 1998.1C953.615 1970.54 992.964 2003.19 1031.18 2025.92C1075.78 2052.14 1123.15 2077.68 1173.21 2089.21C1190.68 2093.14 1208.48 2095.08 1226.26 2094.21C1259.28 2093.04 1293.03 2085.4 1324.44 2065.89C1362.09 2042.5 1395.55 2004.36 1429.74 1984.6C1499.89 1945.73 1571.25 1970.26 1629.86 1916.71C1647.37 1900.75 1663.77 1878.39 1678.33 1844.89M53.3967 1752.39C79.7321 1903.52 126.679 1759.68 311.191 2195.55C321.517 2219.94 331.811 2245.91 341.965 2270.63C377.008 2355.94 411.228 2439.1 442.78 2500.78C537.089 2686.32 601.058 2716.28 664.625 2652.41C705.941 2610.92 744.504 2516.63 787.382 2379.95C800.109 2339.41 812.186 2295.79 824.309 2252.12C850.575 2157.52 878.161 2058.73 914.257 2024.81C950.792 1990.51 988.36 2009.44 1025.03 2020.03C1067.83 2032.1 1113.25 2044.28 1161.49 2046.08C1178.33 2046.62 1195.53 2045.66 1212.76 2042.49C1244.76 2037.06 1277.76 2027.51 1309.04 2009.46C1346.49 1987.81 1380.7 1955.9 1415.97 1943.9C1488.37 1920.75 1563.13 1967.48 1625.61 1934.89C1644.27 1925.19 1661.88 1909.01 1677.66 1881.37M55.674 1781.66C78.717 1913.91 121.944 1740.92 308.41 2174.89C318.617 2198.65 328.776 2223.79 338.798 2247.94C373.468 2331.1 407.214 2412.93 438.454 2475.33C532.022 2663.31 597.693 2712.22 663.13 2658.52C704.882 2624.29 744.277 2537.23 787.838 2404.58C800.654 2365.55 812.817 2323.39 824.959 2280.93C851.269 2188.97 878.455 2092.04 913 2051.49C947.965 2010.48 983.747 2015.64 1018.87 2014.11C1059.88 2012.05 1103.33 2010.85 1149.78 2002.96C1165.99 2000.1 1182.58 1996.24 1199.27 1990.79C1230.24 1981.1 1262.51 1969.67 1293.63 1953.03C1330.89 1933.09 1365.85 1907.44 1402.2 1903.17C1476.85 1895.78 1555 1964.66 1621.36 1953.07C1641.18 1949.64 1659.99 1939.63 1676.99 1917.85M57.9522 1810.91C77.7049 1924.27 117.228 1722.34 305.624 2154.21C315.708 2177.32 325.733 2201.69 335.629 2225.25C369.927 2306.49 403.188 2386.74 434.13 2449.9C526.952 2640.33 594.301 2707.99 661.64 2664.71C703.815 2637.6 744.056 2557.88 788.298 2429.23C801.208 2391.71 813.452 2351.01 825.619 2309.8C851.976 2220.49 878.75 2125.39 911.75 2078.22C945.147 2030.5 979.144 2021.9 1012.72 2008.24C1051.93 1992.04 1093.43 1977.48 1138.07 1959.88C1153.66 1953.66 1169.63 1946.87 1185.79 1939.14C1215.74 1925.21 1247.26 1911.85 1278.23 1896.68C1315.3 1878.45 1351.01 1859.06 1388.45 1862.55C1465.35 1870.88 1546.89 1961.95 1617.13 1971.33C1638.11 1974.16 1658.12 1970.33 1676.32 1954.39M60.2294 1840.19C76.6899 1934.65 112.531 1704 302.838 2133.55C312.802 2156.03 322.699 2179.65 332.459 2202.57C366.395 2281.9 399.17 2360.57 429.805 2424.45C521.881 2617.32 590.88 2703.5 660.145 2670.82C702.734 2650.74 743.82 2578.42 788.754 2453.86C801.754 2417.82 814.083 2378.61 826.274 2338.62C852.673 2251.94 879.049 2158.71 910.492 2104.88C942.32 2050.45 974.531 2028.08 1006.56 2002.3C1043.96 1971.94 1083.51 1944.03 1126.34 1916.71C1141.3 1907.09 1156.67 1897.39 1172.29 1887.4C1201.22 1869.22 1232 1853.97 1262.81 1840.2C1299.69 1823.71 1336.15 1810.56 1374.68 1821.8C1453.82 1845.89 1538.76 1959.15 1612.87 1989.49C1635 1998.58 1656.22 2000.93 1675.64 1990.85M62.5066 1869.44C75.6738 1945.01 107.849 1685.87 300.056 2112.86C309.897 2134.72 319.669 2157.57 329.288 2179.85C362.853 2257.25 395.147 2334.37 425.479 2399C516.814 2594.34 587.433 2698.77 658.645 2676.95C701.637 2663.77 743.571 2598.95 789.204 2478.46C802.29 2443.91 814.708 2406.18 826.919 2367.41C853.366 2283.39 879.335 2192 909.23 2131.53C939.483 2070.37 969.919 2034.28 1000.39 1996.35C1036 1951.84 1073.59 1910.57 1114.62 1873.55C1128.95 1860.54 1143.71 1847.95 1158.8 1835.67C1186.71 1813.25 1216.74 1796.1 1247.4 1783.77C1284.1 1768.99 1321.31 1762.09 1360.92 1781.07C1442.31 1820.88 1530.62 1956.33 1608.63 2007.67C1631.92 2023.02 1654.34 2031.54 1674.97 2027.32M64.7838 1898.72C74.6587 1955.4 103.196 1668.01 297.276 2092.23C307.002 2113.49 316.631 2135.53 326.123 2157.18C359.325 2232.68 391.133 2308.22 421.154 2373.57C511.748 2571.35 583.962 2693.83 657.154 2683.12C700.541 2676.76 743.323 2619.47 789.669 2503.14C802.844 2470.07 815.348 2433.86 827.579 2396.28C854.068 2314.89 879.638 2225.36 907.977 2158.26C936.662 2090.39 965.31 2040.54 994.241 1990.49C1028.05 1931.83 1063.68 1877.2 1102.9 1830.46C1116.61 1814.08 1130.75 1798.55 1145.3 1783.98C1172.18 1757.29 1201.48 1738.24 1231.99 1727.35C1268.5 1714.3 1306.45 1713.64 1347.15 1740.37C1430.78 1795.91 1522.5 1953.54 1604.38 2025.85C1628.83 2047.46 1652.45 2062.19 1674.3 2063.81M67.066 1928C73.6516 1965.78 98.5659 1650.38 294.495 2071.57C304.101 2092.23 313.6 2113.49 322.952 2134.5C355.784 2208.07 387.107 2282.03 416.833 2348.15C506.682 2548.37 580.471 2688.66 655.663 2689.27C699.438 2689.6 743.069 2639.9 790.124 2527.76C803.381 2496.16 815.978 2461.46 828.229 2425.09C854.766 2346.36 879.928 2258.68 906.72 2184.95C933.835 2110.37 960.698 2046.74 988.082 1984.57C1020.09 1911.76 1053.77 1843.77 1091.18 1787.33C1104.26 1767.56 1117.8 1749.13 1131.81 1732.29C1157.67 1701.35 1186.23 1680.4 1216.58 1670.92C1252.89 1659.59 1291.59 1665.18 1333.38 1699.67C1419.26 1770.97 1514.37 1950.76 1600.13 2044.07C1625.74 2071.93 1650.57 2092.84 1673.62 2100.29M69.3432 1957.25C72.6365 1976.14 93.9554 1632.99 291.713 2050.89C301.205 2070.95 310.562 2091.39 319.787 2111.78C352.252 2183.45 383.093 2255.83 412.507 2322.67C501.611 2525.34 576.959 2683.22 654.173 2695.38C698.339 2702.33 742.715 2659.85 790.588 2552.4C803.903 2522.12 816.617 2489.05 828.888 2453.91C855.468 2377.81 880.23 2291.99 905.471 2211.62C931.011 2130.31 956.09 2052.95 981.933 1978.64C1012.14 1891.68 1043.86 1810.34 1079.47 1744.18C1091.92 1721.01 1104.85 1699.68 1118.32 1680.56C1143.16 1645.38 1170.97 1622.53 1201.17 1614.49C1237.3 1604.87 1276.75 1616.69 1319.62 1658.94C1407.75 1745.96 1506.25 1947.95 1595.88 2062.22C1622.65 2096.35 1648.68 2123.43 1672.95 2136.75M71.6204 1986.52C71.6204 1986.52 89.37 1615.87 288.928 2030.23C488.486 2444.59 619.789 2943 791.041 2577.01C909.377 2324.11 977.698 1839.38 1104.82 1628.87C1157.12 1542.26 1225.13 1526.45 1305.85 1618.24C1396.22 1721.02 1498.11 1945.16 1591.64 2080.43C1619.56 2120.82 1646.79 2154.08 1672.28 2173.26" stroke="#C36176" stroke-width="0.5" stroke-miterlimit="10"/>
</svg>
