<svg width="1230" height="1830" viewBox="0 0 1230 1830" fill="none" xmlns="http://www.w3.org/2000/svg">
<path d="M946.656 1829.5C868.626 1725.83 800.658 1624.74 760.279 1533.8C747.186 1504.31 736.984 1475.75 738.406 1452.5C741.306 1405.08 791.963 1382.55 817.505 1346.71C849.951 1301.21 840.512 1232.92 792.081 1151.33C755.636 1089.94 696.811 1011.33 697.601 964.377C698.319 921.727 817.107 939.045 872.225 930.453C928.677 921.649 956.164 892.711 953.945 850.299C952.779 828.079 943.504 802.106 925.896 773.309C909.054 745.77 869.688 708.554 915.781 711.281C931.017 712.182 951.797 718.293 969.718 721.653C1031.99 733.325 1052.7 706.51 1015.08 662.914M944.554 1825.65C864.498 1722.3 795.23 1621.18 754.944 1530.66C741.489 1500.5 732.118 1471.9 732.67 1447.76C733.435 1418.68 750.967 1398.28 770.442 1378.82C783.732 1365.53 797.933 1352.69 808.339 1337.84C828.888 1308.49 834.077 1270.77 824.582 1227.08C819.028 1201.53 808.44 1173.94 792.852 1144.69C781.988 1124.2 768.641 1101.79 755.992 1079.36C738.282 1047.86 721.983 1016.33 715.292 989.583C712.866 979.967 711.678 970.97 712.156 962.856C714.187 929.342 785.732 931.002 840.992 927.624C855.858 926.747 869.554 925.508 880.433 923.128C925.418 913.491 949.096 889.388 951.505 855.077C951.923 849.172 951.711 842.961 950.867 836.463C947.868 813.297 936.967 786.471 918.528 757.059C907.603 739.638 888.504 718.678 886.151 705.612C884.7 697.565 889.669 692.584 906.614 693.157C921.42 693.658 941.596 699.163 959.1 702.066C1019.94 712.189 1041.15 685.339 1004.43 641.557M942.461 1821.8C860.371 1718.77 789.81 1617.62 749.618 1527.53C735.796 1496.69 727.253 1468.05 726.95 1443.03C726.76 1413.06 743.225 1391.64 762.015 1371.34C774.841 1357.48 788.753 1344.14 799.191 1328.96C819.827 1298.98 826.402 1261.34 819.563 1218.42C815.568 1193.34 806.947 1166.44 793.64 1138.05C784.432 1118.16 772.903 1096.46 762.099 1074.8C747.019 1044.36 733.41 1013.96 728.444 987.719C726.619 978.291 725.907 969.411 726.724 961.33C730.218 927.919 799.396 927.598 851.63 922.001C865.697 920.555 878.506 918.698 888.637 915.793C930.209 903.868 950.726 877.986 950.011 842.051C949.897 835.872 949.145 829.384 947.794 822.623C942.962 798.508 930.434 770.83 911.156 740.801C899.728 723.006 880.589 701.843 877.962 688.409C876.343 680.13 881.123 674.919 897.443 675.026C911.821 675.122 931.384 680.02 948.477 682.471C1007.87 691.047 1029.59 664.158 993.79 620.198M940.365 1817.95C856.25 1715.24 784.382 1614.06 744.289 1524.41C730.106 1492.89 722.392 1464.2 721.219 1438.3C720.067 1407.44 735.472 1385.01 753.578 1363.87C765.931 1349.43 779.554 1335.59 790.039 1320.09C810.754 1289.48 818.723 1251.91 814.546 1209.78C812.103 1185.15 805.298 1158.89 794.433 1131.42C786.777 1112.08 777.178 1091.15 768.208 1070.24C755.76 1040.86 744.838 1011.6 741.605 985.872C740.38 976.634 740.145 967.867 741.293 959.819C746.251 926.509 812.853 924.063 862.277 916.394C875.496 914.346 887.5 911.929 896.858 908.478C935.147 894.36 952.373 866.603 948.525 829.043C947.873 822.585 946.596 815.828 944.727 808.802C938.061 783.741 923.908 755.21 903.79 724.564C891.858 706.395 872.679 685.031 869.778 671.227C867.985 662.711 872.569 657.267 888.287 656.918C902.23 656.605 921.194 660.905 937.877 662.904C995.83 669.929 1018.06 643.01 983.165 598.859M938.263 1814.09C852.123 1711.71 778.954 1610.5 738.946 1521.27C724.396 1489.08 717.387 1460.29 715.483 1433.56C713.222 1401.74 727.712 1378.37 745.127 1356.39C757.014 1341.37 770.342 1327.03 780.866 1311.21C801.66 1279.97 811.015 1242.46 809.501 1201.12C808.617 1176.95 803.735 1151.36 795.196 1124.78C789.166 1106.02 781.422 1085.83 774.282 1065.67C764.464 1037.35 756.233 1009.21 754.732 984.001C754.107 974.95 754.35 966.298 755.834 958.288C762.255 925.081 826.425 920.614 872.897 910.767C885.303 908.14 896.466 905.142 905.05 901.146C940.054 884.839 953.991 855.204 947.02 816.019C945.837 809.286 944.028 802.256 941.642 794.964C933.142 768.957 917.364 739.571 896.413 708.312C883.978 689.769 864.766 668.209 861.584 654.031C859.616 645.278 864.005 639.598 879.111 638.793C892.62 638.069 910.977 641.769 927.25 643.316C983.762 648.791 1006.5 621.835 972.518 577.507M936.169 1810.24C847.995 1708.18 773.525 1606.94 733.619 1518.15C718.709 1485.27 712.497 1456.43 709.762 1428.83C706.515 1396.11 719.969 1371.73 736.699 1348.91C748.113 1333.31 761.153 1318.48 771.724 1302.34C792.596 1270.47 803.345 1233.03 804.487 1192.48C805.155 1168.76 802.21 1143.85 795.989 1118.15C791.591 1099.98 785.587 1080.47 780.394 1061.11C773.059 1033.8 767.816 1006.92 767.896 982.152C767.924 973.314 768.589 964.754 770.414 956.777C778.299 923.671 840.042 917.191 883.548 905.157C895.139 901.953 905.464 898.369 913.274 893.827C945.013 875.345 955.641 843.819 945.539 803.005C943.816 795.995 941.483 788.696 938.581 781.135C928.24 754.177 910.838 723.936 889.055 692.065C876.116 673.147 856.865 651.384 853.408 636.838C851.265 627.848 855.459 621.933 869.954 620.672C883.029 619.536 900.779 622.637 916.641 623.731C971.711 627.659 994.956 600.667 961.884 556.152M934.067 1806.39C843.867 1704.65 768.097 1603.37 728.283 1515.02C713.005 1481.46 707.607 1452.57 704.025 1424.1C699.792 1390.47 712.218 1365.09 728.256 1341.43C739.205 1325.26 751.949 1309.92 762.558 1293.46C783.51 1260.96 795.645 1223.59 799.457 1183.82C801.683 1160.57 800.67 1136.34 796.767 1111.51C794.002 1093.92 789.831 1075.15 786.489 1056.55C781.763 1030.29 779.253 1004.57 781.043 980.295C781.679 971.65 782.807 963.196 784.976 955.259C794.324 922.257 853.641 913.765 894.189 899.544C904.966 895.764 914.458 891.603 921.482 886.502C949.955 865.848 957.273 832.427 944.048 789.989C941.795 782.703 938.929 775.131 935.518 767.309C923.343 739.405 904.314 708.311 881.693 675.821C868.25 656.53 848.959 634.565 845.229 619.65C842.91 610.425 846.906 604.264 860.794 602.553C873.429 601 890.585 603.511 906.036 604.155C959.666 606.532 983.423 579.508 951.252 534.807M931.974 1802.54C839.749 1701.12 762.677 1599.81 722.957 1511.89C707.319 1477.66 702.733 1448.72 698.305 1419.37C693.094 1384.84 704.475 1358.46 719.829 1333.96C730.306 1317.2 742.761 1301.37 753.417 1284.59C774.448 1251.46 787.977 1214.16 794.444 1175.17C798.221 1152.38 799.147 1128.82 797.563 1104.88C796.433 1087.87 794.095 1069.83 792.595 1051.99C790.486 1026.77 790.702 1002.21 794.202 978.437C795.444 969.987 797.043 961.641 799.551 953.74C810.363 920.839 867.257 910.342 904.841 893.931C914.81 889.579 923.463 884.834 929.707 879.181C954.928 856.365 958.926 821.038 942.569 776.973C939.784 769.412 936.379 761.563 932.458 753.479C918.448 724.628 897.795 692.68 874.342 659.577C860.396 639.911 841.065 617.745 837.061 602.461C834.574 593.004 838.355 586.59 851.652 584.439C863.848 582.467 880.402 584.387 895.442 584.579C947.637 585.412 971.893 558.347 940.64 513.464M929.879 1798.69C835.62 1697.59 757.249 1596.25 717.621 1508.76C701.615 1473.85 697.85 1444.87 692.568 1414.63C686.386 1379.21 696.716 1351.82 711.378 1326.48C721.388 1309.14 733.548 1292.82 744.245 1275.71C765.355 1241.95 780.278 1204.72 789.4 1166.51C794.737 1144.18 797.609 1121.3 798.327 1098.23C798.839 1081.81 798.325 1064.49 798.676 1047.42C799.176 1023.26 802.116 999.839 807.336 976.573C809.186 968.313 811.253 960.081 814.1 952.215C826.374 919.417 880.854 906.921 915.468 888.311C924.63 883.386 932.442 878.06 937.907 871.855C959.89 846.885 960.55 809.645 941.061 763.954C937.737 756.116 933.807 747.997 929.372 739.644C913.528 709.847 891.251 677.043 866.957 643.324C852.507 623.284 833.144 600.921 828.859 585.263C826.198 575.569 829.765 568.901 842.468 566.313C854.219 563.917 870.185 565.254 884.807 564.989C935.562 564.273 960.323 537.171 929.978 492.107M927.778 1794.84C831.493 1694.06 751.821 1592.69 712.287 1505.62C695.921 1470.04 692.969 1441.01 686.842 1409.9C679.688 1373.58 688.967 1345.17 702.945 1319C712.482 1301.08 724.362 1284.26 735.096 1266.83C756.284 1232.44 772.594 1195.28 784.386 1157.87C791.274 1135.99 796.093 1113.8 799.114 1091.6C801.267 1075.76 802.578 1059.17 804.781 1042.86C807.898 1019.75 813.555 997.478 820.494 974.715C822.95 966.649 825.488 958.526 828.673 950.695C842.412 917.998 894.485 903.506 926.112 882.691C934.467 877.196 941.448 871.288 946.125 864.528C964.876 837.411 962.194 798.251 939.582 750.935C935.727 742.821 931.265 734.43 926.312 725.812C908.634 695.068 884.724 661.408 859.599 627.073C844.644 606.662 825.243 584.093 820.684 568.068C817.848 558.137 821.202 551.214 833.313 548.187C844.618 545.365 859.988 546.117 874.208 545.404C923.52 543.139 948.795 516.003 919.361 470.755M925.682 1790.99C827.371 1690.53 746.391 1589.13 706.958 1502.5C690.224 1466.23 688.092 1437.16 681.111 1405.17C672.988 1367.95 681.213 1338.54 694.509 1311.52C703.581 1293.03 715.164 1275.71 725.938 1257.95C747.206 1222.94 764.91 1185.84 779.357 1149.21C787.804 1127.79 794.577 1106.28 799.893 1084.95C803.696 1069.71 806.825 1053.84 810.87 1038.29C816.613 1016.23 824.979 995.109 833.628 972.847C836.691 964.975 839.7 956.961 843.222 949.168C858.424 916.574 908.096 900.092 936.74 877.068C944.287 871.001 950.435 864.515 954.326 857.197C969.859 827.942 963.821 786.853 938.078 737.908C933.684 729.515 928.697 720.855 923.227 711.972C903.716 680.282 878.18 645.767 852.222 610.821C836.764 590.036 817.322 567.267 812.49 550.871C809.479 540.704 812.612 533.523 824.137 530.063C834.99 526.81 849.738 526.955 863.581 525.816C911.309 521.895 937.232 494.831 908.708 449.396M923.589 1787.14C823.245 1687 740.972 1585.57 701.631 1499.37C684.537 1462.43 683.226 1433.31 675.39 1400.44C666.303 1362.33 673.47 1331.9 686.081 1304.05C694.681 1284.97 705.975 1267.16 716.796 1249.08C738.143 1213.44 757.241 1176.42 774.342 1140.56C784.341 1119.6 793.078 1098.78 800.686 1078.33C806.138 1063.68 811.093 1048.52 816.981 1033.74C825.347 1012.74 836.416 992.754 846.791 970.998C850.455 963.314 853.939 955.417 857.802 947.656C874.467 915.164 921.745 896.696 947.398 871.462C954.144 864.828 959.46 857.763 962.55 849.878C974.88 818.494 965.472 775.466 936.604 724.898C931.679 716.232 926.152 707.295 920.173 698.148C898.827 665.512 871.668 630.142 844.87 594.58C828.908 573.42 809.434 550.452 804.32 533.685C801.133 523.283 804.041 515.835 814.993 511.952C825.388 508.262 839.553 507.833 852.993 506.245C899.279 500.777 925.709 473.674 898.093 428.057M921.487 1783.28C819.118 1683.47 735.537 1582 696.289 1496.23C678.827 1458.62 678.344 1429.45 669.647 1395.69C659.597 1356.69 665.712 1325.26 677.631 1296.56C685.765 1276.91 696.764 1258.6 707.624 1240.2C729.05 1203.92 749.534 1166.97 769.299 1131.9C780.857 1111.4 791.548 1091.26 801.452 1071.67C808.554 1057.62 815.333 1043.19 823.065 1029.17C834.057 1009.21 847.826 990.375 859.927 969.129C864.197 961.638 868.153 953.85 872.345 946.123C890.473 913.733 935.365 893.284 958.01 865.831C963.956 858.631 968.44 850.986 970.735 842.542C979.869 809.031 967.082 764.063 935.084 711.866C929.62 702.921 923.569 693.715 917.074 684.301C893.887 650.714 865.109 614.495 837.472 578.314C821.007 556.78 801.493 533.611 796.105 516.474C792.75 505.839 795.426 498.12 805.798 493.81C815.726 489.683 829.316 488.681 842.346 486.641C887.183 479.621 914.133 452.489 887.429 406.686M919.393 1779.43C814.997 1679.94 730.458 1578.58 690.961 1493.11C673.289 1454.87 673.484 1425.61 663.925 1390.97C652.919 1351.08 657.967 1318.63 669.195 1289.09C676.856 1268.86 687.567 1250.04 698.473 1231.33C719.978 1194.42 741.856 1157.54 764.283 1123.26C777.392 1103.21 790.061 1083.77 802.244 1065.05C811.002 1051.58 819.608 1037.88 829.166 1024.61C842.784 1005.71 859.253 988.019 873.081 967.278C877.951 959.977 882.385 952.302 886.915 944.61C906.508 912.321 949.02 889.896 968.659 860.222C973.804 852.457 977.457 844.232 978.958 835.225C984.904 799.593 968.73 752.68 933.608 698.861C927.613 689.64 921.029 680.161 914.017 670.482C888.996 635.949 858.593 598.874 830.124 562.08C813.156 540.173 793.602 516.801 787.94 499.296C784.411 488.425 786.852 480.437 796.651 475.704C806.114 471.137 819.129 469.563 831.747 467.073C875.135 458.502 902.599 431.335 876.802 385.351M917.298 1775.58C810.869 1676.41 725.037 1575.02 685.634 1489.98C667.602 1451.07 668.625 1421.76 658.204 1386.24C646.244 1345.46 650.224 1311.99 660.768 1281.61C667.964 1260.81 678.378 1241.49 689.324 1222.45C710.916 1184.92 734.172 1148.1 759.263 1114.6C773.932 1095.02 788.571 1076.27 803.031 1058.41C813.456 1045.54 823.87 1032.56 835.272 1020.05C851.523 1002.21 870.678 985.648 886.24 965.418C891.71 958.304 896.612 950.743 901.489 943.09C922.544 910.904 962.677 886.502 979.312 854.607C983.657 846.272 986.476 837.47 987.184 827.902C989.958 790.153 970.382 741.289 932.128 685.842C925.601 676.348 918.486 666.596 910.957 656.649C884.102 621.17 852.068 583.236 822.766 545.83C805.301 523.552 785.707 499.98 779.765 482.101C776.06 470.992 778.261 462.73 787.494 457.58C796.485 452.566 808.937 450.435 821.146 447.49C863.092 437.371 891.061 410.168 866.183 364.001M915.196 1771.73C806.742 1672.88 719.601 1571.45 680.298 1486.85C661.907 1447.26 663.758 1417.91 652.467 1381.5C639.551 1339.83 642.465 1305.35 652.324 1274.13C659.048 1252.75 669.173 1232.94 680.165 1213.58C701.836 1175.42 726.486 1138.67 754.232 1105.95C770.453 1086.83 787.069 1068.77 803.809 1051.77C815.89 1039.5 828.13 1027.24 841.367 1015.49C860.257 998.714 882.093 983.281 899.388 963.564C905.457 956.639 910.837 949.191 916.051 941.576C938.57 909.491 976.338 883.121 989.952 848.997C993.504 840.1 995.491 830.719 995.391 820.58C994.999 780.721 972.015 729.899 930.63 672.825C923.565 663.051 915.917 653.026 907.879 642.818C879.189 606.393 845.529 567.607 815.389 529.581C797.421 506.929 777.786 483.156 771.57 464.907C767.691 453.562 769.644 445.021 778.319 439.456C786.837 433.998 798.721 431.3 810.519 427.903C851.024 416.235 879.507 388.997 855.53 342.645M913.102 1767.88C802.622 1669.35 713.838 1567.76 674.971 1483.72C656.053 1443.39 658.899 1414.06 646.747 1376.77C632.876 1334.21 634.721 1298.71 643.897 1266.66C650.154 1244.7 659.991 1224.39 671.016 1204.71C692.766 1165.91 718.81 1129.23 749.218 1097.31C766.998 1078.64 785.591 1061.28 804.604 1045.14C818.357 1033.47 832.407 1021.92 847.472 1010.93C868.995 995.211 893.517 980.912 912.545 961.706C919.214 954.971 925.073 947.636 930.625 940.055C954.607 908.074 990.011 879.734 1000.6 843.377C1003.35 833.915 1004.51 823.955 1003.61 813.254C1000.06 771.288 973.658 718.507 929.149 659.808C921.552 649.762 913.373 639.461 904.819 628.986C874.295 591.614 839.011 551.973 808.038 513.334C789.566 490.309 769.893 466.332 763.401 447.718C759.353 436.142 761.052 427.316 769.176 421.342C777.213 415.436 788.586 412.208 799.925 408.326C839.15 395.216 867.976 367.836 844.917 321.301M911.008 1764.03C798.494 1665.82 708.41 1564.2 669.635 1480.59C650.356 1439.58 654.031 1410.22 641.01 1372.04C626.191 1328.59 626.969 1292.08 635.445 1259.17C641.231 1236.63 650.78 1215.83 661.851 1195.82C683.68 1156.4 711.111 1119.79 744.182 1088.65C763.513 1070.44 784.091 1053.78 805.375 1038.49C820.793 1027.42 836.667 1016.61 853.562 1006.36C877.724 991.706 904.925 978.535 925.687 959.842C932.955 953.297 939.29 946.077 945.181 938.532C970.627 906.652 1003.68 876.349 1011.23 837.76C1013.19 827.733 1013.53 817.2 1011.81 805.93C1005.12 761.856 975.29 707.115 927.651 646.788C919.515 636.462 910.81 625.894 901.748 615.156C869.39 576.838 832.479 536.344 800.668 497.086C781.693 473.686 761.987 449.514 755.214 430.525C750.991 418.713 752.435 409.604 760.007 403.221C767.556 396.863 778.383 393.08 789.312 388.745C827.095 374.088 856.428 346.669 834.279 299.951M908.905 1760.18C794.365 1662.29 702.98 1560.64 664.299 1477.46C644.652 1435.77 649.171 1406.37 635.279 1367.31C619.513 1322.97 619.216 1285.44 627.008 1251.7C632.328 1228.58 641.581 1207.28 652.691 1186.95C674.599 1146.9 703.424 1110.36 739.149 1080C760.04 1062.25 782.6 1046.29 806.151 1031.86C823.24 1021.39 840.925 1011.29 859.654 1001.8C886.463 988.216 916.329 976.168 938.825 957.986C946.693 951.628 953.505 944.523 959.735 937.013C986.645 905.234 1017.35 872.97 1021.86 832.146C1023.03 821.561 1022.54 810.445 1020.02 798.607C1010.19 752.435 976.922 695.726 926.158 633.776C917.491 623.175 908.254 612.334 898.674 601.331C864.483 562.066 825.94 520.713 793.303 480.849C773.824 457.076 754.078 432.7 747.031 413.344C742.633 401.294 743.813 391.901 750.844 385.109C757.898 378.294 768.179 373.956 778.697 369.17C815.047 352.966 844.884 325.514 823.638 278.607M906.811 1756.33C790.245 1658.76 697.56 1557.08 658.973 1474.33C638.966 1431.97 644.322 1402.53 629.553 1362.57C612.84 1317.35 611.468 1278.8 618.576 1244.22C623.423 1220.52 632.387 1198.72 643.544 1178.08C665.531 1137.39 695.743 1100.92 734.138 1071.34C756.58 1054.05 781.133 1038.8 806.948 1025.22C825.707 1015.36 845.212 1005.98 865.762 997.238C895.211 984.716 927.749 973.791 951.984 956.126C960.452 949.958 967.743 942.966 974.31 935.493C1002.68 903.817 1031.04 869.589 1032.51 826.527C1032.89 815.377 1031.57 803.688 1028.24 791.28C1015.28 743.007 978.568 684.33 924.672 620.754C915.466 609.876 905.698 598.76 895.608 587.495C859.575 547.28 819.415 505.076 785.938 464.595C765.956 440.447 746.17 415.871 738.842 396.141C734.269 383.854 735.187 374.174 741.673 366.978C748.233 359.704 757.974 354.818 768.075 349.575C802.983 331.824 833.327 304.332 812.997 257.245M904.717 1752.48C786.118 1655.23 692.133 1553.52 653.645 1471.2C633.27 1428.16 639.47 1398.69 623.831 1357.84C606.171 1311.73 603.724 1272.16 610.147 1236.75C614.529 1212.47 623.196 1190.18 634.393 1169.21C656.459 1127.89 688.064 1091.49 729.114 1062.7C753.116 1045.87 779.651 1031.32 807.732 1018.6C828.162 1009.34 849.483 1000.67 871.863 992.685C903.959 981.23 939.163 971.426 965.139 954.276C974.2 948.291 981.974 941.42 988.88 933.981C1018.72 902.406 1044.74 866.217 1043.16 820.918C1042.75 809.211 1040.6 796.94 1036.45 783.962C1020.36 733.586 980.207 672.945 923.188 607.744C913.451 596.591 903.15 585.204 892.545 573.67C854.679 532.506 812.892 489.452 778.577 448.352C758.089 423.832 738.273 399.055 730.664 378.953C725.916 366.43 726.563 356.458 732.52 348.865C738.577 341.132 747.781 335.695 757.478 330.003C790.946 310.702 821.794 283.176 802.374 235.905M902.615 1748.62C781.991 1651.7 686.705 1549.96 648.303 1468.07C627.569 1424.35 634.612 1394.84 618.088 1353.1C599.489 1306.11 595.959 1265.52 601.69 1229.26C605.598 1204.4 613.979 1181.61 625.221 1160.32C647.366 1118.37 680.366 1082.04 724.072 1054.03C749.624 1037.66 778.158 1023.82 808.498 1011.94C830.6 1003.29 853.739 995.346 877.947 988.109C912.687 977.726 950.56 969.037 978.276 952.404C987.936 946.609 996.188 939.851 1003.43 932.449C1034.73 900.977 1058.42 862.83 1053.79 815.291C1052.59 803.019 1049.62 790.17 1044.66 776.627C1025.45 724.155 981.837 661.543 921.687 594.713C911.411 583.281 900.585 571.625 889.463 559.825C849.763 517.715 806.352 473.806 771.204 432.093C750.213 407.2 730.356 382.221 722.474 361.749C717.557 348.996 717.927 338.73 723.35 330.731C728.903 322.54 737.577 316.554 746.855 310.408C778.882 289.557 810.235 261.995 791.733 214.544M900.522 1744.77C777.871 1648.17 681.277 1546.39 642.976 1464.94C621.873 1420.55 629.761 1391 612.367 1348.37C592.829 1300.5 588.214 1258.88 593.262 1221.79C596.706 1196.35 604.797 1173.06 616.072 1151.45C638.297 1108.87 672.681 1072.61 719.057 1045.39C746.17 1029.47 776.693 1016.34 809.292 1005.31C833.071 997.268 858.022 990.039 884.051 983.551C921.438 974.236 961.968 966.663 991.432 950.551C1001.69 944.939 1010.41 938.297 1018 930.93C1050.76 899.559 1072.12 859.459 1064.43 809.678C1062.45 796.846 1058.65 783.421 1052.87 769.306C1030.55 714.737 983.478 650.156 920.196 581.7C909.388 569.994 898.031 558.063 886.392 545.998C844.858 502.942 799.822 458.177 763.834 415.848C742.34 390.58 722.444 365.399 714.287 344.56C709.195 331.569 709.286 321.011 714.181 312.613C719.224 303.958 727.367 297.425 736.242 290.831C766.827 268.432 798.695 240.835 781.093 193.198M898.426 1740.92C773.742 1644.64 675.855 1542.84 637.648 1461.81C616.184 1416.74 625.091 1387.23 606.645 1343.64C586.358 1294.96 580.477 1252.25 584.833 1214.31C587.805 1188.3 595.607 1164.51 606.928 1142.58C629.231 1099.37 665.01 1063.18 714.042 1036.74C742.705 1021.29 775.226 1008.87 810.084 998.683C835.541 991.247 862.303 984.734 890.161 978.999C930.193 970.754 973.232 964.2 1004.59 948.702C1015.4 943.247 1024.65 936.752 1032.57 929.42C1066.8 898.153 1085.83 856.092 1075.08 804.069C1072.31 790.677 1067.68 776.672 1061.1 761.989C1035.65 705.323 985.126 638.771 918.72 568.692C907.381 556.711 895.483 544.505 883.337 532.174C839.969 488.172 793.3 442.55 756.481 399.606C734.483 373.964 714.554 348.586 706.116 327.373C700.85 314.145 700.662 303.295 705.029 294.498C709.561 285.378 717.173 278.299 725.639 271.252C754.783 247.303 787.155 219.672 770.464 171.849M896.325 1737.07C769.616 1641.11 670.427 1539.27 632.312 1458.68C610.482 1412.93 620.217 1383.37 600.909 1338.91C579.666 1289.33 572.718 1245.61 576.39 1206.83C578.896 1180.24 586.402 1155.96 597.763 1133.7C620.146 1089.86 657.311 1053.74 709.004 1028.09C739.228 1013.09 773.737 1001.38 810.855 992.041C837.989 985.214 866.651 979.48 896.249 974.432C939.051 967.345 984.649 961.827 1017.73 946.84C1029.14 941.576 1038.87 935.194 1047.13 927.897C1082.82 896.73 1099.53 852.715 1085.71 798.45C1082.16 784.497 1076.71 769.915 1069.3 754.661C1040.75 695.898 986.751 627.375 917.214 555.667C905.338 543.407 892.915 530.932 880.251 518.337C835.049 473.388 786.755 426.911 749.104 383.354C726.602 357.338 706.633 331.76 697.922 310.176C692.481 296.712 692.014 285.569 695.862 276.375C699.875 266.789 706.973 259.168 715.02 251.666C742.722 226.169 775.609 198.503 759.827 150.496M894.23 1733.22C765.495 1637.58 664.998 1535.71 626.976 1455.55C604.786 1409.13 615.35 1379.52 595.179 1334.18C572.974 1283.71 564.966 1238.97 567.946 1199.36C569.979 1172.18 577.198 1147.4 588.605 1124.82C611.067 1080.35 649.626 1044.3 703.975 1019.43C735.749 1004.89 772.263 993.899 811.635 985.401C840.446 979.186 870.912 974.162 902.34 969.864C947.781 963.841 996.059 959.451 1030.88 944.975C1042.88 939.898 1053.09 933.631 1061.69 926.372C1098.84 895.308 1113.23 849.338 1096.35 792.83C1092.01 778.316 1085.74 763.156 1077.51 747.332C1045.85 686.471 988.388 615.98 915.727 542.647C903.318 530.114 890.365 517.364 877.183 504.503C830.147 458.608 780.229 411.276 741.737 367.104C718.732 340.715 698.723 314.933 689.737 292.982C684.122 279.281 683.369 267.841 686.696 258.252C690.183 248.197 696.765 240.035 704.41 232.084C730.671 205.037 764.062 177.336 749.19 129.145M892.136 1729.37C761.368 1634.05 659.579 1532.15 621.65 1452.42C599.092 1405.32 610.492 1375.68 589.452 1329.44C566.292 1278.08 557.217 1232.33 559.512 1191.88C561.072 1164.12 568.002 1138.85 579.448 1115.95C601.989 1070.85 641.943 1034.87 698.953 1010.78C732.287 996.703 770.79 986.419 812.421 978.768C842.909 973.161 875.172 968.845 908.443 965.308C956.514 960.347 1007.48 957.085 1044.03 943.121C1056.63 938.233 1067.32 932.079 1076.25 924.855C1114.87 893.892 1126.94 845.966 1106.99 787.22C1101.87 772.143 1094.77 756.407 1085.72 740.014C1050.97 677.059 990.027 604.595 914.236 529.634C901.289 516.821 887.809 503.804 874.112 490.676C825.234 443.83 773.698 395.65 734.367 350.859C710.858 324.096 690.817 298.118 681.55 275.792C675.766 261.861 674.712 250.116 677.527 240.134C680.495 229.613 686.563 220.91 693.79 212.502C718.611 183.905 752.507 156.168 738.552 107.797M890.035 1725.52C757.24 1630.52 654.143 1528.59 616.315 1449.29C593.397 1401.51 605.626 1371.83 583.723 1324.71C559.608 1272.46 549.466 1225.69 551.078 1184.4C552.173 1156.07 558.806 1130.29 570.292 1107.07C592.92 1061.34 634.252 1025.43 693.926 1002.13C728.811 988.503 769.428 979.014 813.194 972.121C845.442 967.185 879.426 963.52 914.534 960.737C965.237 956.836 1018.9 954.71 1057.17 941.253C1070.37 936.552 1081.54 930.516 1090.81 923.327C1130.89 892.468 1140.88 842.676 1117.62 781.592C1111.78 765.98 1103.79 749.641 1093.92 732.678C1056.07 667.623 991.658 593.191 912.741 516.609C899.263 503.521 885.243 490.227 871.037 476.836C820.326 429.044 767.165 380.009 727.002 334.605C702.997 307.471 682.908 281.286 673.368 258.593C667.408 244.424 666.067 232.386 668.364 222.004C670.797 211.011 676.359 201.769 683.176 192.909C706.554 162.764 740.963 134.995 727.911 86.4357M887.939 1721.67C753.119 1626.99 648.722 1525.03 610.987 1446.16C587.7 1397.7 600.759 1367.98 577.993 1319.98C552.923 1266.84 541.721 1219.06 542.641 1176.92C543.264 1148.01 549.608 1121.74 561.142 1098.19C583.848 1051.84 626.575 1015.99 688.904 993.474C725.348 980.313 767.932 971.519 813.98 965.485C847.891 961.15 883.693 958.205 920.63 956.174C973.963 953.336 1030.32 952.337 1070.32 939.393C1084.13 934.886 1095.76 928.959 1105.37 921.807C1146.92 891.049 1154.54 839.283 1128.26 775.977C1121.62 759.797 1112.88 742.906 1102.14 725.358C1061.43 658.286 993.297 581.804 911.25 503.593C897.232 490.228 882.689 476.662 867.973 463.01C815.428 414.272 760.634 364.38 719.639 318.361C695.131 290.853 675.002 264.467 665.188 241.404C659.054 226.999 657.418 214.662 659.21 203.891C661.115 192.431 666.171 182.649 672.576 173.339C694.514 141.644 729.429 113.838 717.286 65.095M885.845 1717.82C748.992 1623.46 643.301 1521.47 605.659 1443.03C582.011 1393.9 595.899 1364.13 572.272 1315.25C546.24 1261.21 533.977 1212.42 534.214 1169.45C534.37 1139.96 540.428 1113.19 551.992 1089.32C574.778 1042.33 618.898 1006.56 683.889 984.829C721.885 972.122 766.444 964.029 814.773 958.855C850.339 955.117 887.96 952.889 926.74 951.619C982.705 949.842 1041.75 949.974 1083.48 937.544C1097.89 933.224 1110 927.412 1119.95 920.296C1162.96 889.641 1168.22 835.894 1138.92 770.37C1131.49 753.625 1121.92 736.152 1110.36 718.038C1066.48 648.84 994.954 570.422 909.775 490.582C895.227 476.942 880.15 463.106 864.918 449.186C810.539 399.501 754.12 348.754 712.286 302.119C687.274 274.237 667.114 247.652 657.018 224.217C650.709 209.575 648.776 196.943 650.058 185.775C651.428 173.844 655.978 163.523 661.973 153.76C682.476 120.522 717.889 92.6752 706.663 43.752M883.743 1713.97C744.864 1619.93 637.865 1517.9 600.317 1439.9C576.302 1390.08 591.026 1360.28 566.537 1310.51C539.549 1255.59 526.219 1205.78 525.764 1161.96C525.448 1131.9 531.217 1104.63 542.828 1080.44C565.692 1032.82 611.198 997.118 678.853 976.169C718.408 963.925 764.936 956.525 815.547 952.209C852.776 949.073 892.215 947.565 932.833 947.048C991.427 946.334 1053.17 947.598 1096.63 935.676C1111.64 931.546 1124.22 925.845 1134.51 918.768C1178.98 888.214 1181.87 832.489 1149.55 764.743C1141.32 747.43 1130.92 729.377 1118.57 710.703C1071.51 639.376 996.584 559.02 908.275 477.552C893.195 463.636 877.587 449.527 861.838 435.342C805.624 384.711 747.581 333.109 704.914 285.861C679.399 257.605 659.198 230.819 648.829 207.014C642.345 192.136 640.055 179.178 640.889 167.642C641.663 155.209 645.775 144.382 651.352 134.163C670.415 99.375 706.333 71.492 696.017 22.3848M881.649 1710.11C740.743 1616.4 632.444 1514.35 594.989 1436.77C570.614 1386.28 586.165 1356.43 560.807 1305.78C532.865 1249.96 518.467 1199.14 517.328 1154.49C515.004 1063.52 567.796 997.927 673.83 967.52C745.157 947.067 838.723 941.926 938.934 942.492C1000.16 942.837 1064.59 945.234 1109.78 933.825C1192.86 912.851 1203.71 845.285 1160.2 759.136C1116.69 672.987 1022.17 569.398 906.789 464.544C802.085 369.393 674.08 265.742 640.647 189.83C602.414 103.014 700.125 78.2498 685.39 1.04863M1.06537 1100.06C188.93 1201.4 388.747 1281.66 554.982 1322.56C602.276 1334.19 648.355 1342.81 675.331 1337.01C753.267 1320.24 666.182 1211.13 622.739 1138.67C570.319 1051.24 513.843 962.305 474.732 879.553C452.774 833.094 439.083 785.007 496.875 782.389C555.402 779.741 662.712 824.273 757.382 860.917C867.696 903.618 976.926 939.564 1065.69 953.998C1154.45 968.431 1220.91 959.282 1228.21 918.881C1233.92 887.241 1203.94 839.575 1167.76 791.327C1072.68 664.554 931.07 524.274 755.904 383.344M8.37135 1105.87C174.407 1195.43 347.474 1264.6 505.321 1307.43C519.981 1311.41 534.476 1315.19 548.697 1318.65C595.417 1330 640.939 1338.45 667.931 1332.95C746.055 1317.05 664.535 1211.88 623.392 1140.72C586.914 1077.64 547.199 1013.13 513.715 950.419C502.024 928.623 491.074 907.09 481.22 885.945C459.853 840.08 446.374 792.59 502.046 789.086C558.419 785.542 661.979 827.645 753.353 862.136C859.822 902.321 965.306 936.002 1051.17 948.95C1081.07 953.457 1108.37 955.207 1131.58 953.889C1175.03 951.433 1204.18 938.246 1209.18 912.305C1215.18 881.145 1186.88 834.605 1152.84 787.691C1084 692.749 989.456 590.801 873.198 486.235C838.51 455.032 801.896 423.604 763.439 392.06M15.6695 1111.67C176.17 1198.25 340.767 1261.63 499.63 1303.82C514.047 1307.65 528.368 1311.36 542.397 1314.73C588.538 1325.78 633.509 1334.09 660.525 1328.88C738.845 1313.86 662.878 1212.62 624.029 1142.76C589.905 1081.39 551.576 1018 519.202 955.913C507.899 934.439 497.276 913.198 487.694 892.325C466.91 847.051 453.652 800.159 507.201 795.773C561.428 791.335 661.239 831.01 749.308 863.346C851.93 901.019 953.67 932.429 1036.64 943.889C1065.52 947.875 1091.93 949.209 1114.4 947.588C1156.48 944.579 1184.89 931.262 1190.12 905.72C1196.4 875.035 1169.78 829.627 1137.9 784.049C1073.45 691.804 985.187 593.556 875.18 492.215C842.356 461.975 807.609 431.469 770.957 400.769M22.9734 1117.48C177.94 1201.07 334.06 1258.67 493.945 1300.22C508.132 1303.9 522.272 1307.54 536.101 1310.82C581.669 1321.59 626.076 1329.72 653.114 1324.81C731.622 1310.67 661.206 1213.38 624.671 1144.81C592.889 1085.16 556.236 1022.99 524.685 961.415C513.859 940.291 503.475 919.312 494.164 898.711C473.972 854.03 460.926 807.732 512.351 802.465C564.433 797.135 660.487 834.377 745.259 864.561C844.036 899.718 942.031 928.863 1022.1 938.838C1049.98 942.302 1075.49 943.22 1097.23 941.301C1137.94 937.738 1165.61 924.295 1171.07 899.143C1177.63 868.934 1152.69 824.657 1122.96 780.415C1062.9 690.861 980.923 596.319 877.159 498.199C846.199 468.921 813.318 439.34 778.463 409.481M30.2726 1123.29C179.705 1203.89 327.356 1255.73 488.256 1296.6C502.206 1300.15 516.173 1303.71 529.804 1306.9C574.792 1317.37 618.648 1325.35 645.709 1320.74C724.405 1307.48 659.521 1214.12 625.312 1146.85C595.854 1088.91 560.703 1027.9 530.174 966.908C519.762 946.113 509.679 925.42 500.64 905.09C481.031 860.999 468.197 815.298 517.509 809.15C567.438 802.923 659.742 837.737 741.217 865.767C836.149 898.408 930.405 925.292 1007.58 933.777C1034.45 936.725 1059.06 937.224 1080.07 935.003C1119.4 930.884 1146.33 917.313 1152.04 892.559C1158.89 862.827 1135.62 819.679 1108.04 776.774C1052.37 689.917 976.674 599.076 879.162 504.179C850.067 475.861 819.052 447.204 786.002 418.189M37.5769 1129.09C181.474 1206.71 320.66 1252.81 482.571 1293C496.29 1296.4 510.071 1299.88 523.508 1302.98C567.923 1313.17 611.224 1320.99 638.3 1316.67C717.184 1304.28 657.822 1214.87 625.948 1148.88C598.79 1092.66 565.157 1032.81 535.651 972.4C525.652 951.934 515.872 931.526 507.103 911.468C488.086 867.971 475.465 822.865 522.654 815.833C570.437 808.714 658.983 841.098 737.163 866.973C828.255 897.104 918.76 921.716 993.033 928.712C1018.89 931.138 1042.6 931.221 1062.89 928.701C1100.85 924.03 1127.03 910.328 1132.98 885.968C1140.11 856.712 1118.51 814.692 1093.09 773.123C1041.8 688.96 972.389 601.823 881.121 510.146C853.889 482.791 824.741 455.056 793.497 426.885M44.8824 1134.9C183.244 1209.53 313.979 1249.91 476.895 1289.4C490.382 1292.66 503.984 1296.07 517.223 1299.07C561.057 1308.97 603.808 1316.63 630.907 1312.62C709.98 1301.1 656.127 1215.63 626.608 1150.94C601.731 1096.42 569.635 1037.73 541.16 977.91C531.574 957.772 522.097 937.648 513.606 917.868C495.172 874.961 482.77 830.455 527.839 822.538C573.476 814.527 658.264 844.477 733.148 868.199C820.395 895.816 907.154 918.162 978.535 923.671C1003.38 925.577 1026.2 925.245 1045.74 922.42C1082.33 917.195 1107.78 903.366 1113.96 879.401C1121.37 850.62 1101.46 809.73 1078.19 769.499C1031.29 688.033 968.159 604.596 883.142 516.145C857.775 489.749 830.493 462.939 801.053 435.615M52.1804 1140.7C185.008 1212.35 307.293 1247.03 471.205 1285.78C484.467 1288.92 497.885 1292.24 510.923 1295.15C554.185 1304.77 596.378 1312.26 623.494 1308.54C702.761 1297.91 654.387 1216.37 627.238 1152.97C604.625 1100.16 574.073 1042.63 546.632 983.396C537.452 963.583 528.292 943.752 520.064 924.24C502.222 881.928 490.033 838.016 532.979 829.216C576.463 820.308 657.509 847.834 729.088 869.402C812.488 894.504 895.502 914.583 963.982 918.604C987.828 919.994 1009.74 919.241 1028.55 916.117C1063.77 910.339 1088.47 896.378 1094.89 872.807C1102.59 844.506 1084.35 804.744 1063.23 765.846C1020.72 687.073 963.876 607.34 885.104 522.108C861.601 496.675 836.186 470.787 808.551 444.307M59.4857 1146.51C186.779 1215.17 300.629 1244.17 465.521 1282.18C478.556 1285.18 491.782 1288.41 504.629 1291.24C547.311 1300.56 588.947 1307.9 616.086 1304.48C695.541 1294.72 652.639 1217.12 627.883 1155.02C607.507 1103.91 578.528 1047.55 552.125 988.9C543.357 969.418 534.501 949.869 526.545 930.628C509.286 888.905 497.316 845.594 538.134 835.905C579.472 826.104 656.761 851.198 725.043 870.612C804.598 893.2 883.868 911.011 949.454 913.548C972.288 914.417 993.301 913.249 1011.39 909.824C1045.23 903.49 1069.19 889.405 1075.85 866.224C1083.83 838.398 1067.26 799.768 1048.3 762.202C1010.17 686.126 959.61 610.094 887.088 528.086C865.45 503.613 841.908 478.654 816.063 453.01M66.7915 1152.32C188.549 1217.99 293.982 1241.33 459.837 1278.57C472.647 1281.44 485.689 1284.59 498.336 1287.33C540.446 1296.36 581.524 1303.54 608.685 1300.41C688.329 1291.53 650.875 1217.87 628.527 1157.06C610.364 1107.64 582.966 1052.45 557.611 994.397C549.241 975.236 540.703 955.979 533.017 937.011C516.349 895.882 504.592 853.165 543.288 842.594C582.48 831.9 656.012 854.561 720.998 871.823C796.708 891.894 872.231 907.44 934.918 908.487C956.741 908.835 976.858 907.25 994.213 903.527C1026.69 896.638 1049.9 882.421 1056.8 859.642C1065.07 832.296 1050.18 794.791 1033.36 758.564C999.62 685.181 955.348 612.853 889.07 534.067C869.296 510.555 847.621 486.519 823.58 461.722M74.0874 1158.12C190.31 1220.81 287.334 1238.51 454.152 1274.96C466.742 1277.71 479.594 1280.77 492.049 1283.41C533.579 1292.16 574.107 1299.18 601.285 1296.35C681.117 1288.34 649.092 1218.61 629.18 1159.11C613.204 1111.37 587.411 1057.36 563.113 999.897C555.147 981.063 546.921 962.092 539.506 943.397C523.422 902.858 511.884 860.742 548.458 849.285C585.504 837.699 655.28 857.928 716.969 873.036C788.832 890.594 860.611 903.872 920.406 903.433C941.225 903.265 960.446 901.262 977.063 897.236C1008.16 889.795 1030.64 875.45 1037.77 853.061C1046.32 826.188 1033.11 789.818 1018.45 754.926C989.096 684.241 951.112 615.616 891.079 540.049C873.168 517.5 853.361 494.386 831.125 470.433M81.394 1163.93C192.082 1223.64 280.719 1235.72 448.47 1271.36C460.839 1273.98 473.494 1276.94 485.756 1279.5C526.714 1287.96 566.685 1294.82 593.885 1292.29C673.904 1285.15 647.277 1219.35 629.825 1161.15C616.011 1115.1 591.848 1062.27 568.598 1005.4C561.03 986.885 553.122 968.205 545.977 949.783C530.485 909.838 519.152 868.312 553.611 855.979C588.503 843.496 654.535 861.302 712.915 874.247C780.94 889.294 848.965 900.302 905.866 898.379C925.675 897.69 943.999 895.273 959.879 890.942C989.609 882.949 1011.34 868.475 1018.71 846.481C1027.54 820.083 1016.01 784.843 1003.5 751.284C978.531 683.293 946.834 618.372 893.052 546.03C877.006 524.441 859.064 502.252 838.632 479.146M88.6917 1169.73C193.846 1226.45 274.119 1232.95 442.778 1267.74C454.926 1270.25 467.411 1273.13 479.456 1275.58C519.888 1283.8 559.246 1290.44 586.469 1288.21C666.683 1281.96 645.428 1220.07 630.453 1163.19C618.77 1118.8 596.253 1067.16 574.076 1010.89C566.904 992.701 559.322 974.317 552.45 956.164C537.541 916.809 526.428 875.883 558.765 862.664C591.512 849.289 653.786 864.663 708.868 875.457C773.048 887.988 837.328 896.731 891.329 893.318C910.126 892.109 927.555 889.274 942.704 884.644C971.057 876.092 992.049 861.49 999.658 839.894C1008.78 813.976 998.918 779.864 988.56 747.642C967.981 682.348 942.564 621.127 895.025 552.006C880.843 531.379 864.769 510.112 846.134 487.846M95.9966 1175.54C195.615 1229.27 267.549 1230.22 437.095 1264.14C449.029 1266.52 461.31 1269.31 473.162 1271.67C513.021 1279.6 551.824 1286.08 579.07 1284.15C659.473 1278.77 643.555 1220.79 631.106 1165.24C621.527 1122.51 600.684 1072.06 579.57 1016.39C572.794 998.527 565.531 980.431 558.93 962.551C544.612 923.79 533.712 883.459 563.927 869.357C594.528 855.089 653.045 868.03 704.831 876.672C765.164 886.69 825.7 893.165 876.808 888.265C894.603 886.537 911.126 883.286 925.547 878.353C952.529 869.249 972.78 854.518 980.63 833.317C990.029 807.874 981.849 774.894 973.646 744.007C957.45 681.406 938.321 623.89 897.034 557.991C884.717 538.325 870.509 517.982 853.679 496.561M103.303 1181.35C197.387 1232.1 261.004 1227.51 431.412 1260.53C443.132 1262.8 455.218 1265.48 466.87 1267.75C506.156 1275.4 544.401 1281.72 571.663 1280.08C652.254 1275.58 641.65 1221.5 631.745 1167.28C624.239 1126.19 605.09 1076.96 585.057 1021.89C578.679 1004.35 571.735 986.539 565.404 968.932C551.67 930.761 540.989 891.031 569.083 876.044C597.531 860.879 652.298 871.392 700.788 877.88C757.276 885.382 814.066 889.59 862.274 883.202C879.058 880.953 894.685 877.286 908.375 872.053C933.986 862.397 953.496 847.539 961.578 826.727C971.259 801.76 964.76 769.909 958.704 740.354C946.899 680.451 934.049 626.634 899.006 563.957C888.553 545.253 876.211 525.832 861.186 505.258M110.6 1187.15C199.149 1234.92 254.48 1224.83 425.727 1256.92C437.232 1259.08 449.122 1261.66 460.575 1263.84C499.288 1271.21 536.977 1277.36 564.262 1276.02C645.041 1272.39 639.709 1222.2 632.396 1169.33C626.939 1129.88 609.503 1081.85 590.551 1027.39C584.562 1010.17 577.944 992.653 571.884 975.32C558.741 937.743 548.272 898.606 574.244 882.736C600.546 866.679 651.565 874.763 696.75 879.094C749.391 884.083 802.437 886.023 847.751 878.152C863.524 875.382 878.254 871.3 891.208 865.762C915.449 855.552 934.211 840.561 942.53 820.148C952.499 795.66 947.672 764.938 943.77 736.718C936.349 679.508 929.787 629.396 900.994 569.944C892.413 552.203 881.938 533.707 868.71 513.973M117.906 1192.96C200.92 1237.74 247.995 1222.19 420.045 1253.31C431.342 1255.36 443.03 1257.84 454.284 1259.92C492.417 1267 529.482 1272.94 556.856 1271.95C637.614 1269.04 637.724 1222.87 633.035 1171.36C629.588 1133.54 613.894 1086.74 596.038 1032.88C590.437 1015.98 584.147 998.761 578.357 981.7C565.798 944.713 555.548 906.177 579.399 889.422C603.557 872.47 650.817 878.124 692.704 880.304C741.5 882.778 790.8 882.452 833.215 873.09C847.984 869.805 861.811 865.301 874.034 859.465C896.896 848.698 914.925 833.583 923.484 813.564C933.735 789.549 930.588 759.959 928.839 733.077C925.808 678.565 925.526 632.152 902.978 575.919C896.262 559.141 887.653 541.567 876.223 522.674M125.202 1198.76C202.682 1240.55 241.533 1219.57 414.352 1249.71C425.441 1251.64 436.92 1254.01 447.981 1256.01C485.54 1262.79 522.048 1268.57 549.437 1267.88C630.391 1265.85 635.697 1223.53 633.661 1173.4C632.192 1137.19 618.265 1091.62 601.505 1038.37C596.286 1021.79 590.331 1004.87 584.813 988.078C572.845 951.685 562.808 913.743 584.529 896.101C606.533 878.252 650.042 881.48 688.635 881.505C733.586 881.463 779.14 878.871 818.662 868.024C832.42 864.217 845.351 859.297 856.843 853.161C878.335 841.842 895.615 826.595 904.415 806.97C914.954 783.435 913.471 754.969 913.876 729.423C915.229 677.604 921.236 634.893 904.938 581.887C900.086 566.069 893.342 549.422 883.717 531.373M132.508 1204.57C204.46 1243.38 235.109 1216.98 408.669 1246.1C419.55 1247.92 430.827 1250.18 441.689 1252.09C478.669 1258.58 514.627 1264.21 542.04 1263.81C623.182 1262.65 633.636 1224.17 634.316 1175.45C634.794 1140.83 622.658 1096.51 607.008 1043.87C602.169 1027.61 596.557 1010.98 591.302 994.464C579.918 958.661 570.093 921.316 589.7 902.792C609.559 884.051 649.311 884.846 684.607 882.718C725.718 880.167 767.528 875.308 804.15 862.97C816.897 858.643 828.931 853.308 839.694 846.871C859.815 834.998 876.355 819.622 885.393 800.393C896.213 777.334 896.41 749.999 898.97 725.789C904.714 676.668 917.008 637.661 906.945 587.872C903.957 573.016 899.081 557.292 891.26 540.087M139.813 1210.38C206.23 1246.2 228.732 1214.44 402.993 1242.49C413.671 1244.21 424.733 1246.36 435.402 1248.18C471.809 1254.39 507.209 1259.85 534.638 1259.75C615.976 1259.47 631.532 1224.8 634.96 1177.49C637.354 1144.46 627.023 1101.39 612.493 1049.37C608.035 1033.43 602.758 1017.1 597.781 1000.85C586.988 965.645 577.376 928.894 594.861 909.487C612.574 889.854 648.576 888.22 680.568 883.935C717.834 878.868 755.898 871.744 789.62 857.918C801.363 853.074 812.493 847.318 822.518 840.579C841.269 828.153 857.067 812.649 866.337 793.812C877.438 771.229 879.315 745.024 884.028 722.152C894.156 675.723 912.737 640.421 908.927 593.855C907.802 579.961 904.793 565.159 898.778 548.798M147.111 1216.18C207.994 1249.02 222.384 1211.93 397.302 1238.88C407.779 1240.5 418.633 1242.54 429.102 1244.26C464.93 1250.18 499.78 1255.48 527.231 1255.69C608.765 1256.28 629.369 1225.4 635.605 1179.54C639.885 1148.07 631.39 1106.26 617.988 1054.87C613.911 1039.24 608.968 1023.21 604.262 1007.24C594.052 972.619 584.661 936.467 600.023 916.18C615.582 895.65 647.834 891.587 676.53 885.15C709.951 877.567 744.27 868.175 775.098 852.865C785.83 847.501 796.064 841.33 805.359 834.289C822.731 821.307 837.789 805.675 847.306 787.236C858.695 765.132 862.245 740.056 869.105 718.515C883.623 674.784 908.484 643.181 910.925 599.841C911.666 586.907 910.522 573.03 906.311 557.515M154.417 1221.99C209.765 1251.84 216.084 1209.45 391.62 1235.27C401.901 1236.79 412.54 1238.71 422.81 1240.35C458.058 1245.97 492.417 1251.17 519.825 1251.62C601.74 1253.24 627.156 1225.96 636.245 1181.57C642.374 1151.66 635.742 1111.13 623.468 1060.36C619.765 1045.05 615.164 1029.32 610.729 1013.62C601.11 979.591 591.93 944.035 605.171 922.862C618.584 901.439 647.08 894.945 672.478 886.356C702.052 876.26 732.627 864.6 760.555 847.8C770.276 841.915 779.614 835.327 788.178 827.988C804.181 814.452 818.496 798.693 828.246 780.645C839.917 759.014 845.146 735.069 854.161 714.865C873.062 673.827 904.211 645.928 912.895 605.809C915.5 593.837 916.231 580.886 913.81 566.208M161.714 1227.79C211.527 1254.66 209.82 1207.01 385.927 1231.66C396.007 1233.07 406.43 1234.88 416.508 1236.43C451.177 1241.76 484.986 1246.8 512.416 1247.55C594.526 1250.06 624.888 1226.5 636.88 1183.62C644.821 1155.23 640.075 1116 628.952 1065.86C625.622 1050.86 621.364 1035.43 617.2 1020C608.166 986.564 599.206 951.606 610.325 929.551C621.592 907.235 646.331 898.308 668.432 887.566C694.161 874.955 720.99 861.029 746.026 842.743C754.744 836.339 763.184 829.339 771.012 821.695C785.643 807.606 799.219 791.717 809.199 774.063C821.151 752.908 828.059 730.095 839.228 711.226C862.521 672.886 899.949 648.687 914.886 611.79C919.355 600.779 921.952 588.752 921.335 574.921M169.02 1233.6C213.298 1257.48 203.618 1204.61 380.251 1228.06C390.135 1229.37 400.345 1231.06 410.222 1232.52C444.312 1237.56 477.569 1242.45 505.016 1243.48C587.314 1246.87 622.571 1227.01 637.532 1185.66C647.257 1158.79 644.425 1120.87 634.447 1071.36C631.49 1056.67 627.582 1041.54 623.681 1026.38C615.238 993.542 606.49 959.181 615.487 936.241C624.601 913.029 645.596 901.679 664.395 888.778C686.279 873.651 709.362 857.46 731.497 837.686C739.204 830.762 746.748 823.344 753.838 815.397C767.099 800.754 779.926 784.735 790.153 767.479C802.393 746.803 810.974 725.119 824.297 707.585C851.973 671.938 895.689 651.444 916.869 617.768C923.202 607.719 927.666 596.615 928.854 583.628M176.324 1239.41C215.067 1260.31 197.46 1202.26 374.567 1224.45C384.263 1225.67 394.232 1227.22 403.929 1228.61C437.389 1233.3 470.147 1238.08 497.609 1239.42C580.095 1243.67 620.186 1227.49 638.17 1187.7C649.648 1162.32 648.739 1125.72 639.932 1076.86C637.34 1062.48 633.783 1047.65 630.153 1032.77C622.293 1000.52 613.766 966.753 620.641 942.929C627.609 918.824 644.847 905.043 660.35 889.988C678.394 872.352 697.725 853.889 716.968 832.629C723.664 825.184 730.312 817.35 736.671 809.104C748.554 793.904 760.647 777.761 771.108 760.895C783.628 740.695 793.89 720.14 809.359 703.941C841.425 670.991 891.421 654.196 918.852 623.746C927.05 614.656 933.38 604.477 936.373 592.335M183.623 1245.21C216.832 1263.12 191.35 1199.94 368.877 1220.84C378.377 1221.96 388.123 1223.39 397.636 1224.69C430.515 1229.1 462.716 1233.72 490.208 1235.36C572.882 1240.49 617.746 1227.93 638.822 1189.75C652.02 1165.84 653.067 1130.59 645.426 1082.36C643.2 1068.29 639.993 1053.77 636.641 1039.16C629.372 1007.5 621.049 974.331 625.811 949.626C630.633 924.629 644.114 908.414 656.32 891.207C670.519 871.055 686.104 850.327 702.455 827.58C708.147 819.619 713.89 811.366 719.52 802.819C730.032 787.067 741.378 770.789 752.085 754.324C764.887 734.599 776.827 715.176 794.451 700.312C830.901 670.056 887.184 656.965 920.86 629.734C930.921 621.607 939.119 612.349 943.908 601.05M190.928 1251.02C218.602 1265.95 185.301 1197.67 363.193 1217.24C372.505 1218.26 382.029 1219.57 391.342 1220.78C423.65 1224.9 455.293 1229.35 482.801 1231.29C565.663 1237.3 615.243 1228.32 639.46 1191.79C654.35 1169.33 657.366 1135.43 650.913 1087.86C649.045 1074.09 646.195 1059.88 643.115 1045.54C636.43 1014.47 628.327 981.9 630.959 956.308C633.636 930.418 643.359 911.772 652.268 892.414C662.62 869.748 674.461 846.752 687.911 822.516C692.593 814.034 697.44 805.363 702.339 796.518C711.482 780.211 722.086 763.807 733.023 747.734C746.113 728.489 759.727 710.192 779.504 696.666C820.345 669.107 882.916 659.721 922.835 635.71C934.76 628.545 944.825 620.21 951.419 609.755M198.225 1256.82C220.364 1268.76 179.303 1195.45 357.502 1213.62C366.625 1214.55 375.93 1215.74 385.042 1216.86C416.769 1220.69 447.862 1224.99 475.393 1227.22C558.45 1234.11 612.676 1228.67 640.096 1193.83C656.651 1172.8 661.654 1140.27 656.391 1093.35C654.88 1079.89 652.389 1065.98 649.579 1051.92C643.485 1021.44 635.594 989.469 636.105 962.993C636.628 936.206 642.61 915.135 648.215 893.62C654.722 868.439 662.818 843.175 673.375 817.454C677.045 808.452 680.995 799.367 685.166 790.218C692.938 773.359 702.8 756.827 713.978 741.148C727.351 722.376 742.643 705.213 764.566 693.019C809.791 668.154 878.649 662.471 924.819 641.685C938.609 635.48 950.539 628.07 958.939 618.459M205.53 1262.63C222.134 1271.59 173.375 1193.27 351.825 1210.02C360.767 1210.86 369.834 1211.92 378.755 1212.95C409.911 1216.49 440.446 1220.63 467.992 1223.16C551.238 1230.92 610.054 1228.99 640.748 1195.88C658.941 1176.25 665.942 1145.12 661.891 1098.85C660.74 1085.7 658.612 1072.11 656.066 1058.31C650.556 1028.43 642.885 997.049 641.273 969.691C639.65 942.012 641.874 918.508 644.183 894.84C646.845 867.144 651.195 839.615 658.851 812.406C661.517 802.887 664.565 793.381 667.997 783.929C674.39 766.514 683.514 749.851 694.93 734.569C708.591 716.276 725.555 700.241 749.634 689.38C799.242 667.209 874.388 665.23 926.802 647.663C942.457 642.421 956.261 635.937 966.457 627.168M212.836 1268.44C223.906 1274.41 167.508 1191.14 346.142 1206.42C354.902 1207.17 363.741 1208.1 372.462 1209.04C403.037 1212.29 433.015 1216.26 460.593 1219.09C544.026 1227.73 607.372 1229.26 641.394 1197.92C661.199 1179.68 670.212 1149.95 667.377 1104.35C666.576 1091.51 664.814 1078.22 662.539 1064.69C657.62 1035.4 650.16 1004.62 646.427 976.38C642.659 947.808 641.126 921.872 640.138 896.051C638.953 865.841 639.558 836.044 644.322 807.349C645.978 797.31 648.128 787.389 650.831 777.636C655.855 759.666 664.236 742.877 675.884 727.987C689.825 710.17 708.47 695.265 734.702 685.742C788.701 666.268 870.127 667.989 928.792 653.648C946.311 649.365 961.982 643.806 973.975 635.878M220.135 1274.24C225.67 1277.22 161.702 1189.05 340.452 1202.8C349.032 1203.46 357.634 1204.27 366.163 1205.12C396.165 1208.08 425.587 1211.89 453.179 1215.02C536.801 1224.53 604.617 1229.46 642.033 1199.96C663.434 1183.08 674.329 1154.7 672.866 1109.84C672.377 1097.28 671.018 1084.32 669.014 1071.07C664.679 1042.37 657.44 1012.19 651.584 983.064C645.662 953.596 640.379 925.233 636.095 897.257C631.065 864.531 627.925 832.469 629.789 802.284C630.433 791.724 631.688 781.386 633.66 771.334C637.313 752.812 644.953 735.895 656.841 721.399C671.063 704.057 691.38 690.281 719.767 682.093C778.149 665.312 865.862 670.738 930.771 659.617C950.154 656.297 967.692 651.66 981.489 644.578M227.439 1280.05C227.439 1280.05 155.964 1187.01 334.767 1199.2C513.571 1211.38 679.628 1271.54 678.35 1115.34C677.464 1007.41 604.326 866.866 616.491 765.045C621.497 723.152 648.763 691.039 704.833 678.457C767.606 664.373 861.599 673.499 932.76 665.601C954.008 663.241 973.41 659.531 989.014 653.291" stroke="#DB5774" stroke-miterlimit="10"/>
</svg>
