<svg width="1440" height="3876" viewBox="0 0 1440 3876" fill="none" xmlns="http://www.w3.org/2000/svg">
<path d="M1440.32 -404.007C1451.02 -267.33 1448.45 -135.208 1412.91 -19.3021C1401.39 18.2773 1386.27 54.3205 1358.39 82.2799C1301.54 139.293 1195.68 159.357 1115.37 199.11C1013.35 249.592 953.266 333.639 940.913 439.359C931.623 518.91 939.173 622.51 886.216 679.256C838.107 730.806 667.13 692.892 569.485 695.437C469.477 698.049 393.638 729.175 350.49 780.856C327.888 807.933 314.13 840.711 310.593 878.098C307.215 913.853 329.218 964.538 258.477 954.663C235.095 951.399 208.578 941.035 183.605 934.41C96.8238 911.391 34.1632 940.914 46.3625 999.079M1439.44 -399.039C1453.73 -262.464 1453.21 -130.119 1418 -14.7485C1406.31 23.6985 1389.81 59.6775 1362.35 88.8345C1329.11 123.939 1278.59 146.15 1226.01 166.941C1190.12 181.136 1153.26 194.664 1120.25 211.17C1055.06 243.783 1005.23 288.722 972.315 342.99C953.07 374.724 939.626 409.654 932.367 447.293C927.18 473.665 923.857 502.71 919.399 531.676C913.049 572.352 904.413 612.858 885.666 646.207C878.959 658.197 870.954 669.264 861.255 679.022C821.105 719.321 708.468 707.108 616.34 703.317C591.59 702.26 568.315 701.806 548.29 703.138C465.707 708.394 401.287 734.207 359.655 775.417C352.483 782.51 345.984 790.062 340.179 798.052C319.469 826.536 307.374 860.579 304.488 898.829C302.785 921.485 310.262 949.594 299.64 965.754C293.102 975.706 279.668 981.03 253.188 977.919C230.053 975.201 203.834 965.658 179.027 959.645C92.8439 938.709 29.3388 968.201 39.8756 1026.46M1438.55 -394.077C1456.45 -257.599 1457.96 -125.036 1423.07 -10.1988C1411.23 29.1242 1393.35 65.0363 1366.29 95.3792C1333.6 131.698 1283.67 155.292 1231.26 177.195C1195.48 192.155 1158.53 206.327 1125.12 223.223C1059.1 256.584 1007.12 301.242 970.817 354.187C949.587 385.139 933.762 418.945 923.797 455.22C916.618 480.633 911.18 508.546 904.605 536.331C895.217 575.345 883.518 614.102 862.571 646.588C855.11 658.266 846.473 669.122 836.267 678.793C793.89 718.758 682.861 709.281 593.129 708.61C569.032 708.355 546.496 708.777 527.087 710.851C447.447 719.364 386.126 747.783 347.701 791.407C341.08 798.906 335.139 806.87 329.857 815.252C311.035 845.146 300.602 880.454 298.381 919.57C297.071 942.752 304.388 971.112 293.8 987.757C287.274 998.014 273.889 1003.64 247.897 1001.19C225 999.019 199.095 990.297 174.446 984.891C88.8661 966.035 24.5075 995.502 33.3834 1053.85M1437.67 -389.117C1459.16 -252.738 1462.73 -119.946 1428.16 -5.65363C1416.14 34.5394 1396.9 70.3848 1370.25 101.925C1338.11 139.464 1288.77 164.435 1236.53 187.45C1200.86 203.181 1163.83 217.994 1129.99 235.272C1063.15 269.383 1009.03 313.758 969.327 365.37C946.114 395.549 928.086 428.323 915.229 463.136C906.18 487.653 898.493 514.369 889.818 540.973C877.387 578.328 862.635 615.331 839.482 646.948C831.271 658.311 821.993 668.962 811.296 678.545C766.687 718.179 657.439 711.643 569.922 713.882C546.518 714.478 524.653 715.692 505.881 718.537C429.078 730.175 370.956 761.335 335.756 807.372C329.689 815.286 324.291 823.652 319.545 832.428C302.615 863.73 293.844 900.302 292.288 940.286C291.372 963.992 298.533 992.601 287.974 1009.73C281.467 1020.3 268.139 1026.24 242.607 1024.42C219.956 1022.81 194.35 1014.9 169.86 1010.1C84.8779 993.328 19.6673 1022.76 26.8882 1081.21M1436.78 -384.149C1461.87 -247.872 1467.49 -114.857 1433.25 -1.09415C1421.08 39.9749 1400.6 75.8369 1374.21 108.48C1342.79 147.34 1293.87 173.584 1241.81 197.72C1206.26 214.214 1169.15 229.676 1134.89 247.338C1067.23 282.203 1010.96 326.298 967.861 376.579C942.663 405.977 922.299 437.663 906.69 471.076C895.68 494.657 885.84 520.212 875.064 545.647C859.594 581.34 841.78 616.594 816.42 647.342C807.454 658.393 797.54 668.836 786.345 678.326C739.51 717.626 631.926 713.885 546.735 719.182C523.995 720.595 502.835 722.633 484.7 726.249C410.744 741.007 355.816 774.909 323.824 823.36C318.303 831.684 313.456 840.455 309.245 849.626C294.208 882.336 287.095 920.176 286.195 961.02C285.673 985.251 292.67 1014.1 282.149 1031.73C275.66 1042.61 262.385 1048.86 237.33 1047.68C214.92 1046.63 189.626 1039.53 165.294 1035.34C80.91 1020.65 14.8504 1050.05 20.4103 1108.58M1435.9 -379.19C1464.59 -243.009 1472.25 -109.771 1438.33 3.45284C1425.99 45.392 1404.17 81.2082 1378.16 115.022C1347.32 155.118 1298.96 182.723 1247.07 207.971C1211.63 225.236 1174.44 241.339 1139.75 259.383C1071.27 294.998 1012.85 338.807 966.364 387.764C939.185 416.389 916.473 446.973 898.121 478.992C885.147 501.629 873.28 526.104 860.272 550.291C841.929 584.42 820.728 617.714 793.324 647.704C783.547 658.403 773.059 668.675 761.356 678.076C712.29 717.046 606.373 716.088 523.518 724.458C501.446 726.685 480.982 729.553 463.485 733.94C392.356 751.797 340.641 788.463 311.864 839.332C306.901 848.068 302.598 857.241 298.914 866.812C285.776 900.935 280.32 940.042 280.078 981.747C279.949 1006.5 286.786 1035.61 276.299 1053.72C269.829 1064.91 256.606 1071.47 232.028 1070.93C209.86 1070.44 184.877 1064.16 160.703 1060.57C76.9219 1047.96 10.0133 1077.34 13.9107 1135.96M1435.02 -374.222C1467.3 -238.143 1477.01 -104.682 1443.42 8.00619C1430.92 50.8187 1407.75 86.5799 1382.12 121.576C1351.87 162.907 1304.05 191.869 1252.34 218.235C1217.01 236.265 1179.74 253.017 1144.64 271.443C1075.33 307.812 1014.77 351.341 964.884 398.962C935.72 426.805 910.659 456.298 889.568 486.92C874.625 508.615 860.627 531.947 845.5 554.945C824.137 587.432 799.832 618.939 770.245 648.078C759.71 658.456 748.596 668.535 736.387 677.837C685.094 716.473 580.844 718.298 500.314 729.738C478.91 732.779 459.143 736.465 442.289 741.64C373.994 762.594 325.486 802.026 299.917 855.308C295.5 864.454 291.748 874.033 288.592 883.993C277.347 919.524 273.553 959.895 273.97 1002.47C274.236 1027.75 280.916 1057.1 270.459 1075.7C264.013 1087.2 250.836 1094.09 226.732 1094.18C204.807 1094.26 180.125 1088.78 156.115 1085.79C72.9316 1075.26 5.16655 1104.61 7.41813 1163.33M1434.13 -369.26C1470.01 -233.281 1481.77 -99.5988 1448.5 12.5559C1435.83 56.2386 1411.3 91.9421 1386.07 128.121C1356.38 170.681 1309.13 201.01 1257.59 228.489C1222.38 247.29 1185.02 264.682 1149.49 283.49C1079.37 320.61 1016.66 363.856 963.383 410.15C932.241 437.218 904.824 465.613 880.99 494.841C864.074 515.597 847.945 537.786 830.706 559.6C806.315 590.44 778.919 620.163 747.147 648.451C735.856 658.508 724.108 668.388 711.396 677.599C657.872 715.903 555.291 720.501 477.092 735.017C456.349 738.866 437.282 743.378 421.068 749.334C355.596 773.37 310.302 815.584 287.953 871.283C284.082 880.838 280.888 890.83 278.261 901.178C268.907 938.117 266.771 979.756 267.845 1023.19C268.505 1049 275.024 1078.6 264.601 1097.68C258.166 1109.49 245.055 1116.72 221.415 1117.43C199.73 1118.08 175.361 1113.39 151.509 1111.01C68.9209 1102.56 0.314411 1131.88 0.895941 1190.69M1433.24 -364.301C1472.72 -228.418 1486.53 -94.5126 1453.59 17.1064C1440.76 61.665 1414.87 97.305 1390.03 134.672C1360.92 178.456 1314.23 210.158 1262.87 238.755C1227.77 258.32 1190.34 276.361 1154.39 295.556C1083.44 333.429 1018.58 376.388 961.916 421.358C928.785 447.647 899.004 474.94 872.45 502.781C853.554 522.592 835.306 543.641 815.948 564.265C788.537 593.463 758.05 621.403 724.082 648.836C712.028 658.575 699.656 668.25 686.441 677.371C630.691 715.341 529.77 722.706 453.902 740.308C433.82 744.966 415.457 750.302 399.884 757.037C337.219 784.144 295.158 829.15 276.029 887.266C272.717 897.233 270.066 907.625 267.965 918.374C260.504 956.72 260.025 999.626 261.764 1043.93C262.817 1070.26 269.173 1100.1 258.787 1119.68C252.371 1131.8 239.321 1139.37 216.149 1140.69C194.711 1141.91 170.64 1138.02 146.954 1136.25C64.9642 1129.88 -4.4912 1159.17 -5.56302 1218.08M1432.36 -359.333C1475.44 -223.552 1491.29 -89.4234 1458.67 21.6624C1445.68 67.0912 1418.43 102.674 1393.98 141.226C1365.43 186.233 1319.31 219.309 1268.13 249.018C1233.14 269.354 1195.62 288.032 1159.25 307.609C1087.49 346.233 1020.48 388.915 960.416 432.546C925.307 458.06 893.162 484.25 863.885 510.706C843.008 529.572 822.637 549.484 801.159 568.918C770.72 596.468 737.15 622.631 700.986 649.21C688.174 658.627 675.169 668.104 661.452 677.133C603.47 714.773 504.202 724.898 430.684 745.596C411.268 751.059 393.593 757.219 378.667 764.739C318.811 794.906 279.983 842.715 264.061 903.244C261.295 913.62 259.194 924.419 257.629 935.563C252.061 975.317 253.252 1019.49 255.643 1064.66C257.094 1091.51 263.284 1121.61 252.933 1141.67C246.537 1154.1 233.548 1162.01 210.839 1163.95C189.643 1165.75 165.882 1162.65 142.347 1161.48C60.9602 1157.19 -9.35631 1186.45 -12.0861 1245.45M1431.47 -354.373C1478.15 -218.694 1496.06 -84.3364 1463.76 26.2078C1450.6 72.5125 1422 108.031 1397.94 147.772C1369.95 194.006 1324.41 228.45 1273.39 259.276C1238.52 280.377 1200.91 299.702 1164.13 319.666C1091.54 359.044 1022.38 401.44 958.931 443.747C921.833 468.481 887.316 493.562 855.327 518.637C832.462 536.552 809.975 555.332 786.386 573.583C752.907 599.482 716.266 623.87 677.916 649.598C664.348 658.695 650.709 667.972 636.493 676.908C576.285 714.214 478.668 727.092 407.49 750.89C388.735 757.162 371.758 764.14 357.475 772.448C300.413 805.663 264.831 856.287 252.124 919.235C249.912 930.026 248.355 941.225 247.326 952.764C243.649 993.926 246.498 1039.37 249.551 1085.39C251.396 1112.77 257.43 1143.12 247.108 1163.66C240.73 1176.41 227.81 1184.66 205.562 1187.2C184.616 1189.6 161.182 1187.32 137.781 1186.72C57.1041 1184.66 -14.1683 1213.74 -18.5606 1272.84M1430.58 -349.412C1480.86 -213.826 1500.81 -79.2511 1468.84 30.7547C1455.51 77.9295 1425.54 113.387 1401.89 154.314C1374.46 201.765 1329.5 237.589 1278.65 269.528C1243.89 291.4 1206.2 311.365 1168.99 331.711C1095.59 371.839 1024.27 413.952 957.435 454.932C918.359 478.891 881.454 502.862 846.758 526.553C821.905 543.517 797.295 561.16 771.598 578.224C735.084 602.47 695.374 625.092 654.821 649.96C640.498 658.744 626.228 667.811 611.504 676.659C549.065 713.634 453.091 729.258 384.266 756.16C366.168 763.232 349.884 771.03 336.259 780.139C281.976 816.39 249.651 869.842 240.157 935.201C238.495 946.399 237.497 958.011 236.991 969.941C235.207 1012.51 239.713 1059.22 243.431 1106.11C245.669 1134.01 251.535 1164.61 241.255 1185.64C234.901 1198.7 222.048 1207.3 200.25 1210.44C179.557 1213.43 156.422 1211.93 133.172 1211.93C53.0981 1211.96 -19.0278 1241.01 -25.0735 1300.2M1429.7 -344.443C1483.58 -208.96 1505.57 -74.1559 1473.93 35.3167C1460.44 83.365 1429.1 118.756 1405.85 160.877C1378.99 209.546 1334.59 246.743 1283.92 279.8C1249.28 302.435 1211.51 323.049 1173.88 343.78C1099.66 384.661 1026.2 426.494 955.965 466.144C914.899 489.324 875.623 512.186 838.21 534.498C811.369 550.511 784.636 567.017 756.827 582.898C717.273 605.493 674.5 626.346 631.747 650.351C616.667 658.814 601.763 667.682 586.549 676.442C521.882 713.084 427.544 731.448 361.087 761.466C343.647 769.338 328.055 777.957 315.086 787.857C263.575 827.138 234.519 883.423 228.24 951.201C227.132 962.814 226.677 974.827 226.702 987.154C226.818 1031.14 232.978 1079.11 237.356 1126.87C239.988 1155.29 245.698 1186.14 235.448 1207.66C229.105 1221.02 216.326 1229.98 194.986 1233.72C174.558 1237.31 151.711 1236.58 128.62 1237.2C49.1555 1239.3 -23.8345 1268.32 -31.5427 1327.6M1428.81 -339.484C1486.29 -204.103 1509.93 -69.2816 1479.01 39.8613C1465.18 88.6887 1432.65 124.104 1409.8 167.417C1383.48 217.3 1339.68 255.88 1289.19 290.055C1254.66 313.461 1216.81 334.718 1178.75 355.828C1103.71 397.46 1028.1 439.007 954.473 477.326C911.43 499.731 869.755 521.469 829.646 542.411C800.809 557.468 771.952 572.837 742.051 587.542C699.457 608.487 653.625 627.569 608.663 650.716C592.833 658.864 577.289 667.527 561.572 676.196C494.674 712.507 401.969 733.603 337.874 766.74C321.093 775.411 306.193 784.851 293.874 795.545C245.128 837.851 219.348 896.974 216.282 967.162C215.72 979.184 215.815 991.604 216.377 1004.33C218.384 1049.72 226.203 1098.95 231.237 1147.57C234.263 1176.53 239.812 1207.62 229.596 1229.63C223.273 1243.3 210.573 1252.62 189.683 1256.96C169.515 1261.14 146.961 1261.19 124.032 1262.41C45.1783 1266.6 -28.6728 1295.58 -38.0344 1354.95M1427.93 -334.522C1489 -199.237 1514.68 -64.1982 1484.09 44.4115C1470.09 94.1091 1436.19 129.455 1413.75 173.962C1387.98 225.059 1344.76 265.022 1294.44 300.309C1260.02 324.481 1222.09 346.384 1183.62 367.882C1107.74 410.261 1030 451.534 952.976 488.523C907.943 510.149 863.878 530.77 821.076 550.339C790.231 564.435 759.271 578.676 727.258 592.198C681.617 611.486 632.735 628.811 585.563 651.092C568.978 658.928 552.81 667.386 536.582 675.959C467.458 711.936 376.38 735.766 314.649 772.022C298.521 781.495 284.319 791.754 272.65 803.241C226.649 848.563 204.165 910.533 204.314 983.14C204.303 995.569 204.949 1008.4 206.042 1021.51C209.941 1068.31 219.425 1118.82 225.116 1168.3C228.529 1197.78 233.921 1229.12 223.743 1251.62C217.438 1265.6 204.82 1275.29 184.378 1280.21C164.473 1285 142.205 1285.81 119.43 1287.63C41.179 1293.91 -33.5209 1322.86 -44.5526 1382.32M1427.05 -329.557C1491.72 -194.372 1519.45 -59.1064 1489.18 48.9617C1475.01 99.5294 1439.74 134.808 1417.71 180.513C1392.49 232.825 1349.86 274.17 1299.72 310.57C1265.41 335.512 1227.4 358.057 1188.5 379.933C1111.81 423.063 1031.91 464.052 951.499 499.717C904.489 520.568 858.025 540.064 812.526 558.264C779.686 571.403 746.603 584.507 712.485 596.851C663.794 614.473 611.866 630.05 562.487 651.463C545.152 658.984 528.343 667.237 511.617 675.716C440.262 711.362 350.802 737.913 291.448 777.298C275.971 787.566 262.461 798.645 251.458 810.938C208.198 859.266 189.009 924.095 192.378 999.119C192.921 1011.96 194.118 1025.2 195.738 1038.7C201.531 1086.91 212.676 1138.68 219.028 1189.04C222.834 1219.03 228.07 1250.62 217.921 1273.61C211.636 1287.9 199.107 1297.97 179.1 1303.47C159.463 1308.87 137.48 1310.44 114.863 1312.87C37.215 1321.23 -38.3461 1350.15 -51.0236 1409.71M1426.16 -324.595C1494.42 -189.512 1524.61 -53.8168 1494.25 53.5121C1480.11 105.053 1443.27 140.162 1421.65 187.058C1396.98 240.585 1354.95 283.31 1304.97 320.824C1270.78 346.53 1232.68 369.717 1193.37 391.987C1115.85 435.87 1033.8 476.574 949.999 510.906C900.999 530.977 852.141 549.347 803.949 566.186C769.098 578.357 733.906 590.335 697.697 601.504C645.958 617.47 590.982 631.29 539.391 651.837C521.306 659.042 503.856 667.09 486.627 675.479C413.045 710.791 325.198 740.064 268.23 782.586C253.411 793.654 240.582 805.55 230.246 818.638C189.716 869.97 173.838 937.658 180.415 1015.09C181.508 1028.35 183.251 1041.99 185.403 1055.89C193.087 1105.51 205.891 1158.55 212.899 1209.76C217.099 1240.28 222.174 1272.12 212.064 1295.59C205.795 1310.19 193.358 1320.64 173.784 1326.71C154.422 1332.72 132.673 1335.01 110.258 1338.09C33.0678 1348.38 -43.1973 1377.42 -57.5449 1437.07M1425.27 -319.632C1497.14 -184.645 1529.37 -48.727 1499.34 58.0661C1485.04 110.474 1446.82 145.517 1425.62 193.613C1401.48 248.348 1360.04 292.456 1310.25 331.094C1276.17 357.571 1237.99 381.401 1198.25 404.05C1119.92 448.684 1035.72 489.11 948.521 522.112C897.544 541.408 846.28 558.648 795.399 574.123C758.544 585.331 721.234 596.17 682.923 606.17C628.134 620.47 570.112 632.541 516.314 652.219C497.48 659.11 479.394 666.951 461.661 675.248C385.848 710.229 299.599 742.214 245.034 787.872C230.86 799.736 218.721 812.445 209.051 826.339C171.238 880.671 158.683 951.221 168.475 1031.08C170.122 1044.74 172.413 1058.78 175.089 1073.08C184.666 1124.1 199.131 1178.41 206.799 1230.49C211.393 1261.53 216.305 1293.62 206.232 1317.58C199.982 1332.49 187.642 1343.32 168.5 1349.97C149.421 1356.59 127.934 1359.63 105.677 1363.32C29.0899 1375.68 -48.0289 1404.71 -64.0344 1464.45M1424.39 -314.666C1499.86 -179.782 1534.14 -43.6404 1504.43 62.6168C1489.97 115.901 1450.37 150.865 1429.58 200.159C1405.98 256.102 1365.13 301.599 1315.52 341.349C1281.55 368.591 1243.29 393.068 1203.14 416.101C1123.98 461.489 1037.64 501.629 947.05 533.304C894.083 551.821 840.422 567.927 786.854 582.046C747.989 592.285 708.571 601.999 668.161 610.818C610.308 623.45 549.26 633.782 493.251 652.594C473.662 659.172 454.94 666.805 436.705 675.012C358.66 709.662 274.009 744.357 221.841 793.156C208.311 805.808 196.86 819.34 187.86 834.036C152.75 891.357 143.533 964.782 156.538 1047.05C158.731 1061.12 161.573 1075.57 164.784 1090.26C176.253 1142.69 192.383 1198.27 200.705 1251.2C205.693 1282.77 210.444 1315.11 200.405 1339.56C194.174 1354.78 181.943 1365.99 163.217 1373.21C144.429 1380.46 123.204 1384.24 101.105 1388.54C25.1087 1402.98 -52.8544 1431.97 -70.5104 1491.81M1423.5 -309.705C1502.57 -174.922 1538.89 -38.5577 1509.51 67.1664C1494.88 121.321 1453.89 156.214 1433.52 206.712C1410.47 263.864 1370.22 310.749 1320.77 351.612C1286.92 379.625 1248.58 404.743 1208 428.157C1128.02 474.296 1039.53 514.158 945.54 544.497C890.596 562.239 834.521 577.209 778.272 589.969C737.401 599.238 695.862 607.823 653.362 615.476C592.459 626.442 528.373 635.032 470.149 652.97C449.81 659.232 430.447 666.661 411.714 674.774C331.443 709.09 248.385 746.499 198.622 798.443C185.738 811.891 174.977 826.236 166.642 841.738C134.23 902.05 128.352 978.348 144.576 1063.03C147.328 1077.52 150.715 1092.37 154.455 1107.46C167.824 1161.3 185.604 1218.14 194.591 1271.94C199.972 1304.03 204.567 1336.62 194.566 1361.56C188.353 1377.09 176.227 1388.69 157.926 1396.48C139.423 1404.35 118.457 1408.88 96.5248 1413.79C21.1309 1430.31 -57.6858 1459.27 -77.0072 1519.2M1422.61 -304.746C1505.28 -170.057 1543.65 -33.4689 1514.59 71.711C1499.8 126.741 1457.43 161.556 1437.47 213.252C1414.96 271.614 1375.3 319.885 1326.03 361.861C1292.29 390.639 1253.88 416.403 1212.87 440.202C1132.08 487.095 1041.43 526.671 944.06 555.683C887.127 572.646 828.655 586.481 769.719 597.886C726.837 606.186 683.188 613.637 638.586 620.12C574.626 629.415 507.508 636.269 447.066 653.335C425.98 659.291 405.978 666.503 386.737 674.528C304.235 708.513 222.763 748.63 175.41 803.716C163.169 817.953 153.095 833.12 145.443 849.429C115.724 912.735 113.193 991.902 132.625 1079C135.923 1093.9 139.866 1109.15 144.133 1124.64C159.389 1179.89 178.836 1237.99 188.483 1292.66C194.262 1325.28 198.684 1358.11 188.725 1383.54C182.531 1399.39 170.517 1411.37 152.626 1419.72C134.421 1428.22 113.71 1433.49 91.9279 1439C17.1323 1457.6 -62.5287 1486.54 -83.5081 1546.56M1421.73 -299.778C1508 -165.191 1548.41 -28.3797 1519.68 76.2728C1504.72 132.173 1460.96 166.91 1441.44 219.814C1419.45 279.38 1380.41 329.045 1331.32 372.139C1297.69 401.686 1259.19 428.095 1217.76 452.274C1136.15 499.917 1043.35 539.21 942.585 566.897C883.674 583.084 822.787 595.775 761.167 605.834C716.279 613.163 670.514 619.482 623.816 624.794C556.802 632.415 486.644 637.537 423.987 653.728C402.152 659.369 381.509 666.376 361.769 674.308C277.04 707.959 197.143 750.781 152.207 809.016C140.611 824.049 131.218 840.034 124.241 857.143C97.2008 923.431 98.0323 1005.48 120.68 1094.99C124.531 1110.31 129.018 1125.97 133.82 1141.84C150.968 1198.5 172.073 1257.87 182.377 1313.4C188.55 1346.55 192.816 1379.63 182.886 1405.55C176.709 1421.69 164.813 1434.07 147.33 1442.99C129.427 1452.12 108.959 1458.13 87.3482 1464.25C13.1508 1484.93 -67.3593 1513.84 -90.0041 1573.95M1420.84 -294.816C1510.7 -160.331 1553.17 -23.291 1524.76 80.8199C1509.65 137.594 1464.49 172.254 1445.39 226.357C1423.93 287.127 1385.49 338.182 1336.57 382.39C1303.06 412.702 1264.47 439.753 1222.63 464.324C1140.19 512.721 1045.26 551.731 941.089 578.083C880.188 593.491 816.896 605.041 752.598 613.75C705.697 620.102 657.818 625.299 609.031 629.444C538.959 635.394 465.778 638.785 400.899 654.096C378.317 659.43 357.037 666.23 336.795 674.071C249.835 707.391 171.508 752.909 129.002 814.295C118.045 830.119 109.337 846.919 103.037 864.837C78.6707 934.11 82.8693 1019.04 108.737 1110.97C113.139 1126.69 118.171 1142.76 123.509 1159.03C142.55 1217.1 165.312 1277.73 176.28 1334.13C182.848 1367.8 186.952 1401.13 177.057 1427.53C170.899 1443.99 159.128 1456.77 142.05 1466.24C124.452 1476 104.231 1482.75 82.771 1489.47C9.17637 1512.24 -72.1949 1541.11 -96.4855 1601.32M1419.96 -289.856C1513.42 -155.468 1557.93 -18.2101 1529.84 85.3677C1514.56 143.011 1467.81 177.488 1449.33 232.899C1428.18 294.757 1390.57 347.316 1341.83 392.642C1308.43 423.726 1269.76 451.417 1227.5 476.367C1144.24 525.514 1047.15 564.241 939.594 589.268C876.716 603.901 811.012 614.304 744.03 621.666C695.115 627.041 645.128 631.113 594.244 634.086C521.119 638.362 445.045 640.162 377.805 654.458C354.516 659.524 332.557 666.07 311.811 673.82C222.625 706.806 145.867 755.031 105.79 819.569C95.4716 836.184 87.4564 853.804 81.8264 872.526C60.1341 944.783 67.6952 1032.59 96.7749 1126.93C101.723 1143.06 107.319 1159.54 113.175 1176.2C134.108 1235.68 158.54 1297.59 170.161 1354.85C177.122 1389.04 181.063 1422.62 171.205 1449.51C165.065 1466.28 153.418 1479.45 136.746 1489.48C119.454 1499.88 99.48 1507.37 78.1781 1514.7C5.18162 1539.54 -77.034 1568.39 -102.987 1628.69M1419.07 -284.888C1516.13 -150.599 1562.69 -13.1206 1534.93 89.9214C1519.49 148.441 1471.36 182.85 1453.3 239.454C1432.69 302.526 1395.67 356.467 1347.1 402.906C1313.81 434.755 1275.07 463.092 1232.38 488.43C1148.3 538.331 1049.07 576.777 938.121 600.472C873.253 614.326 805.149 623.586 735.484 629.6C684.555 633.998 632.386 636.855 579.475 638.748C503.194 641.227 424.167 641.407 354.733 654.839C330.694 659.589 308.094 665.93 286.846 673.589C195.428 706.244 120.237 757.168 82.5886 824.858C72.9086 842.263 65.5739 860.701 60.6383 880.232C41.6077 955.471 52.5479 1046.16 84.8429 1142.92C90.3447 1159.46 96.4835 1176.34 102.876 1193.4C125.701 1254.29 151.791 1317.46 164.069 1375.58C171.423 1410.3 175.208 1444.13 165.38 1471.51C159.259 1488.59 147.736 1502.15 131.457 1512.74C114.482 1523.77 94.7361 1531.99 73.6 1539.93C1.20634 1566.86 -81.8703 1595.68 -109.481 1656.07M1418.19 -279.929C1518.84 -145.742 1567.46 -8.03468 1540.02 94.4715C1524.41 153.861 1474.92 188.204 1457.26 245.999C1437.21 310.291 1400.77 365.609 1352.38 413.166C1319.21 445.784 1280.37 474.767 1237.26 500.484C1152.36 551.138 1050.98 589.299 936.639 611.669C869.794 624.747 799.271 632.854 726.925 637.531C673.988 640.949 619.713 642.689 564.7 643.412C485.369 644.226 403.296 642.657 331.65 655.223C306.857 659.66 283.621 665.794 261.874 673.36C168.23 705.682 94.5882 759.303 59.3818 830.148C50.3402 848.344 43.6861 867.599 39.4327 887.937C23.0592 966.159 37.3832 1059.73 72.886 1158.9C78.9385 1175.85 85.6235 1193.14 92.5519 1210.59C117.269 1272.89 145.017 1337.33 157.963 1396.31C165.712 1431.55 169.336 1465.63 159.541 1493.5C153.44 1510.89 142.048 1524.85 126.167 1535.99C109.517 1547.67 89.999 1556.62 69.0137 1565.16C-2.78171 1594.17 -86.7028 1622.96 -115.972 1683.44M1417.3 -274.967C1521.56 -140.877 1572.21 -2.95172 1545.1 99.0213C1529.32 159.287 1478.45 193.557 1461.21 252.55C1441.71 318.057 1405.85 374.757 1357.63 423.426C1324.58 456.815 1285.66 486.439 1242.14 512.54C1156.42 563.945 1052.88 601.822 935.15 622.86C866.315 635.159 793.393 642.123 718.364 645.452C663.413 647.894 607.044 648.52 549.92 648.06C467.551 647.211 382.415 643.894 308.574 655.594C283.031 659.716 259.154 665.645 236.905 673.12C141.029 705.11 68.9493 761.433 36.1814 835.425C27.7737 854.414 21.8046 874.484 18.2335 895.629C4.50955 976.829 22.2247 1073.28 60.9428 1174.87C67.5491 1192.24 74.7819 1209.93 82.2414 1227.78C108.859 1291.48 138.261 1357.18 151.867 1417.04C160.009 1452.8 163.47 1487.13 153.713 1515.48C147.627 1533.18 136.382 1547.56 120.887 1559.24C104.554 1571.56 85.2635 1581.24 64.444 1590.39C-6.7532 1621.48 -91.5234 1650.24 -122.458 1710.81M1416.42 -269.999C1524.27 -136.011 1576.98 2.14334 1550.19 103.575C1534.24 164.711 1482 198.914 1465.16 259.098C1446.21 325.819 1410.94 383.902 1362.89 433.687C1329.95 467.84 1290.96 498.111 1247.01 524.6C1160.46 576.752 1054.78 614.355 933.66 634.062C862.848 645.586 787.418 651.286 709.808 653.392C652.782 654.77 594.375 654.363 535.141 652.727C449.729 650.219 361.533 645.142 285.488 655.982C259.191 659.791 234.682 665.51 211.93 672.894C113.827 704.551 43.029 763.43 12.9782 840.724C5.13505 860.465 -0.0796188 881.392 -2.96849 903.343C-14.0399 987.529 7.0589 1086.86 48.994 1190.86C56.1464 1208.63 63.9376 1226.73 71.9208 1244.98C100.43 1310.09 131.49 1377.06 145.753 1437.78C154.282 1474.06 157.589 1508.64 147.866 1537.48C141.8 1555.49 130.691 1570.26 115.584 1582.51C99.588 1595.47 80.5132 1605.87 59.8521 1615.63C-10.7424 1648.81 -96.369 1677.53 -128.954 1738.2M1415.53 -265.039C1526.98 -131.15 1581.73 7.22695 1555.27 108.123C1539.17 170.132 1485.54 204.271 1469.12 265.647C1450.71 333.582 1416.03 393.042 1368.16 443.945C1335.33 478.87 1296.25 509.781 1251.88 536.651C1164.51 589.554 1056.68 626.874 932.168 645.257C859.371 655.999 781.559 660.576 701.243 661.317C642.218 661.73 581.696 660.192 520.365 657.383C431.915 653.214 340.656 646.387 262.404 656.359C235.349 659.847 210.208 665.367 186.957 672.657C86.6231 703.983 17.4286 765.59 -10.2304 846.007C-17.42 866.55 -22.04 888.252 -24.1711 911.037C-32.9007 998.072 -8.10276 1100.42 37.0476 1206.84C44.7583 1225.02 53.088 1243.53 61.5995 1262.16C92.0011 1328.68 124.73 1396.92 139.646 1458.5C148.568 1495.31 151.719 1530.13 142.026 1559.47C135.979 1577.79 125.014 1592.96 110.285 1605.75C94.6187 1619.36 75.7592 1630.48 55.2611 1640.84C-14.7352 1676.1 -101.211 1704.8 -135.454 1765.56M1414.64 -260.076C1529.7 -126.284 1586.49 12.3108 1560.35 112.671C1544.08 175.55 1489.08 209.622 1473.06 272.193C1455.21 341.348 1421.11 402.182 1373.41 454.2C1340.69 489.887 1301.53 521.444 1256.75 548.702C1168.55 602.359 1058.58 639.393 930.672 656.443C855.893 666.412 775.692 669.86 692.675 669.234C631.659 668.688 569.016 666.02 505.574 662.028C414.08 656.199 319.768 647.619 239.31 656.721C211.5 659.897 185.722 665.209 161.968 672.409C59.4082 703.401 -8.17943 767.744 -33.4541 851.278C-39.9978 872.618 -43.9299 895.143 -45.3863 918.729C-51.3775 1008.79 -23.2846 1113.96 25.0811 1222.81C33.3379 1241.4 42.2232 1260.31 51.2658 1279.34C83.5597 1347.27 117.946 1416.77 133.527 1479.22C142.843 1516.55 145.825 1551.62 136.174 1581.45C130.146 1600.08 119.329 1615.65 104.981 1628.99C89.6517 1643.25 71.008 1655.1 50.6682 1666.07C-18.7328 1703.4 -106.05 1732.07 -141.958 1792.93M1413.76 -255.112C1532.41 -121.421 1591.26 17.4025 1565.44 117.229C1549.01 180.985 1492.64 214.984 1477.02 278.746C1459.72 349.116 1426.21 411.333 1378.69 464.468C1346.09 500.927 1306.84 533.125 1261.63 560.764C1172.62 615.172 1060.5 651.925 929.194 667.648C852.43 676.836 769.842 679.163 684.119 677.172C621.104 675.661 556.346 671.862 490.794 666.695C396.263 659.204 298.881 648.868 216.223 657.108C187.663 659.969 161.257 665.079 136.992 672.182C32.201 702.844 -33.7754 769.92 -56.6582 856.577C-62.5485 878.719 -65.7879 902.065 -66.5891 926.442C-69.8466 1019.54 -38.4467 1127.54 13.1343 1238.8C21.9373 1257.8 31.3732 1277.12 40.9516 1296.54C75.1377 1365.88 111.182 1436.65 127.42 1499.96C137.129 1537.82 139.956 1573.14 130.334 1603.45C124.325 1622.39 113.72 1638.41 99.6846 1652.26C84.7567 1667.21 66.2566 1679.74 46.0827 1691.32C-22.7201 1730.73 -110.886 1759.38 -148.453 1820.32M1412.87 -250.149C1535.12 -116.561 1596.01 22.486 1570.52 121.777C1553.93 186.402 1496.18 220.332 1480.98 285.295C1464.22 356.879 1431.3 420.479 1383.95 474.726C1287.51 585.227 1130.83 657.136 927.706 678.84C791.072 693.438 635.718 686.32 476.015 671.343C378.441 662.193 278.005 650.103 193.141 657.474C37.1262 671.027 -54.6183 751.309 -79.8652 861.848C-105.112 972.388 -67.9616 1111.32 1.18937 1254.77C63.9334 1384.94 154.599 1528.72 124.503 1625.43C90.0801 1736.02 -93.5137 1752.08 -154.943 1847.68M2149.98 614.265C1961 464.748 1729.69 339.046 1508.77 265.808C1445.92 244.972 1381.69 227.962 1332.14 231.142C1188.98 240.338 1208.17 384.898 1197.9 478.843C1185.49 592.209 1177.92 707.972 1149.38 813.77C1133.36 873.168 1102.31 933.358 1006.97 928.286C910.418 923.147 787.768 853.911 676.656 796.03C547.185 728.582 412.01 669.47 285.898 639.331C159.786 609.193 43.3723 610.794 -12.7828 658.684C-56.7547 696.188 -61.2862 758.19 -56.5221 821.783C-43.9947 988.877 28.109 1178.96 153.179 1374.63M2144.69 606.188C1977.67 474.042 1776.94 365.595 1571.57 291.204C1552.5 284.295 1533.47 277.653 1514.52 271.438C1452.27 251.031 1388.75 234.295 1339.51 237.116C1197.02 245.224 1211.63 384.225 1199.11 476.267C1188.01 557.871 1180.52 641.663 1165.04 722.385C1159.75 750.45 1153.56 778.09 1146.04 805.104C1129.72 863.698 1099 923.135 1006.07 919.438C911.979 915.692 792.654 849.931 684.445 795.128C558.355 731.276 426.679 675.442 303.558 647.515C260.691 637.793 218.936 631.779 180.349 630.065C108.129 626.843 46.9734 638.656 10.4221 669.361C-33.4829 706.243 -39.4521 766.644 -36.652 828.315C-31.0508 953.117 7.94956 1090.07 78.8124 1233.29C99.953 1276.02 123.926 1319.31 150.72 1363M2139.41 598.119C1977.95 470.378 1784.4 370.15 1576.7 296.389C1557.85 289.697 1539.02 283.165 1520.28 277.083C1458.64 257.113 1395.83 240.644 1346.87 243.102C1205.04 250.119 1215.1 383.56 1200.34 473.707C1187.36 552.896 1178.89 635.133 1162.31 714.948C1156.75 742.568 1150.36 769.808 1142.71 796.453C1126.11 854.249 1095.69 912.93 1005.19 910.605C913.543 908.246 797.543 845.962 692.25 794.239C569.547 733.979 441.36 681.428 321.242 655.718C279.42 646.77 238.639 641.389 200.899 640.147C130.264 637.789 70.1481 649.866 33.6558 680.054C-10.1749 716.32 -17.5846 775.11 -16.7606 834.857C-15.2143 955.766 17.8128 1087.34 82.226 1225.76C101.444 1267.07 123.446 1308.97 148.281 1351.38M2134.12 590.043C1978.22 466.709 1791.88 374.683 1581.83 301.567C1563.19 295.078 1544.57 288.66 1526.05 282.718C1465.01 263.176 1402.92 246.99 1354.25 249.08C1213.08 255.01 1218.61 382.885 1201.56 471.136C1186.73 547.908 1176.92 628.426 1159.6 707.504C1153.66 734.63 1147.17 761.519 1139.39 787.797C1122.49 844.789 1092.39 902.72 1004.32 901.765C915.122 900.793 802.454 841.99 700.064 793.346C580.744 736.681 456.055 687.408 338.932 663.907C298.15 655.736 258.347 650.986 221.448 650.21C152.394 648.719 93.3265 661.054 56.8914 690.737C13.135 726.387 4.28482 783.566 3.13268 841.388C0.627054 958.413 27.6782 1084.6 85.6494 1218.23C102.946 1258.11 122.98 1298.62 145.865 1339.75M2128.83 581.975C1978.51 463.045 1799.37 379.199 1586.95 306.754C1568.53 300.475 1550.11 294.167 1531.81 288.365C1471.37 269.26 1409.99 253.34 1361.62 255.065C1221.11 259.907 1222.12 382.223 1202.78 468.578C1186.12 542.94 1175.18 621.846 1156.86 700.069C1150.63 726.738 1143.97 753.236 1136.05 779.148C1118.87 835.342 1089.09 892.521 1003.42 892.934C916.688 893.355 807.346 838.028 707.859 792.461C591.92 739.391 470.722 693.39 356.598 672.108C316.853 664.706 278.037 660.592 241.972 660.284C174.511 659.663 116.488 672.26 80.095 701.425C36.4008 736.456 26.1177 792.031 22.994 847.925C16.4336 961.057 37.5115 1081.87 89.0286 1210.7C104.398 1249.15 122.465 1288.28 143.392 1328.13M2123.53 573.902C1978.78 459.376 1806.86 383.695 1592.07 311.934C1573.87 305.856 1555.65 299.674 1537.57 294.003C1477.73 275.326 1417.07 259.684 1368.99 261.05C1229.15 264.803 1225.67 381.559 1204.01 466.019C1185.55 537.983 1173.46 615.266 1154.15 692.636C1147.61 718.848 1140.79 744.959 1132.73 770.501C1115.26 825.892 1085.79 882.32 1002.55 884.106C918.266 885.913 812.261 834.066 715.672 791.579C603.113 742.096 485.417 699.381 374.291 680.317C335.59 673.69 297.748 670.208 262.524 670.367C196.648 670.611 139.664 683.471 103.337 712.125C59.7176 746.54 48.0014 800.51 42.9016 854.48C32.2938 963.724 47.3911 1079.15 92.4662 1203.2C105.913 1240.21 122.009 1277.96 140.977 1316.53M2118.24 565.824C1979.06 455.703 1814.36 388.154 1597.19 317.104C1579.21 311.224 1561.19 305.162 1543.32 299.634C1484.09 281.391 1424.13 266.017 1376.35 267.018C1237.17 269.687 1229.22 380.877 1205.21 463.438C1184.99 533.009 1171.71 608.667 1151.4 685.178C1144.57 710.933 1137.57 736.656 1129.37 761.823C1111.62 816.416 1082.46 872.086 1001.64 875.246C919.804 878.441 817.131 830.075 723.446 790.666C614.269 744.778 500.071 705.341 391.936 688.489C354.28 682.637 317.416 679.786 283.035 680.419C218.74 681.53 162.805 694.648 126.528 722.791C82.9824 756.59 69.8211 808.952 62.7498 860.994C48.0871 966.346 57.2112 1076.4 95.8368 1195.65C107.357 1231.23 121.485 1267.59 138.5 1304.88M2112.95 557.756C1979.33 452.042 1821.88 392.605 1602.31 322.293C1584.55 316.605 1566.73 310.671 1549.09 305.28C1490.46 287.467 1431.21 272.368 1383.73 273.01C1245.2 274.585 1232.82 380.231 1206.45 460.884C1184.47 528.068 1170.01 602.096 1148.69 677.753C1141.56 703.057 1134.38 728.381 1126.06 753.184C1108.02 806.974 1079.17 861.893 1000.77 866.425C921.392 871.013 822.036 826.118 731.266 789.789C625.476 747.493 514.772 711.337 409.64 696.701C373.021 691.617 337.138 689.405 303.597 690.505C240.887 692.479 186.003 705.865 149.777 733.496C106.298 766.673 91.7037 817.431 82.6516 867.55C63.9416 969.015 67.0851 1073.69 99.264 1188.14C108.862 1222.3 121.019 1257.27 136.075 1293.29M2107.66 549.679C1979.61 448.369 1829.39 397.014 1607.44 327.469C1589.89 321.971 1572.29 316.171 1554.85 310.916C1496.83 293.537 1438.29 278.713 1391.1 278.99C1253.24 279.477 1236.44 379.569 1207.67 458.315C1183.99 523.121 1168.29 595.512 1145.96 670.304C1138.54 695.148 1131.18 720.087 1122.72 744.524C1104.4 797.516 1075.86 851.677 999.887 857.589C922.96 863.564 826.936 822.15 739.07 788.9C636.662 750.199 529.452 717.323 427.315 704.897C391.74 700.588 356.836 699.006 324.131 700.574C263.014 703.419 209.167 717.059 172.997 744.185C129.593 776.747 113.558 825.894 102.537 874.094C79.7724 971.666 76.9428 1070.96 102.672 1180.62C110.343 1213.35 120.525 1246.93 133.639 1281.67M2102.37 541.605C1979.89 444.7 1836.9 401.399 1612.56 332.648C1595.23 327.34 1577.83 321.67 1560.61 316.553C1503.18 299.605 1445.36 285.056 1398.47 284.965C1261.27 284.367 1240.09 378.916 1208.89 455.746C1183.53 518.188 1166.6 588.937 1143.24 662.864C1135.53 687.263 1127.99 711.803 1119.4 735.87C1100.78 788.058 1072.55 841.469 999.005 848.754C924.529 856.115 831.838 818.184 746.874 788.011C647.849 752.905 544.137 723.307 444.999 713.099C410.468 709.565 376.538 708.615 344.672 710.65C285.137 714.362 232.341 728.269 196.223 754.873C152.885 786.812 135.413 834.357 122.421 880.63C95.6086 974.315 86.7984 1068.23 106.086 1173.1C111.835 1204.39 120.045 1236.59 131.205 1270.05M2097.09 533.535C1980.17 441.034 1844.44 405.763 1617.68 337.828C1600.57 332.701 1583.37 327.168 1566.36 322.187C1509.54 305.674 1452.43 291.393 1405.83 290.945C1269.29 289.26 1243.76 378.271 1210.09 453.177C1183.09 513.267 1164.89 582.361 1140.49 655.418C1132.5 679.364 1124.77 703.513 1116.05 727.211C1097.14 778.601 1069.23 831.254 998.101 839.913C926.074 848.661 836.716 814.212 754.656 787.116C659.017 755.603 558.799 729.285 462.652 721.29C429.158 718.524 396.202 718.208 365.184 720.714C307.233 725.29 255.482 739.459 219.421 765.557C176.153 796.883 157.245 842.815 142.277 887.163C111.41 976.955 96.6187 1065.48 109.459 1165.56C113.286 1195.43 119.525 1226.24 128.726 1258.42M2091.79 525.46C1980.45 437.364 1851.95 410.086 1622.8 343.007C1605.9 338.061 1588.91 332.673 1572.12 327.824C1515.9 311.741 1459.5 297.735 1413.2 296.92C1277.33 294.146 1247.47 377.638 1211.31 450.608C1182.7 508.356 1163.19 575.783 1137.77 647.975C1129.5 671.473 1121.58 695.225 1112.73 718.554C1093.53 769.141 1065.94 821.049 997.228 831.071C927.659 841.213 841.623 810.231 762.476 786.227C670.212 758.303 573.501 735.269 480.349 729.484C447.9 727.493 415.922 727.807 385.746 730.788C329.381 736.228 278.674 750.658 242.663 776.244C199.469 806.954 179.116 851.278 162.184 893.705C127.269 979.609 106.498 1062.76 112.889 1158.04C114.789 1186.47 119.06 1215.91 126.308 1246.8M2086.5 517.393C1980.72 433.704 1859.46 414.379 1627.93 348.193C1611.25 343.426 1594.45 338.154 1577.88 333.47C1522.25 317.745 1466.59 304.09 1420.58 302.909C1285.36 299.042 1251.22 377.027 1212.55 448.052C1182.37 503.478 1161.53 569.23 1135.05 640.542C1126.5 663.592 1118.39 686.939 1109.4 709.904C1089.92 759.692 1062.63 810.842 996.343 822.239C929.225 833.768 846.521 806.268 770.282 785.339C681.4 761.01 588.187 741.254 498.033 737.687C466.629 736.47 435.625 737.417 406.289 740.864C351.513 747.178 301.85 761.868 265.897 786.938C222.77 817.026 200.984 859.746 182.076 900.247C143.107 982.259 116.362 1060.03 116.311 1150.52C116.289 1177.52 118.589 1205.57 123.886 1235.2M2081.21 509.316C1981 430.031 1866.96 418.627 1633.05 353.372C1616.59 348.778 1600 343.657 1583.64 339.106C1528.61 323.81 1473.66 310.432 1427.94 308.886C1293.39 303.934 1255.01 376.424 1213.76 445.479C1182.04 498.594 1159.84 562.662 1132.32 633.096C1123.49 655.696 1115.19 678.648 1106.06 701.244C1086.29 750.229 1059.32 800.628 995.454 813.398C930.786 826.313 851.414 802.295 778.078 784.444C692.583 763.707 602.864 747.232 515.702 745.877C485.329 745.432 455.316 747.012 426.811 750.931C373.62 758.108 325.001 773.06 289.098 797.618C246.046 827.091 222.819 868.199 201.935 906.776C158.918 984.901 126.193 1057.29 119.688 1142.98C117.739 1168.56 118.071 1195.22 121.41 1223.57M2075.92 501.241C1981.27 426.361 1874.45 422.841 1638.17 358.551C1621.92 354.13 1605.54 349.156 1589.39 344.745C1534.97 329.877 1480.73 316.774 1435.31 314.869C1301.42 308.83 1258.84 375.84 1214.98 442.919C1181.76 493.743 1158.18 556.105 1129.59 625.658C1120.48 647.81 1111.99 670.366 1102.73 692.592C1082.67 740.779 1056.02 790.42 994.567 804.564C932.357 818.873 856.311 798.33 785.878 783.557C703.765 766.415 617.54 753.221 533.38 754.081C504.052 754.411 475.013 756.624 447.348 761.009C395.742 769.051 348.167 784.263 312.322 808.316C269.344 837.173 244.672 876.673 221.819 913.331C174.747 987.563 136.049 1054.57 123.102 1135.48C119.23 1159.62 117.592 1184.9 118.977 1211.96M2070.63 493.17C1981.56 422.695 1881.93 427.016 1643.3 363.728C1627.26 359.477 1611.09 354.651 1595.16 350.38C1541.33 335.94 1487.81 323.114 1442.68 320.844C1309.45 313.716 1262.71 375.269 1216.2 440.344C1181.5 488.89 1156.51 549.543 1126.86 618.213C1117.48 639.923 1108.79 662.076 1099.4 683.932C1079.05 731.316 1052.7 780.207 993.678 795.723C933.918 811.419 861.197 794.352 793.675 782.662C714.949 769.113 632.217 759.199 551.053 762.269C522.77 763.374 494.709 766.217 467.887 771.076C417.862 779.985 371.339 795.465 335.552 819C292.641 847.235 266.536 885.131 241.707 919.864C190.588 990.209 145.909 1051.84 126.512 1127.94C120.707 1150.65 117.101 1174.55 116.535 1200.33M2065.34 485.097C1981.83 419.028 1889.4 431.146 1648.41 368.91C1632.59 364.824 1616.62 360.154 1600.91 356.022C1547.69 342.019 1494.93 329.54 1450.05 326.83C1317.64 318.841 1266.63 374.737 1217.42 437.787C1181.29 484.081 1154.87 543.002 1124.13 610.776C1114.49 632.041 1105.59 653.794 1096.06 675.282C1075.43 721.868 1049.4 770 992.793 786.891C935.478 803.976 866.094 790.388 801.48 781.774C726.136 771.819 646.903 765.183 568.737 770.472C541.491 772.345 514.411 775.827 488.43 781.152C439.997 790.931 394.511 806.666 358.774 829.69C315.932 857.312 288.387 893.598 261.586 926.403C206.412 992.855 155.76 1049.11 129.917 1120.42C122.189 1141.7 116.612 1164.21 114.095 1188.73M2060.06 477.026C1982.12 415.362 1896.85 435.24 1653.55 374.093C1637.93 370.171 1622.18 365.663 1606.68 361.663C1554.07 348.087 1502.02 335.883 1457.44 332.814C1325.68 323.731 1270.6 374.224 1218.66 435.225C1181.15 479.286 1153.25 536.462 1121.43 603.343C1111.53 624.17 1102.42 645.517 1092.76 666.638C1071.84 712.42 1046.12 759.802 991.939 778.07C937.083 796.549 871.028 786.435 809.312 780.9C737.35 774.541 661.616 771.182 586.441 778.684C560.239 781.331 534.134 785.446 508.992 791.238C462.145 801.881 417.71 817.883 382.023 840.396C339.248 867.396 310.277 902.082 281.5 932.963C222.279 995.528 165.642 1046.4 133.354 1112.92C123.699 1132.77 116.159 1153.89 111.685 1177.12M2054.76 468.952C1982.38 411.687 1904.28 439.285 1658.66 379.275C1643.26 375.515 1627.72 371.163 1612.44 367.305C1560.42 354.167 1509.08 342.231 1464.79 338.797C1333.7 328.629 1274.6 373.745 1219.86 432.658C1180.99 474.508 1151.6 529.923 1118.68 595.897C1108.52 616.285 1099.19 637.22 1089.41 657.978C1068.2 702.962 1042.8 749.592 991.034 769.229C938.628 789.094 875.905 782.462 817.093 780.005C748.51 777.232 676.27 777.154 604.093 786.874C578.936 790.296 553.809 795.042 529.503 801.302C484.237 812.812 440.846 829.075 405.213 851.074C362.513 877.457 332.101 910.534 301.348 939.489C238.072 998.161 175.454 1043.65 136.731 1105.38C125.154 1123.8 115.643 1143.54 109.21 1165.49M2049.47 460.876C1982.66 408.014 1911.68 443.276 1663.78 384.446C1648.59 380.842 1633.26 376.66 1618.19 372.933C1566.78 360.223 1516.16 348.562 1472.17 344.769C1341.73 333.507 1278.66 373.282 1221.09 430.087C1180.89 469.748 1149.99 523.389 1115.97 588.454C1105.54 608.404 1096 628.933 1086.08 649.315C1064.58 693.496 1039.49 739.375 990.149 760.385C940.193 781.637 880.796 778.481 824.894 779.107C759.694 779.929 690.952 783.13 621.778 795.065C597.658 799.256 573.512 804.64 550.053 811.372C506.373 823.747 464.026 840.27 428.455 861.761C385.829 887.529 353.972 918.997 321.248 946.026C253.924 1000.81 185.326 1040.92 140.149 1097.85C126.65 1114.84 115.167 1133.2 106.776 1153.87M2044.18 452.807C1982.94 404.353 1919.07 447.225 1668.91 389.631C1653.92 386.183 1638.8 382.165 1623.96 378.579C1573.15 366.305 1523.23 354.913 1479.54 350.752C1349.75 338.4 1282.78 372.869 1222.31 427.52C1180.82 465.014 1148.37 516.859 1113.23 581.011C1102.54 600.522 1092.8 620.643 1082.74 640.658C1060.96 684.041 1036.17 729.165 989.26 751.543C941.762 774.188 885.69 774.508 832.691 778.213C770.873 782.63 705.625 789.11 639.447 803.255C616.371 808.221 593.204 814.235 570.58 821.436C528.493 834.681 487.19 851.466 451.661 872.439C409.102 897.585 375.812 927.449 341.119 952.558C269.741 1003.45 195.169 1038.18 143.543 1090.32C128.117 1105.88 114.666 1122.85 104.322 1142.24M2038.89 444.733C1983.21 400.683 1926.43 451.122 1674.02 394.812C1659.24 391.512 1644.34 387.665 1629.71 384.218C1579.51 372.381 1530.26 361.187 1486.9 356.737C1357.64 343.083 1286.94 372.499 1223.53 424.962C1180.78 460.317 1146.77 510.342 1110.51 573.579C1099.57 592.658 1089.61 612.366 1079.42 632.012C1057.34 674.592 1032.88 718.963 988.382 742.716C943.334 766.748 890.593 770.55 840.503 777.329C782.071 785.339 720.317 795.1 657.138 811.463C635.106 817.204 612.913 823.851 591.129 831.517C550.623 845.629 510.368 862.673 474.897 883.14C432.407 907.673 397.677 935.926 361.008 959.111C285.583 1006.12 205.03 1035.46 146.962 1082.81C129.614 1096.94 114.184 1112.52 101.896 1130.64M2033.61 436.662C1983.5 397.017 1933.76 454.969 1679.16 399.996C1664.58 396.851 1649.9 393.174 1635.48 389.861C1585.88 378.461 1537.34 367.536 1494.28 362.719C1365.68 347.97 1291.17 372.166 1224.76 422.397C1180.8 455.643 1145.2 503.828 1107.79 566.137C1096.6 584.783 1086.42 604.08 1076.09 623.359C1053.73 665.141 1029.57 708.756 987.501 733.881C944.903 759.3 895.495 766.583 848.308 776.441C793.259 788.045 735.003 801.084 674.814 819.66C653.815 826.172 632.605 833.446 611.664 841.588C572.743 856.564 533.528 873.871 498.123 893.828C455.708 917.745 419.537 944.387 380.892 965.647C301.412 1008.76 214.886 1032.73 150.364 1075.28C131.089 1087.98 113.692 1102.18 99.4507 1119.02M2028.31 428.588C1983.77 393.348 1941.05 458.756 1684.27 405.169C1669.9 402.172 1655.43 398.668 1641.23 395.492C1592.24 384.528 1544.41 373.87 1501.65 368.696C1373.71 352.86 1295.44 371.879 1225.97 419.825C1180.82 450.988 1143.6 497.309 1105.05 558.694C1093.61 576.907 1083.2 595.786 1072.75 614.702C1050.1 655.68 1026.26 698.542 986.607 725.042C946.468 751.854 900.382 762.605 856.101 775.549C804.434 790.748 749.676 807.065 692.49 827.856C672.536 835.143 652.3 843.051 632.207 851.664C594.866 867.507 556.707 885.078 521.345 904.518C478.996 927.813 441.393 952.851 400.771 972.186C317.244 1011.41 224.737 1030 153.773 1067.76C132.575 1079.03 113.207 1091.84 97.0076 1107.4M2023.02 420.512C1984.05 389.676 1948.31 462.483 1689.39 410.349C1675.22 407.493 1660.98 404.19 1646.99 401.132C1598.63 390.67 1551.48 380.215 1509.02 374.679C1381.74 357.758 1299.77 371.644 1227.19 417.265C1180.88 446.369 1142.04 490.818 1102.33 551.255C1090.64 569.038 1080.01 587.502 1069.43 606.049C1046.49 646.229 1022.96 688.335 985.726 716.207C948.037 744.406 905.284 758.639 863.905 774.66C815.618 793.446 764.362 813.049 710.167 836.053C691.256 844.114 671.994 852.655 652.741 861.734C616.994 878.447 579.872 896.274 544.566 915.208C502.292 937.887 463.243 961.317 420.658 978.73C333.075 1014.06 234.596 1027.27 157.182 1060.24C134.058 1070.08 112.723 1081.5 94.5647 1095.78M2017.73 412.443C1984.33 386.014 1955.53 466.161 1694.52 415.533C1680.55 412.825 1666.54 409.699 1652.75 406.768C1605 396.74 1558.56 386.56 1516.39 380.654C1389.77 362.645 1304.16 371.462 1228.41 414.69C1180.96 441.769 1140.47 484.313 1099.6 543.809C1087.67 561.165 1076.81 579.211 1066.08 597.383C1042.86 636.759 1019.65 678.119 984.829 707.359C949.59 736.945 910.169 754.66 871.694 773.759C826.789 796.14 779.031 819.021 727.827 844.237C709.954 853.067 691.678 862.244 673.26 871.792C639.098 889.37 603.023 907.466 567.764 925.88C525.565 947.943 485.075 969.762 440.514 985.25C348.884 1016.69 244.424 1024.52 160.563 1052.7C135.517 1061.11 112.21 1071.15 92.1059 1084.15M2012.44 404.366C1984.6 382.341 1962.71 469.773 1699.65 420.71C1685.87 418.143 1672.08 415.196 1658.51 412.405C1611.36 402.808 1565.64 392.902 1523.76 386.637C1397.81 367.54 1308.6 371.34 1229.63 412.13C1181.08 437.212 1138.93 477.833 1096.87 536.368C1084.7 553.304 1073.61 570.927 1062.75 588.731C1039.24 627.31 1016.34 667.913 983.95 698.532C951.162 729.505 915.073 750.702 879.506 772.875C837.987 798.849 793.724 825.01 745.518 852.445C728.689 862.05 711.387 871.859 693.809 881.873C661.228 900.318 626.202 918.672 591.005 936.578C548.872 958.019 506.945 978.237 460.412 991.798C364.727 1019.35 254.286 1021.79 163.984 1045.18C137.015 1052.16 111.737 1060.82 89.6743 1072.54M2007.16 396.299C1984.88 378.678 1969.85 473.326 1704.77 425.898C1691.2 423.471 1677.62 420.705 1664.27 418.051C1617.73 408.888 1572.72 399.251 1531.13 392.62C1405.83 372.43 1313.1 371.279 1230.86 409.568C1181.21 432.682 1137.4 471.356 1094.16 528.935C1081.76 545.447 1070.43 562.649 1059.43 580.084C1035.63 617.859 1013.05 657.71 983.077 689.703C952.746 722.069 919.975 746.736 887.319 771.993C849.182 801.561 808.413 831.003 763.203 860.648C747.418 871.027 731.094 881.467 714.347 891.952C683.351 911.261 649.369 929.877 614.222 947.271C572.159 968.099 528.796 986.703 480.294 998.345C380.562 1022.01 264.141 1019.07 167.389 1037.66C138.493 1043.21 111.248 1050.48 87.2273 1060.92M2001.86 388.222C1985.16 375.006 1976.94 476.81 1709.89 431.069C1696.51 428.778 1683.17 426.199 1670.03 423.682C1624.08 414.95 1579.78 405.588 1538.5 398.595C1413.86 377.32 1317.64 371.273 1232.07 406.993C1181.36 428.168 1135.87 464.878 1091.42 521.484C1078.78 537.575 1067.21 554.344 1056.09 571.419C1032 608.396 1009.73 647.491 982.186 680.853C954.305 714.606 924.866 742.755 895.113 771.09C860.359 804.253 823.088 836.973 780.881 868.833C766.133 879.981 750.79 891.06 734.891 902.017C705.488 922.197 672.545 941.076 637.453 957.956C595.456 978.162 550.661 995.162 500.178 1004.88C396.399 1024.66 273.997 1016.34 170.798 1030.14C139.98 1034.25 110.755 1040.14 84.7887 1049.3M1996.57 380.148C1985.43 371.339 1983.98 480.229 1715.01 436.248C1701.82 434.09 1688.71 431.698 1675.79 429.318C1630.45 421.02 1586.86 411.933 1545.86 404.572C1421.89 382.209 1322.22 371.332 1233.29 404.426C1181.52 423.694 1134.36 458.422 1088.69 514.043C1075.83 529.717 1064.02 546.059 1052.77 562.765C1028.39 598.938 1006.43 637.28 981.304 672.017C955.874 707.158 929.767 738.788 902.917 770.2C871.55 806.956 837.773 842.957 798.556 877.029C784.853 888.952 770.489 900.661 755.425 912.087C727.603 933.133 695.709 952.271 660.678 968.643C618.756 988.233 572.515 1003.62 520.061 1011.42C412.227 1027.3 283.852 1013.6 174.204 1022.61C141.459 1025.29 110.267 1029.79 82.3498 1037.68M1991.28 372.079C1985.71 367.675 1990.97 483.584 1720.13 441.436C1707.13 439.413 1694.26 437.21 1681.55 434.966C1636.81 427.096 1593.93 418.287 1553.23 410.564C1429.93 387.113 1326.86 371.473 1234.51 401.869C1181.69 419.256 1133.01 452.076 1085.96 506.609C1072.91 521.893 1060.81 537.78 1049.43 554.116C1024.77 589.492 1003.11 627.078 980.413 663.187C957.44 699.72 934.664 734.824 910.712 769.316C882.727 809.667 852.448 848.946 816.231 885.236C803.572 897.934 790.182 910.276 775.958 922.168C749.721 944.078 718.871 963.477 683.89 979.338C642.042 998.312 594.368 1012.1 539.938 1017.97C428.057 1029.96 293.701 1010.88 177.611 1015.09C142.944 1016.35 109.78 1019.47 79.9092 1026.07M1985.99 364.003C1985.99 364.003 1997.91 486.867 1725.26 446.613C1452.61 406.358 1253.18 309.819 1083.24 499.166C965.813 630.014 928.077 810.653 796.502 932.233C742.367 982.255 663.385 1017.26 559.827 1024.5C443.89 1032.6 303.561 1008.15 181.017 1007.56C144.423 1007.39 109.297 1009.12 77.4634 1014.45" stroke="white" stroke-width="0.197078" stroke-miterlimit="10"/>
<path d="M2005.38 615.998C2031.02 822.721 2036.86 1021.08 1993.15 1191.27C1978.99 1246.46 1959.42 1298.91 1920.55 1337.76C1841.3 1416.97 1687.47 1435.01 1572.53 1485.57C1426.54 1549.79 1344.5 1669.27 1334.07 1826.81C1326.23 1945.35 1344.84 2101.98 1271.28 2181.23C1204.45 2253.23 950.859 2176.63 807.794 2169.28C661.266 2161.74 552.27 2199.85 492.729 2272.61C461.541 2310.74 443.742 2358.44 441.271 2414.25C438.917 2467.62 474.885 2546.35 370.385 2523.4C335.844 2515.81 296.188 2497.19 259.07 2484.37C130.082 2439.82 40.3027 2477.02 62.4312 2565.88M2004.45 623.367C2035.35 830.349 2044.21 1029.27 2000.95 1198.7C1986.6 1255.17 1965.01 1307.38 1926.84 1348.07C1880.63 1397.04 1808.14 1424.65 1732.51 1449.88C1680.89 1467.11 1627.79 1483.23 1580.58 1504.27C1487.31 1545.83 1417.47 1607.69 1373.13 1685.51C1347.2 1731.02 1330.02 1782 1322.11 1837.76C1316.42 1876.81 1313.66 1920.1 1309.23 1963.14C1302.87 2023.57 1293.15 2083.49 1268.07 2131.48C1259.1 2148.74 1248.16 2164.46 1234.64 2178.02C1178.67 2234.01 1012.54 2202.75 877.107 2186.49C840.72 2182.07 806.54 2178.72 777.259 2178.42C656.488 2176.87 563.858 2208.3 505.779 2265.49C495.773 2275.33 486.789 2285.94 478.853 2297.29C450.542 2337.74 435.274 2387.54 433.824 2444.72C432.973 2478.59 445.988 2521.71 431.58 2544.79C422.712 2559 403.391 2565.47 364.318 2557.76C330.179 2551.02 291.02 2533.67 254.189 2521.78C126.23 2480.43 35.2102 2517.5 54.9066 2606.3M2003.51 630.725C2039.69 837.975 2051.56 1037.46 2008.72 1206.13C1994.21 1263.89 1970.6 1315.84 1933.1 1358.36C1887.78 1409.22 1816.25 1438.97 1740.96 1465.9C1689.55 1484.29 1636.38 1501.37 1588.59 1522.95C1494.16 1565.54 1421.16 1626.73 1371.75 1702.18C1342.85 1746.28 1322.09 1795.3 1310.11 1848.69C1301.43 1886.08 1295.48 1927.43 1287.86 1968.45C1276.92 2026.03 1262.58 2082.96 1234.22 2129.41C1224.12 2146.11 1212.24 2161.44 1197.97 2174.81C1138.71 2230.05 975.13 2203.08 843.439 2191.79C808.069 2188.65 775.037 2186.7 746.714 2187.59C630.497 2191.27 542.603 2226.97 489.405 2288.16C480.237 2298.68 472.101 2309.97 464.962 2321.97C439.524 2364.76 426.786 2416.65 426.373 2475.21C426.138 2509.91 438.936 2553.39 424.613 2577.2C415.785 2591.88 396.558 2598.81 358.247 2592.13C324.499 2586.25 285.86 2570.17 249.306 2559.22C122.383 2521.06 30.1084 2557.99 47.3744 2646.74M2002.57 638.081C2044.02 845.593 2058.91 1045.66 2016.52 1213.54C2001.82 1272.6 1976.19 1324.29 1939.39 1368.66C1894.97 1421.41 1824.4 1453.31 1749.43 1481.92C1698.25 1501.49 1645.01 1519.52 1596.61 1541.62C1501.04 1585.25 1424.86 1645.77 1370.37 1718.82C1338.52 1761.53 1314.45 1808.75 1298.12 1859.62C1286.63 1895.44 1277.3 1934.73 1266.51 1973.73C1250.98 2028.47 1232.03 2082.42 1200.37 2127.3C1189.15 2143.45 1176.31 2158.4 1161.32 2171.58C1098.76 2226.06 938.007 2203.72 809.777 2197.06C775.484 2195.27 743.496 2194.59 716.164 2196.72C604.336 2205.42 521.334 2245.61 473.042 2310.79C464.717 2322 457.407 2333.96 451.083 2346.61C428.523 2391.73 418.316 2445.72 418.941 2505.65C419.322 2541.19 431.908 2585.03 417.665 2609.57C408.887 2624.72 389.766 2632.12 352.177 2626.46C318.83 2621.45 280.689 2606.62 244.411 2596.6C118.517 2561.64 24.9904 2598.42 39.8357 2687.12M2001.64 645.45C2048.35 853.221 2066.27 1053.86 2024.32 1220.98C2009.45 1281.33 1982.01 1332.91 1945.68 1378.96C1902.41 1433.79 1832.55 1467.65 1757.93 1497.97C1706.97 1518.7 1653.65 1537.69 1604.67 1560.32C1507.95 1604.99 1428.6 1664.84 1369.04 1735.5C1334.21 1776.82 1306.64 1822.13 1286.17 1870.57C1271.73 1904.77 1259.16 1942.06 1245.2 1979.07C1225.1 2030.96 1201.53 2081.93 1166.56 2125.25C1154.21 2140.84 1140.43 2155.41 1124.7 2168.39C1058.84 2222.12 900.741 2204.17 776.146 2202.37C742.887 2201.89 711.992 2202.53 685.651 2205.89C578.226 2219.6 500.11 2264.28 456.7 2333.46C449.206 2345.35 442.734 2357.98 437.224 2371.29C417.542 2418.74 409.859 2474.82 411.511 2536.13C412.508 2572.5 424.872 2616.68 410.719 2641.98C401.991 2657.59 382.97 2665.47 346.128 2660.83C313.175 2656.69 275.55 2643.11 239.548 2634.02C114.684 2602.27 19.9092 2638.9 32.324 2727.55M2000.7 652.804C2052.69 860.844 2073.63 1062.05 2032.11 1228.4C2017.05 1290.04 1987.64 1341.39 1951.94 1389.25C1909.62 1446 1840.67 1481.97 1766.38 1513.99C1715.65 1535.88 1662.26 1555.83 1612.68 1578.99C1514.81 1624.69 1432.29 1683.87 1367.66 1752.15C1329.87 1792.07 1298.77 1835.46 1274.18 1881.49C1256.79 1914.04 1241.16 1949.48 1223.84 1984.36C1199.41 2033.57 1170.73 2081.2 1132.71 2123.15C1119.14 2138.12 1104.5 2152.36 1088.02 2165.16C1018.87 2218.13 863.413 2204.55 742.469 2207.64C710.25 2208.46 680.436 2210.43 655.086 2215.02C552.035 2233.72 478.834 2282.92 440.317 2356.11C433.671 2368.68 428.025 2381.97 423.317 2395.94C406.526 2445.74 401.366 2503.92 404.045 2566.59C405.657 2603.8 417.804 2648.34 403.736 2674.37C395.059 2690.45 376.138 2698.81 340.041 2695.18C307.483 2691.91 270.374 2679.59 234.649 2671.43C110.82 2642.87 14.7977 2679.37 24.7805 2767.97M1999.76 660.173C2057.03 868.471 2080.98 1070.25 2039.9 1235.83C2024.68 1298.77 1993.28 1349.88 1958.24 1399.56C1916.86 1458.24 1848.81 1496.3 1774.86 1530.02C1724.35 1553.08 1670.89 1574 1620.73 1597.68C1521.71 1644.42 1436.02 1702.93 1366.3 1768.82C1325.54 1807.34 1290.92 1848.81 1262.2 1892.44C1241.86 1923.34 1223.02 1956.82 1202.5 1989.66C1173.53 2036.06 1140.16 2080.65 1098.87 2121.07C1084.18 2135.47 1068.6 2149.35 1051.37 2161.93C978.93 2214.15 826.122 2204.95 708.811 2212.92C677.632 2215.04 648.9 2218.32 624.551 2224.17C525.882 2247.85 457.587 2301.58 423.952 2378.76C418.138 2392.01 413.329 2405.98 409.424 2420.59C395.511 2472.73 392.882 2532.99 396.592 2597.05C398.82 2635.09 410.756 2679.99 396.767 2706.75C388.147 2723.31 369.318 2732.16 333.962 2729.54C301.803 2727.14 265.194 2716.06 229.752 2708.83C106.952 2683.47 9.67107 2719.82 17.2463 2808.37M1998.82 667.531C2061.35 876.091 2088.33 1078.43 2047.68 1243.25C2032.27 1307.48 1998.88 1358.35 1964.5 1409.85C1924.05 1470.44 1856.92 1510.63 1783.31 1546.04C1733.02 1570.27 1679.49 1592.14 1628.73 1616.35C1528.56 1664.13 1439.7 1721.96 1364.91 1785.47C1321.19 1822.59 1283.04 1862.15 1250.2 1903.36C1226.89 1932.63 1204.84 1964.14 1181.14 1994.97C1147.6 2038.54 1109.57 2080.09 1065.02 2118.98C1049.18 2132.81 1032.67 2146.32 1014.69 2158.71C938.952 2210.17 788.793 2205.33 675.127 2218.2C644.977 2221.61 617.332 2226.21 593.979 2233.31C499.675 2261.94 436.297 2320.23 407.562 2401.41C402.578 2415.33 398.619 2429.99 395.517 2445.25C384.483 2499.71 384.378 2562.07 389.114 2627.5C391.958 2666.38 403.676 2711.64 389.773 2739.13C381.192 2756.15 362.483 2765.51 327.853 2763.87C296.087 2762.36 259.995 2752.52 224.83 2746.22C103.054 2724.04 4.53667 2760.27 9.66837 2848.76M1997.88 674.886C2065.69 883.714 2095.69 1086.63 2055.48 1250.68C2039.9 1316.2 2004.51 1366.82 1970.79 1420.16C1931.26 1482.65 1865.07 1524.97 1791.81 1562.08C1741.74 1587.48 1688.14 1610.31 1636.79 1635.05C1535.47 1683.87 1443.43 1741.03 1363.58 1802.15C1316.88 1837.88 1275.18 1875.5 1238.25 1914.32C1211.97 1941.94 1186.73 1971.5 1159.83 2000.29C1121.74 2041.05 1079.04 2079.57 1031.21 2116.92C1014.23 2130.18 996.785 2143.31 978.061 2155.51C899.034 2206.21 751.514 2205.72 641.491 2223.5C612.369 2228.2 585.818 2234.12 563.46 2242.46C473.499 2276.04 415.068 2338.89 391.231 2424.07C387.097 2438.68 383.964 2454 381.664 2469.92C373.508 2526.72 375.927 2591.18 381.701 2657.99C385.161 2697.7 396.656 2743.3 382.844 2771.54C374.313 2789.03 355.719 2798.91 321.82 2798.24C290.458 2797.63 254.861 2789.01 219.983 2783.65C99.2366 2764.67 -0.527736 2800.76 2.185 2889.2M1996.95 682.254C2070.03 891.341 2103.04 1094.82 2063.27 1258.11C2047.51 1324.92 2010.13 1375.3 1977.06 1430.46C1938.45 1494.86 1873.2 1539.31 1800.27 1578.11C1750.42 1604.68 1696.73 1628.46 1644.8 1653.73C1542.34 1703.58 1447.13 1760.08 1362.19 1818.8C1312.54 1853.14 1267.28 1888.83 1226.26 1925.26C1197 1951.23 1168.57 1978.83 1138.47 2005.59C1095.82 2043.53 1048.47 2079.02 997.35 2114.84C979.24 2127.53 960.85 2140.29 941.382 2152.29C859.058 2202.24 714.163 2206.09 607.813 2228.79C579.726 2234.78 554.244 2242.01 532.894 2251.61C447.277 2290.11 393.791 2357.54 374.836 2446.73C371.533 2462.01 369.237 2478.01 367.752 2494.58C362.474 2553.72 367.435 2620.27 374.229 2688.45C378.311 2728.99 389.582 2774.96 375.856 2803.93C367.376 2821.89 348.895 2832.29 315.722 2832.6C284.758 2832.89 249.673 2825.5 215.061 2821.05C95.3493 2805.28 -5.68057 2841.22 -5.39338 2929.61M1996.01 689.61C2074.36 898.956 2110.4 1103.02 2071.06 1265.52C2055.12 1333.64 2015.74 1383.76 1983.34 1440.76C1945.65 1507.07 1881.35 1553.64 1808.74 1594.14C1759.11 1621.87 1705.35 1646.62 1652.84 1672.42C1549.21 1723.31 1450.83 1779.13 1360.82 1835.47C1308.2 1868.41 1259.39 1902.16 1214.28 1936.2C1182.04 1960.52 1150.42 1986.18 1117.14 2010.91C1069.9 2046.02 1017.92 2078.49 963.534 2112.78C944.29 2124.9 924.957 2137.29 904.751 2149.09C819.135 2198.29 676.863 2206.46 574.172 2234.09C547.113 2241.37 522.714 2249.92 502.364 2260.77C421.068 2304.17 372.549 2376.21 358.488 2469.4C356.027 2485.37 354.558 2502.03 353.887 2519.26C351.488 2580.73 358.972 2649.38 366.8 2718.93C371.498 2760.3 382.558 2806.63 368.91 2836.33C360.481 2854.76 342.126 2865.69 309.672 2866.97C279.117 2868.16 244.572 2862.05 210.198 2858.48C91.6905 2846.14 -10.7547 2881.7 -12.8996 2970.04M1995.06 696.968C2078.69 906.585 2117.74 1111.21 2078.84 1272.94C2062.72 1342.35 2021.34 1392.22 1989.61 1451.05C1952.83 1519.25 1889.47 1567.96 1817.19 1610.16C1767.79 1639.06 1713.96 1664.76 1660.84 1691.09C1556.08 1743.01 1454.51 1798.16 1359.44 1852.12C1303.86 1883.66 1251.46 1915.48 1202.28 1947.12C1167.06 1969.78 1132.24 1993.49 1095.78 2016.2C1043.97 2048.47 987.363 2077.93 929.678 2110.68C909.305 2122.24 889.029 2134.24 868.073 2145.86C779.16 2194.29 639.497 2206.79 540.484 2239.35C514.448 2247.91 491.125 2257.77 471.799 2269.91C394.801 2318.19 351.266 2394.86 342.093 2492.04C340.469 2508.68 339.849 2526.03 339.975 2543.91C340.454 2607.71 350.463 2678.45 359.328 2749.38C364.642 2791.59 375.473 2838.26 361.922 2868.71C353.55 2887.61 335.319 2899.07 303.57 2901.3C273.429 2903.42 239.38 2898.51 205.271 2895.86C87.7989 2886.71 -15.9004 2922.14 -20.4643 3010.43M1994.13 704.337C2083.03 914.213 2125.11 1119.42 2086.64 1280.39C2070.36 1351.08 2026.95 1400.7 1995.9 1461.37C1960.03 1531.47 1897.61 1582.31 1825.68 1626.2C1776.5 1656.27 1722.59 1682.93 1668.9 1709.79C1562.98 1762.76 1458.25 1817.24 1358.1 1868.8C1299.54 1898.95 1243.59 1928.83 1190.32 1958.09C1152.11 1979.09 1114.09 2000.84 1074.45 2021.53C1018.06 2050.97 956.83 2077.43 895.856 2108.62C874.348 2119.62 853.129 2131.24 831.445 2142.67C739.242 2190.35 602.178 2207.16 506.865 2244.68C481.853 2254.51 459.605 2265.69 441.298 2279.08C368.587 2332.24 330.054 2413.54 325.773 2514.73C324.993 2532.06 325.199 2550.07 326.133 2568.61C329.502 2634.75 342.03 2707.58 351.926 2779.89C357.856 2822.93 368.476 2869.96 355.004 2901.15C346.671 2920.5 328.576 2932.52 297.541 2935.7C267.832 2938.75 234.262 2935.04 200.429 2933.32C84.0044 2927.38 -20.9655 2962.64 -27.9615 3050.89M1993.19 711.692C2087.36 921.826 2131.85 1127.24 2094.43 1287.8C2077.69 1359.63 2032.54 1409.15 2002.18 1471.66C1967.2 1543.64 1905.74 1596.63 1834.15 1642.23C1785.2 1673.46 1731.21 1701.09 1676.92 1728.47C1569.86 1782.46 1461.95 1836.27 1356.73 1885.45C1295.21 1914.2 1235.65 1942.11 1178.33 1969C1137.12 1988.34 1095.91 2008.14 1053.11 2026.82C992.145 2053.43 926.294 2076.87 862.017 2106.52C839.386 2116.96 817.212 2128.21 794.785 2139.44C699.283 2186.37 564.814 2207.47 473.194 2249.94C449.206 2261.06 428.034 2273.55 410.739 2288.21C342.303 2346.24 308.784 2432.18 309.391 2537.36C309.442 2555.37 310.485 2574.05 312.234 2593.24C318.481 2661.72 333.533 2736.64 344.456 2810.32C351.002 2854.2 361.404 2901.59 348.018 2933.51C339.735 2953.33 321.782 2965.9 291.451 2970.02C262.168 2974 229.082 2971.49 195.533 2970.69C80.1552 2967.96 -26.0802 3003.08 -35.4952 3091.27M1992.25 719.051C2091.7 929.454 2139.19 1135.43 2102.21 1295.22C2085.29 1368.34 2038.12 1417.6 2008.44 1481.95C1974.35 1555.82 1913.85 1610.96 1842.6 1658.25C1793.86 1690.65 1739.82 1719.23 1684.94 1747.15C1576.71 1802.17 1465.65 1855.32 1355.34 1902.11C1290.85 1929.47 1227.71 1955.42 1166.34 1979.94C1122.11 1997.6 1077.73 2015.47 1031.75 2032.13C966.19 2055.9 895.739 2076.35 828.155 2104.44C804.394 2114.32 781.29 2125.19 758.106 2136.22C659.314 2182.39 527.431 2207.79 439.505 2255.23C416.534 2267.62 396.445 2281.42 380.162 2297.35C315.972 2360.22 287.495 2450.82 292.996 2560.01C293.884 2578.69 295.765 2598.05 298.322 2617.9C307.448 2688.71 325.035 2765.74 336.984 2840.79C344.134 2885.49 354.326 2933.24 341.03 2965.9C332.798 2986.2 314.991 2999.33 285.36 3004.38C256.507 3009.3 223.896 3007.96 190.617 3008.1C76.2747 3008.57 -31.208 3043.54 -43.0665 3131.68M1991.32 726.415C2096.03 937.08 2146.56 1143.63 2110.01 1302.65C2092.91 1377.06 2043.72 1426.06 2014.73 1492.25C1981.54 1568.01 1922.01 1625.29 1851.09 1674.28C1802.58 1707.85 1748.46 1737.39 1692.98 1765.83C1583.6 1821.89 1469.37 1874.36 1353.99 1918.77C1286.54 1944.73 1219.8 1968.73 1154.37 1990.88C1107.15 2006.87 1059.57 2022.78 1010.41 2037.43C940.26 2058.35 865.213 2075.82 794.328 2102.36C769.444 2111.68 745.385 2122.16 721.463 2132.99C619.374 2178.41 490.062 2208.08 405.852 2260.5C383.893 2274.17 364.88 2289.27 349.632 2306.5C289.683 2374.2 266.248 2469.48 276.648 2582.67C278.378 2602.04 281.097 2622.07 284.457 2642.57C296.461 2715.71 316.579 2794.83 329.56 2871.26C337.326 2916.8 347.306 2964.9 334.089 2998.3C325.908 3019.07 308.259 3032.77 279.309 3038.75C250.893 3044.61 218.756 3044.46 185.753 3045.52C72.4465 3049.18 -36.3017 3084.02 -50.5678 3172.11M1990.38 733.774C2100.36 944.698 2154.51 1152.18 2117.79 1310.07C2100.79 1385.94 2049.3 1434.51 2020.99 1502.55C1988.69 1580.2 1930.13 1639.62 1859.54 1690.3C1811.25 1725.03 1757.05 1755.53 1700.99 1784.51C1590.46 1841.61 1473.05 1893.4 1352.61 1935.42C1282.18 1959.99 1211.84 1982.01 1142.36 2001.8C1092.12 2016.11 1041.36 2030.09 989.055 2042.73C914.312 2060.81 834.664 2075.29 760.472 2100.27C734.465 2109.03 709.45 2119.14 684.784 2129.77C579.404 2174.44 452.657 2208.38 372.175 2265.79C351.239 2280.73 333.284 2297.15 319.073 2315.64C263.347 2388.18 244.977 2488.13 260.259 2605.31C262.827 2625.36 266.376 2646.07 270.545 2667.23C285.428 2742.7 308.069 2823.92 322.076 2901.72C330.458 2948.09 340.221 2996.55 327.096 3030.68C318.96 3051.91 301.475 3066.19 273.201 3073.08C245.233 3079.9 213.492 3080.84 180.832 3082.91C68.3375 3089.53 -41.4348 3124.47 -58.1444 3212.5M1989.43 741.134C2104.69 952.325 2161.87 1160.38 2125.58 1317.5C2108.41 1394.66 2054.9 1442.97 2027.28 1512.85C1995.86 1592.38 1938.27 1653.95 1868.03 1706.34C1819.97 1742.25 1765.69 1773.7 1709.03 1803.2C1597.36 1861.34 1476.78 1912.47 1351.25 1952.1C1277.87 1975.27 1203.92 1995.32 1130.4 2012.76C1077.14 2025.39 1023.2 2037.41 967.72 2048.05C888.381 2063.28 804.138 2074.78 726.645 2098.2C699.515 2106.41 673.552 2116.12 648.141 2126.57C539.464 2170.48 415.258 2208.68 338.529 2271.08C318.599 2287.3 301.714 2305.01 288.538 2324.79C237.017 2402.15 223.731 2506.79 243.906 2627.98C247.316 2648.71 251.699 2670.08 256.664 2691.89C274.425 2769.7 299.597 2853.01 314.636 2932.19C323.634 2979.39 333.174 3028.2 320.139 3063.07C312.054 3084.77 294.739 3099.64 267.14 3107.44C239.632 3115.21 208.33 3117.32 175.947 3120.32C64.4882 3130.13 -46.5384 3164.93 -65.6735 3252.92M1988.51 748.499C2109.04 959.949 2169.23 1168.57 2133.38 1324.93C2116.04 1403.38 2060.49 1451.42 2033.57 1523.15C2003.03 1604.56 1946.41 1668.28 1876.51 1722.37C1828.66 1759.43 1774.31 1791.85 1717.08 1821.88C1604.25 1881.06 1480.5 1931.52 1349.91 1968.76C1273.55 1990.53 1196 2008.6 1118.44 2023.69C1062.17 2034.63 1005.04 2044.72 946.401 2053.35C862.447 2065.72 773.638 2074.26 692.837 2096.12C664.578 2103.77 637.666 2113.1 611.511 2123.35C499.536 2166.51 377.872 2208.98 304.889 2276.37C285.959 2293.84 270.144 2312.87 258.009 2333.94C210.671 2416.1 202.491 2525.44 227.554 2650.62C231.796 2672.03 237.016 2694.08 242.796 2716.54C263.435 2796.68 291.143 2882.1 307.203 2962.64C316.816 3010.67 326.139 3059.84 313.19 3095.45C305.156 3117.62 288.028 3133.07 261.081 3141.78C234.044 3150.53 203.181 3153.79 171.074 3157.72C60.6334 3170.72 -51.634 3205.38 -73.1832 3293.33M1987.56 755.857C2113.36 967.566 2176.57 1176.76 2141.16 1332.35C2123.63 1412.1 2066.04 1459.86 2039.83 1533.45C2010.17 1616.74 1954.53 1682.62 1884.96 1738.4C1837.34 1776.64 1782.92 1810.01 1725.08 1840.57C1611.11 1900.77 1484.19 1950.57 1348.51 1985.42C1269.19 2005.8 1188.02 2021.88 1106.42 2034.62C1047.14 2043.87 986.822 2052.02 925.029 2058.66C836.479 2068.17 743.085 2073.74 658.973 2094.04C629.59 2101.13 601.724 2110.08 574.831 2120.13C459.565 2162.53 340.436 2209.26 271.21 2281.66C253.286 2300.4 238.542 2320.74 227.442 2343.09C184.28 2430.06 181.206 2544.1 211.169 2673.28C216.259 2695.38 222.31 2718.1 228.894 2741.21C252.423 2823.69 282.643 2911.19 299.741 2993.11C309.97 3041.99 319.082 3091.51 306.223 3127.86C298.239 3150.5 281.293 3166.54 255.011 3176.16C228.439 3185.87 198.01 3190.28 166.191 3195.15C56.7857 3211.35 -56.7359 3245.87 -80.7221 3333.76M1986.62 763.212C2117.7 975.192 2183.93 1184.95 2148.95 1339.76C2131.25 1420.81 2071.62 1468.3 2046.11 1543.74C2017.32 1628.91 1962.66 1696.94 1893.43 1754.41C1846.02 1793.81 1791.54 1828.15 1733.12 1859.24C1617.99 1920.48 1487.89 1969.6 1347.15 2002.07C1264.86 2021.05 1180.09 2035.15 1094.45 2045.54C1032.15 2053.11 968.652 2059.31 903.69 2063.95C810.533 2070.6 712.566 2073.21 625.135 2091.95C594.634 2098.49 565.814 2107.04 538.17 2116.9C419.607 2158.54 303.002 2209.53 237.539 2286.93C220.616 2306.93 206.941 2328.58 196.901 2352.22C157.908 2444 159.954 2562.74 194.798 2695.92C200.719 2718.7 207.615 2742.09 215 2765.86C241.401 2850.68 274.158 2940.27 292.288 3023.57C303.139 3073.27 312.015 3123.15 299.254 3160.24C291.32 3183.35 274.566 3199.99 248.926 3210.49C222.836 3221.19 192.836 3226.74 161.282 3232.53C52.9053 3251.93 -61.8571 3286.31 -88.2688 3374.15M1985.69 770.581C2122.04 982.819 2191.28 1193.15 2156.75 1347.21C2138.87 1429.54 2077.19 1476.75 2052.4 1554.06C2024.48 1641.1 1970.81 1711.3 1901.92 1770.47C1854.75 1811.04 1800.18 1846.34 1741.16 1877.94C1624.9 1940.23 1491.61 1988.67 1345.8 2018.76C1260.55 2036.35 1172.15 2048.45 1082.48 2056.51C1017.16 2062.39 950.483 2066.65 882.361 2069.28C784.602 2073.07 682.049 2072.73 591.306 2089.89C559.682 2095.87 529.907 2104.04 501.525 2113.71C379.671 2154.6 265.572 2209.83 203.884 2292.24C187.967 2313.51 175.35 2336.47 166.358 2361.39C131.511 2457.96 138.699 2581.42 178.437 2718.6C185.2 2742.06 192.922 2766.12 201.122 2790.55C230.401 2877.7 265.682 2969.38 284.838 3054.06C296.306 3104.59 304.971 3154.82 292.288 3192.65C284.401 3216.22 267.85 3233.47 242.85 3244.87C217.25 3256.55 187.659 3263.24 156.399 3269.97C49.0522 3292.57 -66.9577 3326.81 -95.8064 3414.59M1984.75 777.938C2126.36 990.436 2198.64 1201.35 2164.53 1354.63C2146.48 1438.25 2082.76 1485.19 2058.67 1564.35C2031.61 1653.26 1978.94 1725.62 1910.38 1786.48C1863.42 1828.22 1808.78 1864.47 1749.18 1896.62C1631.76 1959.94 1495.32 2007.72 1344.42 2035.4C1256.2 2051.59 1164.18 2061.71 1070.49 2067.43C1002.14 2071.61 932.281 2073.94 861.009 2074.58C758.642 2075.5 651.528 2072.21 557.461 2087.8C524.719 2093.23 493.996 2101.02 464.869 2110.49C339.718 2150.63 228.119 2210.09 170.225 2297.51C155.302 2320.05 143.749 2344.31 135.81 2370.53C105.103 2471.89 117.441 2600.06 162.077 2741.25C169.679 2765.39 178.231 2790.12 187.245 2815.2C219.404 2904.69 257.209 2998.47 277.402 3084.52C289.486 3135.89 297.933 3186.48 285.336 3225.04C277.499 3249.08 261.16 3266.94 236.795 3279.23C211.688 3291.89 182.514 3299.72 151.519 3307.37C45.2078 3333.16 -72.0679 3367.26 -103.324 3454.99M1983.81 785.294C2130.7 998.06 2205.99 1209.53 2172.32 1362.05C2154.09 1446.96 2088.01 1493.44 2064.94 1574.64C2038.41 1665.22 1987.05 1739.94 1918.84 1802.5C1872.1 1845.41 1817.39 1882.61 1757.2 1915.29C1638.63 1979.64 1499.01 2026.74 1343.04 2052.05C1251.86 2066.85 1156.23 2074.96 1058.49 2078.36C987.125 2080.83 914.087 2081.23 839.653 2079.87C732.686 2077.92 621.211 2071.91 523.606 2085.7C489.809 2090.65 458.07 2097.97 428.199 2107.25C299.756 2146.63 190.657 2210.34 136.556 2302.79C122.627 2326.58 112.15 2352.16 105.253 2379.66C78.6851 2485.82 96.1653 2618.7 145.69 2763.88C154.123 2788.7 163.53 2814.12 173.335 2839.84C208.372 2931.67 248.718 3027.55 269.932 3114.97C282.631 3167.18 290.856 3218.11 278.35 3257.42C270.563 3281.93 254.434 3300.4 230.705 3313.57C206.092 3327.22 177.334 3336.19 146.616 3344.77C41.3337 3373.76 -77.1828 3407.72 -110.871 3495.4M1982.88 792.663C2135.03 1005.69 2213.34 1217.73 2180.11 1369.47C2161.71 1455.69 2093.62 1501.91 2071.23 1584.95C2045.59 1677.42 1995.2 1754.28 1927.32 1818.54C1880.8 1862.61 1826.02 1900.78 1765.24 1933.98C1645.52 1999.38 1502.74 2045.81 1341.7 2068.73C1247.54 2082.12 1148.3 2088.24 1046.53 2089.31C972.139 2090.08 895.812 2088.4 818.325 2085.19C706.597 2080.17 590.673 2071.39 489.786 2083.63C454.865 2088.02 422.171 2094.96 391.556 2104.04C259.816 2142.67 153.21 2210.62 102.903 2308.08C89.968 2333.14 80.5489 2360.02 74.729 2388.82C52.2833 2499.76 74.9305 2637.37 129.348 2786.55C138.623 2812.06 148.857 2838.14 159.477 2864.52C197.392 2958.68 240.263 3056.65 262.503 3145.45C275.818 3198.49 283.831 3249.78 271.404 3289.82C263.668 3314.81 247.749 3333.88 224.637 3347.93C200.537 3362.58 172.166 3372.67 141.736 3382.18C37.4889 3414.38 -82.2931 3448.19 -118.407 3535.82M1981.94 800.018C2139.37 1013.3 2220.7 1225.92 2187.91 1376.9C2169.33 1464.41 2099.21 1510.37 2077.51 1595.24C2052.78 1689.61 2003.34 1768.61 1935.81 1834.57C1889.52 1879.81 1834.65 1918.94 1773.28 1952.66C1652.41 2019.1 1506.45 2064.86 1340.34 2085.39C1243.22 2097.4 1140.35 2101.51 1034.56 2100.25C957.142 2099.32 877.644 2095.72 796.989 2090.51C680.665 2082.64 560.145 2070.88 455.951 2081.56C419.9 2085.39 386.258 2091.95 354.904 2100.84C219.874 2138.71 115.738 2210.89 69.2421 2313.37C57.3012 2339.7 48.94 2367.89 44.1796 2397.98C25.8491 2513.71 53.6699 2656.03 112.969 2809.21C123.082 2835.39 134.147 2862.15 145.581 2889.19C186.374 2985.68 231.769 3085.75 255.054 3175.92C268.985 3229.79 276.781 3281.44 264.439 3322.22C256.754 3347.67 241.057 3367.36 218.569 3382.29C194.992 3397.94 167.008 3409.16 136.843 3419.59C33.625 3454.98 -87.3981 3488.65 -125.938 3576.24M1980.99 807.376C2143.7 1020.93 2228.05 1234.11 2195.69 1384.32C2176.93 1473.13 2104.79 1518.82 2083.78 1605.55C2059.94 1701.8 2011.46 1782.95 1944.27 1850.6C1898.2 1897.01 1843.26 1937.09 1781.31 1971.35C1659.29 2038.82 1510.15 2083.91 1338.97 2102.05C1238.88 2112.65 1132.4 2114.77 1022.57 2111.18C942.133 2108.55 859.483 2103.04 775.644 2095.8C654.742 2085.09 529.602 2070.35 422.124 2079.48C384.95 2082.75 350.353 2088.93 318.255 2097.62C179.927 2134.73 78.2793 2211.15 35.5896 2318.65C24.6363 2346.24 17.3394 2375.73 13.6385 2407.11C-0.588201 2527.63 32.4176 2674.67 96.6101 2831.86C107.565 2858.72 119.463 2886.15 131.705 2913.84C175.388 3012.67 223.302 3114.83 247.618 3206.38C262.165 3261.09 269.738 3313.09 257.487 3354.61C249.847 3380.52 234.396 3400.84 212.513 3416.64C189.448 3433.29 161.852 3445.63 131.974 3457C29.7855 3495.59 -92.4853 3529.12 -133.462 3616.65M1980.06 814.744C2148.04 1028.56 2235.41 1242.32 2203.49 1391.75C2184.54 1481.84 2110.38 1527.28 2090.06 1615.84C2067.11 1713.99 2019.6 1797.28 1952.73 1866.63C1906.88 1914.2 1851.88 1955.25 1789.33 1990.04C1666.15 2058.54 1513.86 2102.97 1337.6 2118.72C1234.55 2127.93 1124.3 2127.86 1010.6 2122.14C927.036 2117.67 841.321 2110.37 754.303 2101.12C628.816 2087.57 499.057 2069.83 388.284 2077.41C349.98 2080.13 314.441 2085.92 281.599 2094.41C139.98 2130.77 40.398 2211.19 1.93454 2323.96C-8.13569 2352.74 -14.2635 2383.61 -16.9048 2416.28C-27.0229 2541.59 11.1563 2693.35 80.2435 2854.53C92.0294 2882.07 104.776 2910.18 117.815 2938.52C164.377 3039.69 214.815 3143.93 240.157 3236.86C255.308 3292.39 262.676 3344.76 250.51 3387.01C242.921 3413.39 227.698 3434.33 206.426 3451.01C183.902 3468.67 156.675 3482.12 127.074 3494.43C25.9209 3536.22 -97.6089 3569.6 -140.999 3657.08M1979.12 822.1C2152.36 1036.18 2242.76 1250.5 2211.27 1399.17C2192.16 1490.56 2115.98 1535.74 2096.34 1626.14C2074.28 1726.18 2027.72 1811.6 1961.2 1882.65C1915.58 1931.4 1860.5 1973.4 1797.35 2008.72C1673.03 2078.25 1517.55 2122.01 1336.22 2135.38C1230.2 2143.19 1116.38 2141.16 998.609 2133.07C912.045 2126.93 823.144 2117.68 732.964 2106.43C602.899 2090.03 468.52 2069.31 354.446 2075.34C315.008 2077.48 278.525 2082.9 244.945 2091.2C100.029 2126.8 2.99784 2211.5 -31.7294 2329.24C-40.7827 2359.31 -45.9816 2391.41 -47.4505 2425.42C-53.9258 2555.28 -10.1005 2712 63.8797 2877.18C76.5146 2905.41 90.0809 2934.18 103.923 2963.17C153.363 3066.67 206.343 3173.02 232.705 3267.31C248.473 3323.68 255.629 3376.4 243.542 3419.39C236.004 3446.25 221.02 3467.81 200.343 3485.35C178.349 3504.01 151.491 3518.58 122.173 3531.81C22.0488 3576.8 -102.728 3610.04 -148.544 3697.48M1978.18 829.46C2156.7 1043.8 2250.1 1258.69 2219.05 1406.59C2199.76 1499.27 2121.56 1544.2 2102.6 1636.44C2081.45 1738.37 2035.85 1825.93 1969.65 1898.67C1924.25 1948.58 1869.09 1991.54 1805.37 2027.39C1679.89 2097.96 1521.24 2141.05 1334.84 2152.03C1225.86 2158.45 1108.45 2154.44 986.615 2143.99C897.06 2136.18 804.966 2124.99 711.602 2111.72C576.952 2092.47 437.966 2068.77 320.591 2073.24C280.023 2074.82 242.592 2079.86 208.267 2087.96C60.0603 2122.81 -34.414 2211.81 -65.4166 2334.51C-73.4642 2365.84 -77.5942 2399.26 -78.015 2434.55C-80.2525 2569.28 -31.3876 2730.63 47.4856 2899.82C60.9516 2928.72 75.3622 2958.17 90.0127 2987.82C142.331 3093.65 197.835 3202.09 225.235 3297.77C241.618 3354.97 248.545 3408.04 236.556 3451.77C229.068 3479.1 214.331 3501.27 194.253 3519.69C172.801 3539.37 146.311 3555.05 117.27 3569.21C18.17 3617.39 -107.843 3650.49 -156.096 3737.87M1977.25 836.824C2161.04 1051.43 2257.47 1266.89 2226.86 1414.03C2207.39 1508 2127.16 1552.66 2108.89 1646.74C2088.63 1750.57 2043.99 1840.27 1978.14 1914.72C1932.97 1965.8 1877.73 2009.71 1813.41 2046.09C1686.79 2117.7 1524.98 2160.11 1333.49 2168.71C1221.54 2173.72 1100.55 2167.76 974.64 2154.95C882.083 2145.45 786.803 2132.32 690.259 2117.04C551.031 2094.95 407.413 2068.25 286.749 2071.17C245.059 2072.2 206.69 2076.86 171.61 2084.76C20.1051 2118.85 -71.8065 2212.15 -99.073 2339.82C-106.104 2372.43 -109.158 2407.16 -108.56 2443.72C-106.566 2583.32 -52.6437 2749.31 31.1225 2922.5C45.4195 2952.08 60.6676 2982.2 76.1329 3012.5C131.33 3120.67 189.358 3231.21 217.784 3328.25C234.783 3386.29 241.499 3439.72 229.588 3484.18C222.151 3511.98 207.758 3534.85 188.175 3554.07C167.363 3574.83 141.133 3591.54 112.379 3606.65C14.3086 3658.02 -112.952 3690.99 -163.631 3778.32M1976.31 844.183C2165.37 1059.04 2264.82 1275.08 2234.64 1421.45C2215 1516.71 2132.75 1561.11 2115.17 1657.04C2095.8 1762.75 2052.13 1854.61 1986.61 1930.74C1853.16 2085.84 1628.53 2176 1332.12 2185.36C1132.73 2191.66 904.298 2163.16 668.915 2122.34C525.102 2097.4 376.878 2067.72 252.912 2069.08C25.0161 2071.58 -103.738 2181.78 -132.735 2345.08C-161.733 2508.39 -97.1236 2721.54 14.7601 2945.13C116.279 3148.04 259.751 3374.61 222.633 3516.56C180.178 3678.9 -87.9969 3682.01 -171.163 3818.71M3120.57 2228.31C2832.45 1981.85 2483.96 1766.36 2154.52 1630.93C2060.8 1592.4 1965.33 1559.47 1892.88 1558.57C1683.53 1556 1722.2 1775.54 1713.96 1915.62C1704 2084.64 1701.32 2257.83 1667.14 2413.63C1647.96 2501.1 1606.79 2588.04 1466.55 2569.49C1324.53 2550.7 1139.56 2432.55 972.338 2332.8C777.49 2216.55 574.879 2112.19 387.673 2052.43C200.467 1992.66 29.7977 1981.73 -49.1013 2047.3C-110.882 2098.65 -113.02 2191.36 -101.404 2287.52C-70.8704 2540.18 48.7385 2834.25 246.458 3142.76M3112.22 2215.56C2857.58 1997.74 2555.21 1811.69 2248.5 1676.31C2220.02 1663.73 2191.62 1651.57 2163.37 1640.05C2070.56 1602.24 1976.16 1569.8 1904.12 1568.4C1695.67 1564.26 1727.23 1774.93 1715.55 1911.88C1705.2 2033.3 1700.31 2158.43 1683.47 2278.03C1677.75 2319.61 1670.67 2360.46 1661.61 2400.22C1641.94 2486.45 1601.18 2572.29 1464.59 2556.09C1326.27 2539.67 1146.43 2427.13 983.699 2332.33C794.073 2221.88 596.834 2122.85 414.177 2066.76C350.582 2047.23 288.887 2033.4 232.153 2026.4C125.967 2013.28 37.1076 2024.04 -14.2816 2066.02C-76.0098 2116.44 -80.3729 2206.57 -71.7785 2299.61C-54.4822 2487.9 12.6963 2698.28 127.075 2921.73C161.199 2988.41 199.517 3056.24 242.003 3124.99M3103.88 2202.82C2857.72 1992.26 2566.48 1819.39 2256.41 1684.69C2228.26 1672.47 2200.17 1660.49 2172.24 1649.2C2080.35 1612.11 1987.01 1580.15 1915.36 1578.24C1707.79 1572.54 1732.27 1774.33 1717.16 1908.17C1703.89 2025.75 1697.43 2148.43 1678.93 2266.53C1672.78 2307.42 1665.38 2347.65 1656.09 2386.83C1635.94 2471.83 1595.59 2556.57 1462.65 2542.71C1328.03 2528.66 1153.32 2421.72 995.084 2331.89C810.689 2227.23 618.807 2133.53 440.716 2081.11C378.71 2062.87 318.491 2050.11 263.034 2043.92C159.237 2032.28 71.9219 2043.55 20.5815 2084.76C-41.0824 2134.26 -47.6761 2221.8 -42.1209 2311.73C-31.0565 2493.7 26.9678 2695.31 131.536 2910.81C162.735 2975.11 198.06 3040.63 237.581 3107.24M3095.53 2190.07C2857.86 1986.78 2577.78 1827.06 2264.3 1693.06C2236.49 1681.17 2208.7 1669.39 2181.11 1658.33C2090.13 1621.96 1997.87 1590.51 1926.63 1588.07C1719.95 1580.82 1737.36 1773.71 1718.77 1904.45C1702.6 2018.18 1694.07 2138.12 1674.4 2255.03C1667.66 2295.13 1660.1 2334.82 1650.59 2373.44C1629.96 2457.19 1590 2540.84 1460.73 2529.31C1329.8 2517.63 1160.23 2416.31 1006.48 2331.44C827.311 2232.58 640.801 2144.21 467.265 2095.45C406.841 2078.5 348.103 2066.79 293.913 2061.4C192.498 2051.25 106.74 2063.02 55.4467 2103.48C-6.15306 2152.07 -14.9772 2237.02 -12.4611 2323.83C-7.62375 2499.49 41.2417 2692.32 136.01 2899.88C164.285 2961.81 196.624 3025.02 233.19 3089.49M3087.19 2177.34C2858 1981.3 2589.1 1834.71 2272.2 1701.45C2244.72 1689.9 2217.23 1678.3 2189.96 1667.48C2099.91 1631.83 2008.7 1600.87 1937.87 1597.92C1732.08 1589.1 1742.47 1773.12 1720.37 1900.74C1701.34 2010.64 1691.03 2128.02 1669.85 2243.54C1662.64 2282.92 1654.81 2322 1645.07 2360.05C1623.96 2442.57 1584.42 2525.13 1458.77 2515.94C1331.56 2506.63 1167.12 2410.92 1017.85 2331.01C843.905 2237.93 662.754 2154.88 493.779 2109.81C434.932 2094.12 377.687 2083.49 324.756 2078.9C225.741 2070.24 141.534 2082.53 90.2653 2122.21C28.7118 2169.87 17.6687 2252.25 17.1522 2335.93C15.7577 2505.28 55.469 2689.34 140.42 2888.95C165.765 2948.51 195.117 3009.42 228.717 3071.73M3078.83 2164.59C2858.14 1975.81 2600.42 1842.33 2280.09 1709.82C2252.94 1698.6 2225.77 1687.22 2198.83 1676.62C2109.69 1641.68 2019.54 1611.21 1949.12 1607.76C1744.23 1597.38 1747.62 1772.53 1721.99 1897.04C1700.14 2003.12 1688.03 2117.93 1665.33 2232.05C1657.64 2270.71 1649.53 2309.19 1639.57 2346.67C1617.97 2427.95 1578.84 2509.41 1456.85 2502.56C1333.33 2495.62 1174.04 2405.52 1029.25 2330.58C860.523 2243.28 684.747 2165.57 520.332 2124.18C463.074 2109.78 407.304 2100.21 355.639 2096.41C259.013 2089.23 176.35 2102.04 125.142 2140.96C63.6524 2187.71 50.3902 2267.51 46.8346 2348.07C39.2196 2511.11 69.7655 2686.39 144.917 2878.06C167.338 2935.25 193.696 2993.85 224.33 3054.02M3070.48 2151.84C2858.28 1970.32 2611.75 1849.89 2287.97 1718.18C2261.17 1707.28 2234.3 1696.11 2207.68 1685.75C2119.46 1651.53 2030.37 1621.55 1960.35 1617.58C1756.35 1605.64 1752.78 1771.91 1723.57 1893.29C1698.96 1995.58 1684.99 2107.81 1660.75 2220.52C1652.6 2258.46 1644.21 2296.34 1634.01 2333.24C1611.94 2413.28 1573.21 2493.64 1454.87 2489.14C1335.05 2484.56 1180.9 2400.08 1040.59 2330.09C877.084 2248.59 706.68 2176.21 546.814 2138.49C491.144 2125.37 436.855 2116.86 386.462 2113.88C292.218 2108.18 211.112 2121.49 159.94 2159.65C98.5144 2205.48 83.0151 2282.7 76.427 2360.14C62.58 2516.86 83.9717 2683.37 149.313 2867.09C168.802 2921.91 192.174 2978.2 219.849 3036.22M3062.14 2139.1C2858.42 1964.85 2623.1 1857.45 2295.87 1726.57C2269.39 1715.98 2242.83 1705.02 2216.54 1694.89C2129.23 1661.4 2041.22 1631.91 1971.61 1627.43C1768.49 1613.93 1758.01 1771.35 1725.19 1889.59C1697.84 1988.09 1682.01 2097.74 1656.23 2209.05C1647.62 2246.27 1638.92 2283.53 1628.52 2319.87C1605.96 2398.67 1567.64 2477.94 1452.95 2475.77C1336.83 2473.58 1187.81 2394.69 1052 2329.67C893.723 2253.96 728.683 2186.91 573.383 2152.86C519.291 2141.02 466.488 2133.58 417.361 2131.4C325.506 2127.18 245.962 2141.02 194.825 2178.41C133.453 2223.31 115.735 2297.96 106.101 2372.28C86.0338 2522.69 98.2598 2680.42 153.795 2856.2C170.36 2908.65 190.739 2962.63 215.448 3018.5M3053.79 2126.35C2858.56 1959.36 2634.45 1864.94 2303.76 1734.94C2277.62 1724.66 2251.37 1713.93 2225.4 1704.03C2139.02 1671.25 2052.07 1642.26 1982.86 1637.27C1780.64 1622.2 1763.28 1770.77 1726.79 1885.87C1696.77 1980.6 1679.01 2087.64 1651.69 2197.53C1642.61 2234.04 1633.63 2270.69 1623 2306.46C1599.97 2384.04 1562.04 2462.2 1451.01 2462.39C1338.59 2462.56 1194.71 2389.29 1063.38 2329.23C910.33 2259.31 750.655 2197.59 599.91 2167.21C547.406 2156.65 496.085 2150.28 448.218 2148.89C358.763 2146.16 280.759 2160.5 229.669 2197.14C168.361 2241.13 148.412 2313.18 135.751 2384.39C109.451 2528.49 112.523 2677.45 158.248 2845.28C171.882 2895.36 189.263 2947.03 211.029 3000.76M3045.43 2113.61C2858.7 1953.87 2645.78 1872.39 2311.65 1743.32C2285.84 1733.35 2259.9 1722.83 2234.26 1713.16C2148.79 1681.1 2062.91 1652.6 1994.11 1647.09C1792.78 1630.48 1768.58 1770.21 1728.4 1882.15C1695.74 1973.13 1676.04 2077.56 1647.15 2186.04C1637.62 2221.84 1628.34 2257.87 1617.49 2293.07C1593.97 2369.4 1556.45 2446.48 1449.08 2449C1340.35 2451.54 1201.61 2383.89 1074.77 2328.79C926.939 2264.66 772.634 2208.27 626.45 2181.57C575.535 2172.3 525.688 2166.98 479.087 2166.39C392.014 2165.15 315.572 2180.01 264.52 2215.87C203.265 2258.93 181.09 2328.41 165.396 2396.5C132.877 2534.28 126.783 2674.47 162.708 2834.36C173.419 2882.07 187.806 2931.42 206.613 2983.01M3037.1 2100.87C2858.85 1948.4 2657.15 1879.81 2319.54 1751.69C2294.06 1742.02 2268.43 1731.73 2243.11 1722.29C2158.56 1690.96 2073.73 1662.94 2005.34 1656.93C1804.91 1638.75 1773.91 1769.66 1729.98 1878.42C1694.74 1965.68 1673.06 2067.48 1642.58 2174.53C1632.59 2209.61 1623.02 2245.04 1611.95 2279.67C1587.95 2354.77 1550.83 2430.74 1447.11 2435.61C1342.08 2440.51 1208.48 2378.47 1086.12 2328.33C943.519 2269.99 794.58 2218.94 652.944 2195.91C603.606 2187.91 555.234 2183.66 509.911 2183.87C425.227 2184.11 350.335 2199.49 299.33 2234.59C238.133 2276.74 213.735 2343.63 195.001 2408.59C156.25 2540.06 140.991 2671.47 167.109 2823.42C174.896 2868.76 186.29 2915.81 202.131 2965.25M3028.74 2088.12C2858.98 1942.91 2668.48 1887.17 2327.43 1760.06C2302.28 1750.69 2276.97 1740.64 2251.97 1731.43C2168.33 1700.81 2084.57 1673.29 2016.58 1666.76C1817.04 1647.02 1779.32 1769.13 1731.58 1874.7C1693.81 1958.25 1670.09 2057.39 1638.05 2163.02C1627.62 2197.41 1617.73 2232.21 1606.44 2266.27C1581.96 2340.13 1545.26 2415.02 1445.18 2422.21C1343.86 2429.49 1215.39 2373.05 1097.53 2327.89C960.14 2275.34 816.582 2229.62 679.502 2210.25C631.753 2203.54 584.862 2200.35 540.81 2201.37C458.515 2203.1 385.174 2218.98 334.205 2253.33C273.071 2294.55 246.436 2358.86 224.682 2420.71C179.71 2545.87 155.285 2668.5 171.593 2812.5C176.449 2855.47 184.857 2900.21 197.738 2947.5M3020.4 2075.39C2859.12 1937.44 2679.81 1894.49 2335.33 1768.45C2310.52 1759.37 2285.49 1749.52 2260.84 1740.58C2178.08 1710.56 2095.43 1683.65 2027.85 1676.61C1829.19 1655.3 1784.78 1768.64 1733.21 1871C1692.96 1950.88 1667.18 2047.35 1633.52 2151.54C1622.65 2185.21 1612.45 2219.39 1600.93 2252.88C1575.97 2325.51 1539.67 2399.29 1443.24 2408.83C1345.62 2418.48 1222.28 2367.65 1108.91 2327.45C976.75 2280.69 838.563 2240.3 706.043 2224.61C659.882 2219.19 614.467 2217.06 571.681 2218.88C491.779 2222.09 419.989 2238.49 369.069 2272.07C307.988 2312.36 279.134 2374.1 254.341 2432.83C203.137 2551.67 169.558 2665.53 176.067 2801.59C177.998 2842.18 183.413 2884.62 193.339 2929.77M3012.05 2062.64C2859.26 1931.95 2691.13 1901.74 2343.22 1776.82C2318.73 1768.03 2294.03 1758.43 2269.7 1749.71C2187.85 1720.41 2106.26 1694 2039.08 1686.44C1841.32 1663.58 1790.29 1768.17 1734.8 1867.27C1692.13 1943.5 1664.22 2037.28 1628.97 2140.03C1617.67 2173 1607.15 2206.55 1595.41 2239.48C1569.96 2310.87 1534.06 2383.55 1441.3 2395.44C1347.36 2407.45 1229.17 2362.24 1120.29 2327C993.353 2286.02 860.531 2250.97 732.56 2238.95C687.969 2234.8 644.053 2233.74 602.52 2236.36C525.008 2241.06 454.768 2257.97 403.883 2290.78C342.867 2330.16 311.782 2389.31 283.95 2444.92C226.525 2557.45 183.781 2662.54 180.472 2790.64C179.473 2828.87 181.901 2869 188.862 2912M3003.69 2049.89C2859.4 1926.46 2702.42 1908.93 2351.11 1785.2C2326.95 1776.69 2302.55 1767.33 2278.55 1758.85C2197.62 1730.26 2117.1 1704.35 2050.33 1696.28C1853.46 1671.86 1795.87 1767.73 1736.41 1863.56C1691.36 1936.17 1661.31 2027.23 1624.43 2128.53C1612.68 2160.8 1601.85 2193.73 1589.89 2226.09C1563.97 2296.25 1528.47 2367.83 1439.35 2382.05C1349.13 2396.44 1236.07 2356.84 1131.67 2326.56C1009.95 2291.38 882.496 2261.66 759.092 2253.31C716.09 2250.45 673.649 2250.45 633.382 2253.87C558.258 2260.05 489.57 2277.47 438.732 2309.53C377.78 2347.99 344.458 2404.56 313.598 2457.05C249.942 2563.27 198.043 2659.59 184.935 2779.75C181.012 2815.6 180.447 2853.43 184.448 2894.27M2995.35 2037.15C2859.55 1920.98 2713.71 1916.06 2359.01 1793.57C2335.17 1785.34 2311.09 1776.23 2287.42 1767.98C2207.4 1740.1 2127.94 1714.69 2061.58 1706.11C1865.6 1680.12 1801.51 1767.32 1738 1859.83C1690.63 1928.84 1658.39 2017.18 1619.88 2117.02C1607.7 2148.59 1596.55 2180.9 1584.37 2212.69C1557.96 2281.6 1522.87 2352.09 1437.41 2368.66C1350.88 2385.41 1242.95 2351.42 1143.04 2326.11C1026.56 2296.71 904.464 2272.33 785.615 2267.65C744.202 2266.07 703.242 2267.13 664.246 2271.36C591.505 2279.02 524.378 2296.97 473.59 2328.25C412.69 2365.79 377.15 2419.78 343.25 2469.15C273.373 2569.06 212.31 2656.6 189.391 2768.81C182.525 2802.29 178.973 2837.8 180.02 2876.51M2987 2024.4C2859.68 1915.5 2724.95 1923.13 2366.89 1801.94C2343.38 1793.99 2319.61 1785.14 2296.27 1777.13C2217.17 1749.97 2138.86 1725.17 2072.82 1715.95C1877.98 1688.77 1807.22 1766.96 1739.61 1856.12C1689.97 1921.59 1655.49 2007.15 1615.33 2105.53C1602.73 2136.4 1591.26 2168.09 1578.85 2199.3C1551.97 2266.98 1517.28 2336.37 1435.46 2355.28C1352.62 2374.4 1249.84 2346.02 1154.42 2325.66C1043.17 2302.07 926.444 2283.01 812.155 2282.01C772.319 2281.7 732.845 2283.83 695.116 2288.86C624.775 2298.02 559.188 2316.46 508.435 2346.99C447.593 2383.61 409.822 2435.01 372.89 2481.26C296.781 2574.85 226.563 2653.63 193.838 2757.89C184.049 2789 177.504 2822.21 175.596 2858.78M2978.66 2011.66C2859.83 1910.02 2736.19 1930.14 2374.8 1810.33C2351.61 1802.64 2328.17 1794.06 2305.15 1786.27C2226.96 1759.83 2149.72 1735.52 2084.1 1725.79C1890.14 1697.04 1813.01 1766.65 1741.25 1852.41C1689.41 1914.36 1652.65 1997.13 1610.83 2094.05C1597.82 2124.22 1586 2155.28 1573.37 2185.93C1546.01 2252.36 1511.72 2320.66 1433.57 2341.92C1354.44 2363.42 1256.79 2340.64 1165.85 2325.25C1059.82 2307.44 948.466 2293.72 838.725 2296.38C800.478 2297.36 762.479 2300.56 726.016 2306.38C658.063 2317.02 594.038 2335.99 543.321 2365.75C482.532 2401.44 442.553 2450.27 402.582 2493.41C320.253 2580.69 240.863 2650.69 198.334 2747C185.614 2775.74 176.089 2806.63 171.215 2841.05M2970.31 1998.92C2859.96 1904.52 2747.39 1937.07 2382.68 1818.7C2359.82 1811.29 2336.69 1802.96 2313.99 1795.41C2236.73 1769.7 2160.55 1745.87 2095.32 1735.63C1902.26 1705.32 1818.84 1766.39 1742.82 1848.69C1688.84 1907.16 1649.75 1987.11 1606.26 2082.54C1592.83 2112.03 1580.67 2142.43 1567.83 2172.52C1539.99 2237.73 1506.11 2304.93 1431.6 2328.52C1356.16 2352.38 1263.66 2335.23 1177.2 2324.79C1076.39 2312.77 970.398 2304.37 865.218 2310.72C828.559 2312.98 792.042 2317.24 756.839 2323.86C691.268 2335.98 628.794 2355.46 578.119 2384.46C517.394 2419.24 475.185 2465.48 432.175 2505.49C343.614 2586.46 255.058 2647.68 202.741 2736.06C187.097 2762.43 174.579 2791.01 166.739 2823.28M2961.96 1986.17C2860.1 1899.03 2758.53 1943.92 2390.56 1827.06C2368.01 1819.9 2345.22 1811.86 2322.85 1804.53C2246.5 1779.53 2171.38 1756.2 2106.57 1745.46C1914.39 1713.58 1824.76 1766.16 1744.43 1844.97C1688.34 1899.99 1646.91 1977.1 1601.73 2071.03C1587.88 2099.83 1575.39 2129.61 1562.31 2159.12C1533.98 2223.08 1500.52 2289.19 1429.66 2315.12C1357.92 2341.35 1270.55 2329.8 1188.58 2324.34C1092.99 2318.1 992.372 2315.04 891.758 2325.06C856.677 2328.6 821.646 2333.93 787.72 2341.36C724.538 2354.96 663.615 2374.95 612.994 2403.19C552.333 2437.05 507.887 2480.71 461.844 2517.6C367.063 2592.26 269.342 2644.7 207.207 2725.13C188.639 2749.13 173.127 2775.41 162.321 2805.53M2953.61 1973.43C2860.24 1893.56 2769.66 1950.7 2398.47 1835.45C2376.23 1828.55 2353.76 1820.77 2331.72 1813.68C2256.29 1789.41 2182.22 1766.56 2117.82 1755.3C1926.52 1721.85 1830.77 1766.01 1746.03 1841.25C1687.89 1892.87 1644.07 1967.1 1597.17 2059.53C1582.91 2087.64 1570.09 2116.78 1556.78 2145.72C1527.98 2208.45 1494.91 2273.45 1427.71 2301.73C1359.68 2330.33 1277.44 2324.39 1199.95 2323.89C1109.58 2323.44 1014.33 2325.71 918.275 2339.4C884.783 2344.22 851.233 2350.61 818.567 2358.84C757.785 2373.94 698.412 2394.44 647.816 2421.9C587.208 2454.84 540.543 2495.92 491.472 2529.7C390.459 2598.04 283.584 2641.71 211.638 2714.19C190.139 2735.82 171.641 2759.79 157.876 2787.76M2945.26 1960.68C2860.37 1888.07 2780.73 1957.41 2406.35 1843.82C2384.42 1837.17 2362.28 1829.68 2340.57 1822.82C2266.06 1799.27 2193 1776.8 2129.06 1765.14C1938.44 1729.8 1836.85 1765.93 1747.63 1837.54C1687.5 1885.8 1641.24 1957.12 1592.64 2048.04C1577.98 2075.47 1564.8 2103.97 1551.28 2132.34C1521.99 2193.83 1489.33 2257.74 1425.78 2288.35C1361.44 2319.33 1284.34 2319 1211.35 2323.45C1126.21 2328.8 1036.32 2336.4 944.826 2353.77C912.922 2359.87 880.847 2367.32 849.447 2376.36C791.048 2392.93 733.232 2413.95 682.683 2440.66C622.132 2472.67 573.237 2511.17 521.127 2541.83C413.893 2603.86 297.853 2638.76 216.108 2703.29C191.684 2722.55 170.182 2744.21 153.473 2770.04M2936.92 1947.94C2860.52 1882.6 2791.78 1964.03 2414.26 1852.21C2392.65 1845.81 2370.84 1838.6 2349.44 1831.96C2275.85 1809.14 2203.85 1787.15 2140.32 1774.98C1950.58 1738.07 1843.03 1765.91 1749.26 1833.83C1687.18 1878.78 1638.46 1947.15 1588.11 2036.54C1573.05 2063.29 1559.52 2091.14 1545.77 2118.95C1516.01 2179.2 1483.74 2242.01 1423.84 2274.97C1363.2 2308.31 1291.25 2313.6 1222.74 2323.01C1142.82 2334.15 1058.3 2347.08 971.355 2368.12C941.021 2375.5 910.434 2384.01 880.306 2393.85C824.295 2411.91 768.024 2433.44 717.535 2459.39C657.049 2490.49 605.922 2526.4 550.774 2553.94C437.308 2609.65 312.113 2635.78 220.551 2692.37C193.197 2709.25 168.708 2728.6 149.04 2752.29M2928.57 1935.2C2860.66 1877.11 2802.74 1970.56 2422.14 1860.57C2400.84 1854.42 2379.35 1847.49 2358.29 1841.09C2285.62 1818.99 2214.68 1797.49 2151.56 1784.81C1962.71 1746.34 1849.27 1765.97 1750.85 1830.1C1686.87 1871.78 1635.65 1937.16 1583.55 2025.04C1568.09 2051.11 1554.2 2078.3 1540.24 2105.55C1509.99 2164.56 1478.14 2226.28 1421.89 2261.58C1364.95 2297.29 1298.13 2308.18 1234.1 2322.56C1159.41 2339.5 1080.27 2357.76 997.883 2382.46C969.138 2391.13 940.026 2400.7 911.175 2411.35C857.547 2430.9 802.844 2452.94 752.379 2478.12C691.946 2508.29 638.601 2541.63 580.413 2566.05C460.727 2615.45 326.367 2632.8 225.005 2681.45C194.727 2695.96 167.244 2713 144.611 2734.54M2920.22 1922.45C2860.8 1871.62 2813.66 1976.99 2430.02 1868.94C2409.02 1863.03 2387.89 1856.43 2367.15 1850.23C2295.44 1828.96 2225.51 1807.84 2162.81 1794.65C1974.85 1754.62 1855.62 1766.11 1752.46 1826.39C1686.63 1864.84 1632.89 1927.22 1579.02 2013.54C1563.17 2038.94 1548.91 2065.48 1534.73 2092.16C1504.01 2149.94 1472.55 2210.55 1419.96 2248.19C1366.71 2286.27 1305.03 2302.77 1245.49 2322.12C1176.01 2344.83 1102.25 2368.44 1024.41 2396.81C997.256 2406.77 969.618 2417.4 942.033 2428.85C890.805 2449.88 837.642 2472.43 787.224 2496.85C726.855 2526.11 671.273 2556.86 610.064 2578.16C484.146 2621.25 340.632 2629.83 229.459 2670.53C196.25 2682.67 165.781 2697.4 140.181 2716.79M2911.87 1909.71C2860.94 1866.15 2824.53 1983.35 2437.93 1877.33C2417.23 1871.66 2396.45 1865.35 2376.01 1859.36C2305.23 1838.81 2236.36 1818.19 2174.05 1804.48C1986.99 1762.89 1862.04 1766.34 1754.05 1822.66C1686.41 1857.93 1630.11 1917.26 1574.47 2002.03C1558.23 2026.76 1543.61 2052.65 1529.2 2078.74C1497.99 2135.29 1466.95 2194.81 1418 2234.79C1368.45 2275.23 1311.91 2297.35 1256.85 2321.66C1192.6 2350.16 1124.2 2379.09 1050.92 2411.14C1025.34 2422.37 999.193 2434.07 972.867 2446.32C924.028 2468.83 872.42 2491.91 822.034 2515.56C761.729 2543.89 703.916 2572.06 639.668 2590.24C507.53 2627.02 354.85 2626.82 233.871 2659.58C197.738 2669.35 164.276 2681.78 135.728 2699.03M2903.52 1896.96C2861.08 1860.66 2835.32 1989.6 2445.82 1885.7C2425.43 1880.26 2404.98 1874.25 2384.87 1868.5C2314.99 1848.67 2247.2 1828.53 2185.3 1814.32C1999.14 1771.17 1868.54 1766.67 1755.66 1818.95C1686.25 1851.1 1627.37 1907.34 1569.93 1990.53C1553.31 2014.6 1538.32 2039.83 1523.68 2065.35C1492 2120.66 1461.35 2179.09 1416.06 2221.41C1370.21 2264.23 1318.81 2291.96 1268.25 2321.23C1209.23 2355.52 1146.19 2389.78 1077.47 2425.51C1053.48 2438.02 1028.81 2450.79 1003.75 2463.83C957.291 2487.83 907.24 2511.41 856.907 2534.3C796.655 2561.71 736.617 2587.31 669.336 2602.37C530.966 2632.83 369.12 2623.85 238.342 2648.67C199.285 2656.07 162.83 2666.19 131.316 2681.28M2895.18 1884.23C2861.23 1855.18 2846.06 1995.77 2453.72 1894.09C2433.63 1888.88 2413.51 1883.17 2393.74 1877.65C2324.79 1858.54 2258.05 1838.89 2196.55 1824.16C2011.27 1779.45 1875.13 1767.09 1757.28 1815.24C1686.12 1844.3 1624.66 1897.43 1565.4 1979.05C1548.41 2002.45 1533.04 2027.02 1518.19 2051.97C1486.01 2106.04 1455.78 2163.37 1414.14 2208.04C1372 2253.23 1325.72 2286.56 1279.64 2320.79C1225.85 2360.88 1168.18 2400.48 1104.01 2439.87C1081.61 2453.67 1058.42 2467.49 1034.61 2481.34C990.543 2506.82 942.043 2530.92 891.746 2553.04C831.552 2579.54 769.29 2602.54 698.982 2614.49C554.39 2638.64 383.38 2620.89 242.791 2637.75C200.803 2642.78 161.361 2650.59 126.881 2663.54M2886.83 1871.48C2861.37 1849.69 2856.71 2001.81 2461.6 1902.45C2441.8 1897.47 2422.05 1892.06 2402.58 1886.77C2334.54 1868.38 2268.87 1849.23 2207.8 1833.98C2023.4 1787.72 1881.79 1767.6 1758.87 1811.5C1686 1837.53 1621.95 1887.51 1560.84 1967.53C1543.47 1990.27 1527.73 2014.16 1512.65 2038.56C1480.01 2091.4 1450.17 2147.63 1412.19 2194.63C1373.74 2242.19 1332.6 2281.13 1291.01 2320.33C1242.44 2366.21 1190.14 2411.13 1130.54 2454.2C1109.71 2469.27 1088.01 2484.17 1065.48 2498.83C1023.81 2525.8 976.859 2550.41 926.604 2571.77C866.463 2597.34 801.981 2617.76 728.627 2626.59C577.816 2644.44 397.64 2617.91 247.245 2626.83C202.333 2629.49 159.886 2634.99 122.458 2645.79M2878.47 1858.73C2861.49 1844.21 2867.28 2007.76 2469.49 1910.82C2449.98 1906.06 2430.57 1900.97 2411.45 1895.91C2344.33 1878.24 2279.73 1859.58 2219.03 1843.81C2035.54 1795.99 1888.53 1768.21 1760.47 1807.78C1685.92 1830.82 1619.25 1877.63 1556.31 1956.03C1538.58 1978.12 1522.44 2001.34 1507.14 2025.17C1474.01 2076.76 1444.58 2131.9 1410.25 2181.24C1375.5 2231.17 1339.5 2275.73 1302.4 2319.89C1259.05 2371.56 1212.12 2421.81 1157.07 2468.55C1137.83 2484.91 1117.61 2500.86 1096.34 2516.32C1057.05 2544.77 1011.66 2569.89 961.455 2590.5C901.378 2615.15 834.659 2632.99 758.273 2638.7C601.229 2650.23 411.899 2614.92 251.693 2615.9C203.851 2616.19 158.417 2619.38 118.035 2628.04M2870.13 1845.99C2861.64 1838.73 2877.78 2013.61 2477.38 1919.21C2458.17 1914.68 2439.12 1909.89 2420.3 1905.06C2354.1 1888.1 2290.56 1869.94 2230.29 1853.67C2047.69 1804.28 1895.34 1768.96 1762.07 1804.08C1685.84 1824.17 1616.81 1867.94 1551.75 1944.54C1533.72 1966.02 1517.13 1988.52 1501.62 2011.78C1468.01 2062.14 1438.98 2116.18 1408.3 2167.87C1377.26 2220.16 1346.4 2270.33 1313.77 2319.45C1275.65 2376.91 1234.09 2432.5 1183.59 2482.91C1165.94 2500.56 1147.2 2517.58 1127.2 2533.83C1090.3 2563.77 1046.45 2589.4 996.286 2609.24C936.273 2632.97 867.336 2648.24 787.91 2650.82C624.646 2656.04 426.15 2611.96 256.145 2604.99C205.378 2602.91 156.952 2603.79 113.61 2610.31M2861.78 1833.24C2861.78 1833.24 2888.2 2019.34 2485.28 1927.58C2082.36 1835.82 1782.76 1667.82 1547.22 1933.04C1384.47 2116.32 1342.25 2383.59 1158.07 2551.31C1082.29 2620.32 968.962 2663.9 817.563 2662.92C648.067 2661.83 440.417 2608.98 260.595 2594.06C206.897 2589.61 155.49 2588.18 109.176 2592.55" stroke="#D06B81" stroke-width="0.197078" stroke-miterlimit="10"/>
</svg>
