<svg width="1440" height="1431" viewBox="0 0 1440 1431" fill="none" xmlns="http://www.w3.org/2000/svg">
<path d="M1350.13 -250.257C1335.82 -162.779 1313.27 -76.4705 1271 3.74785C1257.3 29.7562 1241.41 55.2527 1218.17 77.2151C1170.79 121.999 1096.12 149.373 1035.6 186.102C958.74 232.747 904.911 295.558 879.911 366.012C861.103 419.027 849.883 485.41 805.171 529.494C764.552 569.541 655.028 568.003 588.667 582.869C520.699 598.097 464.566 628.607 427.278 668.069C407.745 688.743 393.287 711.931 385.008 736.734C377.093 760.454 383.972 790.454 337.742 793.599C322.461 794.638 306.181 791.482 290.356 790.55C235.361 787.313 188.382 814.998 187.46 851.191M1348.75 -246.906C1336.89 -159.981 1315.69 -73.8033 1273.72 6.02223C1259.77 32.6172 1242.96 58.2582 1219.81 80.9436C1191.83 108.28 1154.21 129.565 1115.41 150.205C1088.93 164.295 1061.9 178.084 1037.01 193.288C987.831 223.325 947.091 259.304 916.305 299.066C898.305 322.316 883.722 346.86 872.889 372.331C865.23 390.191 858.41 409.537 850.835 428.986C840.137 456.31 827.922 483.832 810.005 508.066C803.586 516.774 796.435 525.057 788.346 532.719C754.875 564.369 680.713 571.66 619.077 581.657C602.525 584.317 586.873 587.171 573.136 590.746C516.523 605.337 468.941 630.846 434.326 663.29C428.364 668.875 422.784 674.668 417.604 680.652C399.127 701.986 385.593 725.771 377.618 751.048C372.898 766.019 373.522 783.295 363.8 795.246C357.816 802.606 347.902 807.887 330.505 809.445C315.306 810.806 299.098 808.144 283.288 807.588C228.369 805.625 180.824 833.404 178.764 869.885M1347.37 -243.557C1337.95 -157.182 1318.09 -71.1392 1276.43 8.29587C1262.24 35.4825 1244.51 61.2657 1221.45 84.6684C1193.64 112.721 1156.2 134.825 1117.34 156.166C1090.82 170.74 1063.62 184.959 1038.39 200.472C988.539 231.108 946.395 267.195 913.529 306.553C894.312 329.563 878.296 353.699 865.85 378.648C856.997 396.153 848.926 415.05 840.108 434.016C827.62 460.67 813.612 487.468 794.345 511.438C787.465 520.045 779.92 528.277 771.502 535.949C736.58 567.684 663.072 576.538 602.563 588.241C586.326 591.334 571.036 594.658 557.599 598.633C502.46 614.945 456.56 641.73 423.732 675.311C418.078 681.086 412.81 687.071 407.922 693.238C390.498 715.235 377.888 739.618 370.225 765.368C365.689 780.628 366.164 798.09 356.389 810.351C350.365 817.908 340.436 823.381 323.266 825.299C308.14 826.986 292.015 824.816 276.216 824.633C221.377 823.942 173.26 851.82 170.064 888.58M1345.99 -240.21C1339.02 -154.386 1320.51 -68.4721 1279.15 10.5651C1264.71 38.3406 1246.06 64.266 1223.09 88.3917C1195.47 117.163 1158.2 140.085 1119.29 162.125C1092.72 177.185 1065.37 191.832 1039.79 207.651C989.262 238.887 945.708 275.08 910.76 314.03C890.326 336.806 872.985 360.568 858.815 384.957C848.84 402.133 839.439 420.554 829.388 439.037C815.106 465.022 799.312 491.093 778.691 514.796C771.354 523.299 763.409 531.484 754.673 539.166C718.296 570.987 645.528 581.514 586.057 594.81C570.153 598.364 555.192 602.112 542.063 606.502C488.349 624.464 444.178 652.599 413.148 687.314C407.802 693.284 402.839 699.457 398.25 705.809C381.883 728.465 370.196 753.446 362.846 779.67C358.493 795.218 358.823 812.863 348.992 825.437C342.931 833.194 332.992 838.862 316.032 841.132C300.984 843.15 284.934 841.465 269.147 841.655C214.383 842.239 165.697 870.208 161.367 907.259M1344.61 -236.859C1340.08 -151.588 1322.92 -65.8049 1281.88 12.8423C1267.18 41.2095 1247.7 67.3128 1224.73 92.1201C1197.39 121.654 1160.21 145.347 1121.24 168.093C1094.62 183.634 1067.12 198.714 1041.19 214.84C989.994 246.676 945.037 282.978 908.004 321.522C886.352 344.057 867.604 367.428 851.797 391.278C840.644 408.11 829.971 426.068 818.685 444.074C802.613 469.389 785.025 494.736 763.05 518.172C755.253 526.574 746.911 534.71 737.853 542.399C700.025 574.304 627.941 586.424 569.559 601.395C553.975 605.39 539.36 609.579 526.54 614.385C474.257 633.991 431.813 663.479 402.569 699.33C397.528 705.493 392.872 711.855 388.583 718.392C373.272 741.708 362.506 767.289 355.464 793.985C351.294 809.821 351.475 827.645 341.592 840.536C335.494 848.493 325.542 854.357 308.803 856.979C293.83 859.328 277.862 858.131 262.086 858.694C207.399 860.551 158.143 888.618 152.678 925.948M1343.23 -233.512C1341.16 -148.791 1325.34 -63.1405 1284.59 15.1135C1269.65 44.0696 1249.27 70.324 1226.37 95.8425C1199.22 126.101 1162.2 150.605 1123.17 174.051C1096.51 190.078 1068.85 205.586 1042.58 222.018C990.709 254.454 944.344 290.861 905.231 329.001C882.362 351.302 862.202 374.273 844.761 397.588C832.431 414.071 820.559 431.6 807.962 449.096C790.194 473.783 770.627 498.313 747.392 521.532C739.102 529.815 730.399 537.918 721.012 545.617C681.728 577.609 610.332 591.314 553.045 607.968C537.784 612.403 523.508 617.037 510.997 622.259C460.137 643.499 419.427 674.35 391.974 711.34C387.245 717.695 382.893 724.245 378.897 730.971C364.646 754.949 354.8 781.131 348.066 808.298C344.08 824.422 344.113 842.432 334.176 855.633C328.043 863.791 318.076 869.851 301.558 872.825C286.66 875.505 270.775 874.795 255.01 875.731C200.402 878.86 150.577 907.023 143.974 944.641M1341.85 -230.161C1342.22 -145.993 1327.76 -60.4735 1287.31 17.3877C1272.13 46.9332 1250.84 73.3354 1228.01 99.5708C1201.06 130.555 1164.2 155.866 1125.12 180.016C1098.41 196.526 1070.59 212.467 1043.98 229.204C991.437 262.241 943.669 298.755 902.467 336.487C878.38 358.548 856.805 381.126 837.734 403.903C824.223 420.04 811.091 437.113 797.25 454.123C777.701 478.149 756.32 501.936 731.743 524.897C722.991 533.075 713.896 541.136 704.183 548.839C663.448 580.915 592.739 596.206 536.538 614.543C521.601 619.417 507.667 624.489 495.467 630.136C446.032 653.008 407.053 685.225 381.387 723.35C376.962 729.898 372.918 736.638 369.218 743.545C356.024 768.184 347.101 794.963 340.676 822.607C336.873 839.019 336.761 857.212 326.768 870.726C320.602 879.081 310.615 885.348 294.318 888.669C279.495 891.686 263.687 891.454 247.938 892.761C193.405 897.164 143.007 925.421 135.277 963.324M1340.47 -226.812C1343.28 -143.195 1330.17 -57.8094 1290.02 19.6613C1274.59 49.7957 1252.39 76.3435 1229.65 103.296C1202.89 135.002 1166.19 161.127 1127.05 185.977C1100.3 202.973 1072.33 219.342 1045.36 236.385C992.148 270.022 942.97 306.642 899.691 343.969C874.39 365.793 851.397 387.976 830.692 410.217C815.995 426.01 801.605 442.628 786.523 459.153C765.188 482.517 742 505.562 716.081 528.264C706.869 536.335 697.377 544.352 687.339 552.065C645.149 584.227 575.13 601.096 520.02 621.118C505.402 626.429 491.811 631.944 479.92 638.012C431.906 662.508 394.66 696.1 370.788 735.363C366.668 742.103 362.936 749.035 359.531 756.124C347.394 781.423 339.391 808.802 333.274 836.917C329.654 853.617 329.395 871.996 319.348 885.82C313.141 894.373 303.146 900.85 287.065 904.509C272.314 907.865 256.591 908.112 240.853 909.792C186.396 915.465 135.433 943.821 126.561 982.009M1339.09 -223.466C1344.35 -140.399 1332.58 -55.1447 1292.75 21.9332C1277.06 52.6593 1253.96 79.3497 1231.29 107.022C1204.73 139.447 1168.2 166.389 1129 191.942C1102.21 209.419 1074.08 226.221 1046.77 243.573C992.88 277.811 942.294 314.537 896.935 351.46C870.413 373.046 845.996 394.832 823.672 416.538C807.787 431.984 792.145 448.147 775.819 464.184C752.703 486.889 727.707 509.191 700.44 531.635C690.763 539.602 680.882 547.571 670.518 555.292C626.876 587.539 557.544 605.983 503.521 627.698C489.222 633.445 475.977 639.401 464.396 645.89C417.795 672.003 382.293 706.975 360.216 747.374C356.408 754.307 352.98 761.427 349.868 768.705C338.787 794.663 331.704 822.643 325.9 851.232C322.463 868.22 322.054 886.779 311.955 900.919C305.712 909.672 295.705 916.361 279.843 920.356C265.168 924.054 249.522 924.775 233.8 926.831C179.419 933.778 127.887 962.231 117.883 1000.7M1337.71 -220.114C1345.42 -137.6 1335 -52.4777 1295.46 24.2098C1279.53 55.5247 1255.52 82.3607 1232.93 110.752C1206.55 143.896 1170.19 171.655 1130.93 197.908C1104.1 215.872 1075.8 233.101 1048.16 250.757C993.596 285.595 941.604 322.43 894.159 358.942C866.423 380.291 840.583 401.679 816.638 422.853C799.563 437.951 782.666 453.662 765.096 469.212C740.194 491.255 713.396 512.818 684.779 535.003C674.642 542.863 664.364 550.788 653.675 558.518C608.578 590.851 539.927 610.868 487.004 634.279C473.028 640.461 460.118 646.859 448.851 653.771C403.665 681.495 369.905 717.854 349.614 759.389C346.111 766.514 342.991 773.824 340.178 781.286C330.154 807.904 323.999 836.485 318.499 865.547C315.249 882.822 314.689 901.568 304.536 916.019C298.257 924.972 288.237 931.873 272.592 936.206C257.99 940.249 242.428 941.444 226.713 943.87C172.412 952.089 120.303 980.638 109.165 1019.39M1336.33 -216.767C1346.49 -134.807 1337.42 -49.8127 1298.18 26.4792C1282 58.3858 1257.08 85.3644 1234.57 114.475C1208.38 148.341 1172.19 176.912 1132.87 203.87C1105.99 222.317 1077.54 239.977 1049.55 257.942C994.316 293.381 940.917 330.321 891.391 366.43C862.434 387.542 835.167 408.529 809.608 429.17C791.34 443.919 773.192 459.18 754.382 474.246C727.686 495.625 699.093 516.449 669.135 538.376C658.536 546.13 647.862 554.011 636.851 561.748C590.302 594.165 522.333 615.749 470.503 640.862C456.845 647.479 444.278 654.316 433.321 661.654C389.543 690.983 357.532 728.733 339.032 771.407C335.837 778.728 333.021 786.225 330.508 793.871C321.54 821.15 316.305 850.331 311.117 879.862C308.05 897.424 307.345 916.353 297.136 931.117C290.821 940.271 280.793 947.386 265.364 952.053C250.838 956.443 235.367 958.13 219.653 960.909C165.479 970.483 112.753 999.045 100.477 1038.09M1334.95 -213.419C1347.55 -132.006 1339.82 -47.1465 1300.9 28.7503C1284.46 61.2458 1258.63 88.3695 1236.21 118.197C1210.21 152.78 1174.19 182.17 1134.81 209.829C1107.88 228.762 1079.28 246.849 1050.94 265.121C995.031 301.159 940.221 338.206 888.618 373.91C858.448 394.784 829.742 415.373 802.572 435.48C783.111 449.879 763.708 464.688 743.661 479.266C715.176 499.98 684.788 520.071 653.477 541.736C642.417 549.389 631.35 557.218 620.01 564.967C572.006 597.47 504.714 620.618 453.984 647.432C440.645 654.481 428.416 661.758 417.778 669.527C375.399 700.456 345.142 739.606 328.432 783.414C325.546 790.925 323.042 798.615 320.821 806.445C312.909 834.383 308.595 864.165 303.719 894.17C300.836 912.021 299.978 931.132 289.72 946.209C283.372 955.561 273.334 962.899 258.114 967.891C243.666 972.632 228.274 974.786 212.568 977.935C158.474 988.782 105.175 1017.44 91.7674 1056.77M1333.57 -210.067C1348.62 -129.207 1342.24 -44.4765 1303.62 31.0298C1286.94 64.1147 1260.19 91.3804 1237.85 121.931C1212.04 157.23 1176.19 187.437 1136.75 215.799C1109.78 235.212 1081.03 253.733 1052.34 272.312C995.76 308.951 939.546 346.106 885.859 381.403C854.467 402.04 824.334 422.228 795.547 441.805C774.892 455.855 754.234 470.211 732.947 484.305C702.668 504.356 670.49 523.71 637.828 545.112C626.308 552.658 614.844 560.444 603.186 568.202C553.731 600.789 487.112 625.499 437.491 654.02C424.47 661.5 412.58 669.218 402.259 677.413C361.275 709.939 332.781 750.489 317.862 795.436C315.284 803.142 313.084 811.019 311.159 819.036C304.308 847.637 300.913 878.013 296.346 908.495C293.646 926.634 292.644 945.928 282.329 961.318C275.94 970.867 265.895 978.43 250.891 983.751C236.527 988.845 221.208 991.465 205.513 994.987C151.502 1007.11 97.6261 1035.86 83.0804 1075.47M1332.19 -206.72C1349.68 -126.414 1344.41 -41.894 1306.33 33.2988C1289.3 66.9377 1261.74 94.3807 1239.49 125.651C1213.85 161.666 1178.18 192.693 1138.7 221.758C1111.68 241.658 1082.77 260.609 1053.73 279.491C996.482 316.73 938.862 353.989 883.089 388.881C850.484 409.281 818.908 429.062 788.515 448.113C766.663 461.81 744.749 475.713 722.234 489.325C690.162 508.714 656.196 527.33 622.178 548.472C610.201 555.915 598.336 563.654 586.353 571.421C535.443 604.095 469.496 630.361 420.98 660.591C408.278 668.503 396.726 676.66 386.719 685.284C347.126 719.404 320.398 761.358 307.27 807.439C304.996 815.337 303.104 823.404 301.479 831.605C295.684 860.866 293.209 891.843 288.95 922.795C286.434 941.223 285.283 960.702 274.916 976.403C268.49 986.152 258.442 993.938 243.649 999.584C229.366 1005.03 214.123 1008.12 198.442 1012.01C144.516 1025.4 90.0627 1054.25 74.3859 1094.15M1330.81 -203.372C1350.75 -123.615 1346.82 -39.2297 1309.05 35.5726C1291.76 69.8003 1263.29 97.3833 1241.12 129.376C1215.67 166.107 1180.18 197.954 1140.63 227.719C1113.57 248.102 1084.5 267.484 1055.12 286.676C997.191 324.513 938.171 361.883 880.314 396.368C846.488 416.53 813.472 435.908 781.477 454.43C758.42 467.774 735.263 481.228 711.508 494.356C677.638 513.079 641.889 530.964 606.514 551.842C594.076 559.183 581.822 566.874 569.509 574.647C517.148 607.405 451.87 635.23 404.459 667.17C392.072 675.515 380.862 684.111 371.17 693.163C332.956 728.873 308.006 772.234 296.668 819.454C294.702 827.541 293.118 835.799 291.789 844.187C287.051 874.108 285.5 905.687 281.55 937.111C279.212 955.824 277.917 975.487 267.497 991.503C261.036 1001.45 250.985 1009.47 236.401 1015.43C222.201 1021.24 207.031 1024.78 191.359 1029.05C137.512 1043.71 82.49 1072.66 65.6709 1112.84M1329.43 -200.023C1351.82 -120.817 1349.24 -36.5624 1311.77 37.8443C1294.23 72.6609 1264.85 100.386 1242.77 133.102C1217.49 170.549 1182.18 203.216 1142.58 233.681C1115.47 254.55 1086.25 274.36 1056.52 293.855C997.921 332.292 937.491 369.769 877.553 403.851C842.513 423.776 808.055 442.747 774.453 460.743C750.199 473.734 725.787 486.735 700.796 499.382C665.128 517.434 627.597 534.593 590.867 555.205C577.973 562.443 565.318 570.086 552.684 577.866C498.867 610.71 434.254 640.087 387.955 673.741C375.883 682.515 365.012 691.551 355.642 701.038C318.807 738.333 295.631 783.108 286.088 831.464C284.431 839.747 283.155 848.195 282.122 856.765C278.44 887.345 277.813 919.523 274.171 951.423C272.017 970.424 270.577 990.269 260.1 1006.6C253.602 1016.75 243.553 1024.99 229.172 1031.28C215.057 1037.45 199.959 1041.44 184.299 1046.08C130.531 1062.02 74.9319 1091.06 56.9858 1131.53M1328.05 -196.674C1352.88 -118.021 1351.9 -33.8188 1314.48 40.1182C1296.81 75.5642 1266.39 103.391 1244.4 136.827C1219.3 174.99 1184.18 208.475 1144.51 239.643C1117.36 260.993 1087.97 281.233 1057.91 301.04C998.634 340.078 936.796 377.659 874.777 411.333C838.516 431.021 802.618 449.582 767.411 467.057C741.951 479.69 716.292 492.244 690.073 504.41C652.608 521.796 613.294 538.225 575.207 558.572C561.856 565.707 548.8 573.304 535.84 581.092C480.572 614.021 416.619 644.95 371.438 680.322C359.684 689.528 349.144 699.003 340.1 708.917C304.635 747.797 283.246 793.984 275.49 843.477C274.141 851.95 273.169 860.59 272.432 869.346C269.807 900.586 270.1 933.364 266.766 965.736C264.795 985.025 263.207 1005.06 252.681 1021.69C246.146 1032.04 236.099 1040.52 221.92 1047.12C207.894 1053.65 192.842 1058.08 177.215 1063.12C123.452 1080.25 67.3584 1109.46 48.27 1150.21M1326.66 -193.324C1353.95 -115.222 1354.31 -31.1514 1317.2 42.3928C1299.28 78.4254 1267.95 106.394 1246.05 140.556C1221.12 179.432 1186.18 213.736 1146.46 245.611C1119.27 267.447 1089.72 288.116 1059.31 308.228C999.362 347.865 936.118 385.556 872.014 418.824C834.539 438.275 797.193 456.427 760.385 473.378C733.724 485.656 706.813 497.755 679.358 509.443C640.095 526.159 598.999 541.862 559.558 561.943C545.75 568.974 532.297 576.522 519.012 584.319C462.289 617.334 398.988 649.812 354.936 686.9C343.493 696.536 333.291 706.447 324.569 716.794C290.468 757.259 270.873 804.859 264.907 855.49C263.867 864.159 263.202 872.983 262.757 881.924C261.189 913.824 262.405 947.2 259.38 980.047C257.593 999.625 255.856 1019.84 245.277 1036.79C238.706 1047.33 228.665 1056.05 214.687 1062.96C200.755 1069.85 185.762 1074.74 170.146 1080.15C116.463 1098.55 59.7967 1127.87 39.5737 1168.9M1325.29 -189.975C1355.02 -112.426 1356.73 -28.4867 1319.92 44.6647C1301.76 81.289 1269.5 109.395 1247.69 144.279C1222.94 183.868 1188.18 218.995 1148.4 251.57C1121.16 273.889 1091.46 294.99 1060.71 315.408C1000.09 355.646 935.438 393.443 869.257 426.305C830.56 445.518 791.775 463.256 753.365 479.688C725.498 491.608 697.341 503.26 668.654 514.465C627.584 530.509 584.718 545.49 543.92 565.307C529.651 572.236 515.802 579.735 502.191 587.542C444.013 620.643 381.365 654.668 338.437 693.475C327.304 703.537 317.437 713.89 309.042 724.669C276.295 766.713 258.502 815.731 254.327 867.496C253.591 876.357 253.235 885.372 253.09 894.497C252.577 927.057 254.718 961.035 252.001 994.349C250.396 1014.21 248.511 1034.61 237.879 1051.88C231.272 1062.62 221.244 1071.57 207.457 1078.8C193.623 1086.06 178.689 1091.39 163.084 1097.18C109.473 1116.85 52.2413 1146.26 30.8879 1187.58M1323.91 -186.626C1356.08 -109.63 1359.14 -25.8227 1322.64 46.9383C1304.22 84.1515 1271.04 112.399 1249.32 148.009C1224.75 188.311 1190.17 224.261 1150.33 257.536C1123.05 280.341 1093.2 301.87 1062.09 322.594C1000.8 363.432 934.743 401.338 866.473 433.792C826.563 452.768 786.326 470.093 746.319 486.005C717.25 497.564 687.838 508.769 657.923 519.497C615.056 534.871 570.412 549.129 528.255 568.676C513.53 575.502 499.28 582.955 485.347 590.767C425.717 623.953 363.718 659.528 321.92 700.055C311.098 710.548 301.568 721.337 293.496 732.551C262.1 776.175 246.11 826.612 243.729 879.514C243.305 888.567 243.253 897.774 243.404 907.081C243.952 940.303 247.008 974.88 244.604 1008.67C243.183 1028.82 241.153 1049.4 230.468 1066.98C223.825 1077.93 213.807 1087.11 200.217 1094.65C186.478 1102.28 171.602 1108.06 156.013 1114.22C102.482 1135.17 44.6769 1164.68 22.1846 1206.28M1322.53 -183.28C1357.15 -106.832 1361.55 -23.1558 1325.35 49.2072C1306.69 87.0121 1272.58 115.396 1250.96 151.729C1226.56 192.747 1192.17 229.517 1152.27 263.492C1124.94 286.781 1094.94 308.74 1063.49 329.771C1001.52 371.21 934.059 409.222 863.712 441.27C822.58 460.008 780.903 476.919 739.295 492.312C709.02 503.514 678.361 514.266 647.211 524.518C602.541 539.218 556.123 552.756 512.605 572.036C497.423 578.764 482.775 586.162 468.513 593.986C407.429 627.258 346.074 664.381 305.409 706.627C294.897 717.545 285.703 728.776 277.964 740.422C247.916 785.631 233.735 837.481 233.141 891.519C233.021 900.765 233.281 910.159 233.724 919.655C235.326 953.54 239.309 988.712 237.213 1022.98C235.979 1043.42 233.793 1064.18 223.059 1082.07C216.38 1093.22 206.376 1102.64 192.976 1110.49C179.338 1118.49 164.517 1124.72 148.936 1131.25C95.4801 1153.47 37.11 1183.07 13.4831 1224.96M1321.15 -179.928C1358.22 -104.033 1363.97 -20.4888 1328.07 51.4866C1309.16 89.8803 1274.13 118.401 1252.61 155.462C1228.37 197.191 1194.17 234.787 1154.22 269.465C1126.85 293.237 1096.68 315.629 1064.89 336.964C1002.25 379.002 933.376 417.12 860.949 448.766C818.604 467.267 775.474 483.76 732.266 498.64C700.789 509.481 668.878 519.784 636.497 529.557C590.028 543.581 541.829 556.404 496.953 575.414C481.314 582.038 466.266 589.39 451.682 597.221C389.146 630.577 328.429 669.246 288.9 713.213C278.699 724.563 269.836 736.234 262.427 748.309C233.719 795.095 221.355 848.365 222.551 903.542C222.741 912.983 223.304 922.565 224.047 932.245C226.705 966.79 231.608 1002.56 229.821 1037.3C228.77 1058.02 226.439 1078.97 215.649 1097.18C208.932 1108.52 198.947 1118.18 185.733 1126.35C172.201 1134.71 157.427 1141.39 141.865 1148.29C88.4853 1171.79 29.546 1201.49 4.78031 1243.66M1319.77 -176.58C1359.28 -101.238 1366.38 -17.8219 1330.79 53.7579C1311.63 92.741 1275.67 121.4 1254.24 159.185C1230.17 201.626 1196.17 240.043 1156.16 275.424C1128.74 299.679 1098.41 322.499 1066.28 344.146C1002.97 386.785 932.692 425.009 858.176 456.245C814.61 474.509 770.036 490.586 725.23 504.95C692.547 515.427 659.386 525.285 625.777 534.582C577.506 547.932 527.537 560.039 481.299 578.777C465.204 585.302 449.758 592.605 434.849 600.445C370.858 633.887 310.777 674.098 272.393 719.787C262.499 731.565 253.97 743.673 246.891 756.184C219.519 804.55 208.976 859.236 211.967 915.55C212.465 925.181 213.333 934.955 214.375 944.82C218.089 980.024 223.913 1016.4 222.438 1051.61C221.57 1072.62 219.091 1093.75 208.248 1112.27C201.495 1123.81 191.531 1133.72 178.503 1142.19C165.077 1150.92 150.355 1158.05 134.799 1165.32C81.4992 1190.09 21.983 1219.89 -3.90958 1262.34M1318.39 -173.233C1360.35 -98.4412 1368.8 -15.1599 1333.5 56.0294C1314.1 95.6015 1277.09 124.356 1255.88 162.908C1231.85 206.015 1198.16 245.299 1158.09 281.383C1130.63 306.124 1100.15 329.372 1067.67 351.323C1003.69 394.562 932.001 432.892 855.404 463.725C810.624 481.752 764.601 497.409 718.195 511.26C684.306 521.374 649.898 530.785 615.057 539.603C564.987 552.277 513.315 563.739 465.641 582.137C449.112 588.583 433.247 595.813 418.012 603.661C352.57 637.188 293.122 678.948 255.883 726.359C246.295 738.565 238.105 751.113 231.352 764.056C205.316 814.002 196.591 870.108 201.372 927.555C202.174 937.378 203.358 947.343 204.689 957.394C209.459 993.259 216.211 1030.23 215.04 1065.91C214.355 1087.22 211.728 1108.53 200.832 1127.36C194.043 1139.11 184.101 1149.25 171.258 1158.03C157.939 1167.13 143.267 1174.71 127.723 1182.36C74.499 1208.4 14.4173 1238.29 -12.6135 1281.03M1317.01 -169.881C1361.42 -95.6401 1371.21 -12.4926 1336.22 58.304C1316.57 98.4677 1278.64 127.365 1257.52 166.636C1233.67 210.459 1200.16 250.563 1160.04 287.348C1132.53 312.572 1101.89 336.251 1069.07 358.51C1004.41 402.351 931.322 440.789 852.644 471.214C806.643 489.003 759.179 504.24 711.172 517.578C676.077 527.329 640.386 536.245 604.346 544.634C552.427 556.566 499.016 567.374 449.996 585.505C433.009 591.848 416.744 599.031 401.184 606.888C334.286 640.501 275.472 683.805 239.377 732.938C230.096 745.572 222.237 758.56 215.826 771.936C191.118 823.462 184.221 880.985 190.793 939.572C191.904 949.59 193.391 959.742 195.022 969.977C200.849 1006.5 208.521 1044.07 207.658 1080.23C207.157 1101.82 204.385 1123.32 193.432 1142.46C186.607 1154.4 176.686 1164.79 164.022 1173.88C150.816 1183.35 136.183 1191.37 120.655 1199.4C67.5105 1226.71 6.85203 1256.7 -21.3134 1299.72M1315.63 -166.535C1362.48 -92.8469 1373.63 -9.82824 1338.95 60.5755C1319.04 101.328 1280.2 130.367 1259.17 170.359C1235.5 214.901 1202.16 255.822 1161.98 293.31C1134.44 319.018 1103.64 343.129 1070.47 365.693C1005.13 410.134 930.638 448.677 849.879 478.699C802.664 496.251 753.748 511.066 704.141 523.895C667.843 533.28 630.906 541.755 593.631 549.667C539.914 560.928 484.72 571.011 434.343 588.878C416.896 595.119 400.234 602.253 384.352 610.117C316.003 643.815 257.81 688.664 222.867 739.52C213.893 752.582 206.364 766.01 200.287 779.817C176.904 832.925 171.84 891.864 180.199 951.586C181.617 961.795 183.409 972.139 185.34 982.559C192.223 1019.74 200.815 1057.92 200.268 1094.54C199.95 1116.42 197.03 1138.1 186.024 1157.56C179.162 1169.7 169.267 1180.33 156.785 1189.72C143.697 1199.57 129.103 1208.04 113.583 1216.43C60.5139 1245.02 -0.710162 1275.1 -30.0102 1318.41M1314.24 -163.187C1363.55 -90.0486 1376.04 -7.1641 1341.66 62.8492C1321.51 104.193 1281.74 133.372 1260.8 174.087C1237.31 219.345 1204.16 261.085 1163.92 299.274C1136.33 325.468 1105.37 350.007 1071.86 372.877C1005.86 417.918 929.95 456.568 847.11 486.182C798.674 503.496 748.317 517.892 697.11 530.207C659.606 539.229 621.43 547.262 582.914 554.69C527.407 565.281 470.42 574.64 418.697 592.241C400.793 598.379 383.73 605.466 367.523 613.339C297.718 647.123 240.155 693.518 206.364 746.091C197.693 759.584 190.499 773.449 184.755 787.689C162.693 842.376 159.465 902.733 169.615 963.595C171.342 973.998 173.441 984.527 175.668 995.134C183.612 1032.98 193.123 1071.75 192.885 1108.85C192.751 1131.02 189.681 1152.88 178.623 1172.65C171.724 1184.99 161.864 1195.86 149.555 1205.56C136.581 1215.79 122.026 1224.69 106.521 1233.46C53.5285 1263.32 -8.26476 1293.5 -38.7036 1337.1M1312.87 -159.835C1364.62 -87.2499 1378.46 -4.49424 1344.38 65.1234C1323.98 107.057 1283.3 136.377 1262.44 177.812C1239.13 223.786 1206.16 266.347 1165.86 305.238C1138.22 331.915 1107.11 356.885 1073.25 380.064C1006.57 425.704 929.264 464.465 844.339 493.672C794.689 510.749 742.838 524.661 690.08 536.53C651.341 545.142 611.951 552.778 572.196 559.726C514.895 569.649 456.117 578.277 403.041 595.616C384.677 601.653 367.22 608.689 350.687 616.571C279.431 650.438 222.331 698.324 189.855 752.678C181.447 766.583 174.628 780.904 169.218 795.576C148.477 851.847 147.081 913.619 159.025 975.613C161.056 986.208 163.468 996.931 165.986 1007.72C174.987 1046.23 185.418 1085.6 185.488 1123.17C185.533 1145.62 182.32 1167.67 171.208 1187.76C164.273 1200.29 154.442 1211.41 142.308 1221.42C129.46 1232.02 114.936 1241.36 99.4425 1250.51C46.5294 1281.64 -15.8371 1311.91 -47.4064 1355.79M1311.49 -156.488C1365.68 -84.454 1380.87 -1.82986 1347.09 67.395C1326.45 109.918 1284.85 139.383 1264.08 181.538C1240.95 228.228 1208.15 271.606 1167.8 311.2C1140.12 338.363 1108.85 363.761 1074.64 387.246C1007.29 433.485 928.573 472.353 841.567 501.157C790.7 517.994 737.417 531.498 683.046 542.845C643.109 551.099 602.468 558.285 561.481 564.755C502.389 574.007 441.819 581.911 387.388 598.984C368.563 604.914 350.71 611.906 333.855 619.795C261.144 653.749 204.698 703.192 173.345 759.255C165.252 773.593 158.713 788.338 153.683 803.451C134.075 861.258 134.704 924.491 148.438 987.623C150.782 998.412 153.493 1009.32 156.308 1020.3C166.365 1059.46 177.724 1099.43 178.098 1137.48C178.326 1160.22 174.969 1182.45 163.8 1202.85C156.829 1215.59 147.031 1226.94 135.067 1237.26C122.341 1248.23 107.848 1258.02 92.3693 1267.53C39.5322 1299.94 -23.4033 1330.31 -56.1072 1374.48M1310.1 -153.139C1366.75 -81.655 1383.28 0.834713 1349.81 69.6668C1328.91 112.778 1286.4 142.386 1265.71 185.263C1242.76 232.672 1210.15 276.865 1169.73 317.161C1142.01 344.806 1110.58 370.636 1076.03 394.429C1008.01 441.269 927.882 480.241 838.795 508.637C786.71 525.239 731.991 538.332 676.011 549.155C634.88 557.054 592.984 563.793 550.758 569.778C489.872 578.362 427.515 585.538 371.731 602.345C352.445 608.173 334.195 615.116 317.015 623.014C242.852 657.052 187.06 708.058 156.827 765.826C149.045 780.595 142.84 795.783 138.141 811.325C119.905 870.733 122.314 935.36 137.839 999.631C140.487 1010.61 143.511 1021.71 146.621 1032.87C157.735 1072.7 170.013 1113.27 170.701 1151.79C171.112 1174.82 167.602 1197.23 156.384 1217.94C149.377 1230.88 139.616 1242.48 127.822 1253.1C115.222 1264.44 100.761 1274.68 85.2931 1284.57C32.5314 1318.24 -30.9691 1348.71 -64.8118 1393.16M1308.73 -149.79C1367.82 -78.8591 1385.7 3.50191 1352.53 71.9436C1331.39 115.647 1287.95 145.394 1267.36 188.991C1244.59 237.116 1212.15 282.128 1171.68 323.128C1143.91 351.259 1112.33 377.517 1077.43 401.616C1008.73 449.055 927.206 488.135 836.031 516.127C782.729 532.49 726.574 545.176 668.981 555.477C626.652 563.019 583.505 569.308 540.039 574.813C477.363 582.728 413.208 589.177 356.074 605.719C336.331 611.444 317.689 618.341 300.179 626.245C224.561 660.37 169.427 712.937 140.318 772.412C132.851 787.615 126.985 803.243 122.603 819.212C105.737 880.222 109.933 946.244 127.249 1011.65C130.202 1022.83 133.533 1034.12 136.943 1045.46C149.113 1085.95 162.312 1127.12 163.308 1166.11C163.902 1189.43 160.247 1212.02 148.973 1233.05C141.929 1246.18 132.242 1258.04 120.579 1268.95C108.14 1280.7 93.6701 1291.35 78.2181 1301.61C25.5323 1336.56 -38.5374 1367.13 -73.5147 1411.86M1307.35 -146.441C1368.88 -76.0632 1388.11 6.16626 1355.25 74.2151C1333.85 118.507 1289.5 148.394 1269 192.717C1246.4 241.557 1214.15 287.39 1173.62 329.09C1091.06 414.03 973.893 482.011 833.263 523.61C738.665 551.592 634.844 567.977 529.323 579.837C464.853 587.083 398.912 592.804 340.424 609.08C232.9 639.003 158.279 703.647 123.811 778.982C89.3423 854.316 92.5505 939.684 116.665 1023.66C138.543 1099.86 177.136 1181.14 141.572 1248.13C100.896 1324.75 -25.6522 1360.03 -82.2086 1430.54M1669.09 316.25C1564.99 244.536 1428.54 194.043 1290.84 176.278C1251.67 171.225 1210.96 168.847 1176.99 177.618C1078.84 202.967 1069.03 294.425 1047.29 356.937C1021.05 432.374 997.698 508.715 961.749 581.411C941.567 622.224 911.115 665.584 847.509 675.183C783.098 684.9 711.154 656.446 645.215 633.818C568.382 607.45 486.382 587.277 405.941 584.728C325.499 582.179 246.609 598.969 201.131 637.724C165.52 668.073 152.691 709.026 145.891 749.757C128.03 856.776 146.791 970.697 200.453 1081.08M1666.79 311.71C1574.78 248.328 1456.27 204.925 1329.26 184.306C1317.47 182.391 1305.66 180.644 1293.84 179.163C1255 174.307 1214.73 172.011 1181.02 180.508C1083.49 205.059 1071.47 293.519 1048.51 355.098C1028.16 409.692 1009.9 465.222 986.724 519.836C978.727 538.811 970.191 557.632 960.856 576.225C940.604 616.554 910.485 659.382 848.297 669.547C785.326 679.839 715.081 653.196 650.618 632.178C575.503 607.691 495.351 589.177 416.581 587.664C389.156 587.137 361.897 588.873 336.102 592.978C287.824 600.651 244.652 616.61 215.124 641.532C179.656 671.467 166.108 711.573 158.284 751.318C142.407 831.759 147.177 915.586 172.483 999.182C180.032 1024.13 189.407 1049.05 200.624 1073.84M1664.49 307.176C1575.55 245.906 1460.59 206.879 1331.91 186.986C1320.23 185.182 1308.54 183.479 1296.84 182.057C1258.35 177.403 1218.52 175.184 1185.06 183.406C1088.14 207.159 1073.92 292.616 1049.74 353.266C1028.5 406.543 1009.82 461.195 986.052 515.366C977.945 534.089 969.335 552.676 959.969 571.047C939.651 610.896 909.858 653.19 849.09 663.92C787.556 674.782 719.009 649.951 656.031 630.544C582.637 607.936 504.324 591.087 427.234 590.608C400.393 590.444 373.693 592.46 348.395 596.757C301.052 604.778 258.541 620.768 229.134 645.346C193.813 674.871 179.546 714.123 170.691 752.884C152.687 831.341 154.27 912.477 175.975 993.824C182.45 1018.1 190.711 1042.38 200.807 1066.61M1662.19 302.637C1576.31 243.482 1464.93 208.817 1334.56 189.661C1322.99 187.961 1311.42 186.304 1299.85 184.943C1261.69 180.486 1222.3 178.355 1189.1 186.298C1092.8 209.253 1076.39 291.703 1050.98 351.428C1028.86 403.383 1009.55 457.096 985.392 510.89C977.107 529.342 968.489 547.714 959.089 565.865C938.7 605.23 909.238 646.994 849.894 658.287C789.796 669.72 722.952 646.703 661.45 628.905C589.775 608.179 513.309 592.989 437.894 593.543C411.633 593.744 385.494 596.038 360.691 600.524C314.279 608.896 272.435 624.912 243.147 649.153C207.973 678.267 192.987 716.666 183.1 754.442C162.971 830.92 161.365 909.361 179.474 988.462C184.876 1012.06 192.026 1035.71 201.005 1059.38M1659.89 298.103C1577.08 241.06 1469.28 210.742 1337.2 192.343C1325.75 190.749 1314.3 189.138 1302.85 187.838C1265.03 183.584 1226.08 181.529 1193.13 189.195C1097.46 211.353 1078.87 290.797 1052.2 349.598C1029.23 400.233 1009.41 453.051 984.716 506.422C976.301 524.618 967.632 542.758 958.198 560.689C937.743 599.573 908.613 640.804 850.683 652.662C792.026 664.669 726.88 643.464 666.855 627.275C596.898 608.431 522.275 594.897 448.536 596.489C422.854 597.05 397.281 599.624 372.968 604.303C327.495 613.025 286.316 629.069 257.137 652.968C222.103 681.671 206.402 719.22 195.486 756.008C173.232 830.502 168.438 906.253 182.942 983.107C187.268 1006.04 193.308 1029.06 201.166 1052.15M1657.58 293.566C1577.84 238.636 1473.63 212.653 1339.85 195.02C1328.51 193.528 1317.18 191.97 1305.86 190.727C1268.38 186.67 1229.86 184.7 1197.17 192.091C1102.12 213.452 1081.37 289.886 1053.43 347.767C1029.63 397.086 1009.29 449.003 984.053 501.954C975.508 519.892 966.785 537.804 957.319 555.512C936.793 593.913 907.994 634.614 851.484 647.036C794.264 659.614 730.825 640.221 672.272 625.645C604.033 608.676 531.257 596.807 459.194 599.436C434.095 600.36 409.081 603.214 385.262 608.083C340.724 617.153 300.205 633.228 271.152 656.785C236.265 685.077 219.848 721.776 207.901 757.58C183.526 830.092 175.54 903.15 186.447 977.758C189.699 1000.02 194.626 1022.4 201.362 1044.93M1655.28 289.027C1578.61 236.208 1478 214.539 1342.49 197.692C1331.27 196.299 1320.06 194.792 1308.85 193.612C1271.72 189.755 1233.64 187.864 1201.2 194.979C1106.76 215.544 1083.88 288.962 1054.65 345.925C1030.03 393.925 1009.15 444.946 983.372 497.473C974.697 515.154 965.919 532.837 956.418 550.32C935.826 588.241 907.357 628.406 852.264 641.395C796.481 654.544 734.743 636.966 677.667 623.999C611.146 608.912 540.217 598.702 469.826 602.366C445.311 603.653 420.858 606.785 397.534 611.848C353.927 621.268 314.076 637.37 285.137 660.588C250.397 688.469 233.258 724.317 220.283 759.133C193.781 829.661 182.607 900.029 189.913 972.388C192.089 993.982 195.905 1015.73 201.524 1037.69M1652.98 284.493C1579.37 233.789 1482.37 216.419 1345.13 200.374C1334.03 199.077 1322.93 197.626 1311.86 196.506C1275.06 192.848 1237.42 191.039 1205.24 197.88C1111.42 217.644 1086.41 288.055 1055.89 344.097C1030.46 390.78 1009.03 440.901 982.709 493.009C973.908 510.437 965.067 527.885 955.539 545.148C934.877 582.585 906.737 622.22 853.065 635.774C798.723 649.496 738.68 633.727 683.087 622.371C618.289 609.163 549.203 600.615 480.492 605.314C456.556 606.96 432.665 610.375 409.835 615.628C367.163 625.396 327.98 641.529 299.155 664.408C264.559 691.875 246.704 726.873 232.694 760.707C204.071 829.253 189.705 896.928 193.41 967.044C194.513 987.967 197.215 1009.08 201.713 1030.47M1650.68 279.954C1580.14 231.362 1486.76 218.271 1347.78 203.049C1336.79 201.845 1325.82 200.453 1314.86 199.394C1278.41 195.936 1241.2 194.209 1209.28 200.773C1116.08 219.74 1088.96 287.134 1057.12 342.26C1030.91 387.628 1008.91 436.849 982.04 488.532C973.112 505.7 964.213 522.921 954.651 539.964C933.922 576.921 906.112 616.02 853.862 630.144C800.956 644.438 742.615 630.483 688.499 620.736C625.419 609.41 558.177 602.523 491.14 608.255C467.788 610.264 444.459 613.957 422.119 619.402C380.386 629.52 341.863 645.679 313.157 668.221C278.708 695.278 260.134 729.423 245.096 762.274C214.347 828.836 196.793 893.821 196.898 961.688C196.924 981.942 198.512 1002.42 201.897 1023.25M1648.37 275.417C1580.9 228.938 1491.14 220.107 1350.42 205.726C1339.55 204.616 1328.69 203.282 1317.86 202.282C1281.74 199.023 1244.98 197.379 1213.32 203.663C1120.73 221.835 1091.53 286.216 1058.35 340.423C1031.38 384.48 1008.8 432.802 981.372 484.06C972.322 500.977 963.36 517.963 953.767 534.784C932.968 571.257 905.488 609.826 854.658 624.515C803.189 639.379 746.551 627.239 693.911 619.102C632.549 609.657 567.154 604.43 501.794 611.2C479.025 613.571 456.254 617.544 434.408 623.178C393.606 633.647 355.752 649.838 327.163 672.032C292.856 698.676 273.564 731.973 257.498 763.837C224.627 828.417 203.881 890.709 200.389 956.33C199.343 975.913 199.816 995.753 202.083 1016.01M1646.08 270.881C1581.67 226.514 1495.54 221.928 1353.07 208.403C1342.31 207.383 1331.57 206.109 1320.86 205.17C1285.08 202.111 1248.75 200.546 1217.35 206.559C1125.38 223.933 1094.11 285.3 1059.57 338.589C1031.86 381.337 1008.68 428.754 980.689 479.587C971.517 496.248 962.493 513.005 952.869 529.603C932.003 565.596 904.853 603.629 855.44 618.885C805.407 634.32 750.472 623.995 699.308 617.467C639.668 609.902 576.117 606.336 512.428 614.141C490.239 616.872 468.026 621.125 446.678 626.952C406.811 637.768 369.621 653.988 341.15 675.845C306.987 702.08 286.979 734.522 269.881 765.401C234.885 827.997 210.947 887.596 203.855 950.973C201.735 969.885 201.094 989.092 202.241 1008.78M1643.77 266.344C1582.44 224.089 1499.93 223.724 1355.71 211.08C1345.07 210.148 1334.45 208.941 1323.86 208.058C1288.42 205.199 1252.53 203.716 1221.38 209.449C1130.04 226.025 1096.72 284.385 1060.8 336.752C1032.37 378.194 1008.57 424.704 980.024 475.112C970.734 491.52 961.643 508.044 951.988 524.42C931.052 559.93 904.236 597.435 856.243 613.251C807.652 629.26 754.414 620.741 704.731 615.831C646.805 610.144 585.105 608.241 523.091 617.078C501.485 620.172 479.835 624.702 458.981 630.724C420.049 641.889 383.523 658.136 355.167 679.655C321.151 705.479 300.42 737.07 282.298 766.964C245.18 827.579 218.05 884.485 207.357 945.613C204.161 963.856 202.41 982.428 202.438 1001.55M1641.47 261.81C1583.2 221.67 1504.33 225.502 1358.36 213.76C1347.84 212.915 1337.32 211.758 1326.87 210.951C1291.77 208.246 1256.32 206.892 1225.43 212.347C1134.69 228.124 1099.35 283.48 1062.04 334.922C1032.91 375.066 1008.48 420.665 979.361 470.644C969.952 486.798 960.795 503.085 951.102 519.243C930.099 554.271 903.612 591.241 857.037 607.624C809.882 624.204 758.347 617.5 710.144 614.197C653.936 610.392 594.082 610.148 533.745 620.023C512.723 623.48 491.63 628.29 471.271 634.501C433.274 646.019 397.412 662.295 369.177 683.469C335.304 708.88 313.858 739.621 294.705 768.53C255.461 827.16 225.143 881.376 210.853 940.259C206.584 957.831 203.719 975.769 202.63 994.326M1639.17 257.271C1583.97 219.243 1508.73 227.251 1361 216.437C1350.6 215.675 1340.21 214.587 1329.87 213.84C1295.11 211.332 1260.1 210.062 1229.46 215.24C1139.34 230.221 1102 282.576 1063.26 333.085C1033.46 371.933 1008.37 416.62 978.688 466.169C969.165 482.067 959.938 498.124 950.214 514.059C929.141 548.605 902.983 585.044 857.829 601.992C812.111 619.143 762.278 614.253 715.552 612.56C661.066 610.634 603.055 612.052 544.39 622.961C523.943 626.78 503.42 631.869 483.548 638.274C446.486 650.14 411.288 666.445 383.167 687.279C349.442 712.279 327.276 742.167 307.091 770.091C265.725 826.74 232.216 878.263 214.321 934.899C208.975 951.802 205 969.105 202.79 987.094M1636.87 252.733C1584.73 216.818 1513.12 228.979 1363.64 219.114C1353.36 218.436 1343.08 217.416 1332.87 216.73C1298.45 214.419 1263.87 213.231 1233.49 218.136C1144 232.319 1104.68 281.678 1064.49 331.253C1034.04 368.815 1008.28 412.579 978.016 461.699C968.374 477.343 959.081 493.168 949.326 508.881C928.187 542.946 902.359 578.849 858.622 596.364C814.344 614.09 766.21 611.012 720.96 610.928C668.193 610.883 612.025 613.963 555.039 625.908C535.176 630.09 515.211 635.458 495.833 642.053C459.706 654.266 425.172 670.6 397.169 691.098C363.591 715.687 340.702 744.724 319.49 771.666C275.999 826.331 239.301 875.163 217.81 929.554C211.391 945.786 206.302 962.455 202.975 979.874M1634.57 248.197C1585.5 214.394 1517.52 230.683 1366.29 221.789C1356.13 221.192 1345.96 220.24 1335.88 219.616C1301.79 217.502 1267.66 216.399 1237.53 221.026C1148.66 234.412 1107.39 280.782 1065.71 329.414C1034.63 365.692 1008.19 408.535 977.344 457.224C967.588 472.618 958.224 488.207 948.438 503.698C927.228 537.279 901.731 572.653 859.414 590.732C816.573 609.029 770.138 607.762 726.368 609.291C675.322 611.125 620.999 615.867 565.688 628.844C546.408 633.389 527.005 639.035 508.121 645.825C472.926 658.388 439.06 674.753 411.178 694.907C377.743 719.082 354.139 747.27 331.895 773.226C286.282 825.909 246.393 872.049 221.301 924.191C213.801 939.751 207.601 955.785 203.157 972.638M1632.26 243.66C1586.26 211.972 1521.91 232.361 1368.93 224.468C1358.88 223.95 1348.83 223.072 1338.87 222.509C1305.13 220.598 1271.45 219.616 1241.56 223.924C1153.38 236.639 1110.12 279.906 1066.94 327.585C1035.24 362.592 1008.11 404.502 976.672 452.754C966.806 467.895 957.368 483.252 947.551 498.52C926.275 531.621 901.107 566.459 860.207 585.106C818.8 603.975 774.07 604.521 731.78 607.657C682.453 611.373 629.976 617.774 576.341 631.789C557.641 636.693 538.8 642.622 520.41 649.601C486.154 662.516 452.948 678.906 425.181 698.721C391.889 722.488 367.566 749.822 344.294 774.791C296.555 825.49 253.478 868.94 224.785 918.837C216.213 933.727 208.899 949.127 203.338 965.416M1629.97 239.124C1587.03 209.548 1526.3 234.016 1371.58 227.146C1361.65 226.706 1351.72 225.904 1341.88 225.398C1308.48 223.684 1275.24 222.784 1245.61 226.818C1158.04 238.732 1112.88 279.035 1068.19 325.749C1035.9 359.492 1008.05 400.465 976.02 448.284C966.047 463.174 956.531 478.295 946.679 493.343C925.333 525.961 900.495 560.268 861.02 579.483C821.053 598.926 778.026 601.281 737.208 606.029C689.6 611.626 638.97 619.687 587.007 634.736C568.89 640.004 550.607 646.213 532.712 653.382C499.389 666.644 466.852 683.066 439.199 702.541C406.051 725.894 381.016 752.381 356.712 776.366C306.852 825.083 260.579 865.842 228.289 913.488C218.64 927.709 210.219 942.471 203.537 958.192M1627.66 234.588C1587.79 207.121 1530.69 235.642 1374.22 229.825C1364.41 229.462 1354.59 228.734 1344.88 228.291C1311.81 226.779 1279.02 225.958 1249.64 229.716C1162.69 240.834 1115.66 278.182 1069.4 323.917C1036.55 356.404 1007.96 396.435 975.337 443.811C965.257 458.451 955.659 473.334 945.78 488.162C924.368 520.299 899.863 554.073 861.802 573.852C823.271 593.867 781.947 598.036 742.606 604.394C696.714 611.868 647.928 621.59 597.641 637.677C580.107 643.307 562.387 649.794 544.981 657.155C512.591 670.767 480.718 687.218 453.182 706.351C420.181 729.293 394.427 754.927 369.092 777.927C317.105 824.66 267.641 862.726 231.758 908.129C221.036 921.678 211.501 935.808 203.698 950.961M1625.36 230.048C1588.56 204.694 1535.06 237.238 1376.86 232.497C1367.17 232.208 1357.47 231.56 1347.88 231.174C1315.16 229.859 1282.8 229.121 1253.68 232.604C1167.34 242.922 1118.47 277.332 1070.63 322.078C1037.23 353.32 1007.91 392.401 974.672 439.336C964.486 453.727 954.809 468.373 944.896 482.977C923.412 514.63 899.238 547.874 862.597 568.218C825.504 588.803 785.877 594.785 748.017 602.755C703.844 612.11 656.904 623.491 608.297 640.614C591.343 646.604 574.184 653.373 557.277 660.927C525.821 674.887 494.612 691.366 467.198 710.16C434.345 732.692 407.868 757.475 381.504 779.487C327.396 824.239 274.74 859.612 235.252 902.769C223.458 915.647 212.809 929.143 203.884 943.728M1623.06 225.514C1589.32 202.274 1539.42 238.807 1379.51 235.177C1369.93 234.961 1360.35 234.392 1350.89 234.067C1318.5 232.955 1286.57 232.296 1257.71 235.499C1171.99 245.019 1121.32 276.506 1071.86 320.244C1037.93 350.25 1007.84 388.371 973.996 434.864C963.703 449.004 953.952 463.413 944.004 477.796C922.455 508.969 898.606 541.679 863.39 562.586C827.737 583.745 789.809 591.538 753.425 601.118C710.97 612.354 665.874 625.397 618.942 643.553C602.571 649.905 585.974 656.952 569.558 664.698C539.041 679.009 508.496 695.517 481.192 713.968C448.482 736.086 421.29 760.02 393.898 781.049C337.665 823.816 281.82 856.499 238.732 897.408C225.861 909.617 214.101 922.477 204.059 936.492M1620.75 220.977C1590.08 199.85 1543.78 240.348 1382.15 237.856C1372.69 237.708 1363.23 237.221 1353.89 236.957C1321.84 236.047 1290.34 235.426 1261.75 238.397C1176.58 246.999 1124.19 275.702 1073.09 318.415C1038.64 347.199 1007.79 384.347 973.329 430.397C962.933 444.289 953.1 458.46 943.121 472.621C921.501 503.31 897.986 535.488 864.187 556.961C829.971 578.691 793.745 588.299 758.841 599.486C718.108 612.602 674.855 627.307 629.599 646.5C613.812 653.215 597.773 660.542 581.85 668.477C552.265 683.138 522.388 699.672 495.202 717.788C462.635 739.497 434.724 762.577 406.301 782.622C347.946 823.408 288.909 853.397 242.224 892.06C228.28 903.598 215.403 915.822 204.247 929.275M1618.46 216.441C1590.85 197.426 1548.13 241.859 1384.8 240.534C1375.45 240.459 1366.11 240.054 1356.89 239.849C1325.19 239.141 1294.12 238.599 1265.79 241.29C1181.24 249.092 1127.1 274.914 1074.32 316.579C1039.39 344.156 1007.75 380.322 972.664 425.923C962.167 439.568 952.251 453.5 942.237 467.44C920.551 497.649 897.362 529.294 864.983 551.332C832.204 573.633 797.681 585.056 764.253 597.852C725.239 612.849 683.832 629.213 640.248 649.441C625.037 656.519 609.564 664.121 594.136 672.251C565.485 687.26 536.268 703.825 509.208 721.599C476.789 742.898 448.158 765.125 418.703 784.185C358.222 822.986 295.998 850.286 245.708 886.702C230.687 897.571 216.7 909.16 204.427 922.042M1616.15 211.904C1591.62 195.001 1552.45 243.337 1387.44 243.208C1378.21 243.202 1368.98 242.88 1359.89 242.734C1328.53 242.228 1297.9 241.764 1269.82 244.183C1185.89 251.187 1130.03 274.149 1075.55 314.742C1040.14 341.125 1007.7 376.296 971.989 421.45C961.389 434.848 951.386 448.539 941.346 462.26C919.589 491.985 896.734 523.097 865.772 545.702C834.434 568.577 801.609 581.806 769.658 596.218C732.362 613.096 692.802 631.12 650.897 652.383C636.27 659.823 621.355 667.706 606.425 676.028C578.705 691.387 550.16 707.981 523.21 725.413C490.934 746.298 461.588 767.675 431.102 785.75C368.499 822.569 303.082 847.176 249.196 881.346C233.102 891.544 218.001 902.5 204.607 914.814M1613.85 207.365C1592.38 192.574 1556.77 244.779 1390.08 245.885C1380.96 245.945 1371.86 245.722 1362.89 245.625C1331.87 245.36 1301.67 244.936 1273.86 247.079C1190.55 253.288 1132.99 273.41 1076.78 312.911C1040.91 338.111 1007.67 372.285 971.321 416.978C960.626 430.129 950.534 443.581 940.463 457.08C918.639 486.324 896.11 516.903 866.569 540.073C836.667 563.519 805.545 578.563 775.07 594.584C739.492 613.338 701.78 633.027 661.547 655.325C647.503 663.128 633.145 671.29 618.71 679.802C591.929 695.512 564.044 712.132 537.213 729.227C505.083 749.701 475.015 770.227 443.504 787.318C378.776 822.153 310.171 844.07 252.684 875.991C235.514 885.52 219.302 895.84 204.786 907.586M1611.55 202.831C1593.15 190.155 1561.07 246.195 1392.73 248.565C1383.72 248.693 1374.75 248.554 1365.9 248.513C1335.22 248.448 1305.46 248.106 1277.89 249.969C1195.2 255.381 1135.98 272.698 1078 311.071C1041.69 335.107 1007.63 368.264 970.648 412.503C959.855 425.41 949.677 438.62 939.57 451.893C917.676 480.655 895.484 510.703 867.357 534.438C838.892 558.455 809.472 575.313 780.473 592.944C746.613 613.58 710.748 634.927 672.187 658.26C658.722 666.423 644.931 674.866 630.986 683.57C605.14 699.628 577.92 716.281 551.202 733.032C519.22 753.095 488.432 772.769 455.89 788.874C389.04 821.728 317.243 840.951 256.156 870.629C237.912 879.487 220.586 889.174 204.958 900.353M1609.25 198.292C1593.91 187.728 1565.35 247.574 1395.38 251.239C1386.48 251.433 1377.63 251.381 1368.9 251.401C1338.56 251.535 1309.23 251.276 1281.93 252.865C1199.86 257.478 1139 272.018 1079.23 309.24C1042.48 332.127 1007.61 364.258 969.98 408.031C959.093 420.696 948.823 433.662 938.683 446.715C916.723 474.996 894.857 504.511 868.154 528.814C841.125 553.401 813.408 572.074 785.889 591.312C753.751 613.828 719.73 636.837 682.844 661.207C669.963 669.733 656.73 678.456 643.279 687.349C618.364 703.757 591.812 720.437 565.216 736.848C533.377 756.498 501.87 775.324 468.3 790.442C399.324 821.311 324.335 837.842 259.651 865.273C240.335 873.461 221.895 882.514 205.145 893.125M1606.95 193.758C1594.68 185.306 1569.62 248.919 1398.02 253.922C1389.24 254.178 1380.5 254.215 1371.9 254.294C1341.91 254.629 1313.02 254.449 1285.97 255.761C1204.51 259.574 1142.05 271.37 1080.47 307.406C1043.29 329.161 1007.6 360.25 969.316 403.562C958.339 415.983 947.975 428.707 937.803 441.538C915.773 469.335 894.24 498.318 868.955 523.188C843.367 548.349 817.344 568.831 791.306 589.681C760.886 614.078 728.708 638.749 693.498 664.152C681.2 673.04 668.529 682.041 655.564 691.128C631.585 707.884 605.697 724.593 579.214 740.665C547.519 759.906 515.297 777.876 480.699 792.012C409.602 820.9 331.421 834.738 263.136 859.92C242.743 867.439 223.192 875.857 205.321 885.9M1604.65 189.219C1595.45 182.879 1573.85 250.227 1400.66 256.594C1391.99 256.913 1383.38 257.04 1374.9 257.18C1345.24 257.714 1316.79 257.616 1290 258.651C1209.17 261.669 1145.12 270.752 1081.69 305.567C1044.1 326.205 1007.59 356.242 968.64 399.085C957.568 411.264 947.114 423.739 936.911 436.352C914.814 463.669 893.608 492.118 869.747 517.55C845.596 543.283 821.275 565.579 796.713 588.039C768.012 614.317 737.681 640.648 704.15 667.086C692.432 676.334 680.323 685.618 667.856 694.898C644.815 712.004 619.588 728.744 593.224 744.474C561.671 763.302 528.734 780.422 493.101 793.575C419.882 820.481 338.509 831.626 266.624 854.565C245.158 861.412 224.489 869.194 205.505 878.67M1602.34 184.682C1596.21 180.457 1578.07 251.501 1403.31 259.271C1394.74 259.65 1386.26 259.869 1377.91 260.068C1348.59 260.802 1320.58 260.786 1294.04 261.544C1213.82 263.764 1148.2 270.17 1082.92 303.733C1044.91 323.272 1007.58 352.247 967.972 394.613C956.813 406.55 946.261 418.781 936.027 431.172C913.86 458.005 892.987 485.922 870.543 511.921C847.829 538.224 825.211 562.335 802.125 586.405C775.146 614.562 746.658 642.554 714.799 670.028C703.664 679.639 692.117 689.2 680.141 698.672C658.031 716.128 633.472 732.894 607.229 748.285C575.824 766.702 542.163 782.971 505.503 795.137C430.158 820.059 345.597 828.514 270.111 849.204C247.568 855.383 225.789 862.529 205.688 871.44M1600.04 180.147C1596.97 178.035 1582.26 252.737 1405.95 261.953C1397.49 262.395 1389.14 262.704 1380.91 262.964C1351.93 263.895 1324.35 263.963 1298.07 264.445C1218.48 265.867 1151.31 269.635 1084.14 301.903C1045.72 320.362 1007.67 348.3 967.296 390.145C956.072 401.855 945.401 413.827 935.137 425.996C912.903 452.349 892.356 479.732 871.333 506.296C850.059 533.173 829.143 559.093 807.53 584.775C782.269 614.814 755.628 644.465 725.445 672.976C714.894 682.95 703.905 692.791 692.423 702.453C671.248 720.257 647.352 737.052 621.224 752.103C589.966 770.109 555.59 785.529 517.898 796.709C440.431 819.65 352.679 825.412 273.596 843.856C249.98 849.363 227.087 855.876 205.868 864.217M1597.74 175.608C1597.74 175.608 1586.43 253.935 1408.6 264.628C1230.76 275.321 1111.25 239.489 966.632 385.671C866.696 486.688 812.748 609.321 704.715 706.222C660.266 746.091 601.398 779.55 530.304 798.27C450.711 819.226 359.771 822.298 277.083 838.495C252.391 843.334 228.391 849.209 206.047 856.984" stroke="white" stroke-width="0.197078" stroke-miterlimit="10"/>
</svg>
