<svg width="6246" height="7588" viewBox="0 0 6246 7588" fill="none" xmlns="http://www.w3.org/2000/svg">
<path d="M5262.14 1.00149C5195.42 646.1 5100.59 1247.54 4939.21 1718.01C4886.89 1870.55 4827.13 2009.86 4742.84 2090.21C4570.96 2254.04 4308.77 2164.3 4093.35 2208.69C3819.75 2265.03 3622.1 2547.26 3522.03 3010.83C3446.75 3359.67 3394.87 3847.69 3232.31 4016.98C3084.64 4170.77 2708.4 3703.35 2477.28 3547.38C2240.56 3387.65 2041.46 3400.17 1905.35 3563.08C1834.05 3648.43 1779.7 3775.12 1746.27 3940.48C1714.3 4098.64 1731.94 4368.83 1572.37 4202.09C1519.63 4146.98 1464.29 4053.93 1410.07 3980.67C1221.65 3726.12 1054.59 3753.92 1044.16 4041.58M5256.72 22.2689C5198.52 673.075 5108.36 1279.05 4948.1 1747.63C4894.81 1903.87 4831.86 2040.52 4747.74 2127.07C4646.06 2230.97 4512.44 2246.09 4374.93 2251.14C4281.06 2254.61 4185.37 2253.36 4096.73 2272.38C3921.65 2310 3774.38 2430.52 3660.57 2622.85C3594.03 2735.32 3538.97 2872.41 3496.62 3032.54C3466.71 3144.57 3439.39 3272.05 3409.45 3397.22C3367.19 3572.84 3319.68 3743.75 3253.23 3864.49C3229.41 3907.96 3203.17 3944.96 3173.82 3973.05C3052.41 4088.91 2795.98 3839.52 2582.07 3663.96C2524.63 3616.62 2470.25 3574.58 2422.31 3546.3C2224.75 3428.61 2056.05 3436.38 1930.54 3553.87C1908.92 3574.08 1888.58 3597.55 1869.57 3624.22C1801.77 3719.28 1750.48 3854.62 1717.99 4025.06C1698.76 4126.03 1697.44 4267.76 1661.63 4323.63C1639.58 4358.03 1604.44 4359.38 1544.31 4299.66C1491.79 4247.47 1436.6 4158.69 1382.35 4088.53C1193.94 3844.56 1024.91 3870.76 1010.52 4156.01M5251.3 43.4919C5201.63 700.045 5116.11 1310.52 4956.97 1777.2C4902.71 1937.18 4836.58 2071.17 4752.61 2163.84C4651.39 2274.26 4518.23 2296.73 4380.38 2307.18C4286.25 2314.34 4189.92 2315.89 4100.06 2336C3922.53 2375.63 3770.41 2491.18 3649.53 2671.62C3578.85 2777.1 3518.95 2904.95 3471.16 3054.18C3437.21 3158.39 3405.68 3277.05 3371.56 3393.17C3323.28 3555.95 3269.75 3713.58 3198.71 3826.58C3173.33 3867.32 3145.74 3902.28 3115.27 3929.1C2988.84 4039.6 2734.35 3805.52 2523.98 3648.38C2467.53 3605.84 2414.3 3569.08 2367.31 3545.27C2174.47 3447.57 2011.3 3472.6 1891.71 3606.66C1871.11 3629.69 1851.8 3656.01 1833.76 3685.37C1769.45 3790.14 1721.21 3934.13 1689.71 4109.69C1671.05 4213.74 1669.18 4356.34 1633.12 4414.49C1610.89 4450.32 1575.66 4453.15 1516.25 4397.26C1463.91 4348.01 1408.91 4263.54 1354.63 4196.43C1166.23 3963.03 995.216 3987.65 976.861 4270.44M5245.89 64.7164C5204.73 726.982 5123.88 1342.03 4965.86 1806.78C4910.62 1970.46 4841.31 2101.78 4757.51 2200.66C4656.78 2317.62 4524.06 2347.4 4385.87 2363.25C4291.49 2374.15 4194.54 2378.5 4103.42 2399.62C3923.46 2441.28 3766.46 2551.83 3638.51 2720.34C3563.69 2818.88 3499.31 2938.21 3445.71 3075.77C3407.97 3172.66 3371.96 3281.96 3333.7 3389.07C3279.39 3539.01 3219.86 3683.36 3144.22 3788.59C3117.29 3826.6 3088.34 3859.51 3056.76 3885.09C2925.32 3990.24 2673.04 3772.7 2465.91 3632.71C2410.52 3595.26 2358.34 3563.29 2312.32 3544.1C2124.05 3465.6 1966.55 3508.7 1852.92 3659.37C1833.34 3685.24 1815.04 3714.33 1797.99 3746.43C1737.18 3860.9 1691.99 4013.54 1661.47 4194.21C1643.39 4301.35 1640.98 4444.83 1604.67 4505.26C1582.27 4542.55 1546.97 4546.9 1488.2 4494.73C1436.07 4448.46 1381.22 4368.21 1326.91 4304.16C1138.52 4081.34 965.528 4104.33 943.216 4384.74M5240.48 85.9837C5207.84 753.957 5131.64 1373.54 4974.77 1836.43C4918.56 2003.85 4846.34 2133.14 4762.42 2237.52C4662.48 2361.77 4529.91 2398.12 4391.37 2419.41C4296.75 2434 4199.17 2441.18 4106.81 2463.36C3924.41 2507.06 3762.57 2612.65 3627.53 2769.22C3548.58 2860.77 3479.44 2971.1 3420.31 3097.52C3378.6 3186.75 3338.3 3287.04 3295.89 3385.17C3235.56 3522.28 3170.02 3653.35 3089.77 3750.8C3061.28 3786.08 3030.97 3816.95 2998.29 3841.24C2861.84 3941.04 2611.59 3739.18 2407.87 3617.2C2353.49 3584.64 2302.41 3557.65 2257.37 3543.1C2073.7 3483.79 1921.86 3544.95 1814.14 3712.19C1795.57 3740.88 1778.29 3772.78 1762.23 3807.61C1704.92 3931.78 1662.78 4093.08 1633.22 4278.83C1615.71 4389.05 1612.76 4533.36 1576.2 4596.12C1553.64 4634.87 1518.25 4640.75 1460.17 4592.33C1408.23 4549.04 1353.57 4473.05 1299.22 4412.05C1110.83 4199.81 935.869 4221.21 909.598 4499.16M5235.06 107.203C5210.96 780.923 5139.42 1405.05 4983.64 1866C4926.46 2037.13 4851.13 2163.9 4767.29 2274.3C4667.9 2405.21 4535.71 2448.75 4396.83 2475.44C4301.96 2493.77 4203.76 2503.75 4110.14 2526.93C3925.31 2572.67 3758.61 2673.26 3616.5 2817.95C3533.41 2902.54 3459.49 3003.79 3394.86 3119.1C3349.16 3200.63 3304.83 3292.49 3258.02 3381.06C3191.99 3506.07 3119.8 3622.34 3035.26 3712.81C3005.1 3745.09 2973.56 3774.18 2939.74 3797.2C2798.28 3891.65 2550.07 3705.41 2349.78 3601.54C2296.42 3573.85 2246.42 3551.86 2202.36 3541.94C2023.24 3501.7 1877.1 3581.05 1775.3 3764.9C1757.77 3796.44 1741.5 3831.11 1726.41 3868.67C1672.61 4002.59 1633.51 4172.55 1604.92 4363.37C1587.98 4476.67 1584.49 4621.86 1547.68 4686.9C1524.96 4727.12 1489.48 4734.52 1432.09 4689.85C1380.34 4649.54 1325.86 4577.82 1271.48 4519.87C1083.11 4318.2 906.17 4338.02 875.928 4613.55M5229.65 128.47C5214.07 807.898 5147.19 1436.56 4992.54 1895.62C4934.4 2070.48 4855.92 2194.67 4772.2 2311.15C4673.34 2448.73 4541.53 2499.43 4402.32 2531.55C4307.19 2553.58 4208.37 2566.4 4113.52 2590.63C3926.25 2638.41 3754.71 2734.04 3605.5 2866.75C3518.26 2944.35 3439.57 3036.57 3369.43 3140.77C3319.75 3214.6 3271.18 3297.56 3220.18 3377.04C3148.16 3489.34 3069.88 3592.08 2980.79 3674.9C2949.06 3704.4 2916.18 3731.54 2881.24 3753.23C2734.77 3842.33 2488.61 3671.71 2291.71 3585.91C2239.38 3563.1 2190.46 3546.06 2147.39 3540.86C1972.85 3519.69 1832.38 3617.22 1736.5 3817.65C1719.98 3852 1704.72 3889.48 1690.61 3929.74C1640.32 4073.36 1604.27 4251.97 1576.64 4447.91C1560.28 4564.29 1556.25 4710.36 1519.18 4777.68C1496.31 4819.35 1460.72 4828.33 1404.02 4787.37C1352.46 4750.09 1298.16 4682.54 1243.75 4627.64C1055.39 4436.55 876.457 4454.74 842.284 4727.89M5224.22 149.693C5217.15 834.833 5154.94 1468.03 5001.41 1925.2C4942.29 2103.76 4860.66 2225.36 4777.07 2347.93C4678.73 2492.14 4547.32 2550.07 4407.76 2587.59C4312.4 2613.35 4212.95 2628.97 4116.83 2654.21C3927.14 2704.03 3750.73 2794.66 3594.45 2915.47C3503.1 2986.13 3419.6 3069.26 3343.96 3162.37C3290.27 3228.5 3237.46 3302.56 3182.3 3372.99C3104.27 3472.53 3019.93 3561.79 2926.27 3636.95C2892.98 3663.68 2858.74 3688.82 2822.69 3709.23C2671.19 3792.98 2427.09 3637.94 2233.61 3570.24C2182.28 3552.28 2134.45 3540.23 2092.36 3539.7C1922.38 3537.51 1787.59 3653.32 1697.65 3870.36C1682.14 3907.53 1667.92 3947.86 1654.79 3990.8C1607.99 4144.13 1574.99 4331.4 1548.33 4532.42C1532.54 4651.88 1527.96 4798.82 1490.65 4868.42C1467.6 4911.52 1431.93 4922.15 1375.91 4884.81C1324.53 4850.56 1270.42 4787.23 1215.98 4735.38C1027.62 4554.82 846.73 4571.47 808.573 4842.16M5218.81 170.912C5220.27 861.8 5162.72 1499.53 5010.31 1954.8C4950.23 2137.1 4865.45 2256.08 4781.98 2384.78C4684.16 2535.57 4553.16 2600.78 4413.28 2643.74C4317.66 2673.19 4217.59 2691.65 4120.22 2717.94C3928.09 2769.8 3746.82 2855.43 3583.47 2964.35C3487.97 3028.02 3399.65 3102.04 3318.56 3184.11C3260.85 3242.51 3203.83 3307.71 3144.49 3369.04C3060.47 3455.87 2970.06 3531.64 2871.82 3599.12C2836.95 3623.08 2801.38 3646.21 2764.21 3665.34C2607.71 3743.74 2365.65 3604.23 2175.57 3554.69C2125.25 3541.57 2078.52 3534.51 2037.41 3538.65C1871.96 3555.36 1742.9 3689.53 1658.9 3923.17C1644.42 3963.19 1631.21 4006.29 1619.05 4051.98C1575.75 4215.01 1545.79 4410.93 1520.11 4617.06C1504.88 4739.61 1499.76 4887.38 1462.21 4959.31C1438.99 5003.87 1403.24 5016.16 1347.91 4982.44C1296.72 4951.26 1242.78 4892.06 1188.32 4843.3C999.964 4673.32 817.096 4688.39 774.993 4956.66M5213.4 192.179C5223.37 888.775 5170.48 1531.04 5019.19 1984.42C4958.13 2170.43 4870.21 2286.81 4786.85 2421.61C4689.53 2578.98 4558.95 2651.47 4418.73 2699.82C4322.87 2733.01 4222.14 2754.23 4123.55 2781.56C3928.99 2835.47 3742.86 2916.13 3572.43 3013.08C3472.8 3069.8 3379.67 3134.7 3293.11 3205.75C3231.38 3256.41 3170.14 3312.75 3106.62 3364.99C3016.59 3439.06 2920.13 3501.39 2817.3 3561.18C2780.88 3582.37 2743.95 3603.49 2705.65 3621.34C2544.13 3694.39 2304.1 3570.39 2117.46 3539.07C2068.17 3530.79 2022.51 3528.69 1982.38 3537.55C1821.48 3573.11 1698.13 3725.67 1620.04 3975.9C1606.57 4018.73 1594.38 4064.64 1583.21 4113.05C1543.41 4285.78 1516.53 4490.4 1491.79 4701.61C1477.16 4827.24 1471.47 4975.89 1433.67 5050.1C1410.29 5096.12 1374.46 5110.07 1319.81 5079.97C1268.79 5051.86 1215.05 4996.84 1160.54 4951.09C972.204 4791.68 787.333 4805.13 741.272 5070.98M5207.99 213.404C5226.48 915.707 5178.26 1562.55 5028.08 2014C4966.06 2203.74 4874.98 2317.5 4791.75 2458.43C4694.94 2622.39 4564.79 2702.14 4424.2 2755.9C4328.08 2792.78 4226.75 2816.83 4126.91 2845.23C3929.91 2901.17 3738.92 2976.83 3561.42 3061.89C3457.63 3111.62 3359.68 3167.37 3267.67 3227.42C3201.91 3270.31 3136.46 3317.83 3068.77 3361.01C2972.71 3422.3 2870.23 3471.22 2762.84 3523.35C2724.85 3541.77 2686.57 3560.89 2647.17 3577.46C2480.64 3645.16 2242.63 3536.61 2059.41 3523.53C2011.13 3520.09 1966.55 3522.93 1927.41 3536.51C1771.03 3590.85 1653.41 3761.89 1581.25 4028.73C1568.8 4074.41 1557.62 4123.09 1547.45 4174.24C1511.15 4356.67 1487.3 4569.95 1463.55 4786.23C1449.48 4914.94 1443.26 5064.46 1405.21 5140.96C1381.66 5188.44 1345.76 5204.09 1291.78 5177.57C1240.96 5152.57 1187.43 5101.89 1132.85 5058.99C944.683 4911.03 757.688 4922.01 707.657 5185.44M5202.56 234.627C5229.58 942.682 5186 1594.02 5036.96 2043.57C4973.95 2237.01 4879.72 2348.15 4796.63 2495.2C4700.31 2665.71 4570.59 2752.78 4429.66 2811.93C4333.3 2852.55 4231.34 2879.4 4130.24 2908.8C3930.81 2966.78 3734.95 3037.45 3550.38 3110.61C3442.47 3153.39 3339.66 3199.95 3242.22 3249.01C3172.43 3284.13 3102.75 3322.78 3030.91 3356.91C2928.83 3405.4 2820.33 3440.95 2708.34 3485.36C2668.78 3501.05 2629.16 3518.12 2588.62 3533.42C2417.07 3595.76 2181.09 3502.62 2001.3 3507.82C1954.03 3509.18 1910.53 3516.98 1872.4 3535.35C1720.5 3608.38 1608.63 3797.99 1542.41 4081.4C1530.98 4129.89 1520.83 4181.42 1511.62 4235.26C1478.82 4427.4 1458.02 4649.33 1435.24 4870.73C1421.75 5002.52 1414.97 5152.88 1376.69 5231.69C1352.99 5280.64 1317 5298.03 1263.68 5275.01C1213.06 5253.17 1159.71 5206.57 1105.08 5166.68C916.931 5029.3 727.947 5038.7 673.971 5299.71M5197.15 255.894C5232.69 969.656 5193.78 1625.57 5045.86 2073.23C4981.89 2270.41 4884.48 2378.88 4801.54 2532.11C4705.71 2709.16 4576.41 2803.5 4435.15 2868.09C4338.54 2912.4 4235.96 2942.09 4133.62 2972.54C3931.75 3032.57 3731.05 3098.27 3539.39 3159.5C3427.33 3195.29 3319.69 3232.69 3216.8 3270.77C3142.97 3298.11 3069.07 3327.9 2993.06 3352.98C2884.95 3388.68 2770.44 3410.86 2653.86 3447.53C2612.74 3460.45 2571.77 3475.53 2530.13 3489.57C2353.58 3546.57 2119.59 3468.81 1943.28 3492.36C1897.02 3498.51 1854.59 3511.26 1817.46 3534.39C1670.04 3626.08 1563.95 3834.28 1503.65 4134.3C1493.25 4185.65 1484.1 4239.95 1475.88 4296.53C1446.59 4498.41 1428.83 4728.95 1407.02 4955.47C1394.11 5090.35 1386.79 5241.58 1348.25 5322.67C1324.37 5373.04 1288.32 5392.22 1235.67 5372.73C1185.26 5354.08 1132.07 5311.54 1077.41 5274.7C889.291 5147.93 698.303 5155.66 640.356 5414.26M5191.74 277.114C5235.79 996.584 5200.73 1655.4 5054.75 2102.8C4989.45 2302.95 4889.21 2409.49 4806.43 2568.88C4711.07 2752.44 4582.23 2854.13 4440.64 2924.16C4343.78 2972.2 4240.56 3004.69 4136.97 3036.15C3932.68 3098.22 3727.11 3158.91 3528.38 3208.22C3412.19 3237.05 3299.67 3265.18 3191.36 3292.35C3113.49 3311.88 3035.36 3332.81 2955.23 3348.91C2841.08 3371.82 2720.57 3380.63 2599.38 3409.58C2556.71 3419.76 2514.37 3432.8 2471.62 3445.56C2290.04 3497.21 2058.05 3434.78 1885.2 3476.68C1839.94 3487.63 1798.59 3505.34 1762.46 3533.22C1619.5 3643.53 1519.2 3870.38 1464.83 4186.96C1455.43 4241.13 1447.31 4298.24 1440.08 4357.54C1414.29 4569.13 1399.58 4808.33 1378.73 5039.92C1366.39 5177.88 1358.53 5329.99 1319.74 5413.37C1295.69 5465.19 1259.59 5486.15 1207.6 5470.16C1157.4 5454.71 1104.38 5416.21 1049.69 5382.42C861.604 5266.27 668.614 5272.38 606.722 5528.55M5186.31 298.342C5238.9 1023.56 5208.48 1686.87 5063.62 2132.38C4997.33 2336.23 4893.93 2440.1 4811.29 2605.66C4716.41 2795.73 4588.02 2904.78 4446.09 2980.2C4348.97 3031.94 4245.14 3067.26 4140.3 3099.78C3933.55 3163.84 3723.16 3219.62 3517.33 3256.99C3397 3278.84 3279.61 3297.74 3165.9 3313.99C3083.95 3325.67 3001.64 3337.82 2917.34 3344.86C2797.15 3354.94 2670.66 3350.46 2544.85 3371.64C2500.62 3379.09 2456.95 3390.12 2413.06 3401.57C2226.48 3447.86 1996.48 3400.76 1827.08 3461.03C1782.82 3476.78 1742.56 3499.43 1707.42 3532.08C1568.89 3660.92 1474.42 3906.48 1425.98 4239.68C1417.6 4296.66 1410.5 4356.58 1404.25 4418.62C1381.96 4639.91 1370.3 4887.8 1350.42 5124.47C1338.63 5265.47 1330.24 5418.46 1291.2 5504.16C1267 5557.45 1230.84 5580.23 1179.5 5567.69C1129.52 5555.48 1076.66 5520.94 1021.92 5490.21C833.856 5384.62 638.89 5389.15 573.014 5642.87M5180.91 319.6C5242.01 1050.53 5216.27 1718.41 5072.52 2161.98C5005.26 2369.54 4898.67 2470.75 4816.21 2642.51C4721.8 2839.09 4593.86 2955.49 4451.59 3036.31C4354.22 3091.78 4249.77 3129.9 4143.68 3163.43C3934.51 3229.53 3719.24 3280.31 3506.34 3305.79C3381.88 3320.68 3259.61 3330.31 3140.48 3335.65C3054.5 3339.52 2967.96 3342.8 2879.51 3340.83C2753.26 3338.04 2620.79 3320.31 2490.39 3333.72C2444.61 3338.44 2399.57 3347.43 2354.57 3357.59C2162.97 3398.54 1934.94 3366.69 1769.02 3445.39C1725.76 3465.9 1686.57 3493.51 1652.46 3530.99C1518.35 3678.32 1429.7 3942.65 1387.2 4292.46C1379.84 4352.29 1373.76 4415.02 1368.49 4479.75C1349.7 4710.74 1341.1 4967.29 1322.18 5209.08C1310.97 5353.16 1302.04 5507.02 1262.75 5595.01C1238.38 5649.76 1202.17 5674.4 1151.47 5665.28C1101.71 5656.31 1049 5625.78 994.231 5598.1C806.184 5503.09 609.217 5505.99 539.409 5757.33M5175.49 340.828C5245.1 1077.47 5224.84 1751.53 5081.39 2191.56C5013.53 2403.63 4903.38 2501.37 4821.08 2679.3C4727.13 2882.38 4599.66 3006.13 4457.03 3092.35C4359.42 3151.51 4254.34 3192.44 4147 3227.05C3935.39 3295.2 3715.27 3340.97 3495.3 3354.52C3366.69 3362.43 3239.55 3362.78 3115.01 3357.25C3024.95 3353.22 2934.21 3347.73 2841.64 3336.78C2709.35 3321.15 2570.89 3290.14 2435.87 3295.78C2388.54 3297.77 2342.13 3304.72 2296.02 3313.6C2099.41 3349.19 1873.34 3332.6 1710.92 3429.77C1668.67 3455.08 1630.53 3487.61 1597.45 3529.88C1467.73 3695.67 1384.94 3978.8 1348.35 4345.18C1342.02 4407.82 1336.94 4473.36 1332.66 4540.82C1317.37 4781.52 1311.81 5046.73 1293.86 5293.59C1283.21 5440.76 1273.74 5595.49 1234.22 5685.75C1209.68 5741.92 1173.44 5768.48 1123.36 5762.73C1073.84 5757.03 1021.2 5730.18 966.463 5705.84C778.196 5620.46 579.491 5622.72 505.699 5871.6M5170.06 362.057C5248.21 1104.44 5232.61 1783.04 5090.28 2221.18C5021.46 2436.94 4908.13 2532.02 4825.98 2716.16C4732.5 2925.71 4605.48 3056.81 4462.54 3148.5C4364.68 3211.41 4258.96 3255.13 4150.37 3290.75C3936.34 3360.94 3711.35 3401.75 3484.3 3403.37C3351.56 3404.32 3219.53 3395.36 3089.58 3378.96C2995.46 3367.08 2900.52 3352.73 2803.79 3332.8C2665.45 3304.31 2521.02 3260.04 2381.4 3257.91C2332.52 3257.17 2284.75 3262.07 2237.52 3269.68C2035.89 3299.92 1811.75 3298.5 1652.87 3414.19C1611.6 3444.26 1574.53 3481.69 1542.48 3528.8C1417.13 3713.02 1340.22 4014.97 1309.56 4397.97C1304.25 4463.46 1300.19 4531.77 1296.87 4601.93C1285.09 4852.33 1282.58 5126.19 1265.6 5378.18C1255.53 5528.42 1245.5 5683.99 1205.74 5776.57C1181.03 5834.2 1144.76 5862.66 1095.32 5860.29C1046.05 5857.91 993.52 5834.94 938.748 5813.65C750.499 5738.85 549.806 5739.53 472.056 5985.99M5164.66 383.32C5251.33 1131.41 5240.39 1814.55 5099.19 2250.79C5029.4 2470.3 4912.86 2562.63 4830.89 2752.97C4737.86 2968.99 4611.31 3107.48 4468.02 3204.58C4369.91 3271.17 4263.58 3317.73 4153.75 3354.41C3937.28 3426.63 3707.43 3462.44 3473.32 3452.16C3336.43 3446.13 3199.53 3427.85 3064.19 3400.62C2965.99 3380.85 2866.85 3357.71 2765.98 3328.77C2621.57 3287.37 2471.19 3229.93 2326.96 3220.03C2276.52 3216.56 2227.4 3219.42 2179.04 3225.75C1972.39 3250.64 1750.19 3264.4 1594.83 3398.59C1554.54 3433.38 1518.54 3475.77 1487.52 3527.71C1366.51 3730.28 1295.51 4051.14 1270.78 4450.71C1266.47 4519.01 1263.44 4590.14 1261.11 4663.02C1252.83 4923.13 1253.38 5205.68 1237.36 5462.7C1227.86 5616.03 1217.29 5772.47 1177.28 5867.34C1152.41 5926.43 1116.14 5956.83 1067.29 5957.8C1018.28 5958.77 965.865 5939.7 911.058 5921.46C722.801 5857.19 520.144 5856.28 438.45 6100.36M5159.24 404.543C5254.43 1158.34 5248.14 1846.01 5108.06 2280.37C5037.29 2503.57 4917.54 2593.21 4835.75 2789.8C4743.18 3012.29 4617.1 3158.17 4473.47 3260.66C4375.11 3330.99 4268.16 3380.34 4157.07 3418.03C3938.17 3492.29 3703.46 3523.15 3462.25 3500.89C3321.24 3487.91 3179.43 3460.28 3038.7 3422.22C2936.44 3394.55 2833.08 3362.6 2728.08 3324.72C2577.62 3270.44 2421.28 3199.8 2272.43 3182.09C2220.44 3175.89 2169.95 3176.71 2120.48 3181.75C1908.83 3201.29 1688.55 3230.22 1536.72 3382.97C1497.41 3422.52 1462.49 3469.82 1432.49 3526.6C1315.81 3747.51 1250.72 4087.29 1231.94 4503.46C1228.66 4574.62 1226.64 4648.55 1225.29 4724.13C1220.52 4993.98 1224.1 5285.15 1209.06 5547.29C1200.13 5703.7 1189.03 5861.01 1148.77 5958.2C1123.74 6018.76 1087.46 6051.1 1039.22 6055.4C990.461 6059.74 938.159 6044.5 883.33 6029.36C695.092 5975.67 490.447 5973.18 404.781 6214.8M5153.82 425.762C5257.54 1185.31 5255.9 1877.52 5116.95 2309.94C5045.21 2536.88 4922.26 2623.77 4840.64 2826.57C4748.52 3055.53 4622.91 3208.8 4478.95 3316.68C4380.33 3390.71 4272.76 3442.9 4160.43 3481.64C3939.09 3557.94 3699.53 3583.79 3451.25 3549.65C3306.09 3529.68 3159.42 3492.73 3013.28 3443.84C2906.95 3408.28 2799.39 3367.5 2690.25 3320.65C2533.72 3253.46 2371.43 3169.65 2217.95 3144.13C2164.41 3135.24 2112.57 3133.97 2061.97 3137.74C1845.29 3151.93 1626.91 3196 1478.64 3367.3C1440.31 3411.57 1406.45 3463.82 1377.51 3525.47C1265.15 3764.74 1206 4123.41 1193.13 4556.16C1190.86 4630.13 1189.88 4706.87 1189.49 4785.19C1188.21 5064.75 1194.86 5364.57 1180.78 5631.82C1172.44 5791.31 1160.77 5949.46 1120.28 6048.98C1095.08 6111 1058.8 6145.32 1011.15 6152.87C962.667 6160.6 910.464 6149.22 855.586 6137.09C667.353 6093.98 460.745 6089.89 371.121 6329.09M5148.41 447.029C5260.65 1212.29 5263.67 1909.03 5125.84 2339.6C5053.13 2570.24 4926.96 2654.39 4845.55 2863.47C4753.87 3098.86 4628.75 3259.56 4484.45 3372.88C4385.6 3450.64 4277.38 3505.64 4163.8 3545.38C3940.03 3623.72 3695.6 3644.58 3440.25 3598.54C3290.97 3571.62 3139.38 3525.27 2987.85 3465.6C2877.46 3422.14 2765.69 3372.54 2652.4 3316.72C2489.83 3236.61 2321.56 3139.65 2163.46 3106.31C2108.37 3094.69 2055.16 3091.38 2003.45 3093.86C1781.77 3102.7 1565.27 3161.88 1420.56 3351.76C1383.22 3400.79 1350.41 3457.96 1322.52 3524.44C1214.44 3781.98 1161.26 4159.64 1154.31 4609C1153.07 4685.82 1153.09 4765.34 1153.7 4846.38C1155.92 5135.65 1165.6 5444.12 1152.5 5716.45C1144.73 5879.02 1132.52 6038.05 1091.77 6139.85C1066.41 6203.28 1030.14 6239.63 983.075 6250.49C934.878 6261.61 882.748 6254.04 827.86 6244.99C639.633 6212.46 431.049 6206.79 337.454 6443.53M5142.99 468.252C5263.74 1239.22 5271.43 1940.54 5134.72 2369.17C5061.05 2603.55 4931.67 2684.96 4850.43 2900.25C4759.17 3142.07 4634.56 3310.19 4489.91 3428.92C4390.8 3510.37 4281.96 3568.16 4167.14 3609C3940.93 3689.38 3691.67 3705.27 3429.22 3647.26C3275.78 3613.35 3119.32 3557.65 2962.4 3487.19C2847.93 3435.79 2731.95 3377.42 2614.54 3312.66C2445.91 3219.64 2271.69 3109.54 2108.97 3068.36C2052.33 3054.05 1997.76 3048.69 1944.94 3049.89C1718.23 3053.38 1503.62 3127.62 1362.5 3336.13C1326.12 3389.88 1294.37 3451.97 1267.53 3523.32C1163.73 3799.13 1116.52 4195.77 1115.52 4661.74C1115.3 4741.37 1116.32 4823.7 1117.93 4907.48C1123.64 5206.44 1136.38 5523.58 1124.25 5801.02C1117.05 5966.68 1104.29 6126.58 1063.3 6230.66C1037.77 6295.56 1001.53 6333.92 955.044 6348.04C907.137 6362.59 855.092 6358.83 800.156 6352.8C611.947 6330.84 401.36 6323.55 303.833 6557.9M5137.57 489.477C5266.86 1266.19 5279.2 1972.01 5143.6 2398.75C5068.95 2636.83 4935.95 2714.66 4855.3 2937.03C4764.04 3184.36 4640.35 3360.79 4495.37 3484.95C4396.01 3570.14 4286.55 3630.73 4170.48 3672.58C3941.85 3755 3687.71 3765.89 3418.19 3695.98C3260.63 3655.13 3099.26 3590.02 2936.94 3508.78C2818.41 3449.44 2698.23 3382.29 2576.68 3308.56C2402 3202.62 2222.05 3080.26 2054.47 3030.37C1996.35 3013.61 1940.35 3005.93 1886.41 3005.85C1654.7 3003.98 1441.95 3093.33 1304.42 3320.46C1269.01 3378.94 1238.34 3445.97 1212.53 3522.16C1113 3816.25 1071.76 4231.87 1076.69 4714.41C1077.47 4796.86 1079.55 4882.03 1082.11 4968.51C1091.32 5277.18 1107.12 5603 1095.94 5885.52C1089.32 6054.26 1076.02 6215 1034.78 6321.4C1009.09 6387.76 972.874 6428.15 926.962 6445.52C879.346 6463.51 827.386 6463.56 772.414 6460.58C584.212 6449.19 371.662 6440.31 270.164 6672.26M5132.16 510.744C5269.96 1293.17 5286.96 2003.52 5152.5 2428.36C5076.88 2670.18 4940.7 2745.35 4860.21 2973.89C4769.42 3227.73 4646.18 3411.51 4500.86 3541.07C4401.24 3629.96 4291.17 3693.38 4173.85 3736.28C3942.78 3820.74 3683.79 3826.66 3407.2 3744.83C3245.49 3696.98 3079.25 3622.52 2911.53 3530.49C2788.92 3463.22 2664.43 3386.75 2538.85 3304.58C2357.96 3184.98 2172.17 3050.12 2000 2992.5C1940.33 2973.01 1882.97 2963.28 1827.9 2961.92C1591.17 2954.71 1380.29 3059.12 1246.35 3304.88C1211.91 3368.07 1182.29 3440.03 1157.57 3521.12C1062.29 3833.45 1027.06 4268.08 1037.91 4767.24C1039.72 4852.54 1042.8 4940.48 1046.35 5029.69C1059.06 5348.06 1077.91 5682.54 1067.7 5970.14C1061.65 6141.96 1047.81 6303.57 1006.32 6412.26C980.456 6480.08 944.269 6522.49 898.908 6543.08C851.608 6564.54 799.693 6568.32 744.7 6568.44C556.516 6567.62 341.963 6557.12 236.508 6786.65M5126.75 531.963C5273.06 1320.1 5294.74 2035.02 5161.4 2457.97C5084.8 2703.49 4945.44 2775.99 4865.11 3010.7C4774.81 3271.09 4652.01 3462.18 4506.36 3597.18C4406.51 3689.79 4295.79 3756.02 4177.22 3799.93C3943.7 3886.43 3679.86 3887.36 3396.2 3793.63C3230.36 3738.83 3059.21 3654.93 2886.1 3552.16C2759.42 3476.94 2630.74 3391.74 2501 3300.6C2314.06 3168.13 2122.29 3020.02 1945.51 2954.63C1884.28 2932.41 1825.57 2920.64 1769.39 2918C1527.65 2905.43 1318.6 3024.88 1188.27 3289.29C1154.8 3357.21 1126.23 3434.08 1102.57 3520.04C1011.53 3850.62 982.308 4304.26 999.076 4819.99C1001.91 4908.1 1005.99 4998.86 1010.54 5090.79C1026.76 5418.87 1048.64 5762.01 1039.42 6054.72C1033.94 6229.62 1019.56 6392.11 977.82 6503.08C951.797 6572.36 915.65 6616.83 870.852 6640.64C823.883 6665.61 772.013 6673.12 716.97 6676.25C528.792 6686.01 312.276 6673.93 202.863 6901.03M5121.32 553.186C5276.17 1347.07 5302.49 2066.49 5170.27 2487.54C5092.7 2736.81 4950.15 2806.61 4869.99 3047.52C4780.15 3314.42 4657.81 3512.86 4511.82 3653.25C4411.72 3749.61 4300.38 3818.63 4180.57 3863.58C3944.63 3952.13 3675.92 3948.05 3385.18 3842.39C3215.19 3780.61 3039.18 3687.34 2860.66 3573.78C2729.91 3490.63 2597.05 3396.73 2463.15 3296.54C2270.19 3151.23 2072.4 2989.84 1891.05 2916.72C1828.26 2891.76 1768.18 2877.95 1710.88 2874.03C1464.13 2856.11 1256.93 2990.63 1130.22 3273.66C1097.7 3346.3 1070.19 3428.08 1047.59 3518.91C960.78 3867.69 937.585 4340.39 960.281 4872.73C964.134 4963.69 969.241 5057.22 974.77 5151.89C994.497 5489.71 1019.43 5841.46 1011.17 6139.29C1006.27 6317.28 991.333 6480.59 949.351 6593.89C923.161 6664.59 887.082 6711.19 842.821 6738.19C796.169 6766.63 744.344 6777.88 689.279 6784.09C501.107 6804.44 282.615 6790.76 169.23 7015.4M5115.91 574.453C5279.28 1374.04 5310.27 2098.04 5179.16 2517.16C5100.62 2770.13 4954.88 2837.26 4874.88 3084.34C4785.52 3357.75 4663.63 3563.54 4517.28 3709.33C4416.93 3809.38 4304.97 3881.24 4183.91 3927.25C3945.52 4017.79 3671.97 4008.79 3374.15 3891.2C3200.03 3822.47 3018.98 3719.1 2835.22 3595.5C2700.31 3503.91 2563.36 3401.77 2425.29 3292.56C2226.3 3134.42 2022.5 2959.71 1836.55 2878.86C1772.2 2851.17 1710.78 2835.32 1652.36 2830.11C1400.59 2806.84 1194.69 2955.28 1072.14 3258.12C1040.45 3335.18 1014.13 3422.19 992.593 3517.88C910.007 3884.91 892.828 4376.62 921.464 4925.52C926.325 5019.3 932.467 5115.68 938.963 5213.04C962.19 5560.57 990.161 5920.97 982.872 6223.88C978.525 6404.91 963.06 6569.14 920.832 6684.71C894.478 6756.88 858.451 6805.54 814.728 6835.76C768.433 6867.75 716.628 6882.69 661.527 6891.96C473.373 6922.88 252.892 6907.58 135.563 7129.84M5110.5 595.678C5282.38 1400.98 5318.03 2129.52 5188.04 2546.74C5108.54 2803.44 4959.62 2867.92 4879.78 3121.16C4790.88 3401.08 4669.43 3614.18 4522.76 3765.41C4422.16 3869.19 4309.58 3943.85 4187.25 3990.87C3946.43 4083.46 3668.02 4069.46 3363.12 3939.97C3184.87 3864.25 2998.97 3751.63 2809.77 3617.14C2670.82 3517.69 2529.65 3406.72 2387.45 3288.55C2182.43 3117.57 1972.61 2929.58 1782.06 2840.95C1716.15 2810.5 1653.37 2792.64 1593.84 2786.15C1337.06 2757.53 1133.09 2921.23 1014.06 3242.5C983.364 3324.36 957.926 3415.94 937.607 3516.76C858.609 3900.87 848.095 4412.76 882.66 4978.27C888.555 5074.9 895.692 5174.05 903.168 5274.11C929.894 5631.33 960.934 6000.44 954.598 6308.42C950.824 6492.53 934.824 6657.64 892.339 6775.5C865.82 6849.12 829.859 6899.88 786.66 6933.24C740.707 6968.74 688.921 6987.37 633.798 6999.69C445.65 7041.19 223.192 7024.3 101.905 7244.15M5105.08 616.907C5285.48 1427.96 5325.78 2160.99 5196.92 2576.32C5116.44 2836.72 4964.34 2898.53 4884.64 3157.94C4796.23 3444.41 4675.24 3664.82 4528.21 3821.45C4427.36 3928.93 4314.13 4006.38 4190.6 4054.49C3947.34 4149.12 3664.06 4130.12 3352.09 3988.7C3169.7 3906.02 2978.95 3784.13 2784.32 3638.73C2641.33 3531.46 2495.95 3411.68 2349.57 3284.45C2138.53 3100.64 1922.71 2899.36 1727.55 2802.96C1660.08 2769.78 1595.95 2749.88 1535.3 2742.11C1273.51 2708.14 1071.47 2887.14 955.955 3226.8C926.241 3313.41 901.865 3409.95 882.593 3515.61C807.994 3918.31 803.321 4448.81 843.815 5030.95C850.718 5130.39 858.888 5232.34 867.345 5335.13C897.571 5702.07 931.655 6079.82 926.297 6392.92C923.095 6580.12 906.535 6746.06 863.818 6866.24C837.134 6941.33 801.253 6994.17 758.578 7030.72C712.982 7069.77 661.215 7092.1 606.056 7107.47C417.913 7159.5 193.493 7141.07 68.2345 7358.45M5099.68 638.165C5288.6 1454.92 5333.57 2192.53 5205.83 2605.97C5124.38 2870.11 4969.08 2929.22 4889.55 3194.8C4801.61 3487.77 4681.07 3715.54 4533.71 3877.6C4432.61 3988.81 4318.76 4069.07 4193.96 4118.19C3948.27 4214.85 3660.15 4190.89 3341.09 4037.54C3154.55 3947.87 2958.95 3816.75 2758.88 3660.44C2611.85 3545.32 2462.25 3416.72 2311.71 3280.48C2094.65 3083.82 1872.79 2869.23 1673.05 2765.1C1604.03 2729.18 1538.55 2707.28 1476.77 2698.19C1209.96 2658.87 1009.87 2853.18 897.877 3211.25C869.158 3302.67 845.859 3404.16 827.594 3514.57C757.381 3935.87 758.575 4485.04 804.997 5083.78C812.909 5186.04 822.1 5290.8 831.55 5396.32C865.276 5772.96 902.402 6159.37 898.009 6477.55C895.38 6667.82 878.286 6834.64 835.312 6957.1C808.463 7033.65 772.782 7088.9 730.497 7128.33C685.38 7171.23 633.496 7196.91 578.316 7215.38C390.178 7277.98 163.783 7257.96 34.5658 7472.93M5094.25 659.393C5291.7 1481.86 5341.32 2224 5214.71 2635.54C5132.28 2903.39 4973.81 2959.83 4894.44 3231.62C4806.97 3531.1 4686.88 3766.22 4539.18 3933.68C4238.33 4274.8 3821.89 4335.53 3330.07 4086.31C2999.24 3918.66 2639.02 3619.29 2273.86 3276.41C2050.76 3066.93 1822.92 2839.05 1618.57 2727.15C1242.91 2521.43 973.41 2732.05 839.81 3195.58C706.209 3659.12 700.129 4359.99 766.204 5136.48C826.145 5841.11 942.538 6656.11 806.843 7047.87C651.645 7495.91 209.504 7254.32 0.933206 7587.23M6245.19 5888.75C5901.65 4878.67 5442.67 3905.12 4972.83 3189.97C4839.16 2986.52 4699.68 2798.24 4581.13 2727.75C4238.62 2524.14 4186.55 3219.97 4099.28 3633.12C3993.95 4131.66 3898.38 4649.5 3760.22 5085.63C3682.65 5330.49 3569.27 5553.19 3348.67 5366.24C3125.28 5176.9 2883.64 4648.84 2661.48 4192.65C2402.61 3661.08 2124.74 3157.94 1848.7 2803.21C1572.65 2448.48 1298.06 2255.95 1133.95 2379.14C1005.43 2475.62 953.119 2752.15 921.578 3051.94C838.723 3839.66 880.39 4835.11 1042.76 5947.05M6238.19 5842.62C5934.57 4949.9 5535.84 4107.98 5103.31 3414.25C5063.14 3349.82 5022.89 3286.69 4982.56 3225.67C4850.02 3025.21 4712.03 2839.41 4594.43 2767.8C4254.2 2560.33 4195.14 3222.82 4103.86 3623.39C4022.95 3978.52 3949.03 4349.89 3858.42 4693.47C3827.12 4813.07 3794.01 4929.19 3758.19 5040.15C3680.48 5280.82 3568.35 5500.62 3352.51 5324.13C3133.95 5145.4 2897.79 4638.98 2680.38 4201.89C2427.05 3692.61 2155.2 3210.5 1884.69 2871.06C1790.51 2752.88 1696.45 2653.61 1606.94 2579.5C1439.42 2440.73 1287.8 2389.9 1181.29 2467.94C1053.35 2561.68 998.738 2828.4 963.873 3116.01C893.165 3697.91 892.765 4392.86 963.012 5171.26C983.963 5403.53 1011.2 5643.17 1044.79 5889.5M6231.19 5796.55C5937.69 4933.58 5550.3 4141.67 5111.88 3446.84C5072.09 3383.79 5032.24 3321.5 4992.31 3261.45C4860.89 3064.03 4724.4 2880.68 4607.72 2807.89C4269.75 2596.55 4203.74 3225.73 4108.46 3613.75C4024.76 3954.59 3949.59 4317.14 3857.01 4654.68C3825.38 4771.79 3792.06 4885.72 3756.17 4994.76C3678.33 5231.29 3567.43 5448.15 3356.36 5282.1C3142.63 5113.94 2911.95 4629.17 2699.32 4211.22C2451.52 3724.22 2185.66 3263.16 1920.73 2939.03C1828.48 2826.19 1736.28 2731.5 1648.45 2661.01C1484.07 2528.93 1334.72 2481.09 1228.69 2556.87C1101.34 2647.91 1044.43 2904.77 1006.21 3180.16C928.593 3737.24 917.771 4397.29 976.089 5142.62C993.485 5365.02 1017.02 5594.93 1046.87 5832.03M6224.19 5750.43C5940.8 4917.23 5564.82 4175.3 5120.44 3479.38C5081.01 3417.62 5041.58 3356.22 5002.07 3297.19C4871.78 3102.77 4736.78 2921.95 4621.04 2847.98C4285.37 2632.79 4212.43 3228.66 4113.07 3604.07C4026.64 3930.65 3949.48 4283.02 3855.63 4615.89C3823.45 4730.08 3790.14 4842.24 3754.19 4949.37C3676.2 5181.71 3566.54 5395.67 3360.25 5240.07C3151.35 5082.47 2926.15 4619.39 2718.28 4220.53C2476.02 3755.83 2216.17 3315.81 1956.79 3006.96C1866.46 2899.47 1776.14 2809.35 1689.96 2742.44C1528.72 2617.04 1381.66 2572.19 1276.11 2645.74C1149.34 2734.09 1090.12 2981.1 1048.56 3244.26C964.033 3776.58 942.79 4401.67 989.192 5113.97C1003.03 5326.5 1022.88 5546.68 1049 5774.59M6217.18 5704.35C5943.92 4900.91 5579.38 4208.86 5128.99 3511.96C5089.94 3451.54 5050.89 3390.99 5011.8 3332.97C4882.64 3141.59 4749.13 2963.21 4634.32 2888.07C4300.95 2669.03 4221.13 3231.66 4117.65 3594.43C4028.54 3906.82 3949.8 4249.85 3854.21 4577.1C3821.63 4688.68 3788.19 4798.77 3752.16 4903.98C3674.04 5132.17 3565.63 5343.22 3364.09 5198.04C3160.03 5051.06 2940.31 4609.62 2737.19 4229.86C2500.45 3787.45 2246.61 3368.43 1992.78 3074.89C1904.38 2972.71 1815.94 2887.2 1731.42 2823.87C1573.33 2705.2 1428.54 2663.34 1323.44 2734.59C1197.24 2820.21 1135.73 3057.4 1090.83 3308.34C999.394 3815.84 967.73 4406.02 1002.19 5085.25C1012.47 5287.93 1028.62 5498.38 1051 5717.06M6210.17 5658.25C5947.04 4884.56 5593.97 4242.35 5137.55 3544.51C5098.87 3485.39 5060.23 3425.77 5021.55 3368.71C4893.51 3180.33 4761.49 3004.44 4647.63 2928.17C4316.54 2705.28 4229.9 3234.69 4122.25 3584.8C4030.53 3883.1 3950.18 4216.73 3852.82 4538.35C3819.85 4647.33 3786.27 4755.34 3750.18 4858.64C3671.91 5082.64 3564.75 5290.79 3367.98 5156.06C3168.74 5019.64 2954.52 4599.89 2756.14 4239.23C2524.93 3819.07 2277.11 3421.13 2028.83 3142.91C1942.36 3046.08 1855.79 2965.14 1772.92 2905.39C1617.99 2793.41 1475.46 2754.54 1370.86 2823.57C1245.25 2906.49 1181.45 3133.85 1133.2 3372.57C1034.86 3855.31 992.766 4410.53 1015.31 5056.73C1022.03 5249.55 1034.48 5450.27 1053.13 5659.71M6203.17 5612.12C5950.16 4868.19 5608.6 4275.67 5146.1 3577C5107.8 3519.17 5069.55 3460.44 5031.28 3404.41C4904.39 3219.07 4773.84 3045.62 4660.91 2968.18C4332.1 2741.44 4238.7 3237.66 4126.82 3575.03C4032.55 3859.33 3950.52 4183.47 3851.38 4499.44C3818.01 4605.8 3784.29 4711.75 3748.12 4813.08C3669.73 5032.94 3563.8 5238.14 3371.79 5113.87C3177.37 4988.02 2968.64 4589.95 2775.01 4248.39C2549.34 3850.52 2307.54 3473.62 2064.8 3210.68C1980.26 3119.19 1895.56 3042.83 1814.36 2986.7C1662.55 2881.4 1522.32 2845.52 1418.18 2912.29C1293.15 2992.51 1227.04 3210.02 1175.46 3436.52C1070.21 3894.44 1017.69 4414.76 1028.31 5027.89C1031.46 5210.84 1040.22 5401.83 1055.14 5602.04M6196.17 5566.05C5953.27 4851.88 5623.26 4308.99 5154.65 3609.59C5116.73 3553.01 5078.87 3495.21 5041.03 3440.19C4915.25 3257.85 4786.19 3086.89 4674.21 3008.31C4347.68 2777.7 4247.59 3240.88 4131.43 3565.44C4034.66 3835.79 3950.94 4150.41 3849.99 4460.73C3816.24 4564.52 3782.35 4668.32 3746.14 4767.77C3667.6 4983.45 3562.91 5185.75 3375.67 5071.93C3186.09 4956.68 2982.83 4580.23 2793.98 4257.8C2573.85 3882.22 2338.05 3526.35 2100.88 3278.73C2018.26 3192.55 1935.44 3120.8 1855.89 3068.25C1707.23 2969.64 1569.29 2936.79 1465.6 3001.29C1341.16 3078.78 1272.76 3286.47 1217.81 3500.76C1105.67 3933.9 1042.71 4419.27 1041.4 4999.37C1041 5172.46 1046.06 5353.72 1057.23 5544.7M6189.16 5519.93C5956.39 4835.51 5637.96 4342.11 5163.21 3642.13C5125.68 3586.79 5088.22 3529.97 5050.77 3475.93C4926.13 3296.62 4798.57 3128.15 4687.52 3048.4C4363.28 2813.93 4256.55 3244.06 4136.03 3555.75C4036.84 3812.27 3951.32 4117.27 3848.59 4421.89C3814.46 4523.07 3780.41 4624.8 3744.12 4722.34C3665.45 4933.86 3562 5133.22 3379.54 5029.9C3194.78 4925.22 2997.01 4570.45 2812.91 4267.12C2598.31 3913.83 2368.51 3579 2136.9 3346.66C2056.21 3265.82 1975.27 3198.64 1897.37 3149.68C1751.87 3057.79 1616.19 3027.89 1512.98 3090.18C1389.12 3164.97 1318.42 3362.8 1260.13 3564.91C1141.08 3973.24 1067.7 4423.69 1054.46 4970.72C1050.49 5133.96 1051.85 5305.44 1059.31 5487.27M6182.15 5473.81C5959.5 4819.16 5652.66 4375.11 5171.76 3674.67C5134.62 3620.57 5097.54 3564.7 5060.52 3511.67C4936.99 3335.36 4810.93 3169.38 4700.82 3088.45C4378.86 2850.14 4265.55 3247.33 4140.62 3546.07C4039.09 3788.86 3951.75 4084.21 3847.19 4383.1C3812.69 4481.75 3778.47 4581.32 3742.12 4676.94C3663.3 4884.28 3561.1 5080.74 3383.4 4987.87C3203.47 4893.75 3011.19 4560.68 2831.84 4276.44C2622.78 3945.44 2399 3631.66 2172.93 3414.64C2094.18 3339.14 2015.1 3276.53 1938.86 3231.15C1796.49 3145.96 1663.1 3119.08 1560.36 3179.06C1437.08 3251.11 1364.08 3439.14 1302.46 3629.01C1176.51 4012.57 1092.7 4428.08 1067.54 4942.08C1060.02 5095.45 1057.67 5257.21 1061.4 5429.8M6175.16 5427.74C5962.63 4802.84 5667.42 4408.05 5180.32 3707.22C5143.55 3654.33 5106.87 3599.43 5070.24 3547.37C4947.86 3374.11 4823.27 3210.57 4714.09 3128.51C4394.42 2886.35 4274.61 3250.67 4145.18 3536.36C4041.36 3765.55 3952.16 4051.12 3845.74 4344.24C3810.87 4440.32 3776.49 4537.79 3740.07 4631.48C3661.12 4834.68 3560.16 5028.19 3387.22 4945.77C3212.11 4862.23 3025.32 4550.84 2850.73 4285.7C2647.2 3976.99 2429.43 3684.24 2208.9 3482.5C2132.07 3412.32 2054.85 3354.28 1980.29 3312.52C1841.06 3234.01 1709.95 3210.13 1607.69 3267.88C1484.98 3337.24 1409.69 3515.4 1344.72 3693.06C1211.86 4051.81 1117.61 4432.36 1080.53 4913.33C1069.45 5056.84 1063.4 5208.87 1063.39 5372.23M6168.14 5381.62C5965.74 4786.48 5682.16 4440.77 5188.87 3739.75C5152.49 3688.06 5116.19 3634.19 5079.99 3583.11C4958.72 3412.84 4835.62 3251.79 4727.38 3168.55C4410.01 2922.55 4283.76 3254.15 4149.78 3526.67C4043.75 3742.36 3952.6 4018.05 3844.35 4305.44C3809.12 4398.98 3774.56 4494.31 3738.08 4586.08C3658.99 4785.09 3559.28 4975.74 3391.11 4903.73C3220.84 4830.79 3039.52 4541.01 2869.7 4295.05C2671.69 4008.59 2459.95 3736.93 2244.98 3550.46C2170.07 3485.62 2094.73 3432.16 2021.83 3394.02C1885.75 3322.19 1756.91 3301.3 1655.11 3356.79C1532.99 3423.46 1455.39 3591.76 1387.09 3757.24C1247.33 4091.21 1142.66 4436.82 1093.64 4884.71C1079 5018.36 1069.26 5160.66 1065.52 5314.78M6161.14 5335.55C5968.85 4770.17 5696.93 4473.36 5197.43 3772.34C5161.45 3721.85 5125.52 3668.83 5089.73 3618.9C4969.59 3451.27 4848 3293.1 4740.7 3208.69C4425.6 2958.8 4292.99 3257.79 4154.4 3517.08C4046.24 3719.41 3953.09 3985.15 3842.97 4266.69C3807.38 4357.7 3772.63 4450.83 3736.07 4540.7C3656.85 4735.56 3558.37 4923.27 3394.97 4861.71C3229.52 4799.34 3053.69 4531.24 2888.63 4304.38C2696.16 4040.21 2490.43 3789.58 2281.01 3618.44C2208.05 3558.94 2134.57 3510.05 2063.33 3475.49C1930.39 3410.4 1803.83 3392.49 1702.51 3445.72C1580.97 3509.65 1501.08 3668.14 1429.43 3821.39C1282.76 4130.55 1167.66 4441.25 1106.73 4856.11C1088.54 4979.9 1075.09 5112.47 1067.63 5257.4M6154.14 5289.43C5971.97 4753.81 5711.69 4505.71 5205.98 3804.88C5170.39 3755.55 5134.86 3703.59 5099.48 3654.63C4980.47 3490.01 4860.35 3334.32 4753.98 3248.74C4441.17 2995.01 4302.29 3261.53 4158.97 3507.36C4048.75 3696.45 3953.54 3952.12 3841.55 4227.86C3805.62 4316.33 3770.68 4407.32 3734.06 4495.26C3654.69 4685.94 3557.45 4870.74 3398.82 4819.64C3238.2 4767.84 3067.86 4521.43 2907.55 4313.66C2720.62 4071.78 2520.9 3842.19 2317.02 3686.33C2245.96 3632.14 2174.38 3587.86 2104.78 3556.89C1974.98 3498.48 1850.7 3483.56 1749.85 3534.53C1628.89 3595.76 1546.69 3744.39 1471.7 3885.43C1318.14 4169.81 1192.6 4445.56 1119.73 4827.35C1097.97 4941.28 1080.83 5064.12 1069.63 5199.82M6147.13 5243.31C5975.08 4737.45 5726.46 4537.89 5214.53 3837.42C5179.32 3789.25 5144.18 3738.32 5109.21 3690.37C4991.33 3528.74 4872.71 3375.55 4767.28 3288.83C4456.76 3031.25 4311.68 3265.42 4163.56 3497.72C4051.35 3673.73 3954.04 3919.21 3840.14 4189.06C3803.85 4275.01 3768.73 4363.85 3732.04 4449.87C3652.54 4636.4 3556.55 4818.26 3402.67 4777.62C3246.89 4736.42 3082.03 4511.65 2926.47 4322.99C2745.07 4103.4 2551.35 3894.85 2353.04 3754.3C2283.91 3705.46 2214.2 3665.75 2146.26 3638.36C2019.6 3586.63 1897.6 3574.71 1797.22 3623.46C1676.85 3681.99 1592.34 3820.77 1514.02 3949.62C1353.54 4209.2 1217.59 4450.03 1132.8 4798.8C1107.48 4902.86 1086.64 5015.97 1071.71 5142.43M6140.14 5197.23C5978.22 4721.13 5741.24 4569.89 5223.09 3869.96C5188.28 3822.94 5153.52 3773.03 5118.97 3726.11C5002.21 3567.48 4885.07 3416.77 4780.58 3328.88C4472.34 3067.45 4321.17 3269.46 4168.15 3487.99C4054 3651.03 3954.54 3886.26 3838.72 4150.23C3802.1 4233.68 3766.78 4320.33 3730.03 4404.44C3650.38 4586.78 3555.63 4765.74 3406.52 4735.55C3255.57 4704.92 3096.18 4501.8 2945.4 4332.27C2769.53 4134.97 2581.82 3947.47 2389.06 3822.19C2321.87 3778.7 2254.03 3743.56 2187.75 3719.79C2064.23 3674.75 1944.52 3665.86 1844.62 3712.34C1724.83 3768.14 1638.03 3897.09 1556.35 4013.73C1388.98 4248.53 1242.59 4454.41 1145.87 4770.11C1116.97 4864.27 1092.44 4967.65 1073.79 5084.92M6133.12 5151.12C5981.31 4704.78 5756 4601.64 5231.63 3902.51C5197.2 3856.6 5162.82 3807.77 5128.69 3761.85C5013.06 3606.27 4897.49 3458.46 4793.86 3368.98C4488.13 3105 4330.72 3273.74 4172.73 3478.36C4056.74 3628.62 3955.06 3853.43 3837.31 4111.44C3800.35 4192.4 3764.83 4276.87 3728.02 4359.05C3648.24 4537.25 3554.73 4713.26 3410.38 4693.53C3264.24 4673.47 3110.35 4492.03 2964.33 4341.59C2794 4166.59 2612.3 4000.12 2425.1 3890.17C2359.82 3851.98 2293.86 3821.45 2229.24 3801.26C2108.88 3762.95 1991.43 3757.01 1892 3801.23C1772.78 3854.33 1683.68 3973.43 1598.66 4077.84C1424.38 4287.83 1267.57 4458.8 1158.93 4741.47C1126.47 4825.77 1098.24 4919.42 1075.85 5027.5M6126.14 5105.04C5984.45 4688.46 5770.76 4633.21 5240.21 3935.09C5206.16 3890.3 5172.18 3842.57 5138.47 3797.63C5023.96 3645.04 4909.88 3499.72 4807.2 3409.11C4503.75 3141.24 4340.4 3278.21 4177.38 3468.75C4059.63 3606.39 3955.66 3820.67 3835.96 4072.73C3798.69 4151.22 3762.94 4233.47 3726.06 4313.74C3646.13 4487.75 3553.86 4660.86 3414.3 4651.61C3273 4642.16 3124.6 4482.37 2983.32 4351.04C2818.52 4198.32 2642.84 4052.89 2461.18 3958.22C2397.83 3925.38 2333.73 3899.42 2270.77 3882.81C2153.55 3851.19 2038.4 3848.27 1939.43 3890.23C1820.78 3940.6 1729.41 4049.92 1641.04 4142.12C1459.86 4327.33 1292.61 4463.35 1172.05 4712.95C1136.02 4787.39 1104.11 4871.3 1077.99 4970.15M6119.12 5058.93C5987.55 4672.06 5785.5 4664.52 5248.75 3967.64C5215.1 3923.95 5181.49 3877.3 5148.19 3833.38C5034.81 3683.83 4922.21 3540.96 4820.46 3449.17C4519.29 3177.46 4350.12 3282.88 4181.93 3459.05C4062.47 3584.21 3956.18 3787.85 3834.51 4033.87C3796.92 4109.9 3760.94 4189.89 3724.01 4268.27C3643.95 4438.14 3552.93 4608.35 3418.12 4609.52C3281.64 4610.63 3138.73 4472.53 3002.2 4360.29C2842.93 4229.82 2673.25 4105.44 2497.15 4026.08C2435.74 3998.58 2373.51 3977.2 2312.2 3964.18C2198.11 3939.24 2085.24 3939.32 1986.74 3979.01C1868.68 4026.68 1775 4126.14 1683.29 4206.12C1495.2 4366.52 1317.51 4467.59 1185.04 4684.19C1145.47 4748.77 1109.86 4822.96 1079.99 4912.58M6112.12 5012.8C5990.67 4655.7 5800.21 4695.53 5257.3 4000.13C5224.03 3957.52 5190.82 3912.02 5157.93 3869.07C5045.68 3722.52 4934.58 3582.13 4833.77 3489.21C4534.88 3213.62 4359.97 3287.73 4186.53 3449.36C4065.44 3562.21 3956.79 3755.13 3833.12 3995.07C3795.22 4068.64 3759.01 4146.41 3722 4222.83C3641.8 4388.51 3552.03 4555.82 3421.98 4567.44C3290.33 4579.13 3152.89 4462.67 3021.13 4369.57C2867.39 4261.39 2703.73 4158.04 2533.19 4094.01C2473.7 4071.81 2413.36 4055.05 2353.72 4045.64C2242.77 4027.39 2132.18 4030.45 2034.16 4067.93C1916.69 4112.9 1820.7 4202.5 1725.65 4270.26C1530.66 4405.89 1342.54 4472.01 1198.13 4655.54C1155 4710.26 1115.69 4774.71 1082.08 4855.1M6105.12 4966.73C5993.78 4639.38 5814.92 4726.32 5265.86 4032.71C5232.97 3991.17 5200.15 3946.79 5167.68 3904.86C5056.56 3761.34 4946.93 3623.4 4847.07 3529.3C4550.44 3249.83 4369.92 3292.9 4191.12 3439.68C4068.44 3540.37 3957.38 3722.41 3831.69 3956.24C3793.47 4027.36 3757.06 4102.89 3719.98 4177.4C3639.64 4338.94 3551.1 4503.3 3425.83 4525.37C3299.02 4547.66 3167.06 4452.86 3040.05 4378.85C2891.84 4292.97 2734.19 4210.66 2569.2 4161.9C2511.65 4145.05 2453.17 4132.85 2395.18 4127.03C2287.4 4115.51 2179.08 4121.56 2081.51 4156.73C1964.62 4198.97 1866.33 4278.76 1767.95 4334.33C1566.05 4445.14 1367.51 4476.36 1211.17 4626.82C1164.47 4671.68 1121.47 4726.4 1084.13 4797.55M6098.1 4920.61C5996.89 4623.02 5829.58 4756.82 5274.4 4065.26C5241.89 4024.74 5209.46 3981.52 5177.41 3940.6C5067.42 3800.12 4959.24 3664.24 4860.35 3569.4C4565.83 3284.85 4379.95 3298.35 4195.7 3430.04C4071.52 3518.78 3957.99 3689.77 3830.29 3917.49C3791.77 3986.19 3755.12 4059.46 3717.98 4132.05C3637.5 4289.4 3550.21 4450.86 3429.7 4483.39C3307.71 4516.24 3181.24 4443.13 3059 4388.21C2916.33 4324.62 2764.68 4263.35 2605.25 4229.91C2549.63 4218.41 2493.02 4210.79 2436.69 4208.54C2332.03 4203.71 2226 4212.74 2128.91 4245.7C2012.59 4285.24 1912.01 4355.17 1810.28 4398.52C1601.48 4484.57 1392.5 4480.83 1224.25 4598.26C1174 4633.25 1127.27 4678.21 1086.23 4740.21M6091.11 4874.53C6000.02 4606.71 5844.23 4787.06 5282.98 4097.84C5250.85 4058.4 5218.82 4016.32 5187.17 3976.38C5078.31 3838.95 4971.6 3705.51 4873.67 3609.49C4581.42 3321.06 4390.11 3304.08 4200.32 3420.4C4074.7 3497.37 3958.68 3657.21 3828.91 3878.69C3790.08 3944.98 3753.2 4015.99 3715.98 4086.66C3635.37 4239.86 3549.3 4398.38 3433.57 4441.36C3316.4 4484.79 3195.43 4433.35 3077.94 4397.54C2940.8 4356.24 2795.17 4316.01 2641.27 4297.85C2587.56 4291.65 2532.84 4288.6 2478.17 4289.98C2376.66 4291.83 2272.89 4303.86 2176.3 4334.58C2060.57 4371.43 1957.68 4431.5 1852.6 4462.64C1636.89 4523.86 1417.49 4485.22 1237.3 4569.58C1183.48 4594.71 1133.07 4629.93 1088.29 4682.7M6084.1 4828.42C6003.13 4590.35 5858.79 4816.92 5291.52 4130.34C5259.77 4091.93 5228.12 4051.01 5196.91 4012.08C5089.17 3877.69 4983.96 3746.69 4886.95 3649.54C4597 3357.26 4400.33 3310.09 4204.89 3410.68C4077.87 3476.06 3959.31 3624.57 3827.48 3839.87C3788.35 3903.73 3751.22 3972.44 3713.95 4041.23C3633.2 4190.25 3548.38 4345.87 3437.41 4399.3C3325.08 4453.33 3209.58 4423.5 3096.84 4406.83C2965.24 4387.82 2825.62 4368.62 2677.29 4365.78C2625.51 4364.93 2572.65 4366.45 2519.66 4371.45C2421.28 4379.99 2319.82 4395.05 2223.67 4423.47C2108.52 4457.58 2003.34 4507.83 1894.91 4526.75C1672.31 4563.2 1442.47 4489.61 1250.37 4540.93C1192.99 4556.21 1138.88 4581.7 1090.36 4625.23M6077.1 4782.3C6006.25 4573.99 5873.35 4846.48 5300.07 4162.89C5268.69 4125.46 5237.45 4085.87 5206.64 4047.82C5100.05 3916.82 4996.3 3787.92 4900.25 3689.63C4612.58 3393.51 4410.68 3316.46 4209.49 3401.05C4081.13 3454.99 3960.01 3592.13 3826.08 3801.07C3786.68 3862.56 3749.28 3928.97 3711.95 3995.84C3631.06 4140.71 3547.48 4293.39 3441.28 4357.27C3333.78 4421.87 3223.76 4413.73 3115.78 4416.15C2989.7 4419.39 2856.1 4421.28 2713.32 4433.72C2663.47 4438.21 2612.47 4444.3 2561.14 4452.88C2465.92 4468.15 2366.72 4486.16 2271.05 4512.36C2156.48 4543.77 2048.99 4584.17 1937.24 4590.9C1707.72 4602.55 1467.47 4494.04 1263.43 4512.29C1202.49 4517.71 1144.68 4533.47 1092.43 4567.77M6070.09 4736.22C6009.36 4557.67 5887.85 4875.75 5308.63 4195.46C5277.63 4159.06 5246.81 4120.67 5216.39 4083.55C5110.94 3955.59 5008.68 3829.18 4913.55 3729.68C4628.17 3429.71 4421.1 3323.16 4214.07 3391.32C4084.41 3434.03 3960.69 3559.6 3824.66 3762.24C3784.97 3821.35 3747.33 3885.45 3709.93 3950.37C3628.89 4091.05 3546.57 4240.86 3445.11 4315.16C3342.44 4390.33 3237.92 4403.87 3134.68 4425.39C3014.14 4450.92 2886.56 4473.85 2749.31 4501.57C2701.38 4511.37 2652.28 4522.07 2602.59 4534.23C2510.51 4556.18 2413.59 4577.22 2318.38 4601.13C2204.4 4629.84 2094.61 4660.38 1979.51 4654.89C1743.09 4641.76 1492.41 4498.31 1276.44 4483.53C1211.94 4479.08 1150.44 4485.12 1094.46 4510.22M6063.09 4690.1C6012.48 4541.31 5902.29 4904.64 5317.2 4228C5286.56 4192.59 5256.14 4155.39 5226.13 4119.29C5121.8 3994.33 5021.03 3870.41 4926.84 3769.77C4643.76 3465.95 4431.62 3330.22 4218.67 3381.68C4087.73 3413.33 3961.41 3527.24 3823.26 3723.44C3783.3 3780.21 3745.39 3841.98 3707.91 3904.98C3626.75 4041.51 3545.65 4188.38 3448.98 4273.17C3351.13 4358.91 3252.1 4394.14 3153.63 4434.75C3038.63 4482.57 2917.05 4526.54 2785.36 4569.58C2739.36 4584.73 2692.12 4600 2644.09 4615.74C2555.15 4644.38 2460.52 4668.41 2365.79 4690.09C2252.39 4716.07 2140.3 4736.79 2021.86 4719.08C1778.53 4681.14 1517.41 4502.73 1289.53 4454.92C1221.48 4440.61 1156.27 4436.92 1096.56 4452.79M6056.09 4644.03C6015.61 4525 5916.69 4933.2 5325.75 4260.59C5295.5 4226.16 5265.45 4190.16 5235.88 4155.08C5132.68 4033.15 5033.4 3911.67 4940.14 3809.87C4659.34 3502.16 4442.22 3337.66 4223.28 3372.04C4091.1 3392.79 3962.18 3494.91 3821.88 3684.69C3781.65 3739.12 3743.47 3798.55 3705.93 3859.63C3624.62 3991.98 3544.78 4135.94 3452.86 4231.19C3359.85 4327.53 3266.28 4384.37 3172.58 4444.12C3063.11 4514.23 2947.54 4579.24 2821.39 4637.55C2777.33 4658.05 2731.97 4677.89 2685.57 4697.22C2599.77 4732.55 2507.42 4759.56 2413.16 4778.98C2300.33 4802.27 2185.95 4813.13 2064.17 4783.24C1813.95 4720.52 1542.39 4507.16 1302.58 4426.29C1230.97 4402.12 1162.06 4388.69 1098.61 4395.33M6049.09 4597.91C6018.73 4508.63 5930.99 4961.34 5334.3 4293.09C5304.4 4259.6 5274.79 4224.88 5245.61 4190.78C5143.53 4071.85 5045.74 3952.86 4953.44 3849.91C4674.91 3538.37 4452.89 3345.43 4227.86 3362.32C4094.47 3372.34 3962.94 3462.58 3820.45 3645.82C3779.94 3697.91 3741.5 3754.95 3703.9 3814.15C3622.46 3942.36 3543.85 4083.38 3456.71 4189.08C3368.53 4295.98 3280.45 4374.52 3191.5 4453.36C3087.56 4545.76 2978 4631.81 2857.43 4705.44C2815.29 4731.24 2771.79 4755.7 2727.08 4778.65C2644.43 4820.7 2554.35 4850.71 2460.55 4867.86C2348.31 4888.41 2231.64 4889.46 2106.5 4847.35C1849.38 4759.86 1567.39 4511.55 1315.65 4397.65C1240.48 4363.61 1167.86 4340.42 1100.69 4337.86M6042.07 4551.8C6021.83 4492.28 5945.23 4989.1 5342.85 4325.63C5313.31 4293.09 5284.11 4259.61 5255.36 4226.51C5154.42 4110.62 5058.12 3994.12 4966.72 3889.96C4690.49 3574.57 4463.63 3353.57 4232.45 3352.64C4097.86 3352.11 3963.72 3430.38 3819.05 3607.03C3778.29 3656.81 3739.56 3711.48 3701.9 3768.76C3620.31 3892.78 3542.95 4030.89 3460.58 4147.05C3377.22 4264.52 3294.63 4364.74 3210.43 4462.68C3112.04 4577.37 3008.48 4684.46 2893.45 4773.37C2853.24 4804.52 2811.63 4833.55 2768.55 4860.08C2689.04 4908.82 2601.25 4941.81 2507.94 4956.74C2396.28 4974.6 2277.3 4965.78 2148.82 4911.46C1884.79 4799.15 1592.38 4515.93 1328.71 4368.96C1249.97 4325.07 1173.66 4292.14 1102.77 4280.39M6035.07 4505.72C6024.95 4475.96 5959.4 5016.49 5351.4 4358.21C5322.22 4326.62 5293.45 4294.41 5265.09 4262.3C5165.28 4149.41 5070.46 4035.39 4980.02 3930.1C4706.08 3610.86 4474.42 3362.18 4237.03 3343.01C4101.24 3332.05 3964.81 3398.96 3817.62 3568.24C3776.69 3615.93 3737.6 3668.01 3699.87 3723.37C3618.15 3843.24 3542.02 3978.42 3464.42 4105.02C3385.9 4233.11 3308.79 4354.97 3229.34 4472.01C3136.47 4608.99 3038.94 4737.12 2929.46 4841.35C2891.18 4877.84 2851.43 4911.45 2810.02 4941.56C2733.65 4996.98 2648.14 5032.97 2555.29 5045.64C2444.22 5060.8 2322.94 5042.16 2191.12 4975.62C1920.19 4838.54 1617.35 4520.37 1341.76 4340.36C1259.47 4286.61 1179.46 4243.95 1104.84 4222.97M6028.07 4459.6C6028.07 4459.6 5973.5 5043.46 5359.97 4390.75C4746.43 3738.05 4342.74 2952.96 3816.24 3529.45C3452.41 3927.84 3242.36 4691.38 2851.53 5022.98C2690.72 5159.41 2481.63 5184.32 2233.46 5039.72C1955.62 4877.83 1642.35 4524.75 1354.83 4311.68C1268.97 4248.06 1185.28 4195.67 1106.9 4165.46" stroke="#C36177" stroke-width="0.5" stroke-miterlimit="10"/>
</svg>
