<svg width="1440" height="2100" viewBox="0 0 1440 2100" fill="none" xmlns="http://www.w3.org/2000/svg">
<path d="M1581.24 -367.562C1559.54 -157.758 1528.7 37.8489 1476.21 190.86C1459.2 240.471 1439.76 285.779 1412.35 311.909C1356.45 365.192 1271.18 336.006 1201.12 350.442C1112.13 368.767 1047.85 460.557 1015.31 611.325C990.822 724.776 973.949 883.495 921.081 938.552C873.053 988.568 750.691 836.552 675.523 785.824C598.533 733.875 533.78 737.948 489.514 790.929C466.326 818.689 448.65 859.891 437.775 913.672C427.38 965.109 433.115 1052.99 381.219 998.758C364.065 980.832 346.068 950.569 328.434 926.744C267.153 843.958 212.82 852.996 209.43 946.553M1579.48 -360.645C1560.55 -148.984 1531.23 48.0974 1479.11 200.492C1461.77 251.305 1441.3 295.748 1413.94 323.896C1380.87 357.689 1337.42 362.605 1292.69 364.25C1262.17 365.377 1231.04 364.971 1202.22 371.157C1145.28 383.393 1097.38 422.588 1060.36 485.141C1038.72 521.721 1020.81 566.306 1007.04 618.385C997.315 654.819 988.428 696.28 978.691 736.989C964.949 794.105 949.497 849.692 927.883 888.958C920.138 903.095 911.602 915.129 902.058 924.267C862.571 961.947 779.172 880.836 709.603 823.74C690.923 808.342 673.236 794.67 657.643 785.474C593.391 747.199 538.525 749.724 497.706 787.936C490.676 794.509 484.059 802.142 477.877 810.815C455.827 841.731 439.144 885.748 428.58 941.181C422.326 974.019 421.897 1020.11 410.248 1038.28C403.077 1049.47 391.648 1049.91 372.095 1030.49C355.011 1013.51 337.062 984.642 319.42 961.823C258.141 882.476 203.17 890.998 198.488 983.77M1577.71 -353.743C1561.56 -140.212 1533.75 58.3317 1481.99 210.112C1464.34 262.142 1442.84 305.718 1415.53 335.859C1382.61 371.768 1339.3 379.075 1294.47 382.474C1263.85 384.804 1232.52 385.309 1203.3 391.849C1145.56 404.736 1096.09 442.317 1056.77 501.002C1033.78 535.308 1014.3 576.888 998.761 625.421C987.722 659.313 977.465 697.904 966.369 735.669C950.668 788.61 933.259 839.878 910.153 876.63C901.899 889.88 892.927 901.247 883.015 909.97C841.899 945.909 759.13 869.779 690.71 818.674C672.353 804.838 655.04 792.882 639.756 785.137C577.041 753.362 523.973 761.504 485.077 805.105C478.379 812.593 472.099 821.153 466.231 830.703C445.315 864.776 429.626 911.606 419.38 968.703C413.313 1002.54 412.706 1048.92 400.977 1067.84C393.748 1079.49 382.29 1080.41 362.966 1062.23C345.944 1046.21 328.055 1018.74 310.403 996.915C249.13 921.007 193.512 929.015 187.542 1020.99M1575.95 -346.84C1562.57 -131.452 1536.27 68.5804 1484.88 219.729C1466.92 272.962 1444.38 315.674 1417.12 347.832C1384.36 385.872 1341.2 395.557 1296.25 400.712C1265.56 404.256 1234.03 405.67 1204.39 412.54C1145.86 426.089 1094.8 462.044 1053.19 516.848C1028.85 548.894 1007.92 587.705 990.484 632.443C978.211 663.954 966.498 699.503 954.056 734.336C936.392 783.103 917.033 830.051 892.431 864.275C883.673 876.636 874.256 887.339 863.988 895.657C821.239 929.856 739.188 859.107 671.825 813.577C653.811 801.397 636.838 790.998 621.873 784.76C560.642 759.229 509.42 773.243 472.461 822.245C466.095 830.661 460.142 840.123 454.597 850.561C434.82 887.79 420.124 937.435 410.196 996.195C404.315 1031.04 403.535 1077.7 391.722 1097.36C384.44 1109.48 372.958 1110.9 353.846 1093.93C336.889 1078.88 319.053 1052.78 301.388 1031.95C240.117 959.483 183.856 966.962 176.6 1058.16M1574.19 -339.923C1563.58 -122.679 1538.8 78.829 1487.78 229.374C1469.5 283.825 1446.01 325.871 1418.72 359.82C1386.21 400.23 1343.1 412.05 1298.04 418.974C1267.27 423.719 1235.53 426.058 1205.49 433.268C1146.17 447.482 1093.54 481.822 1049.62 532.745C1023.94 562.518 1001.45 598.402 982.224 639.517C968.657 668.537 955.553 701.153 941.76 733.068C922.139 777.66 900.821 820.288 874.722 851.984C865.457 863.458 855.599 873.497 844.97 881.398C800.593 913.856 719.204 848.202 652.949 808.533C635.264 797.942 618.649 789.167 604.002 784.434C544.265 765.145 494.884 785.035 459.849 839.427C453.811 848.758 448.19 859.132 442.968 870.458C424.329 910.843 410.623 963.303 401.009 1023.72C395.315 1059.56 394.356 1106.5 382.464 1126.91C375.128 1139.51 363.617 1141.42 344.73 1125.67C327.835 1111.59 310.059 1086.88 292.383 1067.04C231.114 998.014 174.21 1004.98 165.666 1095.37M1572.43 -333.022C1564.59 -113.908 1541.33 89.0749 1490.67 238.992C1472.07 294.646 1447.57 335.877 1420.3 371.78C1387.98 414.358 1344.98 428.519 1299.82 437.198C1268.96 443.159 1237.03 446.405 1206.58 453.945C1146.46 468.822 1092.25 501.536 1046.03 548.591C1019.01 576.105 994.968 609.034 973.946 646.536C959.085 673.051 944.668 702.926 929.442 731.734C907.967 772.391 884.49 810.204 856.996 839.627C847.186 850.124 836.927 859.588 825.93 867.073C779.92 897.792 699.196 837.22 634.056 803.438C616.703 794.434 600.439 787.283 586.11 784.057C527.856 770.97 480.326 796.773 447.219 856.568C441.518 866.826 436.225 878.103 431.318 890.32C413.821 933.874 401.105 989.148 391.805 1051.21C386.296 1088.06 385.159 1135.28 373.188 1156.43C365.798 1169.51 354.259 1171.92 335.597 1157.39C318.764 1144.28 301.048 1120.95 283.36 1102.11C222.097 1036.52 164.551 1042.96 154.716 1132.58M1570.67 -326.106C1565.61 -105.136 1543.86 99.3232 1493.56 248.624C1474.65 305.493 1449.13 345.884 1421.9 383.768C1389.75 428.513 1346.88 445.001 1301.6 455.448C1270.66 462.61 1238.52 466.781 1207.67 474.661C1146.77 490.202 1090.98 521.302 1042.45 564.464C1014.08 589.703 988.486 619.693 965.678 653.585C949.518 677.596 933.723 704.576 917.137 730.426C893.713 766.948 868.255 800.364 839.278 827.299C828.96 836.894 818.265 845.718 806.903 852.773C759.265 881.75 679.206 826.261 615.171 798.354C598.151 790.938 582.241 785.398 568.231 783.705C511.465 776.819 465.782 808.539 434.599 873.724C429.225 884.897 424.264 897.087 419.676 910.178C403.317 956.888 391.595 1014.98 382.609 1078.71C377.287 1116.56 375.976 1164.06 363.921 1185.95C356.482 1199.51 344.907 1202.43 326.468 1189.11C309.698 1176.98 292.037 1155.01 274.342 1137.16C213.081 1075.01 154.887 1080.93 143.773 1169.76M1568.91 -319.203C1566.61 -96.376 1546.38 109.558 1496.44 258.243C1477.22 316.316 1450.67 355.864 1423.48 395.729C1391.5 442.628 1348.76 461.47 1303.37 473.672C1272.36 482.049 1240.01 487.129 1208.75 495.339C1147.06 511.542 1089.68 541.016 1038.86 580.31C1009.15 603.288 981.992 630.326 957.392 660.607C939.93 682.116 922.756 706.201 904.815 729.107C879.438 761.48 852.008 790.512 821.548 814.957C810.721 823.651 799.585 831.825 787.859 838.464C738.588 865.702 659.198 815.277 596.273 793.26C579.581 787.418 564.025 783.5 550.334 783.328C495.052 782.615 451.216 820.28 421.965 890.867C416.919 902.955 412.295 916.073 408.025 930.04C392.805 979.906 382.072 1040.81 373.4 1106.19C368.264 1145.04 366.775 1192.83 354.641 1215.47C347.143 1229.48 335.545 1232.94 317.326 1220.8C300.614 1209.66 283.017 1189.06 265.311 1172.2C204.051 1113.47 145.219 1118.89 132.809 1206.93M1567.15 -312.302C1567.62 -87.6056 1548.91 119.804 1499.34 267.872C1479.8 327.162 1452.22 365.856 1425.08 407.714C1393.26 456.754 1350.66 477.963 1305.17 491.933C1274.07 501.511 1241.52 507.515 1209.86 516.067C1147.37 532.934 1088.41 560.782 1035.29 596.208C1004.23 616.914 975.506 640.986 949.131 667.679C930.362 686.673 911.819 707.875 892.519 727.823C865.192 756.062 835.79 780.706 803.838 802.651C792.499 810.445 780.931 817.966 768.84 824.188C717.941 849.685 639.216 804.316 577.396 788.202C561.033 783.935 545.835 781.64 532.463 782.988C478.655 788.422 436.679 832.055 409.361 908.044C404.651 921.059 400.354 935.078 396.4 949.935C382.318 1002.96 372.575 1066.68 364.221 1133.72C359.271 1173.57 357.604 1221.63 345.39 1245.03C337.839 1259.52 326.214 1263.52 308.218 1252.55C291.569 1242.41 274.027 1223.16 256.314 1207.3C195.056 1152.01 135.582 1156.91 121.889 1244.16M1565.39 -305.386C1568.63 -78.8326 1551.43 130.052 1502.23 277.505C1482.37 337.999 1453.77 375.852 1426.66 419.692C1395.01 470.874 1352.54 494.449 1306.94 510.174C1275.76 520.967 1243 527.868 1210.94 536.76C1147.66 554.29 1087.13 580.524 1031.7 612.056C999.295 630.501 969.008 651.609 940.854 674.717C920.778 691.195 900.861 709.514 880.202 726.505C850.921 750.595 819.552 770.868 786.108 790.312C774.261 797.204 762.252 804.073 749.797 809.88C697.265 833.637 619.2 793.308 558.499 783.124C542.468 780.43 527.617 779.745 514.568 782.626C462.237 794.192 422.118 843.811 396.723 925.19C392.342 939.12 388.377 954.053 384.745 969.799C371.802 1025.98 363.057 1092.52 355.013 1161.22C350.253 1202.07 348.405 1250.42 336.111 1274.55C328.506 1289.52 316.853 1294.06 299.077 1284.27C282.487 1275.13 265.008 1257.23 247.279 1242.35C186.027 1190.51 125.902 1194.88 110.921 1281.34M1563.63 -298.483C1569.64 -70.0734 1553.96 140.3 1505.12 287.124C1484.95 348.833 1455.33 385.832 1428.26 431.666C1396.77 484.991 1354.44 510.928 1308.72 528.411C1277.46 540.406 1244.5 548.23 1212.03 557.464C1147.96 575.658 1085.84 600.266 1028.11 627.93C994.362 644.103 962.506 662.233 932.582 681.766C911.194 695.715 889.908 711.168 867.893 725.213C836.651 745.144 803.322 761.055 768.396 778.01C756.04 784 743.591 790.22 730.775 795.609C676.614 817.625 599.209 782.321 539.619 778.068C523.917 776.949 509.419 777.875 496.689 782.29C445.828 799.962 407.575 855.591 384.108 942.374C380.058 957.232 376.421 973.065 373.113 989.698C361.307 1049.03 353.552 1118.39 345.826 1188.74C341.252 1230.6 339.23 1279.23 326.853 1304.1C319.194 1319.55 307.519 1324.64 289.962 1316.01C273.434 1307.88 256.025 1291.4 238.274 1277.44C177.077 1229.32 116.26 1232.9 99.9882 1318.57M1561.86 -291.58C1570.65 -61.3004 1556.48 150.535 1508.01 296.74C1487.51 359.654 1456.86 395.8 1429.84 443.627C1398.52 499.08 1356.33 527.396 1310.49 546.635C1279.15 559.844 1245.99 568.578 1213.11 578.141C1148.25 596.998 1084.55 619.98 1024.53 643.776C989.433 657.687 955.994 672.83 924.304 688.786C901.605 700.208 878.944 712.777 855.579 723.877C822.379 739.647 787.092 751.212 750.669 765.654C737.805 770.756 724.919 776.309 711.734 781.282C655.942 801.559 579.191 771.269 520.721 772.959C505.347 773.399 491.199 775.937 478.797 781.913C429.396 805.665 393.013 867.331 371.474 959.502C367.756 975.274 364.455 992.035 361.462 1009.54C350.794 1072.03 344.029 1144.21 336.621 1216.22C332.234 1259.08 330.029 1307.98 317.577 1333.61C309.869 1349.53 298.166 1355.19 280.824 1347.7C264.359 1340.6 247.009 1325.44 229.242 1312.47C168.051 1267.79 106.588 1270.85 89.0326 1355.73M1560.1 -284.664C1571.66 -52.5275 1559.01 160.796 1510.9 306.386C1490.1 370.515 1458.41 405.796 1431.44 455.628C1400.27 513.21 1358.22 543.894 1312.28 564.9C1280.86 579.31 1247.5 588.965 1214.21 598.87C1148.56 618.391 1083.28 639.76 1020.95 659.675C984.509 671.315 949.5 683.479 916.036 695.862C892.026 704.755 867.991 714.445 843.271 722.599C808.109 734.21 770.867 741.425 732.952 753.352C719.579 757.553 706.253 762.456 692.713 767.025C635.291 785.561 559.192 760.27 501.849 767.929C486.803 769.93 473.005 774.077 460.931 781.599C412.986 811.418 378.481 879.134 358.871 976.709C355.486 993.409 352.512 1011.07 349.838 1029.47C340.313 1095.13 334.537 1170.11 327.443 1243.78C323.242 1287.64 320.864 1336.83 308.327 1363.2C300.562 1379.58 288.837 1385.82 271.713 1379.48C255.321 1373.42 238.021 1359.58 220.242 1347.6C159.061 1306.37 96.9461 1308.89 78.1001 1392.99M1558.34 -277.762C1572.67 -43.7699 1561.27 170.496 1513.79 316.004C1492.55 381.101 1459.95 415.75 1433.03 467.588C1402.02 527.286 1360.11 560.361 1314.06 583.135C1282.56 598.76 1248.99 609.327 1215.3 619.56C1148.86 639.744 1082 659.485 1017.37 675.52C979.583 684.898 942.988 694.047 907.762 702.882C882.436 709.233 857.028 716.041 830.966 721.276C793.841 728.727 754.649 731.592 715.234 741.007C701.357 744.32 687.586 748.558 673.681 752.711C614.627 769.507 539.178 749.203 482.959 762.833C468.241 766.394 454.793 772.151 443.043 781.22C396.548 817.094 363.928 890.872 346.245 993.835C343.188 1011.45 340.546 1030.03 338.195 1049.31C329.808 1118.13 325.022 1195.92 318.242 1271.24C314.227 1316.11 311.671 1365.58 299.055 1392.7C291.235 1409.55 279.493 1416.37 262.584 1411.17C246.259 1406.15 229.013 1393.62 211.227 1382.64C150.057 1344.86 87.2903 1346.85 67.1611 1430.16M1556.58 -270.858C1573.68 -34.9965 1563.79 180.732 1516.68 325.624C1495.12 391.925 1461.49 425.707 1434.61 479.551C1403.75 541.366 1362 576.832 1315.84 601.361C1284.25 618.189 1250.48 629.677 1216.38 640.253C1149.15 661.088 1080.72 679.228 1013.78 691.382C974.642 698.488 936.464 704.634 899.481 709.918C872.831 713.717 846.061 717.668 818.644 719.958C779.553 723.236 738.415 721.779 697.5 728.668C683.114 731.093 668.911 734.68 654.637 738.404C593.955 753.459 519.152 738.141 464.058 757.74C449.664 762.863 436.57 770.232 425.143 780.848C380.087 822.751 349.362 902.615 333.608 1010.98C330.883 1029.51 328.573 1049 326.541 1069.18C319.292 1141.15 315.5 1221.77 309.034 1298.74C305.201 1344.6 302.471 1394.35 289.776 1422.23C281.903 1439.56 270.142 1446.97 253.447 1442.89C237.19 1438.92 219.998 1427.69 202.197 1417.69C141.032 1383.35 77.6233 1384.82 56.1984 1467.34M1554.82 -263.945C1574.69 -26.2252 1566.32 190.991 1519.57 335.253C1497.7 402.757 1463.03 435.673 1436.21 491.536C1405.51 555.468 1363.9 593.324 1317.62 619.609C1285.96 637.651 1251.99 650.049 1217.48 660.952C1149.45 682.451 1079.44 698.964 1010.2 707.251C969.726 712.096 929.96 715.228 891.216 716.964C863.25 718.222 835.106 719.29 806.339 718.648C765.281 717.74 722.198 711.974 679.786 716.335C664.896 717.872 650.248 720.795 635.614 724.101C573.299 737.417 499.138 727.06 445.177 752.655C431.106 759.325 418.362 768.304 407.267 780.494C363.649 828.412 334.818 914.38 320.995 1028.15C318.602 1047.61 316.625 1068.01 314.911 1089.06C308.801 1164.19 306.002 1247.62 299.851 1326.26C296.204 1373.12 293.3 1423.16 280.521 1451.77C272.594 1469.58 260.821 1477.6 244.331 1474.63C228.146 1471.71 211.004 1461.78 193.191 1452.78C132.033 1421.88 67.9726 1422.82 45.2689 1504.57M1553.06 -257.04C1575.7 -17.4648 1569.11 201.76 1522.46 344.874C1500.39 413.843 1464.56 445.631 1437.79 503.499C1407.24 569.548 1365.78 609.794 1319.4 637.835C1287.65 657.078 1253.47 670.387 1218.57 681.645C1149.74 703.808 1078.15 718.694 1006.61 723.099C964.784 725.672 923.435 725.787 882.93 723.989C853.64 722.679 824.131 720.893 794.022 717.331C750.997 712.25 705.968 702.162 662.056 703.997C646.662 704.644 631.569 706.903 616.571 709.792C552.627 721.367 479.104 715.971 426.28 747.575C412.537 755.806 400.134 766.385 389.376 780.132C347.187 834.054 320.261 926.135 308.362 1045.29C306.301 1065.66 304.652 1086.98 303.257 1108.92C298.285 1187.21 296.476 1273.46 290.638 1353.75C287.177 1401.61 284.096 1451.93 271.241 1481.29C263.26 1499.56 251.474 1508.19 235.189 1506.32C219.081 1504.47 201.962 1495.74 184.16 1487.82C122.93 1460.05 58.305 1460.79 34.3056 1541.73M1551.29 -250.136C1576.71 -8.69128 1571.64 212.008 1525.35 354.505C1502.96 424.677 1466.11 455.599 1439.39 515.487C1408.99 583.639 1367.68 626.277 1321.19 656.099C1289.36 676.557 1254.98 690.776 1219.66 702.363C1150.05 725.188 1076.88 738.463 1003.03 738.988C959.864 739.299 916.924 736.385 874.662 731.051C844.051 727.187 813.173 722.518 781.713 716.039C736.722 706.771 689.748 692.375 644.339 691.682C628.441 691.441 612.907 693.035 597.544 695.508C531.968 705.343 459.073 704.883 407.399 742.507C393.976 752.286 381.923 764.461 371.497 779.781C330.729 839.695 305.716 937.899 295.746 1062.46C294.017 1083.76 292.699 1105.98 291.619 1128.8C287.786 1210.23 286.97 1299.3 281.447 1381.25C278.172 1430.12 274.913 1480.71 261.979 1510.82C253.944 1529.57 242.149 1538.82 226.069 1538.05C210.043 1537.28 192.96 1529.81 175.146 1522.88C113.922 1498.56 48.6504 1498.78 23.3638 1578.93M1549.54 -243.221C1577.73 0.0804596 1574.17 222.255 1528.24 364.136C1505.55 435.524 1467.64 465.555 1440.98 527.461C1410.73 597.717 1369.57 642.757 1322.97 674.334C1291.06 695.994 1256.48 711.136 1220.76 723.063C1150.36 746.553 1075.6 758.2 999.464 754.856C954.944 752.896 910.42 746.951 866.402 738.095C834.466 731.664 802.223 724.141 769.417 714.728C722.45 701.262 673.543 682.582 626.634 679.363C610.228 678.234 594.253 679.163 578.526 681.219C511.317 689.315 439.051 693.791 388.523 737.436C375.419 748.749 363.711 762.535 353.622 779.427C314.266 845.308 291.176 949.663 283.133 1079.61C281.733 1101.83 280.747 1124.96 279.99 1148.67C277.294 1233.26 277.473 1325.15 272.263 1408.74C269.174 1458.61 265.737 1509.49 252.724 1540.34C244.636 1559.56 232.84 1569.45 216.953 1569.76C201.012 1570.08 183.966 1563.88 166.141 1557.95C104.914 1537.05 39.0036 1536.75 12.4341 1616.13M1547.77 -236.319C1578.73 8.83919 1576.69 232.49 1531.13 373.755C1508.11 446.347 1469.17 475.5 1442.57 539.437C1412.46 611.797 1371.45 659.241 1324.74 692.573C1292.75 715.448 1257.97 731.5 1221.84 743.757C1150.64 767.909 1074.31 777.944 995.864 770.707C950.002 766.485 903.882 757.499 858.112 745.12C824.856 736.121 791.239 725.729 757.091 713.411C708.157 695.757 657.31 672.782 608.899 667.022C591.989 665.004 575.57 665.27 559.482 666.909C490.645 673.264 419.003 682.676 369.625 732.354C356.841 745.216 345.483 760.6 335.726 779.065C297.778 850.913 276.61 961.419 270.5 1096.77C269.436 1119.91 268.778 1143.96 268.339 1168.54C266.787 1256.3 267.951 1351 263.059 1436.25C260.156 1487.12 256.546 1538.29 243.452 1569.9C235.311 1589.59 223.511 1600.11 207.824 1601.51C191.965 1602.92 174.955 1597.96 157.123 1593.04C95.9018 1575.58 29.3451 1574.77 1.48399 1653.35M1546.01 -229.417C1579.74 17.6108 1579.21 242.738 1534.02 383.372C1510.69 457.181 1470.7 485.441 1444.16 551.396C1414.2 625.861 1373.35 675.709 1326.52 710.796C1294.45 734.873 1259.46 751.845 1222.93 764.443C1150.95 789.26 1073.03 797.667 992.288 786.562C945.077 780.069 897.374 768.051 849.846 752.151C815.266 740.585 780.283 727.322 744.785 712.086C693.88 690.233 641.096 662.976 591.181 654.677C573.767 651.785 556.907 651.372 540.45 652.596C469.981 657.211 398.958 671.548 350.735 727.259C338.27 741.655 327.258 758.649 317.846 778.698C281.302 856.515 262.065 973.169 257.878 1113.91C257.142 1137.97 256.82 1162.93 256.697 1188.4C256.278 1279.32 258.44 1376.83 253.863 1463.75C251.15 1515.62 247.353 1567.05 234.185 1599.42C225.99 1619.59 214.19 1630.75 198.695 1633.21C182.926 1635.72 165.948 1632.02 148.1 1628.08C86.8803 1614.05 19.6852 1612.73 -9.46313 1690.52M1544.25 -222.501C1580.75 26.3838 1581.74 252.986 1536.91 393.018C1513.26 468.031 1472.23 495.399 1445.75 563.398C1415.94 639.954 1375.24 692.217 1328.31 729.073C1296.16 754.363 1260.97 772.249 1224.03 785.175C1151.25 810.655 1071.76 817.436 988.71 802.463C940.157 793.709 890.858 778.636 841.575 759.229C805.673 745.094 769.321 728.964 732.477 710.809C679.605 684.755 624.876 653.218 573.46 642.378C555.542 638.597 538.237 637.521 521.42 638.327C449.322 641.201 378.911 660.449 331.847 722.205C319.701 738.15 309.03 756.745 299.959 778.365C264.81 862.124 247.513 984.949 245.254 1131.1C244.851 1156.08 244.856 1181.94 245.056 1208.3C245.776 1302.38 248.927 1402.7 244.664 1491.27C242.137 1544.14 238.166 1595.87 224.914 1628.97C216.665 1649.6 204.87 1661.43 189.563 1664.96C173.888 1668.57 156.933 1666.11 139.082 1663.17C77.865 1652.59 10.0272 1650.74 -20.4128 1727.74M1542.49 -215.598C1581.76 35.1425 1584.26 263.232 1539.8 402.635C1515.84 478.863 1473.76 505.34 1447.34 575.357C1417.66 654.006 1377.13 708.685 1330.09 747.297C1297.85 773.789 1262.46 792.584 1225.12 805.865C1151.55 832.009 1070.48 837.175 985.122 818.309C935.219 807.282 884.332 789.165 833.297 766.249C796.07 749.533 758.349 730.548 720.163 709.487C665.32 679.234 608.659 643.428 555.738 630.034C537.316 625.379 519.57 623.638 502.388 624.028C428.658 625.162 358.858 649.307 312.962 717.12C301.131 734.601 290.805 754.794 282.075 777.999C248.317 867.702 232.964 996.701 232.637 1148.25C232.566 1174.15 232.899 1200.92 233.422 1228.17C235.28 1325.4 239.421 1428.54 235.476 1518.78C233.136 1572.65 228.987 1624.66 215.655 1658.51C207.352 1679.61 195.566 1692.09 180.446 1696.68C164.866 1701.42 147.939 1700.19 130.072 1698.23C68.8607 1691.09 0.371626 1688.72 -31.3471 1764.94M1540.73 -208.695C1582.78 43.9147 1586.79 273.468 1542.69 412.255C1518.41 489.687 1475.15 514.999 1448.93 587.32C1419.24 667.762 1379.02 725.141 1331.86 765.521C1299.55 793.228 1263.95 812.932 1226.2 826.542C1151.84 853.348 1069.19 856.89 981.535 834.156C930.29 820.868 877.811 799.694 825.019 773.271C786.468 753.973 747.382 732.133 707.85 708.154C651.039 673.699 592.515 633.903 538.011 617.679C519.109 612.228 500.899 609.729 483.353 609.703C407.994 609.096 338.802 638.155 294.073 712.026C282.557 731.042 272.581 752.845 264.187 777.622C231.82 873.269 218.406 1008.44 220.008 1165.38C220.264 1192.19 220.938 1219.89 221.771 1248.02C224.768 1348.41 229.906 1454.37 226.271 1546.26C224.117 1601.14 219.791 1653.41 206.379 1688.02C198.023 1709.6 186.245 1722.74 171.313 1728.39C155.827 1734.24 138.928 1734.25 121.05 1733.28C59.8402 1729.58 -9.28734 1726.69 -42.2974 1802.13M1538.97 -201.779C1583.78 52.689 1589.31 283.716 1545.58 421.886C1520.99 500.534 1476.7 524.98 1450.52 599.307C1420.99 681.866 1380.91 741.636 1333.65 783.772C1301.25 812.68 1265.45 833.308 1227.3 847.26C1152.14 874.73 1067.92 876.657 977.961 850.042C925.366 834.481 871.302 810.262 816.755 780.332C776.878 758.453 736.39 733.582 695.546 706.859C636.716 667.961 576.29 624.103 520.298 605.362C500.891 599.023 482.237 595.86 464.326 595.417C387.335 593.071 318.75 627.03 275.188 706.957C263.987 727.509 254.353 750.91 246.313 777.282C215.327 878.862 203.867 1020.22 207.396 1182.56C207.985 1210.3 208.986 1238.9 210.142 1267.92C214.277 1371.46 220.406 1480.24 217.084 1573.78C215.117 1629.66 210.616 1682.22 197.121 1717.57C188.711 1739.63 176.942 1753.42 162.189 1760.12C146.806 1767.1 129.922 1768.33 112.036 1768.36C50.8327 1768.1 -18.9461 1764.68 -53.2433 1839.33M1537.21 -194.878C1584.79 61.4464 1591.84 293.962 1548.48 431.516C1523.57 511.368 1478.24 534.948 1452.12 611.28C1422.75 695.968 1382.81 758.117 1335.44 802.02C1302.96 832.143 1266.95 853.68 1228.39 867.96C1152.45 896.095 1066.64 896.396 974.382 865.913C920.445 848.091 864.785 820.803 808.482 787.379C767.284 762.918 725.431 735.205 683.237 705.565C622.44 662.48 560.069 614.313 502.576 593.046C482.661 585.82 463.566 581.992 445.295 581.132C366.675 577.045 298.685 615.891 256.299 701.887C245.413 723.975 236.12 748.976 228.425 776.932C198.818 884.445 189.314 1031.99 194.767 1199.72C195.687 1228.37 197.017 1257.89 198.496 1287.79C203.769 1394.49 210.887 1506.09 207.888 1601.29C206.107 1658.17 201.429 1711.02 187.854 1747.11C179.39 1769.64 167.634 1784.1 153.064 1791.84C137.789 1799.97 120.919 1802.41 103.018 1803.43C41.8162 1806.6 -28.6012 1802.67 -64.1857 1876.53M1535.44 -187.975C1585.8 70.2181 1594.36 304.197 1551.36 441.135C1526.14 522.204 1479.77 544.905 1453.7 623.255C1424.48 710.06 1384.7 774.599 1337.21 820.258C1304.66 851.595 1268.45 874.043 1229.48 888.664C1152.75 917.462 1065.35 916.136 970.798 881.771C915.512 861.677 858.268 831.344 800.208 794.413C757.686 767.37 714.476 736.827 670.927 704.242C608.172 656.983 543.843 604.497 484.863 580.714C464.443 572.599 444.903 568.108 426.268 566.831C346.015 561.005 278.628 604.752 237.418 696.802C226.843 720.427 217.895 747.026 210.545 776.565C182.312 889.999 174.768 1043.74 182.15 1216.87C183.403 1246.45 185.064 1276.87 186.862 1307.66C193.278 1417.53 201.385 1531.93 198.701 1628.79C197.105 1686.68 192.249 1739.79 178.595 1776.64C170.077 1799.63 158.343 1814.79 143.948 1823.57C128.775 1832.82 111.921 1836.48 94.0114 1838.5C32.8122 1845.12 -38.2478 1840.67 -75.124 1913.73M1533.68 -181.059C1586.82 78.9911 1596.89 314.457 1554.25 450.766C1528.71 533.038 1481.31 554.873 1455.29 635.229C1426.23 724.151 1386.59 791.082 1338.99 838.497C1306.35 871.036 1269.94 894.406 1230.57 909.37C1153.04 938.818 1064.07 935.891 967.211 897.646C910.583 875.292 851.7 841.672 791.936 801.476C748.059 771.689 703.518 738.467 658.614 702.952C593.897 651.519 527.614 594.697 467.137 568.401C446.21 559.398 426.233 554.242 407.233 552.549C325.352 544.981 258.385 593.256 218.529 691.75C208.222 716.81 199.663 745.107 192.658 776.23C165.799 895.599 160.212 1055.52 169.525 1234.04C171.106 1264.54 173.104 1295.88 175.216 1327.55C182.77 1440.57 191.868 1557.79 189.497 1656.3C188.083 1715.18 183.053 1768.59 169.32 1806.18C160.748 1829.65 149.031 1845.48 134.811 1855.3C119.755 1865.71 102.906 1870.57 84.9856 1873.58C23.7924 1883.64 -47.9148 1878.66 -86.0738 1950.95M1531.92 -174.156C1587.82 87.7516 1599.42 324.693 1557.14 460.386C1531.29 543.873 1482.85 564.844 1456.88 647.205C1427.97 738.244 1388.48 807.551 1340.77 856.734C1308.05 890.488 1271.44 914.768 1231.66 930.061C1153.33 960.173 1062.78 955.62 963.624 913.508C905.65 888.879 845.193 852.254 783.659 808.512C738.466 776.169 692.556 740.08 646.306 701.646C579.63 646.037 511.389 584.897 449.416 556.073C427.98 546.168 407.562 540.36 388.202 538.25C304.689 528.943 238.351 582.182 199.641 686.668C189.657 713.29 181.384 743.075 174.775 775.866C149.083 900.791 145.663 1067.27 156.905 1251.19C158.822 1282.62 161.143 1314.87 163.575 1347.41C172.267 1463.59 182.362 1583.63 180.301 1683.8C179.074 1743.68 173.87 1797.37 160.053 1835.7C151.428 1859.65 139.733 1876.16 125.683 1887.01C110.738 1898.55 93.8948 1904.61 75.9671 1908.62C14.7758 1922.11 -57.5739 1916.62 -97.0201 1988.12M1530.16 -167.251C1588.83 96.5251 1601.94 334.929 1560.03 470.005C1533.86 554.696 1484.39 574.8 1458.47 659.167C1429.71 752.336 1390.36 824.021 1342.54 874.96C1309.74 909.915 1272.92 935.106 1232.74 950.752C1153.63 981.528 1061.5 975.348 960.037 929.354C900.717 902.466 838.68 862.823 775.382 815.534C728.877 780.648 681.593 741.692 633.988 700.312C565.35 640.53 495.159 575.071 431.689 543.719C409.745 532.927 388.887 526.454 369.162 523.927C284.02 512.879 218.312 571.097 180.743 681.562C171.079 709.733 163.151 741.129 156.883 775.491C132.621 906.462 131.102 1079 144.271 1268.33C146.517 1300.67 149.174 1333.83 151.924 1367.26C161.754 1486.59 172.839 1609.45 171.097 1711.28C170.056 1772.16 164.67 1826.13 150.777 1865.22C142.099 1889.64 130.429 1906.82 116.55 1918.71C101.721 1931.41 84.884 1938.67 66.9447 1943.67C5.755 1960.59 -67.2329 1954.6 -107.97 2025.3M1528.4 -160.338C1589.85 105.296 1604.47 345.188 1562.93 479.648C1536.44 565.556 1485.93 584.782 1460.06 671.154C1431.46 766.439 1392.26 840.515 1344.33 893.223C1311.45 929.393 1274.43 955.493 1233.84 971.468C1153.93 1002.91 1060.23 995.113 956.458 945.24C895.793 916.078 832.177 873.431 767.109 822.595C719.288 785.154 670.635 743.33 621.675 699.02C551.078 635.063 478.925 565.271 413.964 531.404C391.515 519.723 370.221 512.599 350.127 509.643C263.353 496.855 198.278 560.049 161.854 676.507C152.514 706.239 144.936 739.247 138.996 775.155C116.16 912.174 116.549 1090.78 131.647 1285.51C134.22 1318.76 137.209 1352.84 140.282 1387.16C151.251 1509.65 163.326 1635.32 161.897 1738.8C161.042 1800.69 155.482 1854.94 141.506 1894.77C132.774 1919.67 121.169 1937.63 107.417 1950.45C92.7431 1964.41 75.869 1972.76 57.9227 1978.77C-3.26513 1999.13 -76.8958 1992.62 -118.92 2062.53M1526.64 -153.434C1590.85 114.055 1606.99 355.424 1565.81 489.269C1539.01 576.38 1487.47 594.737 1461.65 683.129C1433.21 780.531 1394.15 856.997 1346.11 911.46C1248.27 1022.4 1112.83 1042.15 952.875 961.099C845.279 906.575 728.125 809.211 609.366 697.698C536.807 629.567 462.704 555.454 396.246 519.06C274.07 452.155 186.419 520.654 142.969 671.409C99.5175 822.164 97.5401 1050.11 119.03 1302.65C138.525 1531.81 176.379 1796.88 132.247 1924.29C81.7717 2070 -62.0258 1991.43 -129.859 2099.7M1900.96 1547.31C1789.23 1218.8 1639.95 902.172 1487.15 669.585C1443.67 603.415 1398.31 542.182 1359.76 519.258C1248.36 453.036 1231.43 679.339 1203.05 813.708C1168.79 975.85 1137.7 1144.27 1092.77 1286.11C1067.54 1365.74 1030.67 1438.17 958.924 1377.37C886.27 1315.79 807.683 1144.05 735.43 995.687C651.238 822.804 560.867 659.166 471.089 543.799C381.311 428.431 292.007 365.815 238.631 405.879C196.834 437.257 179.82 527.194 169.562 624.693C142.615 880.884 156.167 1204.63 208.973 1566.27M1898.68 1532.31C1799.93 1241.97 1670.25 968.149 1529.59 742.528C1516.52 721.574 1503.43 701.042 1490.31 681.193C1447.21 615.999 1402.33 555.574 1364.08 532.281C1253.43 464.808 1234.22 680.269 1204.53 810.544C1178.22 926.045 1154.18 1046.83 1124.71 1158.57C1114.53 1197.47 1103.76 1235.23 1092.11 1271.32C1066.84 1349.59 1030.37 1421.08 960.172 1363.68C889.092 1305.55 812.285 1140.85 741.578 998.692C659.185 833.058 570.771 676.263 482.795 565.865C452.165 527.429 421.573 495.145 392.462 471.042C337.981 425.909 288.669 409.378 254.029 434.76C212.419 465.248 194.657 551.993 183.318 645.53C160.322 834.782 160.191 1060.8 183.038 1313.96C189.851 1389.5 198.71 1467.44 209.635 1547.55M1896.4 1517.32C1800.95 1236.66 1674.96 979.106 1532.37 753.125C1519.43 732.619 1506.47 712.363 1493.48 692.832C1450.74 628.626 1406.35 568.995 1368.4 545.322C1258.49 476.586 1237.02 681.216 1206.03 807.411C1178.81 918.263 1154.36 1036.18 1124.25 1145.95C1113.96 1184.04 1103.13 1221.09 1091.46 1256.56C1066.14 1333.48 1030.07 1404.01 961.426 1350.01C891.915 1295.32 816.889 1137.66 747.736 1001.72C667.146 843.338 580.681 693.388 494.515 587.971C464.513 551.273 434.527 520.477 405.961 497.552C352.503 454.593 303.927 439.037 269.445 463.68C228.027 493.291 209.516 576.83 197.088 666.393C171.844 847.575 168.324 1062.24 187.291 1304.64C192.949 1376.98 200.603 1451.75 210.312 1528.86M1894.13 1502.32C1801.96 1231.34 1679.68 990.042 1535.16 763.708C1522.33 743.624 1509.51 723.656 1496.66 704.455C1454.28 641.224 1410.38 582.414 1372.74 558.359C1263.57 488.371 1239.84 682.166 1207.53 804.261C1179.42 910.474 1154.33 1025.08 1123.8 1133.34C1113.34 1170.47 1102.5 1206.95 1090.81 1241.79C1065.45 1317.36 1029.78 1386.94 962.692 1336.34C894.75 1285.08 821.51 1134.48 753.902 1004.76C675.112 853.62 590.603 710.511 506.243 610.062C476.866 575.104 447.49 545.796 419.464 524.034C367.024 483.251 319.193 468.665 284.865 492.586C243.638 521.32 224.379 601.652 210.861 687.241C183.37 860.367 176.461 1063.66 191.552 1295.33C196.054 1364.45 202.508 1436.06 211.005 1510.18M1891.85 1487.34C1802.98 1226.03 1684.42 1000.96 1537.94 774.304C1525.24 754.655 1512.54 734.963 1499.82 716.092C1457.82 653.85 1414.39 595.835 1377.06 571.398C1268.63 500.16 1242.67 683.142 1209.02 801.126C1180.04 902.723 1154.43 1014.29 1123.34 1120.72C1112.74 1157.01 1101.87 1192.81 1090.15 1227.03C1064.74 1301.25 1029.49 1369.89 963.941 1322.67C897.572 1274.87 826.113 1131.3 760.052 1007.79C683.059 863.904 600.503 727.624 517.949 632.158C489.197 598.926 460.436 571.114 432.945 550.518C381.532 511.923 334.442 498.308 300.259 521.482C259.216 549.327 239.212 626.468 224.609 708.081C194.87 873.137 184.572 1065.08 195.78 1285.99C199.121 1351.9 204.375 1420.35 211.655 1491.47M1889.57 1472.34C1803.99 1220.72 1689.16 1011.85 1540.72 784.892C1528.14 765.663 1515.57 746.273 1502.99 727.718C1461.35 666.451 1418.41 609.246 1381.38 584.44C1273.7 511.951 1245.53 684.131 1210.52 797.995C1180.68 895.013 1154.55 1003.52 1122.89 1108.12C1112.17 1143.56 1101.24 1178.69 1089.51 1212.28C1064.05 1285.14 1029.2 1352.83 965.204 1309.02C900.405 1264.65 830.735 1128.13 766.215 1010.84C691.021 874.187 610.422 744.764 529.675 654.28C501.551 622.787 473.395 596.463 446.445 577.031C396.055 540.61 349.701 527.97 315.681 550.419C274.828 577.387 254.08 651.334 238.388 728.973C206.406 885.972 192.715 1066.55 200.047 1276.71C202.233 1339.42 206.282 1404.7 212.346 1472.82M1887.29 1457.34C1805 1215.39 1693.92 1022.69 1543.5 795.459C1531.05 776.649 1518.61 757.55 1506.16 739.327C1464.89 679.048 1422.43 622.638 1385.7 597.451C1278.76 523.711 1248.39 685.095 1212 794.818C1181.34 887.278 1154.66 992.699 1122.42 1095.46C1111.57 1130.05 1100.6 1164.51 1088.84 1197.47C1063.34 1268.97 1028.89 1335.71 966.443 1295.29C903.213 1254.36 835.329 1124.9 772.355 1013.82C698.959 884.416 620.317 761.835 541.372 676.321C513.877 646.566 486.331 621.73 459.921 603.476C410.549 569.23 364.941 557.561 331.07 579.275C290.409 605.366 268.908 676.107 252.131 749.771C217.901 898.7 200.821 1067.92 204.273 1267.33C205.299 1326.83 208.148 1388.95 212.999 1454.06M1885.01 1442.36C1806.02 1210.09 1698.69 1033.52 1546.28 806.057C1533.95 787.654 1521.64 768.86 1509.33 750.965C1468.42 691.662 1426.45 636.061 1390.03 610.505C1283.83 535.501 1251.28 686.142 1213.5 791.698C1182.03 879.624 1154.8 981.95 1121.97 1082.87C1110.99 1116.63 1099.97 1150.39 1088.19 1182.73C1062.65 1252.88 1028.6 1318.67 967.706 1281.65C906.049 1244.17 839.941 1121.74 778.522 1016.87C706.929 894.724 630.24 778.986 553.105 698.453C526.234 670.424 499.299 647.088 473.429 629.999C425.08 597.927 380.216 587.242 346.495 608.221C306.021 633.422 283.776 700.97 265.905 770.661C229.433 911.533 208.959 1069.39 208.532 1258.06C208.401 1314.35 210.046 1373.3 213.681 1435.41M1882.74 1427.36C1807.03 1204.76 1703.47 1044.3 1549.07 816.638C1536.86 798.641 1524.68 780.162 1512.5 762.586C1471.96 704.27 1430.47 649.479 1394.36 623.542C1288.91 547.287 1254.19 687.177 1215 788.547C1182.74 871.974 1154.92 971.171 1121.51 1070.24C1110.41 1103.15 1099.34 1136.23 1087.54 1167.96C1061.95 1236.75 1028.31 1301.59 968.963 1267.98C908.876 1233.94 844.553 1118.56 784.679 1019.91C714.885 905.004 640.149 796.11 564.82 720.546C538.578 694.255 512.253 672.404 486.919 656.481C439.596 626.596 395.469 616.873 361.903 637.13C321.62 661.453 298.626 725.795 279.67 791.525C240.95 924.327 217.087 1070.83 212.78 1248.74C211.49 1301.83 211.93 1357.6 214.357 1416.74M1880.45 1412.36C1808.04 1199.45 1708.25 1055.03 1551.85 827.223C1539.77 809.63 1527.71 791.456 1515.67 774.209C1475.49 716.87 1434.49 662.887 1398.68 636.567C1293.97 559.062 1257.12 688.239 1216.49 785.398C1183.47 864.362 1155.06 960.418 1121.06 1057.63C1109.84 1089.71 1098.71 1122.09 1086.89 1153.19C1061.25 1220.63 1028.01 1284.52 970.221 1254.31C911.702 1223.71 849.165 1115.38 790.837 1022.94C722.842 915.286 650.062 813.235 576.54 742.653C550.927 718.1 525.207 697.738 500.413 682.979C454.109 655.27 410.727 646.53 377.314 666.036C337.218 689.47 313.476 750.621 293.435 812.375C252.472 937.12 225.215 1072.25 217.033 1239.42C214.587 1289.3 213.823 1341.91 215.037 1398.04M1878.18 1397.37C1809.06 1194.14 1713.05 1065.74 1554.63 837.809C1542.67 820.607 1530.74 802.752 1518.83 785.823C1479.03 729.472 1438.51 676.284 1403 649.596C1299.03 570.84 1260.07 689.326 1217.97 782.24C1184.21 856.778 1155.2 949.656 1120.59 1044.99C1109.24 1076.24 1098.06 1107.93 1086.22 1138.41C1060.54 1204.49 1027.7 1267.43 971.462 1240.62C914.513 1213.45 853.761 1112.18 796.979 1025.95C730.786 925.546 659.96 830.338 588.239 764.726C563.25 741.898 538.136 723.024 513.887 709.442C468.605 683.907 425.964 676.14 392.706 694.925C352.797 717.483 328.31 775.425 307.18 833.205C263.969 949.881 233.319 1073.65 221.257 1230.07C217.655 1276.75 215.686 1326.19 215.684 1379.32M1875.9 1382.37C1810.07 1188.82 1717.84 1076.38 1557.41 848.391C1545.58 831.58 1533.78 814.058 1522 797.445C1482.56 742.07 1442.52 689.69 1407.32 662.62C1304.1 582.612 1263.04 690.457 1219.47 779.091C1184.98 849.238 1155.34 938.901 1120.13 1032.37C1108.68 1062.79 1097.44 1093.79 1085.57 1123.64C1059.85 1188.37 1027.42 1250.37 972.727 1226.95C917.352 1203.23 858.381 1108.98 803.149 1028.99C738.751 935.825 669.885 847.471 599.97 786.827C575.61 765.739 551.107 748.351 527.397 735.947C483.139 712.587 441.238 705.792 408.129 723.841C368.412 745.522 343.172 800.26 320.962 854.077C275.508 962.696 241.464 1075.1 225.522 1220.77C220.76 1264.23 217.591 1310.51 216.377 1360.64M1873.62 1367.39C1811.09 1183.51 1722.65 1086.98 1560.2 858.989C1548.49 842.568 1536.81 825.324 1525.17 809.083C1486.1 754.568 1446.55 703.126 1411.65 675.674C1309.17 594.402 1266.04 691.64 1220.97 775.969C1185.79 841.774 1155.5 928.2 1119.68 1019.77C1108.11 1049.37 1096.81 1079.66 1084.92 1108.88C1059.15 1172.26 1027.13 1233.3 973.981 1213.29C920.175 1193 862.989 1105.81 809.307 1032.02C746.708 946.109 679.799 864.597 611.691 808.936C587.959 789.586 564.062 773.685 540.893 762.446C497.657 741.274 456.497 735.45 423.546 752.762C384.016 773.553 358.032 825.098 334.732 874.942C287.03 975.49 249.597 1076.54 229.781 1211.46C223.862 1251.72 219.489 1294.84 217.062 1341.97M1871.35 1352.39C1812.1 1178.19 1727.45 1097.5 1562.98 869.572C1551.4 853.528 1539.85 836.63 1528.34 820.707C1489.63 767.166 1450.57 716.532 1415.97 688.698C1314.24 606.177 1269.07 692.858 1222.46 772.809C1186.61 834.308 1155.64 917.459 1119.22 1007.14C1107.54 1035.91 1096.17 1065.5 1084.26 1094.1C1058.45 1156.12 1026.83 1216.22 975.234 1199.6C922.997 1182.75 867.597 1102.61 815.461 1035.04C754.664 956.377 689.708 881.708 623.401 831.016C600.29 813.393 577.011 798.99 554.374 788.917C512.16 769.92 471.742 765.069 438.94 781.646C399.602 801.56 372.869 849.898 348.479 895.768C298.535 988.259 257.708 1077.94 234.008 1202.11C226.929 1239.16 221.356 1279.11 217.713 1323.25M1869.06 1337.39C1813.11 1172.87 1732.25 1107.97 1565.76 880.155C1554.31 864.487 1542.88 847.923 1531.5 832.33C1493.16 779.764 1454.59 729.94 1420.3 701.738C1319.31 617.965 1272.12 694.122 1223.95 769.672C1187.46 826.916 1155.81 906.755 1118.76 994.52C1106.96 1022.47 1095.54 1051.36 1083.61 1079.34C1057.75 1140.01 1026.53 1199.15 976.487 1185.93C925.824 1172.54 872.205 1099.44 821.614 1038.08C762.616 966.658 699.613 898.834 635.117 853.123C612.635 837.238 589.961 824.324 567.864 815.415C526.673 798.592 486.995 794.713 454.348 810.568C415.201 829.605 387.715 874.738 362.241 916.646C310.048 1001.07 265.833 1079.39 238.257 1192.82C230.022 1226.67 223.245 1263.45 218.389 1304.58M1866.79 1322.41C1814.13 1167.56 1737.06 1118.38 1568.54 890.737C1557.22 875.445 1545.91 859.215 1534.68 843.952C1496.7 792.361 1458.61 743.345 1424.62 714.761C1324.38 629.737 1275.21 695.436 1225.44 766.51C1188.32 819.534 1155.97 896.039 1118.3 981.89C1106.39 1009.03 1094.9 1037.21 1082.95 1064.57C1057.05 1123.87 1026.23 1182.07 977.74 1172.25C928.646 1162.29 876.808 1096.23 827.768 1041.09C770.572 976.926 709.522 915.945 646.832 875.203C624.978 861.057 602.915 849.627 581.358 841.897C541.185 827.249 502.253 824.357 469.764 839.474C430.803 857.621 402.573 899.56 376.01 937.495C321.574 1013.86 273.965 1080.82 242.51 1183.49C233.11 1214.12 225.133 1247.74 219.065 1285.88M1864.51 1307.41C1815.14 1162.24 1741.86 1128.7 1571.32 901.323C1560.12 886.393 1548.94 870.51 1537.84 855.578C1500.23 804.976 1462.65 756.905 1428.94 727.803C1329.51 641.95 1278.32 696.828 1226.93 763.377C1189.21 812.246 1156.14 885.363 1117.84 969.276C1105.82 995.604 1094.27 1023.08 1082.3 1049.8C1056.35 1107.76 1025.94 1165.01 978.994 1158.59C931.465 1152.06 881.416 1093.05 833.926 1044.13C778.529 987.21 719.436 933.07 658.552 897.31C637.323 884.89 615.87 874.962 594.853 868.396C555.707 855.936 517.511 854.002 485.171 868.384C446.398 885.655 417.42 924.389 389.771 958.348C333.088 1026.64 282.089 1082.25 246.755 1174.18C236.199 1201.6 227.018 1232.05 219.738 1267.2M1862.24 1292.42C1816.16 1156.94 1746.66 1138.97 1574.11 911.918C1563.04 897.351 1551.98 881.831 1541.02 867.215C1503.78 817.587 1466.68 770.325 1433.28 740.854C1334.59 653.738 1281.46 698.282 1228.45 760.254C1190.15 805.016 1156.34 874.708 1117.41 956.684C1105.28 982.212 1093.66 1008.96 1081.66 1035.07C1055.67 1091.66 1025.66 1147.96 980.269 1144.96C934.314 1141.88 886.05 1089.91 840.101 1047.2C786.504 997.53 729.367 950.233 670.285 919.443C649.685 908.761 628.837 900.319 608.36 894.917C570.237 884.632 532.786 883.685 500.597 897.332C462.011 913.713 432.292 949.265 403.554 979.25C344.628 1039.49 290.232 1083.73 251.022 1164.9C239.306 1189.11 228.928 1216.4 220.432 1248.55M1859.96 1277.42C1817.16 1151.61 1751.45 1149.15 1576.89 922.505C1565.94 908.299 1555.01 893.126 1544.18 878.841C1507.31 830.203 1470.69 783.736 1437.59 753.884C1339.64 665.517 1284.63 699.801 1229.92 757.096C1191.07 797.802 1156.5 864.033 1116.93 944.044C1104.71 968.773 1093.01 994.787 1080.99 1020.28C1054.96 1075.53 1025.36 1130.88 981.51 1131.26C937.124 1131.63 890.646 1086.71 846.243 1050.21C794.443 1007.78 739.259 967.321 681.983 941.513C662.012 932.569 641.775 925.617 621.834 921.38C584.729 913.27 548.019 913.294 515.983 926.205C477.588 941.709 447.121 974.056 417.294 1000.07C356.12 1052.23 298.33 1085.11 255.249 1155.55C242.378 1176.55 230.796 1200.68 221.083 1229.83M1857.68 1262.42C1818.18 1146.28 1756.24 1159.24 1579.67 933.073C1568.85 919.214 1558.05 904.417 1547.35 890.448C1510.84 842.785 1474.71 797.126 1441.92 766.906C1344.71 677.275 1287.83 701.378 1231.42 753.946C1192.04 790.647 1156.7 853.391 1116.48 931.426C1104.15 955.356 1092.38 980.646 1080.34 1005.5C1054.26 1059.39 1025.06 1113.8 982.767 1117.58C939.95 1121.38 895.253 1083.51 852.4 1053.23C802.399 1018.04 749.172 984.43 693.707 963.604C674.359 956.386 654.733 950.933 635.336 947.874C599.254 941.938 563.284 942.934 531.407 955.122C493.204 969.749 461.984 998.89 431.071 1020.93C367.654 1065.04 306.471 1086.54 259.506 1146.23C245.478 1164.03 232.692 1184.99 221.762 1211.13M1855.4 1247.44C1819.19 1140.98 1761.02 1169.25 1582.45 943.669C1571.76 930.159 1561.08 915.725 1550.52 902.086C1514.38 855.411 1478.73 810.549 1446.25 779.946C1349.78 689.052 1291.07 703.059 1232.91 750.797C1193.01 783.545 1156.89 842.75 1116.02 918.797C1103.59 941.927 1091.74 966.495 1079.68 990.728C1053.56 1043.26 1024.76 1096.72 984.02 1103.9C942.777 1111.15 899.86 1080.31 858.553 1056.24C810.351 1028.31 759.077 1001.54 705.418 985.686C686.699 980.206 667.682 976.238 648.822 974.344C613.767 970.596 578.538 972.565 546.806 984.005C508.789 997.742 476.825 1023.69 444.827 1041.76C379.163 1077.81 314.591 1087.96 263.746 1136.89C248.558 1151.48 234.572 1169.28 222.43 1192.42M1853.12 1232.44C1820.2 1135.66 1765.79 1179.17 1585.23 954.254C1574.66 941.078 1564.11 927.018 1553.68 913.71C1517.91 868.024 1482.73 823.831 1450.57 792.984C1354.78 700.443 1294.33 704.833 1234.4 747.664C1194.01 776.522 1157.09 832.136 1115.56 906.195C1103.03 928.539 1091.11 952.369 1079.03 975.978C1052.86 1027.15 1024.47 1079.66 985.278 1090.24C945.604 1100.93 904.473 1077.15 864.715 1059.29C818.316 1038.61 768.995 1018.68 717.142 1007.8C699.052 1004.06 680.641 1001.58 662.32 1000.85C628.284 999.281 593.8 1002.22 562.222 1012.94C524.393 1025.8 491.68 1048.54 458.593 1062.64C390.685 1090.63 322.72 1089.41 268 1127.6C251.656 1138.98 236.461 1153.6 223.111 1173.77M1850.85 1217.46C1821.22 1130.35 1770.55 1189.01 1588.02 964.851C1577.57 952.023 1567.15 938.339 1556.86 925.348C1521.45 880.651 1486.75 837.253 1454.9 806.023C1359.85 712.217 1297.63 706.696 1235.91 744.528C1195.05 769.562 1157.32 821.544 1115.11 893.578C1102.48 915.136 1090.49 938.23 1078.38 961.216C1052.17 1011.04 1024.17 1062.6 986.536 1076.57C948.431 1090.7 909.085 1073.97 870.874 1062.32C826.273 1048.89 778.909 1035.81 728.857 1029.9C711.388 1027.89 693.591 1026.89 675.811 1027.34C642.797 1027.94 609.049 1031.85 577.634 1041.85C539.996 1053.83 506.534 1073.37 472.358 1083.49C402.203 1103.41 330.848 1090.84 272.245 1118.27C254.741 1126.45 238.345 1137.9 223.783 1155.06M1848.57 1202.46C1822.23 1125.03 1775.29 1198.72 1590.8 975.422C1580.47 962.928 1570.18 949.621 1560.02 936.958C1524.98 893.251 1490.77 850.648 1459.22 819.051C1364.92 723.994 1300.95 708.651 1237.39 741.366C1196.08 762.629 1157.52 810.928 1114.65 880.949C1101.92 901.72 1089.85 924.066 1077.72 946.44C1051.46 994.904 1023.88 1045.52 987.785 1062.89C951.253 1080.47 913.689 1070.77 877.023 1065.34C834.221 1059.16 788.814 1052.92 740.573 1051.99C723.732 1051.72 706.541 1052.21 689.305 1053.84C657.31 1056.61 624.311 1061.51 593.042 1070.76C555.591 1081.85 521.385 1098.19 486.119 1104.35C413.721 1116.2 338.973 1092.27 276.494 1108.96C257.834 1113.93 240.234 1122.22 224.455 1136.38M1846.29 1187.46C1823.25 1119.71 1780.03 1208.33 1593.58 986.005C1583.37 973.832 1573.21 960.957 1563.19 948.583C1528.52 905.977 1494.78 864.057 1463.54 832.091C1369.98 735.784 1304.32 710.723 1238.89 738.232C1197.14 755.775 1157.75 800.378 1114.19 868.333C1101.38 888.33 1089.22 909.928 1077.07 931.678C1050.77 978.793 1023.58 1028.45 989.043 1049.23C954.08 1070.24 918.301 1067.59 883.181 1068.38C842.178 1069.43 798.728 1070.04 752.288 1074.09C736.077 1075.55 719.491 1077.53 702.795 1080.32C671.827 1085.29 639.565 1091.14 608.449 1099.67C571.19 1109.88 536.231 1123.02 499.885 1125.21C425.239 1129 347.102 1093.71 280.743 1099.64C260.923 1101.4 242.123 1106.53 225.127 1117.69M1844.01 1172.47C1824.26 1114.4 1784.74 1217.85 1596.36 996.602C1586.28 984.763 1576.25 972.275 1566.36 960.205C1532.06 918.587 1498.81 877.476 1467.87 845.114C1375.05 747.556 1307.71 712.901 1240.38 735.07C1198.21 748.961 1157.97 789.799 1113.73 855.703C1100.82 874.926 1088.58 895.775 1076.41 916.888C1050.06 962.641 1023.29 1011.37 990.291 1035.53C956.898 1059.98 922.904 1064.38 889.33 1071.38C850.125 1079.68 808.632 1087.14 763.994 1096.15C748.407 1099.34 732.436 1102.82 716.276 1106.78C686.33 1113.92 654.809 1120.76 623.843 1128.53C586.775 1137.87 551.068 1147.81 513.632 1146.02C436.743 1141.75 355.212 1095.09 284.974 1090.29C263.998 1088.84 243.994 1090.81 225.79 1098.97M1841.73 1157.47C1825.27 1109.08 1789.44 1227.25 1599.15 1007.18C1589.18 995.664 1579.29 983.567 1569.53 971.828C1535.6 931.186 1502.82 890.883 1472.19 858.153C1380.12 759.343 1311.13 715.199 1241.87 731.935C1199.29 742.228 1158.21 779.273 1113.28 843.085C1100.28 861.548 1087.95 881.636 1075.76 902.125C1049.36 946.53 1022.99 994.298 991.549 1021.87C959.725 1049.76 927.516 1061.22 895.492 1074.43C858.09 1089.98 818.55 1104.28 775.719 1118.27C760.76 1123.2 745.395 1128.17 729.775 1133.29C700.847 1142.6 670.071 1150.42 639.264 1157.47C602.383 1165.92 565.927 1172.66 527.406 1166.9C448.269 1154.56 363.345 1096.53 289.231 1080.99C267.099 1076.33 245.891 1075.13 226.47 1080.29M1839.46 1142.49C1826.29 1103.77 1794.12 1236.53 1601.93 1017.78C1592.09 1006.58 1582.32 994.877 1572.7 983.467C1539.14 943.812 1506.85 904.305 1476.52 871.193C1385.19 771.12 1314.58 717.618 1243.37 728.8C1200.38 735.55 1158.45 768.761 1112.82 830.484C1099.74 848.185 1087.32 867.512 1075.11 887.376C1048.67 930.42 1022.7 977.242 992.811 1008.22C962.561 1039.55 932.129 1058.04 901.655 1077.47C866.052 1100.27 828.464 1121.42 787.439 1140.38C773.109 1147.05 758.354 1153.5 743.266 1159.79C715.361 1171.28 685.326 1180.06 654.667 1186.38C617.974 1193.95 580.773 1197.48 541.167 1187.76C459.788 1167.37 371.47 1097.98 293.477 1071.67C270.184 1063.81 247.776 1059.44 227.139 1061.6M1837.18 1127.49C1827.31 1098.45 1798.77 1245.69 1604.71 1028.35C1594.98 1017.46 1585.36 1006.17 1575.86 995.077C1542.67 956.398 1510.86 917.7 1480.84 884.218C1390.26 782.895 1318.05 720.143 1244.86 725.638C1201.48 728.898 1158.7 758.247 1112.36 817.842C1099.19 834.783 1086.68 853.334 1074.45 872.588C1047.97 914.283 1022.4 960.148 994.064 994.523C965.383 1029.29 936.736 1054.83 907.808 1080.48C874.003 1110.53 838.373 1138.51 799.158 1162.46C785.452 1170.85 771.308 1178.81 756.764 1186.27C729.886 1199.95 700.587 1209.71 670.083 1215.29C633.576 1221.97 595.632 1222.31 554.932 1208.61C471.31 1180.16 379.598 1099.4 297.726 1062.36C273.277 1051.29 249.66 1043.74 227.815 1042.91M1834.9 1112.49C1828.31 1093.13 1803.4 1254.72 1607.49 1038.94C1597.88 1028.35 1588.39 1017.46 1579.03 1006.7C1546.21 969.008 1514.89 931.118 1485.16 897.244C1395.32 794.669 1321.54 722.792 1246.35 722.49C1202.58 722.316 1158.96 747.772 1111.9 805.224C1098.65 821.416 1086.05 839.193 1073.8 857.823C1047.27 898.157 1022.11 943.078 995.321 980.854C968.209 1019.06 941.348 1051.66 913.966 1083.51C881.964 1120.81 848.286 1155.64 810.873 1184.55C797.796 1194.68 784.262 1204.12 770.254 1212.75C744.394 1228.61 715.841 1239.34 685.495 1244.19C649.179 1250 610.482 1247.13 568.697 1229.46C482.827 1192.94 387.726 1100.83 301.974 1053.03C276.366 1038.75 251.548 1028.04 228.491 1024.22M1832.62 1097.51C1829.33 1087.83 1808.01 1263.62 1610.27 1049.53C1600.78 1039.26 1591.42 1028.78 1582.2 1018.34C1549.74 981.622 1518.9 944.542 1489.49 910.297C1400.39 806.471 1325.05 725.591 1247.84 719.356C1203.68 715.792 1159.31 737.555 1111.44 792.611C1098.13 808.118 1085.42 825.058 1073.15 843.062C1046.57 882.049 1021.81 926.013 996.571 967.188C971.032 1008.84 945.956 1048.48 920.115 1086.54C889.912 1131.09 858.191 1172.76 822.585 1206.66C810.137 1218.53 797.208 1229.46 783.74 1239.25C758.903 1257.28 731.09 1268.98 700.894 1273.1C664.77 1278.03 625.328 1271.97 582.454 1250.33C494.341 1205.75 395.847 1102.27 306.219 1043.73C279.455 1026.24 253.433 1012.37 229.163 1005.55M1830.34 1082.51C1830.34 1082.51 1812.6 1272.39 1613.06 1060.12C1413.52 847.837 1282.23 592.5 1110.99 779.992C992.665 909.561 924.349 1157.89 797.238 1265.74C744.94 1310.11 676.937 1318.21 596.224 1271.18C505.863 1218.53 403.979 1103.7 310.468 1034.4C282.543 1013.71 255.325 996.668 229.835 986.843" stroke="#D06B81" stroke-width="0.5" stroke-miterlimit="10"/>
</svg>
