<svg width="1440" height="2175" viewBox="0 0 1440 2175" fill="none" xmlns="http://www.w3.org/2000/svg">
<path d="M-104 2175C-82.3006 1965.19 -51.462 1769.59 1.02643 1616.58C18.0427 1566.97 37.4772 1521.66 64.8911 1495.53C120.791 1442.25 206.061 1471.43 276.122 1457C365.105 1438.67 429.388 1346.88 461.933 1196.11C486.419 1082.66 503.292 923.941 556.159 868.883C604.187 818.867 726.549 970.884 801.718 1021.61C878.707 1073.56 943.46 1069.49 987.726 1016.51C1010.92 988.747 1028.59 947.545 1039.47 893.764C1049.86 842.326 1044.13 754.45 1096.02 808.679C1113.18 826.604 1131.18 856.867 1148.81 880.692C1210.09 963.479 1264.42 954.44 1267.81 860.882M-102.24 2168.08C-83.3113 1956.42 -53.9876 1759.34 -1.866 1606.94C15.465 1556.13 35.9381 1511.69 63.296 1483.54C96.3671 1449.75 139.822 1444.83 184.545 1443.19C215.073 1442.06 246.196 1442.47 275.023 1436.28C331.964 1424.04 379.862 1384.85 416.877 1322.3C438.518 1285.72 456.424 1241.13 470.197 1189.05C479.925 1152.62 488.812 1111.16 498.549 1070.45C512.291 1013.33 527.743 957.745 549.357 918.479C557.102 904.341 565.638 892.308 575.182 883.17C614.669 845.49 698.068 926.599 767.637 983.696C786.318 999.093 804.004 1012.77 819.597 1021.96C883.849 1060.24 938.715 1057.71 979.534 1019.5C986.564 1012.93 993.181 1005.29 999.363 996.62C1021.42 965.704 1038.1 921.688 1048.66 866.255C1054.92 833.418 1055.35 787.322 1066.99 769.153C1074.17 757.962 1085.59 757.524 1105.15 776.949C1122.23 793.922 1140.18 822.795 1157.82 845.614C1219.1 924.96 1274.07 916.438 1278.76 823.667M-100.475 2161.18C-84.322 1947.65 -56.5084 1749.11 -4.74939 1597.33C12.8959 1545.3 34.403 1501.72 61.714 1471.58C94.632 1435.67 137.939 1428.36 182.774 1424.96C213.386 1422.63 244.716 1422.13 273.941 1415.59C331.68 1402.7 381.154 1365.12 420.468 1306.44C443.456 1272.13 462.937 1230.55 478.479 1182.02C489.518 1148.12 499.775 1109.53 510.871 1071.77C526.572 1018.83 543.982 967.557 567.087 930.806C575.341 917.556 584.313 906.188 594.226 897.465C635.342 861.527 718.11 937.657 786.53 988.763C804.887 1002.6 822.2 1014.55 837.484 1022.3C900.199 1054.07 953.268 1045.93 992.163 1002.33C998.861 994.843 1005.14 986.282 1011.01 976.732C1031.93 942.659 1047.62 895.829 1057.86 838.733C1063.93 804.893 1064.54 758.512 1076.27 739.601C1083.5 727.948 1094.95 727.027 1114.28 745.205C1131.3 761.222 1149.19 788.695 1166.84 810.521C1228.11 886.429 1283.73 878.421 1289.7 786.451M-98.7152 2154.28C-85.3289 1938.89 -59.0344 1738.86 -7.64182 1587.71C10.3223 1534.47 32.8636 1491.76 60.1186 1459.61C92.8791 1421.57 136.043 1411.88 180.989 1406.73C211.681 1403.18 243.214 1401.77 272.85 1394.9C331.378 1381.35 382.436 1345.39 424.051 1290.59C448.384 1258.54 469.323 1219.73 486.756 1174.99C499.029 1143.48 510.742 1107.93 523.184 1073.1C540.848 1024.33 560.207 977.386 584.809 943.162C593.567 930.801 602.984 920.097 613.253 911.778C656.001 877.579 738.052 948.33 805.415 993.86C823.429 1006.04 840.402 1016.44 855.368 1022.68C916.598 1048.21 967.821 1034.19 1004.78 985.19C1011.15 976.775 1017.1 967.313 1022.65 956.875C1042.42 919.646 1057.12 870.002 1067.05 811.241C1072.93 776.399 1073.71 729.735 1085.52 710.081C1092.8 697.952 1104.29 696.536 1123.4 713.505C1140.35 728.553 1158.19 754.652 1175.86 775.485C1237.13 847.953 1293.39 840.475 1300.64 749.277M-96.9553 2147.36C-86.34 1930.12 -61.5602 1728.61 -10.5388 1578.06C7.73967 1523.61 31.2278 1481.57 58.5233 1447.62C91.0255 1407.21 134.142 1395.39 179.199 1388.46C209.972 1383.72 241.707 1381.38 271.746 1374.17C331.068 1359.96 383.702 1325.61 427.621 1274.69C453.3 1244.92 475.787 1209.04 495.016 1167.92C508.583 1138.9 521.687 1106.28 535.48 1074.37C555.102 1029.78 576.419 987.148 602.518 955.452C611.784 943.978 621.642 933.939 632.27 926.038C676.647 893.58 758.037 959.233 824.291 998.903C841.976 1009.49 858.591 1018.27 873.238 1023C932.975 1042.29 982.356 1022.4 1017.39 968.009C1023.43 958.679 1029.05 948.303 1034.27 936.977C1052.91 896.592 1066.62 844.132 1076.23 783.721C1081.93 747.876 1082.89 700.941 1094.78 680.531C1102.12 667.927 1113.63 666.015 1132.51 681.763C1149.41 695.842 1167.18 720.554 1184.86 740.395C1246.13 809.423 1303.03 802.461 1311.58 712.064M-95.1945 2140.46C-87.3546 1921.35 -64.0897 1718.36 -13.4265 1568.45C5.17074 1512.79 29.6712 1471.56 56.937 1435.66C89.2643 1393.08 132.255 1378.92 177.424 1370.24C208.276 1364.28 240.214 1361.03 270.664 1353.49C330.775 1338.62 384.99 1305.9 431.209 1258.85C458.234 1231.33 482.273 1198.4 503.294 1160.9C518.155 1134.39 532.572 1104.51 547.798 1075.7C569.273 1035.05 592.751 997.232 620.244 967.808C630.054 957.311 640.313 947.849 651.311 940.363C697.32 909.645 778.044 970.216 843.185 1004C860.537 1013 876.801 1020.15 891.13 1023.38C949.384 1036.47 996.914 1010.66 1030.02 950.867C1035.73 940.609 1041.02 929.333 1045.93 917.117C1063.42 873.563 1076.14 818.288 1085.44 756.226C1090.95 719.378 1092.08 672.158 1104.05 651.006C1111.44 637.926 1122.98 635.518 1141.65 650.047C1158.48 663.156 1176.2 686.482 1193.88 705.33C1255.15 770.919 1312.69 764.472 1322.53 674.861M-93.4348 2133.54C-88.3659 1912.57 -66.6156 1708.11 -16.3192 1558.81C2.5882 1501.94 28.114 1461.55 55.3414 1423.67C87.4937 1378.92 130.363 1362.44 175.639 1351.99C206.575 1344.83 238.716 1340.66 269.564 1332.78C330.469 1317.24 386.259 1286.14 434.788 1242.97C463.158 1217.73 488.754 1187.74 511.563 1153.85C527.722 1129.84 543.517 1102.86 560.103 1077.01C583.527 1040.49 608.985 1007.07 637.962 980.138C648.28 970.543 658.975 961.718 670.337 954.663C717.975 925.685 798.034 981.175 862.07 1009.08C879.089 1016.5 894.999 1022.04 909.009 1023.73C965.775 1030.62 1011.46 998.897 1042.64 933.712C1048.02 922.539 1052.98 910.349 1057.57 897.257C1073.93 850.547 1085.65 792.458 1094.63 728.731C1099.96 690.881 1101.27 643.377 1113.32 621.482C1120.76 607.928 1132.34 605.007 1150.78 618.33C1167.55 630.455 1185.21 652.422 1202.9 670.279C1264.16 732.428 1322.36 726.509 1333.47 637.673M-91.67 2126.64C-89.368 1903.81 -69.1363 1697.88 -19.2026 1549.19C0.0235767 1491.12 26.5705 1451.57 53.7593 1411.71C85.7412 1364.81 128.481 1345.97 173.867 1333.76C204.884 1325.39 237.227 1320.31 268.487 1312.1C330.18 1295.89 387.555 1266.42 438.38 1227.13C468.092 1204.15 495.248 1177.11 519.848 1146.83C537.311 1125.32 554.484 1101.24 572.425 1078.33C597.803 1045.96 625.232 1016.93 655.693 992.479C666.519 983.785 677.655 975.611 689.381 968.972C738.652 941.735 818.042 992.158 880.968 1014.18C897.659 1020.02 913.215 1023.94 926.906 1024.11C982.188 1024.82 1026.03 987.156 1055.28 916.569C1060.32 904.481 1064.95 891.363 1069.22 877.397C1084.44 827.531 1095.17 766.626 1103.84 701.249C1108.98 662.396 1110.47 614.607 1122.6 591.97C1130.1 577.954 1141.7 574.495 1159.92 586.639C1176.63 597.779 1194.23 618.376 1211.93 635.239C1273.19 693.962 1332.02 688.547 1344.43 600.509M-89.9092 2119.74C-90.3825 1895.04 -71.6655 1687.63 -22.0985 1539.57C-2.55805 1480.28 25.0147 1441.58 52.1606 1399.72C83.9763 1350.68 126.581 1329.47 172.074 1315.5C203.171 1305.93 235.717 1299.92 267.383 1291.37C329.87 1274.5 388.825 1246.66 441.95 1211.23C473.012 1190.52 501.734 1166.45 528.109 1139.76C546.878 1120.76 565.422 1099.56 584.721 1079.61C612.048 1051.37 641.45 1026.73 673.402 1004.79C684.741 996.991 696.309 989.47 708.4 983.248C759.299 957.75 838.024 1003.12 899.844 1019.24C916.207 1023.5 931.405 1025.8 944.777 1024.45C998.585 1019.02 1040.56 975.381 1067.88 899.392C1072.59 886.377 1076.89 872.359 1080.84 857.501C1094.93 804.479 1104.67 740.759 1113.02 673.718C1117.97 633.863 1119.64 585.803 1131.85 562.411C1139.4 547.918 1151.03 543.92 1169.02 554.888C1185.67 565.029 1203.22 584.281 1220.93 600.139C1282.19 655.422 1341.66 650.522 1355.35 563.273M-88.1494 2112.82C-91.3937 1886.27 -74.1916 1677.39 -24.9872 1529.93C-5.12796 1469.44 23.4661 1431.59 50.5775 1387.75C82.2273 1336.56 124.697 1312.99 170.301 1297.26C201.478 1286.47 234.236 1279.57 266.301 1270.68C329.577 1253.15 390.112 1226.91 445.542 1195.38C477.945 1176.94 508.232 1155.83 536.386 1132.72C556.462 1116.24 576.379 1097.92 597.038 1080.93C626.319 1056.84 657.688 1036.57 691.132 1017.13C702.979 1010.23 714.988 1003.36 727.444 997.556C779.975 973.799 858.041 1014.13 918.741 1024.31C934.772 1027.01 949.624 1027.69 962.672 1024.81C1015.01 1013.24 1055.12 963.625 1080.52 882.245C1084.9 868.315 1088.87 853.383 1092.5 837.638C1105.44 781.46 1114.19 714.913 1122.23 646.22C1126.99 605.363 1128.84 557.017 1141.13 532.883C1148.74 517.915 1160.39 513.378 1178.17 523.167C1194.76 532.309 1212.23 550.204 1229.96 565.083C1291.22 616.927 1351.34 612.554 1366.32 526.092M-86.3893 2105.92C-92.4045 1877.51 -76.7213 1667.14 -27.8793 1520.31C-7.70569 1458.6 21.9139 1421.61 48.9825 1375.77C80.4702 1322.45 122.797 1296.51 168.521 1279.03C199.782 1267.03 232.738 1259.21 265.21 1249.97C329.279 1231.78 391.394 1207.17 449.124 1179.51C482.878 1163.33 514.735 1145.2 544.658 1125.67C566.046 1111.72 587.333 1096.27 609.347 1082.22C640.589 1062.29 673.918 1046.38 708.845 1029.43C721.201 1023.44 733.65 1017.22 746.466 1011.83C800.626 989.811 878.031 1025.12 937.621 1029.37C953.323 1030.49 967.821 1029.56 980.551 1025.15C1031.42 1007.48 1069.67 951.845 1093.14 865.063C1097.18 850.205 1100.82 834.372 1104.13 817.738C1115.94 758.404 1123.69 689.042 1131.42 618.699C1135.99 576.84 1138.01 528.21 1150.39 503.333C1158.05 487.89 1169.72 482.801 1187.28 491.425C1203.81 499.555 1221.22 516.038 1238.97 529.992C1300.17 578.112 1360.98 574.541 1377.25 488.864M-84.6245 2099.02C-93.4111 1868.74 -79.2384 1656.9 -30.7672 1510.7C-10.2748 1447.78 20.3745 1411.64 47.3961 1363.81C78.7222 1308.36 120.91 1280.04 166.745 1260.8C198.086 1247.59 231.245 1238.86 264.128 1229.3C328.986 1210.44 392.686 1187.46 452.712 1163.66C487.808 1149.75 521.246 1134.61 552.936 1118.65C575.635 1107.23 598.296 1094.66 621.661 1083.56C654.861 1067.79 690.148 1056.23 726.571 1041.78C739.436 1036.68 752.321 1031.13 765.506 1026.15C821.298 1005.88 898.049 1036.17 956.519 1034.48C971.894 1034.04 986.042 1031.5 998.443 1025.52C1047.85 1001.77 1084.23 940.105 1105.77 847.934C1109.49 832.162 1112.79 815.401 1115.78 797.892C1126.45 735.402 1133.21 663.224 1140.62 591.218C1145.01 548.356 1147.21 499.454 1159.67 473.822C1167.37 457.905 1179.08 452.248 1196.42 459.735C1212.88 466.838 1230.23 481.993 1248 494.967C1309.19 539.648 1370.66 536.591 1388.21 451.702M-82.8647 2092.1C-94.4222 1859.96 -81.7684 1646.64 -33.6599 1501.05C-12.8572 1436.92 18.8262 1401.64 45.8003 1351.81C76.9649 1294.23 119.018 1263.54 164.96 1242.54C196.381 1228.13 229.742 1218.47 263.028 1208.57C328.68 1189.05 393.956 1167.68 456.286 1147.76C492.732 1136.12 527.74 1123.96 561.204 1111.58C585.214 1102.68 609.249 1092.99 633.969 1084.84C669.132 1073.23 706.373 1066.01 744.288 1054.09C757.661 1049.88 770.987 1044.98 784.528 1040.41C841.949 1021.88 918.048 1047.17 975.391 1039.51C990.437 1037.51 1004.24 1033.36 1016.31 1025.84C1064.26 996.017 1098.76 928.301 1118.37 830.727C1121.76 814.027 1124.73 796.366 1127.41 777.967C1136.93 712.308 1142.71 637.329 1149.8 563.658C1154 519.793 1156.38 470.608 1168.92 444.233C1176.68 427.853 1188.41 421.616 1205.53 427.953C1221.92 434.017 1239.22 447.854 1257 459.836C1318.18 501.065 1380.3 498.55 1399.14 414.447M-81.1036 2085.2C-95.4321 1851.21 -84.0288 1636.94 -36.5516 1491.43C-15.3131 1426.34 17.2878 1391.69 44.2104 1339.85C75.222 1280.15 117.127 1247.08 163.176 1224.3C194.677 1208.68 228.245 1198.11 261.938 1187.88C328.379 1167.69 395.235 1147.95 459.87 1131.92C497.657 1122.54 534.252 1113.39 569.478 1104.56C594.804 1098.2 620.213 1091.4 646.275 1086.16C683.399 1078.71 722.592 1075.85 762.007 1066.43C775.884 1063.12 789.655 1058.88 803.559 1054.73C862.613 1037.93 938.062 1058.23 994.281 1044.6C1009 1041.04 1022.45 1035.29 1034.2 1026.22C1080.69 990.342 1113.32 916.563 1131 813.6C1134.06 795.985 1136.7 777.41 1139.05 758.123C1147.43 689.308 1152.22 611.514 1159 536.192C1163.02 491.325 1165.57 441.854 1178.19 414.737C1186.01 397.882 1197.75 391.066 1214.66 396.266C1230.98 401.29 1248.23 413.812 1266.02 424.801C1327.19 462.579 1389.95 460.591 1410.08 377.276M-79.3398 2078.3C-96.4437 1842.43 -86.5504 1626.71 -39.436 1481.81C-17.8787 1415.51 15.7524 1381.73 42.6277 1327.89C73.4861 1266.07 115.243 1230.61 161.403 1206.08C192.989 1189.25 226.756 1177.76 260.855 1167.18C328.094 1146.35 396.522 1128.21 463.461 1116.06C502.598 1108.95 540.777 1102.8 577.759 1097.52C604.409 1093.72 631.179 1089.77 658.596 1087.48C697.687 1084.2 738.825 1085.66 779.741 1078.77C794.126 1076.34 808.329 1072.76 822.603 1069.03C883.285 1053.98 958.088 1069.3 1013.19 1049.7C1027.58 1044.57 1040.67 1037.21 1052.1 1026.59C1097.16 984.685 1127.88 904.82 1143.64 796.454C1146.36 777.924 1148.67 758.436 1150.7 738.259C1157.95 666.289 1161.74 585.666 1168.21 508.693C1172.04 462.837 1174.77 413.082 1187.47 385.209C1195.34 367.878 1207.1 360.469 1223.8 364.546C1240.05 368.517 1257.24 379.75 1275.05 389.746C1336.21 424.085 1399.62 422.612 1421.04 340.096M-77.5833 2071.38C-97.454 1833.66 -89.0841 1616.45 -42.332 1472.18C-20.4559 1404.68 14.209 1371.76 41.0283 1315.9C71.7337 1251.97 113.343 1214.11 159.615 1187.83C191.28 1169.79 225.25 1157.39 259.756 1146.49C327.785 1124.99 397.796 1108.47 467.036 1100.19C507.515 1095.34 547.28 1092.21 586.024 1090.47C613.99 1089.22 642.134 1088.15 670.901 1088.79C711.959 1089.7 755.042 1095.46 797.454 1091.1C812.344 1089.56 826.992 1086.64 841.626 1083.34C903.941 1070.02 978.102 1080.38 1032.07 1054.78C1046.14 1048.11 1058.88 1039.13 1069.98 1026.94C1113.59 979.024 1142.43 893.057 1156.25 779.289C1158.64 759.831 1160.62 739.428 1162.33 718.377C1168.44 643.251 1171.24 559.813 1177.39 481.176C1181.04 434.317 1183.94 384.278 1196.72 355.662C1204.65 337.856 1216.42 329.841 1232.91 332.807C1249.1 335.725 1266.24 345.655 1284.05 354.657C1345.21 385.557 1409.27 384.612 1431.97 302.871M-75.8192 2064.48C-98.4609 1824.9 -91.8703 1605.68 -45.2162 1462.56C-23.1474 1393.59 12.6781 1361.81 39.4459 1303.94C69.9983 1237.89 111.456 1197.64 157.843 1169.6C189.588 1150.36 223.765 1137.05 258.674 1125.79C327.495 1103.63 399.087 1088.74 470.628 1084.34C512.456 1081.76 553.805 1081.65 594.31 1083.45C623.6 1084.76 653.109 1086.54 683.218 1090.11C726.243 1095.19 771.272 1105.28 815.184 1103.44C830.578 1102.79 845.671 1100.53 860.67 1097.64C924.613 1086.07 998.137 1091.47 1050.96 1059.86C1064.71 1051.63 1077.11 1041.05 1087.87 1027.31C1130.06 973.382 1156.98 881.302 1168.88 762.144C1170.94 741.772 1172.59 720.454 1173.99 698.514C1178.96 620.231 1180.77 533.979 1186.6 453.69C1190.07 405.829 1193.15 355.505 1206 326.149C1213.98 307.881 1225.77 299.245 1242.05 301.114C1258.16 302.967 1275.28 311.7 1293.08 319.616C1354.31 347.383 1418.94 346.648 1442.94 265.706M-74.0549 2057.57C-99.472 1816.13 -94.396 1595.43 -48.1086 1452.93C-25.7251 1382.76 11.1343 1351.84 37.8503 1291.95C68.254 1223.8 109.564 1181.16 156.053 1151.34C187.879 1130.88 222.262 1116.66 257.578 1105.07C327.189 1082.25 400.361 1068.97 474.206 1068.45C517.376 1068.14 560.316 1071.05 602.578 1076.39C633.189 1080.25 664.067 1084.92 695.527 1091.4C740.518 1100.67 787.492 1115.06 832.901 1115.76C848.799 1116 864.333 1114.4 879.696 1111.93C945.272 1102.09 1018.17 1102.55 1069.84 1064.93C1083.27 1055.15 1095.32 1042.98 1105.75 1027.66C1146.51 967.741 1171.53 869.536 1181.5 744.975C1183.23 723.675 1184.54 701.458 1185.62 678.641C1189.46 597.202 1190.27 508.135 1195.8 426.182C1199.07 377.318 1202.33 326.724 1215.26 296.612C1223.3 277.868 1235.09 268.613 1251.17 269.385C1267.2 270.159 1284.28 277.628 1302.1 284.552C1363.32 308.88 1428.59 308.659 1453.88 228.503M-72.299 2050.66C-100.487 1807.36 -96.9259 1585.18 -51.0053 1443.3C-28.3075 1371.91 9.59518 1341.88 36.2552 1279.98C66.5103 1209.72 107.668 1164.68 154.268 1133.1C186.178 1111.44 220.761 1096.3 256.479 1084.37C326.883 1060.88 401.636 1049.24 477.776 1052.58C522.296 1054.54 566.82 1060.49 610.838 1069.34C642.774 1075.77 675.017 1083.3 707.823 1092.71C754.79 1106.18 803.697 1124.86 850.606 1128.07C867.012 1129.2 882.987 1128.27 898.714 1126.22C965.923 1118.12 1038.19 1113.65 1088.72 1070C1101.82 1058.69 1113.53 1044.9 1123.62 1028.01C1162.98 962.128 1186.07 857.773 1194.11 727.822C1195.51 705.608 1196.5 682.476 1197.25 658.771C1199.95 574.177 1199.77 482.282 1204.98 398.692C1208.07 348.825 1211.51 297.946 1224.52 267.092C1232.61 247.873 1244.4 237.987 1260.29 237.672C1276.23 237.355 1293.28 243.559 1311.1 249.49C1372.33 270.391 1438.24 270.687 1464.81 191.306M-70.5344 2043.76C-101.494 1798.6 -99.4468 1574.95 -53.8889 1433.68C-30.8722 1361.09 8.07306 1331.94 34.6729 1268C64.7793 1195.64 105.785 1148.2 152.496 1114.86C184.486 1091.99 219.271 1075.94 255.4 1063.68C326.594 1039.53 402.927 1029.49 481.377 1036.73C527.238 1040.95 573.358 1049.94 619.128 1062.32C652.385 1071.32 686.002 1081.71 720.149 1094.03C769.083 1111.68 819.931 1134.65 868.341 1140.41C885.251 1142.43 901.67 1142.17 917.758 1140.53C986.595 1134.17 1058.24 1124.76 1107.62 1075.08C1120.4 1062.22 1131.76 1046.84 1141.52 1028.37C1179.47 956.522 1200.63 846.017 1206.74 710.665C1207.81 687.523 1208.47 663.477 1208.9 638.896C1210.46 551.133 1209.29 456.436 1214.18 371.182C1217.09 320.313 1220.7 269.15 1233.79 237.54C1241.93 217.845 1253.73 207.327 1269.42 205.928C1285.28 204.519 1302.29 209.472 1320.12 214.398C1381.34 231.86 1447.9 232.67 1475.76 154.089M-68.7737 2036.85C-102.504 1789.83 -101.972 1564.7 -56.7806 1424.07C-33.4496 1350.26 6.5386 1322 33.0825 1256.04C63.0444 1181.58 103.893 1131.73 150.716 1096.64C182.79 1072.56 217.774 1055.59 254.306 1042.99C326.293 1018.18 404.206 1009.77 484.952 1020.87C532.164 1027.37 579.867 1039.39 627.394 1055.29C661.975 1066.85 696.957 1080.11 732.455 1095.35C783.36 1117.2 836.144 1144.46 886.059 1152.76C903.473 1155.65 920.334 1156.06 936.79 1154.84C1007.26 1150.23 1078.28 1135.89 1126.51 1080.18C1138.97 1065.78 1149.99 1048.79 1159.4 1028.74C1195.94 950.921 1215.18 834.268 1219.37 693.525C1220.1 669.468 1220.42 644.509 1220.55 619.038C1220.96 528.118 1218.8 430.607 1223.38 343.689C1226.09 291.818 1229.89 240.382 1243.06 208.017C1251.25 187.847 1263.05 176.684 1278.55 174.227C1294.32 171.713 1311.3 175.415 1329.14 179.361C1390.36 193.383 1457.56 194.71 1486.71 116.915M-67.0139 2029.94C-103.515 1781.05 -104.498 1554.45 -59.6737 1414.42C-36.024 1339.41 5.00762 1312.04 31.4867 1244.04C61.3044 1167.48 101.997 1115.22 148.927 1078.36C181.077 1053.07 216.271 1035.19 253.21 1022.26C325.987 996.782 405.484 990 488.53 1004.97C537.083 1013.73 586.382 1028.8 635.666 1048.21C671.567 1062.34 707.919 1078.47 744.763 1096.63C797.635 1122.68 852.364 1154.22 903.78 1165.06C921.698 1168.84 939.003 1169.92 955.82 1169.11C1027.92 1166.24 1098.33 1146.99 1145.4 1085.23C1157.54 1069.29 1168.21 1050.69 1177.28 1029.07C1212.43 945.313 1229.73 822.486 1231.99 676.341C1232.39 651.356 1232.39 625.495 1232.19 599.136C1231.47 505.06 1228.32 404.734 1232.58 316.165C1235.11 263.292 1239.08 211.571 1252.33 178.464C1260.58 157.832 1272.37 146.011 1287.68 142.481C1303.36 138.864 1320.31 141.326 1338.16 144.267C1399.38 154.849 1467.22 156.692 1497.66 79.6973M-65.2492 2023.04C-104.522 1772.29 -107.024 1544.2 -62.5612 1404.8C-38.6012 1328.57 3.47746 1302.1 29.9005 1232.08C59.5782 1153.43 100.106 1098.75 147.151 1060.14C179.385 1033.65 214.783 1014.85 252.124 1001.57C325.694 975.428 406.763 970.261 492.118 989.128C542.021 1000.16 592.908 1018.27 643.944 1041.19C681.17 1057.9 718.891 1076.89 757.077 1097.95C811.92 1128.2 868.581 1164.01 921.503 1177.4C939.924 1182.06 957.67 1183.8 974.852 1183.41C1048.59 1182.28 1118.38 1158.13 1164.28 1090.32C1176.11 1072.84 1186.44 1052.64 1195.17 1029.44C1228.93 939.734 1244.28 810.735 1244.61 659.188C1244.68 633.289 1244.34 606.514 1243.82 579.267C1241.96 482.034 1237.82 378.893 1241.77 288.66C1244.11 234.784 1248.26 182.779 1261.59 148.93C1269.89 127.823 1281.68 115.345 1296.8 110.755C1312.38 106.02 1329.3 107.244 1347.17 109.205C1408.38 116.349 1476.87 118.719 1508.59 42.4996M-63.489 2016.13C-105.537 1763.52 -109.549 1533.97 -65.4496 1395.18C-41.1709 1317.75 2.08565 1292.44 28.3138 1220.12C57.9948 1139.68 98.223 1082.3 145.375 1041.92C177.689 1014.21 213.29 994.504 251.038 980.894C325.397 954.088 408.05 950.547 495.705 973.281C546.95 986.569 599.43 1007.74 652.221 1034.17C690.773 1053.46 729.859 1075.3 769.39 1099.28C826.201 1133.74 884.725 1173.53 939.229 1189.76C958.132 1195.21 976.342 1197.71 993.888 1197.73C1069.25 1198.34 1138.44 1169.28 1183.17 1095.41C1194.69 1076.4 1204.66 1054.59 1213.06 1029.82C1245.42 934.167 1258.84 798.995 1257.24 642.058C1256.98 615.244 1256.31 587.543 1255.47 559.419C1252.48 459.03 1247.34 353.062 1250.97 261.178C1253.13 206.299 1257.45 154.023 1270.86 119.418C1279.22 97.8355 1291 84.7008 1305.93 79.0513C1321.42 73.1995 1338.31 73.1845 1356.19 74.1532C1417.4 77.8564 1486.53 80.7434 1519.54 5.30936M-61.7289 2009.22C-106.544 1754.75 -112.075 1523.72 -68.3419 1385.55C-43.7488 1306.9 0.54158 1282.46 26.7183 1208.13C56.2463 1125.57 96.3268 1065.8 143.59 1023.66C175.988 994.755 211.787 974.129 249.942 960.177C325.095 932.706 409.324 930.779 499.279 957.395C551.874 972.956 605.938 997.174 660.485 1027.11C700.362 1048.98 740.85 1073.85 781.695 1100.58C840.524 1139.48 900.95 1183.33 956.942 1202.08C976.349 1208.41 995.004 1211.58 1012.92 1212.02C1089.91 1214.37 1158.49 1180.41 1202.06 1100.48C1213.26 1079.93 1222.89 1056.53 1230.93 1030.15C1261.92 928.573 1273.38 787.217 1269.85 624.877C1269.26 597.135 1268.26 568.533 1267.1 539.521C1262.97 435.976 1256.84 327.192 1260.16 233.657C1262.13 177.776 1266.63 125.216 1280.12 89.8682C1288.53 67.81 1300.3 54.0187 1315.05 47.3213C1330.44 40.3406 1347.32 39.1118 1365.21 39.0747C1426.41 39.3392 1496.19 42.7534 1530.49 -31.8938M-59.9684 2002.32C-107.554 1745.99 -114.605 1513.48 -71.2383 1375.92C-46.3264 1296.07 -1.00171 1272.49 25.1236 1196.16C54.494 1111.47 94.4314 1049.32 141.801 1005.42C174.275 975.294 210.286 953.755 248.848 939.475C324.793 911.341 410.603 911.041 502.859 941.524C556.795 959.345 612.455 986.634 668.758 1020.06C709.956 1044.52 751.809 1072.23 794.004 1101.87C854.8 1144.96 917.171 1193.12 974.664 1214.39C994.579 1221.62 1013.68 1225.45 1031.95 1226.31C1110.57 1230.39 1178.56 1191.55 1220.94 1105.55C1231.83 1083.46 1241.12 1058.46 1248.82 1030.5C1278.43 922.99 1287.93 775.451 1282.48 607.721C1281.56 579.065 1280.23 549.548 1278.75 519.647C1273.47 412.947 1266.36 301.348 1269.35 206.15C1271.14 149.266 1275.81 96.4216 1289.39 60.3316C1297.85 37.7979 1309.61 23.337 1324.18 15.5931C1339.45 7.47041 1356.32 5.02739 1374.23 4.01044C1435.43 0.834831 1505.84 4.76617 1541.43 -69.0941M-58.2036 1995.41C-108.565 1737.22 -117.125 1503.24 -74.1218 1366.3C-48.8956 1285.23 -2.53194 1262.53 23.5374 1184.18C52.7548 1097.38 92.5442 1032.84 140.025 987.179C172.579 955.841 208.792 933.394 247.757 918.772C324.492 889.975 411.886 891.301 506.442 925.665C561.729 945.759 618.972 976.093 677.032 1013.02C719.555 1040.07 762.764 1070.61 806.313 1103.19C869.068 1150.45 933.397 1202.94 992.378 1226.72C1012.8 1234.84 1032.34 1239.33 1050.98 1240.61C1131.23 1246.43 1198.62 1202.68 1239.83 1110.63C1250.4 1087.01 1259.35 1060.41 1266.7 1030.87C1294.93 917.436 1302.47 763.701 1295.09 590.568C1293.84 560.984 1292.18 530.567 1290.38 499.777C1283.97 389.908 1275.86 275.508 1278.54 178.645C1280.14 120.759 1284.99 67.6436 1298.65 30.7977C1307.17 7.80267 1318.9 -7.35418 1333.3 -16.1329C1348.47 -25.3845 1365.32 -29.0413 1383.23 -31.064C1444.43 -37.6796 1515.49 -33.2325 1552.37 -106.293M-56.4438 1988.5C-109.576 1728.45 -119.656 1492.98 -77.0143 1356.67C-51.4693 1274.4 -4.07177 1252.56 21.946 1172.21C51.0103 1083.29 90.6521 1016.36 138.249 968.94C170.887 936.401 207.299 913.031 246.67 898.067C324.203 868.618 413.168 871.545 510.029 909.79C566.657 932.145 625.54 965.764 685.304 1005.96C729.181 1035.75 773.722 1068.97 818.626 1104.49C883.343 1155.92 949.626 1212.74 1010.11 1239.04C1031.03 1248.04 1051.01 1253.2 1070.01 1254.89C1151.89 1262.46 1218.86 1214.18 1258.71 1115.69C1269.02 1090.63 1277.58 1062.33 1284.58 1031.21C1311.44 911.836 1317.03 751.918 1307.72 573.398C1306.14 542.899 1304.14 511.555 1302.03 479.889C1294.47 366.863 1285.38 249.648 1287.75 151.134C1289.16 92.2586 1294.19 38.8449 1307.92 1.2572C1316.49 -22.2133 1328.21 -38.0385 1342.43 -47.8663C1357.49 -58.2714 1374.34 -63.1306 1392.26 -66.1461C1453.45 -76.2005 1525.16 -71.2249 1563.32 -143.512M-54.6837 1981.59C-110.583 1719.69 -122.177 1482.74 -79.9026 1347.05C-54.0474 1263.56 -5.61154 1242.59 20.3549 1160.23C49.2661 1069.19 88.7644 999.885 136.468 950.702C169.186 916.947 205.801 892.668 245.583 877.375C323.905 847.264 414.455 851.816 513.616 893.928C571.59 918.557 632.048 955.182 693.581 998.924C738.774 1031.27 784.684 1067.36 830.934 1105.79C897.61 1161.4 965.851 1222.54 1027.83 1251.36C1049.26 1261.27 1069.68 1267.08 1089.04 1269.19C1172.55 1278.49 1238.89 1225.25 1277.6 1120.77C1287.59 1094.15 1295.86 1064.36 1302.47 1031.57C1328.16 906.644 1331.58 740.166 1320.34 556.242C1318.42 524.816 1316.1 492.57 1313.67 460.029C1304.98 343.847 1294.88 223.804 1296.94 123.639C1298.17 63.7609 1303.37 10.0635 1317.19 -28.2672C1325.82 -52.2133 1337.51 -68.7199 1351.56 -79.5696C1366.51 -91.1154 1383.35 -97.1767 1401.28 -101.184C1462.47 -114.678 1534.82 -109.187 1574.26 -180.687M-52.9193 1974.69C-111.594 1710.91 -124.698 1472.51 -82.7906 1337.43C-56.6167 1252.74 -7.1464 1232.64 18.7726 1148.27C47.5263 1055.1 86.8772 983.415 134.696 932.475C167.494 897.52 204.32 872.329 244.496 856.683C323.612 825.908 415.742 832.088 517.204 878.081C576.523 904.97 638.56 944.612 701.858 991.902C748.363 1026.79 795.647 1065.75 843.252 1107.12C911.89 1166.91 982.081 1232.37 1045.55 1263.72C1067.5 1274.51 1088.36 1280.98 1108.08 1283.51C1193.22 1294.56 1258.93 1236.34 1296.5 1125.88C1306.16 1097.7 1314.09 1066.31 1320.36 1031.95C1344.62 900.974 1346.14 728.438 1332.97 539.111C1330.73 506.77 1328.07 473.611 1325.32 440.18C1315.49 320.843 1304.4 197.985 1306.15 96.1564C1307.19 35.2753 1312.57 -18.6941 1326.47 -57.7795C1335.14 -82.2011 1346.81 -99.3878 1360.69 -111.274C1375.52 -123.973 1392.36 -131.237 1410.3 -136.237C1471.49 -153.157 1544.48 -147.163 1585.21 -217.863M-51.1631 1967.78C-112.608 1702.14 -127.232 1462.25 -85.6871 1327.79C-59.1988 1241.88 -8.69005 1222.66 17.1775 1136.28C45.7782 1041 84.9813 966.921 132.907 914.214C165.785 878.044 202.814 851.944 243.401 835.968C323.306 804.53 417.012 812.324 520.782 862.196C581.448 891.358 645.063 934.004 710.131 984.84C757.952 1022.28 806.605 1064.11 855.565 1108.42C926.162 1172.37 998.315 1242.17 1063.28 1276.03C1085.73 1287.71 1107.02 1294.84 1127.12 1297.79C1213.89 1310.58 1278.96 1247.39 1315.39 1130.93C1324.73 1101.2 1332.31 1068.19 1338.25 1032.28C1361.08 895.263 1360.69 716.658 1345.6 521.928C1343.02 488.672 1340.03 454.599 1336.96 420.281C1325.99 297.787 1313.92 172.114 1315.35 68.6342C1316.2 6.75048 1321.76 -47.5027 1335.74 -87.3312C1344.47 -112.229 1356.07 -130.197 1369.83 -143.018C1384.5 -156.974 1401.37 -165.325 1419.32 -171.33C1480.51 -191.69 1554.14 -185.181 1596.16 -255.094M-49.399 1960.87C-113.615 1693.38 -129.754 1452.01 -88.5754 1318.17C-61.7683 1231.06 -10.2295 1212.7 15.5862 1124.31C44.0338 1026.91 83.0891 950.438 131.126 895.976C228.971 785.033 364.411 765.282 524.365 846.336C631.961 900.86 749.115 998.224 867.874 1109.74C940.433 1177.87 1014.54 1251.98 1081 1288.38C1203.17 1355.28 1290.82 1286.78 1334.27 1136.03C1377.73 985.271 1379.7 757.326 1358.21 504.788C1338.72 275.624 1300.86 10.5617 1345 -116.853C1395.47 -262.568 1539.27 -183.996 1607.1 -292.266M-423.719 260.128C-311.99 588.638 -162.716 905.264 -9.90878 1137.85C33.5649 1204.02 78.9274 1265.26 117.482 1288.18C228.879 1354.4 245.811 1128.1 274.194 993.728C308.45 831.586 339.534 663.17 384.469 521.326C409.695 441.692 446.57 369.262 518.316 430.064C590.97 491.642 669.558 663.384 741.811 811.749C826.002 984.633 916.373 1148.27 1006.15 1263.64C1095.93 1379.01 1185.24 1441.62 1238.61 1401.56C1280.41 1370.18 1297.42 1280.24 1307.68 1182.74C1334.63 926.553 1321.08 602.803 1268.27 241.166M-421.441 275.13C-322.696 565.47 -193.015 839.288 -52.3461 1064.91C-39.2818 1085.86 -26.1914 1106.39 -13.0733 1126.24C30.0339 1191.44 74.9111 1251.86 113.158 1275.16C223.81 1342.63 243.019 1127.17 272.704 996.891C299.021 881.391 323.06 760.611 352.529 648.868C362.708 609.971 373.479 572.207 385.129 536.117C410.402 457.844 446.87 386.359 517.068 443.761C588.148 501.889 664.955 666.591 735.662 808.745C818.055 974.378 906.469 1131.17 994.445 1241.57C1025.08 1280.01 1055.67 1312.29 1084.78 1336.4C1139.26 1381.53 1188.57 1398.06 1223.21 1372.68C1264.82 1342.19 1282.59 1255.44 1293.93 1161.91C1316.92 972.655 1317.05 746.636 1294.21 493.476C1287.39 417.937 1278.53 339.999 1267.61 259.884M-419.164 290.115C-323.712 570.777 -197.719 828.331 -55.1318 1054.31C-42.1901 1074.82 -29.2302 1095.07 -16.2436 1114.61C26.4968 1178.81 70.8887 1238.44 108.837 1262.12C218.752 1330.85 240.222 1126.22 271.209 1000.03C298.431 889.173 322.88 771.261 352.989 661.483C363.275 623.398 374.114 586.344 385.783 550.879C411.099 473.954 447.168 403.426 515.814 457.428C585.325 512.12 660.351 669.781 729.504 805.712C810.094 964.097 896.56 1114.05 982.725 1219.47C1012.73 1256.16 1042.72 1286.96 1071.28 1309.88C1124.74 1352.84 1173.32 1368.4 1207.8 1343.76C1249.22 1314.15 1267.73 1230.61 1280.16 1141.04C1305.4 959.861 1308.92 745.197 1289.95 502.793C1284.29 430.461 1276.64 355.687 1266.93 278.574M-416.887 305.113C-324.723 576.096 -202.443 817.394 -57.9174 1043.73C-45.0935 1063.81 -32.2684 1083.78 -19.4178 1102.98C22.9561 1166.21 66.862 1225.02 104.503 1249.08C213.673 1319.07 237.396 1125.27 269.71 1003.18C297.82 896.961 322.914 782.36 353.436 674.101C363.902 636.963 374.735 600.484 386.429 565.642C411.792 490.079 447.458 420.494 514.548 471.098C582.49 522.353 655.731 672.961 723.338 802.681C802.129 953.816 886.637 1096.93 970.997 1197.37C1000.38 1232.33 1029.75 1261.64 1057.78 1283.4C1110.22 1324.19 1158.05 1338.77 1192.38 1314.85C1233.6 1286.12 1252.86 1205.78 1266.38 1120.2C1293.87 947.069 1300.78 743.772 1285.69 512.111C1281.19 442.987 1274.74 371.378 1266.24 297.255M-414.61 320.099C-325.738 581.404 -207.178 806.477 -60.6981 1033.13C-47.9965 1052.78 -35.2979 1072.47 -22.5833 1091.35C19.4238 1153.59 62.8446 1211.6 100.183 1236.04C208.607 1307.28 234.566 1124.29 268.22 1006.31C297.201 904.712 322.809 793.146 353.9 686.717C364.495 650.427 375.37 614.623 387.088 580.405C412.495 506.19 447.752 437.549 513.299 484.766C579.668 532.571 651.127 676.139 717.189 799.648C794.181 943.533 876.737 1079.81 959.291 1175.28C988.043 1208.51 1016.81 1236.32 1044.3 1256.92C1095.71 1295.51 1142.8 1309.13 1176.98 1285.95C1218.03 1258.11 1238.03 1180.97 1252.63 1099.36C1282.37 934.299 1292.67 742.356 1281.46 521.45C1278.12 455.533 1272.87 387.089 1265.59 315.968M-412.329 335.095C-326.75 586.721 -211.922 795.588 -63.4802 1022.55C-50.9004 1041.77 -38.3329 1061.16 -25.7539 1079.72C15.8867 1140.99 58.8258 1198.19 95.8569 1223C203.536 1295.49 231.713 1123.31 266.724 1009.44C296.555 912.424 322.685 803.92 354.35 699.317C365.074 663.876 375.995 628.746 387.733 595.152C413.187 522.299 448.041 454.602 512.036 498.42C576.836 542.788 646.506 679.303 711.025 796.6C786.219 933.249 866.818 1062.67 947.566 1153.16C975.689 1184.65 1003.85 1210.97 1030.8 1230.41C1081.19 1266.83 1127.54 1279.47 1161.56 1257.02C1202.41 1230.05 1223.16 1156.1 1238.86 1078.46C1270.84 921.465 1284.53 740.889 1277.2 530.725C1275.01 468.016 1270.96 402.736 1264.9 334.618M-410.051 350.096C-327.765 592.044 -216.679 784.75 -66.2601 1011.98C-53.8063 1030.79 -41.3658 1049.89 -28.9188 1068.11C12.3509 1128.39 54.809 1184.8 91.5372 1209.99C198.475 1283.73 228.851 1122.34 265.238 1012.62C295.898 920.157 322.577 814.736 354.819 711.974C365.672 677.382 376.64 642.925 388.402 609.968C413.899 538.464 448.349 471.725 510.797 512.142C574.027 553.074 641.912 682.535 704.886 793.621C778.281 923.02 856.923 1045.6 935.868 1131.12C963.363 1160.87 990.909 1185.71 1017.32 1203.96C1066.69 1238.21 1112.3 1249.88 1146.17 1228.16C1186.83 1202.07 1208.33 1131.33 1225.11 1057.67C1259.34 908.736 1276.42 739.514 1272.97 540.107C1271.94 480.604 1269.1 418.489 1264.24 353.375M-407.775 365.08C-328.777 597.349 -221.45 773.914 -69.0419 1001.38C-56.7096 1019.78 -44.396 1038.58 -32.089 1056.47C8.81839 1115.78 50.7907 1171.38 87.2117 1196.93C193.408 1271.94 225.96 1121.3 263.738 1015.74C295.21 927.812 322.441 825.487 355.27 724.563C366.247 690.806 377.269 657.049 389.048 624.704C414.591 554.56 448.639 488.765 509.534 525.783C571.191 563.265 637.299 685.699 698.719 790.562C770.311 912.713 847 1028.45 924.135 1108.98C951.006 1137.01 977.941 1160.35 1003.81 1177.44C1052.16 1209.51 1097.03 1220.19 1130.75 1199.22C1171.22 1174.01 1193.47 1106.47 1211.34 1036.78C1247.81 895.902 1268.28 738.047 1268.71 549.381C1268.84 493.086 1267.2 434.135 1263.56 372.023M-405.497 380.081C-329.792 602.672 -226.231 763.14 -71.8267 990.797C-59.62 1008.8 -47.4379 1027.27 -35.2584 1044.85C5.27804 1103.17 46.7648 1157.96 82.8829 1183.9C188.334 1260.15 223.046 1120.26 262.244 1018.89C294.502 935.462 322.315 836.265 355.726 737.195C366.828 704.287 377.9 671.203 389.703 639.481C415.289 570.686 448.934 505.849 508.277 539.453C568.365 573.498 632.687 688.879 692.561 787.531C762.355 902.432 837.091 1011.33 912.42 1086.89C938.662 1113.18 964.987 1135.03 990.321 1150.96C1037.65 1180.84 1081.77 1190.56 1115.34 1170.31C1155.62 1145.98 1178.62 1081.64 1197.57 1015.91C1236.29 883.109 1260.16 736.608 1264.46 558.698C1265.75 505.609 1265.31 449.837 1262.89 390.701M-403.215 395.079C-330.803 607.991 -231.011 752.408 -74.6075 980.213C-62.5264 997.806 -50.4677 1015.98 -38.4283 1033.23C1.74583 1090.57 42.7471 1144.55 78.5583 1170.87C183.268 1248.38 220.119 1119.2 260.749 1022.04C293.772 943.073 322.176 847.018 356.182 749.811C367.403 717.727 378.531 685.342 390.354 654.244C415.987 586.811 449.228 522.917 507.02 553.122C565.538 583.73 628.075 692.057 686.403 784.499C754.398 892.149 827.178 994.202 900.701 1064.78C926.314 1089.34 952.033 1109.7 976.827 1124.46C1023.13 1152.17 1066.52 1160.91 1099.93 1141.4C1140.02 1117.97 1163.77 1056.82 1183.81 995.061C1224.77 870.316 1252.03 735.182 1260.21 568.015C1262.66 518.134 1263.42 465.525 1262.21 409.393M-400.943 410.063C-331.823 613.298 -235.811 741.695 -77.3895 969.628C-65.4336 986.829 -53.502 1004.69 -41.5901 1021.61C-1.78701 1077.97 38.7331 1131.15 74.241 1157.84C178.205 1236.6 217.174 1118.11 259.267 1025.2C293.032 950.657 322.044 857.781 356.654 762.449C367.995 731.201 379.178 699.502 391.02 669.029C416.697 602.944 449.534 540.008 505.779 566.812C562.728 593.984 623.479 695.257 680.261 781.488C746.454 881.89 817.281 977.099 889.002 1042.71C913.99 1065.54 939.104 1084.41 963.353 1098C1008.64 1123.53 1051.28 1131.3 1084.54 1112.51C1124.45 1089.95 1148.93 1032.01 1170.06 974.231C1213.27 857.556 1243.92 733.789 1255.99 577.363C1259.59 530.69 1261.56 481.246 1261.56 428.116M-398.661 425.062C-332.834 618.619 -240.605 731.055 -80.1703 959.045C-68.3396 975.856 -56.5356 993.378 -44.7593 1009.99C-5.31861 1065.37 34.716 1117.75 69.917 1144.82C173.136 1224.83 214.196 1116.98 257.772 1028.35C292.255 958.199 321.901 868.536 357.106 775.068C368.563 744.644 379.804 713.643 391.667 683.795C417.391 619.071 449.82 557.065 504.513 580.485C559.888 604.207 618.859 698.454 674.091 778.446C738.489 871.611 807.355 959.965 877.27 1020.61C901.63 1041.7 926.133 1059.09 949.843 1071.49C994.102 1094.85 1036 1101.65 1069.11 1083.6C1108.83 1061.92 1134.07 1007.18 1156.28 953.359C1201.74 844.741 1235.78 732.34 1251.72 586.671C1256.48 543.204 1259.65 496.925 1260.87 446.799M-396.385 440.046C-333.846 623.923 -245.407 720.457 -82.9561 948.447C-71.2547 964.868 -59.5693 982.112 -47.9301 998.352C-8.85693 1052.87 30.6886 1104.31 65.5868 1131.76C168.065 1213.04 211.194 1115.8 256.268 1031.47C291.446 965.661 321.739 879.237 357.556 787.67C369.129 758.07 380.43 727.781 392.321 698.555C418.088 635.18 450.114 574.132 503.259 594.151C557.065 614.436 614.251 701.63 667.933 775.413C730.532 861.327 797.441 942.839 865.55 998.501C889.281 1017.85 913.178 1033.75 936.348 1044.99C979.584 1066.16 1020.75 1071.99 1053.7 1054.67C1093.23 1033.88 1119.21 982.338 1142.51 932.494C1190.21 831.946 1227.65 730.9 1247.46 595.973C1253.38 555.714 1257.75 512.599 1260.18 465.462M-394.107 455.046C-334.861 629.245 -250.21 709.933 -85.7368 937.864C-74.1602 953.909 -62.6069 970.807 -51.0993 986.729C-12.3926 1040.27 26.6713 1090.9 61.2667 1118.74C163.003 1201.26 208.169 1114.58 254.782 1034.63C290.63 973.129 321.595 889.977 358.016 800.3C369.701 771.526 381.065 741.934 392.976 713.332C418.79 651.318 450.413 591.214 502.006 607.833C554.243 624.682 609.643 704.822 661.78 772.394C722.576 851.06 787.532 925.729 853.839 976.421C876.95 994.044 900.229 1008.45 922.866 1018.52C965.08 1037.52 1005.5 1042.37 1038.3 1025.79C1077.64 1005.88 1104.37 957.538 1128.76 911.668C1178.71 819.177 1219.54 729.497 1243.24 605.325C1250.31 568.273 1255.89 528.323 1259.53 484.189M-391.825 470.045C-335.872 634.566 -255.012 699.467 -88.5175 927.281C-77.0658 942.949 -65.6363 959.513 -54.2646 975.106C-15.9244 1027.67 22.6539 1077.5 56.942 1105.7C157.933 1189.47 205.117 1113.31 253.288 1037.76C289.784 980.52 321.43 900.682 358.476 812.917C370.277 784.966 381.7 756.072 393.631 728.095C419.488 667.43 450.707 608.283 500.753 621.502C551.416 634.901 605.036 708 655.626 769.361C714.624 840.777 777.627 908.603 842.123 954.313C864.606 970.198 887.279 983.113 909.376 992.022C950.567 1008.85 990.245 1012.72 1022.9 996.868C1062.04 977.831 1089.53 932.698 1115 890.789C1167.19 806.368 1211.41 728.042 1238.99 614.613C1247.22 580.769 1254 543.982 1258.85 502.852M-389.552 485.031C-336.891 639.874 -259.82 689.06 -91.3026 916.699C-79.9798 931.992 -68.6741 948.222 -57.4384 963.484C-19.4647 1015.08 18.6321 1064.09 52.6173 1092.68C152.863 1177.7 202.031 1112 251.797 1040.93C288.92 987.901 321.27 911.398 358.936 825.546C370.848 798.406 382.334 770.224 394.286 742.871C420.19 683.567 451.006 625.364 499.5 635.184C548.594 645.145 600.432 711.205 649.473 766.342C706.668 830.509 767.718 891.491 830.408 932.234C852.262 946.38 874.325 957.808 895.882 965.539C936.055 980.186 974.987 983.079 1007.48 967.961C1046.44 949.815 1074.67 907.875 1101.23 869.941C1155.67 793.577 1203.28 726.618 1234.73 623.944C1244.13 593.319 1252.11 559.698 1258.18 521.557M-387.271 500.029C-337.899 645.192 -264.619 678.734 -94.0797 906.113C-82.8814 921.044 -71.6996 936.925 -60.6 951.858C-22.9931 1002.46 14.5941 1050.53 48.2964 1079.63C147.729 1165.49 198.922 1110.61 250.306 1044.06C288.03 995.19 321.099 922.074 359.396 838.161C371.415 811.833 382.969 784.361 394.941 757.632C420.888 699.677 451.3 642.431 498.246 648.851C545.775 655.374 595.824 714.382 643.315 763.309C698.711 820.227 757.804 874.367 818.689 910.126C839.918 922.547 861.371 932.475 882.388 939.041C921.533 951.501 959.73 953.434 992.069 939.052C1030.84 921.781 1059.82 883.048 1087.47 849.089C1144.16 780.794 1195.15 725.189 1230.49 633.258C1241.04 605.84 1250.23 575.384 1257.51 540.232M-384.998 515.014C-338.919 650.499 -269.42 668.466 -96.8698 895.517C-85.7959 910.085 -74.7428 925.605 -63.7788 940.222C-26.5384 989.849 10.5631 1037.11 43.9582 1066.58C142.649 1153.7 195.775 1109.16 248.794 1047.18C287.092 1002.42 320.903 932.728 359.834 850.753C371.956 825.224 383.582 798.475 395.578 772.37C421.572 715.776 451.581 659.474 496.971 662.481C542.926 665.555 591.19 717.523 637.139 760.238C690.737 809.906 747.873 857.204 806.955 887.994C827.555 898.676 848.403 907.116 868.88 912.518C907.003 922.804 944.454 923.752 976.643 910.105C1015.23 893.724 1044.95 858.171 1073.69 828.186C1132.62 767.948 1187.01 723.709 1226.22 642.535C1237.94 618.324 1248.32 591.033 1256.81 558.884M-382.717 530.012C-339.926 655.831 -274.215 658.283 -99.6469 884.931C-88.7016 899.138 -77.7727 914.31 -66.9407 928.595C-30.067 977.234 6.55329 1023.7 39.6454 1053.55C137.595 1141.92 192.613 1107.64 247.316 1050.34C286.166 1009.63 320.737 943.402 360.306 863.392C372.531 838.663 384.233 812.649 396.245 787.155C422.282 731.91 451.883 676.553 495.73 676.173C540.116 675.81 586.595 720.724 630.998 757.229C682.797 799.66 737.981 840.115 795.257 865.922C815.228 874.866 835.465 881.82 855.406 886.056C892.511 894.166 929.221 894.142 961.257 881.231C999.652 865.727 1030.12 833.381 1059.95 807.37C1121.12 755.202 1178.91 722.33 1221.99 651.886C1234.87 630.882 1246.45 606.756 1256.16 577.609M-380.439 545.012C-340.94 661.153 -278.999 648.198 -102.427 874.363C-91.6059 888.221 -80.806 903.018 -70.1096 916.987C-33.6024 964.651 2.53241 1010.31 35.3173 1040.53C132.526 1130.16 189.41 1106.06 245.817 1053.49C285.202 1016.79 320.537 954.046 360.758 876.01C373.085 852.081 384.86 826.79 396.896 801.934C422.981 748.05 452.178 693.636 494.473 689.857C537.29 686.057 581.988 723.931 624.84 754.211C674.841 789.393 728.068 823.005 783.534 843.832C802.881 851.05 822.508 856.503 841.904 859.563C877.986 865.498 913.956 864.502 945.833 852.314C984.037 837.688 1015.26 808.546 1046.17 786.51C1109.59 742.4 1170.77 720.894 1217.74 661.205C1231.76 643.409 1244.55 622.446 1255.48 596.302M-378.162 559.997C-341.952 666.459 -283.781 638.184 -105.213 863.766C-94.5156 877.276 -83.8402 891.711 -73.2798 905.35C-37.1394 952.024 -1.48586 996.887 30.9921 1027.49C127.464 1118.39 186.174 1104.38 244.327 1056.64C284.224 1023.89 320.346 964.686 361.222 888.639C373.652 865.508 385.495 840.942 397.555 816.709C423.683 764.173 452.481 710.716 493.22 703.538C534.464 696.289 577.38 727.123 618.687 751.192C666.889 779.124 718.163 805.893 771.823 821.751C790.541 827.23 809.558 831.197 828.419 833.091C863.474 836.84 898.703 834.871 930.435 823.431C968.451 809.695 1000.42 783.746 1032.42 765.672C1098.08 729.631 1162.65 719.48 1213.5 670.546C1228.68 655.957 1242.67 638.159 1254.81 615.019M-375.881 574.996C-342.963 671.78 -288.548 628.266 -107.99 853.182C-97.4163 866.358 -86.8698 880.417 -76.4453 893.726C-40.6718 939.411 -5.48783 983.604 26.6714 1014.45C122.458 1106.99 182.912 1102.6 242.836 1059.77C283.224 1030.92 320.145 975.301 361.677 901.242C374.206 878.898 386.125 855.067 398.206 831.458C424.38 780.285 452.77 727.772 491.962 717.194C531.637 706.508 572.768 730.288 612.525 748.148C658.924 768.83 708.245 788.756 760.098 799.632C778.188 803.373 796.599 805.852 814.92 806.582C848.956 808.155 883.441 805.215 915.018 794.498C952.847 781.637 985.56 758.894 1018.65 744.794C1086.56 716.811 1154.52 718.026 1209.24 679.835C1225.59 668.453 1240.78 653.833 1254.13 633.669M-373.608 589.981C-343.983 677.087 -293.314 618.431 -110.779 842.586C-100.33 855.414 -89.9126 869.097 -79.6198 882.089C-44.2131 926.785 -9.5102 970.183 22.342 1001.41C117.387 1095.22 179.61 1100.74 241.332 1062.91C282.189 1037.88 319.923 985.892 362.128 913.859C374.755 892.301 386.751 869.206 398.856 846.221C425.073 796.395 453.064 744.839 490.704 730.862C528.81 716.739 568.155 733.466 606.366 745.114C650.967 758.547 698.331 771.631 748.383 777.537C765.852 779.551 783.649 780.546 801.43 780.097C834.443 779.496 868.191 775.582 899.606 765.589C937.244 753.605 970.706 734.069 1004.89 723.943C1075.04 704.03 1146.39 716.599 1205 689.163C1222.5 680.987 1238.9 669.532 1253.46 652.372M-371.327 604.979C-344.994 682.407 -298.051 608.718 -113.556 832.015C-103.231 844.509 -92.9378 857.816 -82.785 870.478C-47.7452 914.186 -13.5279 956.789 18.0212 988.386C112.321 1083.44 176.285 1098.79 239.846 1066.07C281.158 1044.81 319.718 996.507 362.592 926.486C375.318 905.715 387.394 883.369 399.515 860.995C425.779 812.531 453.363 761.92 489.455 744.542C525.987 726.97 563.552 736.67 600.217 742.093C643.019 748.276 688.426 754.518 736.667 755.443C753.508 755.719 770.699 755.225 787.935 753.599C819.93 750.822 852.929 745.925 884.199 736.68C921.649 725.586 955.855 709.243 991.121 703.091C1063.52 691.235 1138.27 715.171 1200.75 698.478C1219.41 693.51 1237.01 685.219 1252.79 671.061M-369.05 619.978C-346.009 687.728 -302.786 599.104 -116.337 821.431C-106.131 833.603 -95.9728 846.48 -85.9509 858.854C-51.2849 901.459 -17.5417 943.379 13.696 975.346C107.255 1071.65 172.92 1096.71 238.351 1069.2C280.099 1051.66 319.491 1007.06 363.048 939.102C375.863 919.106 388.024 897.508 400.165 875.758C426.473 828.643 453.657 778.988 488.198 758.211C523.16 737.201 558.939 739.848 594.059 739.061C635.062 738.008 678.513 737.393 724.952 733.348C741.164 731.886 757.749 729.905 774.445 727.115C805.413 722.151 837.675 716.294 868.791 707.771C906.05 697.554 941.009 684.416 977.355 682.226C1052 678.44 1130.14 713.73 1196.5 707.793C1216.32 706.032 1235.12 700.906 1252.12 689.75M-366.772 634.964C-347.021 693.034 -307.502 589.586 -119.123 810.835C-109.04 822.674 -99.0154 835.162 -89.1205 847.231C-54.8254 888.849 -21.5676 929.961 9.37173 962.322C102.185 1059.88 169.528 1094.54 236.861 1072.37C279.032 1058.48 319.27 1017.64 363.508 951.733C376.417 932.51 388.659 911.66 400.825 890.548C427.18 844.794 453.952 796.071 486.949 771.907C520.342 747.46 554.336 743.054 587.91 736.055C627.115 727.753 668.608 720.296 713.246 711.282C728.833 708.093 744.804 704.613 760.964 700.657C790.91 693.519 822.431 686.675 853.397 678.902C890.465 669.562 926.172 659.63 963.608 661.415C1040.5 665.686 1122.03 712.342 1192.27 717.147C1213.25 718.593 1233.25 716.631 1251.45 708.467M-364.495 649.964C-348.036 698.356 -312.198 580.19 -121.908 800.253C-111.945 811.771 -102.049 823.869 -92.2897 835.609C-58.357 876.251 -25.5849 916.554 5.047 949.284C97.1151 1048.09 166.108 1092.24 235.366 1075.5C277.951 1065.21 319.034 1028.16 363.964 964.35C376.962 945.887 389.29 925.8 401.48 905.311C427.877 860.905 454.25 813.139 485.691 785.562C517.516 757.679 549.724 746.219 581.748 733.011C619.15 717.459 658.691 703.159 701.522 689.162C716.48 684.236 731.845 679.268 747.465 674.148C776.393 664.834 807.169 657.019 837.977 649.969C874.858 641.519 911.314 634.78 949.835 640.54C1028.97 652.88 1113.9 710.904 1188.01 726.451C1210.14 731.106 1231.35 732.308 1250.77 727.145M-362.218 664.948C-349.052 703.662 -316.88 570.902 -124.69 789.654C-114.85 800.852 -105.079 812.559 -95.4604 823.97C-61.8986 863.624 -29.6075 903.132 0.721527 936.243C92.0487 1036.32 162.661 1089.82 233.866 1078.64C276.855 1071.89 318.785 1038.68 364.414 976.952C377.498 959.251 389.915 939.924 402.125 920.06C428.57 877.016 454.536 830.194 484.429 799.217C514.679 767.884 545.112 749.396 575.585 729.964C611.189 707.163 648.776 686.02 689.801 667.054C704.131 660.389 718.886 653.935 733.975 647.648C761.879 636.16 791.915 627.373 822.573 621.058C859.266 613.484 896.467 609.952 936.073 619.673C1017.46 640.07 1105.77 709.461 1183.77 735.764C1207.06 743.625 1229.47 747.992 1250.1 745.832M-359.941 679.947C-350.067 708.983 -321.532 561.751 -127.47 779.085C-117.745 789.975 -108.117 801.268 -98.6255 812.36C-65.4261 851.038 -33.6206 889.737 -3.60297 923.218C86.9829 1024.54 159.19 1087.29 232.376 1081.8C275.759 1078.54 318.537 1049.19 364.879 989.595C378.052 972.654 390.555 954.103 402.785 934.849C429.272 893.153 454.839 847.288 483.176 812.913C511.858 778.143 540.504 752.602 569.432 726.959C603.237 696.908 638.868 668.922 678.082 644.976C691.788 636.585 705.933 628.63 720.476 621.167C747.354 607.491 776.653 597.73 807.157 592.151C843.664 585.468 881.609 585.129 922.308 598.822C1005.93 627.277 1097.65 708.034 1179.52 745.079C1203.97 756.148 1227.58 763.692 1249.43 764.523M-357.659 694.945C-351.074 714.302 -326.162 552.721 -130.251 768.501C-120.645 779.085 -111.147 789.974 -101.796 800.737C-68.9668 838.428 -37.6469 876.318 -7.92352 910.192C81.917 1012.77 155.699 1084.64 230.885 1084.95C274.656 1085.12 318.283 1059.66 365.334 1002.21C378.589 986.02 391.185 968.242 403.435 949.612C429.97 909.278 455.129 864.358 481.919 826.582C509.031 788.376 535.892 755.781 563.274 723.927C595.276 686.627 628.954 651.798 666.367 622.882C679.444 612.753 692.979 603.312 706.986 594.683C732.846 578.831 761.4 568.1 791.746 563.245C828.061 557.438 866.758 560.304 908.543 577.973C994.413 614.498 1089.52 706.609 1175.27 754.41C1200.88 768.685 1225.7 779.394 1248.75 783.215M-355.382 709.931C-352.089 719.609 -330.772 543.814 -133.032 757.904C-123.541 768.179 -114.185 778.654 -104.961 789.098C-72.4989 825.814 -41.6605 862.895 -12.2485 897.139C76.8466 1000.97 152.188 1081.85 229.395 1088.08C273.557 1091.64 317.929 1069.88 365.798 1014.83C379.111 999.318 391.824 982.379 404.094 964.373C430.672 925.388 455.431 881.424 480.67 840.249C506.208 798.593 531.284 758.959 557.125 720.893C587.328 676.343 619.049 634.672 654.656 600.773C667.104 588.905 680.032 577.977 693.5 568.184C718.337 550.158 746.15 538.454 776.346 534.333C812.47 529.404 851.912 535.463 894.786 557.106C982.899 601.688 1081.4 705.166 1171.02 763.71C1197.79 781.193 1223.81 795.066 1248.08 801.89M-353.105 724.93C-353.105 724.93 -335.357 535.042 -135.817 747.321C63.7231 959.6 195.014 1214.94 366.25 1027.44C484.576 897.875 552.891 649.549 680.002 541.701C732.301 497.33 800.303 489.23 881.017 536.257C971.377 588.909 1073.26 703.741 1166.78 773.039C1194.7 793.729 1221.92 810.769 1247.41 820.594" stroke="#D18695" stroke-width="0.5" stroke-miterlimit="10"/>
</svg>
