<svg width="1440" height="4956" viewBox="0 0 1440 4956" fill="none" xmlns="http://www.w3.org/2000/svg">
<path d="M2631.07 -2058.82C2505.06 -1415.66 2371.3 -820.018 2223.15 -364.783C2175.12 -217.18 2125.28 -83.8505 2071.67 -13.0677C1962.36 131.272 1844.43 8.50784 1730.55 26.906C1585.93 50.2399 1446.74 310.966 1330.18 766.755C1242.47 1109.73 1146.45 1596.12 1041 1747.12C945.21 1884.28 824.646 1366.2 731.731 1180.37C636.562 990.056 535.411 978.282 444.082 1126.07C396.236 1203.51 350.908 1324.76 310.458 1487.62C271.777 1643.39 241.745 1918.37 186.083 1730.44C167.686 1668.32 153.446 1567.58 136.918 1486.97C79.4782 1206.85 -7.8793 1214.42 -54.4249 1503.59M2625.31 -2038.01C2502.73 -1388.04 2370.65 -787.249 2223.34 -333.79C2174.29 -182.573 2123.24 -52.3193 2068.82 24.7502C2003.15 117.19 1934.3 116.068 1864.96 104.307C1817.62 96.2964 1770.05 83.2985 1723.08 91.6335C1630.31 108.147 1539.5 211.766 1455.07 392.004C1405.7 497.406 1358.52 629.071 1314.38 785.559C1283.35 895.001 1251.39 1020.37 1218.47 1143.08C1172.14 1315.21 1123.87 1481.96 1073.35 1595.71C1055.22 1636.68 1036.81 1670.82 1018.13 1695.59C940.891 1797.68 848.775 1514.42 767.266 1310.93C745.408 1256.08 724.314 1206.96 704.454 1172.53C622.786 1029.48 537.488 1016.63 457.974 1119.86C444.282 1137.62 430.757 1158.83 417.439 1183.42C369.945 1271.09 324.898 1401.44 284.193 1569.55C260.087 1669.14 239.059 1812.08 213.157 1864.1C197.209 1896.14 179.48 1893.19 158.063 1825.51C139.351 1766.37 124.571 1669.97 107.587 1592.47C48.6301 1323.03 -39.4787 1328.76 -87.6584 1615M2619.55 -2017.25C2500.41 -1360.43 2369.99 -754.526 2223.51 -302.84C2173.44 -147.965 2121.19 -20.7898 2065.97 62.4826C1999.59 161.552 1929.91 167.908 1859.62 161.554C1811.62 157.243 1763.33 146.994 1715.6 156.278C1621.32 174.512 1528.8 272.526 1442.55 439.89C1392.12 537.726 1343.85 659.467 1298.56 804.279C1266.65 905.333 1233.86 1021.28 1200.14 1134.34C1152.66 1292.77 1103.29 1445.37 1051.6 1550.75C1033.08 1588.78 1014.29 1620.68 995.227 1644.03C916.261 1740.09 822.91 1472.53 740.518 1288.07C718.467 1238.2 697.186 1194.55 677.158 1164.75C594.975 1042.45 509.954 1047.71 431.009 1168.41C417.423 1189.13 404.005 1213.34 390.782 1240.77C343.633 1338.67 298.867 1478.13 257.915 1651.53C233.652 1754.3 212.225 1898.06 185.873 1952.35C169.632 1985.8 151.645 1984.34 130.029 1920.61C110.989 1864.47 95.6835 1772.43 78.2437 1698.02C17.7762 1439.25 -71.0976 1443.14 -120.899 1726.41M2613.8 -1996.48C2498.08 -1332.85 2369.34 -721.756 2223.7 -271.89C2172.61 -113.398 2119.15 10.6982 2063.12 100.257C1996.05 205.998 1925.54 219.79 1854.3 218.843C1805.64 218.274 1756.64 210.772 1708.13 220.924C1612.34 240.918 1518.12 333.287 1430.05 487.733C1378.55 578.046 1329.28 690.641 1282.76 822.958C1250 916.156 1216.32 1022.11 1181.84 1125.55C1133.19 1270.29 1082.74 1408.74 1029.87 1505.71C1010.97 1540.78 991.789 1570.46 972.358 1592.42C891.656 1682.47 797.03 1431.88 713.794 1265.13C691.538 1220.52 670.091 1181.84 649.887 1156.83C567.222 1054.48 482.438 1078.67 404.077 1216.86C390.591 1240.59 377.277 1267.72 364.157 1298.03C317.36 1406.15 272.875 1554.73 231.676 1733.41C207.256 1839.37 185.437 1983.94 158.628 2040.5C142.095 2075.41 123.852 2075.48 102.027 2015.59C82.6603 1962.48 66.8264 1874.73 48.9302 1803.39C-13.0545 1555.3 -102.681 1557.3 -154.115 1837.69M2608.04 -1975.67C2495.75 -1305.23 2368.69 -688.986 2223.88 -240.855C2171.77 -78.7043 2117.15 42.9728 2060.27 138.075C1992.55 251.272 1921.17 271.713 1848.98 276.217C1799.67 279.345 1749.94 274.634 1700.67 285.693C1603.37 307.449 1507.43 394.214 1417.55 535.744C1364.99 618.491 1314.63 721.413 1266.96 841.804C1233.32 926.781 1198.8 1023.1 1163.53 1116.98C1113.72 1248.02 1062.18 1372.32 1008.13 1460.88C988.841 1493.01 969.28 1520.46 949.481 1540.98C867.049 1625.01 771.186 1390.49 687.062 1242.35C664.607 1202.8 642.994 1169.29 622.612 1149.08C539.48 1066.67 454.925 1109.8 377.135 1265.45C363.747 1292.14 350.538 1322.23 337.522 1355.42C291.077 1473.77 246.866 1631.46 205.419 1815.39C180.842 1924.52 158.629 2069.87 131.365 2128.75C114.539 2165.11 96.0334 2166.71 74.0137 2110.69C54.3138 2060.62 37.9598 1977.19 19.6071 1908.93C-43.8948 1671.53 -134.279 1671.68 -187.335 1949.1M2602.29 -1954.91C2493.44 -1277.62 2368.04 -656.224 2224.06 -209.907C2170.93 -44.1405 2115.12 74.6232 2057.42 175.805C1989.01 295.797 1916.79 323.55 1843.65 333.461C1793.68 340.331 1743.24 338.367 1693.19 350.293C1594.39 373.81 1496.75 454.927 1405.04 583.584C1351.42 658.808 1299.98 751.972 1251.16 860.477C1216.64 937.19 1181.32 1024.5 1145.22 1108.19C1094.31 1226.31 1041.58 1334.85 986.39 1415.83C966.701 1444.72 946.779 1470.23 926.597 1489.32C842.43 1567.34 745.342 1348.85 660.325 1219.41C637.679 1184.91 615.885 1156.58 595.326 1141.16C511.731 1078.56 427.402 1140.75 350.182 1313.9C336.901 1343.6 323.797 1376.61 310.87 1412.68C264.778 1541.3 220.841 1708.11 179.146 1897.28C154.411 2009.59 131.8 2155.76 104.086 2216.91C86.9676 2254.73 68.199 2257.86 45.985 2205.72C25.9515 2158.67 9.0775 2079.57 -9.73155 2014.39C-74.7439 1787.66 -165.887 1785.98 -220.576 2060.47M2596.54 -1934.1C2491.11 -1250 2367.39 -623.455 2224.24 -178.914C2170.1 -9.49135 2113.09 106.277 2054.57 213.622C1985.47 340.409 1912.4 375.434 1838.32 390.794C1787.69 401.363 1736.53 402.19 1685.72 415.021C1585.41 440.3 1486.07 515.812 1392.53 631.511C1337.85 699.169 1285.33 782.622 1235.36 879.239C1199.95 947.689 1163.79 1025.49 1126.92 1099.49C1074.84 1204.04 1021.02 1298.18 964.655 1370.87C944.584 1396.77 924.274 1420.14 903.724 1437.75C817.827 1509.75 719.513 1307.29 633.595 1196.51C610.759 1167.07 588.797 1143.86 568.05 1133.32C483.997 1090.54 399.887 1171.79 323.237 1362.4C310.055 1395.06 297.056 1431.04 284.231 1469.95C238.491 1608.79 194.835 1784.71 152.887 1979.17C127.995 2094.67 104.992 2241.65 76.8206 2305.08C59.4166 2344.35 40.3658 2349.05 17.9631 2300.74C-2.40973 2256.77 -19.7991 2181.92 -39.0578 2119.81C-105.587 1903.76 -197.489 1900.19 -253.799 2171.79M2590.78 -1913.34C2488.78 -1222.43 2366.73 -590.732 2224.41 -147.964C2169.25 25.0751 2111.04 137.846 2051.71 251.355C1981.92 384.894 1908.02 427.274 1832.99 448.041C1781.7 462.351 1729.83 465.925 1678.24 479.623C1576.42 506.663 1475.36 576.531 1380.02 679.354C1324.28 739.487 1270.66 813.187 1219.54 897.918C1183.24 958.108 1146.25 1026.4 1108.6 1090.75C1055.36 1181.69 1000.44 1261.47 942.904 1325.87C922.451 1348.78 901.753 1369.96 880.828 1386.15C793.195 1452.13 693.669 1265.65 606.851 1173.57C583.823 1149.14 561.687 1131.11 540.757 1125.41C456.252 1102.35 372.35 1202.75 296.277 1410.86C283.193 1446.48 270.302 1485.46 257.579 1527.21C212.19 1676.28 168.809 1861.32 126.613 2061.01C101.563 2179.7 78.1615 2327.5 49.5403 2393.2C31.8428 2433.89 12.5186 2440.25 -10.068 2395.68C-30.787 2354.79 -48.6837 2284.21 -68.3988 2225.18C-136.44 2019.77 -229.099 2014.4 -287.043 2283.04M2585.03 -1892.58C2486.46 -1194.82 2366.09 -557.969 2224.6 -116.978C2168.42 59.7203 2109.02 169.451 2048.87 289.165C1978.38 429.415 1903.64 479.192 1827.67 505.408C1775.72 523.416 1723.13 529.78 1670.77 544.388C1567.44 573.19 1464.68 637.411 1367.52 727.36C1310.71 779.929 1256 843.834 1203.74 916.759C1166.55 968.647 1128.73 1027.48 1090.3 1082.13C1035.89 1159.49 979.892 1224.91 921.171 1280.99C900.329 1300.91 879.256 1319.9 857.955 1334.66C768.593 1394.62 667.854 1224.08 580.124 1150.74C556.904 1131.33 534.601 1118.47 513.488 1117.61C428.528 1114.19 344.843 1233.82 269.348 1459.43C256.371 1498.06 243.583 1539.96 230.95 1584.6C185.914 1743.89 142.807 1938.04 100.364 2143.02C75.1565 2264.89 51.3618 2413.46 22.2847 2481.48C4.29488 2523.62 -15.3092 2531.65 -38.0731 2490.82C-59.1371 2453.05 -77.5437 2386.67 -97.7141 2330.76C-167.272 2136.03 -260.689 2128.82 -320.254 2394.52M2579.27 -1871.77C2484.13 -1167.2 2365.43 -525.2 2224.78 -85.9817C2167.58 94.3329 2106.98 201.067 2046.01 326.947C1974.83 473.907 1899.25 531.081 1822.33 562.704C1769.72 584.454 1716.41 593.525 1663.29 609.037C1558.46 639.6 1453.98 698.218 1355 775.207C1297.13 820.251 1241.34 874.361 1187.93 935.481C1149.85 979.067 1111.19 1028.43 1071.98 1073.39C1016.41 1137.14 959.326 1188.24 899.42 1236C878.197 1252.93 856.736 1269.73 835.06 1283.06C743.962 1337 642.008 1182.36 553.375 1127.85C529.969 1113.44 507.484 1105.72 486.19 1109.74C400.788 1125.92 317.307 1264.83 242.381 1507.9C229.503 1549.49 216.821 1594.35 204.291 1641.87C159.607 1811.39 116.782 2014.69 74.0842 2224.92C48.7264 2349.97 24.526 2499.36 -5.0011 2569.65C-23.2834 2613.25 -43.1676 2622.94 -66.1155 2585.85C-87.5313 2551.21 -106.44 2489.06 -127.068 2436.19C-198.136 2252.14 -292.319 2243.04 -353.512 2505.81M2573.52 -1851C2481.81 -1139.63 2364.79 -492.432 2224.96 -55.0317C2166.74 128.941 2104.95 232.636 2043.16 364.721C1971.29 518.395 1894.88 582.961 1817 619.996C1763.74 645.445 1709.71 657.304 1655.81 673.726C1549.47 706.051 1443.29 759.023 1342.49 823.138C1283.56 860.618 1226.67 904.891 1172.12 954.246C1133.14 989.489 1093.65 1029.43 1053.67 1064.74C996.928 1114.83 938.761 1151.66 877.68 1191.13C856.075 1205.06 834.226 1219.68 812.181 1231.57C719.354 1279.5 616.191 1140.71 526.641 1105.04C503.044 1095.64 480.391 1093.05 458.908 1101.95C373.062 1137.64 289.787 1295.92 215.432 1556.48C202.653 1601.09 190.076 1648.87 177.65 1699.26C133.316 1879.01 90.766 2091.43 47.8274 2306.89C22.3121 2435.12 -2.2803 2585.33 -32.2643 2657.9C-50.8389 2702.95 -71.0021 2714.35 -94.1283 2680.95C-115.895 2649.48 -135.321 2591.74 -156.39 2541.73C-229.021 2369.26 -323.911 2357.42 -386.737 2617.27M2567.76 -1830.24C2479.48 -1112.01 2364.12 -459.706 2225.15 -24.0844C2165.9 163.505 2102.9 264.163 2040.31 402.451C1967.74 562.794 1890.5 634.799 1811.67 677.24C1757.75 706.431 1703.01 721.037 1648.33 738.327C1540.49 772.412 1432.6 819.739 1329.98 870.977C1269.99 900.933 1211.99 935.332 1156.32 972.92C1116.45 999.819 1076.12 1030.3 1035.37 1055.95C977.459 1092.39 918.208 1114.98 855.942 1146.08C833.95 1157.07 811.725 1169.45 789.298 1179.92C694.734 1221.83 590.362 1098.85 499.903 1082.05C476.12 1077.62 453.291 1080.16 431.622 1094.04C345.33 1149.15 262.256 1326.87 188.478 1604.9C175.805 1652.46 163.334 1703.25 151.003 1756.48C107.022 1946.46 64.7455 2167.99 21.56 2388.74C-4.1126 2520.15 -29.1047 2671.14 -59.5376 2746.02C-78.3979 2792.53 -98.8526 2805.67 -122.153 2775.89C-144.276 2747.63 -164.199 2694.04 -185.726 2647.06C-259.867 2485.27 -355.522 2471.59 -419.968 2728.5M2562 -1809.43C2477.15 -1084.39 2363.47 -426.895 2225.32 6.95292C2165.07 198.199 2100.86 295.777 2037.45 440.313C1964.19 607.324 1886.11 686.726 1806.34 734.617C1751.76 767.505 1696.31 784.902 1640.86 803.099C1531.5 838.947 1421.91 880.668 1317.47 918.991C1256.41 941.382 1197.32 965.945 1140.51 991.77C1099.74 1010.32 1058.58 1031.34 1017.05 1047.34C957.967 1070.12 897.639 1078.48 834.195 1101.21C811.821 1109.21 789.208 1119.41 766.413 1128.48C670.121 1164.38 564.537 1057.16 473.171 1059.32C449.202 1059.86 426.198 1067.53 404.349 1086.33C317.609 1160.82 234.745 1358.04 161.537 1653.57C148.964 1704.14 136.598 1757.84 124.363 1813.95C80.7348 2014.2 38.7385 2244.8 -4.70047 2470.84C-30.5305 2605.43 -55.9146 2757.24 -86.8044 2834.39C-105.958 2882.31 -126.703 2897.26 -150.176 2871.12C-172.647 2846.12 -193.076 2796.63 -215.059 2752.73C-290.71 2601.66 -387.125 2586.05 -453.205 2840.04M2556.25 -1788.67C2474.83 -1056.83 2362.65 -395.93 2225.51 37.8983C2164.16 231.985 2098.82 327.261 2034.61 478.041C1960.65 651.682 1881.74 738.562 1801.02 791.901C1745.78 828.53 1689.61 848.676 1633.39 867.739C1522.53 905.347 1411.23 941.421 1304.97 966.828C1242.85 981.695 1182.66 996.298 1124.71 1010.44C1083.05 1020.61 1041.05 1032.16 998.753 1038.59C938.499 1047.72 877.1 1041.84 812.465 1056.2C789.71 1061.25 766.707 1069.22 743.538 1076.87C645.509 1106.75 538.72 1015.26 446.441 1036.37C422.285 1041.88 399.107 1054.68 377.07 1078.41C289.881 1172.24 207.228 1388.99 134.597 1701.97C122.123 1755.51 109.861 1812.18 97.7304 1871.17C54.4537 2081.64 12.7317 2321.36 -30.9552 2552.64C-56.9427 2690.42 -82.7256 2843.04 -114.065 2922.46C-133.512 2971.84 -154.54 2988.58 -178.186 2966.05C-201.013 2944.3 -221.94 2898.92 -244.373 2858.1C-321.533 2717.75 -418.714 2700.25 -486.415 2951.32M2550.5 -1767.9C2472.51 -1029.21 2362 -363.202 2225.68 68.8531C2163.31 266.556 2096.78 358.75 2031.75 515.778C1957.09 696.048 1877.35 790.407 1795.68 849.153C1739.79 889.482 1682.9 912.416 1625.91 932.388C1513.54 971.717 1400.53 1002.23 1292.45 1014.72C1229.27 1022.02 1167.97 1026.71 1108.89 1029.17C1066.33 1030.91 1023.51 1033.08 980.43 1029.85C919.003 1025.29 856.529 1005.25 790.708 1011.21C767.565 1013.31 744.188 1019.09 720.643 1025.27C620.884 1049.13 512.883 973.364 419.69 1013.44C395.341 1023.91 371.995 1041.85 349.771 1070.5C262.124 1183.6 179.691 1419.95 107.631 1750.44C95.2617 1806.94 83.1062 1866.57 71.0716 1928.44C28.1467 2149.14 -13.3 2398.01 -57.2348 2634.54C-83.3807 2775.45 -109.555 2928.89 -141.351 3010.63C-161.09 3061.47 -182.408 3080.04 -206.222 3061.08C-229.41 3042.63 -250.823 3001.27 -273.719 2963.52C-352.39 2833.85 -450.329 2814.51 -519.665 3062.61M2544.75 -1747.1C2470.18 -1001.6 2361.35 -330.399 2225.87 99.8386C2162.48 301.158 2094.74 390.274 2028.91 553.588C1953.55 740.488 1872.97 842.324 1790.36 906.477C1733.81 950.548 1676.21 976.229 1618.45 997.066C1504.57 1038.16 1389.85 1063.02 1279.96 1062.64C1215.71 1062.42 1153.31 1057.14 1093.1 1047.92C1049.64 1041.28 1005.98 1033.99 962.129 1021.15C899.535 1002.84 835.979 968.698 768.979 966.244C745.456 965.398 721.69 968.949 697.775 973.693C596.281 991.533 487.072 931.413 392.968 990.526C368.432 1005.93 344.91 1029 322.501 1062.66C234.402 1194.97 152.177 1450.99 80.6937 1798.97C68.4245 1858.48 56.3744 1921.07 44.442 1985.78C1.86886 2216.71 -39.2965 2474.69 -83.4849 2716.5C-109.788 2860.6 -136.355 3014.85 -168.608 3098.87C-188.639 3151.17 -210.245 3171.61 -234.235 3156.18C-257.777 3141.02 -279.69 3103.73 -303.042 3069.06C-383.223 2950.07 -481.928 2928.85 -552.884 3174.05M2538.99 -1726.33C2467.86 -974.019 2360.87 -295.914 2226.04 130.794C2161.71 336.59 2092.69 421.767 2026.05 591.326C1949.99 784.855 1868.59 894.167 1785.03 963.729C1727.82 1011.5 1669.5 1039.93 1610.96 1061.72C1495.58 1104.57 1379.15 1123.79 1267.44 1110.49C1202.13 1102.7 1138.64 1087.46 1077.28 1066.61C1032.92 1051.49 988.436 1034.82 943.813 1012.41C880.045 980.411 815.415 932.113 747.229 921.249C723.325 917.454 699.169 918.777 674.88 922.091C571.656 933.912 461.233 889.435 366.219 967.633C341.496 988.003 317.792 1016.17 295.21 1054.79C206.651 1206.28 124.647 1481.99 53.734 1847.44C41.5704 1909.9 29.6191 1975.46 17.7831 2043.05C-24.4382 2284.21 -65.3295 2551.3 -109.766 2798.36C-136.226 2945.64 -163.192 3100.71 -195.888 3187C-216.205 3240.7 -238.105 3263.07 -262.266 3251.13C-286.161 3239.3 -308.568 3205.73 -332.383 3174.44C-414.059 3065.15 -513.538 3043.06 -586.129 3285.3M2533.23 -1705.56C2465.53 -946.4 2360.21 -263.143 2226.23 161.789C2160.87 371.199 2090.66 453.298 2023.2 629.146C1946.44 829.263 1864.21 946.053 1779.7 1021.11C1721.83 1072.62 1662.79 1103.79 1603.49 1126.45C1486.6 1171.06 1368.46 1184.68 1254.93 1158.46C1188.56 1143.15 1123.96 1117.91 1061.48 1085.41C1016.22 1061.87 970.904 1035.74 925.499 1003.76C860.564 958.018 794.853 895.612 725.488 876.336C701.202 869.592 676.664 868.685 652 870.569C547.04 876.374 435.4 847.457 339.49 944.776C314.574 970.074 290.7 1003.32 267.933 1046.96C178.907 1217.59 97.1326 1513.04 26.7902 1895.98C14.7263 1961.45 2.88625 2029.93 -8.85432 2100.36C-50.7239 2351.74 -91.3341 2627.95 -136.024 2880.29C-162.642 3030.76 -190.001 3186.6 -223.152 3275.21C-243.762 3330.37 -265.949 3354.65 -290.28 3346.19C-314.527 3337.74 -337.437 3308.12 -361.708 3279.9C-444.895 3181.29 -545.138 3157.36 -619.357 3396.67M2527.48 -1684.75C2463.21 -918.785 2359.57 -230.376 2226.41 192.78C2160.04 405.848 2088.62 484.784 2020.36 666.919C1942.89 873.623 1859.84 997.933 1774.38 1078.39C1715.85 1133.6 1656.1 1167.57 1596.03 1191.13C1477.63 1237.51 1357.79 1245.48 1242.44 1206.38C1175 1183.51 1109.31 1148.26 1045.69 1104.17C999.533 1072.16 953.387 1036.64 907.211 995.05C841.101 935.532 774.318 859.099 703.767 831.414C679.094 821.723 654.173 818.586 629.133 819.04C522.438 818.829 409.581 805.471 312.769 921.914C287.664 952.095 263.609 990.481 240.664 1039.12C151.167 1228.81 69.625 1544.07 -0.140988 1944.48C-12.1062 2012.91 -23.8407 2084.35 -35.478 2157.66C-76.9958 2419.27 -117.331 2704.63 -162.263 2962.17C-189.038 3115.82 -216.795 3272.48 -250.397 3363.36C-271.299 3419.98 -293.766 3446.22 -318.281 3441.21C-342.879 3436.18 -366.292 3410.49 -391.02 3385.36C-475.724 3297.38 -576.719 3271.61 -652.564 3508.03M2521.72 -1663.99C2460.89 -891.213 2358.91 -197.654 2226.59 223.729C2159.2 440.414 2086.56 516.232 2017.49 704.695C1939.32 917.987 1855.44 1049.82 1769.04 1135.68C1709.85 1194.64 1649.39 1231.35 1588.54 1255.78C1468.63 1303.91 1347.08 1306.28 1229.91 1254.23C1161.41 1223.83 1094.62 1178.54 1029.87 1122.85C982.818 1082.37 935.831 1037.43 888.882 986.312C821.604 913.055 753.74 822.555 682.01 786.416C656.956 773.777 631.646 768.411 606.238 767.433C497.813 761.203 383.733 763.406 286.019 899.015C260.72 934.125 236.496 977.599 213.365 1031.25C123.392 1239.99 42.082 1575.08 -27.1063 1992.98C-38.9649 2064.42 -50.6009 2138.83 -62.1359 2214.97C-103.301 2486.85 -143.363 2781.28 -188.541 3044.11C-215.474 3200.94 -243.623 3358.41 -277.681 3451.61C-298.876 3509.68 -321.628 3537.89 -346.315 3536.31C-371.271 3534.71 -395.18 3512.92 -420.363 3490.9C-506.578 3413.6 -608.338 3385.99 -685.811 3619.44M2515.97 -1643.23C2458.56 -863.601 2358.26 -164.888 2226.78 254.674C2158.36 475.018 2084.52 547.673 2014.65 742.422C1935.77 962.304 1851.07 1101.65 1763.72 1192.93C1703.87 1255.58 1642.69 1295.08 1581.08 1320.41C1459.66 1370.31 1336.4 1367.03 1217.42 1302.11C1147.85 1264.14 1079.97 1208.85 1014.08 1141.56C966.131 1092.61 918.318 1038.25 870.586 977.562C802.139 890.524 733.198 785.999 660.28 741.409C634.84 725.865 609.153 718.225 583.363 715.819C473.202 703.573 357.897 721.296 259.289 876.068C233.801 916.062 209.395 964.671 186.095 1023.37C95.6371 1251.17 14.573 1606.07 -54.0458 2041.43C-65.8057 2115.84 -77.3291 2193.2 -88.7745 2272.23C-129.594 2554.34 -169.368 2857.88 -214.801 3125.99C-241.884 3286 -270.44 3444.26 -304.946 3539.77C-326.433 3599.3 -349.471 3629.5 -374.331 3631.29C-399.637 3633.15 -424.05 3615.25 -449.691 3596.27C-537.423 3529.65 -639.934 3500.2 -719.035 3730.72M2510.21 -1622.42C2456.23 -835.983 2357.61 -132.119 2226.95 285.712C2157.52 509.672 2082.47 579.164 2011.79 780.284C1932.21 1006.71 1846.68 1153.62 1758.39 1250.34C1697.89 1316.73 1635.98 1358.99 1573.6 1385.19C1450.68 1436.85 1325.71 1427.92 1204.9 1350.12C1134.28 1304.63 1065.3 1239.25 998.259 1160.41C949.421 1102.99 900.774 1039.21 852.267 968.952C782.658 868.129 712.624 749.584 638.526 696.541C612.705 678.047 586.629 668.18 560.47 664.342C448.58 646.077 332.043 679.281 232.542 853.258C206.86 898.179 182.271 951.882 158.799 1015.58C67.8551 1262.36 -12.9608 1637.16 -81.0088 2090.02C-92.6689 2167.43 -104.088 2247.72 -115.43 2329.63C-155.898 2621.96 -195.398 2934.61 -241.078 3207.97C-268.319 3371.17 -297.267 3530.24 -332.23 3628.02C-354.004 3688.96 -377.325 3721.21 -402.371 3726.4C-428.02 3731.72 -452.945 3717.68 -479.034 3701.82C-568.283 3645.88 -671.553 3614.58 -752.282 3842.14M2504.46 -1601.66C2453.91 -808.412 2356.95 -99.3541 2227.13 316.659C2156.68 544.275 2080.42 610.608 2008.94 818.015C1928.65 1050.99 1842.31 1205.46 1753.06 1307.59C1691.9 1377.68 1629.28 1422.68 1566.12 1449.83C1441.69 1503.25 1315.02 1488.72 1192.4 1397.96C1120.7 1344.91 1050.63 1269.48 982.455 1179.09C932.725 1113.15 883.239 1039.99 833.958 960.207C763.18 845.603 692.068 713.075 616.789 651.536C590.582 630.138 564.123 618.04 537.589 612.772C423.963 588.491 306.199 637.131 205.813 830.352C179.936 880.16 155.17 938.953 131.521 1007.7C40.0846 1273.46 -40.4766 1668.15 -107.947 2138.51C-119.502 2218.89 -130.822 2302.14 -142.061 2386.93C-182.177 2689.49 -221.402 3011.25 -267.329 3289.9C-294.728 3456.27 -324.074 3616.16 -359.488 3716.22C-381.554 3778.62 -405.152 3812.91 -430.378 3821.46C-456.376 3830.28 -481.806 3820.1 -508.353 3807.27C-599.112 3762.01 -703.148 3728.83 -785.496 3953.49M2498.71 -1580.89C2451.59 -780.796 2356.31 -66.6283 2227.31 347.611C2155.84 578.844 2078.29 641.115 2006.09 855.749C1925 1094.29 1837.92 1257.26 1747.73 1364.84C1685.91 1438.67 1622.58 1486.42 1558.65 1514.43C1432.71 1569.61 1304.33 1549.44 1179.89 1445.81C1107.14 1385.23 1035.97 1299.71 966.652 1197.77C916.03 1123.32 865.711 1040.78 815.654 951.423C743.715 823.034 671.508 677.417 595.051 606.495C568.457 582.445 541.622 567.819 514.713 561.121C399.357 530.821 280.354 594.944 179.082 807.41C153.01 862.105 128.07 926.03 104.242 999.786C12.313 1284.52 -68 1699.11 -134.894 2186.93C-146.35 2270.27 -157.557 2356.52 -168.707 2444.15C-208.472 2756.94 -247.415 3087.86 -293.596 3371.75C-321.152 3541.31 -350.892 3701.97 -386.761 3804.34C-409.12 3868.2 -432.995 3904.53 -458.401 3916.44C-484.748 3928.77 -510.682 3922.44 -537.686 3912.69C-629.962 3878.11 -734.75 3843.08 -818.732 4064.82M2492.95 -1560.08C2449.26 -753.176 2355.65 -33.8588 2227.49 378.605C2155.01 613.496 2076.25 672.688 2003.24 893.567C1921.45 1138.74 1833.54 1309.18 1742.41 1422.17C1679.92 1499.7 1615.88 1550.24 1551.17 1579.16C1423.73 1636.11 1293.64 1610.33 1167.39 1493.78C1093.57 1425.63 1021.32 1330.06 950.852 1216.57C899.338 1133.61 848.206 1041.13 797.347 942.766C724.274 799.823 650.944 640.873 573.317 561.578C546.342 534.58 519.117 517.726 491.833 509.598C374.741 473.281 254.504 552.843 152.347 784.553C126.08 844.134 100.957 913.153 76.9666 991.995C-15.4632 1295.67 -95.5135 1730.19 -161.837 2235.51C-173.193 2321.86 -184.295 2411.03 -195.342 2501.54C-234.755 2824.56 -273.424 3164.59 -319.853 3453.72C-347.567 3626.46 -377.698 3787.94 -414.024 3892.59C-436.675 3957.9 -460.827 3996.28 -486.422 4011.51C-513.109 4027.38 -539.558 4024.83 -567.016 4018.2C-660.804 3994.3 -766.357 3957.38 -851.966 4176.19M2487.2 -1539.32C2446.94 -725.607 2355.01 -1.0965 2227.68 409.591C2154.17 648.099 2074.21 704.212 2000.4 931.336C1917.91 1183.18 1829.17 1361.06 1737.09 1479.5C1673.95 1560.77 1609.18 1614.05 1543.71 1643.85C1414.75 1702.55 1282.96 1671.12 1154.88 1541.7C1080 1466.03 1006.66 1360.33 935.044 1235.33C882.644 1143.85 830.675 1042.04 779.034 934.107C704.792 777.425 630.382 604.366 551.568 516.661C524.206 486.716 496.599 467.632 468.946 458.072C350.125 415.736 228.64 510.7 125.606 761.694C99.143 826.161 73.8366 900.274 49.6763 984.161C-43.261 1306.78 -123.042 1761.23 -188.795 2284.01C-200.046 2373.32 -211.05 2465.46 -221.994 2558.85C-261.055 2892.09 -299.449 3241.24 -346.118 3535.65C-373.989 3711.58 -404.519 3873.87 -441.295 3980.79C-464.239 4047.56 -488.667 4088.02 -514.443 4106.57C-541.47 4126.02 -568.432 4127.25 -596.348 4123.65C-691.653 4110.43 -797.958 4071.68 -885.194 4287.56M2481.44 -1518.56C2444.61 -697.994 2354.35 31.6271 2227.86 440.541C2153.33 682.708 2072.16 735.7 1997.54 969.111C1914.35 1227.58 1824.78 1412.94 1731.75 1536.79C1667.96 1621.8 1602.48 1677.83 1536.23 1708.53C1405.77 1769 1272.27 1731.92 1142.37 1589.58C1066.43 1506.35 992.003 1390.59 919.242 1254.05C865.95 1154.05 813.15 1042.94 760.731 925.36C685.33 754.977 609.824 567.773 529.839 471.696C502.096 438.802 474.1 417.49 446.072 406.5C325.515 358.148 202.79 468.553 98.8833 738.786C72.2185 808.142 46.736 887.345 22.4054 976.28C-71.0405 1317.79 -150.551 1792.22 -215.733 2332.5C-226.884 2424.82 -237.777 2519.88 -248.624 2616.14C-287.332 2959.66 -325.447 3317.87 -372.37 3617.57C-400.398 3796.68 -431.321 3959.75 -468.553 4068.99C-491.783 4137.17 -516.485 4179.8 -542.45 4201.62C-569.818 4224.62 -597.295 4229.62 -625.666 4229.15C-722.488 4226.61 -829.55 4186.01 -918.415 4398.92M2475.68 -1497.75C2442.29 -670.377 2353.7 64.4378 2228.04 471.534C2152.49 717.318 2070.12 767.231 1994.69 1006.89C1910.8 1271.99 1820.4 1464.83 1726.42 1594.08C1661.96 1682.79 1595.77 1741.61 1528.75 1773.22C1396.78 1835.41 1261.57 1792.77 1129.86 1637.51C1052.85 1546.76 977.362 1420.18 903.429 1272.85C849.271 1163.83 795.613 1043.9 742.411 916.707C665.843 732.627 589.254 531.23 508.084 426.786C479.954 390.945 451.582 367.401 423.179 354.981C300.892 300.61 176.811 425.229 72.1358 715.976C45.2465 789.891 19.6104 874.515 -4.89062 968.495C-98.8508 1328.95 -178.092 1823.32 -242.691 2381.05C-253.743 2476.33 -264.529 2574.39 -275.281 2673.5C-313.637 3027.24 -351.477 3394.57 -398.648 3699.51C-426.835 3881.76 -458.156 4045.69 -495.838 4157.2C-519.36 4226.84 -544.331 4271.55 -570.492 4296.7C-598.191 4323.32 -626.189 4332.05 -655.017 4334.66C-753.349 4342.8 -861.171 4300.31 -951.662 4510.34M2469.93 -1476.98C2439.96 -642.8 2353.04 97.1667 2228.22 502.487C2151.66 751.927 2068.07 798.764 1991.84 1044.66C1907.25 1316.39 1816.02 1516.67 1721.09 1651.37C1655.98 1743.82 1589.07 1805.39 1521.27 1837.87C1387.8 1901.82 1250.88 1853.54 1117.34 1685.4C1039.28 1587.08 962.701 1450.58 887.62 1291.58C832.573 1174.13 778.08 1044.77 724.103 908.01C646.375 710.23 568.69 494.687 486.342 381.832C457.83 342.999 429.069 317.269 400.298 303.417C276.275 243.03 150.967 383.297 45.4 693.079C18.3177 771.963 -7.53847 861.314 -32.168 960.622C-126.793 1338.77 -205.607 1854.32 -269.636 2429.55C-280.581 2527.84 -291.27 2628.82 -301.919 2730.77C-339.924 3094.73 -377.482 3471.22 -424.908 3781.41C-453.251 3966.84 -484.964 4131.58 -523.103 4245.37C-546.918 4316.46 -572.157 4363.29 -598.508 4391.68C-626.54 4421.89 -655.06 4434.35 -684.338 4440.03C-784.187 4458.85 -892.767 4414.52 -984.885 4621.62M2464.17 -1456.21C2437.63 -615.181 2352.39 129.896 2228.4 533.441C2150.81 786.496 2066.03 830.254 1988.98 1082.4C1903.69 1360.8 1811.64 1568.51 1715.76 1708.62C1649.99 1804.77 1582.35 1869.09 1513.8 1902.52C1378.81 1968.23 1240.18 1914.3 1104.84 1733.25C1025.7 1627.4 948.039 1480.94 871.817 1310.26C815.88 1184.42 760.548 1045.64 705.792 899.229C626.898 687.75 548.131 458.057 464.604 336.79C435.704 295.011 406.561 267.051 377.414 251.769C251.663 185.363 125.12 341.322 18.6618 670.098C-8.61468 753.911 -34.6528 848.395 -59.4538 952.708C-154.556 1350.16 -233.132 1885.23 -296.59 2477.97C-307.436 2579.22 -318.013 2683.17 -328.566 2787.99C-366.218 3162.18 -403.502 3547.78 -451.175 3863.26C-479.676 4051.87 -511.789 4217.39 -550.376 4333.49C-574.484 4406.04 -599.984 4454.99 -626.531 4486.66C-654.895 4520.49 -683.937 4536.69 -713.671 4545.45C-815.031 4574.91 -924.369 4528.78 -1018.12 4732.9M2458.42 -1435.41C2435.32 -587.572 2351.74 162.699 2228.58 564.47C2149.98 821.185 2063.99 861.822 1986.13 1120.21C1900.14 1405.24 1807.26 1620.43 1710.43 1765.99C1644 1865.88 1575.66 1932.95 1506.32 1967.24C1369.83 2034.71 1229.5 1975.18 1092.33 1781.22C1012.13 1667.8 933.373 1511.42 856.003 1329.06C799.177 1194.79 743.01 1046.59 687.472 890.571C607.418 665.392 527.554 421.512 442.849 291.875C413.568 247.147 384.044 216.999 354.521 200.244C227.033 127.822 99.2636 299.471 -8.08576 647.281C-35.5553 736.064 -61.7682 835.682 -86.7497 944.918C-182.336 1361.69 -260.666 1916.32 -323.553 2526.56C-334.301 2630.77 -344.772 2737.68 -355.221 2845.38C-392.522 3229.8 -429.532 3624.51 -477.452 3945.23C-506.111 4137.03 -538.616 4303.36 -577.66 4421.74C-602.06 4495.74 -627.805 4547.15 -654.571 4581.77C-683.252 4619.56 -712.832 4639.12 -743.021 4651C-845.899 4691.13 -955.994 4643.16 -1051.37 4844.36M2452.67 -1414.64C2432.99 -559.995 2351.09 195.427 2228.76 595.423C2149.14 855.754 2061.95 893.31 1983.28 1157.99C1896.59 1449.65 1802.88 1672.32 1705.1 1823.28C1505.96 2130.81 1289.42 2141.06 1079.82 1829.1C938.829 1619.26 802.105 1272.81 669.17 881.83C587.949 642.953 507.004 384.922 421.12 246.873C263.229 -6.90685 98.4772 172.697 -34.809 624.337C-168.095 1075.98 -271.859 1782.89 -350.485 2575.01C-421.843 3293.81 -480.895 4130.98 -604.912 4509.9C-746.748 4943.24 -932.656 4645.09 -1084.58 4955.64M2275.42 4006.52C2249.17 2944.52 2160.05 1905.25 2028.38 1125.56C1990.92 903.74 1948.38 696.531 1899.36 610.824C1757.7 363.227 1631.72 1059.41 1528.79 1465.86C1404.58 1956.31 1282.46 2467.45 1150.84 2890.86C1076.95 3128.58 988.36 3339.53 905.149 3123.72C820.887 2905.15 776.203 2342.33 730.908 1854.48C678.131 1286.01 611.786 743.914 525.02 351.897C438.254 -40.1209 328.905 -268.191 229.305 -163.94C151.31 -82.2875 85.4623 190.51 26.6378 489.332C-127.918 1274.52 -250.193 2284.73 -328.981 3427.35M2278.56 3959.09C2255.35 3020.48 2177.39 2121.51 2061.26 1368.01C2050.47 1298.03 2039.46 1229.36 2028.11 1162.79C1990.78 944.136 1948.62 739.619 1900.23 652.884C1760.28 401.684 1635.59 1063.35 1532.48 1456.6C1441.06 1805.25 1350.8 2171.15 1256.21 2506.95C1223.4 2623.87 1190.19 2737.05 1156.36 2844.69C1083 3078.16 995.455 3286.34 913.116 3081.66C829.744 2874.4 784.681 2334.11 739.013 1866.13C685.792 1320.84 619.426 800.725 533.229 424.815C503.218 293.939 470.547 182.177 436.534 96.3716C372.888 -64.2901 304.533 -134.207 240.168 -68.472C162.853 10.488 97.2674 273.094 38.5358 559.206C-80.3788 1138.07 -180.457 1839.71 -257.276 2634.27C-280.203 2871.35 -301.053 3116.65 -319.693 3369.49M2281.69 3911.71C2259.26 3004.39 2179.76 2157.3 2060.85 1401.96C2050.06 1333.42 2039.12 1265.65 2027.83 1200.12C1990.62 984.67 1948.86 782.802 1901.1 694.999C1762.83 440.156 1639.46 1067.34 1536.15 1447.43C1445.4 1781.31 1355.78 2138.15 1261.08 2467.61C1228.46 2581.97 1195.46 2692.92 1161.88 2798.62C1089.05 3027.89 1002.54 3233.24 921.079 3039.71C838.596 2843.7 793.155 2325.94 747.122 1877.86C693.463 1355.76 627.062 857.63 541.442 497.867C511.627 372.625 479.229 265.71 445.53 183.764C382.492 30.2386 314.838 -36.3776 251.041 27.1272C174.407 103.436 109.09 355.806 50.4429 629.169C-68.354 1182.14 -168.615 1847.24 -246.634 2606.95C-269.917 2833.63 -291.216 3068.66 -310.396 3311.72M2284.82 3864.29C2263.16 2988.26 2182.18 2193.03 2060.45 1435.87C2049.65 1368.68 2038.79 1301.85 2027.56 1237.4C1990.49 1025.12 1949.11 825.985 1901.99 737.109C1765.42 478.664 1643.38 1071.36 1539.85 1438.22C1449.78 1757.36 1360.64 2103.69 1265.97 2428.27C1233.5 2539.62 1200.75 2648.78 1167.42 2752.54C1095.11 2977.57 1009.64 3180.15 929.063 2997.74C847.469 2813 801.65 2317.81 755.244 1889.6C701.141 1390.68 634.719 914.53 549.674 570.872C520.049 451.267 487.929 349.197 454.545 271.069C392.108 124.681 325.167 61.3603 261.926 122.681C185.974 196.34 120.925 438.473 62.3627 699.089C-56.3222 1226.2 -156.76 1854.73 -235.977 2579.62C-259.616 2795.92 -281.359 3020.66 -301.077 3253.99M2287.95 3816.91C2267.06 2972.16 2184.62 2228.71 2060.03 1469.82C2049.23 1404.03 2038.44 1338.1 2027.28 1274.72C1990.33 1065.65 1949.35 869.164 1902.86 779.218C1767.98 517.169 1647.29 1075.46 1543.52 1429.05C1454.16 1733.54 1365.56 2070.24 1270.83 2388.93C1238.54 2497.6 1206.03 2604.65 1172.93 2706.46C1101.15 2927.28 1016.72 3127.08 937.019 2955.78C856.315 2782.34 810.117 2309.69 763.338 1901.33C708.792 1425.61 642.347 971.389 557.872 643.882C528.442 529.869 496.603 432.684 463.526 358.377C401.698 219.167 335.464 159.144 272.776 218.198C197.498 289.167 132.717 521.106 74.2468 768.97C-44.3205 1270.18 -144.941 1862.19 -225.365 2552.22C-249.366 2758.13 -271.551 2972.59 -291.81 3196.14M2291.08 3769.49C2270.97 2956.04 2187.08 2264.3 2059.62 1503.73C2048.82 1439.29 2038.1 1374.35 2027 1312.01C1990.19 1106.1 1949.59 912.313 1903.73 821.338C1770.55 555.686 1651.23 1079.6 1547.2 1419.89C1458.55 1709.84 1370.51 2036.84 1275.71 2349.64C1243.59 2455.62 1211.31 2560.57 1178.46 2660.44C1107.21 2877.01 1023.82 3074.04 944.99 2913.87C865.175 2751.69 818.606 2301.6 771.447 1913.12C716.463 1460.53 649.992 1028.34 566.086 716.983C536.853 608.604 505.286 516.267 472.523 445.777C411.303 313.703 345.769 256.981 283.651 313.846C209.053 382.164 144.542 603.909 86.1564 839.024C-32.292 1314.37 -133.096 1869.81 -214.718 2525.04C-239.077 2720.55 -261.711 2924.74 -282.509 3138.5M2294.21 3722.06C2274.88 2939.9 2189.59 2299.74 2059.22 1537.59C2048.42 1474.5 2037.77 1410.51 2026.73 1349.24C1990.05 1146.54 1949.83 955.404 1904.61 863.359C1773.12 594.106 1655.2 1083.68 1550.88 1410.59C1462.98 1686.08 1375.46 2003.3 1280.58 2310.17C1248.64 2413.47 1216.59 2516.31 1183.98 2614.19C1113.26 2826.56 1030.91 3020.76 952.956 2871.74C874.029 2720.82 827.083 2293.3 779.551 1924.68C724.122 1495.28 657.63 1085.07 574.293 789.82C545.256 687.076 513.968 599.583 481.514 532.956C420.895 408.02 356.075 354.593 294.511 409.233C220.595 474.9 156.345 686.411 98.0511 908.776C-20.2796 1358.22 -121.267 1877.14 -204.088 2497.51C-228.81 2682.62 -251.887 2876.53 -273.218 3080.51M2297.34 3674.68C2278.77 2923.81 2192.12 2335.18 2058.8 1571.54C2048.01 1509.76 2037.43 1446.76 2026.45 1386.57C1989.89 1187.03 1950.06 998.591 1905.48 905.518C1775.68 632.619 1659.17 1088.01 1554.56 1401.47C1467.42 1662.57 1380.42 1969.97 1285.45 2270.92C1253.69 2371.58 1221.86 2472.22 1189.5 2568.2C1119.31 2776.33 1038 2967.75 960.921 2829.86C882.884 2690.25 835.558 2285.22 787.661 1936.51C731.795 1530.29 665.276 1142.06 582.515 862.955C553.673 765.803 522.659 683.199 490.518 620.389C430.508 502.589 366.395 452.502 305.386 504.917C232.15 567.891 168.169 769.208 109.954 978.827C-8.25836 1402.42 -109.429 1884.76 -193.456 2470.32C-218.533 2645.04 -242.06 2828.68 -263.931 3022.88M2300.47 3627.26C2282.68 2907.67 2194.7 2370.43 2058.4 1605.44C2047.62 1544.96 2037.1 1483 2026.18 1423.84C1989.75 1227.51 1950.31 1041.77 1906.36 947.622C1778.26 671.121 1663.18 1092.33 1558.25 1392.25C1471.89 1639.09 1385.38 1936.56 1290.33 2231.53C1258.76 2329.5 1227.15 2428.04 1195.02 2522.07C1125.36 2726 1045.09 2914.6 968.89 2787.9C891.743 2659.55 844.04 2277.09 795.77 1948.24C739.46 1565.21 672.912 1198.96 590.726 935.96C562.081 844.442 531.346 766.683 499.512 707.694C440.111 597.072 376.704 550.24 316.251 600.471C243.696 660.795 179.984 851.875 121.854 1048.79C3.75943 1446.48 -97.5937 1892.29 -182.82 2443C-208.261 2607.33 -232.232 2780.64 -254.64 2965.14M2303.6 3579.83C2286.58 2891.53 2197.29 2405.55 2057.99 1639.35C2047.23 1580.17 2036.76 1519.21 2025.9 1461.12C1989.6 1267.96 1950.55 1084.91 1907.24 989.69C1780.83 709.587 1667.2 1096.73 1561.93 1383.04C1476.37 1615.74 1390.34 1903.23 1295.21 2192.19C1263.81 2287.56 1232.43 2383.91 1200.55 2475.99C1131.42 2675.68 1052.18 2861.5 976.86 2745.94C900.602 2628.85 852.521 2268.96 803.878 1959.98C747.124 1600.13 680.555 1255.86 598.939 1009.01C570.491 923.128 540.027 850.215 508.508 795.043C449.708 691.56 387.009 648.069 327.123 696.028C255.248 753.659 191.798 934.547 133.76 1118.71C15.7843 1490.54 -85.7525 1899.79 -172.178 2415.68C-197.974 2569.61 -222.395 2732.65 -245.336 2907.37M2306.73 3532.46C2290.49 2875.44 2199.92 2440.62 2057.58 1673.26C2046.84 1615.35 2036.42 1555.42 2025.62 1498.37C1989.46 1308.41 1950.79 1128.01 1908.1 1031.77C1783.39 748.062 1671.24 1101.21 1565.6 1373.8C1480.86 1592.47 1395.3 1869.87 1300.07 2152.78C1268.86 2245.51 1237.7 2339.7 1206.06 2429.84C1137.46 2625.32 1059.27 2808.33 984.814 2703.9C909.445 2598.07 860.986 2260.76 811.97 1971.64C754.779 1634.98 688.182 1312.69 607.135 1081.95C578.882 1001.66 548.69 933.591 517.486 882.279C459.294 785.931 397.303 745.738 337.972 791.513C266.772 846.496 203.597 1017.15 145.643 1188.56C27.7853 1534.49 -73.9351 1907.17 -161.566 2388.25C-187.719 2531.79 -212.588 2684.55 -236.07 2849.49M2309.86 3485.03C2294.4 2859.3 2202.57 2475.47 2057.17 1707.16C2046.45 1650.51 2036.08 1591.66 2025.35 1535.65C1989.31 1348.86 1951.03 1171.15 1908.98 1073.83C1785.97 786.521 1675.31 1105.85 1569.29 1364.58C1485.38 1569.35 1400.27 1836.53 1304.95 2113.43C1273.93 2203.56 1242.98 2295.57 1211.59 2383.76C1143.52 2574.99 1066.36 2755.26 992.798 2661.93C918.318 2567.41 869.487 2252.57 820.093 1983.41C762.457 1669.89 695.84 1369.62 615.368 1154.99C587.311 1080.33 557.399 1017.11 526.503 969.66C468.919 880.448 407.634 843.552 348.859 887.102C278.34 939.434 215.426 1099.85 157.565 1258.55C39.826 1578.62 -62.0783 1914.74 -150.909 2360.96C-177.424 2494.11 -202.737 2636.59 -226.751 2791.75M2312.99 3437.65C2298.29 2843.22 2205.26 2510.18 2056.76 1741.11C2046.06 1685.72 2035.75 1627.78 2025.07 1572.97C1989.21 1388.99 1951.27 1214.37 1909.86 1115.99C1788.54 825.035 1679.39 1110.65 1572.97 1355.46C1489.92 1546.49 1405.25 1803.37 1309.83 2074.14C1278.99 2161.67 1248.27 2251.44 1217.11 2337.69C1149.57 2524.72 1073.46 2702.17 1000.76 2619.98C927.17 2536.71 877.961 2244.45 828.201 1995.15C770.121 1704.82 703.483 1426.53 623.581 1228.04C595.721 1159.02 566.081 1100.65 535.499 1057.02C478.517 974.983 417.939 941.386 359.732 982.705C289.893 1032.34 227.248 1182.57 169.472 1328.52C51.851 1622.69 -50.2358 1922.28 -140.265 2333.69C-167.137 2456.44 -192.899 2588.64 -217.452 2734.07M2316.12 3390.23C2302.2 2827.08 2207.98 2544.66 2056.35 1775.02C2045.68 1720.84 2035.42 1664.02 2024.8 1610.25C1989.07 1429.44 1951.51 1257.51 1910.73 1158.06C1791.1 863.502 1683.5 1115.57 1576.65 1346.2C1494.47 1523.61 1410.22 1770.08 1314.71 2034.75C1284.06 2119.68 1253.55 2207.26 1222.64 2291.57C1155.62 2474.35 1080.55 2649.03 1008.73 2577.97C936.028 2505.97 886.441 2236.28 836.309 2006.84C777.791 1739.69 711.125 1483.39 631.791 1301.01C604.12 1237.58 574.767 1184.09 544.485 1144.28C488.112 1069.39 428.24 1039.09 370.588 1078.18C301.43 1125.17 239.053 1265.15 181.362 1398.36C63.8597 1666.67 -38.4106 1929.69 -129.646 2306.25C-156.881 2418.61 -183.086 2540.53 -208.179 2676.17M2319.25 3342.8C2306.1 2810.94 2210.72 2578.96 2055.94 1808.92C2045.29 1755.96 2035.08 1700.23 2024.52 1647.53C1988.92 1469.88 1951.75 1300.65 1911.6 1200.17C1793.67 902.007 1687.62 1120.65 1580.33 1337.03C1499.03 1500.98 1415.2 1736.91 1319.58 1995.41C1289.12 2077.74 1258.82 2163.13 1228.15 2245.49C1161.67 2424.07 1087.64 2595.92 1016.69 2536.01C944.881 2475.31 894.915 2228.15 844.41 2018.58C785.448 1774.61 718.754 1540.29 639.997 1374.06C612.522 1316.27 583.441 1267.62 553.474 1231.63C497.709 1163.87 438.544 1136.87 381.447 1173.78C312.971 1218.12 250.855 1347.87 193.25 1468.37C75.865 1710.78 -26.5879 1937.27 -119.022 2279.01C-146.613 2380.98 -173.267 2492.63 -198.893 2618.49M2322.39 3295.42C2310.01 2794.85 2213.5 2613.09 2055.54 1842.82C2044.92 1791.08 2034.75 1736.43 2024.25 1684.81C1988.79 1510.32 1952 1343.79 1912.48 1242.23C1796.25 940.47 1691.78 1125.89 1584.01 1327.78C1503.62 1478.39 1420.18 1703.7 1324.45 1956.03C1294.18 2035.79 1264.1 2118.95 1233.68 2199.37C1167.73 2373.71 1094.73 2542.78 1024.66 2494.01C953.738 2444.57 903.394 2219.94 852.517 2030.27C793.118 1809.49 726.396 1597.15 648.214 1447.02C620.936 1394.86 592.134 1351.06 562.475 1318.94C507.311 1258.31 448.854 1234.65 392.326 1269.33C324.529 1310.98 262.683 1430.54 205.163 1538.29C87.8966 1754.84 -14.74 1944.76 -108.374 2251.65C-136.329 2343.18 -163.426 2444.55 -189.59 2560.67M2325.51 3248C2313.91 2778.72 2216.3 2646.95 2055.12 1876.74C2044.54 1826.16 2034.4 1772.64 2023.97 1722.1C1988.63 1550.82 1952.2 1387.41 1913.35 1284.35C1798.73 980.322 1695.93 1131.39 1587.68 1318.61C1508.21 1456.1 1425.16 1670.62 1329.32 1916.69C1299.24 1993.9 1269.38 2074.83 1239.2 2153.29C1173.78 2323.43 1101.82 2489.68 1032.62 2452.05C962.583 2413.88 911.869 2211.81 860.625 2042.01C800.782 1844.42 734.039 1654.05 656.427 1520.08C629.344 1473.51 600.815 1434.6 571.47 1406.29C516.915 1352.84 459.165 1332.44 403.191 1364.89C336.069 1403.89 274.49 1513.21 217.062 1608.21C99.9135 1798.86 -2.9058 1952.26 -97.7446 2224.34C-126.056 2305.47 -153.603 2396.57 -180.306 2502.95M2328.65 3200.62C2317.82 2762.63 2219.13 2680.64 2054.72 1910.68C2044.16 1861.28 2034.06 1808.93 2023.7 1759.42C1988.49 1591.31 1952.45 1430.59 1914.24 1326.5C1801.31 1018.83 1700.12 1137.08 1591.39 1309.48C1512.84 1434.01 1430.17 1637.62 1334.21 1877.44C1304.33 1952.12 1274.67 2030.78 1244.73 2107.3C1179.84 2273.19 1108.92 2436.67 1040.6 2410.22C971.453 2383.34 920.367 2203.81 868.743 2053.87C808.456 1879.46 741.693 1711.08 664.649 1593.21C637.762 1552.28 609.506 1518.22 580.475 1493.72C526.528 1447.42 469.485 1430.35 414.066 1460.58C347.624 1496.88 286.316 1596.05 228.972 1678.3C111.943 1843.09 8.93307 1959.92 -87.0986 2197.14C-115.773 2267.89 -143.756 2348.7 -170.999 2445.31M2331.78 3153.2C2321.72 2746.45 2221.98 2714.06 2054.3 1944.6C2043.79 1896.36 2033.72 1845.14 2023.41 1796.71C1988.33 1631.8 1952.68 1473.73 1915.1 1368.58C1803.86 1057.3 1704.3 1142.99 1595.05 1300.24C1517.45 1411.96 1435.14 1604.54 1339.07 1838.02C1309.39 1910.18 1279.94 1986.53 1250.24 2061.14C1185.88 2222.84 1116 2383.53 1048.56 2368.18C980.296 2352.57 928.832 2195.6 876.836 2065.53C816.11 1914.27 749.319 1767.86 672.844 1666.14C646.154 1630.85 618.177 1601.63 589.454 1580.96C536.108 1541.79 479.772 1528.02 424.914 1556.02C359.154 1589.67 298.114 1678.61 240.855 1748.11C123.943 1887 20.7494 1967.26 -76.4797 2169.71C-105.51 2230.06 -133.942 2300.59 -161.725 2387.42M2334.91 3105.77C2325.63 2730.31 2224.87 2747.17 2053.9 1978.45C2043.42 1931.35 2033.39 1881.34 2023.15 1833.94C1988.2 1672.2 1952.93 1516.82 1915.98 1410.64C1806.44 1095.72 1708.52 1149.1 1598.74 1291.02C1522.09 1390.11 1440.15 1571.58 1343.96 1798.67C1314.47 1868.32 1285.23 1942.39 1255.77 2015.02C1191.94 2172.47 1123.1 2330.39 1056.53 2326.17C989.16 2321.82 937.318 2187.38 884.95 2077.22C823.78 1949.14 756.967 1824.72 681.069 1739.15C654.575 1709.44 626.871 1685.11 598.462 1668.3C545.725 1636.26 490.096 1625.79 435.801 1651.61C370.721 1682.61 309.943 1761.31 252.775 1818.06C135.982 1931.09 32.6052 1974.78 -65.8304 2142.38C-95.2172 2192.34 -124.099 2252.6 -152.422 2329.64M2338.04 3058.39C2329.53 2714.22 2227.78 2780.07 2053.49 2012.4C2043.04 1966.43 2033.04 1917.59 2022.87 1871.26C1988.04 1712.73 1953.17 1560.01 1916.86 1452.75C1809.01 1134.19 1712.74 1155.54 1602.42 1281.81C1526.73 1368.43 1445.15 1538.62 1348.82 1759.29C1319.53 1826.42 1290.51 1898.22 1261.29 1968.9C1197.99 2122.15 1130.18 2277.25 1064.5 2284.17C998.019 2291.12 945.798 2179.21 893.057 2088.91C831.443 1984.02 764.602 1881.58 689.28 1812.11C662.982 1788.04 635.557 1768.56 607.456 1755.56C555.327 1730.71 500.405 1723.53 446.663 1747.08C382.264 1775.39 321.755 1843.9 264.673 1887.94C147.998 1975.07 44.4384 1982.24 -55.1968 2114.98C-84.9467 2154.55 -114.271 2204.52 -143.127 2271.79M2341.17 3010.97C2333.43 2698.08 2230.71 2812.66 2053.07 2046.31C2042.67 2001.41 2032.7 1953.79 2022.59 1908.54C1987.89 1753.22 1953.44 1602.75 1917.73 1494.86C1811.65 1171.44 1716.96 1162.27 1606.09 1272.65C1531.37 1347.01 1450.15 1505.74 1353.7 1720C1324.6 1784.64 1295.78 1854.13 1266.81 1922.87C1204.04 2071.87 1137.27 2224.19 1072.47 2242.25C1006.87 2260.46 954.273 2171.13 901.166 2100.69C839.115 2018.98 772.247 1938.52 697.494 1885.2C671.392 1866.77 644.24 1852.13 616.452 1842.95C564.925 1825.24 510.717 1821.36 457.531 1842.72C393.806 1868.39 333.564 1926.65 276.568 1957.95C160.011 2019.22 56.268 1989.82 -44.5658 2087.75C-74.6718 2116.92 -104.447 2156.58 -133.84 2214.14M2344.3 2963.59C2337.34 2681.99 2233.68 2844.98 2052.67 2080.26C2042.3 2036.49 2032.37 1990.08 2022.32 1945.87C1987.74 1793.75 1953.68 1645.94 1918.61 1536.97C1814.23 1209.91 1721.2 1169.3 1609.78 1263.48C1536.03 1325.79 1455.17 1472.94 1358.58 1680.66C1329.68 1742.82 1301.07 1810 1272.34 1876.79C1210.09 2021.59 1144.36 2171.09 1080.44 2200.29C1015.73 2229.77 962.755 2163 909.274 2112.43C846.78 2053.9 779.89 1995.42 705.705 1958.21C679.792 1945.37 652.926 1935.58 625.447 1930.26C574.528 1919.68 521.019 1919.11 468.403 1938.28C405.359 1961.29 345.385 2009.33 288.474 2027.88C172.035 2063.24 68.1091 1997.31 -33.9311 2060.39C-64.4001 2079.17 -94.6179 2108.55 -124.544 2156.33M2347.43 2916.17C2341.24 2665.86 2236.65 2876.93 2052.26 2114.12C2041.94 2071.44 2032.02 2026.25 2022.04 1983.11C1987.6 1834.2 1953.92 1689.04 1919.48 1579.05C1816.8 1248.38 1725.44 1176.63 1613.46 1254.23C1540.68 1304.66 1460.17 1440.06 1363.45 1641.28C1334.74 1700.96 1306.34 1765.78 1277.86 1830.67C1216.14 1971.23 1151.46 2117.95 1088.4 2158.29C1024.58 2199.07 971.234 2154.79 917.374 2124.12C854.436 2088.79 787.525 2052.29 713.917 2031.23C688.2 2024.02 661.606 2019.07 634.442 2017.62C584.124 2014.17 531.331 2016.93 479.268 2033.84C416.904 2054.16 357.2 2092 300.373 2097.8C184.053 2107.31 79.9434 2004.81 -23.2953 2033.07C-54.1206 2041.46 -84.7879 2060.56 -115.254 2098.56M2350.56 2868.74C2345.15 2649.72 2239.67 2908.56 2051.85 2148.03C2041.57 2106.39 2031.67 2062.58 2021.76 2020.39C1987.4 1875.05 1954.15 1732.18 1920.35 1621.16C1819.36 1286.89 1729.69 1184.33 1617.14 1245.06C1545.33 1283.78 1465.18 1407.39 1368.32 1601.94C1339.82 1659.19 1311.62 1721.65 1283.38 1784.6C1222.2 1920.95 1158.55 2064.85 1096.37 2116.33C1033.44 2168.37 979.715 2146.66 925.483 2135.86C862.105 2123.67 795.168 2109.19 722.129 2104.24C696.609 2102.66 670.286 2102.56 643.437 2104.92C593.728 2108.66 541.64 2114.68 490.133 2129.4C428.451 2147.07 369.007 2174.67 312.273 2167.77C196.071 2151.37 91.7787 2012.35 -12.6597 2005.76C-43.848 2003.75 -74.9578 2012.57 -105.964 2040.8M2353.69 2821.36C2349.05 2633.63 2242.7 2939.89 2051.44 2181.97C2041.2 2141.42 2031.34 2098.87 2021.49 2057.67C1987.26 1915.53 1954.4 1775.36 1921.23 1663.22C1821.94 1325.35 1733.93 1192.37 1620.82 1235.8C1549.98 1263.02 1470.2 1374.64 1373.2 1562.55C1344.9 1617.36 1316.9 1677.48 1288.91 1738.43C1228.25 1870.54 1165.64 2011.7 1104.34 2074.28C1042.3 2137.58 988.194 2138.44 933.589 2147.51C869.767 2158.5 802.809 2166.01 730.338 2177.16C705.013 2181.18 678.971 2185.96 652.429 2192.15C603.328 2203.02 551.941 2212.38 500.994 2224.83C439.993 2239.85 380.818 2257.22 324.169 2237.56C208.085 2195.31 103.61 2019.72 -2.03399 1978.31C-33.5785 1965.91 -65.1381 1964.46 -96.676 1982.94M2356.82 2773.93C2352.96 2617.49 2245.75 2970.83 2051.04 2215.88C2040.84 2176.36 2031 2135.07 2021.22 2094.94C1987.11 1955.97 1954.64 1818.49 1922.11 1705.33C1824.51 1363.86 1738.16 1200.79 1624.5 1226.63C1554.62 1242.53 1475.21 1342.05 1378.08 1523.21C1349.97 1575.63 1322.18 1633.34 1294.42 1692.35C1234.3 1820.26 1172.73 1958.6 1112.3 2032.36C1051.15 2106.92 996.669 2130.36 941.698 2159.29C877.439 2193.46 810.453 2222.95 738.552 2250.25C713.423 2259.9 687.654 2269.53 661.425 2279.54C612.925 2297.54 562.253 2310.2 511.868 2320.47C451.548 2332.79 392.635 2339.97 336.077 2307.56C220.111 2239.41 115.452 2027.25 8.60955 1951.03C-23.2911 1928.24 -55.3003 1916.51 -87.378 1925.21M2359.95 2726.56C2356.86 2601.4 2248.83 3001.43 2050.62 2249.83C2040.47 2211.35 2030.65 2171.33 2020.94 2132.27C1986.97 1996.51 1954.88 1861.68 1922.98 1747.45C1827.08 1402.33 1742.38 1209.6 1628.19 1217.47C1559.25 1222.21 1480.24 1309.5 1382.95 1483.92C1355.06 1533.94 1327.46 1589.26 1299.95 1646.32C1240.36 1769.98 1179.83 1905.55 1120.27 1990.45C1060.01 2076.31 1005.15 2122.23 949.807 2171.07C885.105 2228.43 818.09 2279.9 746.764 2323.3C721.833 2338.59 696.342 2353.07 670.414 2366.89C622.522 2392.04 572.556 2407.99 522.726 2416.03C463.08 2425.71 404.443 2422.65 347.971 2377.53C232.124 2283.52 127.281 2034.79 19.2386 1923.72C-13.0251 1890.53 -45.4769 1868.52 -78.0945 1867.45M2363.09 2679.13C2360.77 2585.27 2251.93 3031.59 2050.21 2283.69C2040.11 2246.22 2030.32 2207.53 2020.66 2169.51C1986.82 2036.91 1955.12 1904.78 1923.86 1789.51C1829.65 1440.79 1746.59 1218.75 1631.87 1208.21C1563.87 1201.97 1485.26 1276.95 1387.83 1444.49C1360.13 1492.12 1332.75 1545 1305.48 1600.16C1246.41 1719.62 1186.92 1852.37 1128.25 1948.4C1068.88 2045.53 1013.64 2114.02 957.92 2182.72C892.773 2263.27 825.738 2336.71 754.989 2396.27C730.252 2417.15 705.035 2436.51 679.422 2454.2C632.139 2486.52 582.873 2505.77 533.605 2511.59C474.639 2518.57 416.27 2505.31 359.877 2447.45C244.148 2327.58 139.122 2042.28 29.8743 1896.4C-2.74555 1852.82 -35.648 1820.49 -68.7975 1809.68M2366.21 2631.71C2364.66 2569.13 2255.04 3061.37 2049.81 2317.6C2039.74 2281.12 2029.98 2243.73 2020.39 2206.79C1986.68 2077.4 1955.37 1947.96 1924.73 1831.58C1832.22 1479.26 1750.78 1228.29 1635.55 1199C1568.47 1181.95 1490.28 1244.53 1392.7 1405.15C1365.21 1450.42 1338.03 1500.86 1311 1554.08C1252.46 1669.29 1194.01 1799.26 1136.22 1906.44C1077.73 2014.82 1022.12 2105.89 966.028 2194.45C900.444 2298.18 833.381 2393.61 763.2 2469.27C738.66 2495.79 713.722 2520 688.416 2541.5C641.735 2580.96 593.183 2603.51 544.477 2607.14C486.192 2611.47 428.085 2587.98 371.783 2517.37C256.172 2371.6 150.963 2049.78 40.5158 1869.04C7.53291 1815.06 -25.8122 1772.46 -59.5004 1751.9M2369.34 2584.33C2368.57 2553.04 2258.17 3090.76 2049.39 2351.55C2039.37 2316.07 2029.64 2280.02 2020.11 2244.12C1986.52 2117.89 1955.59 1991.14 1925.6 1873.74C1834.78 1517.81 1754.92 1238.31 1639.22 1189.83C1573.04 1162.12 1495.34 1212.94 1397.57 1365.82C1370.29 1408.94 1343.3 1456.73 1316.51 1508.01C1258.51 1619.01 1201.09 1746.17 1144.17 1864.48C1086.58 1984.17 1030.59 2097.76 974.123 2206.19C908.095 2333.11 841.01 2450.52 771.399 2542.33C747.056 2574.48 722.39 2603.53 697.398 2628.86C651.325 2675.45 603.479 2701.3 555.328 2702.7C497.725 2704.39 439.887 2670.7 383.669 2587.34C268.178 2415.71 162.784 2057.32 51.1389 1841.77C17.7998 1777.4 -15.9949 1724.51 -50.2161 1694.18M2372.48 2536.9C2372.48 2536.9 2261.33 3119.72 2048.99 2385.45C1836.64 1651.18 1748.03 808.971 1402.45 1326.47C1163.64 1684.1 949.092 2429.28 706.406 2716.16C606.556 2834.19 498.64 2833.7 395.582 2657.26C280.208 2459.73 174.632 2064.81 61.7805 1814.41C28.0784 1739.65 -6.15232 1676.48 -40.9202 1636.37" stroke="#FACED8" stroke-width="0.5" stroke-miterlimit="10"/>
</svg>
