<?xml version="1.0" encoding="UTF-8" standalone="no"?>
<svg
   xmlns:dc="http://purl.org/dc/elements/1.1/"
   xmlns:cc="http://creativecommons.org/ns#"
   xmlns:rdf="http://www.w3.org/1999/02/22-rdf-syntax-ns#"
   xmlns:svg="http://www.w3.org/2000/svg"
   xmlns="http://www.w3.org/2000/svg"
   viewBox="0 0 876.74133 399.84668"
   height="399.84668"
   width="876.74133"
   xml:space="preserve"
   id="svg2"
   version="1.1"><metadata
     id="metadata8"><rdf:RDF><cc:Work
         rdf:about=""><dc:format>image/svg+xml</dc:format><dc:type
           rdf:resource="http://purl.org/dc/dcmitype/StillImage" /></cc:Work></rdf:RDF></metadata><defs
     id="defs6"><clipPath
       id="clipPath18"
       clipPathUnits="userSpaceOnUse"><path
         id="path16"
         d="M 0,299.885 H 657.556 V 0 H 0 Z" /></clipPath></defs><g
     transform="matrix(1.3333333,0,0,-1.3333333,0,399.84667)"
     id="g10"><g
       id="g12"><g
         clip-path="url(#clipPath18)"
         id="g14"><g
           transform="translate(73.6753,206.8661)"
           id="g20"><path
             id="path22"
             style="fill:#3e9947;fill-opacity:1;fill-rule:nonzero;stroke:#00ad45;stroke-width:6;stroke-linecap:butt;stroke-linejoin:miter;stroke-miterlimit:10;stroke-dasharray:none;stroke-opacity:1"
             d="m 0,0 c 0.053,-1.258 0.169,-2.515 0.29,-3.767 0.326,-3.369 0.786,-6.725 1.344,-10.064 0.818,-4.898 1.858,-9.759 3.114,-14.564 1.533,-5.857 3.391,-11.632 5.612,-17.265 2.458,-6.236 5.358,-12.305 8.772,-18.076 3.625,-6.127 7.834,-11.922 12.658,-17.163 5.097,-5.539 10.885,-10.443 17.243,-14.477 6.969,-4.421 14.593,-7.768 22.531,-10.015 9.262,-2.622 18.905,-3.756 28.518,-3.777 10.411,-0.021 20.844,0.987 31.015,3.237 8.992,1.99 17.772,4.963 26.067,8.974 7.526,3.642 14.634,8.141 21.109,13.432 5.997,4.898 11.435,10.473 16.161,16.606 4.43,5.751 8.233,11.988 11.257,18.59 2.797,6.106 4.942,12.52 6.255,19.11 1.206,6.057 1.724,12.271 1.325,18.439 -0.364,5.629 -1.489,11.238 -3.599,16.48 -1.966,4.885 -4.783,9.428 -8.467,13.204 -3.997,4.099 -8.847,7.011 -14.164,9.062 -7.5,2.89 -15.636,4.374 -23.651,3.218 -6.699,-0.967 -12.971,-3.804 -18.315,-7.926 -5.233,-4.036 -9.549,-9.17 -13.069,-14.74 -3.432,-5.431 -6.149,-11.317 -8.204,-17.399 -1.714,-5.073 -3.019,-10.343 -3.542,-15.681 -0.191,-1.949 -0.283,-3.928 -0.105,-5.882 0.117,-1.276 0.316,-2.647 0.955,-3.78 1.243,-2.202 3.852,-1.377 5.195,0.293 2.36,2.935 2.758,7.408 2.927,11.013 0.264,5.645 -0.442,11.361 -1.782,16.841 -1.461,5.972 -3.754,11.838 -7.185,16.962 -3.264,4.875 -7.655,9.061 -13.131,11.322 -6.337,2.616 -13.37,2.248 -19.829,0.268 C 80.373,20.351 73.783,16.68 68.521,11.671 63.916,7.288 60.408,1.875 58.129,-4.051 c -2.387,-6.206 -3.425,-12.876 -3.505,-19.507 -0.088,-7.358 0.984,-14.713 2.806,-21.832 1.987,-7.761 4.88,-15.283 8.415,-22.467 3.773,-7.67 8.298,-14.971 13.43,-21.806 5.254,-6.998 11.149,-13.519 17.622,-19.41 6.504,-5.918 13.597,-11.207 21.201,-15.63 7.574,-4.406 15.669,-7.949 24.102,-10.354 8.226,-2.343 16.756,-3.573 25.311,-3.584 0.387,0 0.388,0.602 0,0.602 -8.798,0.012 -17.555,1.321 -25.992,3.807 -8.329,2.453 -16.307,6.023 -23.779,10.436 -7.469,4.41 -14.433,9.656 -20.823,15.519 -6.381,5.854 -12.203,12.323 -17.382,19.263 -5.004,6.708 -9.424,13.86 -13.125,21.368 -3.506,7.109 -6.372,14.551 -8.352,22.231 -1.804,6.988 -2.877,14.196 -2.836,21.424 0.037,6.567 1.017,13.165 3.318,19.334 2.209,5.924 5.671,11.344 10.231,15.734 5.217,5.024 11.785,8.7 18.694,10.819 6.429,1.969 13.426,2.327 19.71,-0.353 5.444,-2.322 9.768,-6.61 12.944,-11.529 3.307,-5.122 5.504,-10.926 6.893,-16.844 1.258,-5.364 1.905,-10.944 1.6,-16.455 -0.119,-2.159 -0.385,-4.33 -0.976,-6.415 -0.412,-1.457 -0.986,-2.998 -2.032,-4.127 -0.687,-0.744 -1.782,-1.388 -2.822,-1.123 -0.84,0.214 -1.276,1.147 -1.528,1.904 -1.115,3.346 -0.607,7.355 -0.117,10.761 0.785,5.46 2.283,10.826 4.223,15.983 2.249,5.982 5.161,11.744 8.809,16.997 3.742,5.387 8.323,10.278 13.814,13.909 5.681,3.756 12.24,5.992 19.052,6.333 7.96,0.397 16.119,-1.606 23.289,-5.008 4.74,-2.25 8.956,-5.497 12.327,-9.52 3.389,-4.044 5.872,-8.797 7.509,-13.801 1.761,-5.389 2.568,-11.059 2.637,-16.72 0.076,-6.177 -0.719,-12.349 -2.185,-18.344 -1.598,-6.538 -3.993,-12.875 -7.035,-18.876 -3.268,-6.447 -7.278,-12.516 -11.898,-18.072 -4.952,-5.957 -10.599,-11.336 -16.773,-16.012 -6.621,-5.013 -13.838,-9.224 -21.428,-12.588 -8.471,-3.754 -17.402,-6.441 -26.503,-8.158 -10.202,-1.924 -20.681,-2.701 -31.055,-2.325 -9.257,0.336 -18.49,1.773 -27.316,4.621 -7.66,2.471 -14.961,6.011 -21.609,10.552 -6.103,4.169 -11.621,9.161 -16.474,14.731 -4.598,5.28 -8.593,11.069 -12.033,17.164 -3.229,5.719 -5.974,11.705 -8.292,17.848 -2.057,5.449 -3.784,11.021 -5.21,16.668 -1.168,4.623 -2.136,9.298 -2.9,14.005 C 1.573,-9.733 1.15,-6.552 0.853,-3.359 0.749,-2.242 0.648,-1.121 0.602,0 0.585,0.386 -0.016,0.388 0,0" /></g><g
           transform="translate(73.6753,206.8661)"
           id="g24"><path
             id="path26"
             style="fill:none;stroke:#00ad45;stroke-width:6;stroke-linecap:butt;stroke-linejoin:miter;stroke-miterlimit:10;stroke-dasharray:none;stroke-opacity:1"
             d="m 0,0 c 0.053,-1.258 0.169,-2.515 0.29,-3.767 0.326,-3.369 0.786,-6.725 1.344,-10.064 0.818,-4.898 1.858,-9.759 3.114,-14.564 1.533,-5.857 3.391,-11.632 5.612,-17.265 2.458,-6.236 5.358,-12.305 8.772,-18.076 3.625,-6.127 7.834,-11.922 12.658,-17.163 5.097,-5.539 10.885,-10.443 17.243,-14.477 6.969,-4.421 14.593,-7.768 22.531,-10.015 9.262,-2.622 18.905,-3.756 28.518,-3.777 10.411,-0.021 20.844,0.987 31.015,3.237 8.992,1.99 17.772,4.963 26.067,8.974 7.526,3.642 14.634,8.141 21.109,13.432 5.997,4.898 11.435,10.473 16.161,16.606 4.43,5.751 8.233,11.988 11.257,18.59 2.797,6.106 4.942,12.52 6.255,19.11 1.206,6.057 1.724,12.271 1.325,18.439 -0.364,5.629 -1.489,11.238 -3.599,16.48 -1.966,4.885 -4.783,9.428 -8.467,13.204 -3.997,4.099 -8.847,7.011 -14.164,9.062 -7.5,2.89 -15.636,4.374 -23.651,3.218 -6.699,-0.967 -12.971,-3.804 -18.315,-7.926 -5.233,-4.036 -9.549,-9.17 -13.069,-14.74 -3.432,-5.431 -6.149,-11.317 -8.204,-17.399 -1.714,-5.073 -3.019,-10.343 -3.542,-15.681 -0.191,-1.949 -0.283,-3.928 -0.105,-5.882 0.117,-1.276 0.316,-2.647 0.955,-3.78 1.243,-2.202 3.852,-1.377 5.195,0.293 2.36,2.935 2.758,7.408 2.927,11.013 0.264,5.645 -0.442,11.361 -1.782,16.841 -1.461,5.972 -3.754,11.838 -7.185,16.962 -3.264,4.875 -7.655,9.061 -13.131,11.322 -6.337,2.616 -13.37,2.248 -19.829,0.268 C 80.373,20.351 73.783,16.68 68.521,11.671 63.916,7.288 60.408,1.875 58.129,-4.051 c -2.387,-6.206 -3.425,-12.876 -3.505,-19.507 -0.088,-7.358 0.984,-14.713 2.806,-21.832 1.987,-7.761 4.88,-15.283 8.415,-22.467 3.773,-7.67 8.298,-14.971 13.43,-21.806 5.254,-6.998 11.149,-13.519 17.622,-19.41 6.504,-5.918 13.597,-11.207 21.201,-15.63 7.574,-4.406 15.669,-7.949 24.102,-10.354 8.226,-2.343 16.756,-3.573 25.311,-3.584 0.387,0 0.388,0.602 0,0.602 -8.798,0.012 -17.555,1.321 -25.992,3.807 -8.329,2.453 -16.307,6.023 -23.779,10.436 -7.469,4.41 -14.433,9.656 -20.823,15.519 -6.381,5.854 -12.203,12.323 -17.382,19.263 -5.004,6.708 -9.424,13.86 -13.125,21.368 -3.506,7.109 -6.372,14.551 -8.352,22.231 -1.804,6.988 -2.877,14.196 -2.836,21.424 0.037,6.567 1.017,13.165 3.318,19.334 2.209,5.924 5.671,11.344 10.231,15.734 5.217,5.024 11.785,8.7 18.694,10.819 6.429,1.969 13.426,2.327 19.71,-0.353 5.444,-2.322 9.768,-6.61 12.944,-11.529 3.307,-5.122 5.504,-10.926 6.893,-16.844 1.258,-5.364 1.905,-10.944 1.6,-16.455 -0.119,-2.159 -0.385,-4.33 -0.976,-6.415 -0.412,-1.457 -0.986,-2.998 -2.032,-4.127 -0.687,-0.744 -1.782,-1.388 -2.822,-1.123 -0.84,0.214 -1.276,1.147 -1.528,1.904 -1.115,3.346 -0.607,7.355 -0.117,10.761 0.785,5.46 2.283,10.826 4.223,15.983 2.249,5.982 5.161,11.744 8.809,16.997 3.742,5.387 8.323,10.278 13.814,13.909 5.681,3.756 12.24,5.992 19.052,6.333 7.96,0.397 16.119,-1.606 23.289,-5.008 4.74,-2.25 8.956,-5.497 12.327,-9.52 3.389,-4.044 5.872,-8.797 7.509,-13.801 1.761,-5.389 2.568,-11.059 2.637,-16.72 0.076,-6.177 -0.719,-12.349 -2.185,-18.344 -1.598,-6.538 -3.993,-12.875 -7.035,-18.876 -3.268,-6.447 -7.278,-12.516 -11.898,-18.072 -4.952,-5.957 -10.599,-11.336 -16.773,-16.012 -6.621,-5.013 -13.838,-9.224 -21.428,-12.588 -8.471,-3.754 -17.402,-6.441 -26.503,-8.158 -10.202,-1.924 -20.681,-2.701 -31.055,-2.325 -9.257,0.336 -18.49,1.773 -27.316,4.621 -7.66,2.471 -14.961,6.011 -21.609,10.552 -6.103,4.169 -11.621,9.161 -16.474,14.731 -4.598,5.28 -8.593,11.069 -12.033,17.164 -3.229,5.719 -5.974,11.705 -8.292,17.848 -2.057,5.449 -3.784,11.021 -5.21,16.668 -1.168,4.623 -2.136,9.298 -2.9,14.005 C 1.573,-9.733 1.15,-6.552 0.853,-3.359 0.749,-2.242 0.648,-1.121 0.602,0 0.585,0.386 -0.016,0.388 0,0 Z" /></g></g></g><text
       id="text32"
       style="font-variant:normal;font-weight:normal;font-stretch:normal;font-size:36px;font-family:Raleway;-inkscape-font-specification:Raleway-Regular;writing-mode:lr-tb;fill:#232527;fill-opacity:1;fill-rule:nonzero;stroke:none"
       transform="matrix(1,0,0,-1,306.6816,169.3037)"><tspan
         id="tspan28"
         y="0"
         x="0 23.219999 32.400002 54.612 75.744003 96.732002 117.684 128.808 131.112 139.32001 159.084 166.93201 188.35201">A benef icio </tspan><tspan
         id="tspan30"
         y="42.012001"
         x="0 22.392 43.523998 52.703999 62.495998 82.115997">de la </tspan></text>
<text
       id="text38"
       style="font-variant:normal;font-weight:bold;font-stretch:normal;font-size:36px;font-family:Raleway;-inkscape-font-specification:Raleway-Bold;writing-mode:lr-tb;fill:#232527;fill-opacity:1;fill-rule:nonzero;stroke:none"
       transform="matrix(1,0,0,-1,397.9776,127.2917)"><tspan
         id="tspan34"
         y="0"
         x="0 11.412 33.804001 54.108002 75.779999 96.587997">lucha </tspan><tspan
         id="tspan36"
         y="42.012001"
         x="-91.295998 -71.208 -49.428001 -27.827999 -14.076 -0.43200001 20.375999 28.98 50.580002 61.127998 69.732002 90.036003 110.844 132.51601 152.82001 174.42">contra el cáncer</tspan></text>
</g></svg>