<svg width="1440" height="4332" viewBox="0 0 1440 4332" fill="none" xmlns="http://www.w3.org/2000/svg">
<path d="M1698.11 -1839C1770.27 -1332.28 1816.37 -858.32 1795.8 -483.454C1789.14 -361.911 1775.27 -250.347 1734.92 -183.656C1652.65 -47.6628 1466.34 -105.353 1334.41 -60.5464C1166.84 -3.66406 1089.02 225.97 1107.03 592.558C1120.6 868.412 1174.27 1251.82 1099.03 1391.63C1030.67 1518.64 702.701 1171.51 524.704 1060.65C342.4 947.125 215.362 966.287 156.147 1099.87C125.132 1169.86 112.52 1271.31 120.412 1401.98C127.97 1526.94 187.791 1737.03 54.3303 1614.4C10.2159 1573.86 -42.3731 1503.83 -90.6941 1449.2C-258.61 1259.38 -362.11 1288.95 -317.383 1514M1698.4 -1822.14C1777.12 -1311.37 1827.05 -834.087 1806.88 -460.755C1800.25 -336.28 1783.83 -226.641 1744.71 -155.115C1697.28 -69.2111 1613.23 -51.1099 1524.84 -40.6803C1464.51 -33.5476 1402.15 -30.0111 1348.01 -10.9839C1241.06 26.6385 1167 127.657 1127.53 283.161C1104.46 374.096 1093.25 483.706 1094.42 610.703C1095.05 699.562 1100.13 800.363 1103.1 899.484C1107.1 1038.57 1106.85 1174.23 1085.31 1271.61C1077.63 1306.66 1067.21 1336.78 1053.19 1360.1C995.09 1456.26 783.939 1273.67 613.617 1146.72C567.845 1112.47 525.008 1082.21 488.815 1062.4C339.468 979.848 231.317 993.863 170.854 1091.5C160.436 1108.29 151.429 1127.57 143.859 1149.29C116.854 1226.69 107.775 1334.75 117.195 1469.34C122.785 1549.06 147.3 1659.76 134.044 1705.06C125.887 1732.96 103.31 1735.67 53.579 1691.88C10.1283 1653.62 -41.5997 1586.92 -89.3813 1534.7C-255.4 1353.14 -360.46 1381.56 -318.743 1604.91M1698.68 -1805.32C1783.97 -1290.47 1837.72 -809.888 1817.93 -438.085C1811.34 -310.645 1792.39 -202.935 1754.45 -126.633C1708.49 -35.6712 1626.05 -11.8533 1538.41 2.80512C1478.58 12.835 1416.3 18.5876 1361.56 38.5222C1253.37 77.8233 1175.28 175.196 1129.09 321.751C1102.08 407.424 1086.08 510.049 1081.76 628.792C1078.37 711.738 1079.14 805.853 1077.77 898.106C1075.57 1027.45 1069.03 1153.03 1043.13 1244.59C1033.94 1277.59 1022.29 1306.17 1007.3 1328.55C944.991 1420.77 737.837 1250.04 573.107 1137.29C528.842 1106.74 487.695 1080.56 452.918 1064.19C310.217 997.014 208.747 1024.25 155.092 1134.54C145.84 1153.48 138.014 1174.94 131.555 1198.71C108.552 1283.52 103.005 1398.2 113.976 1536.73C120.49 1618.83 144.807 1730.24 131.801 1777.33C123.782 1806.35 101.414 1810.22 52.8271 1769.39C10.0253 1733.41 -40.8111 1670.07 -88.0692 1620.24C-252.183 1446.93 -358.817 1474.21 -320.112 1695.82M1698.97 -1788.5C1790.8 -1269.58 1848.41 -785.656 1829 -415.42C1822.43 -285.044 1800.94 -179.263 1764.23 -98.1254C1719.76 -2.07425 1638.91 27.4306 1552.01 46.3178C1492.69 59.2752 1430.51 67.2398 1375.12 88.0248C1265.73 129.031 1183.58 222.732 1130.66 360.303C1099.72 440.748 1079.28 536.938 1069.1 646.846C1061.94 724.257 1058.13 811.282 1052.46 896.69C1044.03 1016.3 1031.22 1131.79 1000.94 1217.5C990.263 1248.44 977.353 1275.5 961.431 1296.95C894.908 1385.23 692.15 1227.31 532.598 1127.8C489.928 1101.17 450.318 1078.68 417.005 1065.87C280.706 1013.47 186.154 1054.53 139.337 1177.51C131.26 1198.63 124.583 1222.2 119.258 1248.06C100.264 1340.28 98.251 1461.57 110.774 1604.04C118.211 1688.53 142.337 1800.64 129.573 1849.53C121.709 1879.69 99.5639 1884.76 52.0666 1846.8C9.92965 1813.14 -40.0467 1753.08 -86.7815 1705.64C-248.998 1540.59 -357.208 1566.69 -321.497 1786.63M1699.26 -1771.64C1797.65 -1248.67 1859.09 -761.423 1840.09 -392.69C1833.57 -259.349 1809.82 -155.024 1774.01 -69.584C1731.36 32.1195 1651.78 66.7438 1565.64 89.8939C1506.81 105.745 1444.74 115.956 1388.74 137.618C1278.12 180.333 1191.94 270.388 1132.29 398.98C1097.41 474.163 1072.26 563.55 1056.5 665.021C1045.39 736.641 1037.18 816.828 1027.21 895.429C1012.58 1005.3 993.484 1110.71 958.824 1190.57C946.641 1219.45 932.485 1244.98 915.613 1265.48C844.881 1349.82 646.249 1204.04 492.136 1118.43C450.997 1095.57 412.996 1076.92 381.148 1067.68C251.265 1030.04 163.623 1084.94 123.614 1220.57C116.695 1243.84 111.185 1269.56 106.994 1297.5C92.0092 1397.14 93.5218 1525.04 107.58 1671.43C115.94 1758.29 139.86 1871.08 127.353 1921.79C119.644 1953.11 97.7155 1959.37 51.3382 1924.31C9.8587 1892.96 -39.2342 1836.23 -85.4456 1791.17C-245.765 1634.37 -355.541 1659.33 -322.842 1877.54M1699.54 -1754.82C1804.5 -1227.77 1869.78 -737.198 1851.15 -370.025C1844.65 -233.748 1818.43 -131.234 1783.76 -41.1065C1742.65 65.7736 1664.62 105.997 1579.21 133.376C1520.9 152.154 1458.92 164.577 1402.28 187.089C1290.45 231.51 1200.22 317.889 1133.84 437.532C1095.03 507.487 1065.17 590.008 1043.84 683.071C1028.76 748.867 1016.42 822.66 1001.88 894.013C981.386 994.709 955.327 1088.87 916.631 1163.48C902.825 1190.1 887.55 1214.3 869.714 1233.86C794.764 1314.26 600.258 1180.58 451.61 1108.94C412.009 1089.84 375.601 1075.04 345.218 1069.37C221.711 1046.4 141.02 1115.23 107.835 1263.55C102.098 1289 97.7375 1316.83 94.6655 1346.86C83.7067 1453.94 88.7444 1588.45 104.337 1738.76C113.622 1828 137.344 1941.5 125.086 1994C117.531 2026.47 95.8192 2033.92 50.562 2001.76C9.73988 1972.73 -38.4699 1919.31 -84.1578 1876.64C-242.572 1728.09 -353.916 1751.91 -324.227 1968.42M1699.84 -1737.97C1811.35 -1206.86 1880.46 -712.966 1862.23 -347.326C1855.78 -208.087 1827.05 -107.442 1793.54 -12.5653C1753.98 99.4915 1677.47 145.283 1592.82 176.922C1535 198.597 1473.13 213.266 1415.88 236.652C1302.83 282.782 1208.57 365.515 1135.44 476.148C1092.69 540.84 1058.09 616.533 1031.21 701.186C1012.16 761.16 995.48 828.206 976.596 892.656C949.932 983.711 917.499 1067.61 874.472 1136.46C859.154 1160.98 842.658 1183.71 823.856 1202.29C744.697 1278.75 554.316 1157.17 411.108 1099.48C373.046 1084.14 338.231 1073.15 309.329 1071.12C192.206 1062.82 118.458 1145.58 92.0806 1306.55C87.5018 1334.15 84.3072 1364.13 82.353 1396.22C75.4039 1510.7 83.9745 1651.82 101.111 1806.08C111.319 1897.7 134.851 2011.91 122.834 2066.21C115.442 2099.82 93.9405 2108.51 49.7947 2079.21C9.6386 2052.54 -37.7127 2002.37 -82.8697 1962.08C-239.387 1821.79 -352.313 1844.43 -325.604 2059.26M1700.11 -1721.14C1818.17 -1185.98 1891.13 -688.767 1873.28 -324.656C1866.86 -182.483 1835.63 -83.7083 1803.29 15.9164C1765.25 133.119 1690.29 184.54 1606.39 220.407C1549.08 245.011 1487.3 261.892 1429.41 286.128C1315.16 333.963 1216.83 413.024 1136.99 514.704C1090.32 574.165 1050.98 642.998 1018.53 719.244C995.51 773.401 974.479 833.699 951.269 891.278C918.422 972.66 879.637 1046.32 832.279 1109.41C815.45 1131.84 797.716 1153.07 777.958 1170.71C694.582 1243.23 508.325 1133.71 370.574 1089.99C334.034 1078.39 300.82 1071.24 273.391 1072.81C162.627 1079.11 95.8399 1175.87 76.2936 1349.53C72.8732 1379.28 70.8607 1411.43 70.0244 1445.57C67.0849 1567.47 79.181 1715.21 97.8532 1873.38C108.985 1967.38 132.318 2082.3 120.551 2138.39C113.297 2173.12 92.045 2183.1 48.9861 2156.6C9.48856 2132.28 -36.9804 2085.4 -81.614 2047.49C-236.242 1915.42 -350.719 1936.95 -327.037 2150.05M1700.4 -1704.32C1825.02 -1165.08 1901.82 -664.542 1884.36 -301.964C1877.98 -156.824 1844.23 -59.953 1813.08 44.4504C1776.55 166.769 1703.16 223.85 1620.02 263.977C1563.21 291.473 1501.54 310.6 1443.02 335.717C1327.55 385.261 1225.17 460.646 1138.61 553.378C1087.99 607.579 1043.9 669.523 1005.93 737.416C978.917 785.725 953.565 839.302 926.013 889.979C886.998 961.719 841.862 1025.13 790.15 1082.44C771.801 1102.79 752.845 1122.52 732.13 1139.2C644.544 1207.78 462.395 1110.3 330.103 1080.58C295.085 1072.71 263.479 1069.41 237.523 1074.58C133.086 1095.42 73.2992 1206.24 60.584 1392.59C58.3455 1424.51 57.4826 1458.78 57.7653 1495.01C58.8356 1624.32 74.4573 1778.67 94.6807 1940.79C106.736 2037.17 129.862 2152.76 118.353 2210.68C111.254 2246.56 90.2443 2257.84 48.2797 2234.13C9.45668 2212.2 -36.1625 2168.53 -80.2566 2133.04C-232.988 2009.23 -349.031 2029.61 -328.344 2241.01M1700.69 -1687.47C1831.87 -1144.17 1912.5 -640.31 1895.43 -279.261C1889.08 -131.187 1852.83 -36.1864 1822.83 72.9691C1787.81 200.404 1716 263.145 1633.6 307.5C1577.3 337.924 1515.7 359.236 1456.57 385.226C1339.89 436.476 1233.47 508.219 1140.16 591.937C1085.62 640.907 1036.77 695.961 993.282 755.504C962.271 797.965 932.59 844.826 900.696 888.601C855.497 950.667 804.026 1003.87 747.959 1055.39C728.099 1073.65 707.905 1091.88 686.234 1107.62C594.431 1172.26 416.374 1086.78 289.578 1071.13C256.09 1066.99 226.063 1067.5 201.596 1076.31C103.485 1111.66 50.6992 1236.57 44.7917 1435.57C43.7116 1469.64 44.0144 1506.06 45.431 1544.38C50.5109 1681.09 69.6817 1842.08 91.433 2008.13C104.419 2106.88 127.34 2223.19 116.08 2282.9C109.136 2319.93 88.3679 2332.51 47.4902 2311.59C9.33427 2292.05 -35.4113 2251.63 -78.998 2218.49C-229.824 2102.93 -347.458 2122.15 -329.775 2331.84M1700.98 -1670.64C1838.71 -1123.29 1923.19 -616.08 1906.5 -256.595C1900.19 -105.555 1861.42 -12.4569 1832.6 101.477C1799.09 234.031 1728.86 302.425 1647.2 351.016C1591.39 384.338 1529.89 407.892 1470.15 434.763C1352.25 487.721 1241.78 555.789 1141.75 630.558C1083.26 674.268 1029.64 722.403 980.646 773.623C945.625 810.205 911.631 850.38 875.411 887.283C824.006 939.651 766.223 982.67 705.824 1028.43C684.452 1044.6 663.021 1061.33 640.4 1076.12C544.388 1136.82 370.414 1063.3 249.102 1061.74C217.136 1061.32 188.701 1065.65 165.717 1078.09C73.8989 1127.88 28.1459 1266.95 29.0621 1478.64C29.1564 1514.89 30.6093 1553.42 33.1597 1593.83C42.2493 1737.95 64.9455 1905.56 88.2395 2075.51C102.149 2176.65 124.879 2293.66 113.861 2355.17C107.071 2393.34 86.5617 2407.25 46.7624 2389.09C9.28959 2371.98 -34.5404 2334.94 -77.6614 2304.02C-226.329 2197.39 -345.784 2214.78 -331.111 2422.78M1701.25 -1653.82C1845.55 -1102.38 1933.85 -591.878 1917.56 -233.93C1911.27 -79.9542 1869.98 11.2455 1842.35 129.955C1810.33 267.594 1741.69 341.678 1660.77 394.498C1605.47 430.747 1544.08 456.514 1483.69 484.235C1364.58 538.899 1250.05 603.294 1143.31 669.11C1080.9 707.589 1022.47 748.78 967.984 791.673C928.953 822.377 890.63 855.835 850.091 885.864C792.486 928.528 728.4 961.398 663.631 1001.34C640.756 1015.45 618.087 1030.65 594.501 1044.5C494.272 1101.26 324.366 1039.68 208.559 1052.21C178.107 1055.5 151.257 1063.64 129.786 1079.78C44.2306 1143.95 5.53525 1297.24 13.2665 1521.59C14.5267 1559.98 17.1618 1600.69 20.8226 1643.15C33.9219 1794.68 60.1433 1968.91 84.9886 2142.81C99.8215 2246.32 122.338 2364.02 111.585 2427.34C104.958 2466.66 84.7072 2481.94 45.9616 2466.48C9.18046 2451.82 -33.8007 2417.96 -76.4143 2389.4C-223.177 2291.02 -344.206 2307.27 -332.529 2513.57M1701.55 -1636.97C1852.4 -1081.47 1944.55 -567.616 1928.64 -211.197C1922.41 -54.2592 1878.57 35.0113 1852.15 158.53C1821.62 301.254 1754.55 380.999 1674.39 438.078C1619.59 477.221 1558.3 505.233 1497.3 533.831C1376.97 590.204 1258.4 650.954 1144.92 707.79C1078.57 741.01 1015.37 775.282 955.372 809.856C912.331 834.681 869.678 861.422 824.813 884.579C761.002 917.544 690.62 940.26 621.488 974.385C597.101 986.406 573.195 1000.11 548.676 1013.04C444.237 1065.85 278.383 1016.18 168.114 1042.88C139.176 1049.86 113.911 1061.82 93.9453 1081.62C14.6353 1160.14 -16.9791 1327.68 -2.42417 1564.72C0.0104717 1605.29 3.79524 1648.11 8.5825 1692.66C25.7074 1851.63 55.4462 2032.44 81.8354 2210.29C97.5918 2316.18 119.917 2434.58 109.406 2499.7C102.917 2540.14 82.9422 2556.81 45.2664 2544.09C9.20034 2531.91 -32.9552 2501.2 -75.0453 2475.02C-219.887 2384.93 -342.515 2399.98 -333.848 2604.57M1701.83 -1620.15C1859.23 -1060.59 1954.4 -544.662 1939.71 -188.534C1933.14 -29.2104 1887.12 58.6803 1861.9 187.004C1832.85 334.787 1767.39 420.248 1687.99 481.587C1633.7 523.657 1572.49 553.886 1510.86 583.33C1389.32 641.409 1266.71 698.482 1146.49 746.339C1076.21 774.327 1008.18 801.591 942.717 827.903C895.65 846.82 848.668 866.844 799.517 883.186C729.498 906.451 652.828 919.011 579.318 947.323C553.436 957.285 528.276 969.457 502.8 981.439C394.144 1030.31 232.333 992.518 127.595 1033.38C100.17 1044.06 76.4906 1059.83 58.0224 1083.3C-15.0578 1176.15 -39.5748 1357.96 -18.2048 1607.65C-14.6117 1650.38 -9.66112 1695.34 -3.73999 1741.98C17.3945 1908.36 50.6587 2095.78 78.5831 2277.55C95.2631 2385.82 117.39 2504.93 107.128 2571.84C100.795 2613.43 81.1023 2631.49 44.4803 2621.46C9.12191 2611.77 -32.2006 2584.22 -73.7599 2560.42C-216.681 2478.61 -340.899 2492.48 -335.228 2695.37M1702.11 -1603.32C1866.08 -1039.68 1965.07 -520.46 1950.76 -165.862C1944.22 -3.60236 1895.67 82.3558 1871.65 215.489C1844.06 368.331 1780.22 459.509 1701.56 525.077C1647.76 570.044 1586.67 602.514 1524.41 632.84C1401.64 692.597 1275.01 746.056 1148.05 784.933C1073.82 807.662 1000.98 827.95 930.057 845.995C878.941 858.977 827.67 872.34 774.192 881.811C697.951 895.347 615.017 897.814 537.121 920.279C509.735 928.185 483.353 938.852 456.904 949.858C344.039 994.791 186.263 968.871 87.0555 1023.9C61.1373 1038.28 39.0502 1057.87 22.0797 1085C-44.81 1192.11 -62.1907 1388.26 -33.997 1650.64C-29.238 1695.51 -23.1214 1742.62 -16.0738 1791.34C9.07036 1965.14 45.8758 2159.2 75.3355 2344.88C92.923 2455.5 114.86 2575.32 104.856 2644.06C98.6765 2686.8 79.2752 2706.29 43.6984 2698.92C9.05625 2691.75 -31.4504 2667.28 -72.4936 2645.87C-213.51 2572.32 -339.295 2585.04 -336.65 2786.2M1702.4 -1586.47C1872.93 -1018.78 1975.78 -496.205 1961.84 -143.17C1955.33 22.0246 1904.23 106.054 1881.44 244.023C1855.33 401.923 1793.09 498.819 1715.18 568.615C1661.89 616.51 1600.89 651.192 1538 682.364C1414.01 743.827 1283.32 793.613 1149.65 823.541C1071.5 841.039 993.831 854.319 917.434 864.102C862.292 871.175 806.692 877.822 748.904 880.452C666.431 884.223 577.242 876.632 494.967 893.247C466.086 899.093 438.45 908.232 411.052 918.287C293.97 959.282 140.205 945.173 46.5594 1014.43C22.1389 1032.48 1.63704 1055.88 -13.8037 1086.74C-74.5116 1208.08 -84.7547 1418.6 -49.7298 1693.67C-43.7964 1740.72 -36.5143 1789.97 -28.3488 1840.75C0.805055 2021.95 41.1438 2222.62 72.1473 2412.26C90.6584 2525.26 112.405 2645.78 102.642 2716.32C96.6178 2760.21 77.5235 2781.15 42.9685 2776.42C9.04993 2771.77 -30.6394 2750.42 -71.1592 2731.39C-210.271 2666.09 -337.646 2677.65 -337.981 2877.13M1702.68 -1569.64C1879.76 -997.897 1987.27 -470.76 1972.9 -120.497C1966.8 48.2426 1912.77 129.733 1891.18 272.508C1866.54 435.467 1805.92 538.075 1728.75 612.104C1675.96 662.892 1615.05 699.791 1551.55 731.874C1426.35 795.046 1291.61 841.156 1151.2 862.101C1069.11 874.34 986.616 880.609 904.758 882.164C845.558 883.267 785.661 883.258 723.587 879.073C634.891 873.115 539.438 855.431 452.776 866.2C422.4 869.986 393.51 877.596 365.155 886.706C243.863 923.757 94.1027 921.465 6.03578 1004.98C-16.8711 1026.73 -35.8112 1053.91 -49.7234 1088.47C-104.273 1224.01 -107.347 1448.92 -65.5149 1736.65C-58.4156 1785.85 -49.9748 1837.25 -40.6829 1890.12C-7.51938 2078.73 36.3445 2286.01 68.8833 2479.57C88.3179 2594.95 109.866 2716.18 100.36 2788.5C94.4817 2833.51 75.7038 2855.94 42.1621 2853.82C8.9832 2851.71 -30.0026 2833.23 -69.9019 2816.81C-207.432 2759.04 -336.051 2770.17 -339.412 2967.93M1702.96 -1552.82C1886.61 -976.985 1997.95 -446.527 1983.98 -97.7961C1977.91 73.8748 1921.34 153.437 1900.97 301.051C1877.78 469.038 1818.77 577.364 1742.37 655.682C1690.09 709.398 1629.27 748.512 1565.14 781.442C1438.73 846.319 1299.94 888.787 1152.8 900.753C1066.78 907.76 979.45 906.99 892.138 900.314C828.897 895.478 764.678 888.748 698.302 877.756C603.375 862.034 501.667 834.291 410.626 839.21C378.753 840.936 348.618 847.015 319.307 855.178C193.798 888.291 48.0084 897.754 -34.4492 995.55C-55.8658 1020.97 -73.2294 1051.94 -85.6119 1090.22C-134.026 1239.94 -129.909 1479.27 -81.253 1779.69C-72.9793 1831.06 -63.3811 1884.58 -52.9788 1939.5C-15.8056 2135.52 31.5918 2349.42 65.6745 2546.92C86.0326 2664.68 107.374 2786.59 98.1257 2860.74C92.4022 2906.89 73.947 2930.82 41.4185 2931.3C8.99524 2931.76 -29.2213 2916.31 -68.5971 2902.28C-204.222 2852.76 -334.416 2862.75 -340.78 3058.81M1703.26 -1535.96C1893.46 -956.078 2008.64 -422.298 1995.06 -75.1011C1989.04 99.5355 1929.89 177.108 1910.74 329.558C1889.01 502.573 1831.63 616.646 1755.97 699.194C1704.19 755.806 1643.48 797.163 1578.73 830.97C1451.1 897.556 1308.27 936.348 1154.41 939.361C1064.45 941.109 972.281 933.294 879.524 918.42C812.225 907.615 743.709 894.229 673.03 876.393C571.848 850.88 463.924 813.136 368.497 812.208C335.121 811.878 303.739 816.425 273.471 823.642C143.745 852.816 1.92802 874.033 -74.9276 986.114C-94.8625 1015.17 -110.648 1049.96 -121.494 1091.96C-163.805 1255.79 -152.464 1509.61 -96.9925 1822.69C-87.5604 1876.21 -76.7964 1931.87 -65.2603 1988.88C-24.0774 2192.31 26.8612 2412.85 62.4706 2614.24C83.7523 2734.38 104.896 2856.99 95.8968 2932.94C90.328 2980.24 72.2198 3005.68 40.6736 3008.73C9.02205 3011.81 -28.4258 2999.39 -67.2783 2987.74C-201.022 2946.45 -332.775 2955.29 -342.127 3149.67M1703.54 -1519.14C1900.29 -935.202 2019.31 -398.1 2006.11 -52.432C2000.12 125.14 1938.41 200.756 1920.49 358.073C1900.22 536.116 1844.46 655.937 1769.55 742.713C1718.27 802.254 1657.66 845.822 1592.27 880.48C1463.43 948.771 1316.55 983.921 1155.95 977.924C1062.06 974.44 965.034 959.558 866.839 936.482C795.489 919.703 722.653 899.634 647.696 875.017C540.283 839.741 426.119 791.969 326.297 785.161C291.426 782.77 258.791 785.79 227.573 792.056C93.6378 817.288 -44.2157 850.264 -115.453 976.66C-133.898 1009.38 -148.107 1047.95 -157.423 1093.69C-193.639 1271.64 -175.073 1539.94 -112.771 1865.7C-102.157 1921.4 -90.2346 1979.21 -77.5805 2038.27C-32.372 2249.14 22.076 2476.27 59.2366 2681.6C81.4419 2804.12 102.395 2927.44 93.6533 3005.21C88.2392 3053.66 70.4705 3080.62 39.9215 3086.25C9.03413 3091.93 -27.6531 3082.51 -65.9661 3073.27C-197.805 3040.23 -331.132 3047.94 -343.503 3240.59M1703.82 -1502.32C1907.14 -914.295 2029.99 -373.871 2017.18 -29.7699C2011.22 150.768 1946.94 224.394 1930.25 386.547C1911.42 569.622 1857.3 695.187 1783.13 786.192C1732.35 848.629 1671.85 894.44 1605.85 929.974C1475.78 999.975 1324.86 1031.45 1157.53 1016.5C1059.7 1007.76 957.848 985.829 854.207 954.556C778.8 931.807 701.658 905.048 622.4 873.625C508.739 828.553 388.352 770.784 284.127 758.099C247.769 753.682 213.879 755.136 181.698 760.459C43.5452 781.752 -90.3601 826.457 -155.972 967.165C-172.935 1003.53 -185.567 1045.91 -193.322 1095.4C-223.45 1287.47 -197.646 1570.25 -128.536 1908.67C-116.763 1966.51 -103.667 2026.47 -89.8943 2087.62C-40.6836 2305.91 17.305 2539.64 56.0095 2748.92C79.1458 2873.82 99.8769 2997.82 91.4007 3077.41C86.1413 3127.01 68.7279 3155.52 39.1442 3163.66C9.04449 3171.98 -26.8902 3165.56 -64.6957 3158.67C-194.638 3133.89 -329.524 3140.45 -344.898 3331.4M1704.12 -1485.46C1913.99 -893.384 2040.68 -349.639 2028.26 -7.03676C2022.34 176.436 1955.48 248.073 1940.04 415.122C1922.65 603.195 1870.18 734.538 1796.77 829.802C1746.5 895.164 1686.08 943.194 1619.45 979.575C1488.17 1051.28 1333.19 1079.08 1159.14 1055.18C1057.39 1041.21 950.665 1012.18 841.588 972.742C762.13 944.02 680.675 910.575 597.123 872.34C477.222 817.471 350.597 749.711 241.977 731.146C204.123 724.669 168.98 724.595 135.849 728.968C-6.51292 746.318 -136.493 802.724 -196.464 957.774C-211.937 997.806 -223.007 1043.98 -229.217 1097.19C-253.289 1303.32 -220.214 1600.64 -144.28 1951.74C-131.334 2011.77 -117.088 2073.84 -102.181 2137.08C-48.9606 2362.77 12.5534 2603.12 52.7932 2816.32C76.853 2943.59 97.3936 3068.31 89.1591 3149.69C84.0459 3200.41 67.0034 3230.49 38.3859 3241.18C9.08134 3252.14 -26.123 3248.69 -63.3817 3244.21C-191.426 3227.69 -327.879 3233.1 -346.272 3422.32M1704.39 -1468.64C1920.82 -872.508 2051.36 -325.409 2039.32 15.629C2033.44 202.064 1964.01 271.715 1949.79 443.6C1933.83 636.674 1883.02 773.787 1810.34 873.284C1760.57 941.543 1700.24 991.785 1633 1029.08C1500.51 1102.49 1341.5 1126.64 1160.7 1093.74C1055 1074.5 943.431 1038.4 828.925 990.793C745.401 956.067 659.641 915.969 571.811 870.954C445.663 806.291 312.831 728.563 199.8 704.087C160.459 695.585 124.07 693.979 89.9818 697.406C-56.5972 710.817 -182.662 778.89 -236.968 948.309C-250.966 991.981 -260.467 1041.94 -265.124 1098.9C-283.147 1319.1 -242.794 1630.95 -160.029 1994.74C-145.916 2056.92 -130.512 2121.13 -114.472 2186.45C-57.2416 2419.56 7.79798 2666.52 49.589 2883.67C74.5724 3013.32 94.9148 3138.74 86.9295 3221.92C81.971 3273.79 65.3077 3305.44 37.6481 3318.65C9.14717 3332.28 -25.3205 3331.79 -62.0718 3329.67C-188.212 3321.4 -326.255 3325.64 -347.628 3513.18M1704.68 -1451.82C1927.67 -851.6 2062.04 -301.211 2050.38 38.2982C2044.53 227.668 1972.1 294.693 1959.55 472.081C1944.57 669.459 1895.83 813.014 1823.92 916.77C1774.66 987.956 1714.43 1040.41 1646.55 1078.55C1512.85 1153.67 1349.78 1174.15 1162.26 1132.29C1052.64 1107.83 936.207 1064.61 816.265 1008.85C728.674 968.117 638.617 921.364 546.493 869.538C414.104 795.077 275.357 708.043 157.609 677.002C116.869 666.66 79.1366 663.302 44.0918 665.783C-106.697 675.252 -228.844 755.03 -277.485 938.818C-290.009 986.13 -297.925 1039.91 -301.045 1100.59C-313.02 1334.86 -265.395 1661.24 -175.815 2037.69C-160.544 2102.01 -143.951 2168.4 -126.807 2235.78C-65.5673 2476.3 3.02117 2729.9 46.34 2950.97C72.2469 3083 92.3827 3209.1 84.6552 3294.1C79.8514 3347.11 63.5665 3380.35 36.8646 3396.07C9.16741 3412.36 -24.563 3414.85 -60.7909 3415.12C-185.033 3415.1 -324.636 3418.19 -349.02 3604.03M1704.97 -1434.96C1934.51 -830.686 2072.72 -276.978 2061.46 60.9976C2055.65 253.333 1980.68 318.429 1969.33 500.623C1955.82 703.059 1908.7 852.331 1837.53 960.316C1788.76 1034.4 1728.64 1089.1 1660.14 1128.12C1525.22 1204.94 1358.12 1221.78 1163.87 1170.94C1050.3 1141.21 929.031 1090.92 803.652 1026.99C711.995 980.259 617.47 926.435 521.215 868.217C382.351 783.384 237.568 686.872 115.465 650.008C73.2293 637.606 34.2442 632.72 -1.75749 634.254C-156.763 639.784 -275.002 731.234 -317.978 929.39C-329.028 980.343 -335.382 1037.91 -336.918 1102.37C-342.867 1350.68 -287.941 1691.62 -191.538 2080.75C-175.092 2147.25 -157.349 2215.76 -139.071 2285.23C-73.8219 2533.15 -1.70753 2793.37 43.1466 3018.35C69.977 3152.76 89.9222 3279.57 82.4364 3366.37C77.7873 3420.53 61.8812 3455.34 36.1136 3473.55C9.24347 3492.54 -23.7898 3497.94 -59.4782 3500.62C-181.816 3508.86 -323.009 3510.78 -350.395 3694.92M1705.25 -1418.14C1941.35 -809.813 2083.41 -252.753 2072.54 83.6895C2066.76 278.96 1989.25 342.127 1979.1 529.127C1967.08 736.652 1921.55 891.611 1851.15 1003.85C1802.89 1080.86 1742.85 1137.78 1673.72 1177.64C1537.58 1256.18 1366.43 1269.34 1165.46 1209.55C1047.97 1174.6 921.821 1117.17 791.014 1045.11C695.297 992.366 596.484 931.921 495.928 866.895C350.832 772.298 199.795 665.728 73.3041 623.018C29.5657 608.559 -10.6654 602.141 -47.6165 602.725C-206.832 604.313 -321.192 707.41 -358.48 919.962C-368.056 974.555 -372.848 1035.91 -372.823 1104.12C-372.755 1366.47 -310.52 1721.97 -207.309 2123.76C-189.697 2192.41 -170.796 2263.06 -151.384 2334.62C-82.1251 2589.95 -6.48552 2856.78 39.9273 3085.71C67.6813 3222.5 87.4286 3350.01 80.192 3438.61C75.6976 3493.92 60.1861 3530.33 35.3603 3551.03C9.33326 3572.74 -23.0019 3581.05 -58.1828 3586.09C-178.623 3602.58 -321.376 3603.35 -351.765 3785.79M1705.53 -1401.32C1948.19 -788.906 2094.07 -228.554 2083.59 106.359C2077.85 304.596 1997.78 365.803 1988.86 557.639C1978.31 770.223 1934.39 930.898 1864.73 1047.37C1816.98 1127.31 1757.04 1186.43 1687.3 1227.18C1549.95 1307.42 1374.73 1316.91 1167.04 1248.13C1045.6 1207.92 914.611 1143.41 778.367 1063.19C678.585 1004.44 575.506 937.403 470.623 865.506C319.32 761.172 161.996 644.52 31.15 595.986C-14.084 579.468 -55.5683 571.522 -93.4762 571.159C-256.908 568.808 -367.367 683.581 -398.976 910.494C-407.085 968.73 -410.308 1033.87 -408.722 1105.84C-402.653 1382.19 -333.092 1752.28 -223.057 2166.76C-204.271 2237.59 -184.212 2310.35 -163.675 2383.99C-90.3899 2646.77 -11.2334 2920.18 36.7233 3153.06C65.4008 3292.23 84.9413 3420.42 77.9624 3510.83C73.6142 3567.26 58.5298 3605.34 34.6223 3628.5C9.42241 3652.91 -22.2154 3664.13 -56.857 3671.58C-175.4 3696.33 -319.72 3695.96 -353.128 3876.66M1705.82 -1384.46C1955.04 -767.995 2104.77 -204.292 2094.67 129.058C2088.96 330.23 2006.34 389.509 1998.63 586.15C1989.55 803.792 1947.24 970.184 1878.32 1090.89C1831.06 1173.72 1771.23 1235.09 1700.86 1276.72C1562.28 1358.64 1383.05 1364.51 1168.61 1286.76C1043.25 1241.31 907.183 1169.15 765.739 1081.34C661.743 1016.21 554.531 942.925 445.33 864.191C287.811 750.123 124.201 623.352 -11.0159 569.003C-57.753 550.428 -100.476 540.946 -139.341 539.637C-306.982 533.344 -414.11 658.922 -439.468 901.103C-446.253 962.748 -447.764 1031.91 -444.618 1107.63C-432.538 1398.03 -355.669 1782.67 -238.811 2209.8C-218.867 2282.78 -197.626 2357.72 -175.977 2433.42C-98.6831 2703.61 -16.001 2983.63 33.491 3220.42C63.0761 3361.94 82.4345 3490.87 75.7048 3583.08C71.5113 3640.66 56.8288 3680.34 33.8482 3705.99C9.51488 3733.15 -21.4485 3747.25 -55.5666 3757.09C-172.205 3790.09 -318.108 3788.55 -354.503 3967.58M1706.11 -1367.64C1961.87 -747.114 2115.44 -180.089 2105.73 151.728C2100.07 355.862 2014.91 413.215 2008.4 614.662C2000.79 837.363 1960.08 1009.44 1891.91 1134.41C1845.17 1220.17 1785.43 1283.75 1714.42 1326.22C1574.63 1409.85 1391.34 1412.05 1170.18 1325.35C1040.88 1274.64 900.016 1195.5 753.087 1099.43C645.057 1028.35 533.532 948.385 420.037 862.84C256.31 739.035 86.4134 602.183 -53.1822 541.983C-101.431 521.318 -145.392 510.338 -185.206 508.079C-357.064 497.847 -460.203 635.248 -479.976 891.646C-485.255 956.992 -485.378 1029.68 -480.522 1109.34C-463.054 1412.91 -378.246 1812.99 -254.564 2252.81C-233.438 2327.96 -211.055 2405.02 -188.289 2482.77C-106.985 2760.37 -20.7535 3047.03 30.2663 3287.75C60.775 3431.65 79.9426 3561.29 73.4547 3655.29C69.4159 3714.02 55.1518 3755.33 33.0735 3783.41C9.59069 3813.29 -20.6992 3830.28 -54.2865 3842.49C-169.027 3883.75 -316.497 3881.06 -355.895 4058.39M1706.39 -1350.81C1968.72 -726.203 2126.11 -155.886 2116.79 174.398C2111.15 381.467 2023.45 436.891 2018.14 643.147C2012.02 870.937 1972.91 1048.7 1905.48 1177.9C1859.24 1266.55 1799.58 1332.35 1727.98 1375.73C1586.97 1461.07 1399.63 1459.59 1171.74 1363.9C1038.51 1307.97 892.833 1221.81 740.427 1117.48C628.378 1040.49 512.532 953.844 394.711 861.428C224.769 727.89 48.6007 580.947 -95.374 514.898C-145.126 492.177 -190.332 479.665 -231.103 476.46C-407.171 462.285 -506.312 611.544 -520.517 882.128C-524.305 951.144 -522.851 1027.65 -516.45 1111.04C-492.799 1428.91 -400.863 1843.25 -270.358 2295.76C-248.073 2373.06 -224.517 2452.26 -200.624 2532.1C-115.31 2817.11 -25.5538 3110.39 27.0173 3355.05C58.4494 3501.33 77.403 3631.64 71.1802 3727.47C67.2962 3787.34 53.4576 3830.29 32.2903 3860.83C9.67404 3893.46 -19.9415 3913.33 -53.0053 3927.93C-165.857 3977.42 -314.877 3973.61 -357.295 4149.21M1706.69 -1333.96C1975.57 -705.301 2136.82 -131.631 2127.88 197.123C2122.29 407.158 2032.03 460.623 2027.93 671.684C2023.27 904.533 1985.78 1088.01 1919.1 1221.47C1873.37 1313.05 1813.81 1381.06 1741.57 1425.29C1599.34 1512.33 1407.97 1507.21 1173.34 1402.55C1036.17 1341.35 885.687 1248.21 727.797 1135.63C611.713 1052.7 491.555 959.363 369.417 860.109C193.266 716.834 10.7956 559.78 -137.542 487.91C-188.79 463.129 -235.226 449.116 -276.97 444.934C-457.255 426.821 -552.391 587.933 -561.011 872.733C-563.293 945.451 -560.253 1025.78 -552.348 1112.82C-522.519 1445 -423.434 1873.63 -286.105 2338.83C-262.662 2418.28 -237.94 2499.63 -212.913 2581.55C-123.59 2873.97 -30.3076 3173.86 23.7987 3422.44C56.1544 3571.1 74.9175 3702.12 68.9364 3799.74C65.2071 3860.77 51.9293 3905.58 31.5299 3938.34C9.91568 3973.97 -19.1768 3996.46 -51.7011 4013.47C-162.656 4071.21 -313.243 4066.26 -358.664 4240.16M1706.96 -1317.14C1982.41 -684.419 2147.49 -107.428 2138.95 219.793C2133.37 432.763 2040.58 484.295 2037.69 700.196C2034.51 938.104 1998.63 1127.3 1932.7 1264.98C1798.42 1545.45 1538.88 1612.49 1174.92 1441.14C930.089 1325.87 642.599 1109.16 344.115 858.723C161.749 705.715 -26.9928 538.572 -179.71 460.852C-460.462 317.981 -597.752 495.097 -601.521 863.238C-605.29 1231.38 -483.769 1778.78 -301.86 2381.8C-136.798 2929.01 84.6777 3559.73 66.7009 3871.94C46.1339 4229 -284.207 4061.26 -360.042 4330.97M3390.44 2710.7C2986.55 1938.42 2514.24 1200.09 2081.14 663.993C1957.92 511.476 1833.65 371.079 1744.06 321.646C1485.2 178.85 1575.96 724.477 1593.26 1051.1C1614.11 1445.24 1644.75 1853.98 1633.12 2200.94C1626.59 2395.74 1592.83 2574.93 1416.13 2439.39C1237.18 2302.13 985.743 1901.31 759.824 1555.68C496.575 1152.93 226.077 773.268 -16.668 509.379C-259.413 245.49 -472.175 108.145 -556.689 212.044C-622.864 293.416 -607.328 511.75 -574.141 747.254C-486.925 1366.07 -281.667 2141.16 22.8187 3001.51M3377.64 2675.03C3020.68 1992.47 2611.05 1354.06 2206.02 832.917C2168.4 784.515 2130.96 737.135 2093.85 691.396C1971.9 541.166 1849.04 402.638 1759.86 352.277C1501.8 206.369 1582.05 726.305 1594.49 1043.29C1605.52 1324.33 1624.01 1617.71 1626.68 1890.19C1627.77 1985.02 1627.05 2077.23 1623.66 2165.54C1616.29 2357.07 1582.82 2533.94 1411.08 2406.34C1237.17 2277.12 993.167 1892.94 773.753 1562C518.086 1176.39 255.26 812.867 18.8485 560.644C-63.4617 472.831 -142.308 399.779 -213.695 346.148C-347.309 245.718 -454.861 213.189 -510.05 279.131C-576.342 358.34 -564.056 569.121 -535.209 795.271C-476.951 1252.85 -352.802 1795.35 -167.841 2399.67C-112.658 2579.99 -52.0732 2765.78 13.8382 2956.48M3364.84 2639.39C3019.78 1979.59 2626.47 1379.67 2217.41 857.948C2180.29 810.606 2143.26 763.865 2106.58 718.869C1985.91 570.96 1864.46 434.268 1775.66 382.95C1518.38 233.905 1588.15 728.168 1595.75 1035.55C1602.42 1305.57 1618.51 1592.12 1618.82 1859.98C1619.25 1952.88 1618 2043.39 1614.23 2130.2C1606.03 2318.51 1572.83 2493.02 1406.06 2373.35C1237.17 2252.16 1000.6 1884.62 787.717 1568.38C539.639 1199.91 284.471 852.536 54.4158 612.007C-25.6821 528.275 -102.5 458.705 -172.152 407.821C-302.528 312.461 -408.072 282.163 -463.352 346.312C-529.745 423.388 -520.719 626.581 -496.234 843.351C-446.905 1281.88 -335.773 1797.63 -164.478 2376.69C-113.369 2549.48 -56.929 2727.85 4.90086 2911.52M3352.04 2603.72C3018.88 1966.67 2641.93 1405.24 2228.8 882.946C2192.14 836.6 2155.54 790.53 2119.32 746.307C1999.91 600.684 1879.88 465.896 1791.49 413.615C1535.01 261.458 1594.32 730.041 1597.01 1027.78C1599.35 1286.78 1612.33 1565.49 1610.98 1829.76C1610.53 1920.41 1608.98 2009.54 1604.81 2094.86C1595.77 2279.9 1562.86 2452.09 1401.06 2340.36C1237.2 2227.18 1008.08 1876.32 801.697 1574.76C561.2 1223.43 313.706 892.195 89.9909 663.33C12.0978 583.683 -62.6846 517.593 -130.617 469.424C-257.762 379.139 -361.286 351.063 -416.655 413.456C-483.148 488.399 -477.382 684.006 -457.259 891.394C-416.851 1310.92 -318.743 1799.87 -161.099 2353.71C-114.063 2518.97 -61.7621 2689.91 -3.99781 2866.59M3339.25 2568.08C3017.98 1953.78 2657.39 1430.75 2240.18 907.977C2204.01 862.656 2167.81 817.23 2132.04 773.779C2013.92 630.477 1895.29 497.526 1807.29 444.285C1551.61 289.017 1600.51 731.974 1598.26 1020.04C1596.32 1268.09 1606.6 1539.58 1603.11 1799.54C1601.93 1888.18 1599.93 1975.69 1595.37 2059.52C1585.5 2241.34 1552.89 2411.2 1396.03 2307.37C1237.21 2202.25 1015.52 1868.02 815.643 1581.15C582.728 1246.96 342.891 931.833 125.525 714.665C49.828 639.069 -22.902 576.488 -89.1232 531.039C-213.014 445.855 -314.523 420.005 -370.014 480.583C-436.631 553.366 -434.109 741.416 -418.341 939.42C-386.862 1339.9 -301.77 1802.09 -157.8 2330.68C-114.845 2488.41 -66.6821 2651.93 -12.9993 2821.58M3326.44 2532.42C3017.08 1940.88 2672.85 1456.2 2251.56 932.982C2215.86 888.654 2180.1 843.936 2144.77 801.224C2027.91 660.208 1910.7 529.131 1823.11 474.961C1568.23 316.581 1606.74 733.931 1599.52 1012.3C1593.36 1249.49 1600.92 1513.71 1595.28 1769.36C1593.38 1855.98 1590.91 1941.89 1585.96 2024.22C1575.25 2202.77 1542.92 2370.31 1391.04 2274.42C1237.24 2177.32 1023 1859.76 829.626 1587.57C604.284 1270.49 372.129 971.534 161.111 766.062C87.6269 694.549 16.9253 635.451 -47.577 592.718C-168.23 512.604 -267.732 488.984 -323.297 547.799C-390.016 618.45 -390.737 798.943 -379.331 987.566C-356.765 1369.03 -284.705 1804.43 -154.385 2307.8C-115.504 2458 -71.4877 2614.1 -21.8864 2776.71M3313.63 2496.75C3016.17 1927.95 2688.32 1481.53 2262.93 957.944C2227.71 914.604 2192.36 870.564 2157.48 828.628C2041.91 689.93 1926.09 560.692 1838.9 505.562C1584.81 344.076 1612.99 735.834 1600.74 1004.46C1590.42 1230.83 1595.18 1487.73 1587.37 1739.05C1584.75 1823.65 1581.82 1907.95 1576.47 1988.75C1564.93 2164.08 1532.88 2329.26 1385.96 2241.3C1237.19 2152.22 1030.4 1851.33 843.524 1593.83C625.764 1293.89 401.281 1011.07 196.597 817.269C125.324 749.837 56.6589 694.218 -6.11592 654.235C-123.538 579.196 -221.019 557.798 -276.689 614.827C-343.508 683.345 -347.496 856.254 -340.445 1035.49C-326.809 1397.91 -267.765 1806.56 -151.112 2284.67C-116.312 2427.34 -76.4336 2576.02 -30.9064 2731.6M3300.84 2461.11C3015.27 1915.07 2703.81 1506.84 2274.32 982.98C2239.57 940.598 2204.64 897.269 2170.22 856.103C2055.9 719.694 1941.5 592.327 1854.72 536.268C1601.41 371.64 1619.34 737.925 1602.02 996.755C1587.58 1212.36 1589.54 1461.91 1579.55 1708.9C1576.21 1791.52 1572.79 1874.14 1567.07 1953.48C1554.69 2125.54 1522.93 2288.4 1380.97 2208.38C1237.24 2127.35 1037.86 1843.07 857.52 1600.28C647.349 1317.48 430.533 1050.8 232.204 868.689C163.128 805.308 96.5069 753.203 35.451 715.936C-78.7323 645.967 -174.183 626.826 -229.959 682.069C-296.895 748.424 -304.127 913.777 -301.445 1083.64C-296.722 1427.05 -250.71 1808.9 -147.714 2261.79C-116.988 2396.93 -81.2557 2538.19 -39.8101 2686.74M3288.04 2425.44C3014.37 1902.15 2719.28 1532.01 2285.7 1007.97C2251.42 966.545 2216.93 923.959 2182.94 883.538C2069.91 749.447 1956.92 623.949 1870.54 566.931C1618.03 399.191 1625.73 739.989 1603.26 988.978C1584.78 1193.9 1583.86 1436.02 1571.68 1678.65C1567.63 1759.24 1563.73 1840.26 1557.63 1918.11C1544.41 2086.94 1512.93 2247.44 1375.96 2175.38C1237.25 2102.38 1045.32 1834.77 871.482 1606.66C668.893 1341 459.742 1090.47 267.753 920.018C200.89 860.718 136.305 812.092 76.9605 777.545C-33.9685 712.677 -127.421 695.732 -183.287 749.219C-250.323 813.441 -260.815 971.207 -262.48 1131.72C-266.686 1456.08 -233.69 1811.17 -144.361 2238.82C-117.715 2366.43 -86.1375 2500.23 -48.7414 2641.81M3275.22 2389.77C3013.46 1889.24 2734.73 1557.08 2297.08 1032.97C2263.28 992.499 2229.2 950.628 2195.67 910.976C2083.9 779.175 1972.32 655.548 1886.34 597.566C1634.62 426.719 1632.16 742.113 1604.52 981.204C1582.05 1175.52 1578.21 1410.19 1563.83 1648.43C1559.08 1727.07 1554.69 1806.41 1548.21 1882.77C1534.15 2048.34 1502.95 2206.51 1370.94 2142.39C1237.26 2077.41 1052.78 1826.47 885.445 1613.05C690.438 1364.53 488.96 1130.13 303.321 971.379C238.669 916.162 176.112 871.018 118.487 839.186C10.7887 779.393 -80.6335 764.705 -136.606 816.369C-203.759 878.427 -217.502 1028.64 -223.522 1179.77C-236.641 1485.12 -216.677 1813.42 -140.998 2215.84C-118.426 2335.92 -90.9939 2462.3 -57.6719 2596.85M3262.44 2354.13C3012.57 1876.35 2750.21 1582.09 2308.46 1057.98C2275.12 1018.42 2241.47 977.298 2208.37 938.392C2097.89 808.908 1987.71 687.121 1902.13 628.213C1651.22 454.255 1638.63 744.295 1605.74 973.41C1579.35 1157.21 1572.55 1384.34 1555.93 1618.17C1550.48 1694.81 1545.61 1772.52 1538.74 1847.38C1523.85 2009.72 1492.93 2165.54 1365.89 2109.35C1237.23 2052.39 1060.19 1818.12 899.364 1619.39C711.946 1388 518.134 1169.75 338.827 1022.66C276.372 971.495 215.844 929.834 159.953 900.749C55.4933 846.026 -33.9148 833.565 -89.9767 883.473C-157.238 943.402 -174.233 1086.02 -184.615 1227.77C-206.663 1514.08 -199.731 1815.59 -137.71 2192.79C-119.212 2305.33 -95.9263 2424.3 -66.6858 2551.82M3249.63 2318.46C3011.66 1863.43 2765.64 1606.94 2319.84 1082.97C2286.96 1044.34 2253.75 1004 2221.1 965.828C2111.87 838.634 2003.11 718.717 1917.93 658.846C1667.82 481.776 1645.2 746.577 1606.99 965.633C1576.75 1139 1566.92 1358.5 1548.08 1587.95C1541.95 1662.63 1536.57 1738.67 1529.32 1812.03C1513.59 1971.11 1482.97 2124.64 1360.89 2076.35C1237.27 2027.44 1067.66 1809.78 913.357 1625.79C733.505 1411.51 547.381 1209.43 374.415 1074.01C314.172 1026.92 255.68 988.742 201.517 962.407C100.295 912.755 12.9011 902.52 -43.2662 950.642C-110.628 1008.44 -130.89 1143.48 -145.611 1275.87C-176.573 1543.16 -182.673 1817.88 -134.318 2169.83C-119.901 2274.85 -100.753 2386.39 -75.5869 2506.87M3236.84 2282.83C3010.76 1850.56 2781.06 1631.68 2331.23 1108.01C2298.83 1070.29 2266.01 1030.6 2233.83 993.304C2125.82 868.121 2018.55 750.38 1933.76 689.55C1684.43 509.338 1651.85 748.983 1608.27 957.923C1574.26 1120.97 1561.35 1332.8 1540.24 1557.76C1533.43 1630.49 1527.54 1704.83 1519.89 1776.7C1503.33 1932.55 1472.99 2083.72 1355.87 2043.37C1237.28 2002.48 1075.11 1801.49 927.323 1632.18C755.052 1435.04 576.601 1249.1 409.984 1125.37C351.954 1082.37 295.49 1047.67 243.046 1024.05C145.071 979.506 59.6908 971.497 3.43288 1017.83C-64.0453 1073.46 -87.5506 1200.94 -106.634 1323.95C-146.525 1572.2 -165.641 1820.16 -130.937 2146.88C-120.594 2244.37 -105.592 2348.49 -84.491 2461.98M3224.03 2247.16C3009.86 1837.64 2796.44 1656.24 2342.61 1133.01C2310.67 1096.17 2278.3 1057.29 2246.56 1020.74C2139.81 897.844 2033.95 781.977 1949.56 720.187C1701.02 536.869 1658.56 751.465 1609.5 950.12C1571.78 1102.93 1555.73 1307 1532.37 1527.52C1524.88 1598.28 1518.48 1670.95 1510.45 1741.33C1493.04 1893.91 1462.99 2042.76 1350.84 2010.35C1237.27 1977.48 1082.55 1793.16 941.269 1638.53C776.588 1458.53 605.803 1288.73 445.518 1176.67C389.677 1137.73 335.272 1106.53 284.532 1085.64C189.796 1046.16 106.43 1040.38 50.0661 1084.92C-17.5128 1138.42 -44.2779 1258.32 -67.7236 1371.95C-116.528 1601.18 -148.676 1822.35 -127.645 2123.82C-121.383 2213.78 -110.52 2310.48 -93.5005 2416.94M3211.22 2211.49C3008.95 1824.72 2811.79 1680.66 2353.99 1158C2322.5 1122.06 2290.56 1083.96 2259.28 1048.18C2153.8 927.57 2049.35 813.574 1965.37 750.855C1717.63 564.425 1665.34 754.06 1610.76 942.377C1569.4 1085.06 1550.16 1281.28 1524.51 1497.3C1516.34 1566.1 1509.43 1637.11 1501.01 1705.99C1482.78 1855.34 1453.01 2001.83 1345.82 1977.36C1237.29 1952.54 1090 1784.86 955.224 1644.92C798.124 1482.06 635.005 1328.4 481.076 1228.04C427.447 1193.17 375.072 1165.46 326.05 1147.28C234.552 1112.87 153.2 1109.32 96.7475 1152.1C29.068 1203.47 -0.964382 1315.78 -28.7564 1420.07C-86.49 1630.26 -131.654 1824.67 -124.273 2100.91C-122.085 2183.34 -115.368 2272.62 -102.423 2372.04M3198.43 2175.85C3008.06 1811.83 2827.12 1704.95 2365.37 1183C2334.35 1147.94 2302.84 1110.62 2272.01 1075.62C2167.8 957.292 2064.76 845.169 1981.17 781.49C1734.23 591.948 1672.23 756.764 1611.99 934.571C1567.06 1067.22 1544.59 1255.53 1516.64 1467.06C1507.8 1533.92 1500.38 1603.23 1491.57 1670.62C1472.5 1816.71 1443.01 1960.88 1340.79 1944.34C1237.29 1927.55 1097.43 1776.51 969.171 1651.28C819.661 1505.55 664.207 1368.04 516.619 1279.33C465.202 1248.55 414.862 1224.32 367.568 1208.89C279.301 1179.56 199.98 1178.26 143.436 1219.25C75.6398 1268.45 42.3634 1373.21 10.2092 1468.11C-56.4377 1659.29 -114.633 1826.91 -120.919 2077.9C-122.828 2152.77 -120.249 2234.62 -111.369 2327.05M3185.62 2140.18C3007.15 1798.92 2842.38 1729.04 2376.74 1208C2346.17 1173.79 2315.1 1137.29 2284.72 1103.06C2181.79 987.06 2080.28 877.129 1996.98 812.164C1751.2 620.517 1679.2 759.656 1613.24 926.836C1564.83 1049.6 1539.05 1229.89 1508.78 1436.84C1499.28 1501.78 1491.33 1569.39 1482.14 1635.28C1462.24 1778.15 1433.03 1919.96 1335.77 1911.35C1237.28 1902.59 1104.88 1768.21 983.135 1657.66C841.206 1529.08 693.426 1407.7 552.187 1330.7C502.966 1303.96 454.671 1283.24 409.096 1270.53C324.083 1246.3 246.759 1247.2 190.11 1286.4C122.206 1333.48 85.6702 1430.65 49.1611 1516.16C-26.4151 1688.3 -97.6269 1829.16 -117.57 2054.93C-123.553 2122.27 -125.12 2196.7 -120.306 2282.13M3172.84 2104.54C3006.26 1786.03 2857.62 1752.98 2388.15 1233.03C2358.02 1199.67 2327.41 1164.02 2297.47 1130.53C2195.81 1016.81 2095.72 908.754 2012.82 842.86C1767.83 648.071 1686.29 762.687 1614.54 919.118C1562.72 1032.11 1533.58 1204.28 1500.97 1406.68C1490.82 1469.72 1482.34 1535.6 1472.76 1600C1452.01 1739.6 1423.09 1879.09 1330.81 1878.45C1237.37 1877.74 1112.4 1760 997.155 1664.14C862.809 1552.7 722.701 1447.46 587.795 1382.12C540.787 1359.47 494.519 1342.23 450.663 1332.23C368.889 1313.07 293.595 1316.23 236.841 1353.65C168.82 1398.56 129.056 1488.2 88.185 1564.34C3.69558 1717.46 -80.5554 1831.53 -114.158 2032.05C-124.221 2091.86 -129.919 2158.86 -129.187 2237.26M3160.03 2068.88C3005.34 1773.09 2872.8 1776.73 2399.52 1258.04C2369.85 1225.53 2339.67 1190.69 2310.19 1157.98C2209.79 1046.58 2111.1 940.361 2028.6 873.508C1784.41 675.612 1693.43 765.876 1615.76 911.326C1560.6 1014.66 1528.03 1178.64 1493.07 1376.42C1482.28 1437.54 1473.23 1501.68 1463.29 1564.61C1441.71 1700.98 1413.08 1838.14 1325.75 1845.41C1237.33 1852.72 1119.82 1751.65 1011.07 1670.47C884.299 1576.14 751.857 1487.04 623.3 1433.4C578.504 1414.83 534.273 1401.07 492.128 1393.79C413.585 1379.71 340.305 1385.09 283.453 1420.72C215.331 1463.5 172.308 1545.55 127.074 1612.31C33.6555 1746.39 -63.6274 1833.67 -110.864 2008.99C-125.002 2061.27 -134.845 2120.86 -138.194 2192.22M3147.22 2033.2C3004.44 1760.17 2887.9 1800.24 2410.89 1283C2381.65 1251.31 2351.95 1217.36 2322.9 1185.38C2223.78 1076.27 2126.5 971.921 2044.41 904.138C1801 703.1 1700.7 769.196 1617.01 903.545C1558.58 997.346 1522.57 1153.06 1485.23 1346.2C1473.79 1405.42 1464.2 1467.83 1453.85 1529.23C1431.43 1662.35 1403.09 1797.18 1320.73 1812.39C1237.34 1827.71 1127.25 1743.29 1025.03 1676.82C905.835 1599.63 781.065 1526.67 658.865 1484.72C616.265 1470.2 574.078 1459.96 533.668 1455.42C458.363 1446.41 387.098 1454.02 330.163 1487.89C261.941 1528.53 215.651 1603.01 166.063 1660.38C63.7307 1775.44 -46.5845 1835.93 -107.495 1986.01C-125.706 2030.75 -139.696 2082.92 -147.126 2147.26M3134.43 1997.57C3003.54 1747.29 2902.96 1823.59 2422.28 1308.03C2393.49 1277.16 2364.23 1244.06 2335.64 1212.85C2237.79 1106.06 2141.91 1003.55 2060.23 934.807C1817.59 730.632 1708.08 772.764 1618.26 895.774C1556.63 980.159 1517.1 1127.5 1477.35 1315.95C1465.26 1373.27 1455.14 1433.95 1444.4 1493.87C1421.16 1623.75 1393.09 1756.23 1315.7 1779.36C1237.35 1802.74 1134.69 1734.96 1038.97 1683.18C927.364 1623.12 810.26 1566.3 694.4 1536.02C654.012 1525.58 613.861 1518.82 575.163 1517.01C503.113 1513.09 433.861 1522.92 376.805 1554.98C308.466 1593.46 258.933 1660.38 204.998 1708.4C93.7365 1804.42 -29.5944 1838.15 -104.171 1962.97C-126.463 2000.19 -144.592 2044.93 -156.096 2102.24M3121.62 1961.9C3002.62 1734.37 2917.94 1846.7 2433.65 1333.03C2405.29 1302.94 2376.49 1270.73 2348.35 1240.29C2251.79 1135.83 2157.22 1034.85 2076.03 965.478C1833.85 757.247 1715.57 776.547 1619.51 888.036C1554.76 963.157 1511.66 1101.99 1469.5 1285.77C1456.79 1341.22 1446.11 1400.14 1434.98 1458.56C1410.9 1585.18 1383.12 1715.33 1310.69 1746.41C1237.37 1777.81 1142.16 1726.69 1052.95 1689.59C948.931 1646.67 839.494 1606 729.982 1587.41C691.807 1581.05 653.684 1577.77 616.705 1578.68C547.885 1579.84 480.656 1591.89 423.51 1622.19C355.063 1658.55 302.27 1717.87 243.972 1756.51C123.798 1833.52 -12.5649 1840.46 -100.792 1940.06C-127.158 1969.75 -149.448 2007.04 -165.002 2057.37M3108.83 1926.26C3001.74 1721.48 2932.86 1869.61 2445.05 1358.06C2417.13 1328.79 2388.8 1297.45 2361.1 1267.76C2265.81 1165.62 2172.63 1066.49 2091.85 996.146C1850.46 784.773 1723.19 780.54 1620.79 880.29C1552.99 946.3 1506.27 1076.54 1461.66 1255.55C1448.31 1309.12 1437.08 1366.3 1425.56 1423.22C1400.64 1546.61 1373.14 1674.41 1305.68 1713.42C1237.38 1752.84 1149.62 1718.4 1066.92 1695.98C970.478 1670.2 868.713 1645.66 765.534 1638.74C729.548 1636.44 693.469 1636.64 658.217 1640.29C592.636 1646.52 527.413 1660.81 470.192 1689.34C401.645 1723.56 345.591 1775.31 282.932 1804.57C153.828 1862.53 4.44931 1842.71 -97.4517 1917.06C-127.899 1939.21 -154.327 1969.09 -173.955 2012.39M3096.02 1890.59C3000.83 1708.57 2947.67 1892.24 2456.41 1383.03C2428.92 1354.54 2401.05 1324.09 2373.81 1295.17C2279.79 1195.35 2188.03 1098.05 2107.65 1026.79C1867.05 812.302 1730.91 784.752 1622.01 872.49C1551.24 929.513 1500.84 1051.03 1453.78 1225.31C1439.81 1277.01 1428 1332.39 1416.11 1387.85C1390.35 1507.98 1363.14 1633.46 1300.65 1680.4C1237.38 1727.88 1157.05 1710.04 1080.86 1702.34C992 1693.7 897.908 1685.3 801.085 1690.08C767.311 1691.86 733.261 1695.53 699.744 1701.93C637.394 1713.24 574.208 1729.78 516.866 1756.5C448.202 1788.56 388.905 1832.74 321.884 1852.62C183.866 1891.57 21.4556 1844.96 -94.0957 1894.08C-128.616 1908.71 -159.191 1931.16 -182.9 1967.43M3083.22 1854.92C2999.93 1695.65 2962.42 1914.63 2467.79 1408.03C2440.72 1380.29 2413.35 1350.86 2386.53 1322.62C2293.86 1225.38 2203.42 1129.65 2123.46 1057.46C1883.66 839.865 1738.76 789.238 1623.27 864.75C1549.58 912.909 1495.48 1025.67 1445.93 1195.09C1431.35 1244.95 1418.96 1298.55 1406.69 1352.51C1380.1 1469.41 1353.16 1592.54 1295.63 1647.41C1237.4 1702.91 1164.5 1701.74 1094.82 1708.72C1013.54 1717.19 927.127 1724.97 836.637 1741.41C805.075 1747.27 773.053 1754.43 741.255 1763.55C682.159 1779.95 620.972 1798.69 563.54 1823.65C494.776 1853.58 432.212 1890.18 360.851 1900.7C213.905 1920.61 38.4781 1847.24 -90.7397 1871.11C-129.341 1878.21 -164.054 1893.24 -191.845 1922.48M3070.43 1819.28C2999.03 1682.77 2977.07 1936.79 2479.19 1433.06C2452.54 1406.11 2425.65 1377.59 2399.25 1350.05C2307.87 1255.13 2218.85 1161.28 2139.26 1088.09C1900.26 867.387 1746.73 793.971 1624.51 856.943C1547.96 896.397 1490.1 1000.25 1438.06 1164.85C1422.86 1212.86 1409.9 1264.67 1397.23 1317.11C1369.8 1430.75 1343.17 1551.57 1290.59 1614.36C1237.37 1677.88 1171.93 1693.38 1108.75 1715.04C1035.05 1740.66 956.312 1764.57 872.155 1792.68C842.789 1802.59 812.819 1813.26 782.733 1825.09C726.875 1846.57 667.71 1867.56 610.165 1890.71C541.299 1918.5 475.476 1947.52 399.753 1948.66C243.894 1949.56 55.4349 1849.39 -87.4406 1848.04C-130.116 1847.61 -168.975 1855.22 -200.824 1877.46M3057.62 1783.61C2998.12 1669.85 2991.62 1958.66 2490.57 1458.05C2464.34 1431.85 2437.92 1404.25 2411.98 1377.49C2321.86 1284.86 2234.25 1192.87 2155.07 1118.76C1916.87 894.943 1754.83 798.99 1625.77 849.201C1546.41 880.079 1484.78 974.954 1430.2 1134.63C1414.41 1180.83 1400.86 1230.83 1387.8 1281.77C1359.54 1392.18 1333.18 1510.65 1285.58 1581.4C1237.39 1652.94 1179.4 1685.11 1122.73 1721.46C1056.62 1764.21 985.545 1804.26 907.737 1844.07C880.584 1858.06 852.643 1872.21 824.275 1886.76C771.648 1913.31 714.505 1936.53 656.877 1957.92C587.895 1983.55 518.82 2005.01 438.743 1996.77C273.954 1978.62 72.4632 1851.67 -84.0627 1825.09C-130.812 1817.13 -173.816 1817.32 -209.747 1832.53M3044.83 1747.98C2997.23 1656.96 3006.08 1980.28 2501.96 1483.09C2476.15 1457.64 2450.2 1430.96 2424.71 1404.96C2335.88 1314.65 2249.67 1224.51 2170.89 1149.43C1933.47 922.475 1763.04 804.298 1627.03 841.46C1544.92 863.891 1479.49 949.684 1422.36 1104.45C1405.99 1148.83 1391.83 1197.02 1378.39 1246.47C1349.29 1353.61 1323.22 1469.76 1280.59 1548.44C1237.44 1628.03 1186.86 1676.82 1136.71 1727.88C1078.18 1787.77 1014.77 1843.96 943.306 1895.43C918.365 1913.51 892.459 1931.14 865.796 1948.41C816.407 1980.03 761.278 2005.48 703.545 2025.08C634.455 2048.58 562.128 2062.45 477.704 2044.86C304.002 2007.7 89.4793 1853.95 -80.7129 1802.13C-131.543 1786.63 -178.686 1779.4 -218.698 1787.58M3032.03 1712.3C2996.33 1644.05 3020.4 2001.57 2513.33 1508.06C2487.92 1483.33 2462.48 1457.62 2437.42 1432.37C2349.85 1344.35 2265.05 1256.08 2186.69 1180.07C1950.06 950.003 1771.36 809.858 1628.27 833.655C1543.45 847.768 1474.2 924.412 1414.48 1074.17C1397.5 1116.74 1382.75 1163.08 1368.93 1211.06C1339 1314.98 1313.2 1428.77 1275.55 1515.39C1237.42 1603 1194.29 1668.46 1150.65 1734.2C1099.7 1811.23 1043.97 1883.56 978.856 1946.73C956.111 1968.85 932.25 1990 907.321 2010.02C861.187 2046.74 808.065 2074.41 750.234 2092.23C681.027 2113.56 605.456 2119.88 516.663 2092.91C334.047 2036.73 106.493 1856.2 -77.3574 1779.15C-132.261 1756.13 -183.566 1741.44 -227.637 1742.62M3019.21 1676.64C2995.41 1631.13 3034.62 2022.57 2524.71 1533.06C2499.7 1509.05 2474.74 1484.29 2450.15 1459.81C2363.86 1374.1 2280.48 1287.7 2202.49 1210.7C1966.66 977.529 1779.79 815.707 1629.51 825.882C1542.03 831.81 1468.94 899.236 1406.62 1043.95C1389.07 1084.74 1373.71 1129.23 1359.51 1175.72C1328.73 1276.38 1303.23 1387.84 1270.54 1482.4C1237.44 1578.03 1201.75 1660.16 1164.61 1740.58C1121.25 1834.75 1073.18 1923.23 1014.41 1998.06C993.874 2024.26 972.049 2048.89 948.831 2071.63C905.928 2113.42 854.827 2143.32 796.914 2159.37C727.607 2178.58 648.769 2177.31 555.62 2140.95C364.076 2065.74 123.505 1858.44 -74.011 1756.14C-132.996 1725.59 -188.439 1703.48 -236.575 1697.66M3006.42 1641C2994.52 1618.25 3048.72 2043.28 2536.09 1558.09C2511.49 1534.8 2487.04 1511.02 2462.88 1487.29C2377.86 1403.87 2295.88 1319.34 2218.31 1241.41C1983.28 1005.12 1788.34 821.918 1630.76 818.144C1540.63 815.993 1464.02 874.659 1398.75 1013.74C1380.71 1052.89 1364.65 1095.4 1350.07 1140.39C1318.46 1237.82 1293.23 1346.93 1265.51 1449.41C1237.45 1553.1 1209.2 1651.86 1178.56 1746.97C1142.78 1858.28 1102.39 1962.9 1049.96 2049.42C1031.64 2079.71 1011.84 2107.82 990.343 2133.28C950.678 2180.14 901.591 2212.27 843.572 2226.53C774.164 2243.6 692.083 2234.78 594.572 2189.04C394.114 2094.81 140.512 1860.73 -70.6548 1733.2C-133.713 1695.12 -193.303 1665.59 -245.513 1652.73M2993.62 1605.33C2993.62 1605.33 3062.71 2063.67 2547.48 1583.09C2032.25 1102.5 1629.58 508.683 1390.91 983.524C1225.99 1311.67 1226.28 1917.6 1031.87 2194.88C951.878 2308.96 820.57 2338.26 633.539 2237.09C424.152 2123.82 157.533 1862.97 -67.3071 1710.19C-134.447 1664.58 -198.167 1627.63 -254.466 1607.74" stroke="#E5ACB8" stroke-width="0.5" stroke-miterlimit="10"/>
</svg>
