<svg width="56" height="56" viewBox="0 0 56 56" fill="none" xmlns="http://www.w3.org/2000/svg">
<path d="M28.0022 2.23438C13.7972 2.23438 2.24219 13.7894 2.24219 27.9944C2.24219 42.1993 13.7972 53.7544 28.0022 53.7544C42.2071 53.7544 53.7622 42.1993 53.7622 27.9944C53.7622 13.7894 42.2071 2.23438 28.0022 2.23438ZM28.0022 31.3544C27.4847 31.3544 26.9998 31.2278 26.5619 31.0184L19.834 37.7462C19.6156 37.9646 19.3289 38.0744 19.0422 38.0744C18.7555 38.0744 18.4687 37.9646 18.2503 37.7462C17.8124 37.3083 17.8124 36.6005 18.2503 36.1625L24.9782 29.4347C24.7687 28.9968 24.6422 28.5118 24.6422 27.9944C24.6422 26.5339 25.5796 25.303 26.8822 24.8405V8.95438C26.8822 8.33501 27.3828 7.83437 28.0022 7.83437C28.6215 7.83437 29.1222 8.33501 29.1222 8.95438V24.8405C30.4247 25.303 31.3622 26.5339 31.3622 27.9944C31.3622 29.8502 29.858 31.3544 28.0022 31.3544Z" fill="white"/>
</svg>
