<svg width="1440" height="3115" viewBox="0 0 1440 3115" fill="none" xmlns="http://www.w3.org/2000/svg">
<path d="M1936.38 -0.00157218C1968.35 203.488 1980.81 398.464 1944.2 565.038C1932.33 619.045 1915.13 670.297 1878.72 707.886C1804.48 784.535 1655.73 799.979 1545.86 847.959C1406.31 908.888 1330.74 1025.07 1326.01 1179.7C1322.45 1296.05 1345.88 1450.22 1277.17 1527C1214.75 1596.74 965.891 1517.73 826.727 1508.38C684.193 1498.81 579.666 1534.64 524.344 1605.24C495.366 1642.24 479.717 1688.85 479.228 1743.64C478.77 1796.04 516.388 1873.93 414.136 1849.83C380.338 1841.86 341.195 1822.98 304.715 1809.83C177.946 1764.15 92.0462 1799.38 116.574 1887M1935.73 7.22475C1972.82 211.047 1988.24 406.627 1952.02 572.453C1940.03 627.721 1920.85 678.693 1885.18 718.108C1841.99 765.54 1772.55 791.591 1699.97 815.264C1650.44 831.428 1599.44 846.477 1554.31 866.445C1465.18 905.902 1399.49 965.644 1359.09 1041.45C1335.48 1085.78 1320.54 1135.61 1314.77 1190.28C1310.58 1228.57 1309.38 1271.06 1306.55 1313.28C1302.44 1372.56 1295.05 1431.28 1272.35 1478.07C1264.23 1494.89 1254.15 1510.18 1241.49 1523.3C1189.06 1577.48 1026.68 1544.3 894.617 1526.32C859.135 1521.43 825.832 1517.64 797.391 1516.92C680.072 1513.59 591.207 1543.1 536.771 1598.43C527.393 1607.96 519.032 1618.25 511.715 1629.28C485.611 1668.61 472.491 1717.31 473.04 1773.47C473.373 1806.73 487.487 1849.29 474.287 1871.75C466.163 1885.59 447.624 1891.65 409.421 1883.5C376.043 1876.37 337.426 1858.74 301.257 1846.52C175.597 1804 88.4871 1839.07 110.652 1926.61M1935.06 14.4401C1977.29 218.604 1995.64 414.779 1959.83 579.86C1947.71 636.401 1926.56 687.091 1891.61 728.313C1849.35 777.613 1780.92 805.787 1708.73 831.128C1659.44 848.438 1608.4 864.426 1562.73 884.917C1472.5 925.367 1403.72 984.407 1358.32 1057.8C1331.77 1100.71 1313.3 1148.56 1303.49 1200.84C1296.34 1237.45 1291.98 1277.98 1285.98 1318.18C1277.34 1374.59 1265.36 1430.32 1239.41 1475.53C1230.18 1491.79 1219.16 1506.68 1205.77 1519.6C1150.11 1572.99 990.363 1544.07 862.108 1531.03C827.657 1527.41 795.517 1525.01 768.047 1525.47C655.328 1527.36 571.207 1561.14 521.648 1620.47C513.106 1630.66 505.593 1641.64 499.072 1653.32C475.837 1694.99 465.245 1745.78 466.849 1803.31C467.809 1837.4 481.724 1880.31 468.632 1903.5C460.562 1917.78 442.131 1924.31 404.704 1917.18C371.733 1910.91 333.665 1894.53 297.797 1883.23C173.251 1843.86 84.9197 1878.78 104.723 1966.22M1934.4 21.6535C1981.75 226.153 2003.07 422.943 1967.65 587.262C1955.4 645.067 1932.28 695.474 1898.07 738.522C1856.75 789.701 1789.31 819.988 1717.51 846.996C1668.48 865.462 1617.4 882.386 1571.17 903.383C1479.86 944.834 1407.96 1003.17 1357.56 1074.13C1328.09 1115.63 1306.34 1161.66 1292.22 1211.4C1282.29 1246.43 1274.57 1284.89 1265.43 1323.05C1252.23 1376.61 1235.68 1429.33 1206.47 1472.96C1196.13 1488.65 1184.18 1503.15 1170.07 1515.88C1111.19 1568.48 954.339 1544.15 829.603 1535.7C796.245 1533.44 765.161 1532.3 738.695 1533.99C630.411 1540.87 551.194 1579.13 506.535 1642.46C498.835 1653.35 492.147 1664.99 486.439 1677.33C466.079 1721.33 458.016 1774.22 460.675 1833.12C462.262 1868.04 475.983 1911.29 462.994 1935.2C454.989 1949.95 436.677 1956.94 399.985 1950.83C367.434 1945.4 329.892 1930.27 294.324 1919.88C170.887 1883.67 81.3342 1918.42 98.7854 2005.8M1933.75 28.8797C1986.22 233.711 2010.49 431.106 1975.48 594.687C1963.11 653.766 1938.23 704.031 1904.53 748.744C1864.39 801.973 1797.72 834.199 1726.3 862.887C1677.53 882.495 1626.41 900.369 1579.63 921.879C1487.24 964.332 1412.25 1021.96 1356.83 1090.51C1324.43 1130.58 1299.21 1174.69 1280.99 1221.99C1268.15 1255.37 1257.21 1291.83 1244.93 1327.98C1227.19 1378.67 1206.05 1428.39 1173.58 1470.44C1162.12 1485.58 1149.23 1499.68 1134.4 1512.21C1072.3 1564.02 918.17 1544.04 797.13 1540.43C764.82 1539.46 734.844 1539.63 709.382 1542.54C605.544 1554.43 531.226 1597.17 491.444 1664.5C484.574 1676.06 478.722 1688.38 473.827 1701.37C456.342 1747.7 450.802 1802.69 454.504 1862.95C456.717 1898.7 470.235 1942.29 457.359 1966.93C449.419 1982.15 431.22 1989.61 395.288 1984.5C363.149 1979.94 326.152 1966.05 290.884 1956.58C168.556 1923.53 77.7864 1958.12 92.8755 2045.4M1933.09 36.0919C1990.7 241.265 2017.92 439.265 1983.29 602.091C1970.79 662.433 1943.99 712.451 1910.97 758.945C1871.81 814.078 1806.1 848.392 1735.06 878.748C1686.55 899.512 1635.39 918.321 1588.05 940.337C1494.58 983.791 1416.48 1040.71 1356.06 1106.84C1320.73 1145.51 1292.03 1187.67 1269.72 1232.54C1253.95 1264.26 1239.99 1298.85 1224.36 1332.86C1202.33 1380.85 1176.11 1427.22 1140.63 1467.88C1127.97 1482.38 1114.24 1496.16 1098.67 1508.48C1033.35 1559.5 881.939 1543.86 764.611 1545.11C733.355 1545.44 704.474 1546.93 680.017 1551.06C580.597 1567.91 511.205 1615.17 476.311 1686.5C470.289 1698.75 465.262 1711.73 461.168 1725.39C446.569 1774.07 443.551 1831.15 448.297 1892.77C451.137 1929.35 464.455 1973.29 451.687 1998.65C443.813 2014.33 425.727 2022.26 390.554 2018.16C358.828 2014.46 322.375 2001.81 287.407 1993.26C166.194 1963.37 74.2087 1997.81 86.9347 2085M1932.44 43.3178C1995.17 248.823 2025.34 447.428 1991.12 609.506C1978.49 671.118 1949.75 720.872 1917.43 769.167C1879.26 826.204 1814.49 862.596 1743.84 894.629C1695.58 916.539 1644.39 936.297 1596.5 958.823C1501.95 1003.28 1420.76 1059.5 1355.31 1123.2C1317.05 1160.44 1284.86 1200.67 1258.47 1243.11C1239.78 1273.18 1222.63 1305.79 1203.83 1337.76C1177.28 1382.91 1146.41 1426.23 1107.71 1465.33C1093.93 1479.26 1079.28 1492.66 1062.98 1504.78C994.431 1555 845.743 1543.7 732.111 1549.8C701.909 1551.42 674.123 1554.21 650.681 1559.6C555.687 1581.4 491.214 1633.18 461.197 1708.52C456.004 1721.44 451.814 1735.1 448.523 1749.4C436.798 1800.42 436.309 1859.59 442.104 1922.58C445.57 1959.99 458.696 2004.28 446.03 2030.37C438.227 2046.51 420.246 2054.93 385.827 2051.82C354.52 2049 318.594 2037.57 283.933 2029.93C163.828 2003.2 70.6155 2037.47 81.0023 2124.59M1931.77 50.5333C1999.63 256.374 2032.75 455.58 1998.92 616.914C1986.16 679.79 1955.48 729.277 1923.86 779.372C1886.66 838.304 1822.86 876.793 1752.6 910.493C1704.59 933.559 1653.36 954.253 1604.91 977.285C1509.28 1022.74 1424.98 1078.25 1354.53 1139.53C1313.36 1175.37 1277.66 1213.66 1247.19 1253.67C1225.56 1282.08 1205.23 1312.72 1183.27 1342.65C1152.19 1384.97 1116.69 1425.23 1074.76 1462.78C1059.86 1476.13 1044.29 1489.16 1027.25 1501.07C955.478 1550.51 809.511 1543.52 699.585 1554.48C670.426 1557.39 643.741 1561.5 621.309 1568.12C530.722 1594.86 471.18 1651.18 446.057 1730.52C441.695 1744.13 438.353 1758.47 435.863 1773.42C427.014 1826.77 429.047 1888.04 435.885 1952.39C439.978 1990.63 452.905 2035.27 440.347 2062.08C432.597 2078.67 414.752 2087.6 381.071 2085.47C350.175 2083.52 314.794 2073.31 280.433 2066.6C161.432 2043.01 67.0148 2077.14 75.0271 2164.16M1931.11 57.7455C2004.11 263.928 2040.18 463.739 2006.75 624.325C1993.87 688.474 1961.24 737.684 1930.32 789.589C1894.08 850.406 1831.26 891.002 1761.4 926.38C1713.65 950.588 1662.38 972.231 1613.37 995.779C1516.66 1042.24 1429.25 1097.04 1353.81 1155.91C1309.69 1190.32 1270.49 1226.67 1235.96 1264.26C1211.38 1291.01 1187.89 1319.68 1162.76 1347.56C1127.17 1387.05 1087.03 1424.26 1041.86 1460.25C1025.83 1473.03 1009.34 1485.67 991.581 1497.38C916.583 1546.02 773.327 1543.36 667.107 1559.19C638.99 1563.38 613.413 1568.8 591.989 1576.66C505.788 1608.32 451.205 1669.21 430.977 1752.55C427.463 1766.84 424.945 1781.85 423.257 1797.46C417.282 1853.14 421.837 1916.51 429.731 1982.23C434.45 2021.3 447.173 2066.28 434.728 2093.82C427.044 2110.87 409.327 2120.31 376.39 2119.15C345.917 2118.08 311.058 2109.09 277.009 2103.3C159.117 2082.87 63.4835 2116.84 69.1453 2203.78M1930.46 64.9716C2008.58 271.487 2047.6 471.902 2014.57 631.743C2001.55 697.156 1966.98 746.099 1936.76 799.808C1901.48 862.51 1839.64 905.213 1770.16 942.258C1722.67 967.622 1671.35 990.194 1621.79 1014.25C1524.01 1061.71 1433.5 1115.81 1353.03 1172.24C1306 1205.25 1263.28 1239.65 1224.69 1274.83C1197.17 1299.91 1170.51 1326.61 1142.2 1352.46C1102.09 1389.1 1057.33 1423.27 1008.92 1457.7C991.768 1469.9 974.348 1482.16 955.856 1493.67C877.631 1541.53 737.074 1543.16 634.587 1563.89C607.52 1569.36 583.026 1576.09 562.624 1585.2C480.809 1621.76 431.184 1687.22 415.833 1774.56C413.149 1789.53 411.467 1805.21 410.592 1821.48C407.492 1879.5 414.588 1944.97 423.519 2012.06C428.871 2051.95 441.388 2097.28 429.052 2125.54C421.433 2143.06 403.845 2153 371.644 2152.82C341.589 2152.64 307.27 2144.86 273.51 2139.98C156.733 2122.71 59.8653 2156.52 63.1703 2243.37M1929.8 72.1851C2013.05 279.032 2055.03 480.063 2022.39 639.145C2009.25 705.832 1972.73 754.498 1943.22 810.017C1908.89 874.607 1848.04 919.41 1778.93 958.13C1731.69 984.64 1680.34 1008.16 1630.23 1032.73C1531.36 1081.19 1437.74 1134.58 1352.28 1188.6C1302.31 1220.19 1256.07 1252.63 1213.43 1285.4C1182.96 1308.81 1153.14 1333.56 1121.67 1357.37C1077.01 1391.16 1027.65 1422.29 976.012 1455.18C957.742 1466.8 939.394 1478.69 920.179 1489.99C838.732 1537.05 700.868 1542.98 602.104 1568.6C576.079 1575.35 552.681 1583.39 533.294 1593.75C455.843 1635.19 411.199 1705.25 400.735 1796.6C398.893 1812.26 398.036 1828.6 397.975 1845.52C397.75 1905.88 407.368 1973.44 417.348 2041.89C423.327 2082.61 435.651 2128.29 423.417 2157.27C415.863 2175.26 398.415 2185.72 366.947 2186.5C337.32 2187.22 303.568 2180.7 270.07 2176.68C154.579 2162.8 56.3244 2196.22 57.2662 2282.99M1929.14 79.4005C2017.51 286.593 2062.43 488.218 2030.2 646.549C2016.92 714.499 1978.45 762.893 1949.65 820.218C1916.27 886.684 1856.42 933.604 1787.69 973.99C1740.71 1001.66 1689.32 1026.11 1638.65 1051.19C1538.7 1100.65 1441.97 1153.33 1351.51 1204.94C1298.62 1235.11 1248.83 1265.59 1202.16 1295.95C1168.73 1317.69 1135.73 1340.47 1101.11 1362.24C1051.92 1393.18 997.957 1421.29 943.067 1452.61C923.681 1463.67 904.405 1475.16 884.454 1486.26C799.78 1532.54 664.599 1542.74 569.574 1573.27C544.587 1581.29 522.278 1590.64 503.928 1602.27C430.818 1648.57 391.171 1723.25 385.591 1818.6C384.585 1834.93 384.576 1851.96 385.311 1869.53C387.96 1932.22 400.1 2001.88 411.136 2071.7C417.741 2113.25 429.855 2159.26 417.74 2188.98C410.258 2207.42 392.949 2218.42 362.197 2220.14C333.003 2221.77 299.775 2216.45 266.565 2213.33C152.189 2202.61 52.7124 2235.87 51.3036 2322.56M1928.48 86.6265C2021.98 294.151 2069.86 496.391 2038.03 653.977C2024.64 723.198 1984.19 771.307 1956.12 830.453C1923.69 898.794 1864.82 947.821 1796.48 989.884C1749.75 1018.69 1698.33 1044.1 1647.11 1069.69C1546.08 1120.16 1446.25 1172.13 1350.78 1221.31C1294.95 1250.07 1241.64 1278.59 1190.92 1306.55C1154.54 1326.62 1118.37 1347.43 1080.58 1367.17C1026.84 1395.26 968.293 1420.34 910.156 1450.09C889.649 1460.57 869.443 1471.68 848.781 1482.59C760.885 1528.07 628.375 1542.55 537.112 1578C513.163 1587.3 491.944 1597.94 474.627 1610.84C405.846 1661.99 371.214 1741.29 370.522 1840.65C370.357 1857.67 371.174 1875.37 372.716 1893.59C378.251 1958.63 392.909 2030.37 404.993 2101.57C412.225 2143.94 424.146 2190.31 412.133 2220.75C404.705 2239.64 387.546 2251.18 357.521 2253.85C328.779 2256.4 296.056 2252.26 263.146 2250.06C149.897 2242.51 49.181 2275.6 45.4091 2362.2M1927.82 93.839C2026.45 301.696 2076.68 504.181 2045.84 661.378C2032.05 731.704 1989.9 779.69 1962.56 840.652C1931.06 910.861 1873.2 962.011 1805.25 1005.75C1758.79 1035.72 1707.32 1062.06 1655.54 1088.15C1553.43 1139.62 1450.5 1190.89 1350.01 1237.65C1291.26 1264.99 1234.39 1291.53 1179.65 1317.1C1140.3 1335.48 1100.96 1354.33 1060.05 1372.05C1001.76 1397.29 938.624 1419.35 877.228 1447.53C855.611 1457.45 834.466 1468.17 813.073 1478.87C721.951 1523.57 592.106 1542.3 504.599 1582.68C481.688 1593.24 461.558 1605.2 445.267 1619.35C380.804 1675.35 351.2 1759.29 355.39 1862.64C356.056 1880.34 357.708 1898.71 360.064 1917.59C368.474 1984.96 385.654 2058.8 398.782 2131.36C406.64 2174.56 418.363 2221.28 406.458 2252.44C399.094 2271.8 382.092 2283.88 352.783 2287.48C324.486 2290.95 292.275 2288 259.672 2286.72C147.549 2282.32 45.5991 2315.25 39.4767 2401.77M1927.16 101.056C2030.92 309.254 2084.09 512.335 2053.65 668.787C2039.72 740.376 1995.61 788.075 1968.99 850.857C1938.42 922.935 1881.57 976.209 1814.01 1021.62C1767.79 1052.73 1716.29 1080.01 1663.96 1106.63C1560.76 1159.09 1454.74 1209.66 1349.24 1254C1287.56 1279.92 1227.13 1304.48 1168.38 1327.67C1126.04 1344.36 1083.56 1361.26 1039.48 1376.95C976.644 1399.33 908.938 1418.38 844.277 1444.98C821.544 1454.34 799.482 1464.67 777.349 1475.16C683.005 1519.07 555.819 1542.06 472.069 1587.37C450.189 1599.21 431.155 1612.47 415.89 1627.88C355.716 1688.7 331.167 1777.3 340.246 1884.65C341.748 1903.03 344.237 1922.07 347.4 1941.62C358.685 2011.32 378.399 2087.27 392.57 2161.18C401.043 2205.21 412.573 2252.27 400.782 2284.16C393.484 2303.98 376.643 2316.62 348.045 2321.15C320.197 2325.56 288.488 2323.76 256.179 2323.39C145.171 2322.16 42.0054 2354.93 33.5084 2441.35M1926.51 108.277C2035.39 316.811 2091.53 520.503 2061.48 676.197C2047.42 749.05 2001.34 796.466 1975.46 861.075C1945.82 935.021 1889.98 990.418 1822.8 1037.49C1776.84 1069.76 1725.3 1097.98 1672.41 1125.1C1568.13 1178.56 1459 1228.42 1348.5 1270.35C1283.89 1294.86 1219.9 1317.44 1157.14 1338.23C1111.83 1353.25 1066.18 1368.18 1018.95 1381.84C951.551 1401.35 879.28 1417.41 811.361 1442.43C787.518 1451.22 764.516 1461.16 741.659 1471.45C644.088 1514.56 519.545 1541.8 439.574 1592.05C418.72 1605.15 400.776 1619.72 386.56 1636.41C330.669 1702.05 311.175 1795.31 325.148 1906.67C327.492 1925.73 330.817 1945.45 334.782 1965.64C348.942 2037.69 371.184 2115.72 386.405 2191.01C395.504 2235.86 406.841 2283.27 395.152 2315.89C387.919 2336.18 371.251 2349.38 343.346 2354.82C315.955 2360.16 284.746 2359.53 252.737 2360.09C142.845 2362.01 38.4451 2394.62 27.6089 2480.97M1925.84 115.494C2039.85 324.36 2099.54 529.016 2069.28 683.606C2055.38 757.901 2007.04 804.856 1981.89 871.281C1953.18 947.096 1898.36 1004.61 1831.55 1053.36C1785.85 1086.77 1734.27 1115.93 1680.83 1143.57C1575.46 1198.04 1463.23 1247.19 1347.72 1286.69C1280.18 1309.78 1212.63 1330.37 1145.85 1348.79C1097.56 1362.1 1048.75 1375.09 998.395 1386.73C926.439 1403.39 849.599 1416.43 778.415 1439.88C753.463 1448.1 729.521 1457.66 705.935 1467.74C605.142 1510.06 483.236 1541.54 407.055 1596.75C387.239 1611.12 370.366 1626.99 357.2 1644.95C305.575 1715.39 291.16 1813.32 310.01 1928.68C313.19 1948.42 317.346 1968.82 322.118 1989.67C339.152 2064.04 363.917 2144.18 380.181 2220.82C389.907 2266.51 401.045 2314.26 389.47 2347.6C382.297 2368.34 365.808 2382.11 338.591 2388.47C311.668 2394.75 280.88 2395.21 249.239 2396.76C140.236 2401.59 34.8458 2434.29 21.635 2520.54M1925.18 122.711C2044.33 331.919 2106.96 537.18 2077.11 691.022C2063.08 766.577 2012.77 813.249 1988.35 881.503C1960.56 959.178 1906.75 1018.82 1840.35 1069.25C1794.9 1103.81 1743.28 1133.92 1689.28 1162.06C1582.84 1217.52 1467.51 1265.98 1346.98 1303.05C1276.52 1324.73 1205.4 1343.34 1134.61 1359.38C1083.33 1371 1031.36 1382.01 977.862 1391.65C901.346 1405.43 819.942 1415.48 745.5 1437.35C719.438 1445 694.561 1454.17 670.246 1464.05C566.225 1505.58 446.933 1541.28 374.566 1601.45C355.77 1617.09 339.982 1634.24 327.865 1653.48C280.488 1728.73 271.17 1831.34 294.908 1950.71C298.929 1971.13 303.916 1992.19 309.484 2013.69C329.393 2090.4 356.687 2172.63 374 2250.65C384.352 2297.16 395.286 2345.26 383.824 2379.33C376.716 2400.53 360.412 2414.87 333.882 2422.13C307.438 2429.36 277.117 2430.97 245.776 2433.44C137.888 2441.43 31.2756 2473.97 15.708 2560.14M1924.53 129.934C2048.8 339.474 2114.39 545.339 2084.94 698.433C2070.78 775.262 2018.48 821.631 1994.81 891.712C1967.94 971.246 1915.14 1033.02 1849.12 1085.12C1803.93 1120.83 1752.27 1151.88 1697.73 1180.53C1590.2 1237 1471.77 1284.74 1346.24 1319.4C1272.85 1339.66 1198.16 1356.27 1123.37 1369.94C1069.11 1379.86 1013.99 1388.93 957.342 1396.54C876.248 1407.44 790.309 1414.52 712.602 1434.8C685.424 1441.9 659.613 1450.67 634.568 1460.35C527.321 1501.09 410.642 1541.01 342.084 1606.15C324.302 1623.03 309.597 1641.5 298.536 1662.02C255.384 1742.04 251.185 1849.35 279.806 1972.71C284.657 1993.81 290.481 2015.55 296.862 2037.7C319.646 2116.75 349.473 2201.08 367.825 2280.45C378.804 2327.8 389.539 2376.24 378.185 2411.03C371.143 2432.7 355.041 2447.62 329.174 2455.78C303.222 2463.97 273.366 2466.72 242.326 2470.11C135.535 2481.25 27.7125 2513.64 9.7995 2599.73M1923.87 137.149C2053.26 347.021 2121.8 553.492 2092.74 705.841C2078.45 783.933 2024.17 830.013 2001.24 901.929C1975.29 983.322 1923.52 1047.23 1857.88 1101C1812.95 1137.86 1761.25 1169.84 1706.14 1199.01C1597.54 1256.48 1476 1303.52 1345.45 1335.75C1269.14 1354.59 1190.87 1369.19 1112.08 1380.5C1054.83 1388.72 996.545 1395.83 936.772 1401.43C851.118 1409.47 760.626 1413.56 679.649 1432.26C651.362 1438.78 624.611 1447.16 598.842 1456.64C488.373 1496.59 374.302 1540.74 309.563 1610.84C292.801 1629 279.181 1648.76 269.169 1670.55C230.236 1755.36 231.157 1867.37 264.672 1994.74C270.371 2016.52 277.024 2038.94 284.208 2061.74C309.878 2143.13 342.216 2229.55 361.623 2310.29C373.228 2358.46 383.77 2407.25 372.53 2442.77C365.553 2464.9 349.647 2480.41 324.457 2489.47C298.989 2498.62 269.594 2502.5 238.865 2506.81C133.19 2521.11 24.145 2553.35 3.86371 2639.34M1923.21 144.361C2057.73 354.578 2129.22 561.654 2100.56 713.242C2086.15 792.607 2029.87 838.385 2007.69 912.128C1982.65 995.383 1931.9 1061.42 1866.65 1116.85C1821.96 1154.86 1770.24 1187.79 1714.58 1217.47C1604.89 1275.94 1480.25 1322.27 1344.71 1352.08C1265.45 1369.51 1183.62 1382.11 1100.83 1391.06C1040.59 1397.57 979.151 1402.72 916.234 1406.32C826.008 1411.47 730.974 1412.58 646.721 1429.7C617.33 1435.67 589.639 1443.64 563.135 1452.92C449.439 1492.08 337.963 1540.45 277.05 1615.52C261.303 1634.93 248.766 1655.99 239.827 1679.08C205.107 1768.67 211.159 1885.37 249.551 2016.74C256.081 2039.2 263.577 2062.29 271.561 2085.75C300.1 2169.48 334.973 2257.99 355.428 2340.1C367.667 2389.1 377.992 2438.23 366.871 2474.49C359.959 2497.08 344.261 2513.18 319.724 2523.12C294.758 2533.24 265.818 2538.25 235.378 2543.47C130.811 2560.93 20.5569 2593.01 -2.08123 2678.92M1922.55 151.587C2062.21 362.137 2136.65 569.817 2108.39 720.669C2093.84 801.299 2035.57 846.773 2014.15 922.362C1990.02 1007.47 1940.31 1075.64 1875.45 1132.76C1831.03 1171.92 1779.25 1205.79 1723.03 1235.97C1612.27 1295.44 1484.52 1341.07 1343.97 1368.46C1261.8 1384.48 1176.37 1395.07 1089.58 1401.66C1026.36 1406.47 961.761 1409.66 895.706 1411.24C800.914 1413.51 701.326 1411.66 613.804 1427.18C583.303 1432.58 554.672 1440.17 527.444 1449.24C410.527 1487.61 301.63 1540.19 244.554 1620.24C229.827 1640.91 218.362 1663.28 210.484 1687.63C179.954 1782 191.161 1903.4 234.441 2038.78C241.812 2061.93 250.133 2085.68 258.931 2109.8C290.344 2195.87 327.74 2286.47 349.239 2369.94C362.104 2419.77 372.236 2469.25 361.217 2506.23C354.365 2529.27 338.886 2545.98 315.002 2556.8C290.544 2567.89 262.041 2574.03 231.919 2580.18C128.461 2600.79 16.9906 2632.72 -8.01578 2718.53M1921.89 158.802C2066.67 369.684 2144.07 577.979 2116.2 728.074C2101.54 809.973 2041.27 855.149 2020.59 932.564C1997.36 1019.52 1948.69 1089.83 1884.21 1148.62C1840.04 1188.93 1788.22 1223.73 1731.46 1254.44C1619.61 1314.91 1488.77 1359.83 1343.2 1384.8C1258.09 1399.4 1169.09 1407.97 1078.31 1412.21C1012.09 1415.3 944.337 1416.55 875.155 1416.13C775.791 1415.51 671.674 1410.7 580.87 1424.62C549.265 1429.47 519.699 1436.67 491.742 1445.54C371.597 1483.12 265.273 1539.89 212.052 1624.93C198.334 1646.85 187.947 1670.52 181.136 1696.16C154.79 1795.29 171.157 1921.41 219.332 2060.79C227.539 2084.61 236.69 2109.05 246.301 2133.82C280.59 2222.22 320.508 2314.92 343.062 2399.76C356.553 2450.42 366.487 2500.25 355.576 2537.95C348.789 2561.45 333.535 2578.76 310.298 2590.47C286.354 2602.54 258.295 2609.8 228.461 2616.85C126.118 2640.62 13.4136 2672.39 -13.9319 2758.12M1921.23 166.016C2071.15 377.24 2151.48 586.129 2124.01 735.479C2109.22 818.643 2046.65 863.331 2027.03 942.766C2004.37 1031.37 1957.06 1104.02 1892.97 1164.48C1849.06 1205.95 1797.2 1241.69 1739.88 1272.9C1626.96 1334.37 1493 1378.58 1342.43 1401.13C1254.4 1414.32 1161.82 1420.88 1067.04 1422.76C997.825 1424.14 926.92 1423.45 854.6 1421.01C750.671 1417.51 642.226 1409.95 547.926 1422.05C515.278 1426.41 484.712 1433.14 456.025 1441.81C332.659 1478.6 228.907 1539.58 179.541 1629.61C166.831 1652.78 157.534 1677.76 151.778 1704.68C129.616 1808.58 151.138 1939.41 204.195 2082.78C213.232 2107.29 223.237 2132.4 233.638 2157.82C270.801 2248.56 313.26 2343.36 336.851 2429.57C350.969 2481.05 360.698 2531.22 349.901 2569.66C343.179 2593.63 328.15 2611.53 305.56 2624.12C282.13 2637.17 254.514 2645.56 224.981 2653.52C123.747 2680.45 9.83211 2712.06 -19.8766 2797.71M1920.58 173.242C2075.61 384.801 2158.91 594.293 2131.83 742.894C2116.92 827.331 2052.38 871.736 2033.49 952.988C2011.76 1043.46 1965.46 1118.23 1901.75 1180.36C1858.09 1222.97 1806.21 1259.66 1748.33 1291.39C1634.32 1353.86 1497.27 1397.37 1341.69 1417.5C1250.72 1429.27 1154.58 1433.81 1055.8 1433.35C983.591 1433.01 909.421 1430.22 834.073 1425.91C725.417 1419.33 612.556 1408.99 515.016 1419.52C481.259 1423.31 449.752 1429.65 420.336 1438.12C293.742 1474.12 192.557 1539.3 147.046 1634.31C135.344 1658.74 127.119 1685.01 122.454 1713.22C104.457 1821.89 131.158 1957.43 189.104 2104.81C198.983 2130.01 209.813 2155.79 221.027 2181.87C261.065 2274.94 306.046 2371.84 330.68 2459.41C345.425 2511.72 354.962 2562.23 344.266 2601.39C337.61 2625.82 322.806 2644.32 300.846 2657.79C277.946 2671.82 250.744 2681.32 221.523 2690.22C121.404 2720.3 6.25558 2751.74 -25.81 2837.31M1919.92 180.454C2080.08 392.346 2166.33 602.452 2139.66 750.305C2124.61 836.005 2058.11 880.127 2039.94 963.196C2019.16 1055.55 1973.85 1132.43 1910.54 1196.24C1867.14 1240 1815.21 1277.63 1756.77 1309.86C1641.68 1373.34 1501.53 1416.14 1340.94 1433.85C1247.06 1444.21 1147.31 1446.72 1044.54 1443.92C969.345 1441.86 892.031 1437.15 813.539 1430.83C700.322 1421.37 582.897 1408.03 482.092 1416.99C447.219 1420.22 414.778 1426.16 384.639 1434.43C254.823 1469.63 156.181 1539.01 114.543 1639.01C103.85 1664.7 96.6964 1692.27 93.1044 1721.77C79.2679 1835.21 111.154 1975.45 173.976 2126.83C184.691 2152.7 196.351 2179.16 208.379 2205.89C251.292 2301.3 298.795 2400.29 324.491 2489.23C339.862 2542.37 349.2 2593.24 338.612 2633.12C332.021 2658.01 317.454 2677.12 296.129 2691.46C273.772 2706.49 246.985 2717.09 218.052 2726.9C119.042 2760.14 2.68398 2791.43 -31.7384 2876.91M1919.25 187.67C2084.55 399.903 2173.74 610.604 2147.47 757.713C2132.29 844.686 2063.81 888.516 2046.38 973.411C2026.53 1067.63 1982.24 1146.64 1919.31 1212.11C1876.17 1257.03 1824.19 1295.6 1765.21 1328.34C1649.04 1392.82 1505.77 1434.91 1340.18 1450.2C1243.36 1459.13 1140.05 1459.64 1033.28 1454.48C955.087 1450.71 874.647 1444.06 792.994 1435.71C675.234 1423.39 553.221 1407.06 449.176 1414.43C413.193 1417.1 379.812 1422.66 348.943 1430.72C215.9 1465.13 119.819 1538.72 82.048 1643.7C72.3571 1670.64 66.2816 1699.51 63.7625 1730.29C54.0744 1848.49 91.1563 1993.45 158.867 2148.84C170.423 2175.4 182.915 2202.52 195.75 2229.91C241.549 2327.66 291.569 2428.74 318.314 2519.05C334.311 2573.02 343.445 2624.22 332.971 2664.84C326.44 2690.18 312.132 2709.92 291.426 2725.12C269.6 2741.14 243.227 2752.85 214.606 2763.58C116.704 2799.99 -0.870094 2831.11 -37.6608 2916.5M1918.6 194.896C2089.02 407.461 2181.18 618.777 2155.29 765.127C2139.98 853.365 2069.53 896.911 2052.83 983.623C2033.91 1079.71 1990.63 1160.84 1928.07 1227.99C1885.18 1274.05 1833.18 1313.56 1773.64 1346.82C1656.38 1412.3 1510.03 1453.69 1339.42 1466.56C1239.68 1474.08 1132.63 1472.38 1022.03 1465.07C940.741 1459.45 857.264 1451 772.455 1440.63C650.146 1425.45 523.546 1406.1 416.247 1411.91C379.148 1414.01 344.839 1419.17 313.241 1427.03C176.977 1460.65 83.0379 1538.19 49.5515 1648.42C40.7589 1676.55 35.8656 1706.78 34.4195 1738.85C28.8849 1861.81 71.1516 2011.49 143.751 2170.87C156.138 2198.11 169.477 2225.91 183.108 2253.95C231.782 2354.04 284.325 2457.21 312.113 2548.89C328.725 2603.67 337.671 2655.24 327.305 2696.57C320.84 2722.38 306.775 2742.72 286.692 2758.8C265.426 2775.82 239.45 2788.63 211.129 2800.28C114.343 2839.84 -4.45931 2870.81 -43.5954 2956.12M1917.94 202.109C2093.48 415.01 2188.59 626.931 2163.1 772.533C2147.68 862.041 2075.25 905.307 2059.28 993.835C2041.29 1091.79 1999.01 1175.04 1936.84 1243.86C1894.22 1291.08 1842.17 1331.53 1782.07 1365.29C1663.73 1431.77 1514.27 1472.45 1338.66 1482.91C1235.98 1489.01 1125.4 1485.32 1010.76 1475.63C926.502 1468.32 839.864 1457.91 751.917 1445.53C625.065 1427.48 493.877 1405.13 383.32 1409.36C345.1 1410.89 309.862 1415.67 277.54 1423.33C138.049 1456.16 46.734 1537.94 17.0455 1653.11C9.28418 1682.51 5.33508 1713.98 5.07324 1747.37C3.2315 1874.87 51.1501 2029.5 128.638 2192.89C141.872 2220.81 156.03 2249.28 170.463 2277.97C222.012 2380.39 277.094 2485.66 305.92 2578.7C323.159 2634.32 331.913 2686.23 321.648 2728.29C315.248 2754.56 301.437 2775.52 281.961 2792.45C261.245 2810.46 235.664 2824.37 207.65 2836.94C111.972 2879.66 -8.04554 2910.47 -49.5385 2995.7M1917.27 209.326C2097.95 422.569 2196 635.085 2170.92 779.939C2155.36 870.71 2080.96 913.693 2065.71 1004.04C2048.66 1103.88 2007.38 1189.23 1945.6 1259.72C1903.22 1308.09 1851.13 1349.48 1790.49 1383.76C1671.07 1451.24 1518.5 1491.22 1337.89 1499.24C1232.29 1503.94 1118.15 1498.26 999.492 1486.19C912.269 1477.18 822.464 1464.83 731.356 1450.41C599.955 1429.5 464.191 1404.15 350.376 1406.8C311.04 1407.76 274.868 1412.15 241.817 1419.6C99.104 1451.64 10.4185 1537.69 -15.4837 1657.78C-22.2251 1688.45 -25.0911 1721.22 -24.2914 1755.89C-21.8518 1888.23 31.1186 2047.49 113.495 2214.88C127.559 2243.48 142.56 2272.63 157.8 2301.97C212.223 2406.73 269.829 2514.1 299.709 2608.51C317.575 2664.96 326.118 2717.2 315.973 2759.99C309.638 2786.73 296.088 2808.3 277.223 2826.1C257.067 2845.11 231.883 2860.13 204.169 2873.61C109.595 2919.48 -11.6271 2950.14 -55.4883 3035.27M1916.63 216.548C2102.43 430.122 2203.44 643.253 2178.75 787.362C2163.07 879.407 2086.69 922.097 2072.17 1014.26C2056.05 1115.97 2015.78 1203.44 1954.39 1275.61C1912.28 1325.13 1860.15 1367.46 1798.94 1402.25C1678.44 1470.73 1522.78 1510 1337.14 1515.61C1228.61 1518.88 1110.93 1511.23 988.239 1496.77C898.044 1486.08 805.079 1471.76 710.815 1455.32C574.871 1431.55 434.508 1403.19 317.446 1404.27C277 1404.66 239.905 1408.67 206.113 1415.91C60.173 1447.17 -25.8771 1537.47 -47.9816 1662.5C-53.6916 1694.44 -55.4679 1728.52 -53.6358 1764.45C-46.921 1901.64 11.1187 2065.52 98.3829 2236.93C113.278 2266.2 129.114 2296.02 145.168 2326.02C202.466 2433.12 262.594 2542.58 293.518 2638.35C312.01 2695.63 320.36 2748.22 310.318 2791.74C304.047 2818.93 290.856 2841.19 272.499 2859.78C253.001 2879.88 228.105 2895.91 200.702 2910.32C107.237 2959.34 -15.2016 2989.85 -61.4196 3074.9M1915.96 223.764C2106.89 437.671 2210.85 651.406 2186.56 794.768C2170.75 888.076 2092.41 930.48 2078.62 1024.47C2063.43 1128.05 2024.17 1217.65 1963.16 1291.49C1838.9 1441.89 1623.87 1527.15 1336.38 1531.95C1143 1535.18 920.22 1503.8 690.272 1460.21C549.779 1433.57 404.84 1402.21 284.519 1401.71C63.3232 1400.79 -57.9218 1507.15 -80.4868 1667.18C-103.052 1827.2 -33.0208 2037.58 83.2703 2258.92C188.789 2459.78 335.853 2684.52 304.673 2823.44C269.007 2982.32 8.72206 2981.39 -67.3504 3114.47M3074.4 1600.65C2786.2 1354.24 2440.45 1137.34 2115.94 999.398C2023.62 960.155 1929.79 926.382 1859.41 924.428C1656.05 918.796 1701.11 1135.08 1697.91 1272.58C1694.03 1438.51 1697.35 1608.63 1669.5 1761.2C1653.86 1846.86 1616.87 1931.67 1480.06 1911.36C1341.52 1890.8 1157.87 1771.97 992.093 1671.48C798.92 1554.38 598.618 1448.84 414.799 1387.35C230.98 1325.85 64.8902 1312.59 -9.47423 1375.84C-67.7042 1425.38 -66.606 1516.43 -52.0357 1611.08C-13.7381 1859.78 112.466 2150.48 315.009 2456.53M3065.86 1588C2811.15 1370.21 2511.18 1182.93 2208.75 1045.38C2180.66 1032.6 2152.66 1020.23 2124.84 1008.49C2033.43 969.965 1940.66 936.693 1870.66 934.249C1668.12 927.098 1705.97 1134.55 1699.32 1268.94C1693.43 1388.08 1692.96 1510.95 1680.71 1628.21C1676.58 1668.98 1671.11 1709.01 1663.67 1747.94C1647.52 1832.37 1610.89 1916.11 1477.7 1898.16C1342.84 1879.99 1164.37 1766.75 1003.11 1671.19C815.205 1559.86 620.3 1459.64 441.024 1401.82C378.606 1381.69 318.229 1367.19 262.902 1359.47C159.348 1345.01 73.4361 1354.26 24.9755 1394.74C-33.2349 1443.37 -34.3858 1531.86 -22.8556 1623.41C0.384576 1808.66 72.8155 2016.35 191.524 2237.6C226.94 2303.61 266.468 2370.82 310.076 2439.01M3057.32 1575.36C2811.1 1364.84 2522.39 1190.67 2216.71 1053.73C2188.96 1041.31 2161.27 1029.12 2133.77 1017.61C2043.27 979.811 1951.55 947.029 1881.92 944.087C1680.17 935.411 1710.85 1134.03 1700.76 1265.32C1691.9 1380.64 1689.83 1501.08 1675.9 1616.84C1671.33 1656.93 1665.53 1696.34 1657.85 1734.7C1641.2 1817.91 1604.91 1900.58 1475.36 1884.99C1344.17 1869.19 1170.87 1761.53 1014.15 1670.93C831.521 1565.36 642.001 1470.46 467.285 1416.32C406.454 1397.47 347.545 1384.04 293.486 1377.14C192.303 1364.16 107.908 1373.94 59.4683 1413.67C1.28884 1461.4 -2.11642 1547.31 6.35607 1635.75C23.3289 1814.7 86.5711 2013.65 195.482 2226.93C227.977 2290.57 264.52 2355.47 305.174 2421.5M3048.78 1562.71C2811.04 1359.45 2533.63 1198.38 2224.66 1062.07C2197.24 1049.98 2169.86 1037.99 2142.69 1026.72C2053.11 989.63 1962.44 957.363 1893.19 953.917C1692.26 943.722 1715.77 1133.51 1702.2 1261.68C1690.39 1373.18 1686.21 1490.9 1671.12 1605.47C1665.95 1644.78 1659.97 1683.66 1652.05 1721.46C1634.88 1803.44 1598.95 1885.04 1473.03 1871.8C1345.51 1858.38 1177.4 1756.32 1025.2 1670.66C847.845 1570.86 663.722 1481.27 493.554 1430.8C434.303 1413.24 376.869 1400.88 324.067 1394.77C225.248 1383.29 142.382 1393.6 93.9626 1432.58C35.814 1479.41 30.1545 1562.75 35.5692 1648.08C46.2799 1820.74 100.328 2010.92 199.452 2216.26C229.027 2277.53 262.591 2340.11 300.303 2404M3040.24 1550.08C2811 1354.07 2544.87 1206.06 2232.61 1070.43C2205.54 1058.67 2178.45 1046.88 2151.6 1035.84C2062.94 999.478 1973.32 967.701 1904.44 963.754C1704.33 952.04 1720.71 1133 1703.63 1258.06C1688.91 1365.76 1682.92 1480.94 1666.31 1594.12C1660.65 1632.7 1654.38 1670.98 1646.23 1708.22C1628.56 1788.99 1592.99 1869.52 1470.68 1858.63C1346.84 1847.6 1183.9 1751.12 1036.23 1670.4C864.14 1576.37 685.404 1492.09 519.79 1445.3C462.114 1429.02 406.166 1417.72 354.614 1412.42C258.177 1402.44 176.834 1413.27 128.412 1451.5C70.2765 1497.42 62.3741 1578.2 64.7374 1660.41C69.1808 1826.77 114.041 2008.2 203.36 2205.58C230.008 2264.48 260.593 2324.76 295.351 2386.48M3031.69 1537.43C2810.94 1348.68 2556.13 1213.71 2240.56 1078.78C2213.82 1067.35 2187.05 1055.76 2160.52 1044.95C2072.77 1009.3 1984.2 978.028 1915.7 973.591C1716.41 960.358 1725.69 1132.49 1705.07 1254.44C1687.49 1358.35 1679.65 1470.98 1661.52 1582.76C1655.38 1620.63 1648.82 1658.32 1640.44 1695C1622.25 1774.54 1587.04 1854 1468.36 1845.46C1348.18 1836.81 1190.44 1745.92 1047.28 1670.14C880.458 1581.87 707.125 1502.92 546.064 1459.81C489.975 1444.81 435.495 1434.59 385.201 1430.09C291.133 1421.6 211.308 1432.96 162.918 1470.44C104.814 1515.46 94.6683 1593.67 93.9738 1672.77C92.1613 1832.85 127.821 2005.52 207.354 2194.95C231.081 2251.47 258.681 2309.44 290.486 2369.01M3023.15 1524.78C2810.89 1343.29 2567.39 1221.31 2248.5 1087.11C2222.1 1076 2195.63 1064.62 2169.43 1054.05C2082.6 1019.12 1995.07 988.341 1926.95 983.403C1728.46 968.654 1730.68 1131.96 1706.47 1250.79C1686.08 1350.92 1676.36 1460.99 1656.68 1571.37C1650.06 1608.52 1643.21 1645.61 1634.58 1681.72C1615.89 1760.04 1581.03 1838.42 1465.97 1832.24C1349.47 1825.97 1196.91 1740.68 1058.27 1669.84C896.721 1587.33 728.785 1513.7 572.267 1474.26C517.764 1460.55 464.759 1451.39 415.726 1447.7C324.023 1440.71 245.727 1452.59 197.346 1489.32C139.272 1533.44 126.866 1609.08 123.12 1685.07C115.041 1838.84 141.512 2002.76 211.246 2184.24C232.047 2238.39 256.667 2294.04 285.525 2351.45M3014.61 1512.14C2810.84 1337.92 2578.67 1228.9 2256.45 1095.47C2230.38 1084.67 2204.22 1073.51 2178.35 1063.17C2092.43 1028.96 2005.95 998.68 1938.21 993.252C1740.53 976.975 1735.74 1131.49 1707.92 1247.18C1684.74 1343.55 1673.12 1451.04 1651.9 1560.03C1644.81 1596.48 1637.64 1632.95 1628.79 1668.5C1609.58 1745.6 1575.08 1822.91 1463.65 1819.08C1350.83 1815.2 1203.43 1735.49 1069.34 1669.59C913.06 1592.85 750.516 1524.54 598.558 1488.78C545.63 1476.34 494.105 1468.25 446.329 1465.38C356.995 1459.87 280.234 1472.29 231.861 1508.27C173.807 1551.48 159.159 1624.56 152.349 1697.43C138.013 1844.92 155.284 2000.08 215.225 2173.61C233.105 2225.39 254.741 2278.73 280.645 2333.98M3006.07 1499.49C2810.79 1332.52 2589.94 1236.43 2264.41 1103.81C2238.67 1093.32 2212.82 1082.38 2187.26 1072.27C2102.27 1038.79 2016.85 1009.01 1949.48 1003.08C1752.61 985.287 1740.84 1131 1709.35 1243.55C1683.44 1336.17 1669.86 1441.08 1647.1 1548.65C1639.53 1584.38 1632.06 1620.26 1622.97 1655.25C1603.26 1731.13 1569.11 1807.36 1461.31 1805.9C1352.16 1804.4 1209.94 1730.28 1080.37 1669.32C929.369 1598.36 772.215 1535.36 624.806 1503.27C573.464 1492.12 523.414 1485.09 476.889 1483.02C389.937 1479.02 314.687 1491.95 266.335 1527.19C208.312 1569.5 191.409 1640 181.553 1709.78C160.95 1850.96 169.032 1997.37 219.175 2162.94C234.128 2212.35 252.773 2263.37 275.747 2316.49M2997.52 1486.84C2810.73 1327.14 2601.21 1243.92 2272.35 1112.15C2246.95 1101.98 2221.4 1091.26 2196.18 1081.38C2112.09 1048.61 2027.72 1019.34 1960.73 1012.9C1764.68 993.594 1745.96 1130.52 1710.78 1239.91C1682.19 1328.82 1666.64 1431.13 1642.3 1537.28C1634.27 1572.32 1626.49 1607.58 1617.16 1642.01C1596.94 1716.66 1563.14 1791.83 1458.98 1792.72C1353.49 1793.6 1216.46 1725.07 1091.41 1669.06C945.679 1603.86 793.923 1546.17 651.067 1517.77C601.312 1507.91 552.73 1501.95 507.461 1500.67C422.873 1498.16 349.159 1511.63 300.816 1546.11C242.812 1587.51 223.66 1655.45 210.752 1722.11C183.894 1857.01 182.776 1994.65 223.132 2152.28C235.165 2199.31 250.825 2248.02 270.851 2298.98M2988.99 1474.2C2810.69 1321.75 2612.5 1251.38 2280.3 1120.5C2255.23 1110.62 2229.99 1100.13 2205.08 1090.48C2121.91 1058.44 2038.59 1029.66 1971.98 1022.73C1776.74 1001.9 1751.13 1130.06 1712.19 1236.28C1680.96 1321.48 1663.39 1421.18 1637.46 1525.91C1628.97 1560.23 1620.88 1594.9 1611.32 1628.76C1590.59 1702.19 1557.15 1776.28 1456.6 1779.53C1354.79 1782.79 1222.94 1719.86 1102.42 1668.78C961.961 1609.35 815.596 1556.98 677.283 1532.25C629.103 1523.66 581.989 1518.77 537.989 1518.31C455.771 1517.29 383.579 1531.28 335.257 1565.02C277.278 1605.52 255.878 1670.88 239.912 1734.43C206.786 1863.03 196.469 1991.92 227.031 2141.59C236.144 2186.26 248.818 2232.65 265.891 2281.46M2980.44 1461.56C2810.63 1316.37 2623.75 1258.78 2288.25 1128.84C2263.51 1119.26 2238.58 1109.01 2214 1099.59C2131.73 1068.26 2049.46 1039.98 1983.23 1032.56C1788.81 1010.21 1756.36 1129.63 1713.62 1232.64C1679.81 1314.17 1660.17 1411.23 1632.67 1514.54C1623.72 1548.17 1615.31 1582.22 1605.52 1615.51C1584.27 1687.72 1551.2 1760.75 1454.28 1766.34C1356.14 1771.99 1229.47 1714.63 1113.48 1668.52C978.282 1614.84 837.326 1567.8 703.561 1546.74C656.968 1539.44 611.329 1535.61 568.59 1535.96C488.743 1536.43 418.074 1550.95 369.76 1583.94C311.812 1623.54 288.152 1686.33 269.146 1746.78C229.764 1869.09 210.247 1989.21 231.011 2130.93C237.197 2173.22 246.892 2217.31 261.018 2263.96M2971.9 1448.92C2810.58 1310.99 2635.01 1266.14 2296.21 1137.2C2271.81 1127.91 2247.16 1117.86 2222.92 1108.71C2141.54 1077.99 2060.37 1050.33 1994.5 1042.4C1800.88 1018.52 1761.64 1129.23 1715.08 1229.03C1678.73 1306.91 1656.99 1401.32 1627.88 1503.19C1618.48 1536.11 1609.74 1569.54 1599.7 1602.28C1577.96 1673.27 1545.23 1745.22 1451.93 1753.16C1357.47 1761.19 1235.98 1709.43 1124.52 1668.25C994.593 1620.35 859.035 1578.62 729.824 1561.24C684.817 1555.22 640.646 1552.46 599.164 1553.62C521.692 1555.59 452.547 1570.64 404.254 1602.87C346.326 1641.56 320.422 1701.79 298.359 1759.12C252.71 1875.13 224.004 1986.51 234.981 2120.27C238.246 2160.19 244.957 2201.97 256.14 2246.47M2963.36 1436.27C2810.53 1305.6 2646.24 1273.42 2304.16 1145.54C2280.08 1136.54 2255.76 1126.74 2231.84 1117.81C2151.36 1087.81 2071.24 1060.65 2005.75 1052.23C1812.94 1026.83 1766.98 1128.84 1716.49 1225.39C1677.66 1299.65 1653.78 1391.38 1623.07 1491.81C1613.22 1524.04 1604.16 1556.85 1593.88 1589.03C1571.62 1658.79 1539.25 1729.67 1449.58 1739.97C1358.79 1750.38 1242.48 1704.21 1135.55 1667.98C1010.9 1625.84 880.73 1589.43 756.061 1575.72C712.623 1570.98 669.945 1569.29 629.707 1571.25C554.605 1574.72 486.983 1590.29 438.699 1621.78C380.801 1659.56 352.644 1717.22 327.523 1771.44C275.617 1881.16 237.712 1983.77 238.884 2109.59C239.223 2147.13 242.954 2186.6 251.184 2228.95M2954.81 1423.62C2810.47 1300.21 2657.45 1280.66 2312.1 1153.88C2288.35 1145.16 2264.34 1135.61 2240.75 1126.92C2161.18 1097.63 2082.12 1070.98 2017.01 1062.06C1825.02 1035.15 1772.37 1128.49 1717.92 1221.77C1676.67 1292.44 1650.61 1381.47 1618.26 1480.45C1607.96 1511.97 1598.58 1544.18 1588.07 1575.79C1565.3 1644.33 1533.29 1714.14 1447.24 1726.8C1360.13 1739.59 1248.99 1699.01 1146.58 1667.71C1027.2 1631.34 902.423 1600.26 782.315 1590.22C740.463 1586.77 699.254 1586.14 660.273 1588.91C587.541 1593.87 521.442 1609.97 473.178 1640.71C415.311 1677.6 384.893 1732.68 356.726 1783.8C298.553 1887.22 251.459 1981.08 242.844 2098.95C240.263 2134.12 241.009 2171.27 246.292 2211.47M2946.27 1410.98C2810.43 1294.83 2668.66 1287.84 2320.05 1162.22C2296.63 1153.79 2272.94 1144.48 2249.67 1136.03C2171.02 1107.45 2093 1081.3 2028.26 1071.88C1837.09 1043.45 1777.84 1128.17 1719.34 1218.13C1675.71 1285.23 1647.42 1371.54 1613.45 1469.08C1602.71 1499.91 1592.99 1531.49 1582.25 1562.54C1558.97 1629.86 1527.31 1698.6 1444.89 1713.61C1361.45 1728.78 1255.49 1693.79 1157.61 1667.44C1043.5 1636.83 924.119 1611.06 808.559 1604.7C768.294 1602.54 728.559 1602.97 690.84 1606.55C620.472 1613 555.908 1629.64 507.665 1659.63C449.818 1695.6 417.157 1748.12 385.932 1796.13C321.503 1893.26 265.209 1978.36 246.796 2088.27C241.276 2121.06 239.043 2155.9 241.384 2193.95M2937.72 1398.33C2810.37 1289.44 2679.82 1294.94 2328 1170.57C2304.89 1162.41 2281.51 1153.36 2258.57 1145.14C2180.84 1117.29 2103.96 1091.76 2039.52 1081.72C1849.41 1052.13 1783.37 1127.91 1720.77 1214.51C1674.82 1278.1 1644.27 1361.65 1608.65 1457.71C1597.46 1487.86 1587.41 1518.82 1576.43 1549.31C1552.65 1615.4 1521.34 1683.06 1442.55 1700.43C1362.77 1717.99 1262 1688.58 1168.65 1667.17C1059.81 1642.34 945.827 1621.88 834.82 1619.2C796.13 1618.31 757.875 1619.82 721.413 1624.21C653.427 1632.16 590.374 1649.31 542.14 1678.55C484.317 1713.63 449.402 1763.57 415.126 1808.47C344.43 1899.3 278.947 1975.65 250.741 2077.61C242.3 2108.03 237.082 2140.56 236.481 2176.46M2929.19 1385.69C2810.33 1284.06 2690.97 1302 2335.96 1178.92C2313.18 1171.03 2290.13 1162.25 2267.51 1154.25C2190.69 1127.12 2114.86 1102.09 2050.8 1091.56C1861.5 1060.44 1788.98 1127.69 1722.24 1210.89C1674.03 1270.99 1641.17 1351.77 1603.88 1446.36C1592.28 1475.82 1581.87 1506.16 1570.66 1536.08C1546.36 1600.95 1515.41 1667.55 1440.25 1687.28C1364.15 1707.23 1268.56 1683.4 1179.73 1666.93C1076.16 1647.87 967.575 1632.73 861.112 1633.72C824.008 1634.12 787.221 1636.69 752.016 1641.88C686.399 1651.32 624.882 1669.01 576.656 1697.5C518.853 1731.67 481.706 1779.05 444.372 1820.84C367.42 1905.38 292.731 1972.97 254.733 2066.98C243.366 2095.02 235.175 2125.24 231.621 2158.98M2920.64 1373.05C2810.26 1278.67 2702.08 1308.98 2343.9 1187.27C2321.45 1179.65 2298.71 1171.12 2276.41 1163.37C2200.51 1136.96 2125.72 1112.42 2062.04 1101.39C1873.54 1068.76 1794.64 1127.51 1723.64 1207.26C1673.23 1263.9 1638.01 1341.88 1599.05 1434.99C1587.02 1463.76 1576.25 1493.46 1564.81 1522.83C1540.01 1586.48 1509.42 1652.01 1437.88 1674.08C1365.45 1696.41 1275.04 1678.18 1190.74 1666.65C1092.43 1653.34 989.236 1643.53 887.326 1648.2C851.809 1649.88 816.497 1653.52 782.542 1659.51C719.29 1670.45 659.296 1688.66 611.084 1716.4C553.313 1749.67 513.912 1794.48 473.52 1833.15C390.301 1911.39 306.411 1970.23 258.638 2056.29C244.35 2081.96 233.174 2109.87 226.666 2141.46M2912.1 1360.39C2810.21 1273.27 2713.13 1315.87 2351.84 1195.6C2329.7 1188.24 2307.3 1179.99 2285.32 1172.46C2210.33 1146.77 2136.6 1122.73 2073.3 1111.21C1885.61 1077.05 1800.38 1127.38 1725.08 1203.62C1672.5 1256.85 1634.91 1332 1594.26 1423.62C1581.8 1451.71 1570.68 1480.78 1559 1509.58C1533.68 1572 1503.45 1636.46 1435.53 1660.89C1366.77 1685.6 1281.54 1672.96 1201.77 1666.37C1108.74 1658.83 1010.94 1654.33 913.587 1662.68C879.645 1665.64 845.813 1670.36 813.126 1677.16C752.244 1689.59 693.773 1708.33 645.588 1735.32C587.847 1767.69 546.186 1809.93 502.742 1845.49C413.268 1917.44 320.178 1967.51 262.6 2045.62C245.392 2068.92 231.231 2094.51 221.77 2123.95M2903.56 1347.76C2810.16 1267.9 2724.17 1322.7 2359.8 1203.96C2337.98 1196.85 2315.89 1188.88 2294.24 1181.58C2220.17 1156.61 2147.48 1133.07 2084.56 1121.05C1897.67 1085.36 1806.21 1127.32 1726.5 1199.99C1671.82 1249.84 1631.81 1322.13 1589.44 1412.25C1576.56 1439.66 1565.1 1468.09 1553.17 1496.33C1527.35 1557.54 1497.47 1620.92 1433.19 1647.7C1368.1 1674.8 1288.05 1667.74 1212.8 1666.1C1125.04 1664.33 1032.63 1665.14 939.825 1677.17C907.47 1681.41 875.112 1687.19 843.676 1694.79C785.176 1708.72 728.228 1727.99 680.04 1754.22C622.319 1785.68 578.414 1825.36 531.925 1857.82C436.182 1923.46 333.904 1964.79 266.528 2034.94C246.393 2055.87 229.253 2079.15 216.845 2106.42M2895.01 1335.11C2810.1 1262.51 2735.15 1329.45 2367.74 1212.31C2346.23 1205.44 2324.47 1197.75 2303.16 1190.69C2230 1166.45 2158.29 1143.29 2095.81 1130.89C1909.51 1093.34 1812.11 1127.33 1727.93 1196.37C1671.19 1242.9 1628.72 1312.28 1584.64 1400.9C1571.35 1427.63 1559.53 1455.43 1547.37 1483.1C1521.03 1543.09 1491.51 1605.39 1430.85 1634.53C1369.44 1664.01 1294.57 1662.55 1223.85 1665.84C1141.36 1669.83 1054.34 1675.97 966.097 1691.68C935.328 1697.2 904.439 1704.05 874.26 1712.46C818.123 1727.88 762.705 1747.67 714.537 1773.16C656.84 1803.72 610.682 1840.83 561.134 1870.17C459.136 1929.53 347.658 1962.1 270.495 2024.3C247.44 2042.85 227.303 2063.81 211.963 2088.95M2886.48 1322.47C2810.06 1257.13 2746.1 1336.12 2375.71 1220.66C2354.51 1214.05 2333.08 1206.64 2312.08 1199.81C2239.85 1176.29 2169.18 1153.62 2107.08 1140.72C1921.58 1101.64 1818.11 1127.4 1729.38 1192.74C1670.65 1235.99 1625.68 1302.44 1579.85 1389.53C1566.14 1415.59 1553.96 1442.75 1541.56 1469.86C1514.72 1528.63 1485.54 1589.86 1428.51 1621.35C1370.77 1653.21 1301.09 1657.34 1234.89 1665.58C1157.67 1675.34 1076.05 1686.79 992.347 1706.17C963.147 1712.97 933.739 1720.88 904.822 1730.1C851.055 1747.01 797.154 1767.33 749.019 1792.08C691.353 1821.74 642.94 1856.27 590.334 1882.51C482.069 1935.57 361.403 1959.38 274.435 2013.62C248.453 2029.81 225.337 2048.46 207.051 2071.44M2877.93 1309.82C2810.01 1251.74 2756.96 1342.7 2383.65 1228.99C2362.75 1222.63 2341.65 1215.51 2320.99 1208.91C2249.67 1186.12 2180.05 1163.94 2118.33 1150.54C1933.65 1109.95 1824.17 1127.55 1730.8 1189.11C1670.11 1229.11 1622.61 1292.59 1575.03 1378.16C1560.91 1403.55 1548.36 1430.06 1535.74 1456.62C1508.38 1514.15 1479.57 1574.32 1426.16 1608.17C1372.1 1642.41 1307.58 1652.12 1245.91 1665.3C1173.97 1680.83 1097.74 1697.6 1018.6 1720.66C990.983 1728.75 963.044 1737.72 935.395 1747.76C883.992 1766.16 831.631 1787.01 783.493 1811C725.847 1839.75 675.191 1871.72 619.528 1894.84C505.007 1941.61 375.14 1956.66 278.386 2002.96C249.483 2016.77 223.382 2033.11 202.142 2053.93M2869.39 1297.17C2809.96 1246.35 2767.79 1349.18 2391.59 1237.34C2371 1231.21 2350.26 1224.42 2329.9 1218.02C2259.55 1196.05 2190.92 1174.27 2129.59 1160.38C1945.72 1118.27 1830.34 1127.79 1732.23 1185.48C1669.63 1222.29 1619.59 1282.78 1570.24 1366.79C1555.72 1391.52 1542.78 1417.38 1529.93 1443.38C1502.07 1499.7 1473.6 1558.78 1423.82 1594.99C1373.43 1631.61 1314.1 1646.91 1256.95 1665.04C1190.27 1686.32 1119.45 1708.42 1044.85 1735.15C1018.82 1744.53 992.348 1754.57 965.956 1765.4C916.935 1785.31 866.086 1806.68 817.968 1829.93C760.353 1857.77 707.437 1887.17 648.734 1907.19C527.945 1947.66 388.89 1953.96 282.337 1992.3C250.508 2003.74 221.428 2017.76 197.234 2036.43M2860.85 1284.53C2809.9 1240.97 2778.56 1355.59 2399.55 1245.69C2379.27 1239.81 2358.87 1233.31 2338.82 1227.12C2269.39 1205.88 2201.81 1184.6 2140.84 1170.2C1957.79 1126.57 1836.58 1128.11 1733.65 1181.84C1669.19 1215.5 1616.55 1272.96 1565.42 1355.42C1550.5 1379.48 1537.19 1404.7 1524.1 1430.12C1495.73 1485.21 1467.63 1543.24 1421.46 1581.79C1374.74 1620.79 1320.59 1641.69 1267.97 1664.75C1206.56 1691.81 1141.13 1719.22 1071.07 1749.62C1046.62 1760.27 1021.64 1771.39 996.493 1783.03C949.842 1804.42 900.522 1826.33 852.408 1848.82C794.823 1875.77 739.653 1902.58 677.892 1919.5C550.848 1953.67 402.592 1951.22 286.246 1981.61C251.497 1990.67 219.431 2002.39 192.302 2018.91M2852.31 1271.88C2809.85 1235.58 2789.26 1361.89 2407.5 1254.03C2387.52 1248.39 2367.46 1242.18 2347.73 1236.23C2279.21 1215.71 2212.69 1194.92 2152.1 1180.04C1969.86 1134.89 1842.91 1128.52 1735.09 1178.22C1668.79 1208.78 1613.55 1263.17 1560.62 1344.05C1545.31 1367.46 1531.62 1392.02 1518.28 1416.88C1489.41 1470.76 1461.65 1527.71 1419.13 1568.62C1376.07 1610 1327.11 1636.49 1279.02 1664.5C1222.88 1697.32 1162.85 1730.05 1097.34 1764.13C1074.48 1776.07 1050.96 1788.25 1027.08 1800.69C982.79 1823.58 934.999 1846.01 886.911 1867.75C829.346 1893.79 771.926 1918.05 707.114 1931.85C573.802 1959.73 416.347 1948.51 290.214 1970.95C252.544 1977.64 217.493 1987.05 187.411 2001.41M2843.77 1259.24C2809.81 1230.2 2799.89 1368.11 2415.46 1262.39C2395.78 1256.98 2376.04 1251.07 2356.65 1245.35C2289.05 1225.55 2223.58 1205.26 2163.36 1189.87C1981.93 1143.2 1849.32 1129.04 1736.53 1174.6C1668.44 1202.1 1610.58 1253.39 1555.84 1332.7C1540.14 1355.45 1526.06 1379.35 1512.49 1403.65C1483.1 1456.3 1455.71 1512.18 1416.8 1555.45C1377.43 1599.22 1333.63 1631.29 1290.07 1664.24C1239.21 1702.83 1184.56 1740.88 1123.61 1778.63C1102.33 1791.86 1080.29 1805.1 1057.64 1818.35C1015.73 1842.73 969.46 1865.69 921.38 1886.68C863.84 1911.82 804.172 1933.5 736.314 1944.2C596.746 1965.79 430.091 1945.81 294.16 1960.29C253.563 1964.61 215.533 1971.71 182.497 1983.92M2835.23 1246.59C2809.76 1224.81 2810.44 1374.21 2423.4 1270.72C2404 1265.54 2384.64 1259.93 2365.56 1254.45C2298.86 1235.37 2234.44 1215.58 2174.62 1199.69C1993.99 1151.5 1855.8 1129.64 1737.95 1170.95C1668.09 1195.45 1607.6 1243.61 1551.01 1321.32C1534.93 1343.41 1520.45 1366.65 1506.65 1390.39C1476.76 1441.82 1449.72 1496.63 1414.45 1542.25C1378.74 1588.4 1340.13 1626.06 1301.09 1663.95C1255.5 1708.31 1206.26 1751.68 1149.86 1793.11C1130.15 1807.61 1109.59 1821.92 1088.22 1835.99C1048.68 1861.87 1003.93 1885.35 955.867 1905.6C898.347 1929.83 836.436 1948.94 765.514 1956.53C619.69 1971.83 443.835 1943.09 298.111 1949.63C254.593 1951.58 213.567 1956.35 177.595 1966.41M2826.68 1233.95C2809.69 1219.43 2820.91 1380.21 2431.35 1279.07C2412.24 1274.1 2393.22 1268.81 2374.48 1263.55C2308.7 1245.2 2245.34 1225.91 2185.87 1209.52C2006.06 1159.81 1862.36 1130.34 1739.37 1167.32C1667.78 1188.85 1604.65 1233.86 1546.21 1309.95C1529.75 1331.4 1514.88 1353.97 1500.85 1377.15C1470.44 1427.36 1443.76 1481.09 1412.11 1529.07C1380.08 1577.6 1346.65 1620.85 1312.13 1663.69C1271.81 1713.81 1227.96 1762.49 1176.11 1807.6C1157.99 1823.38 1138.9 1838.76 1118.78 1853.63C1081.61 1881.01 1038.39 1905.02 990.348 1924.51C932.858 1947.84 868.687 1964.39 794.713 1968.86C642.622 1977.86 457.578 1940.37 302.056 1938.95C255.611 1938.53 211.606 1940.99 172.692 1948.9M2818.14 1221.31C2809.65 1214.05 2831.31 1386.11 2439.3 1287.42C2420.48 1282.69 2401.82 1277.7 2383.39 1272.68C2318.53 1255.03 2256.21 1236.25 2197.13 1219.37C2018.14 1168.14 1869 1131.17 1740.8 1163.71C1667.48 1182.32 1601.95 1224.3 1541.4 1298.59C1524.63 1319.44 1509.29 1341.3 1495.02 1363.92C1464.11 1412.9 1437.78 1465.56 1409.76 1515.89C1381.41 1566.82 1353.16 1615.65 1323.16 1663.43C1288.11 1719.32 1249.66 1773.32 1202.35 1822.1C1185.82 1839.18 1168.2 1855.62 1149.34 1871.29C1114.54 1900.16 1072.84 1924.69 1024.81 1943.44C967.351 1965.87 900.937 1979.85 823.905 1981.21C665.558 1983.92 471.314 1937.67 306.005 1928.31C256.64 1925.51 209.649 1925.66 167.789 1931.42M2809.6 1208.66C2809.6 1208.66 2841.62 1391.89 2447.25 1295.76C2052.88 1199.64 1756.23 1030.13 1536.61 1287.23C1384.85 1464.89 1353.01 1726.87 1179.91 1888.93C1108.69 1955.61 1000.15 1996.75 853.112 1993.54C688.497 1989.95 485.065 1934.95 309.951 1917.63C257.66 1912.46 207.696 1910.3 162.876 1913.9" stroke="#D06B81" stroke-width="0.197078" stroke-miterlimit="10"/>
</svg>
