<svg width="1440" height="1040" viewBox="0 0 1440 1040" fill="none" xmlns="http://www.w3.org/2000/svg">
<path d="M-912.238 1247.48C-895.798 1148.03 -802.918 1088.75 -713.278 1077.18C-623.638 1065.48 -532.318 1088.23 -441.718 1088.23C-198.958 1088.1 29.8817 907.143 109.322 652.473C134.762 570.833 145.922 483.863 170.762 401.963C195.602 320.063 237.722 240.373 306.122 201.373C404.522 145.343 527.762 188.503 627.002 251.163C726.242 313.823 819.242 396.763 929.282 425.493C1073.88 463.193 1224 398.323 1334.64 293.673C1445.16 189.023 1523.28 48.363 1599.6 -89.957" stroke="white" stroke-opacity="0.5" stroke-width="0.5" stroke-miterlimit="10"/>
<path d="M-917.641 1237.87C-899.641 1138.94 -807.001 1079.79 -717.241 1067.83C-678.481 1062.63 -639.241 1063.93 -600.001 1067.44C-548.521 1071.99 -496.921 1080.05 -445.681 1081.22C-341.161 1083.69 -239.281 1054.7 -149.761 998.407C-80.6406 954.987 -19.0806 897.657 29.9994 828.887C65.1594 780.007 93.1194 724.887 112.679 665.087C121.439 638.307 128.639 610.877 135.239 583.187C148.679 526.897 159.719 469.697 177.119 415.227C196.919 353.477 226.799 293.677 271.199 252.987C284.999 240.247 299.999 229.327 316.439 220.747C385.439 184.867 465.239 197.217 541.559 227.767C574.559 241.027 606.96 257.537 637.08 275.347C670.8 295.237 703.8 316.687 736.68 337.097C801.24 377.397 864.959 414.447 933.959 427.967C978.839 436.677 1023.12 434.467 1066.92 423.807C1155.96 402.227 1243.44 344.637 1316.4 271.187C1336.44 251.037 1355.52 229.847 1374 207.747C1456.08 109.597 1524.72 -3.89281 1592.4 -110.883" stroke="white" stroke-opacity="0.5" stroke-width="0.5" stroke-miterlimit="10"/>
<path d="M-923.039 1228.12C-903.359 1129.71 -811.079 1070.56 -721.199 1058.21C-682.319 1052.88 -643.079 1054.18 -603.719 1057.82C-552.239 1062.63 -500.639 1071.47 -449.519 1073.94C-345.239 1079.01 -243.479 1054.7 -153.119 1000.75C-83.279 959.148 -20.759 904.548 30.241 838.378C66.721 791.058 95.7611 736.848 116.161 677.438C125.281 650.918 132.721 623.488 139.681 595.798C153.721 539.638 165.361 482.308 183.481 428.358C204.121 366.998 235.081 308.628 280.921 269.888C295.081 257.928 310.201 247.658 326.761 239.858C396.121 207.228 474.841 222.568 551.041 253.248C584.161 266.508 616.801 282.498 647.281 299.138C681.361 317.728 714.721 337.228 747.481 355.168C811.801 390.788 873.841 422.118 938.881 429.918C981.001 434.988 1021.2 429.138 1061.64 415.618C1143.6 387.928 1226.76 325.138 1298.52 248.308C1318.2 227.248 1337.28 205.148 1355.88 182.528C1438.8 81.388 1512.6 -31.062 1585.44 -132.332" stroke="white" stroke-opacity="0.5" stroke-width="0.5" stroke-miterlimit="10"/>
<path d="M-928.438 1218.37C-907.077 1120.48 -815.157 1061.33 -725.157 1048.72C-686.277 1043.26 -646.797 1044.43 -607.437 1048.33C-555.837 1053.53 -504.477 1063.15 -453.357 1066.79C-349.197 1074.46 -247.797 1054.83 -156.477 1003.22C-85.9174 963.436 -22.3174 911.567 30.4826 847.997C68.4026 802.237 98.4026 748.936 119.643 689.786C129.123 663.396 136.923 636.227 144.243 608.407C158.883 552.377 171.123 494.917 189.963 441.357C211.443 380.387 243.363 323.447 290.763 286.657C305.283 275.477 320.523 265.857 337.083 258.967C406.683 229.587 484.443 248.047 560.523 278.727C593.763 292.117 626.523 307.457 657.363 322.927C691.803 340.217 725.403 357.767 758.163 373.367C822.243 404.047 882.723 429.917 943.683 431.997C983.163 433.297 1019.28 424.067 1056.12 407.557C1131 374.017 1209.84 305.637 1280.28 225.557C1299.6 203.457 1318.56 180.707 1337.28 157.437C1420.92 53.3065 1499.88 -58.1034 1578.12 -153.523" stroke="white" stroke-opacity="0.5" stroke-width="0.5" stroke-miterlimit="10"/>
<path d="M-933.84 1208.62C-910.8 1111.38 -819.24 1052.1 -729 1039.23C-690 1033.64 -650.52 1034.68 -611.04 1038.97C-559.44 1044.43 -508.08 1054.83 -457.08 1059.77C-353.16 1069.91 -251.88 1055.09 -159.84 1005.95C-88.4398 967.986 -23.7598 918.976 30.6002 857.876C70.0802 813.676 100.92 761.286 122.88 702.526C132.72 676.396 140.88 649.226 148.44 621.406C163.68 565.376 176.52 508.046 196.2 454.746C218.52 394.296 251.4 338.526 300.36 303.946C315.24 293.416 330.6 284.706 347.28 278.466C417.24 252.336 493.8 273.916 570 304.596C603.24 318.116 636.36 332.806 667.44 347.236C702.24 363.356 736.2 378.826 768.72 392.086C832.56 418.086 891.48 438.106 948.24 434.596C985.08 432.256 1017.12 419.386 1050.48 399.886C1118.4 360.366 1192.68 286.656 1262.04 203.326C1281.12 180.316 1299.96 156.656 1318.8 132.736C1403.16 25.7457 1487.28 -84.8842 1570.8 -174.324" stroke="white" stroke-opacity="0.5" stroke-width="0.5" stroke-miterlimit="10"/>
<path d="M-939.238 1198.87C-914.518 1102.15 -823.318 1042.87 -732.958 1029.74C-693.958 1024.02 -654.358 1025.06 -614.758 1029.48C-563.158 1035.2 -511.798 1046.38 -460.918 1052.62C-357.238 1065.36 -256.198 1055.09 -163.198 1008.42C-91.0782 972.276 -25.3183 926.126 30.8417 867.626C71.7617 824.986 103.562 773.376 126.362 715.006C136.562 689.006 145.082 661.966 152.882 634.276C168.722 578.376 182.162 520.916 202.562 468.136C225.722 408.076 259.562 353.736 310.082 321.106C325.202 311.356 340.802 303.296 357.482 297.836C427.682 275.086 503.282 299.526 579.362 330.466C612.722 343.986 646.082 358.156 677.522 371.416C712.682 386.236 746.882 399.756 779.402 410.546C843.002 431.736 900.602 446.166 953.042 436.936C987.362 430.956 1015.08 414.446 1045.08 392.086C1106.04 346.456 1175.88 267.546 1244.04 180.836C1262.76 156.916 1281.6 132.476 1300.56 107.906C1385.64 -2.0739 1475.04 -111.664 1563.84 -195.254" stroke="white" stroke-opacity="0.5" stroke-width="0.5" stroke-miterlimit="10"/>
<path d="M-944.762 1189.25C-918.362 1093.05 -827.522 1033.9 -737.042 1020.38C-697.922 1014.53 -658.202 1015.44 -618.602 1020.12C-566.882 1026.23 -515.762 1038.19 -464.882 1045.6C-361.322 1060.81 -260.522 1055.35 -166.682 1011.02C-93.8417 976.826 -26.8816 933.406 30.9584 877.376C73.4384 836.296 106.078 785.596 129.718 727.616C140.158 701.746 149.038 674.836 157.318 647.146C173.758 591.376 187.918 533.786 208.918 481.396C232.918 421.856 267.718 368.686 319.798 338.136C335.278 329.036 350.998 321.756 367.798 317.076C438.238 297.576 512.758 325.136 588.838 356.076C622.318 369.726 655.918 383.246 687.598 395.336C723.118 408.856 757.558 420.426 790.078 428.876C853.438 445.386 909.838 453.836 957.838 439.146C989.758 429.396 1013.16 409.376 1039.56 384.026C1093.44 332.416 1158.96 248.046 1225.92 158.086C1244.28 133.126 1263.12 107.906 1282.2 82.8158C1368.12 -30.1542 1462.56 -138.704 1556.64 -216.574" stroke="white" stroke-opacity="0.5" stroke-width="0.5" stroke-miterlimit="10"/>
<path d="M-950.16 1179.49C-922.08 1083.94 -831.6 1024.66 -741 1010.75C-701.88 1004.77 -662.04 1005.68 -622.32 1010.62C-570.6 1016.99 -519.48 1029.73 -468.72 1038.44C-365.4 1056.25 -264.72 1055.47 -170.04 1013.48C-96.48 981.114 -28.32 940.555 31.2 886.995C75.12 847.475 108.72 797.684 133.2 740.094C144 714.484 153.24 687.574 161.76 659.884C178.8 604.114 193.56 546.524 215.28 494.524C240.12 435.374 275.88 383.504 329.52 355.164C345.24 346.844 361.2 340.214 378 336.314C448.8 320.064 522.24 350.744 598.2 381.684C631.68 395.334 665.64 408.334 697.56 419.254C733.32 431.474 768.24 441.094 800.64 447.074C863.76 458.774 918.96 461.244 962.4 441.224C992.04 427.574 1010.88 404.174 1033.92 375.964C1080.84 318.244 1141.92 228.674 1207.68 135.334C1225.8 109.464 1244.4 83.4644 1263.72 57.7244C1350.36 -58.2356 1450.08 -165.876 1549.44 -237.766" stroke="white" stroke-opacity="0.5" stroke-width="0.5" stroke-miterlimit="10"/>
<path d="M-955.562 1169.74C-925.802 1074.71 -835.682 1015.43 -744.842 1001.26C-705.602 995.151 -665.642 995.931 -625.922 1001.13C-574.202 1007.89 -523.082 1021.41 -472.562 1031.29C-369.482 1051.7 -269.042 1055.6 -173.402 1016.08C-99.1223 985.531 -29.8824 947.831 31.4376 896.741C76.9176 858.781 111.358 809.901 136.678 752.571C147.838 727.091 157.438 700.311 166.318 672.621C183.958 616.981 199.318 559.261 221.758 507.651C247.438 448.891 284.038 398.321 339.358 372.061C355.438 364.391 371.518 358.541 388.438 355.551C459.478 342.551 531.838 376.221 607.798 407.291C641.398 421.071 675.598 433.421 707.878 443.301C743.998 454.351 779.158 461.891 811.558 465.531C874.438 472.551 928.678 468.781 967.438 443.561C994.798 425.881 1009.2 399.231 1028.64 368.161C1068.48 304.331 1125.24 209.561 1189.68 112.841C1207.44 86.0608 1226.04 59.1508 1245.48 32.8908C1332.84 -86.0592 1437.72 -192.659 1542.36 -258.699" stroke="white" stroke-opacity="0.5" stroke-width="0.5" stroke-miterlimit="10"/>
<path d="M-960.961 1160C-929.521 1065.49 -839.761 1006.21 -748.801 991.777C-709.561 985.537 -669.481 986.187 -629.641 991.647C-577.921 998.667 -526.921 1012.97 -476.401 1024.28C-373.441 1047.16 -273.241 1055.87 -176.761 1018.69C-101.761 989.957 -31.3209 955.117 31.6791 906.627C78.7191 870.357 113.999 822.257 140.159 765.317C151.679 740.097 161.519 713.317 170.759 685.627C189.119 630.117 204.959 572.267 228.119 521.177C254.639 462.937 292.199 413.537 349.079 389.487C365.399 382.597 381.719 377.527 398.639 375.187C469.919 365.437 541.319 402.227 617.159 433.297C650.879 447.077 685.199 458.907 717.839 467.617C754.319 477.367 789.719 482.957 821.999 484.127C884.639 486.337 937.679 476.067 971.999 446.037C996.959 424.197 1006.92 394.427 1023 360.367C1055.88 290.427 1108.08 190.327 1171.44 90.3572C1188.96 62.6672 1207.44 34.9772 1227 7.93719C1315.08 -114.003 1425.24 -219.563 1535.16 -279.883" stroke="white" stroke-opacity="0.5" stroke-width="0.5" stroke-miterlimit="10"/>
<path d="M-966.363 1150.25C-933.363 1056.26 -843.843 997.106 -752.763 982.286C-713.403 975.916 -673.323 976.566 -633.483 982.156C-581.643 989.566 -530.763 1004.52 -480.363 1017.13C-377.643 1042.61 -277.683 1055.87 -180.243 1021.16C-104.403 994.246 -32.7632 962.396 31.7968 916.246C80.3968 881.536 116.517 834.346 143.517 777.666C155.397 752.576 165.597 725.926 175.077 698.236C194.037 642.726 210.477 584.876 234.357 534.176C261.717 476.326 300.117 428.096 358.677 406.256C375.357 400.016 391.797 395.726 408.837 394.166C480.477 387.796 550.677 427.446 626.517 458.776C660.237 472.686 694.917 483.866 727.797 491.406C764.637 499.856 800.277 503.626 832.557 502.326C894.837 499.856 946.797 482.696 976.557 448.116C999.237 421.856 1004.76 389.226 1017.24 352.306C1043.04 276.256 1090.92 170.956 1153.08 67.6058C1170.24 38.8758 1188.6 10.5358 1208.4 -17.1542C1297.32 -142.084 1412.52 -246.604 1527.84 -301.074" stroke="white" stroke-opacity="0.5" stroke-width="0.5" stroke-miterlimit="10"/>
<path d="M-971.762 1140.62C-937.082 1047.28 -847.922 988.004 -756.722 972.924C-717.362 966.424 -677.042 966.944 -637.202 972.924C-585.362 980.594 -534.482 996.454 -484.202 1010.23C-381.602 1038.31 -281.882 1056.25 -183.602 1023.88C-107.042 998.924 -34.2016 969.804 32.0384 926.124C82.0784 893.104 119.158 846.694 146.998 790.404C159.238 765.574 169.798 738.924 179.638 711.234C199.198 655.854 216.238 598.004 240.958 547.564C269.158 490.234 308.398 443.174 368.758 423.414C385.678 417.824 402.359 414.314 419.519 413.534C491.399 410.414 560.638 453.184 636.358 484.514C670.198 498.554 705.118 509.084 738.358 515.584C775.558 522.734 811.559 524.554 843.719 520.914C905.759 513.764 956.279 489.714 981.839 450.714C1001.88 420.034 1003.2 384.544 1012.32 344.634C1031.04 262.474 1074.6 151.974 1135.56 45.3739C1152.36 15.7339 1170.72 -13.5161 1190.52 -41.7261C1280.16 -169.516 1400.52 -273.256 1521.12 -321.746" stroke="white" stroke-opacity="0.5" stroke-width="0.5" stroke-miterlimit="10"/>
<path d="M-977.16 1130.88C-940.8 1038.06 -852 978.775 -760.56 963.305C-721.08 956.675 -680.76 957.065 -640.8 963.305C-588.96 971.235 -538.2 987.875 -487.92 1002.96C-385.56 1033.51 -285.96 1056.26 -186.96 1026.36C-109.68 1003.22 -35.6401 977.085 32.1599 935.745C83.7599 904.285 121.68 858.785 150.36 802.885C162.96 778.185 173.88 751.665 183.96 723.975C204.12 668.725 221.76 610.745 247.2 560.825C276.12 503.885 316.32 457.995 378.36 440.575C395.64 435.765 412.44 432.905 429.6 432.905C501.72 433.035 569.88 478.925 645.6 510.255C679.56 524.295 714.72 534.305 748.2 539.635C785.76 545.615 822 545.355 854.16 539.245C915.96 527.415 964.92 496.345 986.4 452.925C1003.8 417.695 1000.92 379.475 1006.56 336.705C1018.2 248.435 1057.44 132.605 1117.2 22.7553C1133.76 -7.79468 1152 -37.8247 1171.92 -66.6847C1262.28 -197.465 1387.92 -300.165 1513.8 -342.805" stroke="white" stroke-opacity="0.5" stroke-width="0.5" stroke-miterlimit="10"/>
<path d="M-982.676 1121.13C-944.636 1028.83 -856.316 969.549 -764.636 953.819C-725.156 947.059 -684.596 947.449 -644.636 953.819C-592.676 962.139 -542.036 979.429 -491.876 995.809C-389.756 1028.96 -290.396 1056.39 -190.436 1028.83C-112.436 1007.51 -37.1958 984.239 32.2842 945.499C85.4442 915.729 124.204 871.009 153.724 815.369C166.684 790.799 177.844 764.409 188.404 736.719C209.164 681.469 227.404 623.489 253.564 573.959C283.324 517.539 324.364 472.689 388.084 457.479C405.604 453.319 422.644 451.369 439.924 452.149C512.404 455.529 579.484 504.409 655.204 535.869C689.164 550.039 724.684 559.399 758.404 563.559C796.324 568.239 832.804 566.159 864.964 557.579C926.404 541.069 973.684 503.109 991.324 455.139C1005.84 415.489 999.004 374.409 1001.28 328.649C1005.84 234.269 1040.64 113.239 1099.2 0.00890083C1115.4 -31.5811 1133.64 -62.3911 1153.68 -91.7711C1244.88 -225.541 1375.56 -327.201 1506.72 -364.121" stroke="white" stroke-opacity="0.5" stroke-width="0.5" stroke-miterlimit="10"/>
<path d="M-988.078 1111.37C-948.358 1019.72 -860.398 960.314 -768.598 944.324C-728.998 937.434 -688.438 937.694 -648.358 944.454C-596.398 953.034 -545.878 971.234 -495.838 988.784C-393.838 1024.53 -294.718 1056.64 -193.918 1031.42C-115.198 1011.92 -38.638 991.644 32.402 955.244C87.1221 927.164 126.722 883.224 157.082 827.974C170.402 803.664 181.922 777.274 192.722 749.714C214.082 694.594 232.922 636.484 259.802 587.344C290.402 531.314 332.282 487.634 397.682 474.634C415.562 471.124 432.722 469.954 450.002 471.514C522.722 478.144 588.722 530.144 664.442 561.604C698.522 575.774 734.162 584.614 768.362 587.604C806.522 590.984 843.362 586.954 875.402 575.904C936.602 554.844 981.962 509.864 995.762 457.344C1007.4 413.274 996.722 369.334 995.402 320.714C992.882 220.354 1023.36 93.9936 1080.72 -22.6164C1096.68 -55.1164 1114.68 -86.7064 1134.96 -116.866C1226.88 -253.626 1362.84 -354.376 1499.28 -385.316" stroke="white" stroke-opacity="0.5" stroke-width="0.5" stroke-miterlimit="10"/>
<path d="M-993.48 1101.63C-952.08 1010.5 -864.48 951.22 -772.56 934.84C-732.96 927.82 -692.16 928.079 -652.08 934.969C-600.12 943.939 -549.6 962.79 -499.68 981.64C-397.92 1019.86 -299.04 1056.65 -197.28 1034.03C-117.84 1016.48 -40.0804 999.06 32.6396 965C89.0397 938.61 129.48 895.449 160.56 840.459C174.24 816.279 186.12 790.149 197.16 762.459C219.12 707.469 238.68 649.229 266.16 600.609C297.6 544.969 340.44 502.329 407.4 491.799C425.52 488.939 443.04 488.549 460.32 490.889C533.4 500.769 598.32 555.89 673.92 587.48C708.12 601.78 744 609.969 778.44 611.919C816.96 613.999 854.16 608.15 886.08 594.63C947.04 568.89 990.36 517.149 1000.56 459.949C1009.2 411.459 994.68 364.66 990 313.18C980.28 206.71 1006.56 75.0195 1062.72 -44.8405C1078.32 -78.2505 1096.32 -110.75 1116.72 -141.43C1209.36 -281.18 1350.48 -380.89 1492.2 -405.98" stroke="white" stroke-opacity="0.5" stroke-width="0.5" stroke-miterlimit="10"/>
<path d="M-998.879 1092.01C-955.799 1001.4 -868.559 942.116 -776.399 925.476C-736.679 918.326 -695.879 918.456 -655.679 925.606C-603.599 934.836 -553.199 954.596 -503.399 974.616C-401.879 1015.44 -303.119 1056.91 -200.519 1036.63C-120.239 1020.9 -41.3987 1006.47 33.0013 974.746C90.9613 950.046 132.241 907.536 164.161 853.066C178.201 829.146 190.441 803.016 201.841 775.326C224.401 720.336 244.561 662.096 272.761 613.866C305.041 558.746 348.721 517.016 417.361 508.826C435.721 506.616 453.481 507.006 470.761 510.126C544.081 523.386 607.921 581.366 683.521 613.086C717.841 627.386 753.961 635.056 788.641 635.836C827.521 636.746 864.961 628.816 896.881 612.826C957.601 582.406 998.881 524.036 1005.48 462.026C1011 409.376 992.641 359.456 984.601 304.986C967.561 192.406 989.761 55.5164 1044.72 -67.7236C1059.96 -102.044 1077.96 -135.324 1098.48 -166.654C1191.72 -309.394 1338 -408.194 1485.12 -427.434" stroke="white" stroke-opacity="0.5" stroke-width="0.5" stroke-miterlimit="10"/>
<path d="M-1004.28 1082.25C-959.517 992.164 -872.637 932.884 -780.357 915.854C-740.637 908.574 -699.717 908.574 -659.397 915.984C-607.317 925.604 -557.037 946.014 -507.237 967.334C-405.837 1010.75 -307.437 1056.9 -203.877 1038.96C-122.877 1025.05 -42.7173 1013.74 33.2427 984.234C92.7627 961.224 134.883 919.494 167.643 865.414C181.923 841.624 194.523 815.624 206.283 787.934C229.563 733.074 250.203 674.834 279.123 626.864C312.243 572.134 356.763 531.574 427.083 525.594C445.803 524.034 463.683 525.334 481.083 529.104C554.643 545.614 617.523 606.714 693.003 638.434C727.323 652.864 763.803 659.884 798.723 659.494C837.963 659.104 875.643 649.354 907.563 630.894C968.043 595.794 1007.28 530.794 1010.16 463.974C1012.56 407.034 990.483 354.124 979.083 296.794C955.083 178.234 972.723 36.0139 1026.6 -90.6061C1041.6 -125.966 1059.36 -160.026 1080.12 -191.876C1174.08 -337.346 1325.52 -435.106 1477.92 -448.496" stroke="white" stroke-opacity="0.5" stroke-width="0.5" stroke-miterlimit="10"/>
<path d="M-1009.68 1072.51C-963.236 983.065 -876.716 923.655 -784.316 906.365C-744.476 898.955 -703.436 898.955 -663.116 906.625C-611.036 916.505 -560.756 937.695 -511.076 960.315C-409.916 1006.21 -311.636 1057.17 -207.236 1041.57C-125.516 1029.48 -44.1558 1021.16 33.4842 994.115C94.5642 972.795 137.524 931.845 171.124 878.025C185.764 854.495 198.724 828.495 210.844 800.805C234.724 746.075 255.964 687.705 285.724 640.255C319.684 586.045 365.044 546.265 437.044 542.885C456.004 541.975 474.124 544.055 491.524 548.735C565.444 568.495 627.124 632.715 702.604 664.435C737.044 678.995 773.764 685.365 809.044 683.805C848.644 682.115 886.684 670.545 918.484 649.615C978.724 609.965 1015.92 538.335 1015.2 466.575C1014.6 405.475 988.804 349.445 973.804 289.125C942.724 164.455 956.044 16.9053 1008.6 -112.835C1023.24 -149.105 1041 -183.945 1061.88 -216.575C1156.8 -365.165 1313.4 -462.015 1471.08 -469.555" stroke="white" stroke-opacity="0.5" stroke-width="0.5" stroke-miterlimit="10"/>
<path d="M-1015.08 1062.75C-967.078 973.834 -880.798 914.554 -788.278 896.874C-748.438 889.334 -707.278 889.204 -666.838 897.134C-614.758 907.274 -564.478 929.374 -514.918 953.164C-413.998 1001.65 -315.838 1057.29 -210.718 1044.16C-128.278 1033.89 -45.7181 1028.56 33.6019 1003.86C96.2419 984.234 140.042 944.064 174.362 890.634C189.362 867.234 202.682 841.364 215.042 813.674C239.522 758.944 261.362 700.574 291.842 653.514C326.642 599.694 372.962 560.954 446.522 559.914C465.842 559.654 484.082 562.514 501.602 567.974C575.762 590.984 636.482 658.194 711.842 690.044C746.402 704.604 783.362 710.454 818.882 707.854C858.842 704.864 897.242 691.474 928.802 667.944C988.922 623.744 1023.96 545.614 1019.64 468.784C1015.92 403.654 986.402 344.374 968.042 281.194C929.882 150.414 938.882 -2.33613 990.242 -135.456C1004.52 -172.636 1022.28 -208.256 1043.16 -241.536C1138.8 -393.116 1300.68 -488.926 1463.64 -490.746" stroke="white" stroke-opacity="0.5" stroke-width="0.5" stroke-miterlimit="10"/>
<path d="M-1020.6 1053.14C-970.922 964.738 -885.002 905.458 -792.242 887.518C-752.282 879.848 -711.002 879.588 -670.561 887.778C-618.361 898.308 -568.321 921.058 -518.881 946.148C-418.081 997.238 -320.281 1057.43 -214.201 1046.77C-131.041 1038.45 -47.1614 1036.24 33.5986 1013.62C97.7986 995.938 142.439 956.288 177.599 903.118C192.959 879.848 206.519 854.108 219.239 826.418C244.319 771.818 266.759 713.318 297.959 666.648C333.599 613.218 380.759 575.518 455.999 576.818C475.559 577.208 494.039 580.848 511.559 587.088C585.959 613.348 645.599 683.678 720.959 715.658C755.519 730.348 792.719 735.548 828.599 731.778C868.919 727.618 907.559 712.148 939.119 686.278C998.999 637.398 1032 552.898 1023.96 470.998C1017.12 401.708 983.879 339.438 962.039 273.268C916.799 136.508 921.479 -21.5722 971.639 -158.072C985.679 -196.162 1003.2 -232.692 1024.32 -266.492C1120.68 -421.062 1287.72 -515.832 1455.96 -511.802" stroke="white" stroke-opacity="0.5" stroke-width="0.5" stroke-miterlimit="10"/>
<path d="M-1026 1043.39C-952.44 917.675 -809.04 850.335 -674.28 878.285C-515.64 911.175 -376.92 1061.59 -217.56 1049.24C-133.68 1042.74 -48.5999 1043.52 33.8401 1023.24C128.28 1000.1 180.96 930.156 223.8 839.155C278.88 722.285 321.84 586.825 465.84 593.845C570 598.915 637.56 701.746 730.56 741.266C804.24 772.596 890.4 758.165 950.04 704.605C1009.68 651.045 1040.76 560.175 1029 473.205C1019.16 399.885 982.2 334.365 956.88 265.205C889.92 82.4254 909.12 -134.025 1006.32 -291.585C1103.52 -449.145 1275.6 -543.005 1449.24 -532.995" stroke="white" stroke-opacity="0.5" stroke-width="0.5" stroke-miterlimit="10"/>
<path d="M-1017.48 1061.32C-942.84 945.491 -800.28 882.831 -666.48 908.441C-599.52 921.181 -536.04 953.551 -473.4 984.881C-409.2 1017.12 -345.96 1048.45 -279.96 1057.55C-258.72 1060.54 -237.12 1061.19 -215.28 1058.72C-133.08 1049.49 -50.1604 1047.28 31.9196 1026.35C124.92 1002.69 178.68 935.611 222.96 849.681C233.16 829.921 243 809.771 253.08 789.881C282.6 731.381 314.04 676.001 363.84 645.191C391.68 628.031 425.16 618.281 466.8 619.841C569.64 623.611 636.84 717.601 726.96 751.401C738.96 755.821 751.2 759.071 763.56 761.151C825.12 771.291 890.28 752.051 937.8 706.811C994.92 652.471 1024.44 562.511 1013.76 476.451C1004.76 403.521 970.08 337.611 946.8 268.451C906.6 149.111 902.04 16.1209 930.96 -104.779C946.56 -169.389 971.64 -230.359 1005.96 -284.179C1068.48 -382.459 1160.52 -455.129 1263.84 -493.479C1323.24 -515.579 1386.36 -525.979 1449.6 -522.989" stroke="white" stroke-opacity="0.5" stroke-width="0.5" stroke-miterlimit="10"/>
<path d="M-1008.96 1079.4C-933.241 973.32 -791.521 915.47 -658.681 938.87C-591.961 950.57 -528.721 979.95 -466.681 1007.77C-403.081 1036.37 -341.161 1063.54 -276.241 1069.78C-255.361 1071.86 -234.241 1071.6 -212.881 1068.48C-132.481 1056.65 -51.4809 1051.45 30.1191 1029.61C121.799 1005.43 176.399 940.95 222.239 860.22C232.799 841.63 243.119 822.78 253.439 804.19C283.919 749.59 315.719 698.37 365.519 670.03C393.479 654.17 426.719 644.94 467.639 645.98C569.159 648.45 636.119 733.73 723.359 761.81C734.999 765.45 746.759 768.05 758.759 769.48C818.039 776.37 880.319 755.18 925.679 709.42C980.159 654.3 1008.36 565.25 998.519 479.97C990.239 407.43 958.079 341.26 936.839 271.97C900.119 152.63 898.079 20.1598 928.559 -99.3102C945.119 -163.4 971.039 -223.59 1005.84 -276.5C1069.32 -373.09 1161.48 -444.2 1264.92 -482.42C1324.2 -504.39 1387.08 -515.05 1450.2 -512.71" stroke="white" stroke-opacity="0.5" stroke-width="0.5" stroke-miterlimit="10"/>
<path d="M-1000.56 1097.46C-923.762 1001.26 -782.882 947.963 -650.882 969.153C-584.522 979.683 -521.522 1006.2 -460.082 1030.64C-397.082 1055.6 -336.362 1078.74 -272.762 1081.99C-252.242 1083.03 -231.722 1081.99 -210.722 1078.22C-132.002 1063.66 -53.1624 1055.34 27.9576 1032.85C118.198 1007.89 173.878 946.403 221.038 870.743C231.958 853.323 242.638 835.773 253.318 818.483C284.758 767.913 317.038 720.723 366.718 694.853C394.798 680.163 427.918 671.583 468.118 672.103C568.318 673.143 634.918 749.973 719.278 772.073C730.438 775.063 741.958 776.753 753.358 777.533C810.358 781.303 869.638 758.163 912.838 711.623C964.798 655.723 991.558 567.583 982.678 483.083C975.238 410.803 945.358 344.503 926.158 275.083C892.918 155.613 893.038 23.9232 925.318 -94.1168C942.718 -157.817 969.598 -217.097 1004.88 -269.097C1069.32 -364.127 1161.6 -433.547 1265.28 -471.767C1324.44 -493.607 1387.2 -504.397 1450.08 -502.707" stroke="white" stroke-opacity="0.5" stroke-width="0.5" stroke-miterlimit="10"/>
<path d="M-992.039 1115.54C-914.159 1029.22 -774.119 980.596 -643.079 999.446C-576.959 1008.81 -514.319 1032.6 -453.479 1053.4C-391.199 1074.85 -331.559 1093.7 -269.159 1093.96C-249.119 1094.09 -228.959 1092.27 -208.439 1087.72C-131.519 1070.69 -54.599 1059.12 26.041 1035.98C114.841 1010.5 171.601 951.736 220.201 881.146C231.481 864.896 242.521 848.645 253.561 832.785C285.961 786.115 318.721 743.085 368.281 719.555C396.481 706.165 429.481 698.365 468.961 698.105C567.841 697.585 634.201 765.835 715.561 782.215C726.361 784.425 737.401 785.465 748.441 785.595C803.161 786.115 859.561 761.025 900.601 713.965C949.921 657.285 975.121 570.055 967.321 486.465C960.601 414.575 933.241 347.885 916.081 278.335C886.321 158.865 888.841 27.6955 922.681 -88.7845C941.041 -152.095 968.641 -210.465 1004.52 -261.685C1069.92 -355.025 1162.44 -422.885 1266.12 -460.975C1325.16 -482.685 1387.68 -493.735 1450.44 -492.695" stroke="white" stroke-opacity="0.5" stroke-width="0.5" stroke-miterlimit="10"/>
<path d="M-983.52 1133.61C-904.44 1057.04 -765.479 1013.23 -635.279 1029.74C-569.519 1037.93 -506.999 1058.86 -446.759 1076.15C-385.079 1093.96 -326.759 1108.78 -265.439 1106.05C-245.759 1105.27 -226.079 1102.54 -206.159 1097.34C-130.919 1077.71 -56.1594 1063.02 24.0007 1039.1C111.361 1012.97 169.201 956.938 219.241 891.548C230.881 876.338 242.401 861.518 253.681 846.958C286.921 804.188 320.161 765.448 369.841 744.258C398.161 732.168 430.921 724.628 469.801 724.108C567.361 722.808 633.361 781.828 711.841 792.488C722.281 793.918 732.841 794.178 743.401 793.658C795.841 790.928 849.361 764.018 888.241 716.308C935.041 658.718 958.801 572.528 951.961 489.718C946.081 418.218 921.001 351.268 906.001 281.588C879.841 162.118 884.641 31.5984 920.041 -83.5816C939.361 -146.502 967.801 -203.962 1004.16 -254.272C1070.4 -345.922 1163.16 -412.092 1267.08 -450.182C1326.12 -471.762 1388.28 -483.072 1450.8 -482.682" stroke="white" stroke-opacity="0.5" stroke-width="0.5" stroke-miterlimit="10"/>
<path d="M-975.121 1151.55C-894.961 1084.86 -756.841 1045.6 -627.481 1060.03C-561.961 1067.05 -499.801 1085.12 -440.161 1099.03C-379.081 1113.33 -321.961 1123.86 -261.961 1118.27C-242.641 1116.45 -223.441 1113.07 -204.001 1107.09C-130.561 1084.73 -57.721 1067.05 21.959 1042.35C107.879 1015.7 166.799 962.399 218.279 902.079C230.279 888.039 242.159 874.519 253.799 861.259C287.999 822.519 321.719 787.809 371.279 769.089C399.839 758.299 432.359 751.279 470.519 750.239C566.759 747.639 632.519 797.949 707.999 802.759C718.079 803.409 728.159 803.019 738.239 801.849C788.399 795.869 839.039 767.139 875.759 718.779C919.919 660.409 942.239 575.259 936.359 493.099C931.199 421.989 908.519 354.649 895.559 284.969C872.879 165.499 880.079 35.6288 917.039 -78.1213C937.319 -140.521 966.599 -197.201 1003.56 -246.601C1070.76 -336.691 1163.64 -401.171 1267.68 -439.131C1326.6 -460.711 1388.64 -472.151 1450.92 -472.281" stroke="white" stroke-opacity="0.5" stroke-width="0.5" stroke-miterlimit="10"/>
<path d="M-966.602 1169.62C-885.362 1112.68 -748.082 1078.23 -619.682 1090.32C-554.522 1096.17 -492.482 1111.38 -433.562 1121.78C-373.082 1132.44 -317.282 1138.81 -258.362 1130.36C-239.522 1127.63 -220.682 1123.34 -201.722 1116.84C-129.962 1091.88 -59.2816 1071.08 19.9184 1045.6C104.518 1018.43 164.398 967.855 217.318 912.735C229.678 899.865 241.918 887.515 253.918 875.685C288.958 840.845 323.278 810.425 372.718 794.045C401.398 784.555 433.798 778.055 471.118 776.495C566.038 772.595 631.558 814.195 704.038 813.155C713.758 813.025 723.479 811.855 733.079 810.035C780.839 800.805 828.719 770.125 863.279 721.245C904.919 662.095 925.799 577.855 920.879 496.605C916.559 425.885 896.398 358.285 885.358 288.475C866.398 168.875 875.879 39.6555 914.279 -72.5345C935.519 -134.545 965.519 -190.315 1003.08 -238.935C1071.24 -327.335 1164.36 -390.255 1268.52 -428.215C1327.32 -449.665 1389.12 -461.235 1451.28 -462.145" stroke="white" stroke-opacity="0.5" stroke-width="0.5" stroke-miterlimit="10"/>
<path d="M-958.078 1187.69C-875.758 1140.63 -739.318 1111.12 -611.878 1120.61C-546.958 1125.42 -485.278 1137.77 -426.838 1144.53C-367.078 1151.55 -312.358 1153.76 -254.638 1142.45C-236.158 1138.81 -217.798 1133.74 -199.318 1126.46C-129.238 1098.9 -60.598 1075.11 18.122 1048.85C101.282 1021.16 162.362 973.317 216.482 923.267C229.202 911.567 241.802 900.517 254.162 889.987C290.042 859.177 324.962 832.787 374.282 818.747C403.082 810.557 435.242 804.447 471.962 802.497C565.562 797.297 630.842 830.187 700.322 823.427C709.562 822.517 718.922 820.697 728.042 818.227C773.522 805.747 818.402 773.247 850.922 723.587C889.922 663.657 909.482 580.327 905.402 499.857C901.802 429.397 884.042 361.667 875.042 291.727C859.562 172.127 871.442 43.5572 911.522 -67.3328C933.722 -128.953 964.562 -183.813 1002.6 -231.523C1071.72 -318.363 1164.96 -379.593 1269.24 -417.423C1327.92 -438.743 1389.48 -450.573 1451.52 -452.133" stroke="white" stroke-opacity="0.5" stroke-width="0.5" stroke-miterlimit="10"/>
<path d="M-949.676 1205.75C-866.276 1168.44 -730.796 1143.74 -604.076 1150.89C-539.516 1154.53 -477.956 1164.02 -420.236 1167.27C-361.076 1170.78 -307.676 1168.83 -251.156 1154.53C-233.036 1149.98 -215.156 1144 -197.156 1136.07C-128.876 1105.78 -62.2757 1079 16.0843 1051.96C97.8043 1023.75 159.964 978.514 215.524 933.664C228.604 923.134 241.684 913.384 254.284 904.154C291.004 877.244 326.524 855.144 375.844 843.444C404.764 836.554 436.804 830.964 472.804 828.494C565.084 821.994 630.124 846.044 696.724 833.564C705.604 831.874 714.484 829.274 723.244 826.154C766.444 810.424 808.444 775.974 838.804 725.794C875.285 665.084 893.285 582.664 890.285 503.104C887.525 433.034 872.165 364.914 865.205 294.844C853.204 175.244 867.604 47.3239 909.124 -62.1361C932.284 -123.236 963.965 -177.316 1002.48 -224.116C1072.44 -309.266 1165.92 -368.936 1270.44 -406.636C1329 -427.826 1390.44 -439.916 1452.24 -441.996" stroke="white" stroke-opacity="0.5" stroke-width="0.5" stroke-miterlimit="10"/>
<path d="M-941.16 1223.83C-856.68 1196.4 -722.04 1176.25 -596.28 1181.19C-531.96 1183.66 -470.76 1190.29 -413.64 1190.16C-355.08 1190.03 -302.88 1184.05 -247.56 1166.63C-229.92 1161.04 -212.4 1154.28 -194.88 1145.7C-128.28 1112.81 -63.7201 1083.04 14.0399 1055.09C94.4399 1026.36 157.68 983.847 214.56 944.067C228 934.707 241.44 926.257 254.4 918.327C291.96 895.317 328.08 877.507 377.28 868.147C406.44 862.557 438.12 857.487 473.52 854.497C564.48 846.697 629.28 862.037 692.88 843.707C701.4 841.237 709.8 837.987 718.08 834.217C759 815.237 798.12 778.967 826.32 728.137C860.16 666.647 876.84 585.137 874.68 506.357C872.76 436.677 859.68 368.297 854.76 298.097C846.36 178.497 863.04 51.0967 906.12 -56.8033C930.36 -117.513 962.64 -170.683 1001.76 -216.703C1072.68 -300.163 1166.28 -358.273 1270.92 -395.973C1329.36 -417.033 1390.56 -429.253 1452.12 -432.113" stroke="white" stroke-opacity="0.5" stroke-width="0.5" stroke-miterlimit="10"/>
<path d="M-932.641 1241.76C-847.081 1224.21 -713.281 1208.74 -588.481 1211.47C-524.521 1212.9 -463.561 1216.54 -406.921 1212.9C-349.081 1209.26 -298.081 1198.99 -243.841 1178.71C-226.561 1172.21 -209.521 1164.67 -192.601 1155.31C-127.8 1119.69 -65.1605 1086.93 12.1195 1058.33C91.0795 1029.08 155.52 989.304 213.72 954.594C227.52 946.404 241.319 939.254 254.639 932.624C293.04 913.644 329.76 899.995 378.84 892.845C408.12 888.555 439.68 884.005 474.24 880.495C563.88 871.265 628.44 877.895 689.04 853.975C697.2 850.725 705.24 846.695 712.92 842.275C751.56 820.045 787.8 781.955 813.72 730.475C845.04 668.205 860.28 587.605 859.08 509.605C858 440.315 847.32 371.675 844.44 301.345C839.52 181.745 858.72 54.9945 903.24 -51.6055C928.44 -111.795 961.56 -164.185 1001.16 -209.295C1073.04 -291.195 1166.88 -347.615 1271.64 -385.185C1329.96 -406.115 1391.04 -418.595 1452.36 -422.105" stroke="white" stroke-opacity="0.5" stroke-width="0.5" stroke-miterlimit="10"/>
<path d="M-924.238 1259.84C-837.478 1252.04 -704.638 1241.38 -580.678 1241.77C-516.958 1242.03 -456.238 1242.94 -400.318 1235.66C-343.078 1228.38 -293.278 1214.08 -240.358 1190.81C-223.438 1183.4 -206.878 1174.95 -190.438 1164.94C-127.318 1126.72 -66.8382 1090.97 9.96176 1061.46C87.6018 1031.69 153.122 994.769 212.642 964.999C226.802 957.979 240.962 952.129 254.642 946.799C293.882 931.719 331.202 922.359 380.162 917.549C409.562 914.689 441.002 910.399 474.842 906.369C563.162 895.839 627.482 893.629 685.082 863.989C692.882 859.959 700.442 855.279 707.762 850.209C744.122 824.729 777.362 784.689 801.242 732.559C829.922 669.509 843.842 589.819 843.482 512.729C843.242 443.699 834.842 374.799 834.002 304.469C832.562 184.869 854.282 58.769 900.242 -46.401C926.402 -106.201 960.362 -157.681 1000.56 -201.881C1073.4 -282.091 1167.36 -336.821 1272.24 -374.391C1330.44 -395.321 1391.28 -407.931 1452.48 -411.961" stroke="white" stroke-opacity="0.5" stroke-width="0.5" stroke-miterlimit="10"/>
<path d="M-915.723 1277.9C-827.883 1279.98 -695.883 1273.87 -572.883 1272.05C-509.523 1271.14 -449.043 1269.19 -393.723 1258.53C-337.083 1247.61 -288.483 1229.15 -236.763 1203.02C-220.323 1194.7 -204.123 1185.34 -188.163 1174.68C-126.843 1133.73 -68.2826 1095.12 8.03746 1064.7C84.2375 1034.41 151.078 1000.22 211.678 975.654C226.318 969.804 240.717 965.254 254.757 961.354C294.837 950.174 332.877 945.234 381.717 942.634C411.357 941.074 442.438 937.304 475.678 932.754C562.798 920.924 626.757 909.874 681.357 874.514C688.797 869.704 695.878 864.244 702.718 858.524C736.798 829.794 767.158 787.934 788.878 735.154C815.038 671.324 827.518 592.544 828.118 516.234C828.598 447.594 822.718 378.434 823.918 307.974C825.958 188.244 850.078 62.9236 897.598 -40.8164C924.718 -100.226 959.398 -150.796 1000.2 -194.086C1073.88 -272.606 1168.08 -325.776 1273.2 -363.216C1331.4 -384.016 1391.88 -396.886 1452.96 -401.566" stroke="white" stroke-opacity="0.5" stroke-width="0.5" stroke-miterlimit="10"/>
<path d="M-907.203 1295.97C-818.283 1307.8 -687.123 1306.5 -565.083 1302.34C-501.963 1300.26 -441.723 1295.45 -387.003 1281.28C-330.963 1266.85 -283.683 1244.23 -233.043 1215.11C-216.963 1205.88 -201.243 1195.61 -185.763 1184.3C-126.123 1140.62 -69.723 1099.02 6.11697 1067.95C80.997 1037.14 148.917 1005.81 210.837 986.184C225.837 981.504 240.597 978.254 254.997 975.654C295.917 968.244 334.557 966.294 383.277 967.334C413.037 967.984 443.997 963.824 476.517 958.754C562.317 945.494 626.037 925.734 677.637 884.654C684.717 879.064 691.317 872.954 697.797 866.584C729.597 834.604 757.077 790.794 776.637 737.494C800.157 672.884 811.317 595.014 812.757 519.484C814.077 451.234 810.477 381.814 813.717 311.094C819.237 191.364 845.877 66.6936 894.957 -35.7464C923.157 -94.6364 958.557 -144.426 999.837 -186.936C1074.48 -263.896 1168.92 -315.376 1274.04 -352.816C1332.12 -373.486 1392.48 -386.486 1453.32 -391.816" stroke="white" stroke-opacity="0.5" stroke-width="0.5" stroke-miterlimit="10"/>
<path d="M-898.797 1313.92C-808.797 1335.63 -678.597 1338.62 -557.277 1332.51C-494.517 1329.13 -434.517 1321.72 -380.397 1303.91C-325.077 1285.84 -278.877 1259.19 -229.557 1226.95C-213.837 1216.68 -198.597 1205.76 -183.597 1193.67C-125.757 1147.39 -71.2769 1102.8 4.08312 1070.82C77.5231 1039.62 146.643 1010.89 209.883 996.325C225.243 992.815 240.363 990.735 255.123 989.565C296.763 986.055 336.123 989.955 384.723 991.775C414.723 992.945 445.323 990.085 477.123 984.495C561.603 969.935 625.083 941.335 673.803 894.665C680.403 888.295 686.763 881.405 692.643 874.385C722.163 839.155 746.763 793.525 764.163 739.575C785.163 674.185 794.763 597.225 797.163 522.605C799.323 454.745 797.883 384.935 803.403 314.215C812.163 194.485 841.563 70.4653 892.083 -30.5447C921.243 -89.0447 957.483 -137.925 999.243 -179.525C1074.84 -254.795 1169.4 -304.715 1274.76 -342.025C1332.72 -362.565 1392.84 -375.825 1453.44 -381.805" stroke="white" stroke-opacity="0.5" stroke-width="0.5" stroke-miterlimit="10"/>
<path d="M-890.277 1331.99C-799.197 1363.58 -669.837 1371.25 -549.477 1362.93C-486.957 1358.38 -427.317 1348.11 -373.797 1326.92C-319.077 1305.34 -274.197 1274.4 -225.957 1239.3C-210.717 1228.12 -195.957 1216.29 -181.317 1203.55C-125.157 1154.54 -72.7173 1107.09 2.16271 1074.2C74.2827 1042.48 144.483 1016.74 209.043 1006.99C224.763 1004.65 240.243 1004.13 255.363 1004C297.843 1003.48 337.803 1012.58 386.283 1016.74C416.403 1019.21 446.883 1016.74 477.963 1010.76C561.123 994.769 624.243 957.329 670.083 905.069C676.323 897.919 682.203 890.379 687.603 882.709C714.843 844.229 736.563 796.649 751.803 742.179C770.163 676.009 778.443 599.959 781.803 526.119C784.803 458.519 785.763 388.579 793.203 317.729C805.563 197.999 837.363 74.6288 889.323 -25.0812C919.563 -83.0612 956.403 -131.161 998.763 -171.851C1075.2 -245.431 1170 -293.791 1275.48 -330.971C1333.32 -351.381 1393.2 -364.901 1453.68 -371.531" stroke="white" stroke-opacity="0.5" stroke-width="0.5" stroke-miterlimit="10"/>
<path d="M-881.762 1350.06C-789.602 1391.4 -661.082 1403.88 -541.682 1393.22C-479.522 1387.5 -420.002 1374.37 -367.082 1349.67C-312.962 1324.45 -269.162 1289.61 -222.242 1251.39C-207.362 1239.3 -193.082 1226.56 -179.042 1213.17C-124.682 1161.43 -74.1617 1111.12 0.118346 1077.32C70.7984 1045.21 142.198 1022.2 208.078 1017.39C224.158 1016.22 239.998 1016.74 255.478 1018.17C298.798 1022.33 339.358 1035.07 387.718 1041.31C417.958 1045.21 448.318 1043.13 478.678 1036.63C560.518 1019.21 623.278 973.059 666.238 915.079C672.118 907.149 677.518 898.829 682.558 890.509C707.398 848.779 726.238 799.379 739.438 744.129C755.278 677.049 762.118 602.039 766.318 528.979C770.158 461.769 773.398 391.569 782.998 320.589C798.838 200.859 833.158 78.1388 886.558 -20.1412C917.758 -77.6013 955.438 -125.051 998.278 -164.831C1075.68 -236.851 1170.6 -283.521 1276.32 -320.571C1334.04 -340.851 1393.8 -354.501 1454.04 -361.781" stroke="white" stroke-opacity="0.5" stroke-width="0.5" stroke-miterlimit="10"/>
<path d="M-873.359 1368.13C-780.119 1419.35 -652.439 1436.38 -533.879 1423.51C-471.959 1416.62 -412.799 1400.63 -360.479 1372.42C-307.079 1343.69 -264.479 1304.56 -218.639 1263.48C-204.119 1250.48 -190.319 1236.83 -176.759 1222.79C-124.319 1168.19 -75.5993 1115.28 -1.79928 1080.57C67.5607 1047.94 140.041 1026.88 207.121 1028.05C223.681 1028.31 239.881 1029.74 255.721 1032.6C299.881 1040.53 341.041 1057.82 389.401 1066.27C419.761 1071.6 449.881 1069.78 479.641 1062.89C560.161 1044.17 622.681 989.176 662.641 925.606C668.161 916.896 673.081 907.926 677.641 898.956C700.201 853.976 716.161 802.756 727.201 746.856C740.401 678.996 746.041 604.896 751.081 532.746C755.761 465.926 761.401 395.336 773.041 324.356C792.361 204.496 829.321 82.5561 884.041 -14.2939C916.321 -71.3639 954.721 -117.904 998.041 -156.774C1076.4 -227.104 1171.56 -272.214 1277.28 -309.264C1334.88 -329.414 1394.4 -343.324 1454.52 -351.254" stroke="white" stroke-opacity="0.5" stroke-width="0.5" stroke-miterlimit="10"/>
<path d="M-864.84 1386.2C-770.4 1447.17 -643.68 1469.01 -526.08 1453.8C-464.52 1445.74 -405.48 1427.02 -353.76 1395.3C-300.96 1362.93 -259.56 1319.77 -215.04 1275.7C-200.88 1261.79 -187.56 1247.36 -174.48 1232.54C-123.72 1175.34 -77.0398 1119.44 -3.83981 1083.82C64.2002 1050.8 137.76 1033.51 206.16 1038.58C223.08 1039.88 239.64 1042.74 255.84 1046.9C300.96 1058.6 342.48 1080.44 390.84 1091.1C421.32 1097.86 451.32 1096.43 480.24 1089.02C559.44 1068.87 621.6 1005.17 658.68 935.879C663.84 926.389 668.4 916.639 672.48 907.019C692.76 858.789 705.84 805.619 714.6 749.199C725.28 680.559 729.48 607.369 735.36 535.999C741 469.569 748.8 398.719 762.48 327.479C785.28 207.619 824.88 86.4589 880.92 -9.22111C914.28 -65.7711 953.28 -111.531 997.32 -149.491C1076.64 -218.261 1171.92 -261.551 1277.88 -298.601C1335.36 -318.751 1394.76 -332.791 1454.52 -341.371" stroke="white" stroke-opacity="0.5" stroke-width="0.5" stroke-miterlimit="10"/>
<path d="M-856.324 1404.14C-760.804 1474.99 -635.044 1501.51 -518.284 1484.09C-456.964 1474.86 -398.284 1453.28 -347.164 1418.05C-294.964 1382.04 -254.764 1334.85 -211.444 1287.66C-197.764 1272.84 -184.804 1257.5 -172.204 1242.16C-123.244 1182.23 -78.4841 1123.6 -5.76412 1086.94C60.9559 1053.53 135.476 1039.1 205.316 1048.98C222.596 1051.45 239.516 1055.48 256.076 1061.07C302.036 1076.54 344.156 1102.93 392.396 1115.8C423.116 1123.99 452.756 1122.82 481.076 1115.02C558.836 1093.31 620.636 1020.9 654.956 946.019C659.636 935.749 663.836 925.35 667.436 915.08C685.436 863.6 695.636 808.609 702.236 751.539C710.276 682.119 713.156 609.839 719.996 539.249C726.476 473.209 736.676 402.1 752.396 330.73C778.676 210.87 820.796 90.3595 878.396 -3.89048C912.836 -59.9205 952.556 -104.9 997.076 -142.08C1077.24 -209.16 1172.76 -250.89 1278.84 -287.81C1336.32 -307.83 1395.36 -322.13 1455 -331.23" stroke="white" stroke-opacity="0.5" stroke-width="0.5" stroke-miterlimit="10"/>
<path d="M-847.797 1422.21C-700.317 1545.32 -486.837 1553.12 -340.437 1440.8C-288.957 1401.28 -249.957 1349.8 -207.717 1299.75C-142.557 1222.4 -98.3969 1137.12 -7.67687 1090.06C73.8031 1047.81 171.363 1040.14 256.203 1075.37C303.003 1094.74 345.723 1125.55 393.843 1140.5C521.763 1180.15 628.203 1042.09 662.403 923.137C697.203 801.977 690.483 669.637 704.643 542.497C724.203 366.347 781.323 149.507 875.643 1.43735C974.763 -154.303 1114.56 -219.693 1279.56 -277.023C1336.92 -296.913 1395.72 -311.343 1455.24 -321.223" stroke="white" stroke-opacity="0.5" stroke-width="0.5" stroke-miterlimit="10"/>
<mask id="mask0_183_4678" style="mask-type:luminance" maskUnits="userSpaceOnUse" x="0" y="0" width="1440" height="1040">
<path d="M1440 0H0V1040H1440V0Z" fill="white"/>
</mask>
<g mask="url(#mask0_183_4678)">
<path d="M1679.64 621.92C1646.64 557.57 1608.84 495.17 1558.8 445.38C1508.76 395.59 1445.4 358.93 1377.72 353.6C1310.04 348.27 1238.4 377.65 1198.8 437.45C1176.96 470.34 1165.92 509.86 1152 547.43C1138.08 585 1119.84 622.83 1088.88 645.45C1057.92 668.07 1011.36 670.02 986.278 639.99C958.918 607.1 967.078 552.5 941.638 517.79C913.077 478.79 858.238 483.34 812.878 491.53C767.518 499.72 712.798 504.66 683.878 466.05C660.718 435.11 666.838 386.1 691.918 356.98C716.998 327.86 756.357 317.07 792.957 320.84C829.557 324.61 863.998 340.99 896.518 359.45C938.038 382.98 986.517 410.93 1028.76 389.22C1052.16 377.26 1067.52 352.04 1076.88 325.91C1086.24 299.78 1090.8 271.96 1099.2 245.44C1126.08 160.81 1195.44 93.7303 1276.08 74.2303C1337.4 59.4103 1404.12 70.2003 1461.12 41.7303C1507.08 18.8503 1539.84 -26.2597 1570.68 -69.6797L1679.64 621.92Z" fill="white" fill-opacity="0.1"/>
</g>
<mask id="mask1_183_4678" style="mask-type:luminance" maskUnits="userSpaceOnUse" x="0" y="0" width="1440" height="1040">
<path d="M1440 0H0V1040H1440V0Z" fill="white"/>
</mask>
<g mask="url(#mask1_183_4678)">
<path d="M-251.277 1171.04C-137.517 1190.54 -17.1573 1159.86 76.5627 1087.32C152.283 1028.82 213.843 943.019 302.883 913.899C349.083 898.819 398.283 900.769 446.403 903.759C494.523 906.749 543.363 910.779 590.403 899.599C637.443 888.419 683.523 859.299 704.643 812.369C721.443 775.059 720.243 728.779 701.403 692.509C682.563 656.239 646.803 631.019 608.643 627.119C552.003 621.399 500.283 658.969 454.563 695.499C408.843 732.029 358.443 770.899 301.683 768.299C221.883 764.659 162.723 680.939 84.0027 666.379C15.2427 653.639 -50.9973 695.889 -109.917 736.319L-251.277 1171.04Z" fill="white" fill-opacity="0.1"/>
</g>
</svg>
