<svg width="1440" height="1040" viewBox="0 0 1440 1040" fill="none" xmlns="http://www.w3.org/2000/svg">
<mask id="mask0_138_862" style="mask-type:luminance" maskUnits="userSpaceOnUse" x="0" y="0" width="1440" height="1040">
<path d="M1440 0H0V1040H1440V0Z" fill="white"/>
</mask>
<g mask="url(#mask0_138_862)">
<path d="M1679.64 621.92C1646.64 557.57 1608.84 495.17 1558.8 445.38C1508.76 395.59 1445.4 358.93 1377.72 353.6C1310.04 348.27 1238.4 377.65 1198.8 437.45C1176.96 470.34 1165.92 509.86 1152 547.43C1138.08 585 1119.84 622.83 1088.88 645.45C1057.92 668.07 1011.36 670.02 986.278 639.99C958.918 607.1 967.078 552.5 941.638 517.79C913.077 478.79 858.238 483.34 812.878 491.53C767.518 499.72 712.798 504.66 683.878 466.05C660.718 435.11 666.838 386.1 691.918 356.98C716.998 327.86 756.357 317.07 792.957 320.84C829.557 324.61 863.998 340.99 896.518 359.45C938.038 382.98 986.517 410.93 1028.76 389.22C1052.16 377.26 1067.52 352.04 1076.88 325.91C1086.24 299.78 1090.8 271.96 1099.2 245.44C1126.08 160.81 1195.44 93.7303 1276.08 74.2303C1337.4 59.4103 1404.12 70.2003 1461.12 41.7303C1507.08 18.8503 1539.84 -26.2597 1570.68 -69.6797L1679.64 621.92Z" fill="white" fill-opacity="0.1"/>
</g>
<mask id="mask1_138_862" style="mask-type:luminance" maskUnits="userSpaceOnUse" x="0" y="0" width="1440" height="1040">
<path d="M1440 0H0V1040H1440V0Z" fill="white"/>
</mask>
<g mask="url(#mask1_138_862)">
<path d="M-251.277 1171.04C-137.517 1190.54 -17.1573 1159.86 76.5627 1087.32C152.283 1028.82 213.843 943.019 302.883 913.899C349.083 898.819 398.283 900.769 446.403 903.759C494.523 906.749 543.363 910.779 590.403 899.599C637.443 888.419 683.523 859.299 704.643 812.369C721.443 775.059 720.243 728.779 701.403 692.509C682.563 656.239 646.803 631.019 608.643 627.119C552.003 621.399 500.283 658.969 454.563 695.499C408.843 732.029 358.443 770.899 301.683 768.299C221.883 764.659 162.723 680.939 84.0027 666.379C15.2427 653.639 -50.9973 695.889 -109.917 736.319L-251.277 1171.04Z" fill="white" fill-opacity="0.1"/>
</g>
</svg>
