<svg width="1440" height="2175" viewBox="0 0 1440 2175" fill="none" xmlns="http://www.w3.org/2000/svg">
<path d="M1777.16 -1238C1773.06 -892.707 1754.95 -571.94 1702.61 -324.117C1685.64 -243.765 1664.9 -170.808 1631.13 -130.5C1562.25 -48.304 1443.98 -105.968 1351.4 -89.6879C1233.81 -69.029 1158.26 76.0613 1132.49 322.341C1113.11 507.664 1109.39 768.832 1044.81 854.299C986.147 931.939 803.243 666.693 695.986 574.436C586.133 479.956 499.455 479.641 446.209 562.605C418.317 606.076 399.453 672.422 391.251 760.354C383.413 844.455 401.65 990.695 325.302 895.175C300.066 863.601 272.218 811.49 245.629 770.087C153.231 626.221 81.1745 635.274 87.8063 789.933M1775.62 -1226.73C1775.47 -878.059 1759.58 -554.682 1707.66 -307.841C1690.41 -225.531 1668.17 -154.12 1634.71 -110.461C1594.23 -58.0721 1536.33 -54.6644 1476.32 -56.8184C1435.36 -58.2794 1393.42 -62.3475 1355.35 -55.2408C1280.17 -41.1767 1220.38 18.5464 1178.04 118.162C1153.29 176.416 1134.52 248.343 1122.21 333.139C1113.48 392.451 1106.48 460.184 1098.24 526.579C1086.58 619.725 1072.43 710.15 1048.03 772.859C1039.3 795.44 1029.25 814.449 1017.5 828.551C968.851 886.681 846.881 743.182 746.4 640.981C719.411 613.429 693.967 588.843 671.877 571.904C580.806 501.471 507.252 499.672 456.878 558.538C448.201 568.663 440.208 580.591 432.924 594.289C406.941 643.114 389.752 714.231 382.165 804.934C377.676 858.665 382.615 935.001 369.109 963.838C360.795 981.599 345.462 981.079 316.817 946.758C291.788 916.77 264.172 866.968 237.694 827.231C145.71 689.066 72.7319 697.191 77.5314 850.408M1774.07 -1215.48C1777.88 -863.414 1764.2 -537.449 1712.69 -291.588C1695.16 -207.296 1671.43 -137.433 1638.27 -90.4675C1598.25 -34.5538 1540.83 -27.1684 1480.89 -26.4262C1439.96 -25.9046 1397.84 -28.4861 1359.29 -20.8362C1283.11 -5.78013 1221.01 51.0966 1175.11 144.053C1148.27 198.392 1127.02 265.168 1111.91 343.895C1101.1 398.851 1091.91 461.681 1081.5 523.051C1066.7 609.064 1049.4 692.119 1022.69 750.498C1013.17 771.554 1002.45 789.412 990.151 802.785C939.105 857.853 818.578 722.671 720.362 630.524C693.995 605.595 669.259 583.896 647.758 569.396C559.534 509.903 489.072 517.606 441.933 585.613C433.812 597.289 426.383 610.79 419.627 625.974C395.549 680.154 380.034 756.042 373.074 849.537C368.957 904.95 373.69 981.739 360.165 1011.8C351.829 1030.32 336.515 1030.59 308.327 998.364C283.497 969.966 256.129 922.491 229.754 884.398C138.19 751.931 64.28 759.134 67.2503 910.883M1772.53 -1204.24C1780.28 -848.788 1768.82 -520.19 1717.73 -275.335C1699.92 -189.083 1674.69 -120.768 1641.85 -70.4524C1602.3 -10.9923 1545.36 0.349134 1485.47 3.98762C1444.58 6.51362 1402.3 5.41687 1363.23 13.5678C1286.07 29.6361 1221.64 83.6461 1172.18 169.919C1143.26 220.368 1119.72 282.396 1101.61 354.628C1088.86 405.505 1077.34 463.135 1064.76 519.498C1046.82 598.381 1026.38 674.063 997.358 728.09C987.048 747.618 975.652 764.328 962.826 776.992C909.374 828.999 790.457 702.812 694.33 620.018C668.624 597.871 644.532 578.788 623.64 566.818C538.162 517.835 470.887 535.471 427 612.638C419.438 625.889 412.558 640.918 406.343 657.61C384.175 717.143 370.334 797.803 364.002 894.09C360.255 951.184 364.788 1028.42 351.24 1059.7C342.888 1079.01 327.601 1080.1 299.844 1049.9C275.217 1023.11 248.084 977.921 221.812 941.471C130.662 814.705 55.8235 820.96 56.9691 971.288M1770.99 -1192.97C1782.69 -834.14 1773.45 -502.932 1722.79 -259.036C1704.7 -170.803 1678.11 -103.692 1645.43 -50.4142C1606.52 13.0022 1549.89 27.8878 1490.07 34.4462C1449.21 38.953 1406.77 39.3646 1367.2 48.0369C1289.05 65.1192 1222.3 116.283 1169.28 195.874C1138.27 242.408 1112.3 299.417 1091.33 365.448C1076.54 412.056 1062.81 464.675 1048.06 516.055C1026.98 587.806 1003.39 656.118 972.049 705.794C960.95 723.796 948.881 739.356 935.519 751.289C879.667 800.233 762.251 682.565 668.318 609.603C643.244 590.124 619.828 573.769 599.545 564.329C516.824 525.851 452.732 553.423 412.079 639.732C405.068 654.535 398.744 671.115 393.07 689.313C372.812 754.2 360.641 839.634 354.929 938.69C351.552 997.466 355.878 1075.14 342.313 1107.66C333.946 1127.74 318.68 1129.66 291.371 1101.5C266.944 1076.33 240.058 1033.44 213.89 998.635C123.154 877.569 47.3881 882.9 46.7047 1031.76M1769.44 -1181.72C1785.11 -819.496 1778.08 -485.679 1727.82 -242.785C1709.45 -152.591 1681.4 -86.9419 1649 -30.4219C1610.58 36.6049 1554.4 55.3823 1494.64 64.8369C1453.82 71.3481 1411.22 73.2444 1371.13 82.4176C1291.99 100.512 1222.93 148.807 1166.34 221.74C1133.26 264.383 1104.84 316.326 1081.03 376.179C1064.2 418.494 1048.37 466.425 1031.32 512.501C1007.28 577.528 980.197 637.627 946.709 683.384C934.76 699.709 922.082 714.269 908.174 725.474C849.916 771.358 734.004 662.183 642.275 599.099C617.839 582.286 595.089 568.662 575.415 561.752C495.433 533.713 434.54 571.288 397.13 666.761C390.682 683.136 384.907 701.244 379.764 720.952C361.423 791.215 350.921 881.422 345.829 983.248C342.823 1043.71 346.943 1121.83 333.36 1155.57C324.978 1176.44 309.733 1179.17 282.872 1153.06C258.645 1129.5 232.006 1088.92 205.941 1055.76C115.625 940.389 38.932 944.795 36.4162 1092.21M1767.9 -1170.46C1787.52 -804.849 1782.71 -468.421 1732.87 -226.509C1714.23 -134.335 1684.7 -70.19 1652.58 -10.3838C1614.65 60.2535 1558.92 82.9008 1499.22 95.2736C1458.44 103.767 1415.67 107.172 1375.09 116.865C1294.96 135.973 1223.59 181.422 1163.43 247.651C1128.26 286.38 1097.39 333.283 1070.74 386.955C1051.86 424.981 1033.83 467.964 1014.6 508.991C987.437 566.954 957.167 619.55 921.383 661.021C908.643 675.796 895.301 689.252 880.851 699.704C820.192 742.525 705.784 641.843 616.245 588.616C592.447 574.47 570.367 563.552 551.306 559.22C474.069 541.617 416.37 589.196 382.194 693.811C376.297 711.739 371.078 731.398 366.469 752.591C350.038 828.207 341.21 923.186 336.74 1027.8C334.105 1089.94 338.026 1168.52 324.419 1203.48C316.026 1225.13 300.794 1228.71 274.38 1204.62C250.354 1182.7 223.952 1144.37 197.996 1112.85C108.094 1003.19 30.4668 1006.65 26.137 1152.64M1766.35 -1159.21C1789.92 -790.224 1787.33 -451.187 1737.9 -210.255C1718.97 -116.122 1687.97 -53.4821 1656.14 9.61038C1618.7 83.8361 1563.43 110.397 1503.79 125.666C1463.04 136.164 1420.11 141.054 1379.01 151.247C1297.91 171.368 1224.2 213.95 1160.49 273.518C1123.24 308.354 1089.92 350.196 1060.43 397.689C1039.5 431.426 1019.26 469.463 997.853 505.462C967.566 556.339 934.116 601.452 896.039 638.637C882.506 651.862 868.494 664.192 853.503 673.914C790.439 713.675 677.537 621.461 590.197 578.113C567.029 566.612 545.62 558.423 527.17 556.644C452.668 549.433 398.167 607.064 367.239 720.84C361.893 740.32 357.238 761.552 353.162 784.23C338.642 865.2 331.483 964.952 327.633 1072.34C325.368 1136.16 329.084 1215.19 315.458 1251.37C307.043 1273.78 291.844 1278.25 265.866 1256.14C242.036 1235.86 215.885 1199.81 190.031 1169.93C100.542 1065.94 21.9954 1068.5 15.8258 1213.03M1764.81 -1147.97C1792.33 -775.58 1791.96 -433.933 1742.95 -193.983C1723.75 -97.8678 1691.26 -36.7564 1659.73 29.6443C1622.77 107.437 1567.96 137.933 1508.39 156.121C1467.67 168.6 1424.58 174.997 1382.98 185.714C1300.88 206.849 1224.86 246.562 1157.58 299.471C1118.25 330.394 1082.47 367.152 1050.16 408.507C1027.16 437.933 1004.74 471.044 981.147 501.993C947.742 545.806 911.112 583.436 870.728 616.315C856.397 627.992 841.725 639.193 826.194 648.185C760.729 684.883 649.326 601.116 564.181 567.672C541.644 558.816 520.912 553.355 503.073 554.129C431.291 557.265 380.009 624.99 352.328 747.929C347.546 768.981 343.439 791.742 339.894 815.93C327.283 902.254 321.793 1006.78 318.571 1116.96C316.677 1182.46 320.185 1261.92 306.543 1299.35C298.113 1322.54 282.942 1327.89 257.406 1307.76C233.78 1289.14 207.863 1255.32 182.121 1227.11C93.045 1128.82 13.5723 1130.46 5.58105 1273.54M1763.26 -1136.7C1794.74 -760.932 1796.58 -416.675 1748 -177.705C1728.5 -79.6302 1694.54 -20.0244 1663.29 49.6642C1626.81 131.023 1572.46 165.456 1512.96 186.539C1472.28 201.023 1429.01 208.885 1386.91 220.121C1303.83 242.268 1225.49 279.137 1154.64 325.341C1113.23 352.371 1074.99 384.045 1039.86 419.264C1014.8 444.379 990.186 472.565 964.409 498.465C927.877 535.191 888.076 565.361 845.384 593.933C830.261 604.061 814.918 614.136 798.847 622.398C730.976 656.036 621.065 580.692 538.136 557.195C516.234 550.982 496.161 548.23 478.94 551.58C409.881 565.038 361.815 642.883 337.369 774.963C333.138 797.568 329.587 821.878 326.583 847.573C315.882 939.251 312.074 1048.57 309.467 1161.52C307.949 1228.7 311.246 1308.61 297.586 1347.26C289.14 1371.24 273.997 1377.48 248.897 1359.32C225.47 1342.37 199.801 1310.81 174.154 1284.22C85.4981 1191.63 5.08573 1192.32 -4.73242 1333.95M1761.72 -1125.45C1797.15 -746.308 1801.22 -399.419 1753.04 -161.452C1733.27 -61.3955 1697.82 -3.31723 1666.87 69.6795C1630.87 154.607 1576.99 192.972 1517.54 216.955C1476.89 233.42 1433.46 242.789 1390.86 254.548C1306.79 277.709 1226.12 311.71 1151.72 351.254C1108.22 374.372 1067.51 400.94 1029.56 430.042C1002.44 450.825 975.639 474.108 947.686 494.981C908.015 524.6 865.055 547.33 820.069 571.616C804.153 580.194 788.14 589.143 771.533 596.674C701.262 627.249 592.84 560.305 512.116 546.758C490.845 543.19 471.441 543.144 454.833 549.072C388.483 572.808 343.647 660.815 322.443 802.059C318.77 826.238 315.769 852.078 313.306 879.279C304.515 976.311 302.376 1090.4 300.394 1206.12C299.246 1274.99 302.344 1355.35 288.659 1395.22C280.198 1419.97 265.09 1427.13 240.425 1410.93C217.204 1395.65 191.797 1366.44 166.232 1341.38C78.0949 1254.97 -3.34381 1254.25 -14.9943 1394.45M1760.17 -1114.21C1799.56 -731.66 1805.83 -382.183 1758.08 -145.2C1738.02 -43.1837 1701.09 13.3685 1670.44 89.6717C1634.91 178.143 1581.51 220.466 1522.11 247.345C1481.5 265.816 1437.91 276.669 1394.79 288.929C1309.74 313.103 1226.74 344.236 1148.79 377.12C1103.21 396.344 1060.01 417.788 1019.26 440.773C990.074 457.223 961.074 475.582 930.95 491.426C888.146 513.936 842.029 529.249 794.728 549.207C778.022 556.259 761.341 564.056 744.188 570.86C671.511 598.374 564.572 539.809 486.066 536.232C465.423 535.285 446.682 537.946 430.703 546.495C367.045 580.465 325.45 678.682 307.486 829.065C304.369 854.795 301.932 882.207 299.997 910.895C293.116 1013.28 292.646 1132.15 291.291 1250.66C290.515 1321.2 293.399 1401.99 279.704 1443.11C271.233 1468.64 256.158 1476.74 231.917 1462.44C208.903 1448.88 183.735 1421.87 158.266 1398.44C70.5481 1317.72 -11.8226 1316.08 -25.2946 1454.83M1758.63 -1102.94C1801.97 -717.013 1810.46 -364.904 1763.13 -128.9C1742.8 -24.9042 1704.37 30.0999 1674.02 109.733C1638.96 201.75 1586.03 248.008 1526.7 277.806C1486.12 298.257 1442.37 310.618 1398.75 323.4C1312.71 348.587 1227.4 376.875 1145.88 403.077C1098.21 418.388 1052.54 434.726 1008.98 451.596C977.723 463.714 946.529 477.148 914.229 487.964C868.285 503.368 819.017 511.262 769.407 526.89C751.908 532.393 734.557 539.064 716.876 545.158C641.799 569.61 536.334 519.402 460.061 525.838C440.047 527.513 421.969 532.881 406.616 544.028C345.644 588.211 307.302 696.656 292.58 856.203C290.022 883.507 288.133 912.448 286.734 942.644C281.77 1050.41 282.968 1174.02 282.235 1295.32C281.829 1367.55 284.514 1448.79 270.795 1491.13C262.301 1517.43 247.265 1526.48 223.456 1514.11C200.664 1502.28 175.721 1477.46 150.355 1455.67C63.0644 1380.68 -20.2483 1378.07 -35.5526 1515.38M1757.09 -1091.69C1804.38 -702.391 1814.67 -348.585 1768.17 -112.65C1747.37 -7.09716 1707.63 46.7624 1677.59 129.724C1642.99 225.265 1590.54 275.501 1531.28 308.217C1490.75 330.672 1446.82 344.52 1402.69 357.801C1315.67 384.001 1228.04 409.42 1142.95 428.94C1093.21 440.359 1045.04 451.528 998.682 462.325C965.35 470.088 931.962 478.597 897.506 484.429C848.423 492.726 796.009 493.199 744.079 504.501C725.795 508.476 707.765 514 689.544 519.364C612.061 540.755 508.068 498.88 434.023 515.332C414.637 519.628 397.223 527.703 382.491 541.449C324.197 595.822 289.115 714.519 277.633 883.206C275.627 912.062 274.294 942.553 273.436 974.256C270.382 1087.37 273.248 1215.76 273.136 1339.83C273.101 1413.74 275.58 1495.44 261.843 1539C253.334 1566.07 238.343 1576.09 214.958 1565.63C192.382 1555.52 167.669 1532.89 142.412 1512.74C55.5487 1443.47 -28.7037 1439.92 -45.8295 1575.78M1755.54 -1080.45C1806.79 -687.743 1819.29 -331.348 1773.2 -96.3935C1752.12 11.1188 1710.89 63.4287 1681.16 149.721C1647.02 248.786 1595.05 303 1535.85 338.612C1495.34 363.05 1451.26 378.404 1406.63 392.208C1318.61 419.4 1228.67 441.995 1140.02 454.834C1088.18 462.34 1037.53 468.361 988.376 473.084C952.957 476.472 917.395 480.099 880.762 480.903C828.533 482.071 772.983 475.17 718.73 482.122C699.656 484.571 680.966 488.965 662.198 493.577C582.314 511.906 479.788 478.365 407.97 504.833C389.207 511.752 372.462 522.533 358.351 538.878C302.715 603.4 270.914 732.389 262.674 910.24C261.224 940.646 260.447 972.689 260.126 1005.9C258.981 1124.37 263.524 1257.55 264.032 1384.39C264.359 1459.96 266.639 1542.11 252.885 1586.91C244.361 1614.77 229.417 1625.77 206.455 1617.19C184.097 1608.84 159.61 1588.35 134.451 1569.84C48.0073 1506.27 -37.1716 1501.79 -56.1373 1636.19M1754 -1069.18C1809.2 -673.098 1823.92 -314.073 1778.25 -80.1217C1756.88 29.3503 1714.16 80.1123 1684.74 169.755C1651.06 272.344 1599.58 330.536 1540.44 369.044C1499.97 395.487 1455.73 412.326 1410.59 426.629C1321.58 454.833 1229.32 474.561 1137.1 480.741C1083.19 484.354 1030.04 485.205 978.094 483.856C940.599 482.889 902.843 481.592 864.041 477.39C808.664 471.406 749.979 457.154 693.409 459.754C673.55 460.676 654.182 463.921 634.879 467.803C552.589 483.07 451.52 457.819 381.945 494.346C363.803 503.864 347.722 517.353 334.246 536.341C281.266 610.987 252.743 750.295 247.75 937.308C246.858 969.289 246.638 1002.88 246.85 1037.58C247.616 1161.4 253.833 1299.35 254.963 1428.99C255.661 1506.24 257.741 1588.84 243.963 1634.86C235.424 1663.51 220.534 1675.5 197.982 1668.79C175.847 1662.19 151.584 1643.87 126.528 1627C40.5035 1569.13 -45.6151 1563.71 -66.3949 1696.68M1752.45 -1057.93C1811.6 -658.472 1828.96 -295.924 1783.29 -63.8653C1761.83 48.0137 1717.41 96.7804 1688.31 189.751C1655.08 295.865 1604.09 358.033 1545.01 399.439C1504.58 427.862 1460.16 446.188 1414.52 461.037C1324.53 490.254 1229.94 507.114 1134.16 506.61C1078.17 506.311 1022.52 501.99 967.781 494.592C928.196 489.227 888.26 483.049 847.303 473.862C788.779 460.75 726.958 439.123 668.066 437.373C647.422 436.767 627.376 438.864 607.532 442.016C522.842 454.221 423.225 437.26 355.9 483.869C338.386 496.008 322.956 512.184 310.119 533.791C259.781 618.541 234.554 768.186 232.796 964.34C232.461 997.872 232.791 1033.02 233.539 1069.22C236.215 1198.4 244.101 1341.13 245.851 1473.53C246.92 1552.46 248.794 1635.51 235.003 1682.76C226.447 1712.16 211.614 1725.18 189.469 1720.31C167.565 1715.48 143.475 1699.14 118.564 1684.08C32.8185 1631.39 -54.0856 1625.56 -76.7052 1757.07M1750.9 -1046.68C1814.01 -643.823 1833.59 -278.665 1788.33 -47.5881C1766.6 66.249 1720.68 113.468 1691.89 209.791C1659.12 319.407 1608.61 385.553 1549.6 429.899C1509.21 460.327 1464.62 480.139 1418.47 495.486C1327.5 525.716 1230.59 539.731 1131.25 532.547C1073.17 528.355 1015.02 518.842 957.496 505.393C915.828 495.652 873.704 484.547 830.58 470.379C768.907 450.114 703.952 421.136 642.743 415.034C621.314 412.9 600.595 413.848 580.211 416.27C493.115 425.415 394.934 416.701 329.878 473.41C312.979 488.15 298.211 507.009 286.01 531.259C238.301 626.093 216.384 786.095 217.868 991.413C218.091 1026.52 218.975 1063.19 220.252 1100.88C224.837 1235.41 234.398 1382.91 236.771 1518.11C238.21 1598.72 239.877 1682.21 226.07 1730.69C217.498 1760.88 202.727 1774.92 180.99 1771.89C159.323 1768.86 135.434 1754.62 110.627 1741.21C25.3007 1694.21 -62.5356 1687.46 -86.9821 1817.52M1749.37 -1035.42C1816.43 -629.177 1838.22 -261.409 1793.39 -31.314C1771.38 84.5049 1723.95 130.132 1695.47 229.805C1663.15 342.924 1613.14 413.069 1554.18 460.312C1513.82 492.722 1469.08 514.041 1422.43 529.91C1330.47 561.153 1231.24 572.3 1128.34 558.454C1068.18 550.349 1007.53 535.642 947.22 516.166C903.461 502.026 859.158 486.041 813.87 466.865C749.036 439.428 680.967 403.141 617.436 392.689C595.217 389.029 573.824 388.828 552.899 390.52C463.398 396.604 366.655 396.137 303.861 462.947C287.576 480.265 273.466 501.833 261.906 528.725C216.812 633.599 198.219 804.002 202.943 1018.46C203.716 1055.12 205.157 1093.34 206.975 1132.54C213.47 1272.42 224.708 1424.72 227.698 1562.66C229.508 1644.96 230.97 1728.89 217.144 1778.6C208.557 1809.56 193.862 1824.66 172.513 1823.45C151.093 1822.23 127.404 1810.09 102.7 1798.32C17.7804 1757.01 -70.9774 1749.33 -97.2433 1877.97M1747.82 -1024.17C1818.83 -614.554 1842.84 -244.175 1798.42 -15.0605C1776.12 102.718 1727.19 146.777 1699.03 249.822C1667.16 366.443 1617.64 440.589 1558.75 490.728C1518.43 525.143 1473.52 547.946 1426.36 564.316C1333.41 596.572 1231.86 604.874 1125.39 584.325C1063.15 572.327 999.995 552.406 936.901 526.902C891.058 508.362 844.562 487.475 797.121 463.338C729.138 428.748 657.942 385.132 592.086 370.306C569.082 365.119 547.012 363.769 525.552 364.73C433.65 367.752 338.338 375.533 277.815 452.468C262.145 472.386 248.696 496.638 237.772 526.173C195.288 641.089 180.018 821.894 187.99 1045.51C189.328 1083.74 191.32 1123.52 193.671 1164.2C202.083 1309.46 214.982 1466.51 218.6 1607.24C220.781 1691.22 222.043 1775.61 208.201 1826.56C199.598 1858.3 184.973 1874.45 164.024 1875.05C142.844 1875.66 119.354 1865.6 94.7604 1855.49C10.2606 1819.87 -79.4293 1811.27 -107.53 1938.45M1746.27 -1012.93C1821.24 -599.909 1847.47 -226.92 1803.46 1.18989C1780.89 120.95 1730.44 163.417 1702.6 269.813C1671.18 389.938 1622.16 468.082 1563.33 521.117C1523.04 557.514 1477.97 581.824 1430.31 598.715C1336.37 631.985 1232.5 637.419 1122.48 610.209C1058.15 594.298 992.496 569.182 926.616 537.651C878.682 514.712 830.005 488.921 780.398 459.802C709.259 418.039 634.943 367.115 566.758 347.917C542.971 341.226 520.226 338.703 498.22 338.936C403.912 338.897 310.024 354.905 251.777 441.961C236.72 464.457 223.93 491.418 213.66 523.614C173.78 648.574 161.845 839.776 173.051 1072.54C174.94 1112.32 177.493 1153.64 180.375 1195.84C190.692 1346.45 205.271 1508.27 209.511 1651.8C212.067 1737.45 213.111 1822.27 199.258 1874.47C190.64 1907 176.093 1924.21 155.528 1926.59C134.602 1929.03 111.305 1921.05 86.8068 1912.56C2.72126 1882.65 -87.8899 1873.12 -117.817 1998.85M1744.73 -1001.66C1823.65 -585.261 1852.09 -209.662 1808.51 17.4896C1785.65 139.21 1733.69 180.084 1706.19 289.874C1675.21 413.48 1626.69 495.646 1567.93 551.599C1527.68 589.999 1482.44 615.797 1434.26 633.188C1339.35 667.47 1233.15 670.036 1119.56 636.167C1053.16 616.364 984.992 586.01 916.329 548.476C866.309 521.137 815.445 490.444 763.677 456.341C689.387 407.402 611.942 349.174 541.432 325.603C516.86 317.384 493.436 313.713 470.895 313.214C374.187 310.113 281.71 334.328 225.747 431.528C211.305 456.625 199.166 486.272 189.542 521.108C152.251 656.068 143.666 857.712 158.115 1099.64C160.561 1140.99 163.664 1183.85 167.086 1227.55C179.314 1383.51 195.561 1550.1 200.422 1696.4C203.348 1783.74 204.193 1869.01 190.316 1922.43C181.68 1955.71 167.217 1974.02 147.035 1978.2C126.367 1982.48 103.25 1976.55 78.8684 1969.73C-4.80296 1945.52 -96.341 1935.07 -128.103 2059.33M1743.18 -990.413C1826.05 -570.638 1856.72 -192.406 1813.55 33.7417C1790.42 157.442 1736.94 196.726 1709.75 309.867C1679.22 436.955 1631.2 523.139 1572.5 581.99C1532.28 622.372 1486.88 649.655 1438.2 667.59C1342.3 702.887 1233.79 702.605 1116.63 662.033C1048.14 638.317 977.467 602.746 906.025 559.206C853.914 527.446 800.865 491.873 746.943 452.809C669.497 396.695 588.94 331.182 516.099 303.215C490.744 293.492 466.647 288.671 443.566 287.444C344.452 281.281 253.383 313.679 199.716 421.043C185.882 448.719 174.4 481.052 165.425 518.552C130.716 663.513 125.487 875.597 143.183 1126.68C146.186 1169.59 149.839 1214 153.803 1259.2C167.94 1420.52 185.857 1591.89 191.345 1740.98C194.643 1830 195.281 1915.72 181.386 1970.36C172.735 2004.43 158.363 2023.82 138.559 2029.77C118.153 2035.92 95.221 2032.05 70.9352 2026.85C-12.3165 2008.33 -104.794 1996.94 -138.37 2119.78M1741.64 -979.167C1828.47 -555.991 1861.34 -175.171 1818.59 49.9963C1795.17 175.656 1739.97 212.881 1713.32 329.862C1682.99 459.92 1635.71 550.614 1577.07 612.383C1536.89 654.77 1491.32 683.537 1442.14 701.972C1345.25 738.281 1234.41 735.133 1113.7 687.901C1043.13 660.292 969.949 619.482 895.724 569.939C841.519 533.757 786.291 493.304 730.208 449.256C649.61 385.966 566.069 313.638 490.759 280.809C464.661 269.715 439.849 263.587 416.227 261.63C314.713 252.405 225.05 293.011 173.679 410.539C160.454 440.794 149.634 475.835 141.3 515.976C109.176 670.938 107.296 893.464 128.232 1153.69C131.786 1198.15 136.009 1244.13 140.496 1290.82C156.543 1457.5 176.141 1633.65 182.244 1785.51C185.912 1876.22 186.343 1962.37 172.432 2018.25C163.766 2053.1 149.483 2073.58 130.059 2081.31C109.913 2089.32 87.1673 2087.5 62.9848 2083.95C-19.8527 2071.13 -113.252 2058.81 -148.66 2180.21M1740.1 -967.897C1830.88 -541.341 1865.97 -157.913 1823.63 66.2725C1799.94 193.914 1743.25 229.591 1716.9 349.9C1687.04 483.483 1640.24 578.155 1581.66 642.82C1541.5 687.189 1495.78 717.464 1446.09 736.422C1348.21 773.744 1235.06 767.749 1110.79 713.835C1038.13 682.313 962.453 636.284 885.444 580.738C829.147 540.133 771.669 494.506 713.49 445.77C629.644 374.898 543.055 295.629 465.441 258.467C438.558 245.846 413.068 238.57 388.906 235.883C284.986 223.598 196.726 272.388 147.652 400.081C135.034 432.915 124.866 470.642 117.199 513.465C87.6447 678.409 89.1333 911.394 113.312 1180.78C117.424 1226.82 122.195 1274.32 127.223 1322.52C145.18 1494.55 166.448 1675.48 173.171 1830.11C177.209 1922.5 177.441 2009.1 163.505 2066.2C154.824 2101.84 140.632 2123.41 121.574 2132.9C101.702 2142.79 79.121 2142.98 55.0493 2141.09C-27.3686 2133.98 -121.707 2120.71 -158.942 2240.66M1738.55 -956.654C1833.28 -526.72 1870.6 -140.66 1828.69 82.5445C1804.71 212.146 1746.52 246.275 1720.48 369.912C1691.08 507.042 1644.76 605.669 1586.25 673.253C1546.14 719.625 1500.24 751.387 1450.04 770.844C1351.18 809.181 1235.7 800.318 1107.87 739.743C1033.13 704.329 954.941 653.039 875.151 591.513C816.767 546.485 757.111 496.001 696.766 442.283C609.771 364.259 520.048 277.638 440.111 236.127C412.438 221.979 386.276 213.554 361.578 210.136C255.258 194.788 168.384 251.744 121.619 389.621C109.609 425.034 100.091 465.449 93.0779 510.934C66.0893 685.86 70.9514 929.304 98.3642 1207.84C103.033 1255.42 108.355 1304.48 113.924 1354.19C133.791 1531.57 156.728 1717.27 164.084 1874.69C168.493 1968.76 168.519 2055.81 154.565 2114.14C145.869 2150.55 131.774 2173.23 113.088 2184.48C93.4975 2196.27 71.0817 2198.48 47.1057 2198.21C-34.8979 2196.8 -130.158 2182.6 -169.22 2301.11M1737 -945.409C1835.69 -512.074 1875.22 -123.426 1833.72 98.7984C1809.46 230.382 1749.77 262.941 1724.05 389.928C1695.11 530.582 1649.27 633.187 1590.82 703.667C1550.75 752.044 1504.69 785.291 1453.99 805.269C1354.14 844.618 1236.34 832.888 1104.94 765.631C1028.12 726.304 947.43 669.795 864.856 602.266C804.379 552.816 742.559 497.494 680.037 438.749C589.906 353.593 497.031 259.603 414.79 213.76C386.333 198.085 359.492 188.512 334.254 184.364C225.527 165.955 140.052 231.097 95.5937 379.135C84.1861 417.129 75.3247 460.229 68.9657 508.375C44.5349 693.262 52.778 947.187 83.4329 1234.88C88.66 1284.04 94.536 1334.63 100.641 1385.84C122.425 1568.6 147.029 1759.05 155.007 1919.27C159.787 2015.01 159.606 2102.5 145.635 2162.07C136.922 2199.24 122.94 2223.08 104.613 2236.05C85.2961 2249.73 63.0453 2253.95 39.1801 2255.35C-42.4093 2259.64 -138.596 2244.52 -179.493 2361.56M1735.46 -934.139C1838.11 -497.427 1879.85 -106.146 1838.76 115.074C1814.22 248.617 1753.03 279.629 1727.63 409.944C1699.14 554.123 1653.79 660.705 1595.39 734.083C1555.35 784.442 1509.14 819.196 1457.93 839.698C1357.08 880.038 1236.98 865.484 1102.01 791.546C1023.11 748.326 939.824 686.194 854.565 613.068C791.937 558.922 728.005 499.015 663.308 435.266C570.037 342.979 474.012 241.595 389.457 191.423C360.209 174.222 332.7 163.498 306.922 158.62C195.795 137.149 111.427 209.839 69.5631 368.701C58.687 409.104 50.5529 455.061 44.848 505.87C22.9771 700.741 34.5934 965.124 68.4937 1261.96C74.2717 1312.67 80.7115 1364.83 87.3451 1417.53C111.039 1605.64 137.312 1800.87 145.91 1963.85C151.053 2061.26 150.674 2149.22 136.685 2210C127.956 2247.96 114.077 2272.91 96.1118 2287.64C77.089 2303.24 54.9905 2309.46 31.2286 2312.5C-49.9412 2322.48 -147.063 2306.42 -189.779 2422.04M1733.92 -922.893C1840.51 -482.8 1884.47 -88.9097 1843.8 131.329C1818.99 266.852 1756.3 296.317 1731.2 429.962C1703.18 577.664 1658.3 688.203 1599.97 764.499C1559.97 816.863 1513.59 853.101 1461.87 874.103C1360.04 915.457 1237.61 898.036 1099.08 817.438C1018.1 770.303 932.331 703.02 844.266 623.825C779.56 565.301 713.441 500.491 646.583 431.759C550.176 332.34 450.999 223.586 364.127 169.063C334.086 150.312 305.907 138.461 279.593 132.852C166.061 108.32 83.1337 189.305 43.5286 358.221C33.2755 401.247 25.7032 449.701 20.7317 503.316C1.09645 707.521 16.416 983.012 53.5584 1289.01C59.9002 1341.29 66.8834 1394.98 74.0506 1449.17C99.6546 1642.63 127.61 1842.65 136.822 2008.41C142.336 2107.5 141.757 2195.91 127.744 2257.92C119 2296.66 105.232 2322.73 87.6176 2339.18C68.8814 2356.68 46.9348 2364.89 23.2815 2369.57C-57.474 2385.26 -155.522 2368.27 -200.065 2482.44M1732.37 -911.645C1842.92 -468.152 1889.09 -71.673 1848.84 147.584C1823.74 285.067 1759.56 312.984 1734.76 449.958C1707.21 601.207 1662.81 715.701 1604.54 794.895C1564.57 849.239 1518.02 886.965 1465.81 908.509C1362.99 950.876 1238.23 930.587 1096.15 843.306C1013.08 792.28 924.83 719.824 833.964 634.558C767.188 571.678 698.877 501.968 629.843 428.207C530.294 321.658 427.975 205.531 338.786 146.656C307.955 126.379 279.103 113.379 252.249 107.041C136.316 79.4462 54.8328 168.749 17.4789 347.697C7.84109 393.324 0.926879 444.486 -3.3981 500.742C-20.3842 715.121 -1.78246 1000.86 38.602 1316.02C45.4948 1369.85 53.0397 1425.09 60.7428 1480.79C88.2567 1679.61 117.881 1884.4 127.721 2052.95C133.605 2153.72 132.813 2242.56 118.79 2305.81C110.03 2345.33 96.378 2372.54 79.1174 2390.72C60.6755 2410.14 38.8812 2420.34 15.3312 2426.67C-65.0123 2448.04 -163.98 2430.14 -210.357 2542.85M1730.83 -900.38C1845.33 -453.509 1893.73 -54.3978 1853.89 163.879C1828.52 303.344 1762.83 329.691 1738.34 469.994C1711.25 624.767 1667.34 743.238 1609.13 825.35C1569.2 881.699 1522.48 920.91 1469.76 942.955C1365.96 986.334 1238.89 963.199 1093.23 869.238C1008.08 814.298 917.345 736.692 823.672 645.357C754.819 578.099 684.321 503.486 613.113 424.721C510.429 311.041 404.95 187.521 313.451 124.316C281.836 102.513 252.318 88.3842 224.916 81.2942C106.577 50.6391 26.5426 148.258 -8.55256 337.261C-17.5674 385.51 -23.8178 439.38 -27.5167 498.233C-41.859 722.789 -19.9624 1018.79 23.6642 1343.11C31.1078 1398.5 39.209 1455.29 47.4532 1512.49C76.877 1716.67 108.17 1926.23 118.63 2097.55C124.885 2200 123.894 2289.29 109.846 2353.77C101.071 2394.07 87.6004 2422.58 70.6226 2442.32C52.5405 2463.85 30.8254 2475.85 7.38624 2483.84C-72.5431 2510.9 -172.437 2492.09 -220.642 2603.35M1729.29 -889.132C1847.74 -438.882 1898.35 -37.1613 1858.93 180.134C1833.27 321.558 1766.09 346.356 1741.92 490.011C1715.28 648.308 1671.86 770.757 1613.71 855.766C1495.28 1028.93 1315.33 1046.89 1090.31 895.128C938.948 793.043 769.594 618.927 596.386 421.19C490.56 300.379 381.94 169.487 288.124 101.93C115.655 -22.2608 5.86476 81.6849 -34.5841 326.755C-75.033 571.826 -50.4166 949.327 8.73181 1370.14C62.3982 1752 145.075 2195.36 100.915 2401.68C50.4081 2637.63 -152.562 2491.74 -230.917 2663.76M2436.69 1969.92C2246.98 1413.37 2008.15 872.425 1774.62 470.349C1708.18 355.961 1639.79 249.545 1585.15 207.353C1427.27 85.4688 1431.56 458.62 1409.43 678.18C1382.72 943.121 1361.03 1218.8 1317.52 1448.95C1293.09 1578.15 1252.12 1694.15 1148.27 1585.57C1043.1 1475.61 916.758 1182.45 801.742 928.723C667.722 633.063 526.49 352.049 391.832 151.086C257.175 -49.8767 129.468 -163.376 62.4118 -102.81C9.90376 -55.3742 -2.23583 91.8013 -4.37677 252.244C-9.99202 673.826 46.9927 1211.78 161.353 1816.79M2431.83 1944.81C2264.16 1452.93 2056.83 985.056 1840.47 595.848C1820.38 559.699 1800.3 524.251 1780.27 489.93C1714.44 377.197 1646.8 272.173 1592.52 229.404C1435.5 105.528 1435.43 460.466 1411.06 673.1C1389.45 861.621 1371.55 1059.14 1345.25 1241.09C1336.2 1304.43 1326.22 1365.83 1314.86 1424.37C1290.21 1551.31 1249.67 1665.79 1148.31 1563.01C1045.67 1458.94 922.57 1177.64 810.378 934.372C679.647 650.921 541.868 381.459 410.23 188.928C364.399 121.896 319.355 65.0634 277.285 21.9485C198.546 -58.782 130.188 -91.5537 86.5953 -53.2735C34.2325 -7.29196 20.7034 134.512 16.6335 288.271C8.32553 599.363 35.1978 973.875 96.2474 1395.87C114.459 1521.78 135.71 1651.9 160.005 1785.84M2426.97 1919.73C2264.89 1444.25 2064.47 1003.73 1845.49 613.711C1825.62 578.32 1805.75 543.341 1785.93 509.56C1720.71 398.506 1653.82 294.851 1599.9 251.485C1443.72 125.596 1439.31 462.337 1412.69 668.069C1389.32 848.789 1370.52 1041.51 1343.12 1220.13C1333.83 1282.12 1323.68 1342.34 1312.21 1399.83C1287.34 1524.54 1247.23 1637.48 1148.36 1540.5C1048.25 1442.29 928.385 1172.86 819.031 940.069C691.594 668.826 557.256 410.919 428.652 226.839C383.875 162.757 339.825 108.455 298.629 67.35C221.526 -9.66594 154.277 -40.7438 110.808 -3.66856C58.5982 40.8805 43.6777 177.29 37.6657 324.345C25.3666 621.82 46.3178 977.147 100.858 1380.89C117.13 1501.37 136.381 1626.11 158.679 1754.95M2422.11 1894.63C2265.62 1435.55 2072.14 1022.36 1850.51 631.553C1830.84 596.874 1811.19 562.385 1791.59 529.166C1726.98 419.767 1660.84 317.529 1607.3 273.562C1451.97 145.681 1443.22 464.222 1414.34 663.015C1389.21 835.95 1369.14 1023.11 1341.01 1199.18C1331.37 1259.57 1321.15 1318.84 1309.58 1375.3C1284.48 1497.75 1244.8 1609.16 1148.43 1517.99C1050.84 1425.65 934.225 1168.09 827.694 945.764C703.546 686.731 572.662 440.374 447.083 264.724C403.355 203.593 360.304 151.821 319.974 112.704C244.503 39.4044 178.372 10.0166 135.025 45.9121C82.9673 89.0287 66.6552 220.044 58.7014 360.394C42.4132 644.275 57.4416 980.396 105.479 1365.92C119.811 1480.95 137.068 1600.31 157.376 1724.07M2417.25 1869.55C2266.35 1426.86 2079.82 1040.97 1855.52 649.415C1836.07 615.47 1816.62 581.452 1797.24 548.795C1733.25 441.075 1667.86 340.206 1614.67 295.639C1460.2 165.767 1447.15 466.148 1415.97 657.983C1389.11 823.174 1367.99 1005.25 1338.88 1178.22C1328.96 1237.2 1318.6 1295.34 1306.92 1350.77C1281.61 1470.97 1242.36 1580.87 1148.47 1495.48C1053.41 1409.02 940.041 1163.33 836.335 951.461C715.475 704.638 588.036 469.811 465.486 302.614C422.804 244.41 380.76 195.189 341.291 158.062C267.464 88.4988 202.446 60.8031 159.206 95.475C107.288 137.139 89.5917 262.782 79.7013 396.426C59.422 666.69 68.5294 983.626 110.052 1350.9C122.438 1460.5 137.701 1574.48 156.012 1693.13M2412.39 1844.45C2267.08 1418.16 2087.51 1059.53 1860.53 667.26C1841.3 634.025 1822.06 600.524 1802.9 568.405C1739.52 462.341 1674.87 362.866 1622.06 317.722C1468.43 185.857 1451.11 468.096 1417.61 652.956C1389.06 810.466 1366.87 987.413 1336.76 1157.29C1326.57 1214.85 1316.07 1271.87 1304.29 1326.26C1278.75 1444.2 1239.93 1552.58 1148.54 1472.99C1056 1392.4 945.884 1158.59 844.996 957.184C727.423 722.547 603.44 499.294 483.917 340.55C442.29 285.296 401.239 238.607 362.636 203.468C290.446 137.619 226.536 111.617 183.427 145.106C131.662 185.337 112.582 305.607 100.75 432.548C76.4869 689.215 79.666 986.946 114.686 1336C125.133 1440.15 138.396 1548.76 154.71 1662.3M2407.53 1819.35C2267.81 1409.45 2095.21 1078.01 1865.54 685.075C1846.52 652.549 1827.49 619.542 1808.55 587.987C1745.79 483.6 1681.88 385.495 1629.43 339.753C1476.65 205.898 1455.08 470.008 1419.23 647.855C1389.02 797.723 1365.72 969.501 1334.62 1136.27C1324.15 1192.4 1313.51 1248.3 1301.62 1301.63C1275.85 1417.34 1237.47 1524.17 1148.57 1450.39C1058.55 1375.66 951.681 1153.73 853.617 962.79C739.333 740.363 618.803 528.661 502.3 378.349C461.728 326.044 421.676 281.884 383.941 248.757C313.382 186.624 250.592 162.312 207.596 194.6C155.984 233.399 135.507 348.276 121.738 468.51C93.4838 711.561 90.7419 990.108 119.253 1320.91C127.754 1419.62 139.022 1522.86 153.345 1631.29M2402.67 1794.27C2268.53 1400.77 2102.93 1096.49 1870.55 702.941C1851.75 671.102 1832.92 638.613 1814.21 607.618C1752.05 504.888 1688.9 408.176 1636.81 361.856C1484.88 225.987 1459.09 472.056 1420.87 642.847C1389.03 785.113 1364.62 951.702 1332.5 1115.36C1321.77 1170.1 1310.97 1224.83 1298.99 1277.15C1272.99 1390.59 1235.04 1495.9 1148.63 1427.92C1061.15 1359.09 957.511 1149 862.285 968.532C751.295 758.313 634.212 558.164 520.742 416.303C481.217 366.926 442.167 325.319 405.298 294.179C336.376 235.761 274.706 213.163 231.825 244.249C180.357 281.593 158.496 391.098 142.78 504.631C110.542 734.085 101.872 993.426 123.875 1306.01C130.436 1399.28 139.705 1497.14 152.031 1600.46M2397.81 1769.16C2269.26 1392.06 2110.65 1114.86 1875.56 720.778C1856.98 689.624 1838.37 657.675 1819.87 627.222C1758.33 526.169 1695.92 430.85 1644.2 383.931C1493.13 246.069 1463.14 474.09 1422.51 637.79C1389.07 772.515 1363.5 933.855 1330.38 1094.38C1319.37 1147.69 1308.43 1201.31 1296.33 1252.59C1270.13 1363.79 1232.6 1467.56 1148.69 1405.41C1063.73 1342.44 963.339 1144.23 870.936 974.226C763.236 776.217 649.6 587.621 539.156 454.19C500.685 407.762 462.634 368.684 426.626 339.535C359.348 284.853 298.784 263.925 256.024 293.831C204.709 329.743 181.457 433.853 163.806 540.703C127.577 756.54 112.986 996.698 128.479 1291.03C133.095 1378.86 140.362 1471.33 150.706 1569.59M2392.94 1744.06C2269.99 1383.36 2118.37 1133.16 1880.57 738.62C1862.21 708.15 1843.8 676.721 1825.53 646.828C1764.59 547.432 1702.94 453.505 1651.58 405.985C1501.35 266.134 1467.21 476.169 1424.14 632.735C1389.14 759.982 1362.4 916.052 1328.25 1073.42C1316.99 1125.36 1305.89 1177.81 1293.69 1228.05C1267.26 1337 1230.16 1439.25 1148.75 1382.89C1066.31 1325.79 969.167 1139.47 879.588 979.922C775.177 794.123 664.994 617.078 557.578 492.1C520.161 448.622 483.103 412.076 447.961 384.914C382.315 333.948 322.872 314.734 280.229 343.413C229.06 377.871 204.417 476.61 184.83 576.754C144.617 778.996 124.098 999.948 133.089 1276.06C135.765 1358.45 141.032 1445.54 149.385 1538.69M2388.09 1718.99C2270.72 1374.67 2126.12 1151.44 1885.59 756.464C1867.43 726.656 1849.24 695.768 1831.18 666.417C1770.85 568.698 1709.94 476.142 1658.95 428.047C1509.58 286.203 1471.3 478.292 1425.76 627.665C1389.23 747.496 1361.29 898.233 1326.11 1052.43C1314.58 1102.97 1303.32 1154.28 1291.03 1203.48C1264.37 1310.19 1227.7 1410.89 1148.78 1360.34C1068.87 1309.11 974.971 1134.66 888.216 985.581C787.098 811.99 680.364 646.498 575.967 529.952C539.598 489.401 503.533 455.386 469.265 430.234C405.255 382.983 346.926 365.461 304.404 392.96C253.382 425.987 227.354 519.33 205.825 612.77C161.621 801.394 135.173 1003.14 137.657 1261.03C138.392 1337.98 141.66 1419.69 148.015 1507.73M2383.22 1693.88C2271.45 1365.97 2133.84 1169.6 1890.6 774.303C1872.66 745.156 1854.67 714.834 1836.83 686.021C1777.11 589.959 1716.95 498.796 1666.33 450.099C1517.81 306.264 1475.45 480.49 1427.39 622.608C1389.37 735.083 1360.19 880.426 1323.99 1031.47C1312.21 1080.63 1300.78 1130.78 1288.39 1178.94C1261.51 1283.39 1225.27 1382.6 1148.85 1337.82C1071.47 1292.48 980.807 1129.87 896.886 991.294C799.049 829.891 695.775 675.972 594.404 567.855C559.089 530.253 524.024 498.768 490.624 475.628C428.251 432.091 371.035 416.261 328.627 442.559C277.758 474.153 250.333 562.103 226.874 648.86C178.687 823.888 146.31 1006.43 142.284 1246.07C141.075 1317.58 142.348 1393.92 146.711 1476.85M2378.36 1668.8C2272.18 1357.29 2141.57 1187.68 1895.61 792.169C1877.9 763.681 1860.1 733.833 1842.49 705.653C1783.37 611.056 1723.98 521.498 1673.72 472.202C1526.05 326.353 1479.63 482.779 1429.04 617.6C1389.57 722.806 1359.13 862.712 1321.87 1010.54C1309.84 1058.32 1298.25 1107.28 1285.74 1154.41C1258.64 1256.62 1222.84 1354.28 1148.9 1315.32C1074.04 1275.83 986.63 1125.11 905.539 996.993C810.991 847.8 711.17 705.432 612.827 605.769C578.566 571.116 544.495 542.162 511.961 521.01C451.227 481.211 395.125 467.073 352.841 492.166C302.116 522.306 273.307 604.883 247.907 684.936C195.728 846.347 157.431 1009.7 146.903 1231.12C143.753 1297.19 143.027 1368.16 145.401 1446M2373.5 1643.7C2272.91 1348.58 2149.3 1205.64 1900.62 810.009C1883.12 782.159 1865.55 752.898 1848.15 725.258C1789.64 632.316 1731 544.153 1681.1 494.258C1534.27 346.418 1483.85 485.125 1430.67 612.524C1389.77 710.521 1358.04 844.93 1319.74 989.557C1307.46 1035.96 1295.7 1083.76 1283.09 1129.86C1255.76 1229.8 1220.39 1325.95 1148.95 1292.78C1076.62 1259.16 992.45 1120.32 914.183 1002.67C822.93 865.681 726.556 734.866 631.233 643.634C598.014 611.911 564.954 585.506 533.276 566.345C474.179 530.262 419.19 517.816 377.019 541.707C326.448 570.414 296.247 647.597 268.905 720.945C212.743 868.76 168.518 1012.91 151.474 1216.09C146.379 1276.71 143.658 1342.3 144.035 1415.04M2368.64 1618.6C2273.63 1339.87 2157.02 1223.51 1905.63 827.848C1888.34 800.636 1870.98 771.942 1853.8 744.864C1795.9 653.577 1738.01 566.807 1688.48 516.335C1542.51 366.503 1488.1 487.555 1432.3 607.491C1390.02 698.366 1356.98 827.21 1317.61 968.601C1305.07 1013.63 1293.16 1060.26 1280.44 1105.32C1252.9 1203.03 1217.95 1297.63 1149 1270.27C1079.2 1242.54 998.273 1115.56 922.829 1008.36C834.865 883.587 741.939 764.325 649.649 681.545C617.484 652.771 585.418 628.897 554.607 611.724C497.146 579.355 443.271 568.601 401.221 591.313C350.802 618.588 319.205 690.378 289.928 757.044C229.775 891.241 179.628 1016.21 156.083 1201.16C149.048 1256.34 144.327 1316.56 142.713 1384.19M2363.78 1593.52C2274.37 1331.19 2164.73 1241.28 1910.65 845.688C1893.58 819.112 1876.42 790.985 1859.47 764.468C1802.17 674.837 1745.03 589.46 1695.86 538.389C1550.74 386.565 1492.42 490.067 1433.93 602.414C1390.3 686.229 1355.91 809.47 1315.48 947.623C1302.7 991.296 1290.61 1036.74 1277.79 1080.76C1250.02 1176.21 1215.5 1269.29 1149.05 1247.73C1081.77 1225.87 1004.09 1110.75 931.474 1014.04C846.804 901.47 757.325 793.76 668.061 719.41C636.951 693.585 605.884 672.241 575.94 657.08C520.111 628.427 467.357 619.387 425.432 640.893C375.158 666.714 342.176 733.131 310.958 793.093C246.82 913.695 190.746 1019.46 160.69 1186.16C151.703 1235.88 144.987 1290.72 141.384 1353.26M2358.92 1568.42C2275.09 1322.49 2172.43 1258.91 1915.65 863.531C1898.79 837.57 1881.84 810.033 1865.11 784.079C1808.43 696.126 1752.08 612.37 1703.23 560.47C1559.11 407.363 1496.77 492.714 1435.56 597.385C1390.63 674.248 1354.87 791.799 1313.36 926.67C1300.33 968.985 1288.06 1013.25 1275.14 1056.23C1247.15 1149.44 1213.07 1240.98 1149.1 1225.22C1084.34 1209.23 1009.91 1105.99 940.126 1019.73C858.745 919.377 772.719 823.218 686.483 757.321C656.42 734.424 626.354 715.633 597.277 702.46C543.091 677.544 491.443 670.173 449.632 690.478C399.506 714.868 365.132 775.89 331.977 829.147C263.849 936.131 201.853 1022.71 165.29 1171.19C154.362 1215.47 145.647 1264.94 140.054 1322.39M2354.07 1543.34C2275.82 1313.8 2180.12 1276.45 1920.68 881.394C1904.03 856.047 1887.29 829.123 1870.78 803.707C1814.71 717.41 1759.12 635.046 1710.64 582.569C1567.36 427.448 1501.18 495.465 1437.23 592.373C1391.03 662.368 1353.85 774.165 1311.26 905.756C1298 946.736 1285.55 989.793 1272.52 1031.74C1244.31 1122.69 1210.65 1212.71 1149.19 1202.77C1086.96 1192.67 1015.77 1101.29 948.807 1025.5C870.714 937.349 788.142 852.742 704.926 795.276C675.917 775.328 646.845 759.068 618.634 747.883C566.085 726.681 515.558 721.025 473.86 740.128C423.879 763.064 388.129 818.736 353.033 865.288C280.92 958.677 212.991 1026.05 169.924 1156.28C157.05 1195.13 146.346 1239.21 138.756 1291.56M2349.2 1518.24C2276.54 1305.08 2187.79 1293.85 1925.68 899.239C1909.25 874.504 1892.72 848.17 1876.43 823.318C1820.97 738.699 1766.12 657.706 1718 604.63C1575.57 447.518 1505.62 498.328 1438.84 587.303C1391.41 650.517 1352.8 756.495 1309.11 884.761C1295.61 924.405 1282.97 966.234 1269.86 1007.17C1241.42 1095.87 1208.2 1184.37 1149.22 1180.22C1089.51 1175.98 1021.57 1096.49 957.434 1031.15C882.628 955.192 803.503 882.138 723.315 833.125C695.361 816.127 667.287 802.397 639.937 793.202C589.02 775.716 539.606 771.751 498.027 789.651C448.199 811.154 411.058 861.431 374.019 901.279C297.915 981.051 224.058 1029.22 174.496 1141.25C159.682 1174.65 146.979 1213.37 137.392 1260.6M2344.34 1493.13C2277.27 1296.37 2195.44 1311.08 1930.69 917.055C1914.47 892.91 1898.16 867.213 1882.09 842.898C1827.24 759.935 1773.13 680.335 1725.39 626.682C1583.8 467.556 1510.12 501.29 1440.48 582.245C1391.85 638.765 1351.8 738.88 1306.99 863.802C1293.26 902.11 1280.44 942.734 1267.21 982.609C1238.55 1069.05 1205.76 1156.03 1149.27 1157.68C1092.09 1159.31 1027.39 1091.67 966.083 1036.82C894.566 973.073 818.894 911.57 741.739 871.01C714.832 856.938 687.759 845.761 661.283 838.576C612.002 824.804 563.702 822.532 522.25 839.25C472.574 859.321 434.036 904.205 395.061 937.348C314.974 1003.52 235.188 1032.49 179.111 1126.27C162.357 1154.23 147.654 1187.57 136.07 1229.7M2339.48 1468.05C2278 1287.69 2203.08 1328.2 1935.71 934.917C1919.69 911.364 1903.59 886.28 1887.75 862.528C1833.51 781.244 1780.15 703.015 1732.77 648.76C1592.03 487.622 1514.67 504.43 1442.11 577.191C1392.32 627.104 1350.78 721.27 1304.86 842.826C1290.89 879.799 1277.89 919.215 1264.56 958.055C1235.67 1042.26 1203.3 1127.7 1149.32 1135.15C1094.67 1142.66 1033.21 1086.89 974.728 1042.5C906.5 990.958 834.276 941.007 760.146 908.876C734.293 897.754 708.219 889.107 682.604 883.911C634.967 873.876 587.781 873.296 546.435 888.791C496.904 907.407 456.982 946.918 416.073 973.378C331.994 1025.94 246.287 1035.72 183.7 1111.26C165.002 1133.77 148.304 1161.74 134.728 1198.76M2334.62 1442.95C2278.72 1278.98 2210.68 1345.15 1940.71 952.759C1924.9 929.772 1909.02 905.325 1893.4 882.134C1839.78 802.529 1787.13 725.461 1740.14 670.839C1600.13 507.044 1519.28 507.724 1443.74 572.161C1392.82 615.575 1349.78 703.702 1302.74 821.892C1288.54 857.551 1275.35 895.739 1261.92 933.543C1232.81 1015.49 1200.87 1099.4 1149.38 1112.66C1097.25 1126.04 1039.04 1082.15 983.387 1048.22C918.453 1008.88 849.677 970.485 778.575 946.807C753.776 938.635 728.696 932.519 703.947 929.311C657.942 922.992 611.874 924.102 570.65 938.417C521.266 955.603 479.952 989.72 437.101 1009.48C349.039 1048.44 257.404 1039.01 188.315 1096.33C167.676 1113.4 148.971 1135.97 133.413 1167.93M2329.76 1417.87C2279.46 1270.3 2218.27 1361.97 1945.74 970.622C1930.14 948.225 1914.47 924.415 1899.06 901.764C1846.05 823.838 1794.15 748.141 1747.53 692.917C1608.36 527.109 1523.95 511.172 1445.39 567.128C1393.38 604.154 1348.81 686.176 1300.62 800.936C1286.2 835.281 1272.82 872.242 1259.27 909.01C1229.94 988.713 1198.43 1071.09 1149.44 1090.15C1099.84 1109.39 1044.87 1077.38 992.04 1053.91C930.395 1026.79 865.071 999.943 796.989 984.697C773.233 979.454 749.157 975.865 725.276 974.669C680.908 972.065 635.948 974.869 594.855 988.001C545.625 1003.75 502.919 1032.48 458.126 1045.53C366.072 1070.87 268.516 1042.26 192.912 1081.33C170.328 1092.97 149.629 1110.16 132.08 1137.01M2324.9 1392.77C2280.18 1261.59 2225.81 1378.58 1950.74 988.441C1935.34 966.612 1919.9 943.438 1904.71 921.348C1852.32 845.101 1801.16 770.773 1754.91 714.974C1616.59 547.174 1528.66 514.775 1447.01 562.053C1393.94 592.78 1347.82 668.609 1298.48 779.961C1283.84 812.992 1270.26 848.703 1256.62 884.456C1227.06 961.898 1195.99 1042.76 1149.48 1067.61C1102.41 1092.75 1050.68 1072.58 1000.68 1059.59C942.323 1044.68 880.452 1029.38 815.404 1022.59C792.701 1020.29 769.619 1019.24 746.612 1020.05C703.875 1021.16 660.042 1025.68 619.055 1037.59C569.97 1051.88 525.88 1075.23 479.145 1081.58C383.108 1093.33 279.624 1045.52 197.517 1066.36C172.993 1072.56 150.294 1084.38 130.748 1106.12M2320.04 1367.67C2280.91 1252.89 2233.34 1395.03 1955.75 1006.28C1940.55 984.999 1925.34 962.554 1910.37 940.957C1858.6 866.575 1808.17 793.431 1762.29 737.053C1624.82 567.263 1533.43 518.576 1448.65 557.023C1394.55 581.539 1346.86 651.151 1296.36 759.006C1281.5 790.743 1267.72 825.206 1253.98 859.922C1224.2 935.125 1193.55 1014.44 1149.54 1045.1C1104.99 1076.1 1056.51 1067.81 1009.33 1065.29C954.262 1062.56 895.847 1058.84 833.818 1060.48C812.17 1061.13 790.082 1062.61 767.941 1065.41C726.848 1070.26 684.121 1076.44 643.255 1087.17C594.323 1100.04 548.836 1117.99 500.172 1117.66C400.144 1115.79 290.738 1048.79 202.122 1051.39C175.653 1052.15 150.96 1058.59 129.417 1075.22M2315.18 1342.58C2281.64 1244.21 2240.82 1411.31 1960.77 1024.14C1945.78 1003.43 1930.79 981.641 1916.02 960.561C1864.88 887.857 1815.19 816.105 1769.67 759.106C1633.06 587.323 1538.26 522.553 1450.27 551.944C1395.17 570.362 1345.89 633.646 1294.23 738.026C1279.15 768.472 1265.17 801.685 1251.32 835.342C1221.32 908.284 1191.11 986.1 1149.58 1022.54C1107.56 1059.41 1062.32 1063 1017.97 1070.94C966.188 1080.42 911.225 1088.25 852.217 1098.32C831.616 1101.9 810.534 1105.93 789.254 1110.72C749.798 1119.28 708.186 1127.18 667.432 1136.69C618.652 1148.12 571.774 1160.68 521.168 1153.64C417.156 1138.18 301.822 1051.97 206.699 1036.35C178.289 1031.67 151.596 1032.73 128.069 1044.28M2310.32 1317.48C2282.37 1235.5 2248.27 1427.4 1965.78 1041.98C1950.99 1021.81 1936.22 1000.68 1921.68 980.166C1871.14 909.119 1822.2 838.76 1777.05 781.183C1641.29 607.409 1543.14 526.733 1451.91 546.912C1395.82 559.323 1344.95 616.23 1292.11 717.069C1276.82 746.245 1262.63 778.186 1248.67 810.808C1218.45 881.511 1188.67 957.786 1149.64 1000.05C1110.14 1042.79 1068.15 1058.26 1026.63 1076.66C978.141 1098.35 926.626 1117.73 870.646 1136.25C851.099 1142.78 831.011 1149.34 810.597 1156.12C772.772 1168.4 732.279 1177.99 691.652 1186.31C643.017 1196.29 594.75 1203.48 542.207 1189.74C434.204 1160.66 312.942 1055.24 211.316 1021.4C180.966 1011.27 152.274 1006.97 126.75 1013.4M2305.46 1292.4C2283.1 1226.82 2255.68 1443.3 1970.79 1059.85C1956.21 1040.22 1941.66 1019.76 1927.34 999.798C1877.42 930.428 1829.22 861.44 1784.43 803.264C1649.52 627.475 1548.07 531.119 1453.55 541.881C1396.5 548.376 1344.03 598.836 1289.99 696.137C1274.5 724.041 1260.09 754.713 1246.04 786.298C1215.59 854.74 1186.24 929.494 1149.71 977.564C1112.74 1026.18 1073.98 1053.5 1035.29 1082.38C990.09 1116.28 942.023 1147.21 889.068 1174.16C870.576 1183.65 851.487 1192.73 831.929 1201.5C795.74 1217.5 756.361 1228.78 715.847 1235.9C667.36 1244.45 617.706 1246.24 563.229 1225.82C451.242 1183.14 324.052 1058.52 215.916 1006.43C183.621 990.862 152.934 981.181 125.413 982.509M2300.6 1267.3C2283.83 1218.11 2263.04 1458.97 1975.8 1077.67C1961.41 1058.56 1947.1 1038.8 1932.99 1019.38C1883.67 951.669 1836.23 884.073 1791.81 825.319C1657.75 647.54 1553.04 535.683 1455.18 536.805C1397.18 537.474 1343.1 581.44 1287.85 675.138C1272.15 701.772 1257.54 731.148 1243.38 761.72C1212.71 827.922 1183.79 901.135 1149.75 955.006C1115.31 1009.49 1079.8 1048.69 1043.93 1088.03C1002.02 1134.14 957.408 1176.62 907.486 1212.03C890.041 1224.44 871.952 1236.07 853.268 1246.86C818.724 1266.59 780.452 1279.56 740.058 1285.48C691.715 1292.57 640.678 1289 584.253 1261.87C468.283 1205.59 335.164 1061.77 220.521 991.456C186.286 970.448 153.592 955.371 124.087 951.611M2295.73 1242.2C2284.55 1209.41 2270.35 1474.44 1980.81 1095.51C1966.62 1076.92 1952.53 1057.84 1938.65 1038.99C1889.95 972.951 1843.25 906.749 1799.19 847.375C1665.98 667.603 1558.06 540.452 1456.81 531.75C1397.87 526.688 1342.19 564.113 1285.73 654.181C1269.83 679.566 1255 707.65 1240.74 737.185C1209.84 801.126 1181.35 872.817 1149.81 932.492C1117.89 992.845 1085.63 1043.93 1052.58 1093.72C1013.97 1152.04 972.801 1206.08 925.9 1249.91C909.509 1265.27 892.419 1279.44 874.596 1292.21C841.683 1315.66 804.531 1330.33 764.263 1335.06C716.073 1340.72 663.639 1331.75 605.278 1297.92C485.316 1228.03 346.276 1065.02 225.123 976.459C188.943 950.01 154.254 929.557 122.76 920.712M2290.87 1217.12C2285.28 1200.72 2277.62 1489.7 1985.82 1113.37C1971.82 1095.31 1957.97 1076.93 1944.3 1058.62C1896.21 994.238 1850.26 929.429 1806.57 869.476C1674.22 687.713 1563.12 545.474 1458.44 526.72C1398.57 515.998 1341.44 547.219 1283.6 633.227C1267.53 657.472 1252.44 684.156 1238.08 712.653C1206.97 774.355 1178.9 844.505 1149.86 909.982C1120.46 976.223 1091.45 1039.16 1061.22 1099.42C1025.9 1169.95 988.184 1235.54 944.311 1287.83C928.974 1306.14 912.879 1322.84 895.921 1337.59C864.645 1364.75 828.606 1381.11 788.452 1384.65C740.415 1388.88 686.596 1374.53 626.293 1333.99C502.348 1250.51 357.38 1068.3 229.725 961.51C191.605 929.621 154.916 903.794 121.43 889.839M2286.01 1192.02C2286.01 1192.02 2284.85 1504.73 1990.84 1131.21C1696.83 757.689 1489.54 320.264 1281.48 612.271C1137.7 814.067 1075.46 1218.1 917.261 1382.95C852.17 1450.77 761.601 1456.78 647.323 1370.04C519.386 1272.94 368.498 1071.55 234.328 946.515C194.262 909.186 155.584 877.981 120.096 858.92" stroke="#E5ACB8" stroke-width="0.5" stroke-miterlimit="10"/>
</svg>
